<?xml version="1.0" encoding="utf-8" standalone="no"?>
<!DOCTYPE svg PUBLIC "-//W3C//DTD SVG 1.1//EN"
  "http://www.w3.org/Graphics/SVG/1.1/DTD/svg11.dtd">
<svg xmlns:xlink="http://www.w3.org/1999/xlink" width="922.32pt" height="288pt" viewBox="0 0 922.32 288" xmlns="http://www.w3.org/2000/svg" version="1.1">
 <metadata>
  <rdf:RDF xmlns:dc="http://purl.org/dc/elements/1.1/" xmlns:cc="http://creativecommons.org/ns#" xmlns:rdf="http://www.w3.org/1999/02/22-rdf-syntax-ns#">
   <cc:Work>
    <dc:type rdf:resource="http://purl.org/dc/dcmitype/StillImage"/>
    <dc:date>2022-11-11T21:47:24.450766</dc:date>
    <dc:format>image/svg+xml</dc:format>
    <dc:creator>
     <cc:Agent>
      <dc:title>Matplotlib v3.5.1, https://matplotlib.org/</dc:title>
     </cc:Agent>
    </dc:creator>
   </cc:Work>
  </rdf:RDF>
 </metadata>
 <defs>
  <style type="text/css">*{stroke-linejoin: round; stroke-linecap: butt}</style>
 </defs>
 <g id="figure_1">
  <g id="patch_1">
   <path d="M 0 288 
L 922.32 288 
L 922.32 0 
L 0 0 
z
" style="fill: #ffffff"/>
  </g>
  <g id="axes_1">
   <g id="patch_2">
    <path d="M 115.29 82.768696 
L 830.088 82.768696 
L 830.088 34.56 
L 115.29 34.56 
z
" style="fill: #ffffff"/>
   </g>
   <g id="patch_3">
    <path d="M 562.428359 82.768696 
L 562.428359 34.56 
L 566.416775 34.56 
L 566.416775 82.768696 
z
" clip-path="url(#p6eb36b6c1a)" style="fill: #ff7f50; stroke: #ff7f50; stroke-linejoin: miter"/>
   </g>
   <g id="matplotlib.axis_1"/>
   <g id="matplotlib.axis_2">
    <g id="text_1">
     <!-- Input -->
     <g transform="translate(108.378438 76.789973)rotate(-90)scale(0.14 -0.14)">
      <defs>
       <path id="DejaVuSans-49" d="M 628 4666 
L 1259 4666 
L 1259 0 
L 628 0 
L 628 4666 
z
" transform="scale(0.015625)"/>
       <path id="DejaVuSans-6e" d="M 3513 2113 
L 3513 0 
L 2938 0 
L 2938 2094 
Q 2938 2591 2744 2837 
Q 2550 3084 2163 3084 
Q 1697 3084 1428 2787 
Q 1159 2491 1159 1978 
L 1159 0 
L 581 0 
L 581 3500 
L 1159 3500 
L 1159 2956 
Q 1366 3272 1645 3428 
Q 1925 3584 2291 3584 
Q 2894 3584 3203 3211 
Q 3513 2838 3513 2113 
z
" transform="scale(0.015625)"/>
       <path id="DejaVuSans-70" d="M 1159 525 
L 1159 -1331 
L 581 -1331 
L 581 3500 
L 1159 3500 
L 1159 2969 
Q 1341 3281 1617 3432 
Q 1894 3584 2278 3584 
Q 2916 3584 3314 3078 
Q 3713 2572 3713 1747 
Q 3713 922 3314 415 
Q 2916 -91 2278 -91 
Q 1894 -91 1617 61 
Q 1341 213 1159 525 
z
M 3116 1747 
Q 3116 2381 2855 2742 
Q 2594 3103 2138 3103 
Q 1681 3103 1420 2742 
Q 1159 2381 1159 1747 
Q 1159 1113 1420 752 
Q 1681 391 2138 391 
Q 2594 391 2855 752 
Q 3116 1113 3116 1747 
z
" transform="scale(0.015625)"/>
       <path id="DejaVuSans-75" d="M 544 1381 
L 544 3500 
L 1119 3500 
L 1119 1403 
Q 1119 906 1312 657 
Q 1506 409 1894 409 
Q 2359 409 2629 706 
Q 2900 1003 2900 1516 
L 2900 3500 
L 3475 3500 
L 3475 0 
L 2900 0 
L 2900 538 
Q 2691 219 2414 64 
Q 2138 -91 1772 -91 
Q 1169 -91 856 284 
Q 544 659 544 1381 
z
M 1991 3584 
L 1991 3584 
z
" transform="scale(0.015625)"/>
       <path id="DejaVuSans-74" d="M 1172 4494 
L 1172 3500 
L 2356 3500 
L 2356 3053 
L 1172 3053 
L 1172 1153 
Q 1172 725 1289 603 
Q 1406 481 1766 481 
L 2356 481 
L 2356 0 
L 1766 0 
Q 1100 0 847 248 
Q 594 497 594 1153 
L 594 3053 
L 172 3053 
L 172 3500 
L 594 3500 
L 594 4494 
L 1172 4494 
z
" transform="scale(0.015625)"/>
      </defs>
      <use xlink:href="#DejaVuSans-49"/>
      <use xlink:href="#DejaVuSans-6e" x="29.492188"/>
      <use xlink:href="#DejaVuSans-70" x="92.871094"/>
      <use xlink:href="#DejaVuSans-75" x="156.347656"/>
      <use xlink:href="#DejaVuSans-74" x="219.726562"/>
     </g>
    </g>
   </g>
   <g id="line2d_1">
    <path d="M 147.780818 45.866155 
L 148.076256 44.22118 
L 148.667133 42.226533 
L 148.814852 42.361627 
L 148.962571 42.329859 
L 149.258009 42.667647 
L 149.848886 44.694063 
L 150.587481 49.279262 
L 151.030639 54.786342 
L 151.621515 63.174089 
L 151.769234 62.824437 
L 152.360111 60.213939 
L 152.655549 58.886837 
L 153.098706 56.661758 
L 153.246425 56.089602 
L 153.394144 56.169065 
L 153.541863 56.018076 
L 153.985021 56.987579 
L 154.428178 58.676248 
L 155.314493 63.225741 
L 155.75765 64.294581 
L 156.200807 64.719727 
L 156.348527 64.687938 
L 156.496246 64.783295 
L 156.643965 64.441591 
L 156.791684 64.624369 
L 156.939403 64.429675 
L 157.087122 64.624369 
L 157.234841 64.465433 
L 157.530279 64.85879 
L 158.712032 67.485183 
L 159.450628 68.85599 
L 159.746066 69.432125 
L 159.893785 69.551325 
L 160.189223 70.000313 
L 160.336943 70.059913 
L 161.370976 71.796277 
L 161.666414 72.14195 
L 162.109572 73.051853 
L 162.257291 73.210789 
L 163.291325 75.51931 
L 163.734482 75.531225 
L 164.325358 76.321918 
L 165.359392 77.911261 
L 165.507111 77.672862 
L 165.80255 75.924593 
L 166.097988 72.245265 
L 167.132022 56.121381 
L 167.575179 52.450001 
L 167.870617 51.21032 
L 168.018336 51.075225 
L 168.313774 51.353362 
L 168.609213 51.293762 
L 168.756932 51.47653 
L 168.904651 51.420909 
L 169.347808 50.7653 
L 170.086404 47.689929 
L 171.120438 41.698134 
L 171.268157 41.535229 
L 171.563595 40.879547 
L 171.711314 40.744453 
L 171.859033 40.978915 
L 172.006752 40.91142 
L 172.154471 41.16963 
L 172.893067 43.62914 
L 173.483943 48.27798 
L 173.779381 52.064591 
L 174.370258 61.616535 
L 174.517977 62.152944 
L 174.813415 60.635117 
L 175.69973 55.962455 
L 175.995168 55.024742 
L 176.290606 54.690974 
L 176.586045 54.933352 
L 177.029202 56.475012 
L 178.358674 63.309183 
L 178.94955 64.294581 
L 179.392708 64.095908 
L 179.540427 64.048234 
L 179.688146 63.766119 
L 179.835865 63.917108 
L 180.131303 63.960813 
L 180.574461 64.290602 
L 180.869899 64.922369 
L 183.381124 70.175145 
L 183.676562 70.361891 
L 184.415157 71.597604 
L 184.562877 71.60952 
L 184.858315 72.177718 
L 186.040068 75.002764 
L 186.187787 75.098132 
L 186.778663 74.947143 
L 186.926382 75.384215 
L 187.074101 75.392163 
L 187.517259 76.031866 
L 187.664978 75.845119 
L 187.960416 76.393444 
L 188.255854 76.560328 
L 188.551292 75.169647 
L 188.846731 71.569794 
L 190.028484 52.287096 
L 190.323922 49.859376 
L 190.61936 48.997157 
L 190.914798 49.017031 
L 191.062517 49.064704 
L 191.357956 49.601113 
L 191.801113 49.378598 
L 191.948832 49.239535 
L 192.391989 48.182622 
L 193.86918 38.455868 
L 194.460057 37.363135 
L 194.607776 37.696965 
L 194.755495 37.673113 
L 195.346372 39.210814 
L 196.380405 45.039663 
L 196.675843 48.107128 
L 197.119001 55.600877 
L 197.414439 59.427214 
L 197.562158 59.844424 
L 199.187068 52.330801 
L 199.482507 52.493706 
L 199.630226 52.680463 
L 200.368821 56.00616 
L 200.959698 59.55834 
L 201.698293 62.474775 
L 201.993731 62.709206 
L 202.141451 62.836353 
L 202.436889 62.590006 
L 202.584608 62.629743 
L 202.732327 62.160881 
L 202.880046 62.125123 
L 203.027765 62.339691 
L 203.175484 62.172807 
L 203.470923 62.542333 
L 203.618642 62.740995 
L 204.800395 65.95544 
L 205.095833 66.936858 
L 205.391271 67.767288 
L 206.129867 69.233452 
L 206.425305 69.304978 
L 206.573024 69.606957 
L 206.720743 69.642714 
L 207.902496 71.188352 
L 208.93653 74.605438 
L 209.231968 75.090184 
L 209.379687 75.157732 
L 209.675125 74.716691 
L 210.266002 75.777572 
L 210.56144 76.107361 
L 210.709159 76.135171 
L 211.152316 76.699391 
L 211.447754 76.46496 
L 211.595474 75.837172 
L 211.890912 72.841264 
L 212.481788 62.836353 
L 213.220384 52.279149 
L 213.515822 50.209028 
L 213.958979 49.223641 
L 214.106698 49.322977 
L 214.402137 49.601113 
L 214.549856 49.636871 
L 214.697575 49.827587 
L 215.288451 49.326946 
L 215.58389 48.150833 
L 215.879328 46.545595 
L 217.2088 39.020098 
L 217.504238 38.881046 
L 217.651957 39.051867 
L 218.095114 40.168349 
L 218.83371 42.401416 
L 219.572306 47.876676 
L 220.015463 55.318762 
L 220.310901 59.935803 
L 220.45862 61.096021 
L 220.606339 60.897358 
L 221.492654 56.427338 
L 221.788092 54.567806 
L 221.935811 54.118818 
L 222.08353 54.067165 
L 222.231249 53.828755 
L 222.378969 53.824787 
L 222.526688 54.023449 
L 223.413002 58.886837 
L 223.85616 61.425809 
L 224.299317 63.257531 
L 224.594755 64.008497 
L 224.742474 63.917108 
L 225.037913 64.143592 
L 225.48107 63.778045 
L 225.628789 63.52772 
L 225.776508 63.638972 
L 225.924227 63.34892 
L 226.219665 63.336994 
L 227.10598 64.71178 
L 227.401418 65.669356 
L 228.73089 68.852011 
L 229.321767 69.897008 
L 229.617205 70.481091 
L 230.060362 71.156563 
L 230.355801 71.394962 
L 230.946677 72.531339 
L 231.094396 72.61478 
L 231.537553 73.842546 
L 232.12843 74.637217 
L 232.423868 74.605438 
L 233.310183 76.313981 
L 234.196497 78.527134 
L 234.344216 78.47946 
L 234.491936 78.562891 
L 234.639655 78.340387 
L 234.935093 76.814622 
L 235.37825 71.764488 
L 236.116846 61.270852 
L 236.560003 56.788906 
L 237.00316 54.071134 
L 237.15088 53.967829 
L 237.298599 53.709556 
L 237.446318 53.888355 
L 237.741756 53.693661 
L 237.889475 53.995639 
L 238.037194 54.035376 
L 238.332632 53.932071 
L 239.366666 50.669942 
L 239.662104 49.144178 
L 240.252981 46.867436 
L 240.548419 46.509837 
L 240.843857 46.601227 
L 241.139296 47.149551 
L 241.730172 49.879239 
L 242.02561 52.263254 
L 242.468768 59.252394 
L 242.911925 66.658722 
L 243.059644 66.670638 
L 243.502801 64.048234 
L 244.389116 59.530519 
L 244.832273 58.855058 
L 244.979992 59.280204 
L 245.127711 59.335825 
L 245.42315 60.110634 
L 246.900341 67.258699 
L 247.343498 67.926224 
L 247.491217 67.803045 
L 247.638936 67.862645 
L 247.934375 67.640141 
L 248.229813 67.604383 
L 248.377532 67.350089 
L 248.968408 67.640141 
L 251.184195 72.002887 
L 251.479633 72.277044 
L 252.218229 73.500841 
L 252.365948 73.600178 
L 252.513667 73.906124 
L 252.661386 73.94983 
L 253.104543 74.577617 
L 253.399982 74.911385 
L 253.843139 75.698109 
L 254.138577 76.480855 
L 254.581735 77.641073 
L 254.877173 77.943051 
L 255.32033 77.911261 
L 255.615768 78.403965 
L 256.94524 80.489971 
L 257.092959 80.112508 
L 257.388398 78.268871 
L 257.831555 72.459823 
L 258.71787 59.208678 
L 259.161027 56.033971 
L 259.456465 54.663164 
L 259.604184 54.559859 
L 259.899622 54.635353 
L 260.047342 54.885668 
L 260.195061 54.778395 
L 260.490499 55.116131 
L 261.081375 54.130733 
L 262.854005 44.856967 
L 263.149443 44.658232 
L 263.444881 45.178819 
L 264.035758 46.565469 
L 264.478915 48.520358 
L 264.922072 51.877844 
L 265.36523 58.67228 
L 265.808387 65.438904 
L 265.956106 65.39122 
L 267.285578 58.469638 
L 267.728735 57.547819 
L 268.467331 59.526551 
L 268.762769 60.770211 
L 269.353645 64.056171 
L 269.944522 66.058745 
L 270.092241 66.225628 
L 270.23996 66.563364 
L 270.387679 66.563364 
L 270.535398 66.384565 
L 270.683117 66.384565 
L 270.830837 66.269334 
L 270.978556 66.336881 
L 271.126275 66.134239 
L 271.569432 66.396481 
L 271.717151 66.706406 
L 271.86487 66.622964 
L 272.455747 67.509025 
L 272.751185 68.32356 
L 273.046623 68.697054 
L 273.489781 69.734104 
L 274.966972 72.594917 
L 275.410129 73.151189 
L 275.853286 73.747188 
L 276.001005 73.774998 
L 277.478197 76.687475 
L 277.773635 76.929843 
L 277.921354 76.846401 
L 278.955388 78.189398 
L 279.546264 79.401268 
L 279.693983 79.349616 
L 279.841702 79.107248 
L 280.13714 77.378831 
L 280.432579 73.616072 
L 281.023455 64.127697 
L 281.614332 56.733285 
L 282.057489 53.45924 
L 282.500646 52.990378 
L 282.648365 53.232757 
L 282.796084 53.248651 
L 282.943804 53.423472 
L 283.091523 53.320167 
L 283.239242 53.542682 
L 283.830118 52.57318 
L 284.420995 49.569324 
L 285.307309 44.43179 
L 285.602748 43.370929 
L 285.750467 43.096678 
L 285.898186 43.136467 
L 286.045905 42.961584 
L 286.193624 43.104698 
L 287.375377 47.316425 
L 287.818534 50.693784 
L 288.261692 57.329283 
L 288.704849 63.845592 
L 288.852568 63.654867 
L 290.329759 56.645864 
L 290.477478 56.399517 
L 290.772916 56.45117 
L 290.920635 56.594211 
L 291.363793 58.163691 
L 292.102388 62.041681 
L 292.250107 63.062837 
L 292.397827 63.285341 
L 292.693265 64.497222 
L 292.988703 65.061431 
L 293.284141 65.335599 
L 293.727299 65.291894 
L 294.318175 65.204473 
L 294.613613 65.542209 
L 294.761332 65.577967 
L 296.8294 70.020187 
L 296.977119 70.055945 
L 297.863434 71.72872 
L 298.011153 71.986993 
L 298.158872 72.014803 
L 298.45431 72.420086 
L 298.602029 72.551212 
L 298.897467 72.968411 
L 299.045187 73.063769 
L 299.783782 74.939195 
L 299.931501 75.129921 
L 300.226939 76.01995 
L 300.522378 76.25835 
L 300.670097 76.329866 
L 300.817816 76.266297 
L 301.113254 76.611981 
L 301.408692 77.128516 
L 301.704131 77.434463 
L 301.999569 78.173503 
L 302.295007 78.654281 
L 302.442726 78.765533 
L 302.590445 78.678123 
L 302.885883 77.358968 
L 303.181322 74.168366 
L 304.510794 55.529351 
L 304.953951 52.565232 
L 305.249389 52.366569 
L 305.397108 52.648674 
L 305.544827 52.616885 
L 305.692546 52.787737 
L 305.840266 52.744032 
L 305.987985 52.895021 
L 306.283423 52.57318 
L 306.431142 52.402327 
L 307.022018 50.197112 
L 307.465176 47.761445 
L 308.056052 44.121812 
L 308.49921 42.524532 
L 308.794648 42.238511 
L 309.533243 43.533834 
L 309.976401 45.516503 
L 310.271839 47.15352 
L 310.714996 51.142773 
L 311.010434 55.259162 
L 311.453592 62.947605 
L 311.601311 63.519772 
L 311.74903 63.193963 
L 313.078502 56.467064 
L 313.521659 55.787624 
L 313.669378 55.906824 
L 314.112536 57.225978 
L 315.589727 63.996571 
L 316.180603 64.930316 
L 316.476041 65.081305 
L 316.623761 64.830979 
L 316.919199 64.866737 
L 317.066918 64.747538 
L 317.362356 64.870716 
L 317.805513 65.538241 
L 318.544109 67.067984 
L 318.839547 67.981855 
L 318.987266 68.081182 
L 319.430424 68.91559 
L 319.725862 69.289084 
L 320.464457 70.735385 
L 320.759896 71.089016 
L 321.055334 71.677067 
L 321.203053 71.649257 
L 321.350772 72.05454 
L 321.498491 71.979045 
L 323.271121 75.75373 
L 323.566559 75.570962 
L 323.714278 75.590825 
L 324.748312 76.945738 
L 324.896031 77.553662 
L 325.04375 77.652999 
L 325.191469 77.919209 
L 325.339188 77.927156 
L 325.634626 76.512644 
L 325.930064 73.043906 
L 327.259536 53.626114 
L 327.554975 51.917571 
L 327.850413 51.385141 
L 328.441289 51.798371 
L 328.589008 51.635466 
L 328.736728 51.869897 
L 329.032166 51.428856 
L 329.475323 50.081881 
L 330.0662 46.545595 
L 330.804795 41.988113 
L 331.247952 40.589568 
L 331.395672 40.6054 
L 331.543391 40.458432 
L 331.69111 40.553737 
L 332.577424 42.878152 
L 333.31602 47.435635 
L 333.611458 50.848742 
L 334.350054 62.065523 
L 334.497773 61.934408 
L 334.94093 59.391457 
L 335.088649 59.216626 
L 335.974964 54.9413 
L 336.122683 54.508206 
L 336.418121 54.766469 
L 336.56584 54.901563 
L 337.304436 58.481554 
L 338.190751 63.233689 
L 338.633908 64.246897 
L 338.929346 64.501191 
L 339.077065 64.497222 
L 339.520223 63.988634 
L 340.111099 63.837645 
L 340.258818 64.016445 
L 340.406537 63.960813 
L 341.292852 65.975303 
L 341.736009 67.342141 
L 341.883728 67.421604 
L 342.474605 68.844064 
L 342.622324 68.947379 
L 342.770043 69.209621 
L 342.917762 69.730125 
L 343.065481 69.730125 
L 344.247234 71.434699 
L 344.690391 71.903551 
L 345.428987 73.675672 
L 346.019863 75.13389 
L 346.167583 75.217332 
L 346.315302 75.086206 
L 346.758459 75.276931 
L 347.053897 75.741814 
L 347.497055 75.900751 
L 347.644774 76.059687 
L 347.940212 76.52457 
L 348.087931 76.500728 
L 348.23565 76.242455 
L 348.531088 73.747188 
L 350.008279 51.186478 
L 350.451437 48.977294 
L 351.042313 49.326946 
L 351.190032 49.688524 
L 351.337751 49.676608 
L 351.48547 49.871302 
L 352.076347 48.631611 
L 352.371785 47.320404 
L 353.553538 39.139256 
L 354.292134 37.494271 
L 354.439853 37.55385 
L 354.735291 38.233385 
L 355.326167 40.776325 
L 355.621606 42.004049 
L 356.360201 46.485995 
L 356.803358 52.366569 
L 357.246516 59.268278 
L 357.394235 59.542446 
L 357.541954 58.958363 
L 357.837392 57.086915 
L 357.985111 56.979631 
L 358.13283 56.574348 
L 358.871426 52.811579 
L 359.166864 52.378485 
L 359.314583 52.442054 
L 359.462302 52.664569 
L 359.90546 54.277744 
L 360.348617 56.896189 
L 361.382651 61.807261 
L 361.825808 62.75689 
L 362.268965 62.987342 
L 362.564404 62.852248 
L 362.712123 63.070784 
L 362.859842 63.015153 
L 363.007561 63.146278 
L 363.302999 63.678709 
L 363.450718 63.710498 
L 363.893876 64.32636 
L 364.041595 64.437622 
L 364.189314 65.005811 
L 364.484752 65.291894 
L 364.927909 66.75408 
L 365.075629 66.781901 
L 365.814224 68.832148 
L 368.325449 73.429326 
L 369.064045 74.95509 
L 369.211764 75.078258 
L 369.507202 74.939195 
L 369.654921 75.006743 
L 370.098078 75.853067 
L 370.245797 75.93253 
L 370.541236 75.829225 
L 370.836674 76.532507 
L 370.984393 76.770917 
L 371.279831 76.687475 
L 371.575269 74.943164 
L 372.018427 68.224223 
L 372.904741 53.928092 
L 373.347899 50.546764 
L 373.495618 49.954734 
L 373.643337 49.922955 
L 373.791056 49.684545 
L 373.938775 49.879239 
L 374.086494 49.716334 
L 374.381932 50.165323 
L 374.529652 50.161354 
L 374.677371 50.280554 
L 374.972809 49.99447 
L 375.415966 48.520358 
L 375.711404 46.962805 
L 376.893157 40.009402 
L 377.188596 39.306119 
L 377.336315 39.345908 
L 377.779472 39.969717 
L 378.961225 45.385367 
L 379.404382 49.473966 
L 380.290697 61.386083 
L 380.438416 61.155631 
L 381.177012 57.333262 
L 381.47245 55.59293 
L 381.767888 54.420785 
L 381.915607 54.321459 
L 382.063326 54.539995 
L 382.211045 54.547932 
L 382.654203 56.061781 
L 383.835956 62.645638 
L 383.983675 62.824437 
L 384.131394 63.595267 
L 384.72227 64.127697 
L 384.869989 64.052202 
L 385.165427 64.08796 
L 385.313147 63.82175 
L 385.460866 63.837645 
L 385.608585 63.678709 
L 386.051742 63.770098 
L 386.642619 64.525033 
L 387.085776 65.609756 
L 387.824371 67.775235 
L 388.415248 69.173852 
L 388.562967 69.340736 
L 389.153843 70.48507 
L 389.301563 70.60427 
L 389.597001 71.100932 
L 389.74472 71.132721 
L 390.187877 71.808193 
L 390.483315 71.99494 
L 390.778754 72.789611 
L 391.665068 74.56967 
L 391.960507 74.796154 
L 392.108226 74.732585 
L 392.255945 74.823964 
L 392.846821 76.353708 
L 392.99454 76.429202 
L 393.585417 78.09404 
L 394.028574 78.781428 
L 394.324012 78.682091 
L 394.619451 77.498041 
L 394.914889 74.470344 
L 395.505765 66.118345 
L 395.948923 60.066929 
L 396.39208 56.407464 
L 396.687518 54.591648 
L 396.835237 54.460522 
L 396.982956 54.154575 
L 397.130675 54.301586 
L 397.278394 54.130733 
L 397.573833 54.174439 
L 397.721552 53.987692 
L 398.01699 53.979744 
L 398.607866 52.783768 
L 398.755586 52.461927 
L 399.937338 47.928328 
L 400.380496 47.117762 
L 400.528215 47.014457 
L 400.823653 47.221067 
L 401.119091 48.206464 
L 401.562249 50.721595 
L 401.857687 53.494998 
L 402.300844 61.374157 
L 402.596282 66.51568 
L 402.744002 67.147447 
L 402.891721 66.821627 
L 403.482597 62.812511 
L 404.221193 59.383509 
L 404.368912 59.010016 
L 404.516631 59.168952 
L 404.66435 59.121268 
L 405.107507 60.285465 
L 405.402946 61.310589 
L 406.436979 66.682564 
L 406.880137 67.814972 
L 407.323294 68.168602 
L 407.766451 67.906361 
L 408.061889 67.616299 
L 408.357328 67.596435 
L 408.948204 68.283823 
L 409.539081 69.555304 
L 411.016272 72.404191 
L 411.163991 72.539286 
L 411.31171 73.047874 
L 411.607148 73.345884 
L 412.050305 73.953808 
L 412.788901 74.672986 
L 413.675216 76.162992 
L 414.413811 78.062251 
L 414.709249 78.105956 
L 414.856969 78.137745 
L 415.004688 78.00663 
L 415.300126 78.376144 
L 415.891002 79.270153 
L 416.186441 79.977414 
L 416.33416 80.279382 
L 416.629598 80.418455 
L 416.925036 79.595973 
L 417.220474 76.985474 
L 417.811351 67.93814 
L 418.402227 59.669593 
L 418.697665 56.765074 
L 418.993104 55.227383 
L 419.288542 54.794279 
L 419.58398 54.631374 
L 419.879418 54.929373 
L 420.027137 54.957194 
L 420.174856 54.853889 
L 420.322576 54.424764 
L 420.470295 54.55588 
L 420.913452 53.379767 
L 421.20889 52.100349 
L 421.947486 47.630329 
L 422.390643 45.687324 
L 422.8338 44.916546 
L 422.98152 44.884778 
L 423.424677 45.679408 
L 423.867834 46.855521 
L 424.60643 51.333488 
L 424.901868 55.263141 
L 425.492744 65.152821 
L 425.640464 65.597841 
L 426.674497 60.007329 
L 427.117655 58.02065 
L 427.413093 57.531925 
L 427.85625 58.243154 
L 428.447127 60.591411 
L 429.185722 64.481328 
L 429.776599 66.237544 
L 429.924318 66.587206 
L 430.072037 66.392512 
L 430.367475 66.738195 
L 430.662913 66.324965 
L 430.810632 66.126292 
L 430.958352 66.396481 
L 431.25379 66.380586 
L 431.401509 66.54747 
L 431.549228 66.885206 
L 431.696947 66.777922 
L 431.992385 67.437499 
L 432.583262 68.462623 
L 432.730981 68.645401 
L 433.026419 69.479809 
L 433.174138 69.591062 
L 433.765015 70.791017 
L 433.912734 70.806911 
L 435.094487 73.1194 
L 435.389925 73.44521 
L 435.833082 74.152471 
L 436.276239 74.812048 
L 437.014835 76.727201 
L 437.605711 76.906001 
L 437.753431 76.727201 
L 438.048869 77.279505 
L 438.639745 78.18145 
L 438.935183 78.928448 
L 439.082903 79.115195 
L 439.378341 79.659541 
L 439.673779 78.602628 
L 440.116936 73.922019 
L 441.15097 58.366333 
L 441.594127 54.389006 
L 441.741847 53.741345 
L 442.185004 53.423472 
L 442.332723 53.566514 
L 442.480442 53.475135 
L 442.77588 53.685724 
L 443.219038 53.288378 
L 443.514476 52.664569 
L 444.105352 49.545482 
L 445.287105 43.315308 
L 445.730262 43.056994 
L 446.025701 43.517898 
L 446.912015 46.811815 
L 447.355173 49.565345 
L 447.79833 54.996931 
L 448.389206 63.929024 
L 448.536926 63.67473 
L 448.980083 61.06821 
L 449.127802 60.694716 
L 449.570959 58.692143 
L 450.014117 56.979631 
L 450.309555 56.463096 
L 450.457274 56.614085 
L 450.900431 57.825955 
L 451.19587 59.113321 
L 452.525342 64.942232 
L 452.673061 65.283947 
L 452.82078 65.256126 
L 452.968499 65.502472 
L 453.116218 65.299831 
L 453.263937 65.522346 
L 453.559375 65.343546 
L 453.854814 65.164737 
L 454.741128 66.328933 
L 455.332005 67.751393 
L 455.479724 67.914308 
L 455.775162 68.418918 
L 457.104634 71.172458 
L 457.252353 71.156563 
L 457.547791 71.776404 
L 457.69551 72.05454 
L 457.843229 72.08235 
L 458.138668 72.531339 
L 458.286387 72.702201 
L 458.434106 72.698222 
L 458.729544 73.516736 
L 458.877263 73.544546 
L 459.46814 74.994827 
L 459.763578 75.984193 
L 460.206735 76.397413 
L 460.502173 76.425234 
L 460.649893 76.417286 
L 460.797612 76.639791 
L 461.09305 77.307316 
L 461.240769 77.414599 
L 461.979365 78.737722 
L 462.127084 78.797322 
L 462.274803 78.562891 
L 462.422522 77.986756 
L 462.71796 75.582878 
L 463.013398 71.275763 
L 463.751994 59.848392 
L 464.195151 54.977058 
L 464.490589 53.375798 
L 464.786028 52.632779 
L 464.933747 52.57318 
L 465.376904 53.01422 
L 465.820061 53.002305 
L 465.967781 52.771842 
L 466.706376 50.129565 
L 467.444972 45.329746 
L 467.888129 43.084804 
L 468.331286 42.139143 
L 468.774444 42.755036 
L 469.217601 44.113896 
L 469.808477 46.899226 
L 470.251635 50.105723 
L 470.694792 56.590243 
L 471.137949 63.011184 
L 471.285668 63.503878 
L 471.876545 60.424528 
L 472.024264 59.911961 
L 472.61514 56.749179 
L 472.910579 55.831329 
L 473.206017 55.831329 
L 473.353736 56.041918 
L 473.944612 58.247133 
L 475.126365 63.774066 
L 475.569523 64.79919 
L 475.864961 64.890579 
L 476.160399 64.779327 
L 476.308118 64.672043 
L 476.455837 64.703832 
L 476.603556 64.616422 
L 477.194433 64.906474 
L 477.342152 65.045537 
L 477.933028 66.380586 
L 478.080748 66.599122 
L 478.819343 68.657317 
L 480.887411 71.895603 
L 481.182849 72.066456 
L 481.330568 72.58697 
L 481.478287 72.579023 
L 481.773725 73.147211 
L 482.66004 75.45971 
L 482.807759 75.714004 
L 483.250916 75.551089 
L 483.546355 76.043793 
L 484.875827 77.692736 
L 485.023546 77.394726 
L 485.318984 75.698109 
L 485.762141 69.289084 
L 486.500737 57.539872 
L 487.091613 52.001013 
L 487.387051 51.162636 
L 487.830209 51.365277 
L 488.125647 51.730824 
L 488.273366 51.575866 
L 488.421085 51.86195 
L 488.568804 51.250046 
L 488.716523 51.12291 
L 489.159681 49.740176 
L 489.602838 47.30054 
L 490.784591 41.046514 
L 491.080029 40.597484 
L 491.375467 40.601442 
L 491.523186 40.776325 
L 492.55722 45.107262 
L 493.000378 48.15878 
L 493.295816 51.611624 
L 493.886692 61.525146 
L 494.034411 62.176776 
L 494.18213 61.727787 
L 494.625288 59.069615 
L 495.807041 54.472438 
L 496.102479 54.639322 
L 497.136513 59.391457 
L 497.875108 63.233689 
L 498.170546 64.175371 
L 498.465985 64.636285 
L 498.761423 64.314444 
L 498.909142 64.465433 
L 499.20458 64.11975 
L 499.352299 63.968761 
L 499.943176 63.952866 
L 500.238614 64.505159 
L 501.272648 66.817658 
L 502.011243 68.546065 
L 502.454401 69.289084 
L 502.749839 69.837409 
L 503.340715 70.763196 
L 503.636153 71.057226 
L 504.374749 72.308834 
L 504.522468 72.352539 
L 505.556502 75.026606 
L 505.704221 75.201437 
L 505.85194 75.066342 
L 505.999659 75.157732 
L 506.147378 75.002764 
L 506.590536 75.511362 
L 506.738255 75.75373 
L 507.033693 75.741814 
L 507.329131 76.087498 
L 507.47685 76.341792 
L 507.772289 76.226561 
L 507.920008 75.626583 
L 508.215446 72.364465 
L 509.692637 50.411669 
L 509.988075 49.164041 
L 510.135794 48.754779 
L 510.283513 48.850147 
L 510.431233 48.738895 
L 511.022109 49.283241 
L 511.169828 49.330925 
L 511.317547 49.219662 
L 511.465266 48.719021 
L 511.612985 48.746842 
L 512.351581 44.276801 
L 513.237896 38.626689 
L 513.828772 37.359177 
L 514.12421 37.645302 
L 514.419648 38.241301 
L 514.567368 38.869068 
L 514.715087 38.948541 
L 515.305963 41.507418 
L 515.74912 44.141707 
L 516.192278 48.738895 
L 516.930873 60.035139 
L 517.078592 59.637803 
L 517.669469 56.431306 
L 518.408064 52.640727 
L 518.555784 52.390401 
L 518.998941 52.549337 
L 519.589817 54.794279 
L 520.77157 61.902619 
L 521.214728 63.336994 
L 521.657885 63.559509 
L 522.39648 62.848279 
L 522.5442 62.792648 
L 523.135076 63.22972 
L 523.430514 63.869424 
L 523.873672 65.089252 
L 524.612267 67.489152 
L 524.759986 67.703719 
L 525.055424 68.621559 
L 525.203144 68.609643 
L 525.498582 69.2414 
L 525.941739 70.115545 
L 526.237177 70.552607 
L 526.384896 70.51288 
L 526.532615 70.874448 
L 526.680335 70.906237 
L 526.828054 71.315499 
L 526.975773 71.323447 
L 527.41893 72.205529 
L 528.748402 75.173626 
L 528.896121 75.2213 
L 529.04384 74.935227 
L 529.191559 74.943164 
L 530.077874 76.397413 
L 530.225593 76.528539 
L 530.373312 76.445097 
L 530.668751 76.953685 
L 530.81647 76.79078 
L 530.964189 76.421255 
L 531.259627 74.518018 
L 531.702784 67.93814 
L 532.44138 55.549224 
L 532.884537 51.579835 
L 533.179975 50.411669 
L 533.327695 50.089828 
L 533.475414 50.109702 
L 533.623133 50.399754 
L 533.770852 50.387838 
L 534.06629 50.872584 
L 534.214009 50.733521 
L 534.361728 50.8249 
L 534.804886 50.093807 
L 534.952605 49.644819 
L 536.577515 40.9034 
L 536.872953 40.172307 
L 537.020672 40.124706 
L 537.316111 40.859757 
L 537.611549 41.312641 
L 538.202425 43.529876 
L 538.793302 47.880644 
L 539.08874 51.309656 
L 539.827335 61.819177 
L 539.975054 61.596672 
L 541.452246 54.897595 
L 541.599965 54.794279 
L 541.747684 54.889647 
L 542.043122 55.652529 
L 542.33856 56.844537 
L 542.781718 59.482846 
L 543.372594 62.868142 
L 543.96347 64.306497 
L 544.406628 64.517085 
L 544.997504 64.040287 
L 545.145223 64.175371 
L 545.588381 63.905192 
L 545.7361 64.219086 
L 545.883819 64.250865 
L 546.179257 64.902505 
L 546.770134 66.28126 
L 547.065572 67.302405 
L 547.656448 68.637454 
L 548.542763 70.258586 
L 549.576797 71.681046 
L 549.872235 71.943287 
L 550.61083 73.38561 
L 551.053988 74.68887 
L 551.349426 75.165679 
L 551.497145 75.268984 
L 551.644864 75.121974 
L 551.792583 75.229247 
L 552.38346 76.373581 
L 552.974336 77.581473 
L 553.565213 78.721828 
L 553.712932 78.928448 
L 554.00837 78.546997 
L 554.303808 77.132485 
L 554.746965 72.05454 
L 555.780999 58.485533 
L 556.224157 55.124068 
L 556.519595 54.23007 
L 556.962752 54.11087 
L 557.405909 54.34927 
L 557.701348 54.313512 
L 557.849067 53.912197 
L 557.996786 53.920144 
L 558.292224 53.07382 
L 558.587662 51.929497 
L 559.326258 48.607769 
L 559.917134 47.348214 
L 560.508011 48.146865 
L 561.098887 50.467301 
L 561.542044 54.961163 
L 562.28064 67.067984 
L 562.428359 46.515795 
L 563.314674 40.687582 
L 563.610112 39.921491 
L 563.757831 39.847122 
L 563.90555 39.971071 
L 564.200988 40.641231 
L 564.348708 41.093282 
L 564.644146 43.70778 
L 565.53046 48.974451 
L 566.121337 53.274212 
L 566.564494 58.429787 
L 567.155371 68.168154 
L 567.30309 68.148729 
L 567.893966 67.894435 
L 568.189404 67.934171 
L 571.291506 73.536599 
L 571.439225 73.600178 
L 571.734663 74.120682 
L 572.030101 74.490207 
L 572.17782 74.339218 
L 572.473259 74.919332 
L 572.620978 74.784238 
L 573.064135 75.690162 
L 573.211854 75.93253 
L 573.802731 77.776167 
L 573.95045 77.895367 
L 574.098169 78.364229 
L 574.393607 78.411913 
L 574.541326 78.380123 
L 575.279922 79.186711 
L 576.166236 80.577391 
L 576.313955 80.40256 
L 576.461675 79.961519 
L 576.757113 77.859609 
L 577.052551 74.033271 
L 577.938866 60.424528 
L 578.529742 55.151889 
L 578.82518 54.416817 
L 578.972899 54.563827 
L 579.120619 54.261859 
L 579.268338 54.385027 
L 579.563776 54.802237 
L 580.006933 54.905542 
L 580.154652 54.818121 
L 580.745529 52.767874 
L 581.484124 48.321685 
L 582.075001 45.397345 
L 582.370439 44.666148 
L 582.665877 44.511263 
L 582.813596 44.622505 
L 583.109035 45.365472 
L 583.995349 49.426282 
L 584.290787 51.981149 
L 584.733945 58.731879 
L 585.177102 65.248178 
L 585.324821 65.375325 
L 585.915698 61.77944 
L 586.211136 60.504001 
L 586.802012 57.881576 
L 586.949731 57.492188 
L 587.392889 57.897471 
L 587.983765 59.983487 
L 589.460956 66.301123 
L 589.608675 66.388533 
L 589.756394 66.642827 
L 590.051833 66.404428 
L 590.199552 66.464028 
L 590.49499 66.094503 
L 591.085866 66.412375 
L 592.1199 68.184487 
L 592.710777 69.515567 
L 593.006215 69.944692 
L 593.449372 71.073121 
L 593.597091 71.172458 
L 593.89253 71.883687 
L 594.631125 72.841264 
L 594.778844 72.940601 
L 595.074282 73.421378 
L 595.369721 73.516736 
L 595.812878 74.645165 
L 595.960597 74.756417 
L 596.846912 76.802696 
L 597.14235 76.93779 
L 597.290069 76.802696 
L 597.437788 77.11659 
L 597.585507 77.156327 
L 598.176384 78.070198 
L 598.619541 79.075458 
L 598.76726 79.051616 
L 598.914979 79.437036 
L 599.062698 79.266184 
L 599.210417 78.904606 
L 599.505856 76.925874 
L 599.949013 70.608238 
L 600.539889 60.917221 
L 601.130766 55.016794 
L 601.426204 53.51884 
L 601.721642 52.934757 
L 601.869361 53.173157 
L 602.1648 53.204946 
L 602.460238 53.574461 
L 602.607957 53.653935 
L 603.051114 52.819526 
L 603.346553 51.47653 
L 603.641991 50.065986 
L 604.823744 43.315308 
L 605.266901 42.480889 
L 605.857777 43.597371 
L 606.448654 46.199912 
L 607.187249 51.508319 
L 607.482688 55.803519 
L 607.925845 62.939668 
L 608.073564 63.861477 
L 608.221283 63.480036 
L 609.107598 58.735858 
L 609.698474 56.6856 
L 609.846193 56.379654 
L 609.993912 56.693548 
L 610.141632 56.546538 
L 610.43707 57.484251 
L 612.06198 64.636285 
L 612.505137 65.434925 
L 612.652856 65.597841 
L 613.243733 65.347515 
L 613.391452 65.518367 
L 613.539171 65.279968 
L 613.834609 65.526314 
L 614.425486 66.229597 
L 614.573205 66.87329 
L 614.720924 66.980563 
L 615.3118 68.565938 
L 615.45952 68.653348 
L 616.788992 71.482373 
L 616.936711 71.454562 
L 617.08443 71.843951 
L 617.232149 71.752562 
L 617.527587 72.304865 
L 617.823025 72.432012 
L 619.004778 74.859732 
L 619.300216 75.853067 
L 619.595655 76.381518 
L 619.891093 76.321918 
L 620.481969 76.925874 
L 621.072846 77.676841 
L 621.516003 78.777459 
L 621.663722 78.872817 
L 621.811441 78.765533 
L 621.95916 78.320523 
L 622.254599 76.238487 
L 622.697756 69.841377 
L 623.436351 58.739827 
L 623.879509 54.714816 
L 624.174947 53.125473 
L 624.322666 52.545369 
L 624.618104 52.57318 
L 624.913543 52.998326 
L 625.208981 53.04601 
L 625.3567 53.061905 
L 625.652138 52.716221 
L 626.390734 49.875271 
L 627.424767 43.700697 
L 627.720206 42.655668 
L 627.867925 42.397458 
L 628.015644 42.468911 
L 628.163363 42.282154 
L 628.60652 42.961584 
L 629.492835 46.70851 
L 629.935992 50.713647 
L 630.37915 58.024618 
L 630.674588 62.435049 
L 630.822307 63.154226 
L 630.970026 62.991321 
L 631.856341 58.421954 
L 632.447217 56.014107 
L 632.742655 55.823382 
L 632.890374 56.037939 
L 633.62897 58.620627 
L 634.367566 62.689343 
L 635.106161 64.676022 
L 635.401599 65.017726 
L 635.697038 64.846874 
L 635.844757 64.902505 
L 636.140195 64.529001 
L 636.435633 64.656148 
L 636.583352 64.731643 
L 637.321948 65.907756 
L 638.503701 68.804338 
L 639.537734 70.616186 
L 639.833173 71.005574 
L 640.128611 71.60952 
L 640.27633 71.641309 
L 640.424049 71.899582 
L 640.571768 71.919445 
L 641.014926 72.698222 
L 641.605802 74.009429 
L 642.048959 75.265016 
L 642.196678 75.622615 
L 642.492117 75.566983 
L 642.639836 75.690162 
L 642.787555 75.594804 
L 643.378431 76.190803 
L 643.52615 76.174908 
L 643.969308 77.021232 
L 644.117027 77.525852 
L 644.412465 77.537768 
L 644.560184 77.180169 
L 644.855622 75.253089 
L 645.446499 66.166029 
L 646.185094 55.171752 
L 646.628252 51.595729 
L 647.071409 50.900394 
L 647.514566 51.103036 
L 647.810005 51.706992 
L 647.957724 51.651361 
L 648.5486 50.534848 
L 648.991757 48.047528 
L 650.025791 41.312641 
L 650.17351 41.106093 
L 650.321229 40.625295 
L 650.468949 40.657063 
L 650.616668 40.510095 
L 651.059825 41.070367 
L 651.650701 43.307288 
L 652.093859 44.980083 
L 652.537016 48.154812 
L 652.832454 51.667256 
L 653.423331 61.501304 
L 653.57105 61.910566 
L 653.718769 61.616535 
L 654.014207 60.229833 
L 654.309645 59.296099 
L 654.900522 55.481677 
L 655.19596 54.583701 
L 655.343679 54.194312 
L 655.639117 54.261859 
L 656.377713 57.595503 
L 656.968589 61.354294 
L 657.707185 64.417749 
L 658.002623 64.850843 
L 658.44578 64.409802 
L 658.5935 64.465433 
L 658.888938 64.02836 
L 659.479814 64.040287 
L 659.775252 64.370075 
L 660.513848 66.106429 
L 661.695601 68.9434 
L 662.877354 70.735385 
L 663.025073 70.850616 
L 663.46823 71.498267 
L 663.615949 71.557867 
L 664.354545 72.956495 
L 664.649983 73.759114 
L 665.09314 74.935227 
L 665.24086 75.030585 
L 665.684017 74.819996 
L 666.274893 75.849098 
L 666.422612 75.662341 
L 667.013489 76.298087 
L 667.161208 76.182855 
L 667.308927 75.610688 
L 667.604365 72.396244 
L 668.047523 64.676022 
L 668.786118 52.879126 
L 669.229275 49.481914 
L 669.524714 48.532274 
L 669.820152 48.568042 
L 669.967871 49.013052 
L 670.11559 48.889873 
L 670.411028 49.358735 
L 670.706467 49.052789 
L 671.297343 47.515098 
L 671.592781 45.762839 
L 672.331377 40.716642 
L 672.774534 37.867786 
L 673.069972 36.890357 
L 673.217691 36.751304 
L 673.51313 36.84661 
L 673.808568 37.577703 
L 674.547163 40.553737 
L 674.990321 42.957626 
L 675.285759 45.119136 
L 675.728916 50.848742 
L 676.172074 58.525269 
L 676.319793 59.550393 
L 676.467512 59.300067 
L 676.910669 56.828642 
L 677.206107 55.569088 
L 677.649265 52.98641 
L 677.944703 52.39438 
L 678.092422 52.370538 
L 678.38786 52.974484 
L 678.831018 54.786342 
L 680.01277 60.825842 
L 680.455928 62.570143 
L 680.603647 62.570143 
L 680.899085 62.9635 
L 681.194523 63.178068 
L 681.342242 62.923774 
L 681.489962 63.237668 
L 681.637681 63.050921 
L 682.523995 63.726382 
L 682.819434 64.429675 
L 683.558029 66.122323 
L 684.296625 68.029529 
L 684.887501 69.265242 
L 685.330658 70.171166 
L 685.478378 70.326134 
L 685.773816 70.850616 
L 686.955569 72.308834 
L 687.398726 73.600178 
L 687.546445 73.850493 
L 687.841883 74.672986 
L 687.989602 74.935227 
L 688.137322 74.959059 
L 688.285041 74.680933 
L 688.580479 74.724638 
L 689.319074 76.035845 
L 689.466794 75.93253 
L 689.909951 76.687475 
L 690.05767 76.735149 
L 690.205389 76.651707 
L 690.353108 76.059687 
L 690.648546 73.441241 
L 691.239423 63.714467 
L 691.830299 55.0009 
L 692.273457 51.428856 
L 692.568895 50.356048 
L 692.716614 50.137512 
L 693.012052 50.47128 
L 693.159771 50.332206 
L 693.30749 50.395775 
L 693.455209 50.594448 
L 693.602929 50.566637 
L 693.750648 50.717626 
L 694.193805 49.990502 
L 694.636962 47.880644 
L 695.670996 41.594808 
L 696.114153 40.132622 
L 696.261873 40.227928 
L 696.409592 40.144496 
L 696.852749 40.986831 
L 697.000468 41.471588 
L 697.886783 46.907173 
L 698.32994 51.989097 
L 699.068536 62.323796 
L 699.216255 62.073471 
L 699.511693 60.500022 
L 699.807131 59.208678 
L 700.398008 55.720077 
L 700.841165 54.790311 
L 700.988884 54.921437 
L 701.432041 56.292244 
L 702.318356 61.326483 
L 702.761513 63.392625 
L 703.056952 64.32636 
L 703.500109 64.767411 
L 703.647828 64.731643 
L 703.795547 64.501191 
L 703.943266 64.501191 
L 704.238704 64.076045 
L 704.386424 64.231002 
L 704.534143 64.099887 
L 704.829581 64.254844 
L 704.9773 64.199213 
L 705.568176 65.379304 
L 705.863615 66.130271 
L 707.636244 70.18706 
L 709.408873 72.670412 
L 710.295188 74.812048 
L 710.590626 75.141837 
L 710.886064 75.094153 
L 711.772379 76.631844 
L 712.215536 77.935103 
L 712.954132 78.916522 
L 713.101851 78.737722 
L 713.397289 77.482147 
L 713.692728 74.525965 
L 715.022199 57.571661 
L 715.317638 55.708161 
L 715.760795 54.214175 
L 716.056233 54.154575 
L 716.203952 54.31748 
L 716.942548 54.126765 
L 717.090267 53.999618 
L 717.533424 52.716221 
L 717.976582 50.809005 
L 718.715177 47.781308 
L 718.862896 47.602508 
L 719.306054 47.594561 
L 719.749211 48.242222 
L 720.340087 51.289783 
L 720.635526 54.202259 
L 721.078683 61.711893 
L 721.374121 66.376618 
L 721.52184 66.877258 
L 721.669559 66.460059 
L 722.703593 60.77419 
L 723.29447 59.220604 
L 723.442189 59.260341 
L 723.589908 59.431193 
L 723.885346 60.233812 
L 724.771661 64.56477 
L 725.214818 66.714353 
L 725.657975 67.942119 
L 725.953414 68.347402 
L 726.248852 68.136813 
L 726.396571 68.192434 
L 726.692009 67.866624 
L 726.839728 67.918277 
L 726.987447 67.505046 
L 727.282886 67.93814 
L 727.430605 68.053371 
L 728.1692 69.396368 
L 728.316919 69.396368 
L 728.612358 70.191039 
L 729.055515 70.985711 
L 729.498672 71.867793 
L 729.646391 72.038645 
L 729.94183 72.487633 
L 731.419021 74.609407 
L 731.714459 74.740533 
L 733.19165 77.935103 
L 733.339369 78.101987 
L 733.487088 78.098019 
L 733.634807 77.895367 
L 734.225684 78.77348 
L 734.668841 79.448952 
L 735.111998 80.227729 
L 735.259718 80.382697 
L 735.555156 79.715172 
L 735.850594 77.124537 
L 736.146032 73.318063 
L 737.032347 59.689456 
L 737.327785 56.927979 
L 737.770942 54.583701 
L 737.918661 54.269796 
L 738.2141 54.245965 
L 738.509538 54.754553 
L 738.657257 54.690974 
L 738.804976 54.806205 
L 739.100414 54.536017 
L 739.248133 54.412838 
L 740.134448 50.149428 
L 740.725325 46.68069 
L 741.316201 44.765516 
L 741.46392 44.745725 
L 741.611639 44.848947 
L 741.759358 44.7576 
L 741.907077 44.948315 
L 742.202516 45.687324 
L 742.497954 46.410501 
L 742.941111 48.524327 
L 743.384269 52.457948 
L 743.827426 59.391457 
L 744.122864 64.159486 
L 744.270583 65.323673 
L 744.418302 64.997863 
L 744.86146 62.486701 
L 745.156898 61.1 
L 745.600055 58.588838 
L 746.043213 57.313388 
L 746.190932 57.289557 
L 746.338651 57.126641 
L 746.781808 58.501427 
L 747.372685 61.457599 
L 747.963561 64.576685 
L 748.406718 65.899808 
L 748.849876 66.420323 
L 749.145314 66.261386 
L 749.293033 66.090534 
L 749.440752 66.098481 
L 749.588471 65.95544 
L 749.883909 66.019008 
L 750.179348 66.253439 
L 750.327067 66.356744 
L 751.065662 68.033508 
L 751.213381 68.14476 
L 751.3611 68.613612 
L 751.50882 68.708969 
L 751.656539 69.32882 
L 751.804258 69.396368 
L 752.099696 69.992366 
L 752.247415 69.992366 
L 752.395134 70.628101 
L 752.542853 70.687701 
L 752.986011 71.541973 
L 754.020044 73.063769 
L 754.167764 73.135295 
L 754.75864 74.108766 
L 755.201797 75.117995 
L 755.349516 75.372289 
L 755.644955 76.449076 
L 755.940393 76.707338 
L 756.088112 76.854348 
L 756.235831 76.683496 
L 756.531269 76.953685 
L 757.417584 78.316545 
L 757.713022 79.059564 
L 757.860741 79.222469 
L 758.00846 79.178763 
L 758.303899 78.237082 
L 758.599337 75.662341 
L 758.894775 71.351257 
L 759.78109 58.100113 
L 760.076528 55.016794 
L 760.371966 53.634061 
L 760.667404 52.86721 
L 760.962843 53.057926 
L 761.110562 52.974484 
L 761.406 53.228778 
L 761.553719 53.320167 
L 762.144595 52.537422 
L 763.03091 47.80515 
L 763.621787 44.014528 
L 764.212663 42.373606 
L 764.360382 42.437143 
L 764.951259 43.609245 
L 765.689854 47.030352 
L 766.133011 50.491143 
L 766.42845 54.500259 
L 766.871607 62.073471 
L 767.019326 63.356867 
L 767.167045 63.456194 
L 767.462483 62.129102 
L 767.905641 60.106655 
L 768.644236 56.550506 
L 768.939675 56.343896 
L 769.087394 56.300191 
L 769.67827 57.957071 
L 771.155461 64.97799 
L 771.450899 65.482609 
L 772.189495 65.291894 
L 772.632652 65.315726 
L 772.92809 65.573999 
L 773.223529 65.879945 
L 773.371248 66.038882 
L 773.666686 67.024269 
L 773.814405 67.056058 
L 774.109843 67.73153 
L 774.257562 67.926224 
L 774.70072 69.094389 
L 774.996158 69.638735 
L 775.587034 70.826774 
L 775.882473 71.303573 
L 776.32563 72.149897 
L 776.473349 72.130034 
L 776.916506 72.91278 
L 777.064226 72.896895 
L 777.655102 73.763083 
L 778.541417 76.310002 
L 778.689136 76.202718 
L 778.984574 76.413307 
L 779.132293 76.250403 
L 779.427731 76.834485 
L 779.57545 76.941769 
L 779.72317 77.267579 
L 779.870889 77.243747 
L 780.166327 77.986756 
L 780.609484 78.837059 
L 780.757203 78.793354 
L 780.904922 78.535081 
L 781.200361 76.913959 
L 781.643518 71.001606 
L 782.382114 59.403372 
L 782.825271 54.992952 
L 783.268428 52.557285 
L 783.416147 52.382454 
L 784.007024 52.767874 
L 784.154743 52.688411 
L 784.302462 52.871179 
L 784.745619 52.291075 
L 785.188777 50.697753 
L 785.631934 48.095212 
L 786.813687 41.861039 
L 786.961406 41.900723 
L 787.109125 41.70605 
L 787.404563 42.135185 
L 787.700001 42.925857 
L 788.586316 47.018425 
L 789.029473 51.273888 
L 789.768069 62.613848 
L 789.915788 62.840332 
L 790.802103 58.779563 
L 791.24526 56.550506 
L 791.540698 55.751866 
L 791.688417 55.648551 
L 791.983856 55.724045 
L 792.279294 56.653811 
L 792.722451 58.712016 
L 793.313328 61.835071 
L 793.904204 64.274707 
L 794.495081 64.723696 
L 794.6428 64.77138 
L 794.938238 64.56477 
L 795.085957 64.59258 
L 795.233676 64.405833 
L 795.381395 64.409802 
L 796.119991 65.434925 
L 796.858586 67.1395 
L 797.597182 68.633485 
L 797.597182 68.633485 
" clip-path="url(#p6eb36b6c1a)" style="fill: none; stroke: #1f77b4; stroke-width: 1.5; stroke-linecap: square"/>
   </g>
   <g id="patch_4">
    <path d="M 115.29 82.768696 
L 115.29 34.56 
" style="fill: none; stroke: #000000; stroke-width: 2.5; stroke-linejoin: miter; stroke-linecap: square"/>
   </g>
   <g id="patch_5">
    <path d="M 115.29 82.768696 
L 830.088 82.768696 
" style="fill: none; stroke: #000000; stroke-width: 2.5; stroke-linejoin: miter; stroke-linecap: square"/>
   </g>
  </g>
  <g id="axes_2">
   <g id="patch_6">
    <path d="M 115.29 140.61913 
L 830.088 140.61913 
L 830.088 92.410435 
L 115.29 92.410435 
z
" style="fill: #ffffff"/>
   </g>
   <g id="patch_7">
    <path d="M 562.428359 140.61913 
L 562.428359 92.410435 
L 566.416775 92.410435 
L 566.416775 140.61913 
z
" clip-path="url(#pcfff63b703)" style="fill: #ff7f50; stroke: #ff7f50; stroke-linejoin: miter"/>
   </g>
   <g id="matplotlib.axis_3"/>
   <g id="matplotlib.axis_4">
    <g id="text_2">
     <!-- SPE -->
     <g transform="translate(108.378438 129.602595)rotate(-90)scale(0.14 -0.14)">
      <defs>
       <path id="DejaVuSans-53" d="M 3425 4513 
L 3425 3897 
Q 3066 4069 2747 4153 
Q 2428 4238 2131 4238 
Q 1616 4238 1336 4038 
Q 1056 3838 1056 3469 
Q 1056 3159 1242 3001 
Q 1428 2844 1947 2747 
L 2328 2669 
Q 3034 2534 3370 2195 
Q 3706 1856 3706 1288 
Q 3706 609 3251 259 
Q 2797 -91 1919 -91 
Q 1588 -91 1214 -16 
Q 841 59 441 206 
L 441 856 
Q 825 641 1194 531 
Q 1563 422 1919 422 
Q 2459 422 2753 634 
Q 3047 847 3047 1241 
Q 3047 1584 2836 1778 
Q 2625 1972 2144 2069 
L 1759 2144 
Q 1053 2284 737 2584 
Q 422 2884 422 3419 
Q 422 4038 858 4394 
Q 1294 4750 2059 4750 
Q 2388 4750 2728 4690 
Q 3069 4631 3425 4513 
z
" transform="scale(0.015625)"/>
       <path id="DejaVuSans-50" d="M 1259 4147 
L 1259 2394 
L 2053 2394 
Q 2494 2394 2734 2622 
Q 2975 2850 2975 3272 
Q 2975 3691 2734 3919 
Q 2494 4147 2053 4147 
L 1259 4147 
z
M 628 4666 
L 2053 4666 
Q 2838 4666 3239 4311 
Q 3641 3956 3641 3272 
Q 3641 2581 3239 2228 
Q 2838 1875 2053 1875 
L 1259 1875 
L 1259 0 
L 628 0 
L 628 4666 
z
" transform="scale(0.015625)"/>
       <path id="DejaVuSans-45" d="M 628 4666 
L 3578 4666 
L 3578 4134 
L 1259 4134 
L 1259 2753 
L 3481 2753 
L 3481 2222 
L 1259 2222 
L 1259 531 
L 3634 531 
L 3634 0 
L 628 0 
L 628 4666 
z
" transform="scale(0.015625)"/>
      </defs>
      <use xlink:href="#DejaVuSans-53"/>
      <use xlink:href="#DejaVuSans-50" x="63.476562"/>
      <use xlink:href="#DejaVuSans-45" x="123.779297"/>
     </g>
    </g>
   </g>
   <g id="line2d_2">
    <path d="M 147.780818 140.618936 
L 155.609931 140.617835 
L 173.779381 140.610356 
L 174.517977 140.611267 
L 178.801831 140.618853 
L 242.468768 140.608588 
L 243.355082 140.59792 
L 245.127711 140.616027 
L 245.866307 140.615222 
L 265.069791 140.616409 
L 265.956106 140.618404 
L 292.397827 140.614817 
L 292.693265 140.612009 
L 295.352209 140.616996 
L 562.428359 140.604373 
L 562.576078 92.410435 
L 562.723797 130.510431 
L 562.871516 137.258234 
L 563.019236 137.814236 
L 563.314674 140.245212 
L 563.462393 140.41335 
L 563.610112 139.235896 
L 563.757831 140.55218 
L 563.90555 140.570406 
L 564.053269 140.189817 
L 564.200988 140.578983 
L 564.348708 140.415407 
L 564.496427 140.617789 
L 564.644146 140.10931 
L 564.939584 140.599712 
L 565.087303 140.222081 
L 565.235022 140.569181 
L 565.67818 140.612412 
L 565.973618 140.606578 
L 566.859932 140.567865 
L 567.155371 140.205958 
L 567.450809 140.617989 
L 567.598528 140.431376 
L 567.746247 140.465561 
L 568.041685 140.618736 
L 614.573205 140.618467 
L 615.164081 140.619099 
L 643.082993 140.611894 
L 645.446499 140.618073 
L 647.366847 140.619128 
L 725.657975 140.618857 
L 778.689136 140.614233 
L 779.427731 140.593893 
L 780.461765 140.618367 
L 797.597182 140.618146 
L 797.597182 140.618146 
" clip-path="url(#pcfff63b703)" style="fill: none; stroke: #1f77b4; stroke-width: 1.5; stroke-linecap: square"/>
   </g>
   <g id="patch_8">
    <path d="M 115.29 140.61913 
L 115.29 92.410435 
" style="fill: none; stroke: #000000; stroke-width: 2.5; stroke-linejoin: miter; stroke-linecap: square"/>
   </g>
   <g id="patch_9">
    <path d="M 115.29 140.61913 
L 830.088 140.61913 
" style="fill: none; stroke: #000000; stroke-width: 2.5; stroke-linejoin: miter; stroke-linecap: square"/>
   </g>
  </g>
  <g id="axes_3">
   <g id="patch_10">
    <path d="M 115.29 198.469565 
L 830.088 198.469565 
L 830.088 150.26087 
L 115.29 150.26087 
z
" style="fill: #ffffff"/>
   </g>
   <g id="patch_11">
    <path d="M 562.428359 198.469565 
L 562.428359 150.26087 
L 566.416775 150.26087 
L 566.416775 198.469565 
z
" clip-path="url(#p80dbf99b00)" style="fill: #ff7f50; stroke: #ff7f50; stroke-linejoin: miter"/>
   </g>
   <g id="matplotlib.axis_5"/>
   <g id="matplotlib.axis_6">
    <g id="text_3">
     <!-- TRAKR -->
     <g transform="translate(108.378438 197.467405)rotate(-90)scale(0.14 -0.14)">
      <defs>
       <path id="DejaVuSans-54" d="M -19 4666 
L 3928 4666 
L 3928 4134 
L 2272 4134 
L 2272 0 
L 1638 0 
L 1638 4134 
L -19 4134 
L -19 4666 
z
" transform="scale(0.015625)"/>
       <path id="DejaVuSans-52" d="M 2841 2188 
Q 3044 2119 3236 1894 
Q 3428 1669 3622 1275 
L 4263 0 
L 3584 0 
L 2988 1197 
Q 2756 1666 2539 1819 
Q 2322 1972 1947 1972 
L 1259 1972 
L 1259 0 
L 628 0 
L 628 4666 
L 2053 4666 
Q 2853 4666 3247 4331 
Q 3641 3997 3641 3322 
Q 3641 2881 3436 2590 
Q 3231 2300 2841 2188 
z
M 1259 4147 
L 1259 2491 
L 2053 2491 
Q 2509 2491 2742 2702 
Q 2975 2913 2975 3322 
Q 2975 3731 2742 3939 
Q 2509 4147 2053 4147 
L 1259 4147 
z
" transform="scale(0.015625)"/>
       <path id="DejaVuSans-41" d="M 2188 4044 
L 1331 1722 
L 3047 1722 
L 2188 4044 
z
M 1831 4666 
L 2547 4666 
L 4325 0 
L 3669 0 
L 3244 1197 
L 1141 1197 
L 716 0 
L 50 0 
L 1831 4666 
z
" transform="scale(0.015625)"/>
       <path id="DejaVuSans-4b" d="M 628 4666 
L 1259 4666 
L 1259 2694 
L 3353 4666 
L 4166 4666 
L 1850 2491 
L 4331 0 
L 3500 0 
L 1259 2247 
L 1259 0 
L 628 0 
L 628 4666 
z
" transform="scale(0.015625)"/>
      </defs>
      <use xlink:href="#DejaVuSans-54"/>
      <use xlink:href="#DejaVuSans-52" x="61.083984"/>
      <use xlink:href="#DejaVuSans-41" x="126.566406"/>
      <use xlink:href="#DejaVuSans-4b" x="194.974609"/>
      <use xlink:href="#DejaVuSans-52" x="260.550781"/>
     </g>
    </g>
   </g>
   <g id="line2d_3">
    <path d="M 147.780818 198.469565 
L 192.835147 198.468168 
L 204.652675 198.469502 
L 489.011962 198.469057 
L 517.078592 198.454996 
L 518.112626 198.469394 
L 541.452246 198.467863 
L 551.644864 198.469426 
L 562.428359 198.460788 
L 562.576078 150.26087 
L 562.723797 191.999784 
L 563.019236 196.752718 
L 563.314674 198.211108 
L 563.462393 198.304426 
L 563.610112 197.455871 
L 563.757831 198.414307 
L 563.90555 198.426954 
L 564.053269 198.070813 
L 564.200988 198.42646 
L 564.348708 198.23094 
L 564.496427 198.467878 
L 564.644146 197.759213 
L 564.939584 198.429351 
L 565.087303 197.552769 
L 565.235022 198.322302 
L 565.382741 198.440279 
L 565.825899 198.21541 
L 566.121337 198.452971 
L 566.712213 198.415245 
L 566.859932 198.185414 
L 567.155371 196.714606 
L 567.450809 198.463792 
L 567.598528 197.537189 
L 567.746247 197.695553 
L 567.893966 198.455758 
L 568.337124 198.457689 
L 568.632562 198.355423 
L 568.928 198.464082 
L 569.518876 198.372153 
L 569.814315 198.469527 
L 571.882382 198.457281 
L 573.359573 198.46921 
L 576.461675 198.468194 
L 588.574642 198.469209 
L 597.585507 198.461732 
L 599.801294 198.469559 
L 735.702875 198.459295 
L 737.327785 198.469315 
L 738.2141 198.468054 
L 750.770224 198.469346 
L 775.882473 198.469208 
L 797.597182 198.469473 
L 797.597182 198.469473 
" clip-path="url(#p80dbf99b00)" style="fill: none; stroke: #1f77b4; stroke-width: 1.5; stroke-linecap: square"/>
   </g>
   <g id="patch_12">
    <path d="M 115.29 198.469565 
L 115.29 150.26087 
" style="fill: none; stroke: #000000; stroke-width: 2.5; stroke-linejoin: miter; stroke-linecap: square"/>
   </g>
   <g id="patch_13">
    <path d="M 115.29 198.469565 
L 830.088 198.469565 
" style="fill: none; stroke: #000000; stroke-width: 2.5; stroke-linejoin: miter; stroke-linecap: square"/>
   </g>
  </g>
  <g id="axes_4">
   <g id="patch_14">
    <path d="M 115.29 256.32 
L 830.088 256.32 
L 830.088 208.111304 
L 115.29 208.111304 
z
" style="fill: #ffffff"/>
   </g>
   <g id="patch_15">
    <path d="M 562.428359 256.32 
L 562.428359 208.111304 
L 566.416775 208.111304 
L 566.416775 256.32 
z
" clip-path="url(#pbdb00f0967)" style="fill: #ff7f50; stroke: #ff7f50; stroke-linejoin: miter"/>
   </g>
   <g id="matplotlib.axis_7">
    <g id="text_4">
     <!-- Time -->
     <g transform="translate(450.668531 273.997187)scale(0.18 -0.18)">
      <defs>
       <path id="DejaVuSans-69" d="M 603 3500 
L 1178 3500 
L 1178 0 
L 603 0 
L 603 3500 
z
M 603 4863 
L 1178 4863 
L 1178 4134 
L 603 4134 
L 603 4863 
z
" transform="scale(0.015625)"/>
       <path id="DejaVuSans-6d" d="M 3328 2828 
Q 3544 3216 3844 3400 
Q 4144 3584 4550 3584 
Q 5097 3584 5394 3201 
Q 5691 2819 5691 2113 
L 5691 0 
L 5113 0 
L 5113 2094 
Q 5113 2597 4934 2840 
Q 4756 3084 4391 3084 
Q 3944 3084 3684 2787 
Q 3425 2491 3425 1978 
L 3425 0 
L 2847 0 
L 2847 2094 
Q 2847 2600 2669 2842 
Q 2491 3084 2119 3084 
Q 1678 3084 1418 2786 
Q 1159 2488 1159 1978 
L 1159 0 
L 581 0 
L 581 3500 
L 1159 3500 
L 1159 2956 
Q 1356 3278 1631 3431 
Q 1906 3584 2284 3584 
Q 2666 3584 2933 3390 
Q 3200 3197 3328 2828 
z
" transform="scale(0.015625)"/>
       <path id="DejaVuSans-65" d="M 3597 1894 
L 3597 1613 
L 953 1613 
Q 991 1019 1311 708 
Q 1631 397 2203 397 
Q 2534 397 2845 478 
Q 3156 559 3463 722 
L 3463 178 
Q 3153 47 2828 -22 
Q 2503 -91 2169 -91 
Q 1331 -91 842 396 
Q 353 884 353 1716 
Q 353 2575 817 3079 
Q 1281 3584 2069 3584 
Q 2775 3584 3186 3129 
Q 3597 2675 3597 1894 
z
M 3022 2063 
Q 3016 2534 2758 2815 
Q 2500 3097 2075 3097 
Q 1594 3097 1305 2825 
Q 1016 2553 972 2059 
L 3022 2063 
z
" transform="scale(0.015625)"/>
      </defs>
      <use xlink:href="#DejaVuSans-54"/>
      <use xlink:href="#DejaVuSans-69" x="57.958984"/>
      <use xlink:href="#DejaVuSans-6d" x="85.742188"/>
      <use xlink:href="#DejaVuSans-65" x="183.154297"/>
     </g>
    </g>
   </g>
   <g id="matplotlib.axis_8">
    <g id="text_5">
     <!-- MD-RS -->
     <g transform="translate(108.378438 255.478621)rotate(-90)scale(0.14 -0.14)">
      <defs>
       <path id="DejaVuSans-4d" d="M 628 4666 
L 1569 4666 
L 2759 1491 
L 3956 4666 
L 4897 4666 
L 4897 0 
L 4281 0 
L 4281 4097 
L 3078 897 
L 2444 897 
L 1241 4097 
L 1241 0 
L 628 0 
L 628 4666 
z
" transform="scale(0.015625)"/>
       <path id="DejaVuSans-44" d="M 1259 4147 
L 1259 519 
L 2022 519 
Q 2988 519 3436 956 
Q 3884 1394 3884 2338 
Q 3884 3275 3436 3711 
Q 2988 4147 2022 4147 
L 1259 4147 
z
M 628 4666 
L 1925 4666 
Q 3281 4666 3915 4102 
Q 4550 3538 4550 2338 
Q 4550 1131 3912 565 
Q 3275 0 1925 0 
L 628 0 
L 628 4666 
z
" transform="scale(0.015625)"/>
       <path id="DejaVuSans-2d" d="M 313 2009 
L 1997 2009 
L 1997 1497 
L 313 1497 
L 313 2009 
z
" transform="scale(0.015625)"/>
      </defs>
      <use xlink:href="#DejaVuSans-4d"/>
      <use xlink:href="#DejaVuSans-44" x="86.279297"/>
      <use xlink:href="#DejaVuSans-2d" x="163.28125"/>
      <use xlink:href="#DejaVuSans-52" x="199.365234"/>
      <use xlink:href="#DejaVuSans-53" x="268.847656"/>
     </g>
    </g>
   </g>
   <g id="line2d_4">
    <path d="M 147.780818 256.32 
L 148.962571 256.306852 
L 189.142169 256.27433 
L 192.982866 256.295602 
L 212.629507 256.271789 
L 214.697575 256.282402 
L 220.310901 256.292274 
L 225.185632 256.304237 
L 234.787374 256.274917 
L 237.594037 256.281804 
L 243.207363 256.249796 
L 244.536835 256.243138 
L 247.343498 256.286484 
L 257.240678 256.266306 
L 258.126993 256.233349 
L 262.115409 256.298832 
L 280.728017 256.28392 
L 282.352927 256.27786 
L 299.931501 256.307823 
L 361.382651 256.298289 
L 367.586853 256.307495 
L 390.778754 256.311134 
L 401.41453 256.308483 
L 403.334878 256.210826 
L 404.516631 256.247255 
L 407.91417 256.297058 
L 416.629598 256.257171 
L 419.140823 256.252181 
L 424.901868 256.308803 
L 443.219038 256.295209 
L 453.411656 256.307807 
L 562.428359 256.276426 
L 562.576078 256.241671 
L 562.723797 252.747697 
L 563.019236 208.111304 
L 563.166955 211.55678 
L 563.462393 226.133378 
L 563.610112 227.715622 
L 564.348708 243.078137 
L 564.496427 243.814304 
L 565.382741 252.13366 
L 565.973618 254.779096 
L 566.269056 255.4872 
L 566.712213 255.961985 
L 567.155371 256.090829 
L 568.337124 255.851608 
L 569.223438 256.068998 
L 573.359573 256.290868 
L 588.574642 256.292745 
L 596.994631 256.298765 
L 684.296625 256.31018 
L 711.62466 256.303621 
L 724.771661 256.288414 
L 732.600774 256.30561 
L 797.597182 256.312631 
L 797.597182 256.312631 
" clip-path="url(#pbdb00f0967)" style="fill: none; stroke: #1f77b4; stroke-width: 1.5; stroke-linecap: square"/>
   </g>
   <g id="patch_16">
    <path d="M 115.29 256.32 
L 115.29 208.111304 
" style="fill: none; stroke: #000000; stroke-width: 2.5; stroke-linejoin: miter; stroke-linecap: square"/>
   </g>
   <g id="patch_17">
    <path d="M 115.29 256.32 
L 830.088 256.32 
" style="fill: none; stroke: #000000; stroke-width: 2.5; stroke-linejoin: miter; stroke-linecap: square"/>
   </g>
  </g>
 </g>
 <defs>
  <clipPath id="p6eb36b6c1a">
   <rect x="115.29" y="34.56" width="714.798" height="48.208696"/>
  </clipPath>
  <clipPath id="pcfff63b703">
   <rect x="115.29" y="92.410435" width="714.798" height="48.208696"/>
  </clipPath>
  <clipPath id="p80dbf99b00">
   <rect x="115.29" y="150.26087" width="714.798" height="48.208696"/>
  </clipPath>
  <clipPath id="pbdb00f0967">
   <rect x="115.29" y="208.111304" width="714.798" height="48.208696"/>
  </clipPath>
 </defs>
</svg>
