<?xml version="1.0" encoding="utf-8" standalone="no"?>
<!DOCTYPE svg PUBLIC "-//W3C//DTD SVG 1.1//EN"
  "http://www.w3.org/Graphics/SVG/1.1/DTD/svg11.dtd">
<svg xmlns:xlink="http://www.w3.org/1999/xlink" width="576pt" height="432pt" viewBox="0 0 576 432" xmlns="http://www.w3.org/2000/svg" version="1.1">
 <metadata>
  <rdf:RDF xmlns:dc="http://purl.org/dc/elements/1.1/" xmlns:cc="http://creativecommons.org/ns#" xmlns:rdf="http://www.w3.org/1999/02/22-rdf-syntax-ns#">
   <cc:Work>
    <dc:type rdf:resource="http://purl.org/dc/dcmitype/StillImage"/>
    <dc:date>2024-04-26T00:37:52.481210</dc:date>
    <dc:format>image/svg+xml</dc:format>
    <dc:creator>
     <cc:Agent>
      <dc:title>Matplotlib v3.5.1, https://matplotlib.org/</dc:title>
     </cc:Agent>
    </dc:creator>
   </cc:Work>
  </rdf:RDF>
 </metadata>
 <defs>
  <style type="text/css">*{stroke-linejoin: round; stroke-linecap: butt}</style>
 </defs>
 <g id="figure_1">
  <g id="patch_1">
   <path d="M 0 432 
L 576 432 
L 576 0 
L 0 0 
z
" style="fill: #ffffff"/>
  </g>
  <g id="axes_1">
   <g id="patch_2">
    <path d="M 39.28 112.04 
L 556.56 112.04 
L 556.56 38.4 
L 39.28 38.4 
z
" style="fill: #ffffff"/>
   </g>
   <g id="patch_3">
    <path d="M 296.11543 112.04 
L 296.11543 38.4 
L 313.74099 38.4 
L 313.74099 112.04 
z
" clip-path="url(#p1a21436386)" style="fill: #ff7f50; stroke: #ff7f50; stroke-linejoin: miter"/>
   </g>
   <g id="matplotlib.axis_1"/>
   <g id="matplotlib.axis_2">
    <g id="text_1">
     <!-- Input -->
     <g transform="translate(32.368437 93.345625)rotate(-90)scale(0.14 -0.14)">
      <defs>
       <path id="DejaVuSans-49" d="M 628 4666 
L 1259 4666 
L 1259 0 
L 628 0 
L 628 4666 
z
" transform="scale(0.015625)"/>
       <path id="DejaVuSans-6e" d="M 3513 2113 
L 3513 0 
L 2938 0 
L 2938 2094 
Q 2938 2591 2744 2837 
Q 2550 3084 2163 3084 
Q 1697 3084 1428 2787 
Q 1159 2491 1159 1978 
L 1159 0 
L 581 0 
L 581 3500 
L 1159 3500 
L 1159 2956 
Q 1366 3272 1645 3428 
Q 1925 3584 2291 3584 
Q 2894 3584 3203 3211 
Q 3513 2838 3513 2113 
z
" transform="scale(0.015625)"/>
       <path id="DejaVuSans-70" d="M 1159 525 
L 1159 -1331 
L 581 -1331 
L 581 3500 
L 1159 3500 
L 1159 2969 
Q 1341 3281 1617 3432 
Q 1894 3584 2278 3584 
Q 2916 3584 3314 3078 
Q 3713 2572 3713 1747 
Q 3713 922 3314 415 
Q 2916 -91 2278 -91 
Q 1894 -91 1617 61 
Q 1341 213 1159 525 
z
M 3116 1747 
Q 3116 2381 2855 2742 
Q 2594 3103 2138 3103 
Q 1681 3103 1420 2742 
Q 1159 2381 1159 1747 
Q 1159 1113 1420 752 
Q 1681 391 2138 391 
Q 2594 391 2855 752 
Q 3116 1113 3116 1747 
z
" transform="scale(0.015625)"/>
       <path id="DejaVuSans-75" d="M 544 1381 
L 544 3500 
L 1119 3500 
L 1119 1403 
Q 1119 906 1312 657 
Q 1506 409 1894 409 
Q 2359 409 2629 706 
Q 2900 1003 2900 1516 
L 2900 3500 
L 3475 3500 
L 3475 0 
L 2900 0 
L 2900 538 
Q 2691 219 2414 64 
Q 2138 -91 1772 -91 
Q 1169 -91 856 284 
Q 544 659 544 1381 
z
M 1991 3584 
L 1991 3584 
z
" transform="scale(0.015625)"/>
       <path id="DejaVuSans-74" d="M 1172 4494 
L 1172 3500 
L 2356 3500 
L 2356 3053 
L 1172 3053 
L 1172 1153 
Q 1172 725 1289 603 
Q 1406 481 1766 481 
L 2356 481 
L 2356 0 
L 1766 0 
Q 1100 0 847 248 
Q 594 497 594 1153 
L 594 3053 
L 172 3053 
L 172 3500 
L 594 3500 
L 594 4494 
L 1172 4494 
z
" transform="scale(0.015625)"/>
      </defs>
      <use xlink:href="#DejaVuSans-49"/>
      <use xlink:href="#DejaVuSans-6e" x="29.492188"/>
      <use xlink:href="#DejaVuSans-70" x="92.871094"/>
      <use xlink:href="#DejaVuSans-75" x="156.347656"/>
      <use xlink:href="#DejaVuSans-74" x="219.726562"/>
     </g>
    </g>
   </g>
   <g id="line2d_1">
    <path d="M 38.912812 94.781556 
L 39.565611 95.302893 
L 40.218409 95.372827 
L 40.871208 96.034048 
L 41.524006 96.377384 
L 42.176805 96.898721 
L 42.829603 98.361031 
L 43.482402 98.462765 
L 44.135201 99.301988 
L 45.440798 99.931425 
L 46.093596 99.715257 
L 46.746395 99.861491 
L 47.399193 99.613523 
L 48.70479 100.08401 
L 50.010387 100.815165 
L 51.315984 100.796098 
L 52.621581 101.349235 
L 53.27438 101.756138 
L 54.579977 101.571753 
L 55.232775 100.611713 
L 55.885574 98.589916 
L 57.191171 91.755202 
L 58.496768 83.095775 
L 60.455164 71.041259 
L 61.760761 64.416346 
L 62.413559 61.771478 
L 63.719156 58.948575 
L 65.024753 57.613415 
L 65.677552 57.766017 
L 66.33035 57.587999 
L 67.635947 58.21742 
L 68.288746 58.605256 
L 68.941544 58.459021 
L 69.594343 58.535322 
L 70.247141 58.357287 
L 70.89994 57.556198 
L 71.552738 57.600715 
L 73.511134 53.843206 
L 76.775127 45.412714 
L 77.427925 44.045705 
L 78.080724 42.399027 
L 78.733522 41.407187 
L 79.386321 40.777849 
L 80.039119 39.989343 
L 81.344716 39.379006 
L 82.650313 39.836842 
L 83.95591 40.790516 
L 84.608709 41.795023 
L 85.261507 41.92219 
L 86.567104 43.715036 
L 87.219903 44.745043 
L 89.178298 48.330901 
L 90.483896 52.272762 
L 91.136694 54.644295 
L 91.789493 57.587999 
L 92.442291 61.307341 
L 93.747888 70.132069 
L 94.400687 73.736994 
L 95.053485 75.663424 
L 95.706284 75.027636 
L 97.664679 70.589839 
L 98.317478 69.896834 
L 100.928672 64.594364 
L 101.58147 63.831425 
L 102.234269 63.430872 
L 104.192664 63.685191 
L 105.498262 65.141151 
L 106.803859 67.277382 
L 107.456657 68.835077 
L 108.109456 70.023985 
L 108.762254 71.810547 
L 110.067851 74.716101 
L 110.72065 76.496313 
L 112.026247 78.651628 
L 112.679045 79.656168 
L 113.984642 80.94681 
L 115.943038 81.302863 
L 116.595836 81.029478 
L 117.248635 80.558991 
L 117.901433 80.234739 
L 118.554232 80.120288 
L 119.20703 80.164805 
L 119.859829 80.075788 
L 122.471023 80.775159 
L 123.123822 81.582598 
L 123.77662 81.798766 
L 124.429419 82.351904 
L 126.387814 84.577169 
L 127.040613 85.70886 
L 127.693411 85.944112 
L 128.999008 87.59079 
L 129.651807 87.934126 
L 130.957404 89.402786 
L 131.610202 89.383719 
L 132.263001 90.133941 
L 132.915799 90.394609 
L 134.221396 91.519967 
L 134.874195 91.793352 
L 136.179792 92.492707 
L 136.832591 92.42914 
L 137.485389 93.007694 
L 138.138188 93.058561 
L 138.790986 93.713432 
L 139.443785 93.726149 
L 140.749382 94.81969 
L 141.40218 95.137592 
L 142.054979 95.684363 
L 142.707777 95.906897 
L 143.360576 96.383734 
L 144.013374 97.23569 
L 144.666173 97.763394 
L 145.97177 99.397372 
L 146.624568 99.480022 
L 147.277367 99.886925 
L 147.930165 99.963209 
L 148.582964 99.505456 
L 149.235762 99.518156 
L 151.846957 101.323802 
L 152.499755 101.514536 
L 153.805352 102.054957 
L 154.458151 101.921439 
L 155.110949 102.525443 
L 155.763748 102.735245 
L 156.416546 102.474576 
L 157.069345 101.883289 
L 157.722143 100.66893 
L 158.374942 98.837868 
L 159.02774 96.008615 
L 163.59733 68.485391 
L 164.250128 65.713355 
L 165.555725 62.133863 
L 166.208524 60.951305 
L 166.861323 60.264651 
L 167.514121 59.749664 
L 168.16692 59.781464 
L 168.819718 60.245584 
L 169.472517 60.226517 
L 170.778114 61.002172 
L 171.430912 60.779654 
L 172.083711 60.925872 
L 174.042106 59.75603 
L 174.694905 59.037592 
L 177.306099 53.40452 
L 179.917293 47.949399 
L 180.570091 46.703223 
L 181.875689 45.050212 
L 182.528487 44.31904 
L 183.181286 43.88037 
L 183.834084 43.804203 
L 184.486883 44.503541 
L 185.139681 44.980378 
L 186.445278 45.70505 
L 189.056472 49.252908 
L 190.362069 52.336429 
L 192.320465 58.427238 
L 193.626062 65.509904 
L 194.931659 74.023096 
L 195.584457 77.227468 
L 196.237256 78.51811 
L 196.890055 78.162075 
L 198.84845 74.983136 
L 199.501249 74.188397 
L 200.806846 71.74698 
L 201.459644 69.909551 
L 202.112443 68.79056 
L 203.41804 67.4427 
L 204.070838 67.277382 
L 204.723637 67.429983 
L 205.376435 67.919537 
L 206.682032 69.413631 
L 207.987629 71.689746 
L 208.640428 73.431808 
L 211.90442 80.196589 
L 212.557219 80.870527 
L 213.210018 81.792416 
L 213.862816 82.27562 
L 215.821212 82.873257 
L 216.47401 82.835107 
L 217.126809 82.580788 
L 217.779607 82.574438 
L 218.432406 82.135735 
L 219.085204 82.072168 
L 219.738003 82.28832 
L 221.0436 82.008584 
L 221.696398 81.856 
L 222.349197 82.35827 
L 223.001995 82.409121 
L 223.654794 83.108492 
L 224.307592 83.451828 
L 225.613189 84.500868 
L 226.918786 85.65801 
L 227.571585 86.681617 
L 228.224384 87.291971 
L 228.877182 87.737024 
L 229.529981 88.360095 
L 230.182779 88.722498 
L 230.835578 89.428219 
L 234.09957 91.793352 
L 234.752369 92.022237 
L 236.057966 92.772459 
L 236.710764 92.867826 
L 237.363563 93.401897 
L 238.66916 94.164835 
L 239.974757 94.444587 
L 240.627555 94.717973 
L 241.933152 95.671646 
L 242.585951 96.294717 
L 243.23875 96.587185 
L 243.891548 97.025872 
L 244.544347 97.877828 
L 246.502742 99.677107 
L 247.808339 100.039509 
L 248.461138 99.804274 
L 249.113936 99.975926 
L 249.766735 100.529063 
L 250.419533 100.878749 
L 251.72513 101.807005 
L 253.683526 103.199381 
L 254.989123 104.312006 
L 255.641921 105.055877 
L 256.29472 105.43098 
L 256.947518 105.564498 
L 257.600317 105.895117 
L 258.905914 105.284746 
L 259.558713 104.324722 
L 260.211511 103.021347 
L 261.517108 98.036779 
L 262.822705 91.456383 
L 264.128302 84.380068 
L 266.086698 75.415472 
L 267.392295 70.907741 
L 268.045093 69.718816 
L 268.697892 67.805086 
L 269.35069 66.800546 
L 270.003489 66.374576 
L 271.309086 66.063041 
L 272.614683 66.368209 
L 273.267481 66.558944 
L 275.225877 66.508094 
L 275.878676 65.865939 
L 276.531474 65.878656 
L 277.184273 65.338236 
L 278.48987 63.812342 
L 280.448265 60.595269 
L 281.753862 58.516238 
L 282.406661 57.378181 
L 284.365056 55.648835 
L 285.017855 55.362733 
L 286.97625 56.093888 
L 287.629049 56.640675 
L 288.281847 57.498981 
L 288.934646 58.141119 
L 289.587445 59.380911 
L 290.240243 60.353668 
L 291.54584 64.52443 
L 292.198639 67.544418 
L 292.851437 71.263777 
L 294.157034 80.247456 
L 294.809833 84.507235 
L 295.462631 86.916868 
L 296.11543 54.030757 
L 299.379422 45.867384 
L 300.032221 44.704876 
L 300.685019 43.923871 
L 301.337818 43.479034 
L 301.990616 43.360033 
L 302.643415 43.558368 
L 303.296213 43.991538 
L 304.601811 45.354047 
L 305.254609 48.334901 
L 307.213005 52.124594 
L 309.1714 56.440124 
L 311.782594 62.732218 
L 313.088191 67.272249 
L 314.393788 73.094656 
L 315.699385 80.617792 
L 316.352184 85.588359 
L 317.004982 88.677281 
L 317.657781 88.646197 
L 319.616176 88.239294 
L 321.574572 88.302878 
L 322.227371 88.741564 
L 322.880169 89.351919 
L 323.532968 89.326485 
L 324.185766 89.866922 
L 324.838565 90.248392 
L 326.144162 91.380083 
L 326.79696 91.615334 
L 328.755356 93.204795 
L 329.408154 93.490897 
L 330.060953 93.993167 
L 330.713751 94.749756 
L 331.36655 94.90234 
L 332.672147 95.72888 
L 333.324945 96.142132 
L 333.977744 96.358301 
L 335.283341 97.267474 
L 335.93614 97.369208 
L 336.588938 98.043129 
L 337.241737 98.20208 
L 338.547334 98.793367 
L 339.200132 98.551766 
L 339.852931 99.092186 
L 340.505729 99.480022 
L 341.158528 99.263854 
L 341.811326 99.874208 
L 343.116923 100.713447 
L 343.769722 101.101267 
L 344.42252 101.965939 
L 345.075319 102.391926 
L 346.380916 104.05132 
L 347.033714 104.242055 
L 347.686513 104.992294 
L 348.99211 105.068594 
L 349.644908 105.017727 
L 350.297707 105.246612 
L 350.950506 105.303829 
L 352.908901 106.308369 
L 353.5617 106.708922 
L 354.214498 106.918724 
L 355.520095 107.929631 
L 356.825692 108.533635 
L 357.478491 108.253883 
L 358.131289 107.548161 
L 358.784088 106.066768 
L 359.436886 104.184838 
L 360.089685 101.597187 
L 362.04808 90.420043 
L 364.006476 79.363716 
L 364.659274 76.286495 
L 366.61767 69.254696 
L 367.270469 67.849603 
L 367.923267 67.112081 
L 368.576066 66.673395 
L 369.228864 66.90863 
L 369.881663 66.425443 
L 370.534461 66.622528 
L 371.18726 67.061214 
L 371.840058 67.290116 
L 373.798454 67.455417 
L 374.451252 67.315533 
L 376.409648 65.045784 
L 377.062446 64.034877 
L 378.368043 61.351858 
L 380.326439 56.920411 
L 381.632036 54.033941 
L 383.590432 51.369922 
L 384.896029 50.854919 
L 385.548827 50.823252 
L 386.201626 51.001253 
L 386.854424 51.433589 
L 387.507223 52.190095 
L 389.465618 55.006697 
L 390.118417 55.83957 
L 390.771215 57.498981 
L 391.424014 58.687906 
L 392.729611 62.776018 
L 393.382409 65.834156 
L 394.688006 73.578043 
L 395.993603 81.805133 
L 396.646402 84.004948 
L 397.299201 84.2084 
L 398.604798 80.915027 
L 399.257596 79.89777 
L 399.910395 78.454527 
L 400.563193 77.634371 
L 402.521589 73.845078 
L 403.827186 72.21745 
L 404.479984 71.594379 
L 406.43838 72.242883 
L 407.091178 72.954972 
L 407.743977 73.457242 
L 408.396775 74.194764 
L 409.049574 75.580773 
L 411.007969 79.039447 
L 411.660768 80.622575 
L 412.966365 82.771523 
L 413.619164 83.852364 
L 414.924761 85.435475 
L 416.883156 86.236564 
L 418.188753 85.855094 
L 418.841552 85.950462 
L 419.49435 85.556276 
L 420.147149 85.359174 
L 422.758343 85.867811 
L 423.411141 86.230214 
L 424.06394 86.382798 
L 424.716738 86.961369 
L 425.369537 87.152103 
L 426.022335 87.870542 
L 426.675134 88.004059 
L 427.980731 89.313785 
L 428.63353 89.695254 
L 429.286328 90.400976 
L 429.939127 90.833312 
L 430.591925 91.100347 
L 431.244724 91.519967 
L 431.897522 92.333773 
L 432.550321 92.575374 
L 433.203119 93.325596 
L 433.855918 93.484547 
L 434.508716 94.177552 
L 435.814313 94.991358 
L 436.467112 95.080375 
L 437.11991 95.608079 
L 437.772709 95.983181 
L 439.078306 96.3138 
L 440.383903 97.083106 
L 441.036701 97.089456 
L 441.6895 97.23569 
L 442.342298 98.043129 
L 443.647896 99.041319 
L 444.300694 99.219337 
L 446.25909 100.834248 
L 446.911888 101.705271 
L 448.217485 102.493643 
L 448.870284 102.709811 
L 449.523082 102.709811 
L 450.175881 102.493643 
L 450.828679 102.995913 
L 451.481478 103.059497 
L 452.787075 103.733435 
L 456.051067 106.130352 
L 456.703866 106.092201 
L 457.356664 106.708922 
L 458.009463 106.435537 
L 458.662262 105.856966 
L 459.31506 104.598108 
L 459.967859 102.690744 
L 460.620657 99.823341 
L 461.926254 92.581724 
L 462.579053 88.258378 
L 463.88465 80.717942 
L 464.537448 77.074867 
L 465.843045 71.797847 
L 466.495844 69.375497 
L 467.801441 65.935873 
L 468.454239 65.236518 
L 469.759836 64.301912 
L 470.412635 64.683381 
L 471.718232 64.734248 
L 472.37103 65.147501 
L 473.676628 65.452686 
L 474.982225 64.715165 
L 475.635023 64.117527 
L 476.287822 63.335505 
L 476.94062 61.968562 
L 477.593419 61.084823 
L 478.899016 58.25557 
L 479.551814 56.697892 
L 480.204613 54.746029 
L 480.857411 53.264635 
L 483.468605 48.909572 
L 484.774202 47.809564 
L 485.427001 47.574396 
L 486.732598 48.381735 
L 487.385396 48.674237 
L 488.038195 49.360908 
L 489.343792 51.05842 
L 489.996591 52.508097 
L 490.649389 53.525304 
L 491.302188 55.032131 
L 491.954986 56.151105 
L 492.607785 57.708799 
L 493.913382 62.019429 
L 494.56618 64.963116 
L 497.177374 80.311039 
L 497.830173 81.78605 
L 498.482971 81.175695 
L 500.441367 77.004933 
L 501.094165 76.311928 
L 502.399762 73.584409 
L 503.052561 72.605286 
L 503.705359 71.282844 
L 504.358158 70.634339 
L 505.010957 70.303737 
L 505.663755 69.814183 
L 506.316554 70.316453 
L 506.969352 70.081219 
L 507.622151 70.647072 
L 510.233345 74.487216 
L 510.886143 75.854159 
L 511.538942 76.655247 
L 512.19174 78.549894 
L 513.497337 80.717942 
L 514.150136 81.658899 
L 516.108531 83.515395 
L 517.414128 84.303767 
L 518.066927 84.564452 
L 518.719725 84.437285 
L 519.372524 84.450001 
L 520.025323 84.189333 
L 520.678121 84.163899 
L 521.33092 84.437285 
L 521.983718 84.055815 
L 522.636517 84.176616 
L 523.942114 84.678886 
L 524.594912 85.149373 
L 525.900509 85.575343 
L 526.553308 86.605333 
L 527.206106 86.776984 
L 527.858905 87.444572 
L 528.511703 87.895975 
L 529.164502 88.519046 
L 529.8173 89.313785 
L 530.470099 89.453653 
L 533.081293 91.462733 
L 533.734091 91.837853 
L 534.38689 92.492707 
L 535.039689 92.797893 
L 535.692487 93.255662 
L 536.345286 93.980451 
L 536.998084 93.93595 
L 537.650883 94.559021 
L 538.303681 94.412787 
L 538.95648 95.099442 
L 540.262077 95.398261 
L 540.914875 95.499995 
L 541.567674 95.945048 
L 542.220472 96.70162 
L 542.873271 96.784287 
L 543.526069 97.184823 
L 544.178868 97.718893 
L 544.831666 98.049496 
L 548.095659 101.527253 
L 548.748457 101.819705 
L 550.054054 101.724338 
L 550.706853 101.915089 
L 551.359652 102.252041 
L 552.01245 102.099457 
L 552.665249 102.690744 
L 555.276443 103.892386 
L 555.929241 104.604458 
L 556.58204 104.865126 
L 556.58204 104.865126 
" clip-path="url(#p1a21436386)" style="fill: none; stroke: #1f77b4; stroke-width: 1.5; stroke-linecap: square"/>
   </g>
   <g id="patch_4">
    <path d="M 39.28 112.04 
L 39.28 38.4 
" style="fill: none; stroke: #000000; stroke-width: 2.5; stroke-linejoin: miter; stroke-linecap: square"/>
   </g>
   <g id="patch_5">
    <path d="M 39.28 112.04 
L 556.56 112.04 
" style="fill: none; stroke: #000000; stroke-width: 2.5; stroke-linejoin: miter; stroke-linecap: square"/>
   </g>
   <g id="text_2">
    <!-- UCR_133 -->
    <g transform="translate(257.11625 32.4)scale(0.18 -0.18)">
     <defs>
      <path id="DejaVuSans-55" d="M 556 4666 
L 1191 4666 
L 1191 1831 
Q 1191 1081 1462 751 
Q 1734 422 2344 422 
Q 2950 422 3222 751 
Q 3494 1081 3494 1831 
L 3494 4666 
L 4128 4666 
L 4128 1753 
Q 4128 841 3676 375 
Q 3225 -91 2344 -91 
Q 1459 -91 1007 375 
Q 556 841 556 1753 
L 556 4666 
z
" transform="scale(0.015625)"/>
      <path id="DejaVuSans-43" d="M 4122 4306 
L 4122 3641 
Q 3803 3938 3442 4084 
Q 3081 4231 2675 4231 
Q 1875 4231 1450 3742 
Q 1025 3253 1025 2328 
Q 1025 1406 1450 917 
Q 1875 428 2675 428 
Q 3081 428 3442 575 
Q 3803 722 4122 1019 
L 4122 359 
Q 3791 134 3420 21 
Q 3050 -91 2638 -91 
Q 1578 -91 968 557 
Q 359 1206 359 2328 
Q 359 3453 968 4101 
Q 1578 4750 2638 4750 
Q 3056 4750 3426 4639 
Q 3797 4528 4122 4306 
z
" transform="scale(0.015625)"/>
      <path id="DejaVuSans-52" d="M 2841 2188 
Q 3044 2119 3236 1894 
Q 3428 1669 3622 1275 
L 4263 0 
L 3584 0 
L 2988 1197 
Q 2756 1666 2539 1819 
Q 2322 1972 1947 1972 
L 1259 1972 
L 1259 0 
L 628 0 
L 628 4666 
L 2053 4666 
Q 2853 4666 3247 4331 
Q 3641 3997 3641 3322 
Q 3641 2881 3436 2590 
Q 3231 2300 2841 2188 
z
M 1259 4147 
L 1259 2491 
L 2053 2491 
Q 2509 2491 2742 2702 
Q 2975 2913 2975 3322 
Q 2975 3731 2742 3939 
Q 2509 4147 2053 4147 
L 1259 4147 
z
" transform="scale(0.015625)"/>
      <path id="DejaVuSans-5f" d="M 3263 -1063 
L 3263 -1509 
L -63 -1509 
L -63 -1063 
L 3263 -1063 
z
" transform="scale(0.015625)"/>
      <path id="DejaVuSans-31" d="M 794 531 
L 1825 531 
L 1825 4091 
L 703 3866 
L 703 4441 
L 1819 4666 
L 2450 4666 
L 2450 531 
L 3481 531 
L 3481 0 
L 794 0 
L 794 531 
z
" transform="scale(0.015625)"/>
      <path id="DejaVuSans-33" d="M 2597 2516 
Q 3050 2419 3304 2112 
Q 3559 1806 3559 1356 
Q 3559 666 3084 287 
Q 2609 -91 1734 -91 
Q 1441 -91 1130 -33 
Q 819 25 488 141 
L 488 750 
Q 750 597 1062 519 
Q 1375 441 1716 441 
Q 2309 441 2620 675 
Q 2931 909 2931 1356 
Q 2931 1769 2642 2001 
Q 2353 2234 1838 2234 
L 1294 2234 
L 1294 2753 
L 1863 2753 
Q 2328 2753 2575 2939 
Q 2822 3125 2822 3475 
Q 2822 3834 2567 4026 
Q 2313 4219 1838 4219 
Q 1578 4219 1281 4162 
Q 984 4106 628 3988 
L 628 4550 
Q 988 4650 1302 4700 
Q 1616 4750 1894 4750 
Q 2613 4750 3031 4423 
Q 3450 4097 3450 3541 
Q 3450 3153 3228 2886 
Q 3006 2619 2597 2516 
z
" transform="scale(0.015625)"/>
     </defs>
     <use xlink:href="#DejaVuSans-55"/>
     <use xlink:href="#DejaVuSans-43" x="73.193359"/>
     <use xlink:href="#DejaVuSans-52" x="143.017578"/>
     <use xlink:href="#DejaVuSans-5f" x="212.5"/>
     <use xlink:href="#DejaVuSans-31" x="262.5"/>
     <use xlink:href="#DejaVuSans-33" x="326.123047"/>
     <use xlink:href="#DejaVuSans-33" x="389.746094"/>
    </g>
   </g>
  </g>
  <g id="axes_2">
   <g id="patch_6">
    <path d="M 39.28 205.12 
L 556.56 205.12 
L 556.56 131.48 
L 39.28 131.48 
z
" style="fill: #ffffff"/>
   </g>
   <g id="patch_7">
    <path d="M 296.11543 205.12 
L 296.11543 131.48 
L 313.74099 131.48 
L 313.74099 205.12 
z
" clip-path="url(#p7f2a458c01)" style="fill: #ff7f50; stroke: #ff7f50; stroke-linejoin: miter"/>
   </g>
   <g id="matplotlib.axis_3"/>
   <g id="matplotlib.axis_4">
    <g id="text_3">
     <!-- Small $τ$ -->
     <g transform="translate(32.368437 194.2)rotate(-90)scale(0.14 -0.14)">
      <defs>
       <path id="DejaVuSans-53" d="M 3425 4513 
L 3425 3897 
Q 3066 4069 2747 4153 
Q 2428 4238 2131 4238 
Q 1616 4238 1336 4038 
Q 1056 3838 1056 3469 
Q 1056 3159 1242 3001 
Q 1428 2844 1947 2747 
L 2328 2669 
Q 3034 2534 3370 2195 
Q 3706 1856 3706 1288 
Q 3706 609 3251 259 
Q 2797 -91 1919 -91 
Q 1588 -91 1214 -16 
Q 841 59 441 206 
L 441 856 
Q 825 641 1194 531 
Q 1563 422 1919 422 
Q 2459 422 2753 634 
Q 3047 847 3047 1241 
Q 3047 1584 2836 1778 
Q 2625 1972 2144 2069 
L 1759 2144 
Q 1053 2284 737 2584 
Q 422 2884 422 3419 
Q 422 4038 858 4394 
Q 1294 4750 2059 4750 
Q 2388 4750 2728 4690 
Q 3069 4631 3425 4513 
z
" transform="scale(0.015625)"/>
       <path id="DejaVuSans-6d" d="M 3328 2828 
Q 3544 3216 3844 3400 
Q 4144 3584 4550 3584 
Q 5097 3584 5394 3201 
Q 5691 2819 5691 2113 
L 5691 0 
L 5113 0 
L 5113 2094 
Q 5113 2597 4934 2840 
Q 4756 3084 4391 3084 
Q 3944 3084 3684 2787 
Q 3425 2491 3425 1978 
L 3425 0 
L 2847 0 
L 2847 2094 
Q 2847 2600 2669 2842 
Q 2491 3084 2119 3084 
Q 1678 3084 1418 2786 
Q 1159 2488 1159 1978 
L 1159 0 
L 581 0 
L 581 3500 
L 1159 3500 
L 1159 2956 
Q 1356 3278 1631 3431 
Q 1906 3584 2284 3584 
Q 2666 3584 2933 3390 
Q 3200 3197 3328 2828 
z
" transform="scale(0.015625)"/>
       <path id="DejaVuSans-61" d="M 2194 1759 
Q 1497 1759 1228 1600 
Q 959 1441 959 1056 
Q 959 750 1161 570 
Q 1363 391 1709 391 
Q 2188 391 2477 730 
Q 2766 1069 2766 1631 
L 2766 1759 
L 2194 1759 
z
M 3341 1997 
L 3341 0 
L 2766 0 
L 2766 531 
Q 2569 213 2275 61 
Q 1981 -91 1556 -91 
Q 1019 -91 701 211 
Q 384 513 384 1019 
Q 384 1609 779 1909 
Q 1175 2209 1959 2209 
L 2766 2209 
L 2766 2266 
Q 2766 2663 2505 2880 
Q 2244 3097 1772 3097 
Q 1472 3097 1187 3025 
Q 903 2953 641 2809 
L 641 3341 
Q 956 3463 1253 3523 
Q 1550 3584 1831 3584 
Q 2591 3584 2966 3190 
Q 3341 2797 3341 1997 
z
" transform="scale(0.015625)"/>
       <path id="DejaVuSans-6c" d="M 603 4863 
L 1178 4863 
L 1178 0 
L 603 0 
L 603 4863 
z
" transform="scale(0.015625)"/>
       <path id="DejaVuSans-20" transform="scale(0.015625)"/>
       <path id="DejaVuSans-Oblique-3c4" d="M 2103 638 
Q 2188 488 2525 488 
L 2800 488 
L 2706 0 
L 2363 0 
Q 1800 0 1600 300 
Q 1403 606 1534 1269 
L 1856 2925 
L 541 2925 
L 653 3500 
L 3881 3500 
L 3769 2925 
L 2444 2925 
L 2113 1234 
Q 2025 781 2103 638 
z
" transform="scale(0.015625)"/>
      </defs>
      <use xlink:href="#DejaVuSans-53" transform="translate(0 0.015625)"/>
      <use xlink:href="#DejaVuSans-6d" transform="translate(63.476562 0.015625)"/>
      <use xlink:href="#DejaVuSans-61" transform="translate(160.888672 0.015625)"/>
      <use xlink:href="#DejaVuSans-6c" transform="translate(222.167969 0.015625)"/>
      <use xlink:href="#DejaVuSans-6c" transform="translate(249.951172 0.015625)"/>
      <use xlink:href="#DejaVuSans-20" transform="translate(277.734375 0.015625)"/>
      <use xlink:href="#DejaVuSans-Oblique-3c4" transform="translate(309.521484 0.015625)"/>
     </g>
    </g>
   </g>
   <g id="line2d_2">
    <path d="M 38.912812 201.771654 
L 295.462631 201.748726 
L 296.11543 200.873188 
L 296.768228 134.827273 
L 298.073825 143.465724 
L 298.726624 150.0202 
L 299.379422 169.657231 
L 300.032221 164.102817 
L 300.685019 178.440988 
L 301.337818 186.796003 
L 301.990616 188.747907 
L 302.643415 188.564878 
L 303.296213 190.740667 
L 303.949012 193.930977 
L 304.601811 192.772604 
L 305.254609 195.947239 
L 305.907408 197.955041 
L 306.560206 198.895953 
L 307.213005 198.995088 
L 307.865803 199.883921 
L 308.518602 200.383723 
L 309.824199 200.968994 
L 311.129796 201.149124 
L 313.088191 201.510483 
L 315.699385 201.632751 
L 318.963378 201.459882 
L 320.268975 201.232623 
L 321.574572 201.238245 
L 322.880169 201.219997 
L 324.185766 201.163169 
L 326.79696 201.317694 
L 328.102557 201.414368 
L 329.408154 201.507915 
L 332.019348 201.649031 
L 338.547334 201.71976 
L 345.728117 201.747115 
L 354.867297 201.726237 
L 399.257596 201.757978 
L 414.271962 201.766859 
L 497.830173 201.765194 
L 542.873271 201.767261 
L 556.58204 201.762255 
L 556.58204 201.762255 
" clip-path="url(#p7f2a458c01)" style="fill: none; stroke: #1f77b4; stroke-width: 1.5; stroke-linecap: square"/>
   </g>
   <g id="patch_8">
    <path d="M 39.28 205.12 
L 39.28 131.48 
" style="fill: none; stroke: #000000; stroke-width: 2.5; stroke-linejoin: miter; stroke-linecap: square"/>
   </g>
   <g id="patch_9">
    <path d="M 39.28 205.12 
L 556.56 205.12 
" style="fill: none; stroke: #000000; stroke-width: 2.5; stroke-linejoin: miter; stroke-linecap: square"/>
   </g>
  </g>
  <g id="axes_3">
   <g id="patch_10">
    <path d="M 39.28 298.2 
L 556.56 298.2 
L 556.56 224.56 
L 39.28 224.56 
z
" style="fill: #ffffff"/>
   </g>
   <g id="patch_11">
    <path d="M 296.11543 298.2 
L 296.11543 224.56 
L 313.74099 224.56 
L 313.74099 298.2 
z
" clip-path="url(#p81a45d3f79)" style="fill: #ff7f50; stroke: #ff7f50; stroke-linejoin: miter"/>
   </g>
   <g id="matplotlib.axis_5"/>
   <g id="matplotlib.axis_6">
    <g id="text_4">
     <!-- Large $τ$ -->
     <g transform="translate(32.34 287.7)rotate(-90)scale(0.14 -0.14)">
      <defs>
       <path id="DejaVuSans-4c" d="M 628 4666 
L 1259 4666 
L 1259 531 
L 3531 531 
L 3531 0 
L 628 0 
L 628 4666 
z
" transform="scale(0.015625)"/>
       <path id="DejaVuSans-72" d="M 2631 2963 
Q 2534 3019 2420 3045 
Q 2306 3072 2169 3072 
Q 1681 3072 1420 2755 
Q 1159 2438 1159 1844 
L 1159 0 
L 581 0 
L 581 3500 
L 1159 3500 
L 1159 2956 
Q 1341 3275 1631 3429 
Q 1922 3584 2338 3584 
Q 2397 3584 2469 3576 
Q 2541 3569 2628 3553 
L 2631 2963 
z
" transform="scale(0.015625)"/>
       <path id="DejaVuSans-67" d="M 2906 1791 
Q 2906 2416 2648 2759 
Q 2391 3103 1925 3103 
Q 1463 3103 1205 2759 
Q 947 2416 947 1791 
Q 947 1169 1205 825 
Q 1463 481 1925 481 
Q 2391 481 2648 825 
Q 2906 1169 2906 1791 
z
M 3481 434 
Q 3481 -459 3084 -895 
Q 2688 -1331 1869 -1331 
Q 1566 -1331 1297 -1286 
Q 1028 -1241 775 -1147 
L 775 -588 
Q 1028 -725 1275 -790 
Q 1522 -856 1778 -856 
Q 2344 -856 2625 -561 
Q 2906 -266 2906 331 
L 2906 616 
Q 2728 306 2450 153 
Q 2172 0 1784 0 
Q 1141 0 747 490 
Q 353 981 353 1791 
Q 353 2603 747 3093 
Q 1141 3584 1784 3584 
Q 2172 3584 2450 3431 
Q 2728 3278 2906 2969 
L 2906 3500 
L 3481 3500 
L 3481 434 
z
" transform="scale(0.015625)"/>
       <path id="DejaVuSans-65" d="M 3597 1894 
L 3597 1613 
L 953 1613 
Q 991 1019 1311 708 
Q 1631 397 2203 397 
Q 2534 397 2845 478 
Q 3156 559 3463 722 
L 3463 178 
Q 3153 47 2828 -22 
Q 2503 -91 2169 -91 
Q 1331 -91 842 396 
Q 353 884 353 1716 
Q 353 2575 817 3079 
Q 1281 3584 2069 3584 
Q 2775 3584 3186 3129 
Q 3597 2675 3597 1894 
z
M 3022 2063 
Q 3016 2534 2758 2815 
Q 2500 3097 2075 3097 
Q 1594 3097 1305 2825 
Q 1016 2553 972 2059 
L 3022 2063 
z
" transform="scale(0.015625)"/>
      </defs>
      <use xlink:href="#DejaVuSans-4c" transform="translate(0 0.09375)"/>
      <use xlink:href="#DejaVuSans-61" transform="translate(55.712891 0.09375)"/>
      <use xlink:href="#DejaVuSans-72" transform="translate(116.992188 0.09375)"/>
      <use xlink:href="#DejaVuSans-67" transform="translate(158.105469 0.09375)"/>
      <use xlink:href="#DejaVuSans-65" transform="translate(221.582031 0.09375)"/>
      <use xlink:href="#DejaVuSans-20" transform="translate(283.105469 0.09375)"/>
      <use xlink:href="#DejaVuSans-Oblique-3c4" transform="translate(314.892578 0.09375)"/>
     </g>
    </g>
   </g>
   <g id="line2d_3">
    <path d="M 38.912812 294.852594 
L 88.5255 294.752213 
L 100.928672 294.726349 
L 140.096583 294.823343 
L 247.155541 294.84617 
L 294.809833 294.713283 
L 295.462631 294.677639 
L 296.11543 289.502485 
L 296.768228 270.66123 
L 297.421027 246.874179 
L 298.073825 232.846975 
L 298.726624 228.005894 
L 299.379422 227.907273 
L 300.032221 232.390556 
L 301.337818 245.757582 
L 301.990616 249.233429 
L 302.643415 249.636822 
L 303.296213 249.054125 
L 303.949012 249.846019 
L 304.601811 252.708957 
L 305.254609 256.614784 
L 306.560206 265.382102 
L 307.865803 272.195374 
L 308.518602 274.840026 
L 309.1714 276.925002 
L 310.476997 280.039158 
L 312.435393 283.986352 
L 314.393788 287.431007 
L 315.046587 288.383723 
L 315.699385 289.126269 
L 316.352184 289.37147 
L 317.004982 288.562673 
L 317.657781 286.344402 
L 318.963378 280.518747 
L 326.144162 246.204705 
L 326.79696 244.189893 
L 327.449759 243.341231 
L 328.102557 243.581277 
L 328.755356 244.990249 
L 329.408154 247.333157 
L 332.019348 258.719816 
L 332.672147 260.635794 
L 333.324945 261.980625 
L 333.977744 262.83381 
L 334.630542 263.318977 
L 335.93614 263.801747 
L 337.241737 264.296121 
L 337.894535 264.674586 
L 338.547334 265.300873 
L 339.200132 266.137859 
L 339.852931 267.296029 
L 341.158528 270.238968 
L 343.769722 277.412287 
L 345.075319 280.243124 
L 345.728117 281.297269 
L 346.380916 282.02738 
L 347.033714 282.487037 
L 347.686513 282.713825 
L 348.339311 282.65894 
L 348.99211 282.486698 
L 350.950506 281.499093 
L 352.256103 280.899426 
L 353.5617 280.647573 
L 354.214498 280.701665 
L 355.520095 281.123892 
L 357.478491 282.026619 
L 358.784088 282.907048 
L 360.089685 284.300538 
L 362.700879 287.509553 
L 365.312073 290.048146 
L 367.923267 291.944212 
L 370.534461 293.294791 
L 372.492857 293.915187 
L 374.451252 294.228699 
L 379.020842 294.579686 
L 382.937633 294.717887 
L 397.951999 294.769022 
L 480.857411 294.8337 
L 525.247711 294.84822 
L 556.58204 294.833356 
L 556.58204 294.833356 
" clip-path="url(#p81a45d3f79)" style="fill: none; stroke: #1f77b4; stroke-width: 1.5; stroke-linecap: square"/>
   </g>
   <g id="patch_12">
    <path d="M 39.28 298.2 
L 39.28 224.56 
" style="fill: none; stroke: #000000; stroke-width: 2.5; stroke-linejoin: miter; stroke-linecap: square"/>
   </g>
   <g id="patch_13">
    <path d="M 39.28 298.2 
L 556.56 298.2 
" style="fill: none; stroke: #000000; stroke-width: 2.5; stroke-linejoin: miter; stroke-linecap: square"/>
   </g>
  </g>
  <g id="axes_4">
   <g id="patch_14">
    <path d="M 39.28 391.28 
L 556.56 391.28 
L 556.56 317.64 
L 39.28 317.64 
z
" style="fill: #ffffff"/>
   </g>
   <g id="patch_15">
    <path d="M 296.11543 391.28 
L 296.11543 317.64 
L 313.74099 317.64 
L 313.74099 391.28 
z
" clip-path="url(#p8a5318635d)" style="fill: #ff7f50; stroke: #ff7f50; stroke-linejoin: miter"/>
   </g>
   <g id="matplotlib.axis_7">
    <g id="text_5">
     <!-- Time -->
     <g transform="translate(275.899531 408.957188)scale(0.18 -0.18)">
      <defs>
       <path id="DejaVuSans-54" d="M -19 4666 
L 3928 4666 
L 3928 4134 
L 2272 4134 
L 2272 0 
L 1638 0 
L 1638 4134 
L -19 4134 
L -19 4666 
z
" transform="scale(0.015625)"/>
       <path id="DejaVuSans-69" d="M 603 3500 
L 1178 3500 
L 1178 0 
L 603 0 
L 603 3500 
z
M 603 4863 
L 1178 4863 
L 1178 4134 
L 603 4134 
L 603 4863 
z
" transform="scale(0.015625)"/>
      </defs>
      <use xlink:href="#DejaVuSans-54"/>
      <use xlink:href="#DejaVuSans-69" x="57.958984"/>
      <use xlink:href="#DejaVuSans-6d" x="85.742188"/>
      <use xlink:href="#DejaVuSans-65" x="183.154297"/>
     </g>
    </g>
   </g>
   <g id="matplotlib.axis_8">
    <g id="text_6">
     <!-- Mixed $τ$ -->
     <g transform="translate(32.368437 381.83)rotate(-90)scale(0.14 -0.14)">
      <defs>
       <path id="DejaVuSans-4d" d="M 628 4666 
L 1569 4666 
L 2759 1491 
L 3956 4666 
L 4897 4666 
L 4897 0 
L 4281 0 
L 4281 4097 
L 3078 897 
L 2444 897 
L 1241 4097 
L 1241 0 
L 628 0 
L 628 4666 
z
" transform="scale(0.015625)"/>
       <path id="DejaVuSans-78" d="M 3513 3500 
L 2247 1797 
L 3578 0 
L 2900 0 
L 1881 1375 
L 863 0 
L 184 0 
L 1544 1831 
L 300 3500 
L 978 3500 
L 1906 2253 
L 2834 3500 
L 3513 3500 
z
" transform="scale(0.015625)"/>
       <path id="DejaVuSans-64" d="M 2906 2969 
L 2906 4863 
L 3481 4863 
L 3481 0 
L 2906 0 
L 2906 525 
Q 2725 213 2448 61 
Q 2172 -91 1784 -91 
Q 1150 -91 751 415 
Q 353 922 353 1747 
Q 353 2572 751 3078 
Q 1150 3584 1784 3584 
Q 2172 3584 2448 3432 
Q 2725 3281 2906 2969 
z
M 947 1747 
Q 947 1113 1208 752 
Q 1469 391 1925 391 
Q 2381 391 2643 752 
Q 2906 1113 2906 1747 
Q 2906 2381 2643 2742 
Q 2381 3103 1925 3103 
Q 1469 3103 1208 2742 
Q 947 2381 947 1747 
z
" transform="scale(0.015625)"/>
      </defs>
      <use xlink:href="#DejaVuSans-4d" transform="translate(0 0.015625)"/>
      <use xlink:href="#DejaVuSans-69" transform="translate(86.279297 0.015625)"/>
      <use xlink:href="#DejaVuSans-78" transform="translate(114.0625 0.015625)"/>
      <use xlink:href="#DejaVuSans-65" transform="translate(173.242188 0.015625)"/>
      <use xlink:href="#DejaVuSans-64" transform="translate(234.765625 0.015625)"/>
      <use xlink:href="#DejaVuSans-20" transform="translate(298.242188 0.015625)"/>
      <use xlink:href="#DejaVuSans-Oblique-3c4" transform="translate(330.029297 0.015625)"/>
     </g>
    </g>
   </g>
   <g id="line2d_4">
    <path d="M 38.912812 387.932571 
L 295.462631 387.840641 
L 296.11543 385.739024 
L 296.768228 338.669429 
L 297.421027 326.38247 
L 298.073825 320.987273 
L 298.726624 324.789862 
L 300.032221 349.65466 
L 300.685019 359.349833 
L 301.337818 365.145733 
L 301.990616 367.851012 
L 302.643415 368.802946 
L 303.296213 369.341391 
L 303.949012 370.364902 
L 305.254609 374.017643 
L 305.907408 376.359915 
L 307.213005 379.520392 
L 307.865803 380.862462 
L 308.518602 381.944095 
L 309.1714 382.801986 
L 309.824199 383.450511 
L 311.129796 384.330157 
L 313.088191 385.237434 
L 315.046587 385.775954 
L 315.699385 385.831165 
L 316.352184 385.656884 
L 317.004982 384.916178 
L 318.963378 381.430849 
L 320.268975 379.102245 
L 320.921774 378.279745 
L 322.227371 377.217883 
L 323.532968 376.060455 
L 324.838565 374.816279 
L 327.449759 371.956403 
L 328.102557 371.579853 
L 328.755356 371.410384 
L 329.408154 371.534228 
L 330.060953 371.965334 
L 332.019348 373.866586 
L 333.324945 375.083093 
L 335.283341 376.477968 
L 339.200132 378.954786 
L 346.380916 382.656481 
L 347.686513 383.03274 
L 349.644908 383.206177 
L 351.603304 383.007953 
L 357.478491 381.873823 
L 358.784088 381.968253 
L 359.436886 382.193453 
L 360.742483 382.999948 
L 363.353677 384.742079 
L 365.312073 385.713013 
L 366.61767 386.188199 
L 369.228864 386.801569 
L 373.145655 387.507637 
L 375.756849 387.684294 
L 382.937633 387.855157 
L 412.313567 387.922142 
L 540.914875 387.931105 
L 556.58204 387.923685 
L 556.58204 387.923685 
" clip-path="url(#p8a5318635d)" style="fill: none; stroke: #1f77b4; stroke-width: 1.5; stroke-linecap: square"/>
   </g>
   <g id="patch_16">
    <path d="M 39.28 391.28 
L 39.28 317.64 
" style="fill: none; stroke: #000000; stroke-width: 2.5; stroke-linejoin: miter; stroke-linecap: square"/>
   </g>
   <g id="patch_17">
    <path d="M 39.28 391.28 
L 556.56 391.28 
" style="fill: none; stroke: #000000; stroke-width: 2.5; stroke-linejoin: miter; stroke-linecap: square"/>
   </g>
  </g>
 </g>
 <defs>
  <clipPath id="p1a21436386">
   <rect x="39.28" y="38.4" width="517.28" height="73.64"/>
  </clipPath>
  <clipPath id="p7f2a458c01">
   <rect x="39.28" y="131.48" width="517.28" height="73.64"/>
  </clipPath>
  <clipPath id="p81a45d3f79">
   <rect x="39.28" y="224.56" width="517.28" height="73.64"/>
  </clipPath>
  <clipPath id="p8a5318635d">
   <rect x="39.28" y="317.64" width="517.28" height="73.64"/>
  </clipPath>
 </defs>
</svg>
