<?xml version="1.0" encoding="utf-8" standalone="no"?>
<!DOCTYPE svg PUBLIC "-//W3C//DTD SVG 1.1//EN"
  "http://www.w3.org/Graphics/SVG/1.1/DTD/svg11.dtd">
<svg xmlns:xlink="http://www.w3.org/1999/xlink" width="576pt" height="432pt" viewBox="0 0 576 432" xmlns="http://www.w3.org/2000/svg" version="1.1">
 <metadata>
  <rdf:RDF xmlns:dc="http://purl.org/dc/elements/1.1/" xmlns:cc="http://creativecommons.org/ns#" xmlns:rdf="http://www.w3.org/1999/02/22-rdf-syntax-ns#">
   <cc:Work>
    <dc:type rdf:resource="http://purl.org/dc/dcmitype/StillImage"/>
    <dc:date>2024-04-26T00:39:27.189471</dc:date>
    <dc:format>image/svg+xml</dc:format>
    <dc:creator>
     <cc:Agent>
      <dc:title>Matplotlib v3.5.1, https://matplotlib.org/</dc:title>
     </cc:Agent>
    </dc:creator>
   </cc:Work>
  </rdf:RDF>
 </metadata>
 <defs>
  <style type="text/css">*{stroke-linejoin: round; stroke-linecap: butt}</style>
 </defs>
 <g id="figure_1">
  <g id="patch_1">
   <path d="M 0 432 
L 576 432 
L 576 0 
L 0 0 
z
" style="fill: #ffffff"/>
  </g>
  <g id="axes_1">
   <g id="patch_2">
    <path d="M 39.28 112.04 
L 556.56 112.04 
L 556.56 38.4 
L 39.28 38.4 
z
" style="fill: #ffffff"/>
   </g>
   <g id="patch_3">
    <path d="M 251.084277 112.04 
L 251.084277 38.4 
L 335.144518 38.4 
L 335.144518 112.04 
z
" clip-path="url(#p67906be148)" style="fill: #ff7f50; stroke: #ff7f50; stroke-linejoin: miter"/>
   </g>
   <g id="matplotlib.axis_1"/>
   <g id="matplotlib.axis_2">
    <g id="text_1">
     <!-- Input -->
     <g transform="translate(32.368437 93.345625)rotate(-90)scale(0.14 -0.14)">
      <defs>
       <path id="DejaVuSans-49" d="M 628 4666 
L 1259 4666 
L 1259 0 
L 628 0 
L 628 4666 
z
" transform="scale(0.015625)"/>
       <path id="DejaVuSans-6e" d="M 3513 2113 
L 3513 0 
L 2938 0 
L 2938 2094 
Q 2938 2591 2744 2837 
Q 2550 3084 2163 3084 
Q 1697 3084 1428 2787 
Q 1159 2491 1159 1978 
L 1159 0 
L 581 0 
L 581 3500 
L 1159 3500 
L 1159 2956 
Q 1366 3272 1645 3428 
Q 1925 3584 2291 3584 
Q 2894 3584 3203 3211 
Q 3513 2838 3513 2113 
z
" transform="scale(0.015625)"/>
       <path id="DejaVuSans-70" d="M 1159 525 
L 1159 -1331 
L 581 -1331 
L 581 3500 
L 1159 3500 
L 1159 2969 
Q 1341 3281 1617 3432 
Q 1894 3584 2278 3584 
Q 2916 3584 3314 3078 
Q 3713 2572 3713 1747 
Q 3713 922 3314 415 
Q 2916 -91 2278 -91 
Q 1894 -91 1617 61 
Q 1341 213 1159 525 
z
M 3116 1747 
Q 3116 2381 2855 2742 
Q 2594 3103 2138 3103 
Q 1681 3103 1420 2742 
Q 1159 2381 1159 1747 
Q 1159 1113 1420 752 
Q 1681 391 2138 391 
Q 2594 391 2855 752 
Q 3116 1113 3116 1747 
z
" transform="scale(0.015625)"/>
       <path id="DejaVuSans-75" d="M 544 1381 
L 544 3500 
L 1119 3500 
L 1119 1403 
Q 1119 906 1312 657 
Q 1506 409 1894 409 
Q 2359 409 2629 706 
Q 2900 1003 2900 1516 
L 2900 3500 
L 3475 3500 
L 3475 0 
L 2900 0 
L 2900 538 
Q 2691 219 2414 64 
Q 2138 -91 1772 -91 
Q 1169 -91 856 284 
Q 544 659 544 1381 
z
M 1991 3584 
L 1991 3584 
z
" transform="scale(0.015625)"/>
       <path id="DejaVuSans-74" d="M 1172 4494 
L 1172 3500 
L 2356 3500 
L 2356 3053 
L 1172 3053 
L 1172 1153 
Q 1172 725 1289 603 
Q 1406 481 1766 481 
L 2356 481 
L 2356 0 
L 1766 0 
Q 1100 0 847 248 
Q 594 497 594 1153 
L 594 3053 
L 172 3053 
L 172 3500 
L 594 3500 
L 594 4494 
L 1172 4494 
z
" transform="scale(0.015625)"/>
      </defs>
      <use xlink:href="#DejaVuSans-49"/>
      <use xlink:href="#DejaVuSans-6e" x="29.492188"/>
      <use xlink:href="#DejaVuSans-70" x="92.871094"/>
      <use xlink:href="#DejaVuSans-75" x="156.347656"/>
      <use xlink:href="#DejaVuSans-74" x="219.726562"/>
     </g>
    </g>
   </g>
   <g id="line2d_1">
    <path d="M 38.832171 98.674908 
L 39.357547 98.831481 
L 39.882924 98.761291 
L 40.4083 99.166256 
L 40.933677 99.349821 
L 41.459053 99.387627 
L 42.509806 99.695395 
L 43.035183 99.835776 
L 43.560559 100.116538 
L 44.085936 100.219127 
L 45.662065 101.153218 
L 46.187442 100.948039 
L 46.712818 101.331404 
L 47.238195 101.309805 
L 47.763571 101.487978 
L 48.288948 101.833538 
L 48.814324 101.790353 
L 49.339701 102.146713 
L 49.865077 102.076522 
L 50.390454 102.519265 
L 50.91583 102.659646 
L 51.441207 103.059204 
L 51.966583 103.059204 
L 52.49196 103.58295 
L 53.017336 103.620742 
L 54.593466 104.641229 
L 55.118842 104.684428 
L 55.644219 105.197361 
L 56.169595 105.445738 
L 56.694972 105.893887 
L 57.220348 105.7373 
L 57.745725 106.012669 
L 58.271101 106.439219 
L 60.372607 106.768587 
L 60.897984 106.601199 
L 61.42336 106.223241 
L 61.948737 106.023469 
L 63.524866 103.215791 
L 66.151749 95.289486 
L 70.354761 81.035106 
L 72.456267 74.847413 
L 74.557773 69.906972 
L 76.659279 66.262387 
L 77.710032 64.410399 
L 81.913044 56.473293 
L 83.489173 54.491724 
L 84.01455 54.189363 
L 85.065303 53.028494 
L 85.590679 52.936705 
L 86.116056 52.515547 
L 86.641432 52.893506 
L 87.692185 52.990689 
L 88.742938 54.259553 
L 89.268315 54.983072 
L 89.793691 56.300513 
L 90.319068 57.304808 
L 91.895197 61.964474 
L 93.471327 67.196477 
L 93.996703 68.195365 
L 94.52208 70.284931 
L 95.047456 71.316217 
L 96.098209 74.356066 
L 97.674339 78.081641 
L 99.775845 82.460544 
L 101.351974 85.181838 
L 102.402727 86.666667 
L 103.45348 87.762738 
L 103.978857 88.578046 
L 107.656492 92.476401 
L 108.181869 92.76257 
L 108.707245 93.513095 
L 109.232622 93.707474 
L 110.283375 94.862936 
L 110.808751 95.186896 
L 111.334128 95.813232 
L 112.910257 96.81212 
L 113.435634 97.022692 
L 115.53714 98.296949 
L 116.062516 98.588511 
L 116.587893 99.155456 
L 117.113269 99.193248 
L 117.638646 99.501016 
L 118.164022 99.360621 
L 118.689399 99.700788 
L 119.214775 99.873568 
L 119.740152 100.192135 
L 120.265528 100.148937 
L 123.417787 100.840057 
L 124.46854 100.634878 
L 125.519293 101.083027 
L 126.04467 101.099234 
L 126.570046 101.379996 
L 127.095423 101.201809 
L 127.620799 101.444794 
L 128.671552 101.185617 
L 129.196929 101.763347 
L 129.722305 101.757954 
L 130.247682 101.536583 
L 130.773058 101.563575 
L 131.298435 101.768754 
L 131.823811 101.633766 
L 133.399941 101.838945 
L 133.925317 102.044123 
L 134.97607 102.114314 
L 135.501447 102.033324 
L 136.5522 102.303286 
L 137.077576 102.497665 
L 137.602953 102.454481 
L 138.128329 102.638046 
L 138.653706 102.557056 
L 139.179082 102.864825 
L 139.704459 103.037604 
L 140.229835 102.929622 
L 140.755212 103.221184 
L 141.280588 103.194192 
L 141.805965 103.426363 
L 142.331341 103.372365 
L 144.958224 104.263271 
L 145.4836 104.209272 
L 146.008977 104.646622 
L 146.534353 104.776218 
L 147.05973 104.689821 
L 147.585106 104.851801 
L 148.110483 105.31075 
L 148.635859 105.326942 
L 150.737365 106.552608 
L 151.262742 106.585007 
L 153.364248 107.438107 
L 153.889625 107.378716 
L 154.940378 107.897056 
L 155.991131 108.037437 
L 157.041884 107.675685 
L 157.56726 107.297726 
L 158.092637 106.703789 
L 159.668766 103.815121 
L 160.719519 101.045236 
L 162.295649 95.991405 
L 163.346402 92.562798 
L 166.498661 82.179782 
L 168.07479 77.638898 
L 169.65092 74.075303 
L 170.176296 73.432775 
L 170.701673 72.169317 
L 171.227049 71.559188 
L 174.904685 65.954619 
L 175.430061 64.696568 
L 175.955438 64.102631 
L 178.58232 59.691328 
L 179.633073 58.43867 
L 180.15845 58.179508 
L 180.683826 57.499187 
L 181.209203 57.418183 
L 181.734579 57.110429 
L 182.785332 56.845859 
L 183.310709 57.299401 
L 183.836085 57.223818 
L 184.361462 57.693567 
L 184.886838 58.395486 
L 185.937591 60.404047 
L 188.564474 67.633827 
L 189.615227 70.635883 
L 191.716733 75.975883 
L 195.394368 83.718609 
L 197.495874 87.179614 
L 198.021251 87.951724 
L 199.59738 89.68493 
L 200.648133 90.878183 
L 201.17351 91.304748 
L 202.224263 92.471009 
L 202.749639 92.886759 
L 203.275016 93.923438 
L 203.800392 93.842448 
L 204.325769 94.398594 
L 204.851145 95.197696 
L 205.376522 95.489272 
L 206.952651 96.947094 
L 207.478028 97.130674 
L 208.003404 97.740803 
L 208.528781 97.978381 
L 209.054157 98.372532 
L 209.579534 98.907079 
L 210.10491 99.058259 
L 210.630287 99.533401 
L 211.68104 99.819569 
L 212.206416 100.424306 
L 212.731793 100.435106 
L 213.257169 100.564687 
L 214.307922 101.196416 
L 214.833299 101.153218 
L 216.409428 101.871344 
L 216.934805 101.919935 
L 217.460181 102.146713 
L 217.985558 102.071115 
L 218.510934 102.146713 
L 219.036311 102.524672 
L 219.561687 102.384276 
L 220.087064 102.654253 
L 220.61244 102.675852 
L 221.137817 102.470673 
L 221.663193 102.891831 
L 222.18857 102.697452 
L 223.764699 102.632654 
L 224.290076 102.929622 
L 224.815452 102.594862 
L 225.340829 102.848632 
L 226.391582 102.940422 
L 226.916958 102.978214 
L 227.442335 102.692045 
L 227.967711 102.978214 
L 228.493088 102.978214 
L 229.018464 103.161793 
L 229.543841 103.08621 
L 230.069217 103.302174 
L 230.594594 103.1672 
L 231.11997 103.280575 
L 231.645347 103.199585 
L 232.6961 103.404764 
L 235.848359 104.063499 
L 236.899112 104.317269 
L 237.424488 104.387459 
L 239.000618 104.986789 
L 239.525994 104.905799 
L 241.6275 105.510522 
L 242.678253 105.650917 
L 243.729006 106.174649 
L 244.254383 106.423027 
L 244.779759 106.471618 
L 245.830512 107.232928 
L 246.355889 107.09794 
L 246.881265 107.578488 
L 247.932018 107.810659 
L 248.457395 107.902449 
L 248.982771 107.859264 
L 250.033524 108.005038 
L 250.558901 108.350598 
L 251.084277 108.366804 
L 252.660407 107.960764 
L 254.761913 106.836611 
L 257.388795 104.410134 
L 257.914172 103.883146 
L 258.439548 103.04948 
L 258.964925 102.462039 
L 259.490301 101.507426 
L 260.015678 100.833574 
L 260.541054 99.861692 
L 261.066431 99.196489 
L 261.591807 98.109052 
L 262.117184 97.388775 
L 262.64256 96.326165 
L 263.167937 95.561614 
L 263.693313 94.381312 
L 264.21869 93.623243 
L 264.744066 92.525007 
L 265.269443 91.769089 
L 265.794819 90.670853 
L 266.320196 89.988367 
L 266.845572 88.913896 
L 267.370949 88.179578 
L 267.896325 87.035992 
L 268.421702 86.23471 
L 268.947078 85.0922 
L 269.472455 84.34169 
L 269.997831 83.21322 
L 270.523208 82.494019 
L 271.048584 81.457339 
L 271.573961 80.761902 
L 272.099337 79.772724 
L 272.624714 79.161519 
L 273.15009 78.206905 
L 273.675467 77.569784 
L 274.200843 76.673485 
L 274.72622 76.070914 
L 275.251596 75.199456 
L 275.776973 74.671392 
L 276.302349 73.920882 
L 276.827726 73.429534 
L 277.353102 72.686581 
L 277.878479 72.212516 
L 278.403855 71.563505 
L 278.929232 71.136955 
L 279.454608 70.500909 
L 281.030738 69.300084 
L 281.556115 68.757979 
L 282.081491 68.425384 
L 283.657621 66.903839 
L 284.182997 66.54639 
L 284.708374 66.012934 
L 285.23375 65.673856 
L 285.759127 65.130676 
L 286.284503 64.750552 
L 286.80988 64.200903 
L 287.335256 63.827261 
L 287.860633 63.244124 
L 288.386009 62.865089 
L 289.436762 61.727986 
L 289.962139 61.117856 
L 290.487515 60.717223 
L 291.012892 60.07577 
L 291.538268 59.708611 
L 293.114398 58.123344 
L 293.639774 57.762667 
L 294.165151 57.227059 
L 294.690527 56.879334 
L 295.215904 56.333988 
L 298.368163 54.125641 
L 299.944292 53.357848 
L 302.045798 52.070102 
L 302.571175 52.156484 
L 303.096551 52.545243 
L 303.621928 53.811404 
L 304.147304 55.749775 
L 304.672681 58.35768 
L 305.723434 65.055617 
L 306.774187 71.729264 
L 307.82494 77.255533 
L 309.401069 84.077658 
L 309.926446 85.862159 
L 310.977199 88.532158 
L 312.553328 91.264252 
L 313.604081 93.175631 
L 314.654834 94.952022 
L 315.705587 96.272181 
L 317.281717 97.94059 
L 319.908599 99.72778 
L 320.959352 100.022045 
L 321.484729 100.008556 
L 322.010105 100.23532 
L 324.636988 100.575487 
L 325.687741 100.856249 
L 326.213117 100.931846 
L 328.84 101.976622 
L 330.416129 101.828145 
L 331.992259 102.594862 
L 333.043012 102.767642 
L 333.568388 103.134801 
L 334.619141 103.145601 
L 335.144518 103.507353 
L 336.195271 103.577544 
L 336.720647 103.966302 
L 337.246024 104.041899 
L 337.7714 104.344261 
L 338.296777 104.473842 
L 338.822153 104.814009 
L 339.872906 105.21896 
L 341.974412 106.093659 
L 342.499789 106.093659 
L 343.550542 106.757787 
L 344.601295 106.892775 
L 346.177424 107.200529 
L 347.228177 106.730781 
L 348.27893 105.47273 
L 348.804307 104.53864 
L 349.85506 102.065723 
L 352.481942 93.367307 
L 354.058072 87.411785 
L 356.159578 79.766256 
L 356.684954 78.389409 
L 357.210331 76.418625 
L 357.735707 75.122783 
L 358.78646 72.066728 
L 359.837213 69.858381 
L 365.090978 59.642737 
L 366.667108 56.386911 
L 368.243237 53.368647 
L 368.768614 52.299569 
L 369.819367 50.879538 
L 371.920873 48.806165 
L 372.446249 48.795365 
L 372.971626 48.547002 
L 373.497002 48.698182 
L 374.022379 48.660391 
L 374.547755 48.973552 
L 376.123885 50.955121 
L 377.174638 53.444245 
L 378.225391 56.192531 
L 380.326897 63.438503 
L 381.37765 67.185677 
L 384.004532 74.933796 
L 385.055285 77.563301 
L 386.106038 79.976827 
L 387.682168 83.329851 
L 389.783674 86.15372 
L 392.410556 88.707642 
L 392.935933 88.982997 
L 393.461309 89.506744 
L 393.986686 89.560742 
L 394.512062 90.192471 
L 397.138945 92.43861 
L 397.664321 92.638396 
L 398.715074 93.313309 
L 399.240451 93.550887 
L 399.765827 94.042234 
L 400.291204 94.144824 
L 400.81658 94.403987 
L 401.341957 94.490384 
L 401.867333 95.154497 
L 402.39271 94.960118 
L 402.918086 95.710643 
L 403.968839 95.759234 
L 405.019592 96.401763 
L 405.544969 96.536751 
L 406.070345 96.54755 
L 406.595722 96.833719 
L 407.121098 96.941702 
L 407.646475 97.195472 
L 408.171851 97.200864 
L 408.697228 97.557224 
L 409.222604 97.368252 
L 411.324111 97.805601 
L 412.374864 97.800208 
L 412.90024 98.064778 
L 413.950993 98.188953 
L 414.47637 97.99998 
L 415.001746 98.34554 
L 415.527123 98.215959 
L 416.577876 98.340148 
L 419.204758 98.858487 
L 419.730135 98.712699 
L 420.255511 98.858487 
L 420.780888 98.6911 
L 421.831641 99.30123 
L 422.357017 99.182448 
L 424.458523 99.90056 
L 424.9839 99.932959 
L 425.509276 100.337909 
L 426.034653 100.067947 
L 426.560029 100.246119 
L 427.610782 100.888648 
L 428.136159 100.921047 
L 428.661535 101.115426 
L 429.186912 101.077634 
L 430.763041 101.795746 
L 431.288418 101.887536 
L 432.339171 102.476066 
L 433.389924 102.497665 
L 434.966053 103.534359 
L 435.49143 103.561351 
L 436.016806 103.77733 
L 436.542183 104.236279 
L 437.067559 104.20388 
L 437.592936 104.841001 
L 438.118312 105.03538 
L 439.169065 105.20816 
L 439.694442 105.510522 
L 440.219818 105.672516 
L 440.745195 105.38094 
L 441.795948 105.758899 
L 442.321324 105.38094 
L 442.846701 105.316157 
L 443.372077 104.679021 
L 443.897454 103.798929 
L 444.948207 101.660758 
L 449.151219 86.558685 
L 451.778101 76.688602 
L 453.879607 69.955563 
L 454.404984 68.686713 
L 454.93036 67.126286 
L 455.455737 66.111206 
L 455.981113 64.745159 
L 456.50649 63.95145 
L 461.234878 53.789805 
L 462.285631 51.33308 
L 463.336384 48.897954 
L 463.861761 48.174436 
L 464.912514 46.165931 
L 465.963267 44.929423 
L 466.488643 44.011525 
L 467.539396 43.325756 
L 468.590149 43.08287 
L 469.115526 43.088249 
L 470.691655 44.238275 
L 472.267785 47.008175 
L 473.318538 49.648479 
L 475.94542 59.032608 
L 478.046926 66.764534 
L 480.148432 73.184398 
L 481.199185 75.781504 
L 481.724562 77.212334 
L 483.300691 80.279189 
L 483.826068 81.402265 
L 484.351444 81.936811 
L 485.927574 84.177558 
L 486.45295 84.517711 
L 486.978327 85.133247 
L 487.503703 85.489607 
L 488.02908 85.694771 
L 488.554456 86.456096 
L 489.079833 86.693659 
L 489.605209 87.239005 
L 490.130586 87.400986 
L 491.706715 88.513263 
L 492.232092 89.296172 
L 492.757468 89.333964 
L 493.808221 90.21407 
L 494.333598 90.268054 
L 494.858974 90.834999 
L 495.384351 90.996979 
L 495.909727 91.553111 
L 496.435104 91.936476 
L 497.485857 92.233431 
L 498.53661 92.821961 
L 499.061986 92.989348 
L 499.587363 93.361914 
L 500.112739 93.480696 
L 500.638116 94.193415 
L 501.163492 94.107018 
L 502.214245 94.479584 
L 502.739622 94.528175 
L 503.264998 94.717148 
L 503.790375 94.771146 
L 504.841128 95.435273 
L 505.366504 95.192303 
L 506.942634 95.705236 
L 507.46801 95.597254 
L 508.518763 95.872623 
L 509.04414 95.791633 
L 510.094893 96.169592 
L 510.620269 96.088602 
L 511.145646 96.299173 
L 512.196399 96.326165 
L 512.721775 96.606941 
L 513.247152 96.525951 
L 513.772528 96.574542 
L 515.348658 97.195472 
L 515.874034 97.017299 
L 516.399411 97.055091 
L 516.924787 97.465448 
L 517.97554 97.508633 
L 518.500917 97.854192 
L 519.026293 97.724611 
L 519.55167 98.037772 
L 520.077046 98.566911 
L 520.602423 98.372532 
L 522.178552 98.998868 
L 523.229305 99.009668 
L 523.754682 99.409226 
L 524.280058 99.506409 
L 524.805435 99.868161 
L 525.856188 100.008556 
L 527.432317 100.921047 
L 527.957694 100.899448 
L 528.48307 101.293599 
L 529.008447 101.228815 
L 529.533823 101.709363 
L 530.0592 101.606774 
L 530.584576 102.022524 
L 531.109953 102.216903 
L 531.635329 102.233096 
L 532.160706 102.643453 
L 532.686082 102.740636 
L 533.736835 103.518153 
L 534.787588 103.906911 
L 536.363718 104.749211 
L 537.414471 105.202768 
L 538.465224 105.181168 
L 538.990601 105.332349 
L 540.56673 104.209272 
L 541.617483 102.308693 
L 543.193613 97.50324 
L 545.295119 89.571541 
L 547.396625 80.991908 
L 550.548884 69.140255 
L 552.65039 63.200939 
L 553.175766 62.261442 
L 553.701143 60.900802 
L 555.802649 56.878258 
L 556.328025 55.512211 
L 556.853402 54.529516 
L 556.853402 54.529516 
" clip-path="url(#p67906be148)" style="fill: none; stroke: #1f77b4; stroke-width: 1.5; stroke-linecap: square"/>
   </g>
   <g id="patch_4">
    <path d="M 39.28 112.04 
L 39.28 38.4 
" style="fill: none; stroke: #000000; stroke-width: 2.5; stroke-linejoin: miter; stroke-linecap: square"/>
   </g>
   <g id="patch_5">
    <path d="M 39.28 112.04 
L 556.56 112.04 
" style="fill: none; stroke: #000000; stroke-width: 2.5; stroke-linejoin: miter; stroke-linecap: square"/>
   </g>
   <g id="text_2">
    <!-- UCR_139 -->
    <g transform="translate(257.11625 32.4)scale(0.18 -0.18)">
     <defs>
      <path id="DejaVuSans-55" d="M 556 4666 
L 1191 4666 
L 1191 1831 
Q 1191 1081 1462 751 
Q 1734 422 2344 422 
Q 2950 422 3222 751 
Q 3494 1081 3494 1831 
L 3494 4666 
L 4128 4666 
L 4128 1753 
Q 4128 841 3676 375 
Q 3225 -91 2344 -91 
Q 1459 -91 1007 375 
Q 556 841 556 1753 
L 556 4666 
z
" transform="scale(0.015625)"/>
      <path id="DejaVuSans-43" d="M 4122 4306 
L 4122 3641 
Q 3803 3938 3442 4084 
Q 3081 4231 2675 4231 
Q 1875 4231 1450 3742 
Q 1025 3253 1025 2328 
Q 1025 1406 1450 917 
Q 1875 428 2675 428 
Q 3081 428 3442 575 
Q 3803 722 4122 1019 
L 4122 359 
Q 3791 134 3420 21 
Q 3050 -91 2638 -91 
Q 1578 -91 968 557 
Q 359 1206 359 2328 
Q 359 3453 968 4101 
Q 1578 4750 2638 4750 
Q 3056 4750 3426 4639 
Q 3797 4528 4122 4306 
z
" transform="scale(0.015625)"/>
      <path id="DejaVuSans-52" d="M 2841 2188 
Q 3044 2119 3236 1894 
Q 3428 1669 3622 1275 
L 4263 0 
L 3584 0 
L 2988 1197 
Q 2756 1666 2539 1819 
Q 2322 1972 1947 1972 
L 1259 1972 
L 1259 0 
L 628 0 
L 628 4666 
L 2053 4666 
Q 2853 4666 3247 4331 
Q 3641 3997 3641 3322 
Q 3641 2881 3436 2590 
Q 3231 2300 2841 2188 
z
M 1259 4147 
L 1259 2491 
L 2053 2491 
Q 2509 2491 2742 2702 
Q 2975 2913 2975 3322 
Q 2975 3731 2742 3939 
Q 2509 4147 2053 4147 
L 1259 4147 
z
" transform="scale(0.015625)"/>
      <path id="DejaVuSans-5f" d="M 3263 -1063 
L 3263 -1509 
L -63 -1509 
L -63 -1063 
L 3263 -1063 
z
" transform="scale(0.015625)"/>
      <path id="DejaVuSans-31" d="M 794 531 
L 1825 531 
L 1825 4091 
L 703 3866 
L 703 4441 
L 1819 4666 
L 2450 4666 
L 2450 531 
L 3481 531 
L 3481 0 
L 794 0 
L 794 531 
z
" transform="scale(0.015625)"/>
      <path id="DejaVuSans-33" d="M 2597 2516 
Q 3050 2419 3304 2112 
Q 3559 1806 3559 1356 
Q 3559 666 3084 287 
Q 2609 -91 1734 -91 
Q 1441 -91 1130 -33 
Q 819 25 488 141 
L 488 750 
Q 750 597 1062 519 
Q 1375 441 1716 441 
Q 2309 441 2620 675 
Q 2931 909 2931 1356 
Q 2931 1769 2642 2001 
Q 2353 2234 1838 2234 
L 1294 2234 
L 1294 2753 
L 1863 2753 
Q 2328 2753 2575 2939 
Q 2822 3125 2822 3475 
Q 2822 3834 2567 4026 
Q 2313 4219 1838 4219 
Q 1578 4219 1281 4162 
Q 984 4106 628 3988 
L 628 4550 
Q 988 4650 1302 4700 
Q 1616 4750 1894 4750 
Q 2613 4750 3031 4423 
Q 3450 4097 3450 3541 
Q 3450 3153 3228 2886 
Q 3006 2619 2597 2516 
z
" transform="scale(0.015625)"/>
      <path id="DejaVuSans-39" d="M 703 97 
L 703 672 
Q 941 559 1184 500 
Q 1428 441 1663 441 
Q 2288 441 2617 861 
Q 2947 1281 2994 2138 
Q 2813 1869 2534 1725 
Q 2256 1581 1919 1581 
Q 1219 1581 811 2004 
Q 403 2428 403 3163 
Q 403 3881 828 4315 
Q 1253 4750 1959 4750 
Q 2769 4750 3195 4129 
Q 3622 3509 3622 2328 
Q 3622 1225 3098 567 
Q 2575 -91 1691 -91 
Q 1453 -91 1209 -44 
Q 966 3 703 97 
z
M 1959 2075 
Q 2384 2075 2632 2365 
Q 2881 2656 2881 3163 
Q 2881 3666 2632 3958 
Q 2384 4250 1959 4250 
Q 1534 4250 1286 3958 
Q 1038 3666 1038 3163 
Q 1038 2656 1286 2365 
Q 1534 2075 1959 2075 
z
" transform="scale(0.015625)"/>
     </defs>
     <use xlink:href="#DejaVuSans-55"/>
     <use xlink:href="#DejaVuSans-43" x="73.193359"/>
     <use xlink:href="#DejaVuSans-52" x="143.017578"/>
     <use xlink:href="#DejaVuSans-5f" x="212.5"/>
     <use xlink:href="#DejaVuSans-31" x="262.5"/>
     <use xlink:href="#DejaVuSans-33" x="326.123047"/>
     <use xlink:href="#DejaVuSans-39" x="389.746094"/>
    </g>
   </g>
  </g>
  <g id="axes_2">
   <g id="patch_6">
    <path d="M 39.28 205.12 
L 556.56 205.12 
L 556.56 131.48 
L 39.28 131.48 
z
" style="fill: #ffffff"/>
   </g>
   <g id="patch_7">
    <path d="M 251.084277 205.12 
L 251.084277 131.48 
L 335.144518 131.48 
L 335.144518 205.12 
z
" clip-path="url(#p2fffb5e0cd)" style="fill: #ff7f50; stroke: #ff7f50; stroke-linejoin: miter"/>
   </g>
   <g id="matplotlib.axis_3"/>
   <g id="matplotlib.axis_4">
    <g id="text_3">
     <!-- Small $τ$ -->
     <g transform="translate(32.368437 194.2)rotate(-90)scale(0.14 -0.14)">
      <defs>
       <path id="DejaVuSans-53" d="M 3425 4513 
L 3425 3897 
Q 3066 4069 2747 4153 
Q 2428 4238 2131 4238 
Q 1616 4238 1336 4038 
Q 1056 3838 1056 3469 
Q 1056 3159 1242 3001 
Q 1428 2844 1947 2747 
L 2328 2669 
Q 3034 2534 3370 2195 
Q 3706 1856 3706 1288 
Q 3706 609 3251 259 
Q 2797 -91 1919 -91 
Q 1588 -91 1214 -16 
Q 841 59 441 206 
L 441 856 
Q 825 641 1194 531 
Q 1563 422 1919 422 
Q 2459 422 2753 634 
Q 3047 847 3047 1241 
Q 3047 1584 2836 1778 
Q 2625 1972 2144 2069 
L 1759 2144 
Q 1053 2284 737 2584 
Q 422 2884 422 3419 
Q 422 4038 858 4394 
Q 1294 4750 2059 4750 
Q 2388 4750 2728 4690 
Q 3069 4631 3425 4513 
z
" transform="scale(0.015625)"/>
       <path id="DejaVuSans-6d" d="M 3328 2828 
Q 3544 3216 3844 3400 
Q 4144 3584 4550 3584 
Q 5097 3584 5394 3201 
Q 5691 2819 5691 2113 
L 5691 0 
L 5113 0 
L 5113 2094 
Q 5113 2597 4934 2840 
Q 4756 3084 4391 3084 
Q 3944 3084 3684 2787 
Q 3425 2491 3425 1978 
L 3425 0 
L 2847 0 
L 2847 2094 
Q 2847 2600 2669 2842 
Q 2491 3084 2119 3084 
Q 1678 3084 1418 2786 
Q 1159 2488 1159 1978 
L 1159 0 
L 581 0 
L 581 3500 
L 1159 3500 
L 1159 2956 
Q 1356 3278 1631 3431 
Q 1906 3584 2284 3584 
Q 2666 3584 2933 3390 
Q 3200 3197 3328 2828 
z
" transform="scale(0.015625)"/>
       <path id="DejaVuSans-61" d="M 2194 1759 
Q 1497 1759 1228 1600 
Q 959 1441 959 1056 
Q 959 750 1161 570 
Q 1363 391 1709 391 
Q 2188 391 2477 730 
Q 2766 1069 2766 1631 
L 2766 1759 
L 2194 1759 
z
M 3341 1997 
L 3341 0 
L 2766 0 
L 2766 531 
Q 2569 213 2275 61 
Q 1981 -91 1556 -91 
Q 1019 -91 701 211 
Q 384 513 384 1019 
Q 384 1609 779 1909 
Q 1175 2209 1959 2209 
L 2766 2209 
L 2766 2266 
Q 2766 2663 2505 2880 
Q 2244 3097 1772 3097 
Q 1472 3097 1187 3025 
Q 903 2953 641 2809 
L 641 3341 
Q 956 3463 1253 3523 
Q 1550 3584 1831 3584 
Q 2591 3584 2966 3190 
Q 3341 2797 3341 1997 
z
" transform="scale(0.015625)"/>
       <path id="DejaVuSans-6c" d="M 603 4863 
L 1178 4863 
L 1178 0 
L 603 0 
L 603 4863 
z
" transform="scale(0.015625)"/>
       <path id="DejaVuSans-20" transform="scale(0.015625)"/>
       <path id="DejaVuSans-Oblique-3c4" d="M 2103 638 
Q 2188 488 2525 488 
L 2800 488 
L 2706 0 
L 2363 0 
Q 1800 0 1600 300 
Q 1403 606 1534 1269 
L 1856 2925 
L 541 2925 
L 653 3500 
L 3881 3500 
L 3769 2925 
L 2444 2925 
L 2113 1234 
Q 2025 781 2103 638 
z
" transform="scale(0.015625)"/>
      </defs>
      <use xlink:href="#DejaVuSans-53" transform="translate(0 0.015625)"/>
      <use xlink:href="#DejaVuSans-6d" transform="translate(63.476562 0.015625)"/>
      <use xlink:href="#DejaVuSans-61" transform="translate(160.888672 0.015625)"/>
      <use xlink:href="#DejaVuSans-6c" transform="translate(222.167969 0.015625)"/>
      <use xlink:href="#DejaVuSans-6c" transform="translate(249.951172 0.015625)"/>
      <use xlink:href="#DejaVuSans-20" transform="translate(277.734375 0.015625)"/>
      <use xlink:href="#DejaVuSans-Oblique-3c4" transform="translate(309.521484 0.015625)"/>
     </g>
    </g>
   </g>
   <g id="line2d_2">
    <path d="M 38.832171 201.652023 
L 44.085936 201.685241 
L 51.441207 201.647088 
L 55.644219 201.567813 
L 56.694972 201.535299 
L 60.372607 201.373239 
L 68.253255 201.243255 
L 68.778631 201.013993 
L 69.304008 201.060732 
L 69.829384 201.22703 
L 70.354761 201.064771 
L 71.405514 201.137924 
L 72.456267 201.264633 
L 75.083149 201.379995 
L 76.133902 201.394464 
L 81.387667 201.607534 
L 92.420574 201.360764 
L 93.996703 201.379029 
L 94.52208 201.146514 
L 96.098209 201.112896 
L 97.148962 200.980813 
L 98.199715 201.070796 
L 100.301221 201.204801 
L 105.02961 201.459361 
L 106.080363 201.477082 
L 109.757998 201.575105 
L 112.910257 201.638694 
L 116.062516 201.648148 
L 136.5522 201.632184 
L 146.534353 201.668458 
L 154.940378 201.37172 
L 156.516507 201.306073 
L 157.041884 201.375378 
L 157.56726 201.312041 
L 158.618013 201.375086 
L 159.668766 201.304436 
L 161.770272 201.316264 
L 162.821025 201.3557 
L 163.871778 201.264703 
L 167.549414 201.365728 
L 168.600167 201.332429 
L 170.176296 201.423467 
L 171.227049 201.318265 
L 172.277802 201.273658 
L 173.328555 201.393559 
L 174.379308 201.431386 
L 175.430061 201.454932 
L 176.480814 201.415693 
L 178.056944 201.417531 
L 179.107697 201.385589 
L 181.209203 201.407003 
L 187.513721 201.416189 
L 191.191356 201.510178 
L 203.800392 201.517293 
L 205.376522 201.470636 
L 221.663193 201.647506 
L 232.170723 201.606778 
L 239.525994 201.642174 
L 242.678253 201.654951 
L 245.830512 201.627545 
L 247.932018 201.45613 
L 250.558901 201.328326 
L 251.084277 201.082819 
L 252.13503 201.1008 
L 253.185783 200.967569 
L 254.236536 200.853134 
L 257.388795 199.973649 
L 258.439548 200.110625 
L 258.964925 200.231466 
L 259.490301 200.112726 
L 260.541054 200.260565 
L 261.066431 200.324262 
L 261.591807 200.025203 
L 262.117184 200.128503 
L 262.64256 200.040758 
L 263.167937 200.17485 
L 263.693313 199.945201 
L 264.21869 200.077753 
L 264.744066 199.860512 
L 265.269443 200.084532 
L 265.794819 199.912605 
L 266.845572 200.005548 
L 268.947078 199.997457 
L 269.472455 199.805574 
L 269.997831 199.984058 
L 270.523208 199.845996 
L 271.048584 200.000678 
L 271.573961 199.911856 
L 272.099337 200.19879 
L 272.624714 200.14734 
L 273.15009 200.349096 
L 274.200843 200.522846 
L 274.72622 200.348019 
L 275.251596 200.504501 
L 276.302349 200.343217 
L 276.827726 200.316808 
L 277.353102 200.459219 
L 277.878479 200.325787 
L 278.929232 200.506114 
L 279.454608 200.598444 
L 279.979985 200.565199 
L 280.505362 200.729378 
L 282.081491 200.811563 
L 283.132244 200.834805 
L 285.23375 200.642287 
L 286.80988 200.284285 
L 288.386009 199.683497 
L 289.436762 199.114078 
L 290.487515 198.502829 
L 294.165151 197.040919 
L 298.368163 195.982652 
L 299.418916 195.817429 
L 300.469669 195.436204 
L 300.995045 195.160963 
L 302.045798 194.033721 
L 302.571175 193.141103 
L 303.096551 193.536866 
L 304.147304 195.73863 
L 304.672681 195.242926 
L 305.198057 192.792369 
L 305.723434 188.333182 
L 309.926446 139.751794 
L 310.451822 135.605685 
L 310.977199 134.827273 
L 311.502575 135.323679 
L 312.553328 140.538147 
L 313.604081 153.841513 
L 314.129458 165.313285 
L 315.180211 181.118934 
L 315.705587 185.400347 
L 316.230964 188.155532 
L 317.281717 190.680392 
L 318.857846 196.806253 
L 319.383223 198.046249 
L 319.908599 198.405079 
L 320.959352 198.840609 
L 322.535482 199.649876 
L 323.060858 200.046323 
L 327.789247 201.106768 
L 332.517635 201.40355 
L 335.144518 201.495734 
L 336.720647 201.587425 
L 339.872906 201.587009 
L 350.905813 201.484331 
L 351.956566 201.447066 
L 355.634201 201.317792 
L 359.837213 201.17585 
L 361.938719 201.371079 
L 362.989472 201.397927 
L 367.717861 201.592498 
L 376.123885 201.475744 
L 377.174638 201.448364 
L 381.37765 201.547399 
L 382.428403 201.58361 
L 384.004532 201.403911 
L 385.055285 201.34326 
L 386.106038 201.394775 
L 387.156791 201.429143 
L 388.732921 201.463785 
L 390.834427 201.48668 
L 391.88518 201.493758 
L 402.918086 201.588869 
L 406.070345 201.589642 
L 410.273358 201.621984 
L 426.034653 201.668794 
L 428.136159 201.659033 
L 433.9153 201.666436 
L 444.948207 201.223954 
L 446.524336 200.893811 
L 447.049713 200.676014 
L 447.575089 200.649789 
L 448.100466 200.443853 
L 451.778101 200.914763 
L 452.303478 200.80299 
L 454.404984 200.881218 
L 454.93036 200.857978 
L 455.455737 201.088024 
L 456.50649 201.000448 
L 457.557243 201.191076 
L 459.658749 201.228942 
L 461.234878 201.324917 
L 462.285631 201.285019 
L 463.336384 201.305618 
L 464.387137 201.235174 
L 464.912514 201.328093 
L 465.963267 201.304668 
L 466.488643 201.339504 
L 467.539396 201.030009 
L 468.064773 201.187153 
L 468.590149 201.127833 
L 470.166279 201.241844 
L 472.267785 201.338428 
L 472.793161 201.265161 
L 473.318538 201.365959 
L 474.369291 201.302598 
L 475.94542 201.380317 
L 479.623056 201.39849 
L 484.351444 201.452341 
L 485.402197 201.397371 
L 488.554456 201.472859 
L 489.079833 201.406166 
L 490.130586 201.455423 
L 493.282845 201.455053 
L 494.333598 201.492381 
L 496.435104 201.490065 
L 500.638116 201.491089 
L 503.790375 201.510816 
L 505.891881 201.549479 
L 519.55167 201.669679 
L 538.990601 201.544651 
L 542.14286 201.399428 
L 542.668236 201.228861 
L 544.244366 200.987979 
L 544.769742 200.85814 
L 545.295119 201.025913 
L 546.345872 200.640034 
L 549.498131 200.766952 
L 550.023507 200.701275 
L 550.548884 200.86487 
L 551.07426 200.787044 
L 551.599637 200.963725 
L 552.65039 200.973302 
L 553.701143 200.893231 
L 554.751896 200.926175 
L 555.802649 200.960953 
L 556.853402 200.983437 
L 556.853402 200.983437 
" clip-path="url(#p2fffb5e0cd)" style="fill: none; stroke: #1f77b4; stroke-width: 1.5; stroke-linecap: square"/>
   </g>
   <g id="patch_8">
    <path d="M 39.28 205.12 
L 39.28 131.48 
" style="fill: none; stroke: #000000; stroke-width: 2.5; stroke-linejoin: miter; stroke-linecap: square"/>
   </g>
   <g id="patch_9">
    <path d="M 39.28 205.12 
L 556.56 205.12 
" style="fill: none; stroke: #000000; stroke-width: 2.5; stroke-linejoin: miter; stroke-linecap: square"/>
   </g>
  </g>
  <g id="axes_3">
   <g id="patch_10">
    <path d="M 39.28 298.2 
L 556.56 298.2 
L 556.56 224.56 
L 39.28 224.56 
z
" style="fill: #ffffff"/>
   </g>
   <g id="patch_11">
    <path d="M 251.084277 298.2 
L 251.084277 224.56 
L 335.144518 224.56 
L 335.144518 298.2 
z
" clip-path="url(#p800fb503da)" style="fill: #ff7f50; stroke: #ff7f50; stroke-linejoin: miter"/>
   </g>
   <g id="matplotlib.axis_5"/>
   <g id="matplotlib.axis_6">
    <g id="text_4">
     <!-- Large $τ$ -->
     <g transform="translate(32.34 287.7)rotate(-90)scale(0.14 -0.14)">
      <defs>
       <path id="DejaVuSans-4c" d="M 628 4666 
L 1259 4666 
L 1259 531 
L 3531 531 
L 3531 0 
L 628 0 
L 628 4666 
z
" transform="scale(0.015625)"/>
       <path id="DejaVuSans-72" d="M 2631 2963 
Q 2534 3019 2420 3045 
Q 2306 3072 2169 3072 
Q 1681 3072 1420 2755 
Q 1159 2438 1159 1844 
L 1159 0 
L 581 0 
L 581 3500 
L 1159 3500 
L 1159 2956 
Q 1341 3275 1631 3429 
Q 1922 3584 2338 3584 
Q 2397 3584 2469 3576 
Q 2541 3569 2628 3553 
L 2631 2963 
z
" transform="scale(0.015625)"/>
       <path id="DejaVuSans-67" d="M 2906 1791 
Q 2906 2416 2648 2759 
Q 2391 3103 1925 3103 
Q 1463 3103 1205 2759 
Q 947 2416 947 1791 
Q 947 1169 1205 825 
Q 1463 481 1925 481 
Q 2391 481 2648 825 
Q 2906 1169 2906 1791 
z
M 3481 434 
Q 3481 -459 3084 -895 
Q 2688 -1331 1869 -1331 
Q 1566 -1331 1297 -1286 
Q 1028 -1241 775 -1147 
L 775 -588 
Q 1028 -725 1275 -790 
Q 1522 -856 1778 -856 
Q 2344 -856 2625 -561 
Q 2906 -266 2906 331 
L 2906 616 
Q 2728 306 2450 153 
Q 2172 0 1784 0 
Q 1141 0 747 490 
Q 353 981 353 1791 
Q 353 2603 747 3093 
Q 1141 3584 1784 3584 
Q 2172 3584 2450 3431 
Q 2728 3278 2906 2969 
L 2906 3500 
L 3481 3500 
L 3481 434 
z
" transform="scale(0.015625)"/>
       <path id="DejaVuSans-65" d="M 3597 1894 
L 3597 1613 
L 953 1613 
Q 991 1019 1311 708 
Q 1631 397 2203 397 
Q 2534 397 2845 478 
Q 3156 559 3463 722 
L 3463 178 
Q 3153 47 2828 -22 
Q 2503 -91 2169 -91 
Q 1331 -91 842 396 
Q 353 884 353 1716 
Q 353 2575 817 3079 
Q 1281 3584 2069 3584 
Q 2775 3584 3186 3129 
Q 3597 2675 3597 1894 
z
M 3022 2063 
Q 3016 2534 2758 2815 
Q 2500 3097 2075 3097 
Q 1594 3097 1305 2825 
Q 1016 2553 972 2059 
L 3022 2063 
z
" transform="scale(0.015625)"/>
      </defs>
      <use xlink:href="#DejaVuSans-4c" transform="translate(0 0.09375)"/>
      <use xlink:href="#DejaVuSans-61" transform="translate(55.712891 0.09375)"/>
      <use xlink:href="#DejaVuSans-72" transform="translate(116.992188 0.09375)"/>
      <use xlink:href="#DejaVuSans-67" transform="translate(158.105469 0.09375)"/>
      <use xlink:href="#DejaVuSans-65" transform="translate(221.582031 0.09375)"/>
      <use xlink:href="#DejaVuSans-20" transform="translate(283.105469 0.09375)"/>
      <use xlink:href="#DejaVuSans-Oblique-3c4" transform="translate(314.892578 0.09375)"/>
     </g>
    </g>
   </g>
   <g id="line2d_3">
    <path d="M 38.832171 294.836828 
L 254.761913 294.646395 
L 256.338042 294.223928 
L 257.914172 293.579992 
L 260.541054 292.423572 
L 265.794819 290.351383 
L 268.947078 288.620451 
L 269.997831 287.976355 
L 270.523208 287.639189 
L 272.099337 287.130003 
L 272.624714 287.008289 
L 275.251596 287.186244 
L 276.302349 287.479976 
L 277.878479 288.183955 
L 282.081491 290.365553 
L 283.132244 290.771094 
L 284.182997 290.951646 
L 285.23375 290.864643 
L 286.284503 290.453383 
L 287.335256 289.623839 
L 288.386009 288.314484 
L 289.436762 286.460062 
L 290.487515 284.03101 
L 292.063645 279.636927 
L 293.639774 274.412341 
L 295.74128 266.517221 
L 300.995045 245.145625 
L 302.045798 240.17247 
L 303.096551 234.942979 
L 303.621928 233.701609 
L 304.147304 234.382432 
L 304.672681 236.723211 
L 306.24881 245.949705 
L 307.299563 249.841243 
L 307.82494 251.007819 
L 308.350316 251.229157 
L 308.875693 250.273396 
L 309.401069 247.821628 
L 310.451822 238.82526 
L 311.502575 230.720747 
L 312.027952 228.626341 
L 312.553328 227.907273 
L 313.078705 228.389961 
L 313.604081 230.116244 
L 314.129458 232.890612 
L 316.230964 245.986719 
L 316.75634 248.014397 
L 317.281717 249.367272 
L 317.807093 250.200271 
L 318.33247 250.755993 
L 318.857846 251.019654 
L 319.908599 251.400668 
L 320.433976 252.013262 
L 320.959352 253.20879 
L 321.484729 254.972948 
L 322.535482 259.636534 
L 323.586235 264.450229 
L 324.111611 266.306212 
L 324.636988 267.735007 
L 325.162364 268.741088 
L 327.26387 271.968474 
L 328.314623 274.493175 
L 330.416129 280.180484 
L 331.992259 283.811216 
L 333.043012 285.850199 
L 334.093765 287.569288 
L 335.669894 289.635928 
L 336.720647 290.746362 
L 337.7714 291.546027 
L 338.822153 291.990975 
L 339.872906 292.110258 
L 341.449036 291.922803 
L 344.601295 291.189245 
L 347.228177 290.369259 
L 348.804307 289.9643 
L 349.85506 289.913857 
L 351.431189 290.135436 
L 353.007319 290.849023 
L 355.108825 292.086371 
L 356.684954 292.933731 
L 358.78646 293.666766 
L 360.36259 293.955923 
L 363.514849 294.389286 
L 367.192484 294.686877 
L 371.395496 294.791786 
L 382.953779 294.809715 
L 396.088192 294.806016 
L 410.273358 294.830218 
L 442.321324 294.835372 
L 490.655962 294.793047 
L 512.721775 294.834496 
L 543.718989 294.770989 
L 550.548884 294.721501 
L 556.853402 294.649023 
L 556.853402 294.649023 
" clip-path="url(#p800fb503da)" style="fill: none; stroke: #1f77b4; stroke-width: 1.5; stroke-linecap: square"/>
   </g>
   <g id="patch_12">
    <path d="M 39.28 298.2 
L 39.28 224.56 
" style="fill: none; stroke: #000000; stroke-width: 2.5; stroke-linejoin: miter; stroke-linecap: square"/>
   </g>
   <g id="patch_13">
    <path d="M 39.28 298.2 
L 556.56 298.2 
" style="fill: none; stroke: #000000; stroke-width: 2.5; stroke-linejoin: miter; stroke-linecap: square"/>
   </g>
  </g>
  <g id="axes_4">
   <g id="patch_14">
    <path d="M 39.28 391.28 
L 556.56 391.28 
L 556.56 317.64 
L 39.28 317.64 
z
" style="fill: #ffffff"/>
   </g>
   <g id="patch_15">
    <path d="M 251.084277 391.28 
L 251.084277 317.64 
L 335.144518 317.64 
L 335.144518 391.28 
z
" clip-path="url(#p446e320acf)" style="fill: #ff7f50; stroke: #ff7f50; stroke-linejoin: miter"/>
   </g>
   <g id="matplotlib.axis_7">
    <g id="text_5">
     <!-- Time -->
     <g transform="translate(275.899531 408.957187)scale(0.18 -0.18)">
      <defs>
       <path id="DejaVuSans-54" d="M -19 4666 
L 3928 4666 
L 3928 4134 
L 2272 4134 
L 2272 0 
L 1638 0 
L 1638 4134 
L -19 4134 
L -19 4666 
z
" transform="scale(0.015625)"/>
       <path id="DejaVuSans-69" d="M 603 3500 
L 1178 3500 
L 1178 0 
L 603 0 
L 603 3500 
z
M 603 4863 
L 1178 4863 
L 1178 4134 
L 603 4134 
L 603 4863 
z
" transform="scale(0.015625)"/>
      </defs>
      <use xlink:href="#DejaVuSans-54"/>
      <use xlink:href="#DejaVuSans-69" x="57.958984"/>
      <use xlink:href="#DejaVuSans-6d" x="85.742188"/>
      <use xlink:href="#DejaVuSans-65" x="183.154297"/>
     </g>
    </g>
   </g>
   <g id="matplotlib.axis_8">
    <g id="text_6">
     <!-- Mixed $τ$ -->
     <g transform="translate(32.368437 381.83)rotate(-90)scale(0.14 -0.14)">
      <defs>
       <path id="DejaVuSans-4d" d="M 628 4666 
L 1569 4666 
L 2759 1491 
L 3956 4666 
L 4897 4666 
L 4897 0 
L 4281 0 
L 4281 4097 
L 3078 897 
L 2444 897 
L 1241 4097 
L 1241 0 
L 628 0 
L 628 4666 
z
" transform="scale(0.015625)"/>
       <path id="DejaVuSans-78" d="M 3513 3500 
L 2247 1797 
L 3578 0 
L 2900 0 
L 1881 1375 
L 863 0 
L 184 0 
L 1544 1831 
L 300 3500 
L 978 3500 
L 1906 2253 
L 2834 3500 
L 3513 3500 
z
" transform="scale(0.015625)"/>
       <path id="DejaVuSans-64" d="M 2906 2969 
L 2906 4863 
L 3481 4863 
L 3481 0 
L 2906 0 
L 2906 525 
Q 2725 213 2448 61 
Q 2172 -91 1784 -91 
Q 1150 -91 751 415 
Q 353 922 353 1747 
Q 353 2572 751 3078 
Q 1150 3584 1784 3584 
Q 2172 3584 2448 3432 
Q 2725 3281 2906 2969 
z
M 947 1747 
Q 947 1113 1208 752 
Q 1469 391 1925 391 
Q 2381 391 2643 752 
Q 2906 1113 2906 1747 
Q 2906 2381 2643 2742 
Q 2381 3103 1925 3103 
Q 1469 3103 1208 2742 
Q 947 2381 947 1747 
z
" transform="scale(0.015625)"/>
      </defs>
      <use xlink:href="#DejaVuSans-4d" transform="translate(0 0.015625)"/>
      <use xlink:href="#DejaVuSans-69" transform="translate(86.279297 0.015625)"/>
      <use xlink:href="#DejaVuSans-78" transform="translate(114.0625 0.015625)"/>
      <use xlink:href="#DejaVuSans-65" transform="translate(173.242188 0.015625)"/>
      <use xlink:href="#DejaVuSans-64" transform="translate(234.765625 0.015625)"/>
      <use xlink:href="#DejaVuSans-20" transform="translate(298.242188 0.015625)"/>
      <use xlink:href="#DejaVuSans-Oblique-3c4" transform="translate(330.029297 0.015625)"/>
     </g>
    </g>
   </g>
   <g id="line2d_4">
    <path d="M 38.832171 387.915593 
L 93.996703 387.827456 
L 95.572833 387.810143 
L 100.301221 387.864954 
L 128.671552 387.91043 
L 141.280588 387.926794 
L 250.558901 387.894246 
L 254.761913 387.729022 
L 256.338042 387.2982 
L 257.388795 386.855581 
L 258.964925 386.099753 
L 260.015678 385.597235 
L 261.591807 384.930305 
L 263.167937 384.496196 
L 266.320196 383.212418 
L 269.997831 381.043388 
L 271.048584 380.465852 
L 271.573961 380.19438 
L 273.15009 379.876891 
L 273.675467 379.820911 
L 275.776973 380.240627 
L 278.929232 381.636882 
L 282.606868 383.592565 
L 283.657621 383.945146 
L 284.708374 384.052917 
L 285.759127 383.916116 
L 286.80988 383.46675 
L 287.860633 382.643151 
L 288.911386 381.41002 
L 289.962139 379.66581 
L 291.012892 377.523757 
L 292.589021 373.592636 
L 293.639774 370.390799 
L 294.690527 366.741855 
L 295.74128 362.5585 
L 297.31741 355.294734 
L 300.469669 338.788935 
L 302.045798 329.195017 
L 302.571175 325.45637 
L 303.096551 322.578814 
L 303.621928 320.987273 
L 304.147304 321.549418 
L 304.672681 323.911956 
L 306.774187 337.517193 
L 307.82494 344.819457 
L 308.350316 347.114368 
L 308.875693 347.831817 
L 309.401069 346.836705 
L 309.926446 343.887019 
L 310.977199 336.284228 
L 311.502575 333.829074 
L 312.027952 333.518229 
L 312.553328 335.093738 
L 313.604081 341.153826 
L 314.654834 347.988309 
L 315.180211 350.638838 
L 315.705587 352.491119 
L 316.230964 353.554856 
L 316.75634 354.125716 
L 317.807093 354.612513 
L 318.857846 355.674538 
L 319.383223 356.474069 
L 320.433976 358.677069 
L 322.010105 362.277143 
L 323.060858 363.805039 
L 323.586235 364.226408 
L 324.636988 364.477247 
L 325.687741 364.641167 
L 326.213117 364.896701 
L 326.738494 365.349279 
L 327.26387 366.063358 
L 328.314623 368.048567 
L 329.890753 371.886568 
L 331.992259 377.449676 
L 333.043012 379.499607 
L 334.093765 380.997365 
L 335.144518 382.208059 
L 336.195271 383.18442 
L 337.246024 383.866309 
L 338.296777 384.288045 
L 339.872906 384.615281 
L 341.449036 384.67924 
L 343.550542 384.455115 
L 344.601295 384.236797 
L 347.228177 383.674692 
L 349.329683 383.410333 
L 352.481942 383.470062 
L 353.532695 383.619636 
L 356.159578 384.681636 
L 359.837213 386.374615 
L 362.989472 387.202608 
L 366.141731 387.60287 
L 369.29399 387.809403 
L 375.073132 387.881209 
L 390.30905 387.894954 
L 404.494216 387.892948 
L 414.47637 387.921979 
L 462.285631 387.890372 
L 481.724562 387.849157 
L 485.402197 387.86432 
L 500.638116 387.896578 
L 505.891881 387.901064 
L 524.280058 387.918381 
L 548.447378 387.821706 
L 555.277272 387.759028 
L 556.853402 387.736739 
L 556.853402 387.736739 
" clip-path="url(#p446e320acf)" style="fill: none; stroke: #1f77b4; stroke-width: 1.5; stroke-linecap: square"/>
   </g>
   <g id="patch_16">
    <path d="M 39.28 391.28 
L 39.28 317.64 
" style="fill: none; stroke: #000000; stroke-width: 2.5; stroke-linejoin: miter; stroke-linecap: square"/>
   </g>
   <g id="patch_17">
    <path d="M 39.28 391.28 
L 556.56 391.28 
" style="fill: none; stroke: #000000; stroke-width: 2.5; stroke-linejoin: miter; stroke-linecap: square"/>
   </g>
  </g>
 </g>
 <defs>
  <clipPath id="p67906be148">
   <rect x="39.28" y="38.4" width="517.28" height="73.64"/>
  </clipPath>
  <clipPath id="p2fffb5e0cd">
   <rect x="39.28" y="131.48" width="517.28" height="73.64"/>
  </clipPath>
  <clipPath id="p800fb503da">
   <rect x="39.28" y="224.56" width="517.28" height="73.64"/>
  </clipPath>
  <clipPath id="p446e320acf">
   <rect x="39.28" y="317.64" width="517.28" height="73.64"/>
  </clipPath>
 </defs>
</svg>
