<?xml version="1.0" encoding="utf-8" standalone="no"?>
<!DOCTYPE svg PUBLIC "-//W3C//DTD SVG 1.1//EN"
  "http://www.w3.org/Graphics/SVG/1.1/DTD/svg11.dtd">
<svg xmlns:xlink="http://www.w3.org/1999/xlink" width="720pt" height="288pt" viewBox="0 0 720 288" xmlns="http://www.w3.org/2000/svg" version="1.1">
 <metadata>
  <rdf:RDF xmlns:dc="http://purl.org/dc/elements/1.1/" xmlns:cc="http://creativecommons.org/ns#" xmlns:rdf="http://www.w3.org/1999/02/22-rdf-syntax-ns#">
   <cc:Work>
    <dc:type rdf:resource="http://purl.org/dc/dcmitype/StillImage"/>
    <dc:date>2024-04-15T20:31:24.481149</dc:date>
    <dc:format>image/svg+xml</dc:format>
    <dc:creator>
     <cc:Agent>
      <dc:title>Matplotlib v3.5.1, https://matplotlib.org/</dc:title>
     </cc:Agent>
    </dc:creator>
   </cc:Work>
  </rdf:RDF>
 </metadata>
 <defs>
  <style type="text/css">*{stroke-linejoin: round; stroke-linecap: butt}</style>
 </defs>
 <g id="figure_1">
  <g id="patch_1">
   <path d="M 0 288 
L 720 288 
L 720 0 
L 0 0 
L 0 288 
z
" style="fill: none"/>
  </g>
  <g id="axes_1">
   <g id="patch_2">
    <path d="M 72 244.8 
L 306.782609 244.8 
L 306.782609 34.56 
L 72 34.56 
L 72 244.8 
z
" style="fill: none"/>
   </g>
   <g id="matplotlib.axis_1">
    <g id="xtick_1">
     <g id="line2d_1">
      <defs>
       <path id="mdd3e598210" d="M 0 0 
L 0 3.5 
" style="stroke: #000000; stroke-width: 0.8"/>
      </defs>
      <g>
       <use xlink:href="#mdd3e598210" x="82.671937" y="244.8" style="stroke: #000000; stroke-width: 0.8"/>
      </g>
     </g>
     <g id="text_1">
      <!-- 0.000 -->
      <g transform="translate(68.357874 259.398438)scale(0.1 -0.1)">
       <defs>
        <path id="DejaVuSans-30" d="M 2034 4250 
Q 1547 4250 1301 3770 
Q 1056 3291 1056 2328 
Q 1056 1369 1301 889 
Q 1547 409 2034 409 
Q 2525 409 2770 889 
Q 3016 1369 3016 2328 
Q 3016 3291 2770 3770 
Q 2525 4250 2034 4250 
z
M 2034 4750 
Q 2819 4750 3233 4129 
Q 3647 3509 3647 2328 
Q 3647 1150 3233 529 
Q 2819 -91 2034 -91 
Q 1250 -91 836 529 
Q 422 1150 422 2328 
Q 422 3509 836 4129 
Q 1250 4750 2034 4750 
z
" transform="scale(0.015625)"/>
        <path id="DejaVuSans-2e" d="M 684 794 
L 1344 794 
L 1344 0 
L 684 0 
L 684 794 
z
" transform="scale(0.015625)"/>
       </defs>
       <use xlink:href="#DejaVuSans-30"/>
       <use xlink:href="#DejaVuSans-2e" x="63.623047"/>
       <use xlink:href="#DejaVuSans-30" x="95.410156"/>
       <use xlink:href="#DejaVuSans-30" x="159.033203"/>
       <use xlink:href="#DejaVuSans-30" x="222.65625"/>
      </g>
     </g>
    </g>
    <g id="xtick_2">
     <g id="line2d_2">
      <g>
       <use xlink:href="#mdd3e598210" x="136.031621" y="244.8" style="stroke: #000000; stroke-width: 0.8"/>
      </g>
     </g>
     <g id="text_2">
      <!-- 0.005 -->
      <g transform="translate(121.717558 259.398438)scale(0.1 -0.1)">
       <defs>
        <path id="DejaVuSans-35" d="M 691 4666 
L 3169 4666 
L 3169 4134 
L 1269 4134 
L 1269 2991 
Q 1406 3038 1543 3061 
Q 1681 3084 1819 3084 
Q 2600 3084 3056 2656 
Q 3513 2228 3513 1497 
Q 3513 744 3044 326 
Q 2575 -91 1722 -91 
Q 1428 -91 1123 -41 
Q 819 9 494 109 
L 494 744 
Q 775 591 1075 516 
Q 1375 441 1709 441 
Q 2250 441 2565 725 
Q 2881 1009 2881 1497 
Q 2881 1984 2565 2268 
Q 2250 2553 1709 2553 
Q 1456 2553 1204 2497 
Q 953 2441 691 2322 
L 691 4666 
z
" transform="scale(0.015625)"/>
       </defs>
       <use xlink:href="#DejaVuSans-30"/>
       <use xlink:href="#DejaVuSans-2e" x="63.623047"/>
       <use xlink:href="#DejaVuSans-30" x="95.410156"/>
       <use xlink:href="#DejaVuSans-30" x="159.033203"/>
       <use xlink:href="#DejaVuSans-35" x="222.65625"/>
      </g>
     </g>
    </g>
    <g id="xtick_3">
     <g id="line2d_3">
      <g>
       <use xlink:href="#mdd3e598210" x="189.391304" y="244.8" style="stroke: #000000; stroke-width: 0.8"/>
      </g>
     </g>
     <g id="text_3">
      <!-- 0.010 -->
      <g transform="translate(175.077242 259.398438)scale(0.1 -0.1)">
       <defs>
        <path id="DejaVuSans-31" d="M 794 531 
L 1825 531 
L 1825 4091 
L 703 3866 
L 703 4441 
L 1819 4666 
L 2450 4666 
L 2450 531 
L 3481 531 
L 3481 0 
L 794 0 
L 794 531 
z
" transform="scale(0.015625)"/>
       </defs>
       <use xlink:href="#DejaVuSans-30"/>
       <use xlink:href="#DejaVuSans-2e" x="63.623047"/>
       <use xlink:href="#DejaVuSans-30" x="95.410156"/>
       <use xlink:href="#DejaVuSans-31" x="159.033203"/>
       <use xlink:href="#DejaVuSans-30" x="222.65625"/>
      </g>
     </g>
    </g>
    <g id="xtick_4">
     <g id="line2d_4">
      <g>
       <use xlink:href="#mdd3e598210" x="242.750988" y="244.8" style="stroke: #000000; stroke-width: 0.8"/>
      </g>
     </g>
     <g id="text_4">
      <!-- 0.015 -->
      <g transform="translate(228.436926 259.398438)scale(0.1 -0.1)">
       <use xlink:href="#DejaVuSans-30"/>
       <use xlink:href="#DejaVuSans-2e" x="63.623047"/>
       <use xlink:href="#DejaVuSans-30" x="95.410156"/>
       <use xlink:href="#DejaVuSans-31" x="159.033203"/>
       <use xlink:href="#DejaVuSans-35" x="222.65625"/>
      </g>
     </g>
    </g>
    <g id="xtick_5">
     <g id="line2d_5">
      <g>
       <use xlink:href="#mdd3e598210" x="296.110672" y="244.8" style="stroke: #000000; stroke-width: 0.8"/>
      </g>
     </g>
     <g id="text_5">
      <!-- 0.020 -->
      <g transform="translate(281.796609 259.398438)scale(0.1 -0.1)">
       <defs>
        <path id="DejaVuSans-32" d="M 1228 531 
L 3431 531 
L 3431 0 
L 469 0 
L 469 531 
Q 828 903 1448 1529 
Q 2069 2156 2228 2338 
Q 2531 2678 2651 2914 
Q 2772 3150 2772 3378 
Q 2772 3750 2511 3984 
Q 2250 4219 1831 4219 
Q 1534 4219 1204 4116 
Q 875 4013 500 3803 
L 500 4441 
Q 881 4594 1212 4672 
Q 1544 4750 1819 4750 
Q 2544 4750 2975 4387 
Q 3406 4025 3406 3419 
Q 3406 3131 3298 2873 
Q 3191 2616 2906 2266 
Q 2828 2175 2409 1742 
Q 1991 1309 1228 531 
z
" transform="scale(0.015625)"/>
       </defs>
       <use xlink:href="#DejaVuSans-30"/>
       <use xlink:href="#DejaVuSans-2e" x="63.623047"/>
       <use xlink:href="#DejaVuSans-30" x="95.410156"/>
       <use xlink:href="#DejaVuSans-32" x="159.033203"/>
       <use xlink:href="#DejaVuSans-30" x="222.65625"/>
      </g>
     </g>
    </g>
    <g id="text_6">
     <!-- Input noise strength $\sigma$ -->
     <g transform="translate(111.831304 276.118125)scale(0.14 -0.14)">
      <defs>
       <path id="DejaVuSans-49" d="M 628 4666 
L 1259 4666 
L 1259 0 
L 628 0 
L 628 4666 
z
" transform="scale(0.015625)"/>
       <path id="DejaVuSans-6e" d="M 3513 2113 
L 3513 0 
L 2938 0 
L 2938 2094 
Q 2938 2591 2744 2837 
Q 2550 3084 2163 3084 
Q 1697 3084 1428 2787 
Q 1159 2491 1159 1978 
L 1159 0 
L 581 0 
L 581 3500 
L 1159 3500 
L 1159 2956 
Q 1366 3272 1645 3428 
Q 1925 3584 2291 3584 
Q 2894 3584 3203 3211 
Q 3513 2838 3513 2113 
z
" transform="scale(0.015625)"/>
       <path id="DejaVuSans-70" d="M 1159 525 
L 1159 -1331 
L 581 -1331 
L 581 3500 
L 1159 3500 
L 1159 2969 
Q 1341 3281 1617 3432 
Q 1894 3584 2278 3584 
Q 2916 3584 3314 3078 
Q 3713 2572 3713 1747 
Q 3713 922 3314 415 
Q 2916 -91 2278 -91 
Q 1894 -91 1617 61 
Q 1341 213 1159 525 
z
M 3116 1747 
Q 3116 2381 2855 2742 
Q 2594 3103 2138 3103 
Q 1681 3103 1420 2742 
Q 1159 2381 1159 1747 
Q 1159 1113 1420 752 
Q 1681 391 2138 391 
Q 2594 391 2855 752 
Q 3116 1113 3116 1747 
z
" transform="scale(0.015625)"/>
       <path id="DejaVuSans-75" d="M 544 1381 
L 544 3500 
L 1119 3500 
L 1119 1403 
Q 1119 906 1312 657 
Q 1506 409 1894 409 
Q 2359 409 2629 706 
Q 2900 1003 2900 1516 
L 2900 3500 
L 3475 3500 
L 3475 0 
L 2900 0 
L 2900 538 
Q 2691 219 2414 64 
Q 2138 -91 1772 -91 
Q 1169 -91 856 284 
Q 544 659 544 1381 
z
M 1991 3584 
L 1991 3584 
z
" transform="scale(0.015625)"/>
       <path id="DejaVuSans-74" d="M 1172 4494 
L 1172 3500 
L 2356 3500 
L 2356 3053 
L 1172 3053 
L 1172 1153 
Q 1172 725 1289 603 
Q 1406 481 1766 481 
L 2356 481 
L 2356 0 
L 1766 0 
Q 1100 0 847 248 
Q 594 497 594 1153 
L 594 3053 
L 172 3053 
L 172 3500 
L 594 3500 
L 594 4494 
L 1172 4494 
z
" transform="scale(0.015625)"/>
       <path id="DejaVuSans-20" transform="scale(0.015625)"/>
       <path id="DejaVuSans-6f" d="M 1959 3097 
Q 1497 3097 1228 2736 
Q 959 2375 959 1747 
Q 959 1119 1226 758 
Q 1494 397 1959 397 
Q 2419 397 2687 759 
Q 2956 1122 2956 1747 
Q 2956 2369 2687 2733 
Q 2419 3097 1959 3097 
z
M 1959 3584 
Q 2709 3584 3137 3096 
Q 3566 2609 3566 1747 
Q 3566 888 3137 398 
Q 2709 -91 1959 -91 
Q 1206 -91 779 398 
Q 353 888 353 1747 
Q 353 2609 779 3096 
Q 1206 3584 1959 3584 
z
" transform="scale(0.015625)"/>
       <path id="DejaVuSans-69" d="M 603 3500 
L 1178 3500 
L 1178 0 
L 603 0 
L 603 3500 
z
M 603 4863 
L 1178 4863 
L 1178 4134 
L 603 4134 
L 603 4863 
z
" transform="scale(0.015625)"/>
       <path id="DejaVuSans-73" d="M 2834 3397 
L 2834 2853 
Q 2591 2978 2328 3040 
Q 2066 3103 1784 3103 
Q 1356 3103 1142 2972 
Q 928 2841 928 2578 
Q 928 2378 1081 2264 
Q 1234 2150 1697 2047 
L 1894 2003 
Q 2506 1872 2764 1633 
Q 3022 1394 3022 966 
Q 3022 478 2636 193 
Q 2250 -91 1575 -91 
Q 1294 -91 989 -36 
Q 684 19 347 128 
L 347 722 
Q 666 556 975 473 
Q 1284 391 1588 391 
Q 1994 391 2212 530 
Q 2431 669 2431 922 
Q 2431 1156 2273 1281 
Q 2116 1406 1581 1522 
L 1381 1569 
Q 847 1681 609 1914 
Q 372 2147 372 2553 
Q 372 3047 722 3315 
Q 1072 3584 1716 3584 
Q 2034 3584 2315 3537 
Q 2597 3491 2834 3397 
z
" transform="scale(0.015625)"/>
       <path id="DejaVuSans-65" d="M 3597 1894 
L 3597 1613 
L 953 1613 
Q 991 1019 1311 708 
Q 1631 397 2203 397 
Q 2534 397 2845 478 
Q 3156 559 3463 722 
L 3463 178 
Q 3153 47 2828 -22 
Q 2503 -91 2169 -91 
Q 1331 -91 842 396 
Q 353 884 353 1716 
Q 353 2575 817 3079 
Q 1281 3584 2069 3584 
Q 2775 3584 3186 3129 
Q 3597 2675 3597 1894 
z
M 3022 2063 
Q 3016 2534 2758 2815 
Q 2500 3097 2075 3097 
Q 1594 3097 1305 2825 
Q 1016 2553 972 2059 
L 3022 2063 
z
" transform="scale(0.015625)"/>
       <path id="DejaVuSans-72" d="M 2631 2963 
Q 2534 3019 2420 3045 
Q 2306 3072 2169 3072 
Q 1681 3072 1420 2755 
Q 1159 2438 1159 1844 
L 1159 0 
L 581 0 
L 581 3500 
L 1159 3500 
L 1159 2956 
Q 1341 3275 1631 3429 
Q 1922 3584 2338 3584 
Q 2397 3584 2469 3576 
Q 2541 3569 2628 3553 
L 2631 2963 
z
" transform="scale(0.015625)"/>
       <path id="DejaVuSans-67" d="M 2906 1791 
Q 2906 2416 2648 2759 
Q 2391 3103 1925 3103 
Q 1463 3103 1205 2759 
Q 947 2416 947 1791 
Q 947 1169 1205 825 
Q 1463 481 1925 481 
Q 2391 481 2648 825 
Q 2906 1169 2906 1791 
z
M 3481 434 
Q 3481 -459 3084 -895 
Q 2688 -1331 1869 -1331 
Q 1566 -1331 1297 -1286 
Q 1028 -1241 775 -1147 
L 775 -588 
Q 1028 -725 1275 -790 
Q 1522 -856 1778 -856 
Q 2344 -856 2625 -561 
Q 2906 -266 2906 331 
L 2906 616 
Q 2728 306 2450 153 
Q 2172 0 1784 0 
Q 1141 0 747 490 
Q 353 981 353 1791 
Q 353 2603 747 3093 
Q 1141 3584 1784 3584 
Q 2172 3584 2450 3431 
Q 2728 3278 2906 2969 
L 2906 3500 
L 3481 3500 
L 3481 434 
z
" transform="scale(0.015625)"/>
       <path id="DejaVuSans-68" d="M 3513 2113 
L 3513 0 
L 2938 0 
L 2938 2094 
Q 2938 2591 2744 2837 
Q 2550 3084 2163 3084 
Q 1697 3084 1428 2787 
Q 1159 2491 1159 1978 
L 1159 0 
L 581 0 
L 581 4863 
L 1159 4863 
L 1159 2956 
Q 1366 3272 1645 3428 
Q 1925 3584 2291 3584 
Q 2894 3584 3203 3211 
Q 3513 2838 3513 2113 
z
" transform="scale(0.015625)"/>
       <path id="DejaVuSans-Oblique-3c3" d="M 2219 3044 
Q 1744 3044 1422 2700 
Q 1081 2341 969 1747 
Q 844 1119 1044 756 
Q 1241 397 1706 397 
Q 2166 397 2503 759 
Q 2844 1122 2966 1747 
Q 3075 2319 2881 2700 
Q 2700 3044 2219 3044 
z
M 2309 3503 
L 4219 3500 
L 4106 2925 
L 3463 2925 
Q 3706 2438 3575 1747 
Q 3406 888 2884 400 
Q 2359 -91 1609 -91 
Q 856 -91 525 400 
Q 194 888 363 1747 
Q 528 2609 1050 3097 
Q 1484 3503 2309 3503 
z
" transform="scale(0.015625)"/>
      </defs>
      <use xlink:href="#DejaVuSans-49" transform="translate(0 0.015625)"/>
      <use xlink:href="#DejaVuSans-6e" transform="translate(29.492188 0.015625)"/>
      <use xlink:href="#DejaVuSans-70" transform="translate(92.871094 0.015625)"/>
      <use xlink:href="#DejaVuSans-75" transform="translate(156.347656 0.015625)"/>
      <use xlink:href="#DejaVuSans-74" transform="translate(219.726562 0.015625)"/>
      <use xlink:href="#DejaVuSans-20" transform="translate(258.935547 0.015625)"/>
      <use xlink:href="#DejaVuSans-6e" transform="translate(290.722656 0.015625)"/>
      <use xlink:href="#DejaVuSans-6f" transform="translate(354.101562 0.015625)"/>
      <use xlink:href="#DejaVuSans-69" transform="translate(415.283203 0.015625)"/>
      <use xlink:href="#DejaVuSans-73" transform="translate(443.066406 0.015625)"/>
      <use xlink:href="#DejaVuSans-65" transform="translate(495.166016 0.015625)"/>
      <use xlink:href="#DejaVuSans-20" transform="translate(556.689453 0.015625)"/>
      <use xlink:href="#DejaVuSans-73" transform="translate(588.476562 0.015625)"/>
      <use xlink:href="#DejaVuSans-74" transform="translate(640.576172 0.015625)"/>
      <use xlink:href="#DejaVuSans-72" transform="translate(679.785156 0.015625)"/>
      <use xlink:href="#DejaVuSans-65" transform="translate(720.898438 0.015625)"/>
      <use xlink:href="#DejaVuSans-6e" transform="translate(782.421875 0.015625)"/>
      <use xlink:href="#DejaVuSans-67" transform="translate(845.800781 0.015625)"/>
      <use xlink:href="#DejaVuSans-74" transform="translate(909.277344 0.015625)"/>
      <use xlink:href="#DejaVuSans-68" transform="translate(948.486328 0.015625)"/>
      <use xlink:href="#DejaVuSans-20" transform="translate(1011.865234 0.015625)"/>
      <use xlink:href="#DejaVuSans-Oblique-3c3" transform="translate(1043.652344 0.015625)"/>
     </g>
    </g>
   </g>
   <g id="matplotlib.axis_2">
    <g id="ytick_1">
     <g id="line2d_6">
      <defs>
       <path id="m0b7c8e174e" d="M 0 0 
L -3.5 0 
" style="stroke: #000000; stroke-width: 0.8"/>
      </defs>
      <g>
       <use xlink:href="#m0b7c8e174e" x="72" y="234.018462" style="stroke: #000000; stroke-width: 0.8"/>
      </g>
     </g>
     <g id="text_7">
      <!-- 0.25 -->
      <g transform="translate(42.734375 237.81768)scale(0.1 -0.1)">
       <use xlink:href="#DejaVuSans-30"/>
       <use xlink:href="#DejaVuSans-2e" x="63.623047"/>
       <use xlink:href="#DejaVuSans-32" x="95.410156"/>
       <use xlink:href="#DejaVuSans-35" x="159.033203"/>
      </g>
     </g>
    </g>
    <g id="ytick_2">
     <g id="line2d_7">
      <g>
       <use xlink:href="#m0b7c8e174e" x="72" y="203.389091" style="stroke: #000000; stroke-width: 0.8"/>
      </g>
     </g>
     <g id="text_8">
      <!-- 0.30 -->
      <g transform="translate(42.734375 207.18831)scale(0.1 -0.1)">
       <defs>
        <path id="DejaVuSans-33" d="M 2597 2516 
Q 3050 2419 3304 2112 
Q 3559 1806 3559 1356 
Q 3559 666 3084 287 
Q 2609 -91 1734 -91 
Q 1441 -91 1130 -33 
Q 819 25 488 141 
L 488 750 
Q 750 597 1062 519 
Q 1375 441 1716 441 
Q 2309 441 2620 675 
Q 2931 909 2931 1356 
Q 2931 1769 2642 2001 
Q 2353 2234 1838 2234 
L 1294 2234 
L 1294 2753 
L 1863 2753 
Q 2328 2753 2575 2939 
Q 2822 3125 2822 3475 
Q 2822 3834 2567 4026 
Q 2313 4219 1838 4219 
Q 1578 4219 1281 4162 
Q 984 4106 628 3988 
L 628 4550 
Q 988 4650 1302 4700 
Q 1616 4750 1894 4750 
Q 2613 4750 3031 4423 
Q 3450 4097 3450 3541 
Q 3450 3153 3228 2886 
Q 3006 2619 2597 2516 
z
" transform="scale(0.015625)"/>
       </defs>
       <use xlink:href="#DejaVuSans-30"/>
       <use xlink:href="#DejaVuSans-2e" x="63.623047"/>
       <use xlink:href="#DejaVuSans-33" x="95.410156"/>
       <use xlink:href="#DejaVuSans-30" x="159.033203"/>
      </g>
     </g>
    </g>
    <g id="ytick_3">
     <g id="line2d_8">
      <g>
       <use xlink:href="#m0b7c8e174e" x="72" y="172.75972" style="stroke: #000000; stroke-width: 0.8"/>
      </g>
     </g>
     <g id="text_9">
      <!-- 0.35 -->
      <g transform="translate(42.734375 176.558939)scale(0.1 -0.1)">
       <use xlink:href="#DejaVuSans-30"/>
       <use xlink:href="#DejaVuSans-2e" x="63.623047"/>
       <use xlink:href="#DejaVuSans-33" x="95.410156"/>
       <use xlink:href="#DejaVuSans-35" x="159.033203"/>
      </g>
     </g>
    </g>
    <g id="ytick_4">
     <g id="line2d_9">
      <g>
       <use xlink:href="#m0b7c8e174e" x="72" y="142.13035" style="stroke: #000000; stroke-width: 0.8"/>
      </g>
     </g>
     <g id="text_10">
      <!-- 0.40 -->
      <g transform="translate(42.734375 145.929568)scale(0.1 -0.1)">
       <defs>
        <path id="DejaVuSans-34" d="M 2419 4116 
L 825 1625 
L 2419 1625 
L 2419 4116 
z
M 2253 4666 
L 3047 4666 
L 3047 1625 
L 3713 1625 
L 3713 1100 
L 3047 1100 
L 3047 0 
L 2419 0 
L 2419 1100 
L 313 1100 
L 313 1709 
L 2253 4666 
z
" transform="scale(0.015625)"/>
       </defs>
       <use xlink:href="#DejaVuSans-30"/>
       <use xlink:href="#DejaVuSans-2e" x="63.623047"/>
       <use xlink:href="#DejaVuSans-34" x="95.410156"/>
       <use xlink:href="#DejaVuSans-30" x="159.033203"/>
      </g>
     </g>
    </g>
    <g id="ytick_5">
     <g id="line2d_10">
      <g>
       <use xlink:href="#m0b7c8e174e" x="72" y="111.500979" style="stroke: #000000; stroke-width: 0.8"/>
      </g>
     </g>
     <g id="text_11">
      <!-- 0.45 -->
      <g transform="translate(42.734375 115.300198)scale(0.1 -0.1)">
       <use xlink:href="#DejaVuSans-30"/>
       <use xlink:href="#DejaVuSans-2e" x="63.623047"/>
       <use xlink:href="#DejaVuSans-34" x="95.410156"/>
       <use xlink:href="#DejaVuSans-35" x="159.033203"/>
      </g>
     </g>
    </g>
    <g id="ytick_6">
     <g id="line2d_11">
      <g>
       <use xlink:href="#m0b7c8e174e" x="72" y="80.871608" style="stroke: #000000; stroke-width: 0.8"/>
      </g>
     </g>
     <g id="text_12">
      <!-- 0.50 -->
      <g transform="translate(42.734375 84.670827)scale(0.1 -0.1)">
       <use xlink:href="#DejaVuSans-30"/>
       <use xlink:href="#DejaVuSans-2e" x="63.623047"/>
       <use xlink:href="#DejaVuSans-35" x="95.410156"/>
       <use xlink:href="#DejaVuSans-30" x="159.033203"/>
      </g>
     </g>
    </g>
    <g id="ytick_7">
     <g id="line2d_12">
      <g>
       <use xlink:href="#m0b7c8e174e" x="72" y="50.242238" style="stroke: #000000; stroke-width: 0.8"/>
      </g>
     </g>
     <g id="text_13">
      <!-- 0.55 -->
      <g transform="translate(42.734375 54.041457)scale(0.1 -0.1)">
       <use xlink:href="#DejaVuSans-30"/>
       <use xlink:href="#DejaVuSans-2e" x="63.623047"/>
       <use xlink:href="#DejaVuSans-35" x="95.410156"/>
       <use xlink:href="#DejaVuSans-35" x="159.033203"/>
      </g>
     </g>
    </g>
    <g id="text_14">
     <!-- Success Rate -->
     <g transform="translate(35.822812 186.130469)rotate(-90)scale(0.14 -0.14)">
      <defs>
       <path id="DejaVuSans-53" d="M 3425 4513 
L 3425 3897 
Q 3066 4069 2747 4153 
Q 2428 4238 2131 4238 
Q 1616 4238 1336 4038 
Q 1056 3838 1056 3469 
Q 1056 3159 1242 3001 
Q 1428 2844 1947 2747 
L 2328 2669 
Q 3034 2534 3370 2195 
Q 3706 1856 3706 1288 
Q 3706 609 3251 259 
Q 2797 -91 1919 -91 
Q 1588 -91 1214 -16 
Q 841 59 441 206 
L 441 856 
Q 825 641 1194 531 
Q 1563 422 1919 422 
Q 2459 422 2753 634 
Q 3047 847 3047 1241 
Q 3047 1584 2836 1778 
Q 2625 1972 2144 2069 
L 1759 2144 
Q 1053 2284 737 2584 
Q 422 2884 422 3419 
Q 422 4038 858 4394 
Q 1294 4750 2059 4750 
Q 2388 4750 2728 4690 
Q 3069 4631 3425 4513 
z
" transform="scale(0.015625)"/>
       <path id="DejaVuSans-63" d="M 3122 3366 
L 3122 2828 
Q 2878 2963 2633 3030 
Q 2388 3097 2138 3097 
Q 1578 3097 1268 2742 
Q 959 2388 959 1747 
Q 959 1106 1268 751 
Q 1578 397 2138 397 
Q 2388 397 2633 464 
Q 2878 531 3122 666 
L 3122 134 
Q 2881 22 2623 -34 
Q 2366 -91 2075 -91 
Q 1284 -91 818 406 
Q 353 903 353 1747 
Q 353 2603 823 3093 
Q 1294 3584 2113 3584 
Q 2378 3584 2631 3529 
Q 2884 3475 3122 3366 
z
" transform="scale(0.015625)"/>
       <path id="DejaVuSans-52" d="M 2841 2188 
Q 3044 2119 3236 1894 
Q 3428 1669 3622 1275 
L 4263 0 
L 3584 0 
L 2988 1197 
Q 2756 1666 2539 1819 
Q 2322 1972 1947 1972 
L 1259 1972 
L 1259 0 
L 628 0 
L 628 4666 
L 2053 4666 
Q 2853 4666 3247 4331 
Q 3641 3997 3641 3322 
Q 3641 2881 3436 2590 
Q 3231 2300 2841 2188 
z
M 1259 4147 
L 1259 2491 
L 2053 2491 
Q 2509 2491 2742 2702 
Q 2975 2913 2975 3322 
Q 2975 3731 2742 3939 
Q 2509 4147 2053 4147 
L 1259 4147 
z
" transform="scale(0.015625)"/>
       <path id="DejaVuSans-61" d="M 2194 1759 
Q 1497 1759 1228 1600 
Q 959 1441 959 1056 
Q 959 750 1161 570 
Q 1363 391 1709 391 
Q 2188 391 2477 730 
Q 2766 1069 2766 1631 
L 2766 1759 
L 2194 1759 
z
M 3341 1997 
L 3341 0 
L 2766 0 
L 2766 531 
Q 2569 213 2275 61 
Q 1981 -91 1556 -91 
Q 1019 -91 701 211 
Q 384 513 384 1019 
Q 384 1609 779 1909 
Q 1175 2209 1959 2209 
L 2766 2209 
L 2766 2266 
Q 2766 2663 2505 2880 
Q 2244 3097 1772 3097 
Q 1472 3097 1187 3025 
Q 903 2953 641 2809 
L 641 3341 
Q 956 3463 1253 3523 
Q 1550 3584 1831 3584 
Q 2591 3584 2966 3190 
Q 3341 2797 3341 1997 
z
" transform="scale(0.015625)"/>
      </defs>
      <use xlink:href="#DejaVuSans-53"/>
      <use xlink:href="#DejaVuSans-75" x="63.476562"/>
      <use xlink:href="#DejaVuSans-63" x="126.855469"/>
      <use xlink:href="#DejaVuSans-63" x="181.835938"/>
      <use xlink:href="#DejaVuSans-65" x="236.816406"/>
      <use xlink:href="#DejaVuSans-73" x="298.339844"/>
      <use xlink:href="#DejaVuSans-73" x="350.439453"/>
      <use xlink:href="#DejaVuSans-20" x="402.539062"/>
      <use xlink:href="#DejaVuSans-52" x="434.326172"/>
      <use xlink:href="#DejaVuSans-61" x="501.558594"/>
      <use xlink:href="#DejaVuSans-74" x="562.837891"/>
      <use xlink:href="#DejaVuSans-65" x="602.046875"/>
     </g>
    </g>
   </g>
   <g id="line2d_13">
    <path d="M 82.671937 46.566713 
L 104.01581 44.116364 
L 125.359684 46.566713 
L 146.703557 49.017063 
L 168.047431 49.017063 
L 189.391304 53.917762 
L 210.735178 58.818462 
L 232.079051 71.07021 
L 253.422925 75.970909 
L 274.766798 83.321958 
L 296.110672 88.222657 
" clip-path="url(#p6e99174807)" style="fill: none; stroke-dasharray: 5.55,2.4; stroke-dashoffset: 0; stroke: #1f77b4; stroke-width: 1.5"/>
    <defs>
     <path id="ma50c535d3f" d="M 0 3 
C 0.795609 3 1.55874 2.683901 2.12132 2.12132 
C 2.683901 1.55874 3 0.795609 3 0 
C 3 -0.795609 2.683901 -1.55874 2.12132 -2.12132 
C 1.55874 -2.683901 0.795609 -3 0 -3 
C -0.795609 -3 -1.55874 -2.683901 -2.12132 -2.12132 
C -2.683901 -1.55874 -3 -0.795609 -3 0 
C -3 0.795609 -2.683901 1.55874 -2.12132 2.12132 
C -1.55874 2.683901 -0.795609 3 0 3 
z
" style="stroke: #1f77b4"/>
    </defs>
    <g clip-path="url(#p6e99174807)">
     <use xlink:href="#ma50c535d3f" x="82.671937" y="46.566713" style="fill: #1f77b4; stroke: #1f77b4"/>
     <use xlink:href="#ma50c535d3f" x="104.01581" y="44.116364" style="fill: #1f77b4; stroke: #1f77b4"/>
     <use xlink:href="#ma50c535d3f" x="125.359684" y="46.566713" style="fill: #1f77b4; stroke: #1f77b4"/>
     <use xlink:href="#ma50c535d3f" x="146.703557" y="49.017063" style="fill: #1f77b4; stroke: #1f77b4"/>
     <use xlink:href="#ma50c535d3f" x="168.047431" y="49.017063" style="fill: #1f77b4; stroke: #1f77b4"/>
     <use xlink:href="#ma50c535d3f" x="189.391304" y="53.917762" style="fill: #1f77b4; stroke: #1f77b4"/>
     <use xlink:href="#ma50c535d3f" x="210.735178" y="58.818462" style="fill: #1f77b4; stroke: #1f77b4"/>
     <use xlink:href="#ma50c535d3f" x="232.079051" y="71.07021" style="fill: #1f77b4; stroke: #1f77b4"/>
     <use xlink:href="#ma50c535d3f" x="253.422925" y="75.970909" style="fill: #1f77b4; stroke: #1f77b4"/>
     <use xlink:href="#ma50c535d3f" x="274.766798" y="83.321958" style="fill: #1f77b4; stroke: #1f77b4"/>
     <use xlink:href="#ma50c535d3f" x="296.110672" y="88.222657" style="fill: #1f77b4; stroke: #1f77b4"/>
    </g>
   </g>
   <g id="line2d_14">
    <path d="M 82.671937 61.268811 
L 104.01581 73.520559 
L 125.359684 61.268811 
L 146.703557 66.16951 
L 168.047431 75.970909 
L 189.391304 78.421259 
L 210.735178 93.123357 
L 232.079051 98.024056 
L 253.422925 100.474406 
L 274.766798 102.924755 
L 296.110672 102.924755 
" clip-path="url(#p6e99174807)" style="fill: none; stroke-dasharray: 5.55,2.4; stroke-dashoffset: 0; stroke: #ff7f0e; stroke-width: 1.5"/>
    <defs>
     <path id="m76e4644121" d="M 0 3 
C 0.795609 3 1.55874 2.683901 2.12132 2.12132 
C 2.683901 1.55874 3 0.795609 3 0 
C 3 -0.795609 2.683901 -1.55874 2.12132 -2.12132 
C 1.55874 -2.683901 0.795609 -3 0 -3 
C -0.795609 -3 -1.55874 -2.683901 -2.12132 -2.12132 
C -2.683901 -1.55874 -3 -0.795609 -3 0 
C -3 0.795609 -2.683901 1.55874 -2.12132 2.12132 
C -1.55874 2.683901 -0.795609 3 0 3 
z
" style="stroke: #ff7f0e"/>
    </defs>
    <g clip-path="url(#p6e99174807)">
     <use xlink:href="#m76e4644121" x="82.671937" y="61.268811" style="fill: #ff7f0e; stroke: #ff7f0e"/>
     <use xlink:href="#m76e4644121" x="104.01581" y="73.520559" style="fill: #ff7f0e; stroke: #ff7f0e"/>
     <use xlink:href="#m76e4644121" x="125.359684" y="61.268811" style="fill: #ff7f0e; stroke: #ff7f0e"/>
     <use xlink:href="#m76e4644121" x="146.703557" y="66.16951" style="fill: #ff7f0e; stroke: #ff7f0e"/>
     <use xlink:href="#m76e4644121" x="168.047431" y="75.970909" style="fill: #ff7f0e; stroke: #ff7f0e"/>
     <use xlink:href="#m76e4644121" x="189.391304" y="78.421259" style="fill: #ff7f0e; stroke: #ff7f0e"/>
     <use xlink:href="#m76e4644121" x="210.735178" y="93.123357" style="fill: #ff7f0e; stroke: #ff7f0e"/>
     <use xlink:href="#m76e4644121" x="232.079051" y="98.024056" style="fill: #ff7f0e; stroke: #ff7f0e"/>
     <use xlink:href="#m76e4644121" x="253.422925" y="100.474406" style="fill: #ff7f0e; stroke: #ff7f0e"/>
     <use xlink:href="#m76e4644121" x="274.766798" y="102.924755" style="fill: #ff7f0e; stroke: #ff7f0e"/>
     <use xlink:href="#m76e4644121" x="296.110672" y="102.924755" style="fill: #ff7f0e; stroke: #ff7f0e"/>
    </g>
   </g>
   <g id="line2d_15">
    <path d="M 82.671937 188.686993 
L 104.01581 186.236643 
L 125.359684 188.686993 
L 146.703557 196.038042 
L 168.047431 205.839441 
L 189.391304 210.74014 
L 210.735178 210.74014 
L 232.079051 215.640839 
L 253.422925 222.991888 
L 274.766798 227.892587 
L 296.110672 235.243636 
" clip-path="url(#p6e99174807)" style="fill: none; stroke-dasharray: 5.55,2.4; stroke-dashoffset: 0; stroke: #2ca02c; stroke-width: 1.5"/>
    <defs>
     <path id="m85e0a7a535" d="M 0 3 
C 0.795609 3 1.55874 2.683901 2.12132 2.12132 
C 2.683901 1.55874 3 0.795609 3 0 
C 3 -0.795609 2.683901 -1.55874 2.12132 -2.12132 
C 1.55874 -2.683901 0.795609 -3 0 -3 
C -0.795609 -3 -1.55874 -2.683901 -2.12132 -2.12132 
C -2.683901 -1.55874 -3 -0.795609 -3 0 
C -3 0.795609 -2.683901 1.55874 -2.12132 2.12132 
C -1.55874 2.683901 -0.795609 3 0 3 
z
" style="stroke: #2ca02c"/>
    </defs>
    <g clip-path="url(#p6e99174807)">
     <use xlink:href="#m85e0a7a535" x="82.671937" y="188.686993" style="fill: #2ca02c; stroke: #2ca02c"/>
     <use xlink:href="#m85e0a7a535" x="104.01581" y="186.236643" style="fill: #2ca02c; stroke: #2ca02c"/>
     <use xlink:href="#m85e0a7a535" x="125.359684" y="188.686993" style="fill: #2ca02c; stroke: #2ca02c"/>
     <use xlink:href="#m85e0a7a535" x="146.703557" y="196.038042" style="fill: #2ca02c; stroke: #2ca02c"/>
     <use xlink:href="#m85e0a7a535" x="168.047431" y="205.839441" style="fill: #2ca02c; stroke: #2ca02c"/>
     <use xlink:href="#m85e0a7a535" x="189.391304" y="210.74014" style="fill: #2ca02c; stroke: #2ca02c"/>
     <use xlink:href="#m85e0a7a535" x="210.735178" y="210.74014" style="fill: #2ca02c; stroke: #2ca02c"/>
     <use xlink:href="#m85e0a7a535" x="232.079051" y="215.640839" style="fill: #2ca02c; stroke: #2ca02c"/>
     <use xlink:href="#m85e0a7a535" x="253.422925" y="222.991888" style="fill: #2ca02c; stroke: #2ca02c"/>
     <use xlink:href="#m85e0a7a535" x="274.766798" y="227.892587" style="fill: #2ca02c; stroke: #2ca02c"/>
     <use xlink:href="#m85e0a7a535" x="296.110672" y="235.243636" style="fill: #2ca02c; stroke: #2ca02c"/>
    </g>
   </g>
   <g id="line2d_16">
    <path d="M 82.671937 127.428252 
L 104.01581 147.031049 
L 125.359684 147.031049 
L 146.703557 156.832448 
L 168.047431 161.733147 
L 189.391304 164.183497 
L 210.735178 166.633846 
L 232.079051 171.534545 
L 253.422925 171.534545 
L 274.766798 173.984895 
L 296.110672 171.534545 
" clip-path="url(#p6e99174807)" style="fill: none; stroke-dasharray: 5.55,2.4; stroke-dashoffset: 0; stroke: #d62728; stroke-width: 1.5"/>
    <defs>
     <path id="mbcd2a6f5f7" d="M 0 3 
C 0.795609 3 1.55874 2.683901 2.12132 2.12132 
C 2.683901 1.55874 3 0.795609 3 0 
C 3 -0.795609 2.683901 -1.55874 2.12132 -2.12132 
C 1.55874 -2.683901 0.795609 -3 0 -3 
C -0.795609 -3 -1.55874 -2.683901 -2.12132 -2.12132 
C -2.683901 -1.55874 -3 -0.795609 -3 0 
C -3 0.795609 -2.683901 1.55874 -2.12132 2.12132 
C -1.55874 2.683901 -0.795609 3 0 3 
z
" style="stroke: #d62728"/>
    </defs>
    <g clip-path="url(#p6e99174807)">
     <use xlink:href="#mbcd2a6f5f7" x="82.671937" y="127.428252" style="fill: #d62728; stroke: #d62728"/>
     <use xlink:href="#mbcd2a6f5f7" x="104.01581" y="147.031049" style="fill: #d62728; stroke: #d62728"/>
     <use xlink:href="#mbcd2a6f5f7" x="125.359684" y="147.031049" style="fill: #d62728; stroke: #d62728"/>
     <use xlink:href="#mbcd2a6f5f7" x="146.703557" y="156.832448" style="fill: #d62728; stroke: #d62728"/>
     <use xlink:href="#mbcd2a6f5f7" x="168.047431" y="161.733147" style="fill: #d62728; stroke: #d62728"/>
     <use xlink:href="#mbcd2a6f5f7" x="189.391304" y="164.183497" style="fill: #d62728; stroke: #d62728"/>
     <use xlink:href="#mbcd2a6f5f7" x="210.735178" y="166.633846" style="fill: #d62728; stroke: #d62728"/>
     <use xlink:href="#mbcd2a6f5f7" x="232.079051" y="171.534545" style="fill: #d62728; stroke: #d62728"/>
     <use xlink:href="#mbcd2a6f5f7" x="253.422925" y="171.534545" style="fill: #d62728; stroke: #d62728"/>
     <use xlink:href="#mbcd2a6f5f7" x="274.766798" y="173.984895" style="fill: #d62728; stroke: #d62728"/>
     <use xlink:href="#mbcd2a6f5f7" x="296.110672" y="171.534545" style="fill: #d62728; stroke: #d62728"/>
    </g>
   </g>
   <g id="patch_3">
    <path d="M 72 244.8 
L 72 34.56 
" style="fill: none; stroke: #000000; stroke-width: 0.8; stroke-linejoin: miter; stroke-linecap: square"/>
   </g>
   <g id="patch_4">
    <path d="M 306.782609 244.8 
L 306.782609 34.56 
" style="fill: none; stroke: #000000; stroke-width: 0.8; stroke-linejoin: miter; stroke-linecap: square"/>
   </g>
   <g id="patch_5">
    <path d="M 72 244.8 
L 306.782609 244.8 
" style="fill: none; stroke: #000000; stroke-width: 0.8; stroke-linejoin: miter; stroke-linecap: square"/>
   </g>
   <g id="patch_6">
    <path d="M 72 34.56 
L 306.782609 34.56 
" style="fill: none; stroke: #000000; stroke-width: 0.8; stroke-linejoin: miter; stroke-linecap: square"/>
   </g>
  </g>
  <g id="axes_2">
   <g id="patch_7">
    <path d="M 377.217391 244.8 
L 612 244.8 
L 612 34.56 
L 377.217391 34.56 
L 377.217391 244.8 
z
" style="fill: none"/>
   </g>
   <g id="matplotlib.axis_3">
    <g id="xtick_6">
     <g id="line2d_17">
      <g>
       <use xlink:href="#mdd3e598210" x="387.889328" y="244.8" style="stroke: #000000; stroke-width: 0.8"/>
      </g>
     </g>
     <g id="text_15">
      <!-- 0.000 -->
      <g transform="translate(373.575266 259.398438)scale(0.1 -0.1)">
       <use xlink:href="#DejaVuSans-30"/>
       <use xlink:href="#DejaVuSans-2e" x="63.623047"/>
       <use xlink:href="#DejaVuSans-30" x="95.410156"/>
       <use xlink:href="#DejaVuSans-30" x="159.033203"/>
       <use xlink:href="#DejaVuSans-30" x="222.65625"/>
      </g>
     </g>
    </g>
    <g id="xtick_7">
     <g id="line2d_18">
      <g>
       <use xlink:href="#mdd3e598210" x="441.249012" y="244.8" style="stroke: #000000; stroke-width: 0.8"/>
      </g>
     </g>
     <g id="text_16">
      <!-- 0.005 -->
      <g transform="translate(426.934949 259.398438)scale(0.1 -0.1)">
       <use xlink:href="#DejaVuSans-30"/>
       <use xlink:href="#DejaVuSans-2e" x="63.623047"/>
       <use xlink:href="#DejaVuSans-30" x="95.410156"/>
       <use xlink:href="#DejaVuSans-30" x="159.033203"/>
       <use xlink:href="#DejaVuSans-35" x="222.65625"/>
      </g>
     </g>
    </g>
    <g id="xtick_8">
     <g id="line2d_19">
      <g>
       <use xlink:href="#mdd3e598210" x="494.608696" y="244.8" style="stroke: #000000; stroke-width: 0.8"/>
      </g>
     </g>
     <g id="text_17">
      <!-- 0.010 -->
      <g transform="translate(480.294633 259.398438)scale(0.1 -0.1)">
       <use xlink:href="#DejaVuSans-30"/>
       <use xlink:href="#DejaVuSans-2e" x="63.623047"/>
       <use xlink:href="#DejaVuSans-30" x="95.410156"/>
       <use xlink:href="#DejaVuSans-31" x="159.033203"/>
       <use xlink:href="#DejaVuSans-30" x="222.65625"/>
      </g>
     </g>
    </g>
    <g id="xtick_9">
     <g id="line2d_20">
      <g>
       <use xlink:href="#mdd3e598210" x="547.968379" y="244.8" style="stroke: #000000; stroke-width: 0.8"/>
      </g>
     </g>
     <g id="text_18">
      <!-- 0.015 -->
      <g transform="translate(533.654317 259.398438)scale(0.1 -0.1)">
       <use xlink:href="#DejaVuSans-30"/>
       <use xlink:href="#DejaVuSans-2e" x="63.623047"/>
       <use xlink:href="#DejaVuSans-30" x="95.410156"/>
       <use xlink:href="#DejaVuSans-31" x="159.033203"/>
       <use xlink:href="#DejaVuSans-35" x="222.65625"/>
      </g>
     </g>
    </g>
    <g id="xtick_10">
     <g id="line2d_21">
      <g>
       <use xlink:href="#mdd3e598210" x="601.328063" y="244.8" style="stroke: #000000; stroke-width: 0.8"/>
      </g>
     </g>
     <g id="text_19">
      <!-- 0.020 -->
      <g transform="translate(587.014001 259.398438)scale(0.1 -0.1)">
       <use xlink:href="#DejaVuSans-30"/>
       <use xlink:href="#DejaVuSans-2e" x="63.623047"/>
       <use xlink:href="#DejaVuSans-30" x="95.410156"/>
       <use xlink:href="#DejaVuSans-32" x="159.033203"/>
       <use xlink:href="#DejaVuSans-30" x="222.65625"/>
      </g>
     </g>
    </g>
    <g id="text_20">
     <!-- Input noise strength $\sigma$ -->
     <g transform="translate(417.048696 276.118125)scale(0.14 -0.14)">
      <use xlink:href="#DejaVuSans-49" transform="translate(0 0.015625)"/>
      <use xlink:href="#DejaVuSans-6e" transform="translate(29.492188 0.015625)"/>
      <use xlink:href="#DejaVuSans-70" transform="translate(92.871094 0.015625)"/>
      <use xlink:href="#DejaVuSans-75" transform="translate(156.347656 0.015625)"/>
      <use xlink:href="#DejaVuSans-74" transform="translate(219.726562 0.015625)"/>
      <use xlink:href="#DejaVuSans-20" transform="translate(258.935547 0.015625)"/>
      <use xlink:href="#DejaVuSans-6e" transform="translate(290.722656 0.015625)"/>
      <use xlink:href="#DejaVuSans-6f" transform="translate(354.101562 0.015625)"/>
      <use xlink:href="#DejaVuSans-69" transform="translate(415.283203 0.015625)"/>
      <use xlink:href="#DejaVuSans-73" transform="translate(443.066406 0.015625)"/>
      <use xlink:href="#DejaVuSans-65" transform="translate(495.166016 0.015625)"/>
      <use xlink:href="#DejaVuSans-20" transform="translate(556.689453 0.015625)"/>
      <use xlink:href="#DejaVuSans-73" transform="translate(588.476562 0.015625)"/>
      <use xlink:href="#DejaVuSans-74" transform="translate(640.576172 0.015625)"/>
      <use xlink:href="#DejaVuSans-72" transform="translate(679.785156 0.015625)"/>
      <use xlink:href="#DejaVuSans-65" transform="translate(720.898438 0.015625)"/>
      <use xlink:href="#DejaVuSans-6e" transform="translate(782.421875 0.015625)"/>
      <use xlink:href="#DejaVuSans-67" transform="translate(845.800781 0.015625)"/>
      <use xlink:href="#DejaVuSans-74" transform="translate(909.277344 0.015625)"/>
      <use xlink:href="#DejaVuSans-68" transform="translate(948.486328 0.015625)"/>
      <use xlink:href="#DejaVuSans-20" transform="translate(1011.865234 0.015625)"/>
      <use xlink:href="#DejaVuSans-Oblique-3c3" transform="translate(1043.652344 0.015625)"/>
     </g>
    </g>
   </g>
   <g id="matplotlib.axis_4">
    <g id="ytick_8">
     <g id="line2d_22">
      <g>
       <use xlink:href="#m0b7c8e174e" x="377.217391" y="224.521225" style="stroke: #000000; stroke-width: 0.8"/>
      </g>
     </g>
     <g id="text_21">
      <!-- 0.05 -->
      <g transform="translate(347.951766 228.320443)scale(0.1 -0.1)">
       <use xlink:href="#DejaVuSans-30"/>
       <use xlink:href="#DejaVuSans-2e" x="63.623047"/>
       <use xlink:href="#DejaVuSans-30" x="95.410156"/>
       <use xlink:href="#DejaVuSans-35" x="159.033203"/>
      </g>
     </g>
    </g>
    <g id="ytick_9">
     <g id="line2d_23">
      <g>
       <use xlink:href="#m0b7c8e174e" x="377.217391" y="185.798972" style="stroke: #000000; stroke-width: 0.8"/>
      </g>
     </g>
     <g id="text_22">
      <!-- 0.10 -->
      <g transform="translate(347.951766 189.59819)scale(0.1 -0.1)">
       <use xlink:href="#DejaVuSans-30"/>
       <use xlink:href="#DejaVuSans-2e" x="63.623047"/>
       <use xlink:href="#DejaVuSans-31" x="95.410156"/>
       <use xlink:href="#DejaVuSans-30" x="159.033203"/>
      </g>
     </g>
    </g>
    <g id="ytick_10">
     <g id="line2d_24">
      <g>
       <use xlink:href="#m0b7c8e174e" x="377.217391" y="147.076719" style="stroke: #000000; stroke-width: 0.8"/>
      </g>
     </g>
     <g id="text_23">
      <!-- 0.15 -->
      <g transform="translate(347.951766 150.875937)scale(0.1 -0.1)">
       <use xlink:href="#DejaVuSans-30"/>
       <use xlink:href="#DejaVuSans-2e" x="63.623047"/>
       <use xlink:href="#DejaVuSans-31" x="95.410156"/>
       <use xlink:href="#DejaVuSans-35" x="159.033203"/>
      </g>
     </g>
    </g>
    <g id="ytick_11">
     <g id="line2d_25">
      <g>
       <use xlink:href="#m0b7c8e174e" x="377.217391" y="108.354466" style="stroke: #000000; stroke-width: 0.8"/>
      </g>
     </g>
     <g id="text_24">
      <!-- 0.20 -->
      <g transform="translate(347.951766 112.153684)scale(0.1 -0.1)">
       <use xlink:href="#DejaVuSans-30"/>
       <use xlink:href="#DejaVuSans-2e" x="63.623047"/>
       <use xlink:href="#DejaVuSans-32" x="95.410156"/>
       <use xlink:href="#DejaVuSans-30" x="159.033203"/>
      </g>
     </g>
    </g>
    <g id="ytick_12">
     <g id="line2d_26">
      <g>
       <use xlink:href="#m0b7c8e174e" x="377.217391" y="69.632213" style="stroke: #000000; stroke-width: 0.8"/>
      </g>
     </g>
     <g id="text_25">
      <!-- 0.25 -->
      <g transform="translate(347.951766 73.431431)scale(0.1 -0.1)">
       <use xlink:href="#DejaVuSans-30"/>
       <use xlink:href="#DejaVuSans-2e" x="63.623047"/>
       <use xlink:href="#DejaVuSans-32" x="95.410156"/>
       <use xlink:href="#DejaVuSans-35" x="159.033203"/>
      </g>
     </g>
    </g>
    <g id="text_26">
     <!-- AUC PR -->
     <g transform="translate(341.040204 165.788906)rotate(-90)scale(0.14 -0.14)">
      <defs>
       <path id="DejaVuSans-41" d="M 2188 4044 
L 1331 1722 
L 3047 1722 
L 2188 4044 
z
M 1831 4666 
L 2547 4666 
L 4325 0 
L 3669 0 
L 3244 1197 
L 1141 1197 
L 716 0 
L 50 0 
L 1831 4666 
z
" transform="scale(0.015625)"/>
       <path id="DejaVuSans-55" d="M 556 4666 
L 1191 4666 
L 1191 1831 
Q 1191 1081 1462 751 
Q 1734 422 2344 422 
Q 2950 422 3222 751 
Q 3494 1081 3494 1831 
L 3494 4666 
L 4128 4666 
L 4128 1753 
Q 4128 841 3676 375 
Q 3225 -91 2344 -91 
Q 1459 -91 1007 375 
Q 556 841 556 1753 
L 556 4666 
z
" transform="scale(0.015625)"/>
       <path id="DejaVuSans-43" d="M 4122 4306 
L 4122 3641 
Q 3803 3938 3442 4084 
Q 3081 4231 2675 4231 
Q 1875 4231 1450 3742 
Q 1025 3253 1025 2328 
Q 1025 1406 1450 917 
Q 1875 428 2675 428 
Q 3081 428 3442 575 
Q 3803 722 4122 1019 
L 4122 359 
Q 3791 134 3420 21 
Q 3050 -91 2638 -91 
Q 1578 -91 968 557 
Q 359 1206 359 2328 
Q 359 3453 968 4101 
Q 1578 4750 2638 4750 
Q 3056 4750 3426 4639 
Q 3797 4528 4122 4306 
z
" transform="scale(0.015625)"/>
       <path id="DejaVuSans-50" d="M 1259 4147 
L 1259 2394 
L 2053 2394 
Q 2494 2394 2734 2622 
Q 2975 2850 2975 3272 
Q 2975 3691 2734 3919 
Q 2494 4147 2053 4147 
L 1259 4147 
z
M 628 4666 
L 2053 4666 
Q 2838 4666 3239 4311 
Q 3641 3956 3641 3272 
Q 3641 2581 3239 2228 
Q 2838 1875 2053 1875 
L 1259 1875 
L 1259 0 
L 628 0 
L 628 4666 
z
" transform="scale(0.015625)"/>
      </defs>
      <use xlink:href="#DejaVuSans-41"/>
      <use xlink:href="#DejaVuSans-55" x="68.408203"/>
      <use xlink:href="#DejaVuSans-43" x="141.601562"/>
      <use xlink:href="#DejaVuSans-20" x="211.425781"/>
      <use xlink:href="#DejaVuSans-50" x="243.212891"/>
      <use xlink:href="#DejaVuSans-52" x="303.515625"/>
     </g>
    </g>
   </g>
   <g id="line2d_27">
    <path d="M 387.889328 44.116364 
L 409.233202 49.271311 
L 430.577075 51.749285 
L 451.920949 54.91637 
L 473.264822 58.133093 
L 494.608696 61.798901 
L 515.952569 66.698132 
L 537.296443 70.344536 
L 558.640316 75.100424 
L 579.98419 78.481953 
L 601.328063 83.093301 
" clip-path="url(#pcb7dae71e4)" style="fill: none; stroke-dasharray: 5.55,2.4; stroke-dashoffset: 0; stroke: #1f77b4; stroke-width: 1.5"/>
    <g clip-path="url(#pcb7dae71e4)">
     <use xlink:href="#ma50c535d3f" x="387.889328" y="44.116364" style="fill: #1f77b4; stroke: #1f77b4"/>
     <use xlink:href="#ma50c535d3f" x="409.233202" y="49.271311" style="fill: #1f77b4; stroke: #1f77b4"/>
     <use xlink:href="#ma50c535d3f" x="430.577075" y="51.749285" style="fill: #1f77b4; stroke: #1f77b4"/>
     <use xlink:href="#ma50c535d3f" x="451.920949" y="54.91637" style="fill: #1f77b4; stroke: #1f77b4"/>
     <use xlink:href="#ma50c535d3f" x="473.264822" y="58.133093" style="fill: #1f77b4; stroke: #1f77b4"/>
     <use xlink:href="#ma50c535d3f" x="494.608696" y="61.798901" style="fill: #1f77b4; stroke: #1f77b4"/>
     <use xlink:href="#ma50c535d3f" x="515.952569" y="66.698132" style="fill: #1f77b4; stroke: #1f77b4"/>
     <use xlink:href="#ma50c535d3f" x="537.296443" y="70.344536" style="fill: #1f77b4; stroke: #1f77b4"/>
     <use xlink:href="#ma50c535d3f" x="558.640316" y="75.100424" style="fill: #1f77b4; stroke: #1f77b4"/>
     <use xlink:href="#ma50c535d3f" x="579.98419" y="78.481953" style="fill: #1f77b4; stroke: #1f77b4"/>
     <use xlink:href="#ma50c535d3f" x="601.328063" y="83.093301" style="fill: #1f77b4; stroke: #1f77b4"/>
    </g>
   </g>
   <g id="line2d_28">
    <path d="M 387.889328 105.735256 
L 409.233202 122.095023 
L 430.577075 124.385832 
L 451.920949 126.18723 
L 473.264822 129.760823 
L 494.608696 133.488398 
L 515.952569 136.531045 
L 537.296443 139.820195 
L 558.640316 142.363445 
L 579.98419 144.54579 
L 601.328063 146.659417 
" clip-path="url(#pcb7dae71e4)" style="fill: none; stroke-dasharray: 5.55,2.4; stroke-dashoffset: 0; stroke: #ff7f0e; stroke-width: 1.5"/>
    <g clip-path="url(#pcb7dae71e4)">
     <use xlink:href="#m76e4644121" x="387.889328" y="105.735256" style="fill: #ff7f0e; stroke: #ff7f0e"/>
     <use xlink:href="#m76e4644121" x="409.233202" y="122.095023" style="fill: #ff7f0e; stroke: #ff7f0e"/>
     <use xlink:href="#m76e4644121" x="430.577075" y="124.385832" style="fill: #ff7f0e; stroke: #ff7f0e"/>
     <use xlink:href="#m76e4644121" x="451.920949" y="126.18723" style="fill: #ff7f0e; stroke: #ff7f0e"/>
     <use xlink:href="#m76e4644121" x="473.264822" y="129.760823" style="fill: #ff7f0e; stroke: #ff7f0e"/>
     <use xlink:href="#m76e4644121" x="494.608696" y="133.488398" style="fill: #ff7f0e; stroke: #ff7f0e"/>
     <use xlink:href="#m76e4644121" x="515.952569" y="136.531045" style="fill: #ff7f0e; stroke: #ff7f0e"/>
     <use xlink:href="#m76e4644121" x="537.296443" y="139.820195" style="fill: #ff7f0e; stroke: #ff7f0e"/>
     <use xlink:href="#m76e4644121" x="558.640316" y="142.363445" style="fill: #ff7f0e; stroke: #ff7f0e"/>
     <use xlink:href="#m76e4644121" x="579.98419" y="144.54579" style="fill: #ff7f0e; stroke: #ff7f0e"/>
     <use xlink:href="#m76e4644121" x="601.328063" y="146.659417" style="fill: #ff7f0e; stroke: #ff7f0e"/>
    </g>
   </g>
   <g id="line2d_29">
    <path d="M 387.889328 213.142234 
L 409.233202 214.087488 
L 430.577075 217.078751 
L 451.920949 219.344965 
L 473.264822 224.476907 
L 494.608696 226.655423 
L 515.952569 228.734867 
L 537.296443 230.677271 
L 558.640316 232.110013 
L 579.98419 234.105056 
L 601.328063 235.243636 
" clip-path="url(#pcb7dae71e4)" style="fill: none; stroke-dasharray: 5.55,2.4; stroke-dashoffset: 0; stroke: #2ca02c; stroke-width: 1.5"/>
    <g clip-path="url(#pcb7dae71e4)">
     <use xlink:href="#m85e0a7a535" x="387.889328" y="213.142234" style="fill: #2ca02c; stroke: #2ca02c"/>
     <use xlink:href="#m85e0a7a535" x="409.233202" y="214.087488" style="fill: #2ca02c; stroke: #2ca02c"/>
     <use xlink:href="#m85e0a7a535" x="430.577075" y="217.078751" style="fill: #2ca02c; stroke: #2ca02c"/>
     <use xlink:href="#m85e0a7a535" x="451.920949" y="219.344965" style="fill: #2ca02c; stroke: #2ca02c"/>
     <use xlink:href="#m85e0a7a535" x="473.264822" y="224.476907" style="fill: #2ca02c; stroke: #2ca02c"/>
     <use xlink:href="#m85e0a7a535" x="494.608696" y="226.655423" style="fill: #2ca02c; stroke: #2ca02c"/>
     <use xlink:href="#m85e0a7a535" x="515.952569" y="228.734867" style="fill: #2ca02c; stroke: #2ca02c"/>
     <use xlink:href="#m85e0a7a535" x="537.296443" y="230.677271" style="fill: #2ca02c; stroke: #2ca02c"/>
     <use xlink:href="#m85e0a7a535" x="558.640316" y="232.110013" style="fill: #2ca02c; stroke: #2ca02c"/>
     <use xlink:href="#m85e0a7a535" x="579.98419" y="234.105056" style="fill: #2ca02c; stroke: #2ca02c"/>
     <use xlink:href="#m85e0a7a535" x="601.328063" y="235.243636" style="fill: #2ca02c; stroke: #2ca02c"/>
    </g>
   </g>
   <g id="line2d_30">
    <path d="M 387.889328 164.696679 
L 409.233202 163.976924 
L 430.577075 167.423514 
L 451.920949 170.116825 
L 473.264822 172.380452 
L 494.608696 173.571747 
L 515.952569 174.707513 
L 537.296443 176.803825 
L 558.640316 177.87348 
L 579.98419 178.768916 
L 601.328063 179.731926 
" clip-path="url(#pcb7dae71e4)" style="fill: none; stroke-dasharray: 5.55,2.4; stroke-dashoffset: 0; stroke: #d62728; stroke-width: 1.5"/>
    <g clip-path="url(#pcb7dae71e4)">
     <use xlink:href="#mbcd2a6f5f7" x="387.889328" y="164.696679" style="fill: #d62728; stroke: #d62728"/>
     <use xlink:href="#mbcd2a6f5f7" x="409.233202" y="163.976924" style="fill: #d62728; stroke: #d62728"/>
     <use xlink:href="#mbcd2a6f5f7" x="430.577075" y="167.423514" style="fill: #d62728; stroke: #d62728"/>
     <use xlink:href="#mbcd2a6f5f7" x="451.920949" y="170.116825" style="fill: #d62728; stroke: #d62728"/>
     <use xlink:href="#mbcd2a6f5f7" x="473.264822" y="172.380452" style="fill: #d62728; stroke: #d62728"/>
     <use xlink:href="#mbcd2a6f5f7" x="494.608696" y="173.571747" style="fill: #d62728; stroke: #d62728"/>
     <use xlink:href="#mbcd2a6f5f7" x="515.952569" y="174.707513" style="fill: #d62728; stroke: #d62728"/>
     <use xlink:href="#mbcd2a6f5f7" x="537.296443" y="176.803825" style="fill: #d62728; stroke: #d62728"/>
     <use xlink:href="#mbcd2a6f5f7" x="558.640316" y="177.87348" style="fill: #d62728; stroke: #d62728"/>
     <use xlink:href="#mbcd2a6f5f7" x="579.98419" y="178.768916" style="fill: #d62728; stroke: #d62728"/>
     <use xlink:href="#mbcd2a6f5f7" x="601.328063" y="179.731926" style="fill: #d62728; stroke: #d62728"/>
    </g>
   </g>
   <g id="patch_8">
    <path d="M 377.217391 244.8 
L 377.217391 34.56 
" style="fill: none; stroke: #000000; stroke-width: 0.8; stroke-linejoin: miter; stroke-linecap: square"/>
   </g>
   <g id="patch_9">
    <path d="M 612 244.8 
L 612 34.56 
" style="fill: none; stroke: #000000; stroke-width: 0.8; stroke-linejoin: miter; stroke-linecap: square"/>
   </g>
   <g id="patch_10">
    <path d="M 377.217391 244.8 
L 612 244.8 
" style="fill: none; stroke: #000000; stroke-width: 0.8; stroke-linejoin: miter; stroke-linecap: square"/>
   </g>
   <g id="patch_11">
    <path d="M 377.217391 34.56 
L 612 34.56 
" style="fill: none; stroke: #000000; stroke-width: 0.8; stroke-linejoin: miter; stroke-linecap: square"/>
   </g>
   <g id="legend_1">
    <g id="patch_12">
     <path d="M 625.73913 96.2725 
L 694.393818 96.2725 
Q 696.393818 96.2725 696.393818 94.2725 
L 696.393818 36.56 
Q 696.393818 34.56 694.393818 34.56 
L 625.73913 34.56 
Q 623.73913 34.56 623.73913 36.56 
L 623.73913 94.2725 
Q 623.73913 96.2725 625.73913 96.2725 
z
" style="fill: #ffffff; opacity: 0.8; stroke: #cccccc; stroke-linejoin: miter"/>
    </g>
    <g id="line2d_31">
     <path d="M 627.73913 42.658437 
L 637.73913 42.658437 
L 647.73913 42.658437 
" style="fill: none; stroke-dasharray: 5.55,2.4; stroke-dashoffset: 0; stroke: #1f77b4; stroke-width: 1.5"/>
     <g>
      <use xlink:href="#ma50c535d3f" x="637.73913" y="42.658437" style="fill: #1f77b4; stroke: #1f77b4"/>
     </g>
    </g>
    <g id="text_27">
     <!-- MD-RS -->
     <g transform="translate(655.73913 46.158437)scale(0.1 -0.1)">
      <defs>
       <path id="DejaVuSans-4d" d="M 628 4666 
L 1569 4666 
L 2759 1491 
L 3956 4666 
L 4897 4666 
L 4897 0 
L 4281 0 
L 4281 4097 
L 3078 897 
L 2444 897 
L 1241 4097 
L 1241 0 
L 628 0 
L 628 4666 
z
" transform="scale(0.015625)"/>
       <path id="DejaVuSans-44" d="M 1259 4147 
L 1259 519 
L 2022 519 
Q 2988 519 3436 956 
Q 3884 1394 3884 2338 
Q 3884 3275 3436 3711 
Q 2988 4147 2022 4147 
L 1259 4147 
z
M 628 4666 
L 1925 4666 
Q 3281 4666 3915 4102 
Q 4550 3538 4550 2338 
Q 4550 1131 3912 565 
Q 3275 0 1925 0 
L 628 0 
L 628 4666 
z
" transform="scale(0.015625)"/>
       <path id="DejaVuSans-2d" d="M 313 2009 
L 1997 2009 
L 1997 1497 
L 313 1497 
L 313 2009 
z
" transform="scale(0.015625)"/>
      </defs>
      <use xlink:href="#DejaVuSans-4d"/>
      <use xlink:href="#DejaVuSans-44" x="86.279297"/>
      <use xlink:href="#DejaVuSans-2d" x="163.28125"/>
      <use xlink:href="#DejaVuSans-52" x="199.365234"/>
      <use xlink:href="#DejaVuSans-53" x="268.847656"/>
     </g>
    </g>
    <g id="line2d_32">
     <path d="M 627.73913 57.336562 
L 637.73913 57.336562 
L 647.73913 57.336562 
" style="fill: none; stroke-dasharray: 5.55,2.4; stroke-dashoffset: 0; stroke: #ff7f0e; stroke-width: 1.5"/>
     <g>
      <use xlink:href="#m76e4644121" x="637.73913" y="57.336562" style="fill: #ff7f0e; stroke: #ff7f0e"/>
     </g>
    </g>
    <g id="text_28">
     <!-- TRAKR -->
     <g transform="translate(655.73913 60.836562)scale(0.1 -0.1)">
      <defs>
       <path id="DejaVuSans-54" d="M -19 4666 
L 3928 4666 
L 3928 4134 
L 2272 4134 
L 2272 0 
L 1638 0 
L 1638 4134 
L -19 4134 
L -19 4666 
z
" transform="scale(0.015625)"/>
       <path id="DejaVuSans-4b" d="M 628 4666 
L 1259 4666 
L 1259 2694 
L 3353 4666 
L 4166 4666 
L 1850 2491 
L 4331 0 
L 3500 0 
L 1259 2247 
L 1259 0 
L 628 0 
L 628 4666 
z
" transform="scale(0.015625)"/>
      </defs>
      <use xlink:href="#DejaVuSans-54"/>
      <use xlink:href="#DejaVuSans-52" x="61.083984"/>
      <use xlink:href="#DejaVuSans-41" x="126.566406"/>
      <use xlink:href="#DejaVuSans-4b" x="194.974609"/>
      <use xlink:href="#DejaVuSans-52" x="260.550781"/>
     </g>
    </g>
    <g id="line2d_33">
     <path d="M 627.73913 72.014687 
L 637.73913 72.014687 
L 647.73913 72.014687 
" style="fill: none; stroke-dasharray: 5.55,2.4; stroke-dashoffset: 0; stroke: #2ca02c; stroke-width: 1.5"/>
     <g>
      <use xlink:href="#m85e0a7a535" x="637.73913" y="72.014687" style="fill: #2ca02c; stroke: #2ca02c"/>
     </g>
    </g>
    <g id="text_29">
     <!-- RC-SRE -->
     <g transform="translate(655.73913 75.514687)scale(0.1 -0.1)">
      <defs>
       <path id="DejaVuSans-45" d="M 628 4666 
L 3578 4666 
L 3578 4134 
L 1259 4134 
L 1259 2753 
L 3481 2753 
L 3481 2222 
L 1259 2222 
L 1259 531 
L 3634 531 
L 3634 0 
L 628 0 
L 628 4666 
z
" transform="scale(0.015625)"/>
      </defs>
      <use xlink:href="#DejaVuSans-52"/>
      <use xlink:href="#DejaVuSans-43" x="64.482422"/>
      <use xlink:href="#DejaVuSans-2d" x="134.306641"/>
      <use xlink:href="#DejaVuSans-53" x="170.390625"/>
      <use xlink:href="#DejaVuSans-52" x="233.867188"/>
      <use xlink:href="#DejaVuSans-45" x="303.349609"/>
     </g>
    </g>
    <g id="line2d_34">
     <path d="M 627.73913 86.692813 
L 637.73913 86.692813 
L 647.73913 86.692813 
" style="fill: none; stroke-dasharray: 5.55,2.4; stroke-dashoffset: 0; stroke: #d62728; stroke-width: 1.5"/>
     <g>
      <use xlink:href="#mbcd2a6f5f7" x="637.73913" y="86.692813" style="fill: #d62728; stroke: #d62728"/>
     </g>
    </g>
    <g id="text_30">
     <!-- MD-SW -->
     <g transform="translate(655.73913 90.192813)scale(0.1 -0.1)">
      <defs>
       <path id="DejaVuSans-57" d="M 213 4666 
L 850 4666 
L 1831 722 
L 2809 4666 
L 3519 4666 
L 4500 722 
L 5478 4666 
L 6119 4666 
L 4947 0 
L 4153 0 
L 3169 4050 
L 2175 0 
L 1381 0 
L 213 4666 
z
" transform="scale(0.015625)"/>
      </defs>
      <use xlink:href="#DejaVuSans-4d"/>
      <use xlink:href="#DejaVuSans-44" x="86.279297"/>
      <use xlink:href="#DejaVuSans-2d" x="163.28125"/>
      <use xlink:href="#DejaVuSans-53" x="199.365234"/>
      <use xlink:href="#DejaVuSans-57" x="262.841797"/>
     </g>
    </g>
   </g>
  </g>
 </g>
 <defs>
  <clipPath id="p6e99174807">
   <rect x="72" y="34.56" width="234.782609" height="210.24"/>
  </clipPath>
  <clipPath id="pcb7dae71e4">
   <rect x="377.217391" y="34.56" width="234.782609" height="210.24"/>
  </clipPath>
 </defs>
</svg>
