<?xml version="1.0" encoding="utf-8" standalone="no"?>
<!DOCTYPE svg PUBLIC "-//W3C//DTD SVG 1.1//EN"
  "http://www.w3.org/Graphics/SVG/1.1/DTD/svg11.dtd">
<svg xmlns:xlink="http://www.w3.org/1999/xlink" width="576pt" height="432pt" viewBox="0 0 576 432" xmlns="http://www.w3.org/2000/svg" version="1.1">
 <metadata>
  <rdf:RDF xmlns:dc="http://purl.org/dc/elements/1.1/" xmlns:cc="http://creativecommons.org/ns#" xmlns:rdf="http://www.w3.org/1999/02/22-rdf-syntax-ns#">
   <cc:Work>
    <dc:type rdf:resource="http://purl.org/dc/dcmitype/StillImage"/>
    <dc:date>2024-04-25T23:57:20.108724</dc:date>
    <dc:format>image/svg+xml</dc:format>
    <dc:creator>
     <cc:Agent>
      <dc:title>Matplotlib v3.5.1, https://matplotlib.org/</dc:title>
     </cc:Agent>
    </dc:creator>
   </cc:Work>
  </rdf:RDF>
 </metadata>
 <defs>
  <style type="text/css">*{stroke-linejoin: round; stroke-linecap: butt}</style>
 </defs>
 <g id="figure_1">
  <g id="patch_1">
   <path d="M 0 432 
L 576 432 
L 576 0 
L 0 0 
z
" style="fill: #ffffff"/>
  </g>
  <g id="axes_1">
   <g id="patch_2">
    <path d="M 39.28 93.424 
L 556.56 93.424 
L 556.56 38.4 
L 39.28 38.4 
z
" style="fill: #ffffff"/>
   </g>
   <g id="patch_3">
    <path d="M 270.233909 93.424 
L 270.233909 38.4 
L 324.388103 38.4 
L 324.388103 93.424 
z
" clip-path="url(#pa91ddcd0f0)" style="fill: #ff7f50; stroke: #ff7f50; stroke-linejoin: miter"/>
   </g>
   <g id="matplotlib.axis_1"/>
   <g id="matplotlib.axis_2">
    <g id="text_1">
     <!-- Input -->
     <g transform="translate(32.368437 84.037625)rotate(-90)scale(0.14 -0.14)">
      <defs>
       <path id="DejaVuSans-49" d="M 628 4666 
L 1259 4666 
L 1259 0 
L 628 0 
L 628 4666 
z
" transform="scale(0.015625)"/>
       <path id="DejaVuSans-6e" d="M 3513 2113 
L 3513 0 
L 2938 0 
L 2938 2094 
Q 2938 2591 2744 2837 
Q 2550 3084 2163 3084 
Q 1697 3084 1428 2787 
Q 1159 2491 1159 1978 
L 1159 0 
L 581 0 
L 581 3500 
L 1159 3500 
L 1159 2956 
Q 1366 3272 1645 3428 
Q 1925 3584 2291 3584 
Q 2894 3584 3203 3211 
Q 3513 2838 3513 2113 
z
" transform="scale(0.015625)"/>
       <path id="DejaVuSans-70" d="M 1159 525 
L 1159 -1331 
L 581 -1331 
L 581 3500 
L 1159 3500 
L 1159 2969 
Q 1341 3281 1617 3432 
Q 1894 3584 2278 3584 
Q 2916 3584 3314 3078 
Q 3713 2572 3713 1747 
Q 3713 922 3314 415 
Q 2916 -91 2278 -91 
Q 1894 -91 1617 61 
Q 1341 213 1159 525 
z
M 3116 1747 
Q 3116 2381 2855 2742 
Q 2594 3103 2138 3103 
Q 1681 3103 1420 2742 
Q 1159 2381 1159 1747 
Q 1159 1113 1420 752 
Q 1681 391 2138 391 
Q 2594 391 2855 752 
Q 3116 1113 3116 1747 
z
" transform="scale(0.015625)"/>
       <path id="DejaVuSans-75" d="M 544 1381 
L 544 3500 
L 1119 3500 
L 1119 1403 
Q 1119 906 1312 657 
Q 1506 409 1894 409 
Q 2359 409 2629 706 
Q 2900 1003 2900 1516 
L 2900 3500 
L 3475 3500 
L 3475 0 
L 2900 0 
L 2900 538 
Q 2691 219 2414 64 
Q 2138 -91 1772 -91 
Q 1169 -91 856 284 
Q 544 659 544 1381 
z
M 1991 3584 
L 1991 3584 
z
" transform="scale(0.015625)"/>
       <path id="DejaVuSans-74" d="M 1172 4494 
L 1172 3500 
L 2356 3500 
L 2356 3053 
L 1172 3053 
L 1172 1153 
Q 1172 725 1289 603 
Q 1406 481 1766 481 
L 2356 481 
L 2356 0 
L 1766 0 
Q 1100 0 847 248 
Q 594 497 594 1153 
L 594 3053 
L 172 3053 
L 172 3500 
L 594 3500 
L 594 4494 
L 1172 4494 
z
" transform="scale(0.015625)"/>
      </defs>
      <use xlink:href="#DejaVuSans-49"/>
      <use xlink:href="#DejaVuSans-6e" x="29.492188"/>
      <use xlink:href="#DejaVuSans-70" x="92.871094"/>
      <use xlink:href="#DejaVuSans-75" x="156.347656"/>
      <use xlink:href="#DejaVuSans-74" x="219.726562"/>
     </g>
    </g>
   </g>
   <g id="line2d_1">
    <path d="M 39.063197 41.670825 
L 39.401661 41.670825 
L 39.740124 41.796789 
L 40.417052 42.730928 
L 41.770907 46.008878 
L 43.463225 52.914018 
L 44.140152 56.260977 
L 44.81708 58.872742 
L 45.832471 62.877719 
L 48.201717 69.470088 
L 49.555572 72.081853 
L 49.894036 72.345878 
L 50.909427 73.548183 
L 51.24789 73.600986 
L 51.586354 74.116844 
L 51.924818 74.332123 
L 52.263281 74.697686 
L 52.601745 74.852038 
L 52.940209 75.221657 
L 53.278673 75.40445 
L 54.632527 76.716418 
L 54.970991 76.809842 
L 56.324846 77.772496 
L 56.66331 77.983718 
L 57.340237 78.718911 
L 57.678701 78.731092 
L 58.355628 79.13322 
L 59.371019 79.738435 
L 60.047947 79.823735 
L 60.38641 80.213671 
L 61.740265 80.567053 
L 62.078729 80.57111 
L 62.417193 80.745767 
L 62.755656 80.701089 
L 63.09412 80.900119 
L 63.771048 81.021973 
L 64.109511 81.330677 
L 64.786439 81.091025 
L 65.463366 81.493153 
L 66.817221 81.63938 
L 67.155685 81.615007 
L 67.494148 81.78154 
L 68.171076 81.769359 
L 68.509539 82.004943 
L 68.848003 82.000875 
L 69.524931 82.342076 
L 69.863394 82.305522 
L 70.878785 82.581728 
L 75.278814 84.190218 
L 76.971132 84.961966 
L 77.64806 85.104126 
L 77.986523 85.433135 
L 78.324987 85.481881 
L 78.663451 85.786516 
L 79.001914 85.774335 
L 79.340378 85.89619 
L 80.017306 86.452659 
L 80.355769 86.533902 
L 80.694233 86.846662 
L 81.709624 87.407198 
L 82.048088 87.728083 
L 82.386552 87.715891 
L 82.725015 88.020527 
L 83.401943 88.154573 
L 84.417334 88.349546 
L 84.755797 88.158641 
L 85.771189 86.432353 
L 87.125043 81.822161 
L 91.863535 61.001147 
L 92.540463 58.572163 
L 93.21739 56.837762 
L 95.586636 51.155233 
L 96.602027 48.303826 
L 98.971273 42.613162 
L 99.309737 41.971414 
L 100.325128 40.785347 
L 101.002055 40.675674 
L 101.340519 40.525432 
L 101.678983 40.541617 
L 102.35591 41.037169 
L 103.709765 43.250864 
L 105.06362 48.116977 
L 107.094402 57.455158 
L 108.109793 61.744465 
L 109.125184 65.144226 
L 110.479039 68.990795 
L 112.171358 72.313381 
L 112.848285 73.085128 
L 113.186749 73.572556 
L 113.525213 73.865011 
L 113.863676 74.003114 
L 114.540604 74.76267 
L 115.217531 75.156673 
L 115.555995 75.652215 
L 116.232922 75.981224 
L 116.571386 76.395533 
L 116.90985 76.480833 
L 117.248313 77.114478 
L 117.586777 77.232275 
L 118.263705 77.662833 
L 118.602168 78.081199 
L 118.940632 78.227426 
L 119.279096 78.609238 
L 119.617559 78.714844 
L 120.294487 79.210396 
L 120.632951 79.393178 
L 120.971414 79.705938 
L 121.309878 79.624705 
L 122.325269 80.270531 
L 124.017588 80.9976 
L 126.04837 81.387536 
L 129.094543 82.268957 
L 129.433007 82.220222 
L 129.771471 82.528915 
L 130.448398 82.317703 
L 130.786862 82.646712 
L 131.463789 82.935099 
L 131.802253 82.805121 
L 132.140717 83.056964 
L 133.156108 83.109767 
L 133.494571 83.369724 
L 133.833035 83.487511 
L 134.171499 83.434708 
L 134.509963 83.739355 
L 135.525354 84.056172 
L 136.202281 84.243021 
L 136.540745 84.454232 
L 136.879209 84.531408 
L 137.8946 85.234104 
L 138.233063 85.079753 
L 138.571527 85.368151 
L 138.909991 85.351902 
L 139.248454 85.485937 
L 139.586918 85.745895 
L 139.925382 85.713408 
L 140.263846 85.98149 
L 140.602309 85.928687 
L 140.940773 86.261753 
L 141.279237 86.367358 
L 141.6177 86.667937 
L 141.956164 86.667937 
L 142.294628 87.061941 
L 142.633092 87.090371 
L 143.648483 87.858062 
L 143.986946 87.890559 
L 144.32541 88.276427 
L 144.663874 88.463276 
L 145.002337 88.80041 
L 145.340801 88.682612 
L 146.356192 89.259397 
L 147.371583 89.458427 
L 147.710047 89.332506 
L 148.386975 88.897891 
L 149.402366 86.785735 
L 151.433148 79.458162 
L 152.787003 74.120901 
L 153.802394 70.099675 
L 155.494712 64.522763 
L 156.17164 62.707118 
L 156.848567 61.070198 
L 157.863958 58.986472 
L 159.556277 55.310504 
L 161.587059 51.114622 
L 162.263987 50.131652 
L 162.60245 49.904192 
L 163.279378 49.030895 
L 163.617841 48.961844 
L 163.956305 48.645016 
L 164.294769 48.929346 
L 164.971696 49.002455 
L 165.987087 50.501282 
L 167.679406 55.753243 
L 168.694797 59.689168 
L 169.033261 60.44061 
L 169.371724 62.012546 
L 169.710188 62.788362 
L 170.387116 65.075175 
L 171.74097 68.72677 
L 173.771753 73.219174 
L 174.787144 74.758613 
L 175.125608 75.16073 
L 175.802535 76.188378 
L 177.833317 78.706719 
L 178.171781 78.921998 
L 178.510245 79.486602 
L 178.848708 79.632829 
L 179.525636 80.502059 
L 179.864099 80.745767 
L 180.541027 81.501277 
L 181.217954 81.968389 
L 182.233345 82.565479 
L 182.910273 83.085394 
L 183.248737 83.30473 
L 183.5872 83.731231 
L 183.925664 83.75966 
L 184.264128 83.991188 
L 184.602591 83.885572 
L 185.279519 84.271451 
L 185.617982 84.511103 
L 185.956446 84.478605 
L 187.987228 84.99852 
L 188.664156 84.844168 
L 189.341083 85.181302 
L 189.679547 85.193493 
L 190.018011 85.404705 
L 190.356474 85.270659 
L 190.694938 85.453451 
L 191.371865 85.258477 
L 191.710329 85.693092 
L 192.048793 85.689035 
L 192.387257 85.522502 
L 192.72572 85.542808 
L 193.064184 85.697159 
L 193.402648 85.595611 
L 194.418039 85.749962 
L 195.094966 85.944925 
L 196.448821 86.099277 
L 196.787285 86.245504 
L 197.125749 86.213017 
L 197.464212 86.35111 
L 197.802676 86.290182 
L 198.479603 86.651689 
L 198.818067 86.570456 
L 199.156531 86.789792 
L 199.494994 86.769486 
L 199.833458 86.944143 
L 200.171922 86.903522 
L 201.86424 87.573731 
L 202.202704 87.53311 
L 202.541168 87.862118 
L 202.879632 87.95961 
L 203.218095 87.894616 
L 203.556559 88.01647 
L 203.895023 88.361728 
L 204.233486 88.373909 
L 205.587341 89.295951 
L 205.925805 89.320324 
L 207.27966 89.962093 
L 207.618123 89.917415 
L 208.295051 90.307351 
L 208.971978 90.412957 
L 209.648906 90.140818 
L 209.987369 89.856488 
L 210.325833 89.409681 
L 211.341224 87.236598 
L 212.018152 85.152872 
L 215.741252 70.960791 
L 216.756644 67.54478 
L 218.448962 63.430131 
L 219.12589 62.361861 
L 220.818208 59.282983 
L 221.156672 58.754944 
L 221.495136 57.808539 
L 221.833599 57.361733 
L 223.525918 54.043204 
L 224.202845 53.100856 
L 224.541309 52.905893 
L 224.879773 52.394103 
L 225.218236 52.333165 
L 225.895164 51.991975 
L 226.233627 51.902618 
L 226.572091 52.243808 
L 226.910555 52.186948 
L 227.249019 52.54033 
L 227.587482 53.068369 
L 228.602873 55.647637 
L 229.279801 57.767918 
L 232.325974 67.134528 
L 233.341365 69.85191 
L 234.018293 71.192318 
L 234.69522 72.800809 
L 235.033684 73.349153 
L 235.710611 74.722059 
L 236.387539 75.721267 
L 236.726002 76.074648 
L 237.741393 77.504414 
L 238.079857 77.825309 
L 238.756785 78.702663 
L 239.095248 79.015423 
L 239.433712 79.795295 
L 239.772176 79.734368 
L 240.110639 80.152744 
L 240.449103 80.753892 
L 241.126031 81.322552 
L 241.802958 82.069927 
L 242.141422 82.20803 
L 242.479885 82.667018 
L 243.156813 83.142254 
L 243.495277 83.544382 
L 243.83374 83.658112 
L 244.172204 84.01555 
L 244.849131 84.230829 
L 245.187595 84.68576 
L 245.864522 84.791366 
L 246.54145 85.266602 
L 246.879914 85.234104 
L 248.233768 85.810889 
L 248.572232 85.98149 
L 248.910696 85.924619 
L 249.24916 85.98149 
L 249.587623 86.26582 
L 249.926087 86.160204 
L 250.264551 86.363301 
L 250.603014 86.37955 
L 250.941478 86.225198 
L 251.279942 86.542026 
L 251.618406 86.395799 
L 252.633797 86.347053 
L 252.97226 86.570456 
L 253.310724 86.318623 
L 253.987651 86.57858 
L 254.664579 86.60701 
L 255.003043 86.391731 
L 255.341506 86.60701 
L 255.67997 86.60701 
L 256.018434 86.745113 
L 256.356897 86.688254 
L 256.695361 86.850719 
L 257.033825 86.749181 
L 257.372289 86.83447 
L 258.049216 86.814165 
L 258.726143 87.001014 
L 259.064607 87.025387 
L 259.741535 87.301582 
L 260.418462 87.423447 
L 261.095389 87.614353 
L 261.772317 87.821507 
L 262.11078 87.906797 
L 262.449244 88.118019 
L 262.787708 88.057092 
L 264.480026 88.597312 
L 264.81849 88.617628 
L 265.495418 89.011621 
L 265.833881 89.19847 
L 266.172345 89.235024 
L 266.849272 89.807742 
L 267.187736 89.706193 
L 267.5262 90.067699 
L 268.203127 90.242356 
L 269.218518 90.352029 
L 269.556982 90.388584 
L 269.895446 90.648541 
L 270.572373 90.570013 
L 271.926228 90.006772 
L 273.280083 88.925512 
L 275.310865 86.218703 
L 276.326256 84.262517 
L 276.66472 83.762099 
L 277.341647 82.402194 
L 278.357038 80.139743 
L 278.695502 79.569464 
L 279.710893 77.348444 
L 280.049357 76.835024 
L 281.064748 74.614015 
L 281.403212 74.011228 
L 282.080139 72.587148 
L 282.418603 71.738225 
L 282.757067 71.197184 
L 283.433994 69.89415 
L 283.772458 69.150012 
L 284.110921 68.690216 
L 284.787849 67.492787 
L 285.80324 65.70964 
L 286.818631 64.378165 
L 287.495559 63.462628 
L 288.51095 62.175022 
L 289.526341 61.271667 
L 290.541732 60.217207 
L 291.557123 59.200122 
L 292.572514 58.13511 
L 293.587905 57.154579 
L 295.280224 55.116351 
L 295.618688 54.814962 
L 295.957151 54.332411 
L 296.634079 53.638648 
L 297.64947 52.592313 
L 298.664861 51.517548 
L 301.034107 49.688913 
L 301.711034 49.278661 
L 303.064889 48.309917 
L 303.403353 48.374901 
L 303.741817 48.667355 
L 304.08028 49.619861 
L 304.418744 51.078057 
L 305.095671 55.434392 
L 306.449526 65.241708 
L 307.464917 70.753636 
L 308.141845 73.730965 
L 308.818772 75.739549 
L 309.834163 77.794846 
L 310.511091 79.232735 
L 311.526482 81.005725 
L 312.203409 82.006977 
L 312.880337 82.817312 
L 314.572655 84.161778 
L 316.603437 84.69185 
L 316.941901 84.665454 
L 317.280365 84.82792 
L 317.618829 84.79949 
L 318.295756 85.010701 
L 318.63422 85.067572 
L 320.326538 85.853534 
L 321.341929 85.741838 
L 322.357321 86.318623 
L 323.034248 86.448602 
L 323.372712 86.724808 
L 324.049639 86.732932 
L 324.388103 87.005071 
L 325.06503 87.057873 
L 325.403494 87.350328 
L 325.741958 87.407198 
L 326.757349 87.98804 
L 327.77274 88.447028 
L 328.788131 88.950694 
L 329.126595 88.950694 
L 329.803522 89.450303 
L 330.48045 89.551852 
L 331.495841 89.783369 
L 332.172768 89.429987 
L 332.849695 88.483582 
L 333.526623 86.903522 
L 334.20355 84.612641 
L 335.557405 79.376929 
L 336.91126 73.446634 
L 337.926651 69.145146 
L 338.265115 68.109374 
L 338.603578 66.626795 
L 339.280506 64.433406 
L 339.957433 62.609637 
L 340.634361 60.932095 
L 341.311288 59.392657 
L 343.680534 54.00665 
L 344.695925 51.55736 
L 346.726707 47.414281 
L 348.080562 45.854526 
L 348.419026 45.846402 
L 348.75749 45.659563 
L 349.095953 45.773293 
L 349.434417 45.744863 
L 349.772881 45.980448 
L 350.788272 47.47114 
L 351.803663 50.273812 
L 352.480591 52.719044 
L 354.849836 62.341555 
L 355.1883 63.166106 
L 356.203691 66.602432 
L 358.234474 71.825963 
L 359.588328 73.9503 
L 361.280647 75.871561 
L 361.619111 76.078705 
L 361.957574 76.472709 
L 362.296038 76.513331 
L 362.972965 77.321632 
L 363.311429 77.744066 
L 363.649893 77.910599 
L 364.32682 78.67829 
L 364.665284 78.828584 
L 365.342211 79.336307 
L 365.680675 79.515032 
L 366.019139 79.884662 
L 366.357603 79.961838 
L 366.696066 80.156801 
L 367.03453 80.221796 
L 367.372994 80.721394 
L 367.711457 80.575167 
L 368.049921 81.139771 
L 368.726849 81.176325 
L 369.403776 81.659685 
L 371.434558 82.260833 
L 371.773022 82.528915 
L 372.111486 82.386755 
L 373.803804 82.748261 
L 374.142268 82.711707 
L 374.480732 82.910737 
L 375.157659 83.004151 
L 375.496123 82.861991 
L 375.834586 83.121948 
L 376.17305 83.024467 
L 377.526905 83.215373 
L 378.203832 83.325046 
L 378.542296 83.507827 
L 378.88076 83.398154 
L 379.219223 83.507827 
L 379.557687 83.381906 
L 380.234615 83.840893 
L 380.573078 83.751536 
L 382.603861 84.620765 
L 382.942324 84.417678 
L 383.619252 84.795433 
L 383.957715 85.035074 
L 384.296179 85.059447 
L 384.634643 85.205675 
L 384.973106 85.177245 
L 387.003889 86.229255 
L 387.680816 86.245504 
L 388.696207 87.025387 
L 389.034671 87.045692 
L 389.373135 87.208168 
L 389.711598 87.553426 
L 390.050062 87.529053 
L 390.388526 88.008346 
L 391.065453 88.191127 
L 391.403917 88.284552 
L 392.080844 88.633877 
L 392.419308 88.414531 
L 393.096235 88.698861 
L 393.434699 88.414531 
L 393.773163 88.365795 
L 394.45009 87.224417 
L 395.127018 85.615916 
L 398.511655 71.216681 
L 400.203973 64.108454 
L 400.542437 63.125495 
L 401.219364 60.810241 
L 401.557828 59.636365 
L 403.250147 55.684191 
L 403.58861 54.60374 
L 403.927074 54.010707 
L 405.280929 50.302252 
L 405.619393 49.603613 
L 406.973248 45.923578 
L 407.311711 45.37929 
L 407.988639 43.868334 
L 408.665566 42.938135 
L 409.00403 42.24762 
L 409.680957 41.731731 
L 410.357885 41.549013 
L 410.696348 41.553059 
L 411.711739 42.418199 
L 413.065594 45.529585 
L 413.404058 46.488181 
L 415.43484 55.034298 
L 416.450231 59.364227 
L 417.804086 64.193754 
L 418.481014 66.147502 
L 419.157941 67.959089 
L 420.173332 70.375882 
L 420.511796 70.778009 
L 421.527187 72.463675 
L 421.865651 72.719565 
L 422.204114 73.18262 
L 422.881042 73.605043 
L 423.219506 74.177771 
L 423.557969 74.356485 
L 423.896433 74.766737 
L 424.234897 74.888592 
L 425.250288 75.725334 
L 425.588751 76.3143 
L 425.927215 76.34273 
L 426.604143 77.004815 
L 426.942606 77.045426 
L 427.28107 77.471927 
L 427.619534 77.593782 
L 428.296461 78.300545 
L 428.973389 78.523938 
L 429.650316 78.966677 
L 429.98878 79.092599 
L 430.327243 79.372872 
L 430.665707 79.462229 
L 431.004171 79.998392 
L 431.342634 79.933398 
L 432.019562 80.213671 
L 433.034953 80.433007 
L 433.71188 80.932616 
L 434.050344 80.749835 
L 435.065735 81.135703 
L 435.404199 81.054471 
L 436.081126 81.261625 
L 436.41959 81.200698 
L 437.773445 81.58251 
L 438.450372 81.602815 
L 438.788836 81.814037 
L 439.465763 81.789664 
L 440.481155 82.256776 
L 440.819618 82.12274 
L 441.158082 82.15117 
L 441.496546 82.459874 
L 442.173473 82.49236 
L 442.511937 82.752318 
L 442.850401 82.654836 
L 443.188864 82.890421 
L 443.527328 83.288481 
L 443.865792 83.142254 
L 444.881183 83.613433 
L 445.55811 83.621557 
L 445.896574 83.922136 
L 446.235038 83.995245 
L 446.573501 84.267383 
L 447.250429 84.373 
L 448.26582 85.059447 
L 448.604284 85.043199 
L 448.942747 85.33971 
L 449.281211 85.290975 
L 449.619675 85.652481 
L 449.958138 85.575305 
L 450.296602 85.888065 
L 450.635066 86.034293 
L 450.97353 86.046474 
L 451.311993 86.355177 
L 451.650457 86.428286 
L 452.327384 87.013195 
L 453.004312 87.30565 
L 454.358167 88.142392 
L 454.69663 88.280495 
L 455.373558 88.264246 
L 455.712021 88.377976 
L 456.727413 87.53311 
L 457.40434 86.103344 
L 458.758195 81.042289 
L 459.773586 76.521455 
L 461.804368 66.829892 
L 463.83515 58.698085 
L 465.189005 54.953065 
L 466.54286 51.926991 
L 467.219788 50.160082 
L 468.573642 46.520668 
L 468.912106 45.826096 
L 469.589034 44.051052 
L 470.942888 41.321468 
L 471.281352 41.118413 
L 471.619816 40.40756 
L 471.958279 40.468466 
L 472.296743 39.985159 
L 472.973671 39.932345 
L 473.312134 39.936391 
L 473.650598 40.10697 
L 475.004453 42.580686 
L 475.68138 44.534434 
L 476.358308 47.121826 
L 477.712162 53.117105 
L 478.727554 58.145673 
L 479.404481 60.968649 
L 480.758336 65.769747 
L 481.773727 68.580542 
L 482.112191 69.161395 
L 482.789118 70.790191 
L 483.127582 71.249178 
L 483.466046 71.931569 
L 483.804509 72.354002 
L 484.142973 73.04045 
L 484.481437 73.231356 
L 484.8199 73.702535 
L 485.158364 73.893441 
L 485.835291 74.571764 
L 486.512219 75.124176 
L 487.189146 75.522236 
L 487.866074 76.326482 
L 488.204537 76.399601 
L 488.881465 76.943888 
L 489.558392 77.390684 
L 489.896856 77.898417 
L 490.23532 78.040577 
L 490.573783 78.373654 
L 491.589175 78.950439 
L 491.927638 79.340375 
L 492.266102 79.543462 
L 492.604566 79.571902 
L 493.619957 80.128371 
L 494.296884 80.493934 
L 494.635348 80.404577 
L 494.973812 80.71327 
L 495.312275 80.782332 
L 495.650739 80.644229 
L 495.989203 80.96917 
L 496.327666 80.985419 
L 497.004594 81.184449 
L 497.681521 81.350982 
L 498.358449 81.541888 
L 499.035376 81.675934 
L 499.37384 81.789664 
L 500.050767 81.651561 
L 500.389231 81.907462 
L 500.727695 81.9237 
L 501.404622 82.20803 
L 501.743086 82.187724 
L 502.081549 82.40706 
L 503.096941 82.638588 
L 503.773868 82.890421 
L 504.112332 82.886364 
L 504.789259 83.1057 
L 505.127723 83.020399 
L 505.466187 83.410335 
L 505.80465 83.341284 
L 506.143114 83.658112 
L 506.481578 83.625614 
L 506.820041 83.87339 
L 507.158505 84.328321 
L 507.496969 84.056172 
L 508.173896 84.454232 
L 508.51236 84.523284 
L 508.850824 84.91322 
L 509.189287 84.868541 
L 509.866215 85.258477 
L 510.204678 85.51031 
L 510.543142 85.380332 
L 510.881606 85.754019 
L 511.22007 85.741838 
L 511.558533 86.111468 
L 511.896997 86.143966 
L 512.235461 86.497337 
L 512.573924 86.383607 
L 512.912388 86.586705 
L 513.250852 86.948211 
L 513.589316 86.903522 
L 513.927779 87.025387 
L 514.266243 87.407198 
L 514.604707 87.443753 
L 514.94317 87.805259 
L 515.620098 88.077397 
L 515.958562 88.211443 
L 516.635489 88.763845 
L 517.989344 89.194403 
L 519.004735 89.271578 
L 519.681662 88.771969 
L 520.020126 88.451085 
L 520.35859 87.866186 
L 521.373981 85.002577 
L 523.404763 77.26883 
L 525.435545 69.019224 
L 526.112473 66.622738 
L 527.127864 63.543861 
L 528.143255 60.818365 
L 528.481719 60.339062 
L 529.49711 58.064429 
L 529.835574 57.564831 
L 530.512501 55.761367 
L 530.850965 55.213023 
L 532.204819 52.032597 
L 533.220211 50.054476 
L 533.558674 49.705162 
L 534.235602 48.498789 
L 534.574065 48.409432 
L 534.912529 48.080423 
L 535.250993 48.023553 
L 535.589457 47.759538 
L 535.92792 47.800149 
L 536.604848 48.303826 
L 537.281775 49.051201 
L 539.651021 56.764643 
L 541.004876 61.711967 
L 542.358731 66.054077 
L 543.035658 67.894095 
L 544.389513 71.310105 
L 545.06644 72.707384 
L 546.420295 74.953576 
L 547.097223 75.806567 
L 549.466469 78.641735 
L 550.143396 79.251007 
L 552.512642 81.533764 
L 552.851106 81.615007 
L 553.189569 82.053678 
L 555.220352 83.345351 
L 555.558815 83.426584 
L 556.574206 83.942442 
L 556.574206 83.942442 
" clip-path="url(#pa91ddcd0f0)" style="fill: none; stroke: #1f77b4; stroke-width: 1.5; stroke-linecap: square"/>
   </g>
   <g id="patch_4">
    <path d="M 39.28 93.424 
L 39.28 38.4 
" style="fill: none; stroke: #000000; stroke-width: 2.5; stroke-linejoin: miter; stroke-linecap: square"/>
   </g>
   <g id="patch_5">
    <path d="M 39.28 93.424 
L 556.56 93.424 
" style="fill: none; stroke: #000000; stroke-width: 2.5; stroke-linejoin: miter; stroke-linecap: square"/>
   </g>
   <g id="text_2">
    <!-- UCR_139 -->
    <g transform="translate(257.11625 32.4)scale(0.18 -0.18)">
     <defs>
      <path id="DejaVuSans-55" d="M 556 4666 
L 1191 4666 
L 1191 1831 
Q 1191 1081 1462 751 
Q 1734 422 2344 422 
Q 2950 422 3222 751 
Q 3494 1081 3494 1831 
L 3494 4666 
L 4128 4666 
L 4128 1753 
Q 4128 841 3676 375 
Q 3225 -91 2344 -91 
Q 1459 -91 1007 375 
Q 556 841 556 1753 
L 556 4666 
z
" transform="scale(0.015625)"/>
      <path id="DejaVuSans-43" d="M 4122 4306 
L 4122 3641 
Q 3803 3938 3442 4084 
Q 3081 4231 2675 4231 
Q 1875 4231 1450 3742 
Q 1025 3253 1025 2328 
Q 1025 1406 1450 917 
Q 1875 428 2675 428 
Q 3081 428 3442 575 
Q 3803 722 4122 1019 
L 4122 359 
Q 3791 134 3420 21 
Q 3050 -91 2638 -91 
Q 1578 -91 968 557 
Q 359 1206 359 2328 
Q 359 3453 968 4101 
Q 1578 4750 2638 4750 
Q 3056 4750 3426 4639 
Q 3797 4528 4122 4306 
z
" transform="scale(0.015625)"/>
      <path id="DejaVuSans-52" d="M 2841 2188 
Q 3044 2119 3236 1894 
Q 3428 1669 3622 1275 
L 4263 0 
L 3584 0 
L 2988 1197 
Q 2756 1666 2539 1819 
Q 2322 1972 1947 1972 
L 1259 1972 
L 1259 0 
L 628 0 
L 628 4666 
L 2053 4666 
Q 2853 4666 3247 4331 
Q 3641 3997 3641 3322 
Q 3641 2881 3436 2590 
Q 3231 2300 2841 2188 
z
M 1259 4147 
L 1259 2491 
L 2053 2491 
Q 2509 2491 2742 2702 
Q 2975 2913 2975 3322 
Q 2975 3731 2742 3939 
Q 2509 4147 2053 4147 
L 1259 4147 
z
" transform="scale(0.015625)"/>
      <path id="DejaVuSans-5f" d="M 3263 -1063 
L 3263 -1509 
L -63 -1509 
L -63 -1063 
L 3263 -1063 
z
" transform="scale(0.015625)"/>
      <path id="DejaVuSans-31" d="M 794 531 
L 1825 531 
L 1825 4091 
L 703 3866 
L 703 4441 
L 1819 4666 
L 2450 4666 
L 2450 531 
L 3481 531 
L 3481 0 
L 794 0 
L 794 531 
z
" transform="scale(0.015625)"/>
      <path id="DejaVuSans-33" d="M 2597 2516 
Q 3050 2419 3304 2112 
Q 3559 1806 3559 1356 
Q 3559 666 3084 287 
Q 2609 -91 1734 -91 
Q 1441 -91 1130 -33 
Q 819 25 488 141 
L 488 750 
Q 750 597 1062 519 
Q 1375 441 1716 441 
Q 2309 441 2620 675 
Q 2931 909 2931 1356 
Q 2931 1769 2642 2001 
Q 2353 2234 1838 2234 
L 1294 2234 
L 1294 2753 
L 1863 2753 
Q 2328 2753 2575 2939 
Q 2822 3125 2822 3475 
Q 2822 3834 2567 4026 
Q 2313 4219 1838 4219 
Q 1578 4219 1281 4162 
Q 984 4106 628 3988 
L 628 4550 
Q 988 4650 1302 4700 
Q 1616 4750 1894 4750 
Q 2613 4750 3031 4423 
Q 3450 4097 3450 3541 
Q 3450 3153 3228 2886 
Q 3006 2619 2597 2516 
z
" transform="scale(0.015625)"/>
      <path id="DejaVuSans-39" d="M 703 97 
L 703 672 
Q 941 559 1184 500 
Q 1428 441 1663 441 
Q 2288 441 2617 861 
Q 2947 1281 2994 2138 
Q 2813 1869 2534 1725 
Q 2256 1581 1919 1581 
Q 1219 1581 811 2004 
Q 403 2428 403 3163 
Q 403 3881 828 4315 
Q 1253 4750 1959 4750 
Q 2769 4750 3195 4129 
Q 3622 3509 3622 2328 
Q 3622 1225 3098 567 
Q 2575 -91 1691 -91 
Q 1453 -91 1209 -44 
Q 966 3 703 97 
z
M 1959 2075 
Q 2384 2075 2632 2365 
Q 2881 2656 2881 3163 
Q 2881 3666 2632 3958 
Q 2384 4250 1959 4250 
Q 1534 4250 1286 3958 
Q 1038 3666 1038 3163 
Q 1038 2656 1286 2365 
Q 1534 2075 1959 2075 
z
" transform="scale(0.015625)"/>
     </defs>
     <use xlink:href="#DejaVuSans-55"/>
     <use xlink:href="#DejaVuSans-43" x="73.193359"/>
     <use xlink:href="#DejaVuSans-52" x="143.017578"/>
     <use xlink:href="#DejaVuSans-5f" x="212.5"/>
     <use xlink:href="#DejaVuSans-31" x="262.5"/>
     <use xlink:href="#DejaVuSans-33" x="326.123047"/>
     <use xlink:href="#DejaVuSans-39" x="389.746094"/>
    </g>
   </g>
  </g>
  <g id="axes_2">
   <g id="patch_6">
    <path d="M 39.28 167.888 
L 556.56 167.888 
L 556.56 112.864 
L 39.28 112.864 
z
" style="fill: #ffffff"/>
   </g>
   <g id="patch_7">
    <path d="M 270.233909 167.888 
L 270.233909 112.864 
L 324.388103 112.864 
L 324.388103 167.888 
z
" clip-path="url(#p1489a9a79f)" style="fill: #ff7f50; stroke: #ff7f50; stroke-linejoin: miter"/>
   </g>
   <g id="matplotlib.axis_3"/>
   <g id="matplotlib.axis_4">
    <g id="text_3">
     <!-- Small $τ$ -->
     <g transform="translate(32.368437 166.276)rotate(-90)scale(0.14 -0.14)">
      <defs>
       <path id="DejaVuSans-53" d="M 3425 4513 
L 3425 3897 
Q 3066 4069 2747 4153 
Q 2428 4238 2131 4238 
Q 1616 4238 1336 4038 
Q 1056 3838 1056 3469 
Q 1056 3159 1242 3001 
Q 1428 2844 1947 2747 
L 2328 2669 
Q 3034 2534 3370 2195 
Q 3706 1856 3706 1288 
Q 3706 609 3251 259 
Q 2797 -91 1919 -91 
Q 1588 -91 1214 -16 
Q 841 59 441 206 
L 441 856 
Q 825 641 1194 531 
Q 1563 422 1919 422 
Q 2459 422 2753 634 
Q 3047 847 3047 1241 
Q 3047 1584 2836 1778 
Q 2625 1972 2144 2069 
L 1759 2144 
Q 1053 2284 737 2584 
Q 422 2884 422 3419 
Q 422 4038 858 4394 
Q 1294 4750 2059 4750 
Q 2388 4750 2728 4690 
Q 3069 4631 3425 4513 
z
" transform="scale(0.015625)"/>
       <path id="DejaVuSans-6d" d="M 3328 2828 
Q 3544 3216 3844 3400 
Q 4144 3584 4550 3584 
Q 5097 3584 5394 3201 
Q 5691 2819 5691 2113 
L 5691 0 
L 5113 0 
L 5113 2094 
Q 5113 2597 4934 2840 
Q 4756 3084 4391 3084 
Q 3944 3084 3684 2787 
Q 3425 2491 3425 1978 
L 3425 0 
L 2847 0 
L 2847 2094 
Q 2847 2600 2669 2842 
Q 2491 3084 2119 3084 
Q 1678 3084 1418 2786 
Q 1159 2488 1159 1978 
L 1159 0 
L 581 0 
L 581 3500 
L 1159 3500 
L 1159 2956 
Q 1356 3278 1631 3431 
Q 1906 3584 2284 3584 
Q 2666 3584 2933 3390 
Q 3200 3197 3328 2828 
z
" transform="scale(0.015625)"/>
       <path id="DejaVuSans-61" d="M 2194 1759 
Q 1497 1759 1228 1600 
Q 959 1441 959 1056 
Q 959 750 1161 570 
Q 1363 391 1709 391 
Q 2188 391 2477 730 
Q 2766 1069 2766 1631 
L 2766 1759 
L 2194 1759 
z
M 3341 1997 
L 3341 0 
L 2766 0 
L 2766 531 
Q 2569 213 2275 61 
Q 1981 -91 1556 -91 
Q 1019 -91 701 211 
Q 384 513 384 1019 
Q 384 1609 779 1909 
Q 1175 2209 1959 2209 
L 2766 2209 
L 2766 2266 
Q 2766 2663 2505 2880 
Q 2244 3097 1772 3097 
Q 1472 3097 1187 3025 
Q 903 2953 641 2809 
L 641 3341 
Q 956 3463 1253 3523 
Q 1550 3584 1831 3584 
Q 2591 3584 2966 3190 
Q 3341 2797 3341 1997 
z
" transform="scale(0.015625)"/>
       <path id="DejaVuSans-6c" d="M 603 4863 
L 1178 4863 
L 1178 0 
L 603 0 
L 603 4863 
z
" transform="scale(0.015625)"/>
       <path id="DejaVuSans-20" transform="scale(0.015625)"/>
       <path id="DejaVuSans-Oblique-3c4" d="M 2103 638 
Q 2188 488 2525 488 
L 2800 488 
L 2706 0 
L 2363 0 
Q 1800 0 1600 300 
Q 1403 606 1534 1269 
L 1856 2925 
L 541 2925 
L 653 3500 
L 3881 3500 
L 3769 2925 
L 2444 2925 
L 2113 1234 
Q 2025 781 2103 638 
z
" transform="scale(0.015625)"/>
      </defs>
      <use xlink:href="#DejaVuSans-53" transform="translate(0 0.015625)"/>
      <use xlink:href="#DejaVuSans-6d" transform="translate(63.476562 0.015625)"/>
      <use xlink:href="#DejaVuSans-61" transform="translate(160.888672 0.015625)"/>
      <use xlink:href="#DejaVuSans-6c" transform="translate(222.167969 0.015625)"/>
      <use xlink:href="#DejaVuSans-6c" transform="translate(249.951172 0.015625)"/>
      <use xlink:href="#DejaVuSans-20" transform="translate(277.734375 0.015625)"/>
      <use xlink:href="#DejaVuSans-Oblique-3c4" transform="translate(309.521484 0.015625)"/>
     </g>
    </g>
   </g>
   <g id="line2d_2">
    <path d="M 39.063197 165.000585 
L 39.740124 164.995981 
L 40.417052 164.889635 
L 40.755515 164.964517 
L 41.093979 164.846128 
L 41.770907 164.906517 
L 42.10937 164.735274 
L 42.447834 164.888455 
L 44.478616 164.863833 
L 45.155544 164.603757 
L 45.494007 164.771872 
L 46.509398 164.821982 
L 47.186326 164.811948 
L 50.570963 165.079142 
L 50.909427 164.983278 
L 52.263281 165.108079 
L 54.970991 165.198041 
L 82.048088 165.334266 
L 87.463507 165.029635 
L 88.478898 164.789616 
L 89.494289 164.85312 
L 90.848144 164.813771 
L 92.878926 164.911389 
L 94.571245 164.912111 
L 95.248172 165.000062 
L 95.9251 164.919448 
L 96.940491 164.98023 
L 103.371301 164.792344 
L 104.048229 164.156636 
L 104.725156 164.396442 
L 106.079011 164.793814 
L 107.094402 164.804719 
L 107.77133 164.86366 
L 108.448257 164.87348 
L 109.125184 164.94698 
L 110.479039 165.00758 
L 111.155967 165.005691 
L 111.832894 165.004662 
L 112.509822 165.065544 
L 113.186749 165.077367 
L 115.555995 165.143398 
L 120.971414 165.24296 
L 127.740688 165.36274 
L 134.848426 165.278326 
L 141.956164 165.2773 
L 145.340801 165.18059 
L 149.063902 165.042902 
L 151.094684 165.045818 
L 153.125466 164.854904 
L 153.46393 164.979163 
L 154.140858 164.853446 
L 155.833176 165.074259 
L 162.60245 165.248054 
L 163.279378 165.190732 
L 166.664015 165.053885 
L 167.679406 165.067595 
L 169.033261 165.092737 
L 169.371724 164.919001 
L 170.387116 164.893882 
L 171.064043 164.795189 
L 172.417898 164.95805 
L 173.771753 165.003874 
L 174.44868 165.064586 
L 175.464071 165.114092 
L 177.833317 165.228691 
L 191.710329 165.274757 
L 197.125749 165.299896 
L 205.587341 165.252344 
L 208.971978 165.059331 
L 209.987369 165.042683 
L 210.664297 165.08979 
L 211.679688 165.025293 
L 212.695079 165.045838 
L 213.372007 165.075305 
L 214.048934 165.007312 
L 218.110498 165.125941 
L 218.787426 165.047334 
L 219.802817 165.07935 
L 221.495136 165.149451 
L 222.84899 165.105364 
L 225.218236 165.113639 
L 229.956728 165.131281 
L 233.002902 165.238602 
L 234.356756 165.236026 
L 236.049075 165.209369 
L 239.433712 165.266532 
L 240.449103 165.154793 
L 252.97226 165.288564 
L 258.049216 165.262912 
L 265.156954 165.307369 
L 269.556982 165.105371 
L 269.895446 165.054851 
L 270.233909 164.871408 
L 270.910837 164.884843 
L 271.587764 164.785293 
L 272.264692 164.699787 
L 274.295474 164.042633 
L 274.972401 164.144982 
L 275.310865 164.235275 
L 275.649329 164.146552 
L 276.66472 164.304612 
L 277.003184 164.081155 
L 277.341647 164.158341 
L 277.680111 164.092777 
L 278.018575 164.192971 
L 278.357038 164.021376 
L 278.695502 164.12042 
L 279.033966 163.958097 
L 279.37243 164.125485 
L 279.710893 163.997021 
L 280.387821 164.066468 
L 283.433994 163.996461 
L 283.772458 164.210859 
L 284.110921 164.172415 
L 284.787849 164.371555 
L 285.126313 164.452995 
L 285.464776 164.322364 
L 285.80324 164.439287 
L 286.480167 164.318775 
L 286.818631 164.299043 
L 287.157095 164.405452 
L 287.495559 164.305752 
L 288.51095 164.509482 
L 288.849413 164.484641 
L 289.187877 164.607316 
L 292.23405 164.542242 
L 293.587905 164.145522 
L 294.94176 163.400359 
L 295.618688 162.943632 
L 298.326397 161.743715 
L 299.003325 161.537694 
L 300.018716 161.191066 
L 302.049498 160.652242 
L 302.387962 160.446582 
L 303.064889 159.604303 
L 303.403353 158.937337 
L 303.741817 159.233052 
L 304.418744 160.878216 
L 304.757208 160.507825 
L 305.095671 158.676762 
L 305.434135 155.344846 
L 308.480308 115.946722 
L 308.818772 115.365091 
L 309.157236 115.736007 
L 309.834163 119.632271 
L 310.511091 129.572581 
L 311.188018 144.643215 
L 311.526482 149.954341 
L 311.864946 153.153424 
L 312.203409 155.212105 
L 312.880337 157.098687 
L 313.895728 161.675947 
L 314.234192 162.602475 
L 314.572655 162.870594 
L 315.249583 163.196023 
L 316.264974 163.800709 
L 316.603437 164.096936 
L 319.988075 164.922604 
L 321.003466 165.029415 
L 322.018857 165.083923 
L 331.495841 165.268685 
L 340.295897 164.940921 
L 341.988216 165.135786 
L 343.003607 165.1553 
L 350.788272 165.165002 
L 351.465199 165.144544 
L 366.019139 165.259899 
L 370.419167 165.263043 
L 372.449949 165.277154 
L 377.865369 165.335124 
L 380.911542 165.324259 
L 390.388526 165.250636 
L 393.773163 165.057275 
L 394.788554 165.003184 
L 395.465481 164.912886 
L 396.480873 164.567442 
L 396.819336 164.547847 
L 397.1578 164.393971 
L 399.527046 164.745836 
L 400.203973 164.692809 
L 400.542437 164.792271 
L 401.557828 164.703406 
L 401.896292 164.875297 
L 402.911683 164.910269 
L 403.58861 164.938636 
L 404.265538 164.944549 
L 405.619393 165.052304 
L 406.29632 165.022492 
L 407.311711 164.9908 
L 409.342493 164.916791 
L 409.680957 164.831948 
L 410.019421 164.949367 
L 410.696348 164.954424 
L 412.727131 165.0624 
L 413.065594 165.007654 
L 413.404058 165.082971 
L 414.419449 165.027314 
L 416.788695 165.090078 
L 417.804086 165.115395 
L 418.481014 165.127842 
L 425.250288 165.156157 
L 429.311852 165.202106 
L 433.71188 165.205866 
L 435.742663 165.259393 
L 451.311993 165.266543 
L 458.419731 164.942515 
L 459.435122 164.703527 
L 459.773586 164.828888 
L 460.450513 164.540557 
L 462.481296 164.635391 
L 462.819759 164.586317 
L 463.158223 164.708556 
L 463.496687 164.650404 
L 463.83515 164.782421 
L 465.527469 164.717536 
L 466.54286 164.780349 
L 467.219788 164.797149 
L 468.912106 164.874203 
L 470.265961 164.900307 
L 471.619816 164.631249 
L 472.296743 164.072291 
L 472.635207 164.052718 
L 472.973671 164.180703 
L 473.312134 164.137371 
L 473.650598 164.249715 
L 474.327525 163.959592 
L 474.665989 164.118149 
L 475.68138 164.192921 
L 476.358308 164.431816 
L 477.712162 164.835012 
L 478.38909 164.695055 
L 479.404481 164.83653 
L 479.742945 164.651636 
L 480.758336 164.858893 
L 483.804509 164.958144 
L 486.850683 165.145577 
L 494.973812 165.295115 
L 504.112332 165.326366 
L 506.820041 165.30615 
L 509.527751 165.252142 
L 527.466328 165.061406 
L 528.481719 165.112536 
L 531.189428 165.158681 
L 533.220211 165.211986 
L 539.651021 164.984067 
L 540.666412 165.073671 
L 541.34334 165.068785 
L 542.358731 165.073742 
L 544.389513 165.137624 
L 545.404904 165.218728 
L 546.420295 165.257327 
L 549.466469 165.32676 
L 555.220352 165.356642 
L 556.574206 165.369059 
L 556.574206 165.369059 
" clip-path="url(#p1489a9a79f)" style="fill: none; stroke: #1f77b4; stroke-width: 1.5; stroke-linecap: square"/>
   </g>
   <g id="patch_8">
    <path d="M 39.28 167.888 
L 39.28 112.864 
" style="fill: none; stroke: #000000; stroke-width: 2.5; stroke-linejoin: miter; stroke-linecap: square"/>
   </g>
   <g id="patch_9">
    <path d="M 39.28 167.888 
L 556.56 167.888 
" style="fill: none; stroke: #000000; stroke-width: 2.5; stroke-linejoin: miter; stroke-linecap: square"/>
   </g>
  </g>
  <g id="axes_3">
   <g id="patch_10">
    <path d="M 39.28 242.352 
L 556.56 242.352 
L 556.56 187.328 
L 39.28 187.328 
z
" style="fill: #ffffff"/>
   </g>
   <g id="patch_11">
    <path d="M 270.233909 242.352 
L 270.233909 187.328 
L 324.388103 187.328 
L 324.388103 242.352 
z
" clip-path="url(#pd4d69b6dc9)" style="fill: #ff7f50; stroke: #ff7f50; stroke-linejoin: miter"/>
   </g>
   <g id="matplotlib.axis_5"/>
   <g id="matplotlib.axis_6">
    <g id="text_4">
     <!-- Medium $τ$ -->
     <g transform="translate(32.368437 249.28)rotate(-90)scale(0.14 -0.14)">
      <defs>
       <path id="DejaVuSans-4d" d="M 628 4666 
L 1569 4666 
L 2759 1491 
L 3956 4666 
L 4897 4666 
L 4897 0 
L 4281 0 
L 4281 4097 
L 3078 897 
L 2444 897 
L 1241 4097 
L 1241 0 
L 628 0 
L 628 4666 
z
" transform="scale(0.015625)"/>
       <path id="DejaVuSans-65" d="M 3597 1894 
L 3597 1613 
L 953 1613 
Q 991 1019 1311 708 
Q 1631 397 2203 397 
Q 2534 397 2845 478 
Q 3156 559 3463 722 
L 3463 178 
Q 3153 47 2828 -22 
Q 2503 -91 2169 -91 
Q 1331 -91 842 396 
Q 353 884 353 1716 
Q 353 2575 817 3079 
Q 1281 3584 2069 3584 
Q 2775 3584 3186 3129 
Q 3597 2675 3597 1894 
z
M 3022 2063 
Q 3016 2534 2758 2815 
Q 2500 3097 2075 3097 
Q 1594 3097 1305 2825 
Q 1016 2553 972 2059 
L 3022 2063 
z
" transform="scale(0.015625)"/>
       <path id="DejaVuSans-64" d="M 2906 2969 
L 2906 4863 
L 3481 4863 
L 3481 0 
L 2906 0 
L 2906 525 
Q 2725 213 2448 61 
Q 2172 -91 1784 -91 
Q 1150 -91 751 415 
Q 353 922 353 1747 
Q 353 2572 751 3078 
Q 1150 3584 1784 3584 
Q 2172 3584 2448 3432 
Q 2725 3281 2906 2969 
z
M 947 1747 
Q 947 1113 1208 752 
Q 1469 391 1925 391 
Q 2381 391 2643 752 
Q 2906 1113 2906 1747 
Q 2906 2381 2643 2742 
Q 2381 3103 1925 3103 
Q 1469 3103 1208 2742 
Q 947 2381 947 1747 
z
" transform="scale(0.015625)"/>
       <path id="DejaVuSans-69" d="M 603 3500 
L 1178 3500 
L 1178 0 
L 603 0 
L 603 3500 
z
M 603 4863 
L 1178 4863 
L 1178 4134 
L 603 4134 
L 603 4863 
z
" transform="scale(0.015625)"/>
      </defs>
      <use xlink:href="#DejaVuSans-4d" transform="translate(0 0.015625)"/>
      <use xlink:href="#DejaVuSans-65" transform="translate(86.279297 0.015625)"/>
      <use xlink:href="#DejaVuSans-64" transform="translate(147.802734 0.015625)"/>
      <use xlink:href="#DejaVuSans-69" transform="translate(211.279297 0.015625)"/>
      <use xlink:href="#DejaVuSans-75" transform="translate(239.0625 0.015625)"/>
      <use xlink:href="#DejaVuSans-6d" transform="translate(302.441406 0.015625)"/>
      <use xlink:href="#DejaVuSans-20" transform="translate(399.853516 0.015625)"/>
      <use xlink:href="#DejaVuSans-Oblique-3c4" transform="translate(431.640625 0.015625)"/>
     </g>
    </g>
   </g>
   <g id="line2d_3">
    <path d="M 39.063197 239.823375 
L 72.571104 239.842313 
L 101.002055 239.748766 
L 102.35591 239.749857 
L 103.709765 239.743991 
L 104.386693 239.65431 
L 106.755938 239.704015 
L 111.155967 239.722472 
L 114.879067 239.783581 
L 123.679124 239.831898 
L 163.956305 239.785112 
L 173.771753 239.801332 
L 185.956446 239.822363 
L 207.956587 239.839855 
L 272.603155 239.696737 
L 273.618547 239.381069 
L 274.972401 238.7105 
L 280.726284 235.866557 
L 281.741676 235.194136 
L 282.757067 234.460934 
L 284.110921 233.989524 
L 285.80324 234.122492 
L 286.480167 234.34197 
L 287.495559 234.867985 
L 290.203268 236.498081 
L 291.218659 236.896552 
L 291.895587 236.934953 
L 292.572514 236.756171 
L 293.249442 236.299254 
L 293.926369 235.504458 
L 294.603296 234.33444 
L 295.280224 232.721222 
L 296.295615 229.631085 
L 297.311006 225.968261 
L 299.003325 218.678545 
L 302.726425 200.925889 
L 303.741817 195.086189 
L 304.08028 194.158634 
L 304.418744 194.667347 
L 304.757208 196.416383 
L 305.772599 203.310443 
L 306.449526 206.218211 
L 306.78799 207.089879 
L 307.126454 207.255263 
L 307.464917 206.541117 
L 307.803381 204.709149 
L 309.4957 190.366381 
L 309.834163 189.829091 
L 310.172627 190.189757 
L 310.511091 191.47964 
L 311.188018 196.136302 
L 311.864946 201.307089 
L 312.541873 204.853187 
L 312.880337 205.864058 
L 313.557264 206.901714 
L 314.572655 207.383417 
L 314.911119 207.841149 
L 315.249583 208.734451 
L 315.92651 211.698674 
L 317.280365 218.520878 
L 317.957292 220.340224 
L 319.311147 222.751735 
L 319.988075 224.638198 
L 321.680393 229.829717 
L 322.695784 232.395608 
L 323.711175 234.408705 
L 324.726566 235.952903 
L 325.741958 237.114335 
L 326.418885 237.580151 
L 327.095812 237.784919 
L 328.111204 237.732692 
L 330.141986 237.237747 
L 333.188159 236.198264 
L 333.865087 236.160573 
L 334.880478 236.326137 
L 335.895869 236.859331 
L 339.280506 238.856717 
L 340.634361 239.180815 
L 343.34207 239.583915 
L 346.04978 239.77499 
L 355.1883 239.81877 
L 366.357603 239.822393 
L 385.31157 239.843549 
L 458.419731 239.798961 
L 465.189005 239.715802 
L 469.589034 239.653114 
L 483.466046 239.679908 
L 490.912247 239.805756 
L 504.789259 239.841432 
L 548.112614 239.819938 
L 556.574206 239.837546 
L 556.574206 239.837546 
" clip-path="url(#pd4d69b6dc9)" style="fill: none; stroke: #1f77b4; stroke-width: 1.5; stroke-linecap: square"/>
   </g>
   <g id="patch_12">
    <path d="M 39.28 242.352 
L 39.28 187.328 
" style="fill: none; stroke: #000000; stroke-width: 2.5; stroke-linejoin: miter; stroke-linecap: square"/>
   </g>
   <g id="patch_13">
    <path d="M 39.28 242.352 
L 556.56 242.352 
" style="fill: none; stroke: #000000; stroke-width: 2.5; stroke-linejoin: miter; stroke-linecap: square"/>
   </g>
  </g>
  <g id="axes_4">
   <g id="patch_14">
    <path d="M 39.28 316.816 
L 556.56 316.816 
L 556.56 261.792 
L 39.28 261.792 
z
" style="fill: #ffffff"/>
   </g>
   <g id="patch_15">
    <path d="M 270.233909 316.816 
L 270.233909 261.792 
L 324.388103 261.792 
L 324.388103 316.816 
z
" clip-path="url(#p1c17401352)" style="fill: #ff7f50; stroke: #ff7f50; stroke-linejoin: miter"/>
   </g>
   <g id="matplotlib.axis_7"/>
   <g id="matplotlib.axis_8">
    <g id="text_5">
     <!-- Large $τ$ -->
     <g transform="translate(32.34 315.624)rotate(-90)scale(0.14 -0.14)">
      <defs>
       <path id="DejaVuSans-4c" d="M 628 4666 
L 1259 4666 
L 1259 531 
L 3531 531 
L 3531 0 
L 628 0 
L 628 4666 
z
" transform="scale(0.015625)"/>
       <path id="DejaVuSans-72" d="M 2631 2963 
Q 2534 3019 2420 3045 
Q 2306 3072 2169 3072 
Q 1681 3072 1420 2755 
Q 1159 2438 1159 1844 
L 1159 0 
L 581 0 
L 581 3500 
L 1159 3500 
L 1159 2956 
Q 1341 3275 1631 3429 
Q 1922 3584 2338 3584 
Q 2397 3584 2469 3576 
Q 2541 3569 2628 3553 
L 2631 2963 
z
" transform="scale(0.015625)"/>
       <path id="DejaVuSans-67" d="M 2906 1791 
Q 2906 2416 2648 2759 
Q 2391 3103 1925 3103 
Q 1463 3103 1205 2759 
Q 947 2416 947 1791 
Q 947 1169 1205 825 
Q 1463 481 1925 481 
Q 2391 481 2648 825 
Q 2906 1169 2906 1791 
z
M 3481 434 
Q 3481 -459 3084 -895 
Q 2688 -1331 1869 -1331 
Q 1566 -1331 1297 -1286 
Q 1028 -1241 775 -1147 
L 775 -588 
Q 1028 -725 1275 -790 
Q 1522 -856 1778 -856 
Q 2344 -856 2625 -561 
Q 2906 -266 2906 331 
L 2906 616 
Q 2728 306 2450 153 
Q 2172 0 1784 0 
Q 1141 0 747 490 
Q 353 981 353 1791 
Q 353 2603 747 3093 
Q 1141 3584 1784 3584 
Q 2172 3584 2450 3431 
Q 2728 3278 2906 2969 
L 2906 3500 
L 3481 3500 
L 3481 434 
z
" transform="scale(0.015625)"/>
      </defs>
      <use xlink:href="#DejaVuSans-4c" transform="translate(0 0.09375)"/>
      <use xlink:href="#DejaVuSans-61" transform="translate(55.712891 0.09375)"/>
      <use xlink:href="#DejaVuSans-72" transform="translate(116.992188 0.09375)"/>
      <use xlink:href="#DejaVuSans-67" transform="translate(158.105469 0.09375)"/>
      <use xlink:href="#DejaVuSans-65" transform="translate(221.582031 0.09375)"/>
      <use xlink:href="#DejaVuSans-20" transform="translate(283.105469 0.09375)"/>
      <use xlink:href="#DejaVuSans-Oblique-3c4" transform="translate(314.892578 0.09375)"/>
     </g>
    </g>
   </g>
   <g id="line2d_4">
    <path d="M 39.063197 314.293068 
L 231.310583 314.299915 
L 272.264692 314.280112 
L 273.618547 314.138703 
L 274.633938 313.84831 
L 276.326256 313.045684 
L 278.357038 312.073402 
L 279.710893 311.711804 
L 282.080139 311.105035 
L 284.787849 310.144364 
L 286.141704 309.991256 
L 287.157095 310.11187 
L 288.51095 310.537096 
L 290.541732 311.29042 
L 291.557123 311.398672 
L 292.23405 311.290981 
L 292.910978 311.018555 
L 293.587905 310.549023 
L 294.264833 309.858081 
L 294.94176 308.900267 
L 295.957151 306.920397 
L 296.972542 304.265984 
L 297.987934 300.772628 
L 299.003325 296.460497 
L 300.357179 289.514166 
L 302.049498 279.575926 
L 304.418744 264.830305 
L 304.757208 264.293091 
L 305.095671 264.675555 
L 305.434135 265.853786 
L 306.111063 269.610417 
L 306.78799 273.718585 
L 307.126454 275.243928 
L 307.464917 276.141261 
L 307.803381 276.339403 
L 308.141845 275.935398 
L 308.818772 274.706003 
L 309.157236 274.485693 
L 309.4957 274.772756 
L 309.834163 275.4827 
L 310.511091 277.581907 
L 311.526482 281.459233 
L 313.895728 291.519513 
L 314.572655 293.006808 
L 315.92651 295.443484 
L 317.618829 298.866547 
L 318.295756 299.717248 
L 320.326538 301.677181 
L 323.372712 305.414132 
L 324.388103 306.333218 
L 325.403494 306.867634 
L 328.111204 307.731947 
L 329.803522 308.109262 
L 331.495841 308.126184 
L 333.188159 308.127737 
L 334.20355 308.151795 
L 334.542014 308.021844 
L 334.880478 307.763828 
L 335.218941 307.354026 
L 335.895869 305.982284 
L 336.572796 303.836564 
L 338.603578 296.262548 
L 339.280506 294.721353 
L 339.61897 294.258915 
L 339.957433 293.994267 
L 340.295897 293.941032 
L 340.634361 294.052535 
L 341.311288 294.711313 
L 341.988216 295.817902 
L 343.003607 298.127832 
L 347.065171 308.301707 
L 348.080562 309.97751 
L 349.095953 311.1778 
L 350.111345 312.001748 
L 351.126736 312.585334 
L 352.819054 313.233852 
L 354.511373 313.630073 
L 357.219082 313.998436 
L 360.60372 314.207419 
L 366.357603 314.288902 
L 422.204114 314.288928 
L 473.312134 314.223903 
L 488.204537 314.263095 
L 509.189287 314.304719 
L 537.281775 314.267959 
L 556.574206 314.301176 
L 556.574206 314.301176 
" clip-path="url(#p1c17401352)" style="fill: none; stroke: #1f77b4; stroke-width: 1.5; stroke-linecap: square"/>
   </g>
   <g id="patch_16">
    <path d="M 39.28 316.816 
L 39.28 261.792 
" style="fill: none; stroke: #000000; stroke-width: 2.5; stroke-linejoin: miter; stroke-linecap: square"/>
   </g>
   <g id="patch_17">
    <path d="M 39.28 316.816 
L 556.56 316.816 
" style="fill: none; stroke: #000000; stroke-width: 2.5; stroke-linejoin: miter; stroke-linecap: square"/>
   </g>
  </g>
  <g id="axes_5">
   <g id="patch_18">
    <path d="M 39.28 391.28 
L 556.56 391.28 
L 556.56 336.256 
L 39.28 336.256 
z
" style="fill: #ffffff"/>
   </g>
   <g id="patch_19">
    <path d="M 270.233909 391.28 
L 270.233909 336.256 
L 324.388103 336.256 
L 324.388103 391.28 
z
" clip-path="url(#pa06daa0ddd)" style="fill: #ff7f50; stroke: #ff7f50; stroke-linejoin: miter"/>
   </g>
   <g id="matplotlib.axis_9">
    <g id="text_6">
     <!-- Time -->
     <g transform="translate(275.899531 408.957187)scale(0.18 -0.18)">
      <defs>
       <path id="DejaVuSans-54" d="M -19 4666 
L 3928 4666 
L 3928 4134 
L 2272 4134 
L 2272 0 
L 1638 0 
L 1638 4134 
L -19 4134 
L -19 4666 
z
" transform="scale(0.015625)"/>
      </defs>
      <use xlink:href="#DejaVuSans-54"/>
      <use xlink:href="#DejaVuSans-69" x="57.958984"/>
      <use xlink:href="#DejaVuSans-6d" x="85.742188"/>
      <use xlink:href="#DejaVuSans-65" x="183.154297"/>
     </g>
    </g>
   </g>
   <g id="matplotlib.axis_10">
    <g id="text_7">
     <!-- Mixed $τ$ -->
     <g transform="translate(32.368437 391.138)rotate(-90)scale(0.14 -0.14)">
      <defs>
       <path id="DejaVuSans-78" d="M 3513 3500 
L 2247 1797 
L 3578 0 
L 2900 0 
L 1881 1375 
L 863 0 
L 184 0 
L 1544 1831 
L 300 3500 
L 978 3500 
L 1906 2253 
L 2834 3500 
L 3513 3500 
z
" transform="scale(0.015625)"/>
      </defs>
      <use xlink:href="#DejaVuSans-4d" transform="translate(0 0.015625)"/>
      <use xlink:href="#DejaVuSans-69" transform="translate(86.279297 0.015625)"/>
      <use xlink:href="#DejaVuSans-78" transform="translate(114.0625 0.015625)"/>
      <use xlink:href="#DejaVuSans-65" transform="translate(173.242188 0.015625)"/>
      <use xlink:href="#DejaVuSans-64" transform="translate(234.765625 0.015625)"/>
      <use xlink:href="#DejaVuSans-20" transform="translate(298.242188 0.015625)"/>
      <use xlink:href="#DejaVuSans-Oblique-3c4" transform="translate(330.029297 0.015625)"/>
     </g>
    </g>
   </g>
   <g id="line2d_5">
    <path d="M 39.063197 388.750697 
L 103.709765 388.66758 
L 104.048229 388.574633 
L 106.417475 388.637221 
L 121.986805 388.75586 
L 143.648483 388.766662 
L 230.633656 388.752554 
L 246.202986 388.769034 
L 271.926228 388.717916 
L 273.280083 388.490165 
L 274.633938 387.923144 
L 280.387821 384.793468 
L 283.772458 382.154359 
L 284.449385 381.966778 
L 285.464776 381.904478 
L 286.480167 382.065025 
L 287.834022 382.669723 
L 289.187877 383.69838 
L 290.880196 385.11108 
L 291.557123 385.414705 
L 292.23405 385.42552 
L 292.572514 385.310428 
L 293.249442 384.755114 
L 293.926369 383.770044 
L 294.603296 382.330177 
L 295.618688 379.184548 
L 296.634079 375.284724 
L 297.987934 369.034895 
L 303.741817 339.294857 
L 304.08028 338.757091 
L 304.418744 339.757234 
L 305.095671 344.955562 
L 305.772599 350.267923 
L 306.449526 353.349889 
L 306.78799 354.051751 
L 307.126454 353.889639 
L 307.464917 352.982276 
L 307.803381 351.402854 
L 308.480308 347.257903 
L 308.818772 346.080991 
L 309.157236 345.686594 
L 309.4957 346.552415 
L 310.849554 352.598258 
L 311.526482 354.053163 
L 312.541873 355.637793 
L 313.2188 357.580029 
L 314.234192 360.575211 
L 315.249583 362.878965 
L 315.92651 365.060384 
L 318.295756 374.058025 
L 319.649611 377.807129 
L 321.003466 381.001453 
L 322.018857 382.689177 
L 322.695784 383.517802 
L 323.372712 384.072301 
L 324.726566 384.961192 
L 326.080421 385.821475 
L 327.095812 386.215718 
L 328.111204 386.318375 
L 329.126595 386.135639 
L 330.141986 385.770965 
L 332.172768 384.778788 
L 333.188159 384.56862 
L 334.20355 384.653041 
L 334.880478 384.775374 
L 336.234333 385.394137 
L 338.265115 386.711465 
L 339.957433 387.341068 
L 346.726707 388.546307 
L 349.434417 388.70329 
L 356.542155 388.743571 
L 367.711457 388.744613 
L 373.126877 388.762296 
L 391.742381 388.77202 
L 409.00403 388.754509 
L 412.388667 388.751395 
L 430.665707 388.755282 
L 441.496546 388.765573 
L 460.11205 388.706928 
L 472.973671 388.603274 
L 489.896856 388.727484 
L 517.989344 388.761723 
L 550.48186 388.751775 
L 556.574206 388.764073 
L 556.574206 388.764073 
" clip-path="url(#pa06daa0ddd)" style="fill: none; stroke: #1f77b4; stroke-width: 1.5; stroke-linecap: square"/>
   </g>
   <g id="patch_20">
    <path d="M 39.28 391.28 
L 39.28 336.256 
" style="fill: none; stroke: #000000; stroke-width: 2.5; stroke-linejoin: miter; stroke-linecap: square"/>
   </g>
   <g id="patch_21">
    <path d="M 39.28 391.28 
L 556.56 391.28 
" style="fill: none; stroke: #000000; stroke-width: 2.5; stroke-linejoin: miter; stroke-linecap: square"/>
   </g>
  </g>
 </g>
 <defs>
  <clipPath id="pa91ddcd0f0">
   <rect x="39.28" y="38.4" width="517.28" height="55.024"/>
  </clipPath>
  <clipPath id="p1489a9a79f">
   <rect x="39.28" y="112.864" width="517.28" height="55.024"/>
  </clipPath>
  <clipPath id="pd4d69b6dc9">
   <rect x="39.28" y="187.328" width="517.28" height="55.024"/>
  </clipPath>
  <clipPath id="p1c17401352">
   <rect x="39.28" y="261.792" width="517.28" height="55.024"/>
  </clipPath>
  <clipPath id="pa06daa0ddd">
   <rect x="39.28" y="336.256" width="517.28" height="55.024"/>
  </clipPath>
 </defs>
</svg>
