<?xml version="1.0" encoding="utf-8" standalone="no"?>
<!DOCTYPE svg PUBLIC "-//W3C//DTD SVG 1.1//EN"
  "http://www.w3.org/Graphics/SVG/1.1/DTD/svg11.dtd">
<svg xmlns:xlink="http://www.w3.org/1999/xlink" width="1152pt" height="288pt" viewBox="0 0 1152 288" xmlns="http://www.w3.org/2000/svg" version="1.1">
 <metadata>
  <rdf:RDF xmlns:dc="http://purl.org/dc/elements/1.1/" xmlns:cc="http://creativecommons.org/ns#" xmlns:rdf="http://www.w3.org/1999/02/22-rdf-syntax-ns#">
   <cc:Work>
    <dc:type rdf:resource="http://purl.org/dc/dcmitype/StillImage"/>
    <dc:date>2024-04-18T15:40:28.805774</dc:date>
    <dc:format>image/svg+xml</dc:format>
    <dc:creator>
     <cc:Agent>
      <dc:title>Matplotlib v3.5.1, https://matplotlib.org/</dc:title>
     </cc:Agent>
    </dc:creator>
   </cc:Work>
  </rdf:RDF>
 </metadata>
 <defs>
  <style type="text/css">*{stroke-linejoin: round; stroke-linecap: butt}</style>
 </defs>
 <g id="figure_1">
  <g id="patch_1">
   <path d="M 0 288 
L 1152 288 
L 1152 0 
L 0 0 
z
" style="fill: #ffffff"/>
  </g>
  <g id="axes_1">
   <g id="patch_2">
    <path d="M 144 99.783529 
L 1036.8 99.783529 
L 1036.8 34.56 
L 144 34.56 
z
" style="fill: #ffffff"/>
   </g>
   <g id="patch_3">
    <path d="M 923.729075 99.783529 
L 923.729075 34.56 
L 962.148302 34.56 
L 962.148302 99.783529 
z
" clip-path="url(#pbbcda14db4)" style="fill: #ff7f50; stroke: #ff7f50; stroke-linejoin: miter"/>
   </g>
   <g id="matplotlib.axis_1"/>
   <g id="matplotlib.axis_2">
    <g id="text_1">
     <!-- Input -->
     <g transform="translate(137.088437 85.29739)rotate(-90)scale(0.14 -0.14)">
      <defs>
       <path id="DejaVuSans-49" d="M 628 4666 
L 1259 4666 
L 1259 0 
L 628 0 
L 628 4666 
z
" transform="scale(0.015625)"/>
       <path id="DejaVuSans-6e" d="M 3513 2113 
L 3513 0 
L 2938 0 
L 2938 2094 
Q 2938 2591 2744 2837 
Q 2550 3084 2163 3084 
Q 1697 3084 1428 2787 
Q 1159 2491 1159 1978 
L 1159 0 
L 581 0 
L 581 3500 
L 1159 3500 
L 1159 2956 
Q 1366 3272 1645 3428 
Q 1925 3584 2291 3584 
Q 2894 3584 3203 3211 
Q 3513 2838 3513 2113 
z
" transform="scale(0.015625)"/>
       <path id="DejaVuSans-70" d="M 1159 525 
L 1159 -1331 
L 581 -1331 
L 581 3500 
L 1159 3500 
L 1159 2969 
Q 1341 3281 1617 3432 
Q 1894 3584 2278 3584 
Q 2916 3584 3314 3078 
Q 3713 2572 3713 1747 
Q 3713 922 3314 415 
Q 2916 -91 2278 -91 
Q 1894 -91 1617 61 
Q 1341 213 1159 525 
z
M 3116 1747 
Q 3116 2381 2855 2742 
Q 2594 3103 2138 3103 
Q 1681 3103 1420 2742 
Q 1159 2381 1159 1747 
Q 1159 1113 1420 752 
Q 1681 391 2138 391 
Q 2594 391 2855 752 
Q 3116 1113 3116 1747 
z
" transform="scale(0.015625)"/>
       <path id="DejaVuSans-75" d="M 544 1381 
L 544 3500 
L 1119 3500 
L 1119 1403 
Q 1119 906 1312 657 
Q 1506 409 1894 409 
Q 2359 409 2629 706 
Q 2900 1003 2900 1516 
L 2900 3500 
L 3475 3500 
L 3475 0 
L 2900 0 
L 2900 538 
Q 2691 219 2414 64 
Q 2138 -91 1772 -91 
Q 1169 -91 856 284 
Q 544 659 544 1381 
z
M 1991 3584 
L 1991 3584 
z
" transform="scale(0.015625)"/>
       <path id="DejaVuSans-74" d="M 1172 4494 
L 1172 3500 
L 2356 3500 
L 2356 3053 
L 1172 3053 
L 1172 1153 
Q 1172 725 1289 603 
Q 1406 481 1766 481 
L 2356 481 
L 2356 0 
L 1766 0 
Q 1100 0 847 248 
Q 594 497 594 1153 
L 594 3053 
L 172 3053 
L 172 3500 
L 594 3500 
L 594 4494 
L 1172 4494 
z
" transform="scale(0.015625)"/>
      </defs>
      <use xlink:href="#DejaVuSans-49"/>
      <use xlink:href="#DejaVuSans-6e" x="29.492188"/>
      <use xlink:href="#DejaVuSans-70" x="92.871094"/>
      <use xlink:href="#DejaVuSans-75" x="156.347656"/>
      <use xlink:href="#DejaVuSans-74" x="219.726562"/>
     </g>
    </g>
   </g>
   <g id="line2d_1">
    <path d="M 184.581818 44.496776 
L 185.306709 47.339221 
L 186.273231 53.167681 
L 188.206274 65.676343 
L 190.380947 74.38552 
L 191.105838 76.629816 
L 192.79725 79.625389 
L 194.488663 82.00845 
L 194.730293 82.132864 
L 195.213554 83.065983 
L 195.455184 83.233474 
L 195.696815 83.640222 
L 195.938445 83.817272 
L 196.180075 84.204877 
L 196.663336 84.487211 
L 196.904966 84.798247 
L 197.146597 84.822181 
L 197.388227 85.315058 
L 197.871488 85.492121 
L 198.113118 85.965855 
L 198.354748 85.975426 
L 198.596379 86.18119 
L 198.838009 86.229047 
L 199.07964 86.525731 
L 199.32127 86.382175 
L 199.5629 86.669288 
L 200.529422 87.061685 
L 200.771052 86.975544 
L 201.012682 87.166957 
L 201.254313 87.090399 
L 201.495943 87.224385 
L 201.737573 87.210022 
L 201.979204 87.458862 
L 202.704095 87.458862 
L 202.945725 87.664626 
L 203.670616 87.702911 
L 203.912247 87.956531 
L 204.153877 87.832105 
L 204.637138 87.856039 
L 204.878768 88.176646 
L 205.845289 88.353708 
L 206.32855 88.770015 
L 206.570181 88.827443 
L 206.811811 89.009285 
L 207.053441 88.994921 
L 207.295072 89.329891 
L 207.778332 89.277255 
L 208.261593 89.837131 
L 208.744854 89.971117 
L 209.711375 90.67455 
L 209.953005 90.722406 
L 212.127679 92.354178 
L 212.369309 92.760926 
L 212.85257 92.957119 
L 213.33583 93.612707 
L 213.577461 93.674915 
L 213.819091 93.909392 
L 214.060722 93.842393 
L 214.785613 94.469268 
L 215.268873 94.440554 
L 215.993764 93.521787 
L 217.201916 87.530641 
L 219.134959 73.45718 
L 220.10148 66.408489 
L 221.551263 58.503238 
L 221.792893 57.751961 
L 222.517784 54.799453 
L 223.725936 49.746217 
L 224.692457 45.391622 
L 225.658979 41.66394 
L 226.6255 39.11808 
L 227.108761 38.390763 
L 227.350391 38.122817 
L 227.833652 38.175503 
L 228.075282 38.319009 
L 228.558543 39.180299 
L 229.525064 42.659241 
L 230.249955 47.018615 
L 231.216477 54.153435 
L 232.424629 62.494149 
L 234.357671 71.543075 
L 235.324193 74.38074 
L 236.049084 75.797177 
L 236.290714 76.060369 
L 236.532345 76.701594 
L 236.773975 76.888215 
L 237.015605 77.491156 
L 237.257236 77.610791 
L 237.498866 77.883553 
L 237.982127 78.668336 
L 238.707018 79.280848 
L 238.948648 79.88858 
L 239.190278 80.022566 
L 239.91517 81.060968 
L 241.364952 82.558755 
L 241.606582 82.525249 
L 242.331473 83.391381 
L 243.056364 83.841194 
L 244.506146 84.621197 
L 244.747777 84.592483 
L 245.231037 85.013594 
L 245.714298 85.16193 
L 245.955928 84.970517 
L 246.439189 85.549536 
L 246.92245 85.367694 
L 247.405711 85.779234 
L 247.647341 85.693092 
L 247.888971 85.884506 
L 248.372232 85.980218 
L 248.855493 86.363032 
L 249.097123 86.401317 
L 249.338753 86.324747 
L 251.030166 87.056894 
L 251.271796 87.43972 
L 251.755057 87.602419 
L 251.996687 87.970882 
L 252.238318 87.86561 
L 252.479948 88.009167 
L 252.721578 88.363267 
L 252.963209 88.401552 
L 253.6881 88.994921 
L 253.92973 88.923143 
L 254.171361 89.392098 
L 254.412991 89.349034 
L 254.654621 89.73186 
L 255.621143 90.382657 
L 255.862773 90.650628 
L 256.587664 90.904248 
L 256.829294 91.354061 
L 257.312555 91.631603 
L 258.520707 93.22031 
L 258.762337 93.282517 
L 259.003968 93.641421 
L 259.245598 93.636629 
L 259.970489 93.995521 
L 260.212119 93.909392 
L 260.45375 93.641421 
L 260.93701 92.765718 
L 261.661902 89.329891 
L 262.145162 86.25776 
L 262.870053 81.056176 
L 265.044727 65.21218 
L 266.977769 55.770856 
L 267.70266 53.311237 
L 269.635703 45.118872 
L 269.877334 44.549425 
L 270.360594 42.553969 
L 271.327116 39.902975 
L 271.568746 39.338232 
L 271.810376 39.266479 
L 272.052007 39.008066 
L 272.535268 38.936313 
L 272.776898 38.97934 
L 273.501789 40.276167 
L 273.743419 40.94139 
L 274.709941 45.415557 
L 276.642984 59.742625 
L 277.367875 63.929728 
L 277.851135 66.647759 
L 279.300917 72.873382 
L 280.7507 76.471896 
L 282.442112 79.237783 
L 282.683742 79.505754 
L 282.925373 79.969917 
L 283.167003 80.166122 
L 283.408634 80.568079 
L 283.650264 80.706856 
L 283.891894 81.300225 
L 285.824937 83.592365 
L 286.066567 83.731143 
L 286.308198 84.338863 
L 286.549828 84.410641 
L 287.75798 85.405979 
L 288.966132 85.827078 
L 289.207762 86.152476 
L 289.449392 86.157268 
L 289.691023 86.439602 
L 290.174283 86.458732 
L 290.657544 86.564016 
L 290.899175 86.860701 
L 291.140805 86.745858 
L 291.382435 86.975544 
L 292.107326 87.004258 
L 292.348957 87.621562 
L 292.590587 87.253086 
L 292.832217 87.530641 
L 293.073848 87.334436 
L 293.315478 87.640704 
L 293.557108 87.578485 
L 293.798739 87.836897 
L 294.040369 87.707691 
L 294.282 87.836897 
L 294.52363 88.152724 
L 295.006891 88.195788 
L 295.248521 88.339345 
L 295.731782 88.329774 
L 295.973412 88.659952 
L 296.215042 88.717379 
L 296.939933 89.349034 
L 297.181564 89.262905 
L 297.906455 89.932832 
L 298.389716 89.995051 
L 298.872976 90.564486 
L 299.114607 90.636265 
L 302.980692 94.009884 
L 303.463953 94.440554 
L 304.188844 94.957366 
L 304.430474 94.938223 
L 304.672105 95.210986 
L 305.396996 95.033924 
L 305.638626 94.660681 
L 306.363517 92.564734 
L 308.05493 83.013347 
L 309.746342 72.246507 
L 310.954494 66.078312 
L 311.437755 64.03022 
L 311.921015 62.470227 
L 314.578949 53.789764 
L 315.545471 51.076512 
L 315.787101 50.741543 
L 316.270362 49.865839 
L 316.753623 49.248548 
L 316.995253 49.43039 
L 317.236883 49.325106 
L 317.478514 49.655296 
L 318.203405 51.334924 
L 319.653187 58.838207 
L 320.378078 62.85304 
L 321.344599 67.379906 
L 322.552751 72.782462 
L 323.036012 74.30417 
L 323.760903 76.950422 
L 324.002533 77.26625 
L 324.969055 79.706738 
L 325.210685 80.027345 
L 326.660467 82.94636 
L 326.902097 83.324395 
L 327.143728 84.090034 
L 327.385358 84.353226 
L 327.626989 84.803039 
L 327.868619 84.960946 
L 328.110249 85.7553 
L 328.35188 86.032854 
L 328.59351 86.583159 
L 329.076771 87.009037 
L 329.560031 87.726833 
L 329.801662 87.951739 
L 330.043292 88.406344 
L 330.284922 88.339345 
L 331.009814 89.23897 
L 331.251444 89.463877 
L 331.493074 89.459097 
L 331.976335 89.90413 
L 332.942856 90.492708 
L 333.184487 90.425721 
L 333.426117 90.621914 
L 333.667747 90.545356 
L 334.392639 91.105232 
L 334.634269 91.023883 
L 334.875899 91.234426 
L 335.11753 90.794184 
L 335.60079 91.306204 
L 335.842421 91.425839 
L 336.325681 91.344489 
L 336.808942 91.535902 
L 337.050572 91.325347 
L 337.292203 91.526331 
L 337.533833 91.440189 
L 338.500355 91.674667 
L 338.741985 91.53111 
L 338.983615 91.756017 
L 339.225246 91.684238 
L 339.950137 91.971364 
L 340.433397 92.129272 
L 340.675028 92.287192 
L 340.916658 92.258478 
L 341.158288 92.512098 
L 341.399919 92.349399 
L 341.88318 92.622161 
L 342.36644 92.952339 
L 342.608071 92.861418 
L 342.849701 93.100675 
L 343.091331 92.990624 
L 343.332962 93.339945 
L 343.574592 93.201167 
L 343.816222 93.526566 
L 344.299483 93.698836 
L 344.541113 94.038586 
L 345.507635 94.521904 
L 346.232526 95.191844 
L 346.715787 95.421529 
L 346.957417 95.799564 
L 347.199047 95.789992 
L 347.440678 96.115391 
L 347.682308 95.947912 
L 347.923938 96.407296 
L 348.407199 96.522139 
L 348.648829 96.569995 
L 348.89046 96.766188 
L 349.13209 96.818824 
L 349.615351 96.168039 
L 350.098612 94.612825 
L 350.581872 92.746575 
L 351.790024 85.889297 
L 353.239806 76.294846 
L 354.689588 68.135974 
L 355.65611 64.647512 
L 356.622631 61.939065 
L 357.105892 60.292929 
L 357.589153 58.871701 
L 358.555674 55.670364 
L 359.280565 53.43086 
L 359.763826 52.440313 
L 360.247087 51.478481 
L 360.488717 51.296639 
L 360.730347 50.885112 
L 360.971978 50.95689 
L 361.213608 50.851606 
L 361.455238 51.100447 
L 361.696869 51.023877 
L 362.66339 54.029021 
L 363.388281 57.507912 
L 364.354803 63.087518 
L 365.079694 66.781744 
L 365.321324 67.456463 
L 365.804585 69.853888 
L 367.012736 74.883189 
L 367.495997 76.347482 
L 367.979258 77.792633 
L 368.945779 80.257043 
L 369.67067 81.534703 
L 369.912301 82.209422 
L 370.153931 82.448691 
L 371.603713 85.410771 
L 371.845344 85.611743 
L 373.053495 87.497135 
L 374.261647 88.980571 
L 374.503277 88.956649 
L 374.744908 89.162413 
L 374.986538 89.545226 
L 375.228169 89.578732 
L 375.469799 90.033324 
L 376.43632 90.530993 
L 376.919581 90.827678 
L 377.161211 90.885105 
L 377.402842 91.119583 
L 377.886102 91.220075 
L 378.127733 91.354061 
L 378.369363 91.229646 
L 378.610994 91.35884 
L 378.852624 91.315775 
L 379.335885 91.578967 
L 380.060776 91.559824 
L 380.302406 91.559824 
L 380.544036 91.401917 
L 380.785667 91.665108 
L 381.268927 91.564616 
L 381.752188 91.736887 
L 382.235449 91.641174 
L 383.443601 92.167557 
L 383.685231 91.86608 
L 383.926861 92.210621 
L 384.168492 92.172336 
L 385.135013 92.655655 
L 385.376643 92.521669 
L 385.618274 92.689148 
L 385.859904 92.55037 
L 386.343165 93.12461 
L 386.584795 93.110247 
L 387.309686 93.512215 
L 387.792947 93.670123 
L 388.034577 93.914171 
L 388.276208 93.976379 
L 388.517838 93.9046 
L 388.759468 94.048157 
L 389.001099 94.39749 
L 389.48436 94.608033 
L 389.72599 94.995639 
L 389.96762 94.933431 
L 390.692511 95.627293 
L 390.934142 95.890484 
L 391.175772 95.789992 
L 391.659033 96.249389 
L 391.900663 96.27809 
L 392.142293 96.493425 
L 392.383924 96.412075 
L 392.625554 96.550853 
L 392.867184 96.431218 
L 393.350445 95.785213 
L 394.075336 93.091116 
L 394.800227 89.028427 
L 396.008379 80.984398 
L 398.424683 65.834263 
L 399.632834 61.398318 
L 400.357726 59.09662 
L 400.840986 57.254292 
L 401.082617 56.665702 
L 401.807508 53.674908 
L 402.290768 51.961787 
L 403.25729 48.908786 
L 403.49892 48.554686 
L 403.74055 47.774683 
L 404.707072 46.219482 
L 404.948702 46.492232 
L 405.190333 46.348675 
L 405.431963 46.784137 
L 405.673593 46.889409 
L 406.640115 49.535661 
L 409.539679 66.561617 
L 410.5062 71.270312 
L 410.989461 73.308844 
L 411.714352 75.715827 
L 412.197613 77.165758 
L 413.164134 79.38134 
L 413.889025 80.697285 
L 414.130656 80.92697 
L 414.372286 81.639974 
L 414.613916 81.922308 
L 414.855547 82.424769 
L 415.097177 82.630533 
L 415.822068 83.932115 
L 416.305329 84.587703 
L 417.03022 85.487329 
L 417.27185 85.630885 
L 417.996741 86.473096 
L 418.238372 86.683639 
L 418.480002 87.099958 
L 420.171415 88.363267 
L 421.621197 88.841793 
L 421.862827 89.119348 
L 422.104457 89.119348 
L 422.346088 89.282047 
L 422.829349 89.234191 
L 423.070979 89.401669 
L 423.312609 89.23897 
L 424.279131 89.597874 
L 424.520761 89.554797 
L 424.762391 89.679224 
L 425.245652 89.631368 
L 426.695434 89.82756 
L 426.937065 90.042895 
L 427.903586 90.239088 
L 428.145216 90.540564 
L 428.386847 90.507071 
L 429.594999 91.095661 
L 429.836629 91.138725 
L 430.078259 91.306204 
L 430.31989 91.703381 
L 430.56152 91.454553 
L 431.528041 92.344607 
L 432.977823 93.225102 
L 433.219454 93.263374 
L 433.461084 93.579202 
L 433.702715 93.607916 
L 434.185975 94.296998 
L 434.910866 94.684603 
L 435.152497 95.086559 
L 435.635757 95.215765 
L 436.119018 95.555515 
L 436.602279 95.426321 
L 437.08554 95.158338 
L 437.810431 92.909275 
L 438.293691 90.382657 
L 439.018582 85.913219 
L 442.159777 65.322243 
L 442.884668 62.039544 
L 443.367929 60.192437 
L 444.33445 56.72313 
L 446.750754 47.186094 
L 447.958906 44.085249 
L 448.442166 43.530165 
L 448.925427 43.171261 
L 449.167057 43.199974 
L 449.408688 43.343531 
L 449.891948 44.013471 
L 450.133579 44.630774 
L 451.1001 48.837008 
L 451.824991 53.287303 
L 453.033143 61.38876 
L 453.516404 64.03022 
L 454.724555 69.963939 
L 455.449447 72.859032 
L 456.174338 75.275586 
L 456.415968 75.691906 
L 456.899229 77.026993 
L 459.073902 80.673363 
L 459.315532 80.644649 
L 460.765314 83.032489 
L 461.248575 83.467951 
L 462.698357 85.061438 
L 462.939988 85.085373 
L 463.423248 85.726598 
L 463.664879 85.764871 
L 464.6314 86.406097 
L 465.114661 86.573588 
L 465.356291 86.784131 
L 465.597921 86.779351 
L 465.839552 87.071257 
L 466.081182 87.133464 
L 466.322813 86.989907 
L 466.564443 87.324877 
L 466.806073 87.272229 
L 467.047704 87.458862 
L 467.289334 87.444499 
L 467.530964 87.272229 
L 468.255855 87.640704 
L 468.739116 87.69334 
L 468.980746 87.856039 
L 469.222377 87.78904 
L 470.188898 87.94696 
L 470.430529 87.927817 
L 470.672159 88.30106 
L 470.913789 88.128789 
L 471.15542 88.406344 
L 471.63868 88.516395 
L 471.880311 88.817871 
L 472.121941 88.7126 
L 473.088462 89.39689 
L 473.330093 89.219828 
L 473.571723 89.32032 
L 474.054984 89.65051 
L 474.296614 89.698354 
L 475.746396 90.870742 
L 475.988027 90.870742 
L 476.471287 91.33971 
L 476.712918 91.425839 
L 477.92107 92.63172 
L 478.1627 92.751355 
L 478.40433 93.110247 
L 479.129221 93.588773 
L 479.370852 93.990742 
L 479.854112 94.163012 
L 480.337373 94.502761 
L 480.579003 94.708525 
L 480.820634 94.277855 
L 481.062264 94.167792 
L 481.545525 93.306452 
L 482.512046 88.47333 
L 483.236937 83.826843 
L 485.894871 64.614018 
L 486.861393 59.532069 
L 489.036066 50.507065 
L 490.002587 46.162054 
L 490.727478 43.142547 
L 490.969109 42.443906 
L 491.210739 41.276322 
L 491.452369 40.792991 
L 491.694 40.012988 
L 492.902152 38.266323 
L 493.385412 38.385996 
L 493.627043 38.615682 
L 494.351934 40.204414 
L 494.835194 41.898393 
L 495.801716 47.650269 
L 497.976389 62.819547 
L 499.909432 71.988108 
L 501.359214 75.634478 
L 501.600844 75.811528 
L 501.842475 76.50061 
L 502.084105 76.615453 
L 502.567366 77.414598 
L 503.050627 78.036681 
L 503.292257 78.20416 
L 503.533887 78.854957 
L 503.775518 79.017656 
L 504.258778 79.788088 
L 504.500409 79.936424 
L 504.742039 80.429314 
L 504.983669 80.558507 
L 506.675082 82.553963 
L 506.916712 82.482184 
L 507.399973 83.104268 
L 507.883234 83.501444 
L 508.124864 83.568443 
L 508.366494 83.841194 
L 508.608125 83.855557 
L 508.849755 84.104385 
L 509.333016 84.319733 
L 509.574646 84.726468 
L 509.816276 84.578132 
L 510.057907 84.635547 
L 510.299537 85.008802 
L 510.541168 84.798247 
L 511.507689 85.286344 
L 511.749319 85.204995 
L 511.99095 85.67395 
L 512.23258 85.425122 
L 512.47421 85.664379 
L 513.440732 85.57825 
L 513.682362 85.7553 
L 513.923993 86.243397 
L 514.407253 86.219475 
L 515.373775 86.621432 
L 515.615405 86.908557 
L 515.857035 86.827208 
L 516.340296 87.128672 
L 516.581926 87.166957 
L 516.823557 87.487564 
L 517.306818 87.573705 
L 517.548448 87.736404 
L 517.790078 88.095296 
L 518.031709 88.186217 
L 518.273339 88.540329 
L 518.514969 88.588186 
L 518.7566 88.449408 
L 518.99823 88.760444 
L 519.723121 89.195906 
L 520.448012 89.98548 
L 520.689642 89.794067 
L 521.172903 90.41615 
L 521.414534 90.454435 
L 521.656164 90.899456 
L 522.139425 91.162647 
L 522.381055 91.397125 
L 522.622685 91.411488 
L 523.589207 92.698719 
L 523.830837 92.732212 
L 524.314098 93.282517 
L 524.555728 93.359087 
L 524.797359 93.7132 
L 525.038989 93.598344 
L 525.52225 93.89025 
L 526.00551 93.311231 
L 526.247141 92.803991 
L 526.730401 91.014311 
L 527.455292 87.224385 
L 531.321378 59.503355 
L 532.2879 55.493314 
L 532.52953 54.775518 
L 533.012791 52.981047 
L 535.670725 42.013236 
L 536.153985 40.572839 
L 536.878876 38.663601 
L 537.120507 38.744888 
L 537.603767 38.14201 
L 537.845398 38.27109 
L 538.087028 38.247256 
L 538.570289 38.854901 
L 539.29518 41.022677 
L 540.261701 46.147703 
L 542.919635 64.791081 
L 543.161266 65.843834 
L 543.644526 68.600137 
L 544.369417 71.528724 
L 545.335939 74.89276 
L 547.510612 78.429066 
L 547.993873 78.797529 
L 548.235503 79.520105 
L 548.477133 79.582324 
L 548.960394 80.558507 
L 549.202024 80.74992 
L 549.685285 81.520352 
L 549.926915 81.620844 
L 550.168546 82.10415 
L 550.651807 82.506106 
L 551.135067 83.137761 
L 552.584849 84.448926 
L 552.82648 84.846103 
L 553.551371 85.24328 
L 553.793001 85.549536 
L 554.034632 85.449044 
L 554.759523 85.602172 
L 555.242783 86.00892 
L 555.484414 86.018491 
L 555.967674 86.319968 
L 556.209305 86.473096 
L 556.450935 86.43481 
L 556.692565 86.702781 
L 556.934196 86.59751 
L 557.659087 87.195671 
L 558.142348 87.166957 
L 558.625608 87.2818 
L 559.108869 87.444499 
L 559.350499 87.348799 
L 561.041912 88.272359 
L 561.283542 88.21971 
L 561.525173 88.305852 
L 561.766803 88.707808 
L 562.008433 88.674315 
L 562.250064 88.937506 
L 562.491694 88.96622 
L 562.974955 89.497382 
L 563.216585 89.626576 
L 563.458215 89.569161 
L 563.941476 90.133816 
L 564.183106 90.152959 
L 565.149628 90.865963 
L 566.59941 92.291971 
L 567.082671 92.478592 
L 567.565931 93.253816 
L 568.290822 93.938106 
L 568.532453 93.98595 
L 569.257344 94.852082 
L 569.498974 94.847302 
L 569.982235 95.230116 
L 570.707126 95.08178 
L 570.948756 95.196623 
L 571.915278 92.172336 
L 572.398539 89.90891 
L 573.36506 84.137891 
L 576.506255 65.355736 
L 577.956037 60.221151 
L 580.13071 52.933203 
L 581.338862 49.817995 
L 582.063753 48.659958 
L 582.547013 48.525973 
L 582.788644 48.382416 
L 583.271905 49.148056 
L 583.755165 50.406573 
L 584.238426 52.512092 
L 584.721687 54.976502 
L 585.204947 57.890726 
L 585.446578 58.953063 
L 585.929838 61.934273 
L 588.829403 74.940616 
L 589.795924 77.687348 
L 590.762446 79.917282 
L 591.004076 80.247472 
L 592.212228 82.711883 
L 593.420379 85.080581 
L 593.66201 85.224137 
L 594.386901 86.300825 
L 594.870162 86.884623 
L 595.595053 87.990025 
L 596.078313 88.449408 
L 596.561574 88.827443 
L 596.803204 88.923143 
L 597.044835 89.416033 
L 597.286465 89.162413 
L 597.528095 89.57394 
L 597.769726 89.47824 
L 598.252987 89.770132 
L 598.736247 90.009402 
L 598.977878 90.349151 
L 599.219508 90.105102 
L 599.944399 90.483137 
L 600.42766 90.478357 
L 601.152551 90.650628 
L 601.394181 90.842041 
L 601.877442 90.698484 
L 602.119072 90.909027 
L 602.360703 90.870742 
L 602.602333 91.033441 
L 603.085594 90.904248 
L 603.327224 91.057376 
L 603.810485 91.071726 
L 604.052115 91.248789 
L 604.293745 91.066947 
L 604.535376 91.43541 
L 604.777006 91.320567 
L 605.018636 91.416268 
L 605.260267 91.751237 
L 605.743528 91.449761 
L 606.226788 91.765588 
L 606.468419 92.024 
L 607.43494 92.205842 
L 607.918201 92.71307 
L 608.159831 92.655655 
L 608.401461 92.866198 
L 608.643092 92.87099 
L 608.884722 92.698719 
L 609.126353 93.201167 
L 609.367983 93.249024 
L 609.609613 93.531358 
L 609.851244 93.406944 
L 611.059395 94.301777 
L 611.301026 94.407061 
L 612.267547 95.445464 
L 612.750808 95.703863 
L 613.234069 95.947912 
L 613.475699 96.191961 
L 613.717329 96.105819 
L 614.44222 96.632202 
L 614.683851 96.502996 
L 615.167111 95.837849 
L 615.650372 94.90951 
L 616.616894 90.24388 
L 617.341785 86.028062 
L 619.033197 74.854475 
L 620.241349 68.336959 
L 620.72461 66.059169 
L 621.449501 63.814885 
L 625.073956 53.119824 
L 625.557217 51.789516 
L 625.798847 51.698595 
L 626.040477 51.48326 
L 626.282108 51.033448 
L 626.523738 51.100447 
L 626.765368 50.746334 
L 627.49026 51.779945 
L 627.73189 52.1532 
L 628.456781 54.789881 
L 629.423302 60.369487 
L 630.631454 66.475488 
L 631.839606 71.801487 
L 632.806127 75.725399 
L 633.289388 77.017421 
L 634.014279 79.22342 
L 635.222431 81.41986 
L 635.705692 82.510898 
L 636.188952 83.549301 
L 637.155474 85.138008 
L 638.121995 86.707573 
L 638.363626 86.898986 
L 638.846886 87.683769 
L 641.021559 89.966337 
L 641.50482 89.98548 
L 641.746451 90.440072 
L 641.988081 90.607563 
L 642.229711 90.526214 
L 642.954602 90.999948 
L 643.196233 90.961663 
L 643.679493 91.330139 
L 643.921124 91.229646 
L 644.162754 91.26314 
L 644.404384 91.464124 
L 644.646015 91.406696 
L 645.129275 91.578967 
L 645.370906 91.35884 
L 645.612536 91.674667 
L 645.854167 91.578967 
L 646.095797 91.837366 
L 646.337427 91.569396 
L 646.820688 91.722524 
L 647.062318 91.818236 
L 647.303949 91.641174 
L 647.545579 91.645966 
L 647.787209 91.784731 
L 648.27047 91.789522 
L 648.5121 91.961793 
L 648.753731 91.904365 
L 649.236992 92.35897 
L 649.478622 92.148414 
L 649.961883 92.387671 
L 650.928404 92.655655 
L 651.653295 93.13896 
L 652.378186 93.153324 
L 652.619817 93.47871 
L 652.861447 93.459579 
L 653.103077 93.55528 
L 653.586338 93.938106 
L 653.827968 94.105585 
L 654.069599 94.038586 
L 654.79449 94.545826 
L 655.03612 94.555397 
L 655.519381 95.364114 
L 655.761011 95.498099 
L 656.002641 95.445464 
L 656.485902 95.895276 
L 656.727533 95.885705 
L 657.210793 96.373803 
L 657.452424 96.287661 
L 657.694054 96.474295 
L 658.418945 96.402517 
L 658.660575 96.258947 
L 658.902206 95.866562 
L 659.385466 94.435762 
L 659.627097 93.521787 
L 662.0434 78.165875 
L 663.734813 67.245908 
L 665.184595 61.30741 
L 665.909486 59.173177 
L 669.050681 48.578608 
L 669.775572 47.248301 
L 670.500463 46.664503 
L 670.742093 46.755423 
L 670.983724 46.497024 
L 672.191875 49.736646 
L 673.158397 55.086566 
L 675.5747 68.925536 
L 676.782852 74.050562 
L 677.507743 76.534103 
L 679.199156 80.314458 
L 679.924047 81.372004 
L 680.165677 81.67826 
L 680.890568 82.965503 
L 681.132198 83.353108 
L 681.373829 83.530158 
L 682.09872 84.860466 
L 682.34035 85.128437 
L 682.581981 85.683521 
L 682.823611 85.640457 
L 683.065241 86.185982 
L 683.790132 86.717144 
L 684.031763 87.210022 
L 684.515023 87.2818 
L 684.756654 87.717262 
L 684.998284 87.722054 
L 685.239914 88.085725 
L 686.206436 88.516395 
L 686.689697 88.717379 
L 686.931327 88.899221 
L 687.172957 88.841793 
L 687.656218 89.023635 
L 687.897848 89.435175 
L 688.139479 89.176763 
L 688.381109 89.210256 
L 688.622739 89.483019 
L 688.86437 89.310749 
L 689.106 89.554797 
L 689.347631 89.425604 
L 689.589261 89.535655 
L 689.830891 89.784496 
L 690.555782 89.712717 
L 691.039043 89.751002 
L 691.280673 89.861053 
L 691.763934 89.73186 
L 692.730455 90.272593 
L 693.938607 90.569278 
L 694.180238 90.827678 
L 694.421868 90.712835 
L 694.663498 90.913819 
L 694.905129 90.918599 
L 695.146759 91.25836 
L 695.63002 91.387554 
L 695.87165 91.717744 
L 696.11328 91.660316 
L 696.354911 91.980936 
L 697.563063 92.593447 
L 697.804693 92.851847 
L 698.046323 92.914054 
L 698.529584 93.287309 
L 698.771214 93.531358 
L 699.012845 93.612707 
L 699.254475 93.899821 
L 699.737736 94.091234 
L 699.979366 94.58889 
L 700.704257 95.048287 
L 701.670779 95.632085 
L 701.912409 95.483736 
L 702.39567 95.459814 
L 703.120561 94.081663 
L 703.845452 90.813327 
L 705.295234 81.333718 
L 707.228277 68.097689 
L 708.194798 63.197581 
L 708.919689 60.350357 
L 709.886211 57.125086 
L 711.335993 51.239212 
L 711.819254 49.516519 
L 712.302514 47.779475 
L 713.027405 45.425128 
L 713.510666 44.664268 
L 713.752296 43.994328 
L 713.993927 43.716786 
L 714.235557 43.683293 
L 714.477187 43.381816 
L 715.443709 44.17617 
L 715.92697 45.760085 
L 716.651861 49.01885 
L 717.376752 53.6797 
L 719.551425 66.781744 
L 721.001207 73.098289 
L 721.726098 75.715827 
L 721.967728 75.950305 
L 722.69262 77.787841 
L 722.93425 77.960111 
L 723.17588 78.625271 
L 723.659141 79.003306 
L 724.142402 79.922074 
L 724.625662 80.548936 
L 725.108923 81.328939 
L 725.592184 81.994087 
L 726.558705 83.391381 
L 727.041966 83.769415 
L 727.766857 84.659482 
L 728.491748 85.190644 
L 728.733378 85.463407 
L 728.975009 85.530393 
L 729.45827 85.956284 
L 729.6999 86.071127 
L 729.94153 86.334318 
L 730.183161 86.214696 
L 730.666421 86.75543 
L 730.908052 86.94683 
L 732.116203 87.166957 
L 732.357834 87.425357 
L 732.599464 87.253086 
L 732.841094 87.449291 
L 733.082725 87.339228 
L 733.324355 87.396655 
L 733.807616 87.856039 
L 734.049246 87.597627 
L 734.774137 87.918246 
L 735.015768 87.793832 
L 735.499028 88.176646 
L 735.740659 88.071374 
L 736.223919 88.324994 
L 736.46555 88.315423 
L 737.190441 88.717379 
L 737.432071 88.927935 
L 737.673702 88.846585 
L 738.156962 89.004493 
L 738.640223 89.195906 
L 738.881853 89.454305 
L 739.123484 89.47824 
L 739.365114 89.851482 
L 739.606744 89.712717 
L 740.090005 90.172101 
L 742.747939 91.756017 
L 742.989569 92.205842 
L 743.47283 92.593447 
L 743.71446 92.593447 
L 744.439352 93.717979 
L 745.164243 93.8089 
L 745.405873 94.392698 
L 745.647503 94.105585 
L 746.130764 94.273063 
L 746.614025 93.98117 
L 747.097285 92.947547 
L 747.580546 90.894677 
L 748.063807 88.076154 
L 748.547068 85.061438 
L 751.688262 62.891326 
L 752.654784 58.292695 
L 754.829457 49.554804 
L 755.554348 46.21469 
L 755.795978 45.463401 
L 756.279239 43.372245 
L 757.00413 41.008377 
L 757.24576 40.170921 
L 758.453912 38.740121 
L 758.695543 38.874094 
L 758.937173 38.874094 
L 759.178803 39.022492 
L 759.662064 40.123002 
L 760.628585 43.984757 
L 762.078367 54.301784 
L 763.286519 62.40802 
L 763.76978 65.015987 
L 765.702823 73.150925 
L 766.427714 75.012395 
L 767.152605 76.428832 
L 767.394235 76.491039 
L 767.635866 77.098771 
L 767.877496 77.352391 
L 768.119126 77.783061 
L 768.360757 77.964903 
L 768.844017 78.6157 
L 769.810539 80.16133 
L 770.052169 80.271394 
L 771.018691 81.405497 
L 771.501951 82.061086 
L 771.743582 82.52047 
L 771.985212 82.53482 
L 772.710103 83.266967 
L 772.951733 83.424887 
L 773.193364 83.721571 
L 773.676625 83.822064 
L 773.918255 84.281448 
L 774.159885 84.415433 
L 774.401516 84.415433 
L 774.643146 84.774325 
L 775.126407 84.702546 
L 775.368037 84.90831 
L 775.609667 84.855674 
L 775.851298 85.090152 
L 776.334558 85.233709 
L 776.576189 85.597392 
L 777.05945 85.315058 
L 777.54271 85.788805 
L 778.025971 85.798377 
L 778.750862 85.932362 
L 778.992492 86.128554 
L 779.475753 86.114204 
L 779.717383 86.391746 
L 779.959014 86.386954 
L 780.442274 86.788923 
L 780.683905 86.745858 
L 781.167166 86.9277 
L 785.033251 89.31554 
L 785.516512 89.832352 
L 786.241403 90.042895 
L 786.483033 90.430501 
L 786.724664 90.487928 
L 786.966294 90.84682 
L 787.207924 90.83247 
L 787.449555 90.976026 
L 787.932816 91.631603 
L 788.174446 91.727315 
L 788.657707 92.2824 
L 788.899337 92.421177 
L 789.382598 93.134181 
L 789.624228 93.119818 
L 789.865858 93.47871 
L 790.349119 93.636629 
L 790.83238 93.8089 
L 791.07401 93.866328 
L 791.31564 93.641421 
L 792.040532 91.607681 
L 793.007053 86.176411 
L 796.631508 60.03453 
L 797.356399 56.742272 
L 799.047812 50.047681 
L 800.014333 45.697878 
L 800.980855 41.659174 
L 801.222485 40.993951 
L 801.705746 39.228218 
L 802.430637 37.830912 
L 802.913898 37.701706 
L 803.155528 37.524706 
L 803.397158 37.543773 
L 803.880419 38.127584 
L 804.84694 40.735539 
L 806.055092 48.210145 
L 807.988135 62.522863 
L 808.954656 67.75794 
L 809.679547 71.059769 
L 811.12933 75.342573 
L 811.854221 76.802086 
L 812.095851 76.964786 
L 812.579112 77.859619 
L 813.062372 78.323795 
L 813.304003 78.907593 
L 813.787264 79.295198 
L 814.028894 79.783296 
L 814.270524 79.883788 
L 814.512155 80.630286 
L 814.753785 80.769063 
L 815.720306 81.941451 
L 815.961937 82.391264 
L 816.203567 82.515678 
L 816.686828 83.099488 
L 816.928458 83.314823 
L 817.170089 83.683286 
L 817.411719 83.587586 
L 818.13661 84.348434 
L 818.619871 84.65469 
L 818.861501 84.740831 
L 819.586392 85.267202 
L 819.828022 85.248072 
L 820.069653 85.472978 
L 820.794544 85.664379 
L 822.969217 86.702781 
L 823.210847 86.645366 
L 823.452478 87.009037 
L 823.935738 86.760209 
L 824.177369 87.147814 
L 824.66063 87.487564 
L 824.90226 87.334436 
L 825.14389 87.631133 
L 825.868781 87.69334 
L 826.352042 88.138361 
L 826.593672 88.076154 
L 827.076933 88.597745 
L 827.318563 88.63125 
L 828.285085 89.277255 
L 828.526715 89.368176 
L 829.251606 90.196023 
L 829.493237 90.014181 
L 829.734867 90.353943 
L 829.976497 90.3348 
L 830.218128 90.492708 
L 830.459758 90.798964 
L 830.701388 90.760691 
L 830.943019 91.076518 
L 831.184649 91.014311 
L 831.426279 91.406696 
L 831.66791 91.53111 
L 831.90954 91.885223 
L 832.151171 91.885223 
L 832.392801 92.349399 
L 832.634431 92.382892 
L 833.359322 93.287309 
L 833.600953 93.325594 
L 834.084213 94.000313 
L 834.325844 94.39749 
L 834.567474 94.258713 
L 835.292365 94.938223 
L 836.017256 95.172701 
L 836.258887 95.024352 
L 836.742147 94.512333 
L 837.467038 92.024 
L 839.400081 80.434093 
L 840.124972 75.414351 
L 841.574754 66.882237 
L 842.782906 61.728509 
L 843.507797 59.273669 
L 845.19921 52.99541 
L 845.68247 51.511974 
L 846.165731 49.999837 
L 846.890622 48.573829 
L 847.373883 47.544998 
L 847.615513 47.463648 
L 847.857144 47.090393 
L 848.098774 47.425363 
L 848.582035 47.511492 
L 849.306926 49.277262 
L 850.515078 55.4646 
L 851.239969 60.101516 
L 851.481599 60.986791 
L 851.723229 62.83869 
L 851.96486 63.752678 
L 852.689751 67.590449 
L 853.414642 70.748721 
L 854.864424 76.041226 
L 855.589315 77.85484 
L 855.830945 78.328574 
L 856.314206 79.539247 
L 857.763988 82.506106 
L 858.005619 82.759727 
L 858.247249 83.424887 
L 858.488879 83.597157 
L 858.97214 84.621197 
L 859.21377 84.90831 
L 859.697031 85.798377 
L 860.180292 86.348681 
L 860.663552 86.846338 
L 860.905183 87.052114 
L 861.388444 87.664626 
L 861.630074 87.923026 
L 861.871704 88.425487 
L 862.113335 88.45898 
L 862.354965 88.731742 
L 862.596595 88.607316 
L 863.321486 89.344254 
L 863.563117 89.305969 
L 865.012899 89.918481 
L 865.49616 89.736639 
L 865.97942 90.133816 
L 866.221051 90.148179 
L 866.462681 90.397008 
L 866.704311 90.239088 
L 866.945942 90.454435 
L 867.429202 90.224737 
L 867.670833 90.736757 
L 867.912463 90.731977 
L 868.154093 90.535785 
L 868.395724 90.559707 
L 868.637354 90.741549 
L 868.878985 90.621914 
L 869.603876 90.803756 
L 870.087136 91.033441 
L 870.812027 91.052584 
L 871.295288 91.387554 
L 871.536918 91.349281 
L 871.778549 91.511968 
L 872.020179 91.440189 
L 872.50344 91.86608 
L 872.74507 91.77038 
L 872.986701 92.028779 
L 873.228331 92.004858 
L 873.469961 92.210621 
L 873.711592 92.162765 
L 874.919743 92.952339 
L 875.161374 92.904483 
L 875.403004 93.292088 
L 875.644634 93.406944 
L 875.886265 93.330373 
L 876.127895 93.47393 
L 876.369526 93.880678 
L 876.611156 93.895029 
L 877.577677 94.981288 
L 877.819308 95.010002 
L 878.785829 95.76607 
L 879.027459 95.713435 
L 879.752351 96.27809 
L 879.993981 96.297233 
L 880.477242 95.976626 
L 880.718872 95.641656 
L 880.960502 95.115273 
L 881.927024 91.425839 
L 883.135176 84.243162 
L 884.826588 73.380623 
L 885.793109 68.341738 
L 887.001261 63.968013 
L 889.417565 56.56521 
L 890.142456 54.076877 
L 890.867347 52.339821 
L 891.108977 52.110136 
L 891.350608 51.507195 
L 891.592238 51.435404 
L 892.075499 51.033448 
L 892.317129 50.928176 
L 892.558759 51.330132 
L 892.80039 51.263146 
L 893.28365 52.301549 
L 894.008542 55.340186 
L 894.733433 59.11097 
L 896.183215 66.762602 
L 897.391366 72.074249 
L 897.874627 73.653386 
L 898.357888 75.548349 
L 898.841149 77.10355 
L 899.56604 78.988942 
L 900.0493 80.032137 
L 900.532561 81.08967 
L 901.015822 82.051514 
L 901.499083 82.86979 
L 901.740713 83.788558 
L 901.982343 83.71678 
L 903.432125 86.468304 
L 903.673756 86.631003 
L 903.915386 87.171736 
L 904.398647 87.731612 
L 904.640277 88.20536 
L 904.881907 88.339345 
L 905.123538 88.760444 
L 905.606799 89.014064 
L 905.848429 89.550018 
L 906.33169 89.674432 
L 906.81495 90.234308 
L 907.056581 90.196023 
L 908.023102 90.875534 
L 908.264732 91.076518 
L 908.506363 91.009519 
L 908.747993 91.076518 
L 908.989624 91.411488 
L 909.231254 91.287062 
L 909.472884 91.526331 
L 909.714515 91.545474 
L 909.956145 91.363632 
L 910.197775 91.736887 
L 910.439406 91.564616 
L 911.164297 91.507188 
L 911.405927 91.77038 
L 911.647557 91.473695 
L 912.130818 91.779951 
L 912.614079 91.813444 
L 912.855709 91.559824 
L 913.09734 91.813444 
L 913.33897 91.813444 
L 913.5806 91.976144 
L 913.822231 91.909157 
L 914.063861 92.100558 
L 914.305491 91.980936 
L 914.547122 92.081415 
L 914.788752 92.009637 
L 915.272013 92.191479 
L 916.721795 92.775289 
L 917.205056 93.000196 
L 917.446686 93.062403 
L 918.171577 93.593565 
L 918.413207 93.521787 
L 919.621359 94.15822 
L 919.86299 94.182155 
L 920.34625 94.646318 
L 920.587881 94.866445 
L 920.829511 94.90951 
L 921.312772 95.584228 
L 921.554402 95.464594 
L 921.796032 95.890484 
L 922.279293 96.096248 
L 922.520923 96.177598 
L 922.762554 96.139325 
L 923.245815 96.268519 
L 923.487445 96.574775 
L 923.729075 96.589138 
L 924.453966 96.22928 
L 925.420488 95.232989 
L 926.87027 92.61545 
L 929.769834 83.522506 
L 930.494725 80.905921 
L 930.736356 80.301061 
L 931.461247 77.684488 
L 932.186138 75.296635 
L 932.911029 72.74035 
L 933.63592 70.705656 
L 934.360811 68.500611 
L 935.085702 66.726236 
L 935.810593 64.967177 
L 936.535484 63.593805 
L 937.018745 62.689388 
L 937.743636 61.485413 
L 938.226897 60.723599 
L 939.435048 58.752078 
L 940.159939 57.446658 
L 940.6432 56.598703 
L 940.88483 56.26278 
L 941.609722 54.714277 
L 941.851352 54.359211 
L 942.334613 53.465319 
L 943.301134 51.740707 
L 944.026025 50.474525 
L 945.959068 48.016826 
L 946.442329 47.578491 
L 947.16722 46.695612 
L 947.40885 46.77217 
L 947.65048 47.116711 
L 947.892111 48.238859 
L 948.375371 52.268043 
L 950.066784 71.124372 
L 950.791675 76.644167 
L 951.516566 79.778517 
L 953.449609 85.870155 
L 954.1745 87.348799 
L 955.382652 88.932714 
L 956.832434 89.557193 
L 957.074064 89.526096 
L 957.315695 89.717497 
L 957.557325 89.684003 
L 958.040586 89.932832 
L 958.282216 89.999831 
L 959.490368 90.925774 
L 960.215259 90.794184 
L 960.94015 91.473695 
L 961.423411 91.626823 
L 961.665041 91.952222 
L 962.148302 91.961793 
L 962.389932 92.2824 
L 962.873193 92.344607 
L 963.114823 92.689148 
L 963.356453 92.756147 
L 964.081345 93.440437 
L 964.806236 93.98117 
L 965.531127 94.57454 
L 965.772757 94.57454 
L 966.256018 95.16313 
L 966.739278 95.282764 
L 967.46417 95.555515 
L 967.94743 95.139195 
L 968.430691 94.024235 
L 968.913952 92.162765 
L 969.397212 89.463877 
L 970.846995 79.88858 
L 972.055146 71.241611 
L 972.780037 67.126285 
L 973.263298 64.417826 
L 975.921232 54.440548 
L 977.129384 49.674439 
L 978.095905 46.219482 
L 979.062427 44.180949 
L 979.304057 43.802915 
L 979.545687 43.793344 
L 979.787318 43.573229 
L 980.028948 43.707215 
L 980.270578 43.673721 
L 980.512209 43.951264 
L 981.2371 45.70745 
L 981.961991 49.009278 
L 982.686882 53.540923 
L 984.136664 63.226295 
L 984.378294 64.197699 
L 985.103185 68.246038 
L 986.552968 74.399883 
L 987.761119 77.366742 
L 989.210902 79.874217 
L 989.452532 79.922074 
L 990.177423 81.372004 
L 990.419053 81.568196 
L 990.902314 82.472613 
L 991.143944 82.649676 
L 991.627205 83.247824 
L 991.868835 83.45838 
L 992.110466 83.893842 
L 992.352096 83.984763 
L 992.835357 84.291019 
L 993.076987 84.879596 
L 993.318618 84.707326 
L 993.560248 85.372486 
L 994.043509 85.41555 
L 994.526769 85.984998 
L 995.976551 86.69321 
L 996.218182 87.009037 
L 996.218182 87.009037 
" clip-path="url(#pbbcda14db4)" style="fill: none; stroke: #1f77b4; stroke-width: 1.5; stroke-linecap: square"/>
   </g>
   <g id="patch_4">
    <path d="M 144 99.783529 
L 144 34.56 
" style="fill: none; stroke: #000000; stroke-width: 2.5; stroke-linejoin: miter; stroke-linecap: square"/>
   </g>
   <g id="patch_5">
    <path d="M 144 99.783529 
L 1036.8 99.783529 
" style="fill: none; stroke: #000000; stroke-width: 2.5; stroke-linejoin: miter; stroke-linecap: square"/>
   </g>
   <g id="text_2">
    <!-- UCR_139, DCdetector -->
    <g transform="translate(503.52 28.56)scale(0.16 -0.16)">
     <defs>
      <path id="DejaVuSans-55" d="M 556 4666 
L 1191 4666 
L 1191 1831 
Q 1191 1081 1462 751 
Q 1734 422 2344 422 
Q 2950 422 3222 751 
Q 3494 1081 3494 1831 
L 3494 4666 
L 4128 4666 
L 4128 1753 
Q 4128 841 3676 375 
Q 3225 -91 2344 -91 
Q 1459 -91 1007 375 
Q 556 841 556 1753 
L 556 4666 
z
" transform="scale(0.015625)"/>
      <path id="DejaVuSans-43" d="M 4122 4306 
L 4122 3641 
Q 3803 3938 3442 4084 
Q 3081 4231 2675 4231 
Q 1875 4231 1450 3742 
Q 1025 3253 1025 2328 
Q 1025 1406 1450 917 
Q 1875 428 2675 428 
Q 3081 428 3442 575 
Q 3803 722 4122 1019 
L 4122 359 
Q 3791 134 3420 21 
Q 3050 -91 2638 -91 
Q 1578 -91 968 557 
Q 359 1206 359 2328 
Q 359 3453 968 4101 
Q 1578 4750 2638 4750 
Q 3056 4750 3426 4639 
Q 3797 4528 4122 4306 
z
" transform="scale(0.015625)"/>
      <path id="DejaVuSans-52" d="M 2841 2188 
Q 3044 2119 3236 1894 
Q 3428 1669 3622 1275 
L 4263 0 
L 3584 0 
L 2988 1197 
Q 2756 1666 2539 1819 
Q 2322 1972 1947 1972 
L 1259 1972 
L 1259 0 
L 628 0 
L 628 4666 
L 2053 4666 
Q 2853 4666 3247 4331 
Q 3641 3997 3641 3322 
Q 3641 2881 3436 2590 
Q 3231 2300 2841 2188 
z
M 1259 4147 
L 1259 2491 
L 2053 2491 
Q 2509 2491 2742 2702 
Q 2975 2913 2975 3322 
Q 2975 3731 2742 3939 
Q 2509 4147 2053 4147 
L 1259 4147 
z
" transform="scale(0.015625)"/>
      <path id="DejaVuSans-5f" d="M 3263 -1063 
L 3263 -1509 
L -63 -1509 
L -63 -1063 
L 3263 -1063 
z
" transform="scale(0.015625)"/>
      <path id="DejaVuSans-31" d="M 794 531 
L 1825 531 
L 1825 4091 
L 703 3866 
L 703 4441 
L 1819 4666 
L 2450 4666 
L 2450 531 
L 3481 531 
L 3481 0 
L 794 0 
L 794 531 
z
" transform="scale(0.015625)"/>
      <path id="DejaVuSans-33" d="M 2597 2516 
Q 3050 2419 3304 2112 
Q 3559 1806 3559 1356 
Q 3559 666 3084 287 
Q 2609 -91 1734 -91 
Q 1441 -91 1130 -33 
Q 819 25 488 141 
L 488 750 
Q 750 597 1062 519 
Q 1375 441 1716 441 
Q 2309 441 2620 675 
Q 2931 909 2931 1356 
Q 2931 1769 2642 2001 
Q 2353 2234 1838 2234 
L 1294 2234 
L 1294 2753 
L 1863 2753 
Q 2328 2753 2575 2939 
Q 2822 3125 2822 3475 
Q 2822 3834 2567 4026 
Q 2313 4219 1838 4219 
Q 1578 4219 1281 4162 
Q 984 4106 628 3988 
L 628 4550 
Q 988 4650 1302 4700 
Q 1616 4750 1894 4750 
Q 2613 4750 3031 4423 
Q 3450 4097 3450 3541 
Q 3450 3153 3228 2886 
Q 3006 2619 2597 2516 
z
" transform="scale(0.015625)"/>
      <path id="DejaVuSans-39" d="M 703 97 
L 703 672 
Q 941 559 1184 500 
Q 1428 441 1663 441 
Q 2288 441 2617 861 
Q 2947 1281 2994 2138 
Q 2813 1869 2534 1725 
Q 2256 1581 1919 1581 
Q 1219 1581 811 2004 
Q 403 2428 403 3163 
Q 403 3881 828 4315 
Q 1253 4750 1959 4750 
Q 2769 4750 3195 4129 
Q 3622 3509 3622 2328 
Q 3622 1225 3098 567 
Q 2575 -91 1691 -91 
Q 1453 -91 1209 -44 
Q 966 3 703 97 
z
M 1959 2075 
Q 2384 2075 2632 2365 
Q 2881 2656 2881 3163 
Q 2881 3666 2632 3958 
Q 2384 4250 1959 4250 
Q 1534 4250 1286 3958 
Q 1038 3666 1038 3163 
Q 1038 2656 1286 2365 
Q 1534 2075 1959 2075 
z
" transform="scale(0.015625)"/>
      <path id="DejaVuSans-2c" d="M 750 794 
L 1409 794 
L 1409 256 
L 897 -744 
L 494 -744 
L 750 256 
L 750 794 
z
" transform="scale(0.015625)"/>
      <path id="DejaVuSans-20" transform="scale(0.015625)"/>
      <path id="DejaVuSans-44" d="M 1259 4147 
L 1259 519 
L 2022 519 
Q 2988 519 3436 956 
Q 3884 1394 3884 2338 
Q 3884 3275 3436 3711 
Q 2988 4147 2022 4147 
L 1259 4147 
z
M 628 4666 
L 1925 4666 
Q 3281 4666 3915 4102 
Q 4550 3538 4550 2338 
Q 4550 1131 3912 565 
Q 3275 0 1925 0 
L 628 0 
L 628 4666 
z
" transform="scale(0.015625)"/>
      <path id="DejaVuSans-64" d="M 2906 2969 
L 2906 4863 
L 3481 4863 
L 3481 0 
L 2906 0 
L 2906 525 
Q 2725 213 2448 61 
Q 2172 -91 1784 -91 
Q 1150 -91 751 415 
Q 353 922 353 1747 
Q 353 2572 751 3078 
Q 1150 3584 1784 3584 
Q 2172 3584 2448 3432 
Q 2725 3281 2906 2969 
z
M 947 1747 
Q 947 1113 1208 752 
Q 1469 391 1925 391 
Q 2381 391 2643 752 
Q 2906 1113 2906 1747 
Q 2906 2381 2643 2742 
Q 2381 3103 1925 3103 
Q 1469 3103 1208 2742 
Q 947 2381 947 1747 
z
" transform="scale(0.015625)"/>
      <path id="DejaVuSans-65" d="M 3597 1894 
L 3597 1613 
L 953 1613 
Q 991 1019 1311 708 
Q 1631 397 2203 397 
Q 2534 397 2845 478 
Q 3156 559 3463 722 
L 3463 178 
Q 3153 47 2828 -22 
Q 2503 -91 2169 -91 
Q 1331 -91 842 396 
Q 353 884 353 1716 
Q 353 2575 817 3079 
Q 1281 3584 2069 3584 
Q 2775 3584 3186 3129 
Q 3597 2675 3597 1894 
z
M 3022 2063 
Q 3016 2534 2758 2815 
Q 2500 3097 2075 3097 
Q 1594 3097 1305 2825 
Q 1016 2553 972 2059 
L 3022 2063 
z
" transform="scale(0.015625)"/>
      <path id="DejaVuSans-63" d="M 3122 3366 
L 3122 2828 
Q 2878 2963 2633 3030 
Q 2388 3097 2138 3097 
Q 1578 3097 1268 2742 
Q 959 2388 959 1747 
Q 959 1106 1268 751 
Q 1578 397 2138 397 
Q 2388 397 2633 464 
Q 2878 531 3122 666 
L 3122 134 
Q 2881 22 2623 -34 
Q 2366 -91 2075 -91 
Q 1284 -91 818 406 
Q 353 903 353 1747 
Q 353 2603 823 3093 
Q 1294 3584 2113 3584 
Q 2378 3584 2631 3529 
Q 2884 3475 3122 3366 
z
" transform="scale(0.015625)"/>
      <path id="DejaVuSans-6f" d="M 1959 3097 
Q 1497 3097 1228 2736 
Q 959 2375 959 1747 
Q 959 1119 1226 758 
Q 1494 397 1959 397 
Q 2419 397 2687 759 
Q 2956 1122 2956 1747 
Q 2956 2369 2687 2733 
Q 2419 3097 1959 3097 
z
M 1959 3584 
Q 2709 3584 3137 3096 
Q 3566 2609 3566 1747 
Q 3566 888 3137 398 
Q 2709 -91 1959 -91 
Q 1206 -91 779 398 
Q 353 888 353 1747 
Q 353 2609 779 3096 
Q 1206 3584 1959 3584 
z
" transform="scale(0.015625)"/>
      <path id="DejaVuSans-72" d="M 2631 2963 
Q 2534 3019 2420 3045 
Q 2306 3072 2169 3072 
Q 1681 3072 1420 2755 
Q 1159 2438 1159 1844 
L 1159 0 
L 581 0 
L 581 3500 
L 1159 3500 
L 1159 2956 
Q 1341 3275 1631 3429 
Q 1922 3584 2338 3584 
Q 2397 3584 2469 3576 
Q 2541 3569 2628 3553 
L 2631 2963 
z
" transform="scale(0.015625)"/>
     </defs>
     <use xlink:href="#DejaVuSans-55"/>
     <use xlink:href="#DejaVuSans-43" x="73.193359"/>
     <use xlink:href="#DejaVuSans-52" x="143.017578"/>
     <use xlink:href="#DejaVuSans-5f" x="212.5"/>
     <use xlink:href="#DejaVuSans-31" x="262.5"/>
     <use xlink:href="#DejaVuSans-33" x="326.123047"/>
     <use xlink:href="#DejaVuSans-39" x="389.746094"/>
     <use xlink:href="#DejaVuSans-2c" x="453.369141"/>
     <use xlink:href="#DejaVuSans-20" x="485.15625"/>
     <use xlink:href="#DejaVuSans-44" x="516.943359"/>
     <use xlink:href="#DejaVuSans-43" x="593.945312"/>
     <use xlink:href="#DejaVuSans-64" x="663.769531"/>
     <use xlink:href="#DejaVuSans-65" x="727.246094"/>
     <use xlink:href="#DejaVuSans-74" x="788.769531"/>
     <use xlink:href="#DejaVuSans-65" x="827.978516"/>
     <use xlink:href="#DejaVuSans-63" x="889.501953"/>
     <use xlink:href="#DejaVuSans-74" x="944.482422"/>
     <use xlink:href="#DejaVuSans-6f" x="983.691406"/>
     <use xlink:href="#DejaVuSans-72" x="1044.873047"/>
    </g>
   </g>
  </g>
  <g id="axes_2">
   <g id="patch_6">
    <path d="M 144 178.051765 
L 1036.8 178.051765 
L 1036.8 112.828235 
L 144 112.828235 
z
" style="fill: #ffffff"/>
   </g>
   <g id="patch_7">
    <path d="M 923.729075 178.051765 
L 923.729075 112.828235 
L 962.148302 112.828235 
L 962.148302 178.051765 
z
" clip-path="url(#pc7b41051ca)" style="fill: #ff7f50; stroke: #ff7f50; stroke-linejoin: miter"/>
   </g>
   <g id="matplotlib.axis_3"/>
   <g id="matplotlib.axis_4">
    <g id="text_3">
     <!-- Score -->
     <g transform="translate(137.088437 165.043281)rotate(-90)scale(0.14 -0.14)">
      <defs>
       <path id="DejaVuSans-53" d="M 3425 4513 
L 3425 3897 
Q 3066 4069 2747 4153 
Q 2428 4238 2131 4238 
Q 1616 4238 1336 4038 
Q 1056 3838 1056 3469 
Q 1056 3159 1242 3001 
Q 1428 2844 1947 2747 
L 2328 2669 
Q 3034 2534 3370 2195 
Q 3706 1856 3706 1288 
Q 3706 609 3251 259 
Q 2797 -91 1919 -91 
Q 1588 -91 1214 -16 
Q 841 59 441 206 
L 441 856 
Q 825 641 1194 531 
Q 1563 422 1919 422 
Q 2459 422 2753 634 
Q 3047 847 3047 1241 
Q 3047 1584 2836 1778 
Q 2625 1972 2144 2069 
L 1759 2144 
Q 1053 2284 737 2584 
Q 422 2884 422 3419 
Q 422 4038 858 4394 
Q 1294 4750 2059 4750 
Q 2388 4750 2728 4690 
Q 3069 4631 3425 4513 
z
" transform="scale(0.015625)"/>
      </defs>
      <use xlink:href="#DejaVuSans-53"/>
      <use xlink:href="#DejaVuSans-63" x="63.476562"/>
      <use xlink:href="#DejaVuSans-6f" x="118.457031"/>
      <use xlink:href="#DejaVuSans-72" x="179.638672"/>
      <use xlink:href="#DejaVuSans-65" x="218.501953"/>
     </g>
    </g>
   </g>
   <g id="line2d_2">
    <path d="M 184.581818 175.087059 
L 191.589098 175.087059 
L 191.830729 135.77349 
L 192.072359 169.151598 
L 192.31399 161.041969 
L 192.55562 175.087059 
L 220.584741 175.087059 
L 220.826371 166.225714 
L 221.068002 144.218275 
L 221.309632 155.523067 
L 221.551263 175.087059 
L 244.506146 175.087059 
L 244.747777 115.792941 
L 244.989407 175.087059 
L 276.401353 175.087059 
L 276.642984 142.943335 
L 276.884614 159.375497 
L 277.126244 163.648224 
L 277.367875 175.087059 
L 289.449392 175.087059 
L 289.691023 174.359372 
L 289.932653 123.672179 
L 290.174283 167.98464 
L 290.415914 175.087059 
L 311.196124 175.087059 
L 311.679385 162.11761 
L 311.921015 134.942807 
L 312.162646 175.087059 
L 352.514915 175.087059 
L 352.756546 148.833876 
L 352.998176 166.137401 
L 353.239806 150.995784 
L 353.481437 175.087059 
L 369.912301 175.087059 
L 370.153931 126.386968 
L 370.395561 164.493032 
L 370.637192 175.087059 
L 409.781309 175.087059 
L 410.26457 137.664187 
L 410.5062 175.087059 
L 421.379566 175.087059 
L 421.621197 150.055154 
L 421.862827 143.873446 
L 422.104457 172.038459 
L 422.346088 175.087059 
L 441.676516 175.087059 
L 441.918147 156.907199 
L 442.401407 153.998052 
L 442.643038 175.087059 
L 482.995307 175.087059 
L 483.236937 135.05288 
L 483.478568 168.977524 
L 483.720198 161.936657 
L 483.961828 175.087059 
L 497.493128 175.087059 
L 497.734759 165.474245 
L 497.976389 161.086831 
L 498.218019 139.405985 
L 498.45965 175.087059 
L 529.388335 175.087059 
L 529.629966 142.711756 
L 529.871596 148.168244 
L 530.113226 175.087059 
L 547.510612 175.087059 
L 547.752242 128.367373 
L 547.993873 162.512626 
L 548.235503 175.087059 
L 587.379621 175.087059 
L 587.621251 136.967999 
L 588.104512 175.087059 
L 598.736247 175.087059 
L 598.977878 115.792941 
L 599.219508 175.087059 
L 619.274827 175.087059 
L 619.516458 167.489847 
L 619.758088 147.486934 
L 619.999719 150.990281 
L 620.241349 175.087059 
L 660.593618 175.087059 
L 660.835249 135.944118 
L 661.076879 169.605444 
L 661.318509 160.417496 
L 661.56014 175.087059 
L 675.09144 175.087059 
L 675.816331 145.37625 
L 676.057961 175.087059 
L 706.261755 175.087059 
L 706.503386 146.557779 
L 706.745016 159.239105 
L 706.986646 160.170179 
L 707.228277 175.087059 
L 725.108923 175.087059 
L 725.350553 141.895906 
L 725.592184 148.984092 
L 725.833814 175.087059 
L 751.205001 175.087059 
L 751.446632 153.876355 
L 751.688262 158.887649 
L 751.929893 153.203054 
L 752.171523 175.087059 
L 778.750862 175.087059 
L 778.992492 174.419679 
L 779.234123 175.086966 
L 779.475753 116.460411 
L 779.717383 175.087059 
L 796.148248 175.087059 
L 796.389878 143.979098 
L 796.631508 146.900902 
L 796.873139 175.087059 
L 838.191929 175.087059 
L 838.43356 130.111609 
L 838.67519 171.920022 
L 838.91682 163.93543 
L 839.158451 175.087059 
L 852.689751 175.087059 
L 853.414642 145.124788 
L 853.656272 175.087059 
L 883.860067 175.087059 
L 884.101697 150.891861 
L 884.343327 152.201865 
L 884.826588 175.087059 
L 902.707234 175.087059 
L 902.948865 139.33288 
L 903.190495 151.547122 
L 903.432125 175.087059 
L 933.152659 175.087059 
L 933.394289 115.792941 
L 933.63592 175.087059 
L 952.241457 175.087059 
L 952.483087 116.863515 
L 952.724718 174.016484 
L 952.966348 175.087059 
L 973.263298 175.087059 
L 973.504928 140.478383 
L 973.746559 150.401614 
L 973.988189 175.087059 
L 996.218182 175.087059 
L 996.218182 175.087059 
" clip-path="url(#pc7b41051ca)" style="fill: none; stroke: #1f77b4; stroke-width: 1.5; stroke-linecap: square"/>
   </g>
   <g id="patch_8">
    <path d="M 144 178.051765 
L 144 112.828235 
" style="fill: none; stroke: #000000; stroke-width: 2.5; stroke-linejoin: miter; stroke-linecap: square"/>
   </g>
   <g id="patch_9">
    <path d="M 144 178.051765 
L 1036.8 178.051765 
" style="fill: none; stroke: #000000; stroke-width: 2.5; stroke-linejoin: miter; stroke-linecap: square"/>
   </g>
  </g>
  <g id="axes_3">
   <g id="patch_10">
    <path d="M 144 256.32 
L 1036.8 256.32 
L 1036.8 191.096471 
L 144 191.096471 
z
" style="fill: #ffffff"/>
   </g>
   <g id="patch_11">
    <path d="M 923.729075 256.32 
L 923.729075 191.096471 
L 962.148302 191.096471 
L 962.148302 256.32 
z
" clip-path="url(#p2cb5a514b4)" style="fill: #ff7f50; stroke: #ff7f50; stroke-linejoin: miter"/>
   </g>
   <g id="matplotlib.axis_5">
    <g id="text_4">
     <!-- Time -->
     <g transform="translate(568.379531 273.997187)scale(0.18 -0.18)">
      <defs>
       <path id="DejaVuSans-54" d="M -19 4666 
L 3928 4666 
L 3928 4134 
L 2272 4134 
L 2272 0 
L 1638 0 
L 1638 4134 
L -19 4134 
L -19 4666 
z
" transform="scale(0.015625)"/>
       <path id="DejaVuSans-69" d="M 603 3500 
L 1178 3500 
L 1178 0 
L 603 0 
L 603 3500 
z
M 603 4863 
L 1178 4863 
L 1178 4134 
L 603 4134 
L 603 4863 
z
" transform="scale(0.015625)"/>
       <path id="DejaVuSans-6d" d="M 3328 2828 
Q 3544 3216 3844 3400 
Q 4144 3584 4550 3584 
Q 5097 3584 5394 3201 
Q 5691 2819 5691 2113 
L 5691 0 
L 5113 0 
L 5113 2094 
Q 5113 2597 4934 2840 
Q 4756 3084 4391 3084 
Q 3944 3084 3684 2787 
Q 3425 2491 3425 1978 
L 3425 0 
L 2847 0 
L 2847 2094 
Q 2847 2600 2669 2842 
Q 2491 3084 2119 3084 
Q 1678 3084 1418 2786 
Q 1159 2488 1159 1978 
L 1159 0 
L 581 0 
L 581 3500 
L 1159 3500 
L 1159 2956 
Q 1356 3278 1631 3431 
Q 1906 3584 2284 3584 
Q 2666 3584 2933 3390 
Q 3200 3197 3328 2828 
z
" transform="scale(0.015625)"/>
      </defs>
      <use xlink:href="#DejaVuSans-54"/>
      <use xlink:href="#DejaVuSans-69" x="57.958984"/>
      <use xlink:href="#DejaVuSans-6d" x="85.742188"/>
      <use xlink:href="#DejaVuSans-65" x="183.154297"/>
     </g>
    </g>
   </g>
   <g id="matplotlib.axis_6">
    <g id="text_5">
     <!-- PA -->
     <g transform="translate(137.088437 232.271204)rotate(-90)scale(0.14 -0.14)">
      <defs>
       <path id="DejaVuSans-50" d="M 1259 4147 
L 1259 2394 
L 2053 2394 
Q 2494 2394 2734 2622 
Q 2975 2850 2975 3272 
Q 2975 3691 2734 3919 
Q 2494 4147 2053 4147 
L 1259 4147 
z
M 628 4666 
L 2053 4666 
Q 2838 4666 3239 4311 
Q 3641 3956 3641 3272 
Q 3641 2581 3239 2228 
Q 2838 1875 2053 1875 
L 1259 1875 
L 1259 0 
L 628 0 
L 628 4666 
z
" transform="scale(0.015625)"/>
       <path id="DejaVuSans-41" d="M 2188 4044 
L 1331 1722 
L 3047 1722 
L 2188 4044 
z
M 1831 4666 
L 2547 4666 
L 4325 0 
L 3669 0 
L 3244 1197 
L 1141 1197 
L 716 0 
L 50 0 
L 1831 4666 
z
" transform="scale(0.015625)"/>
      </defs>
      <use xlink:href="#DejaVuSans-50"/>
      <use xlink:href="#DejaVuSans-41" x="53.927734"/>
     </g>
    </g>
   </g>
   <g id="line2d_3">
    <path d="M 184.581818 253.355294 
L 191.589098 253.355294 
L 191.830729 194.061176 
L 192.072359 253.355294 
L 244.506146 253.355294 
L 244.747777 194.061176 
L 244.989407 253.355294 
L 289.691023 253.355294 
L 289.932653 194.061176 
L 290.174283 253.355294 
L 311.679385 253.355294 
L 311.921015 194.061176 
L 312.162646 253.355294 
L 369.912301 253.355294 
L 370.153931 194.061176 
L 370.395561 253.355294 
L 482.995307 253.355294 
L 483.236937 194.061176 
L 483.478568 253.355294 
L 547.510612 253.355294 
L 547.752242 194.061176 
L 547.993873 253.355294 
L 587.379621 253.355294 
L 587.621251 194.061176 
L 587.862881 253.355294 
L 598.736247 253.355294 
L 598.977878 194.061176 
L 599.219508 253.355294 
L 660.593618 253.355294 
L 660.835249 194.061176 
L 661.076879 253.355294 
L 779.234123 253.355294 
L 779.475753 194.061176 
L 779.717383 253.355294 
L 838.191929 253.355294 
L 838.43356 194.061176 
L 838.67519 253.355294 
L 923.487445 253.355294 
L 923.729075 194.061176 
L 962.148302 194.061176 
L 962.389932 253.355294 
L 996.218182 253.355294 
L 996.218182 253.355294 
" clip-path="url(#p2cb5a514b4)" style="fill: none; stroke: #1f77b4; stroke-width: 1.5; stroke-linecap: square"/>
   </g>
   <g id="patch_12">
    <path d="M 144 256.32 
L 144 191.096471 
" style="fill: none; stroke: #000000; stroke-width: 2.5; stroke-linejoin: miter; stroke-linecap: square"/>
   </g>
   <g id="patch_13">
    <path d="M 144 256.32 
L 1036.8 256.32 
" style="fill: none; stroke: #000000; stroke-width: 2.5; stroke-linejoin: miter; stroke-linecap: square"/>
   </g>
  </g>
 </g>
 <defs>
  <clipPath id="pbbcda14db4">
   <rect x="144" y="34.56" width="892.8" height="65.223529"/>
  </clipPath>
  <clipPath id="pc7b41051ca">
   <rect x="144" y="112.828235" width="892.8" height="65.223529"/>
  </clipPath>
  <clipPath id="p2cb5a514b4">
   <rect x="144" y="191.096471" width="892.8" height="65.223529"/>
  </clipPath>
 </defs>
</svg>
