<?xml version="1.0" encoding="utf-8" standalone="no"?>
<!DOCTYPE svg PUBLIC "-//W3C//DTD SVG 1.1//EN"
  "http://www.w3.org/Graphics/SVG/1.1/DTD/svg11.dtd">
<svg xmlns:xlink="http://www.w3.org/1999/xlink" width="576pt" height="432pt" viewBox="0 0 576 432" xmlns="http://www.w3.org/2000/svg" version="1.1">
 <metadata>
  <rdf:RDF xmlns:dc="http://purl.org/dc/elements/1.1/" xmlns:cc="http://creativecommons.org/ns#" xmlns:rdf="http://www.w3.org/1999/02/22-rdf-syntax-ns#">
   <cc:Work>
    <dc:type rdf:resource="http://purl.org/dc/dcmitype/StillImage"/>
    <dc:date>2024-04-26T00:36:40.573152</dc:date>
    <dc:format>image/svg+xml</dc:format>
    <dc:creator>
     <cc:Agent>
      <dc:title>Matplotlib v3.5.1, https://matplotlib.org/</dc:title>
     </cc:Agent>
    </dc:creator>
   </cc:Work>
  </rdf:RDF>
 </metadata>
 <defs>
  <style type="text/css">*{stroke-linejoin: round; stroke-linecap: butt}</style>
 </defs>
 <g id="figure_1">
  <g id="patch_1">
   <path d="M 0 432 
L 576 432 
L 576 0 
L 0 0 
z
" style="fill: #ffffff"/>
  </g>
  <g id="axes_1">
   <g id="patch_2">
    <path d="M 39.28 112.04 
L 556.56 112.04 
L 556.56 38.4 
L 39.28 38.4 
z
" style="fill: #ffffff"/>
   </g>
   <g id="patch_3">
    <path d="M 273.68928 112.04 
L 273.68928 38.4 
L 328.207836 38.4 
L 328.207836 112.04 
z
" clip-path="url(#p7fdb841a8f)" style="fill: #ff7f50; stroke: #ff7f50; stroke-linejoin: miter"/>
   </g>
   <g id="matplotlib.axis_1"/>
   <g id="matplotlib.axis_2">
    <g id="text_1">
     <!-- Input -->
     <g transform="translate(32.368437 93.345625)rotate(-90)scale(0.14 -0.14)">
      <defs>
       <path id="DejaVuSans-49" d="M 628 4666 
L 1259 4666 
L 1259 0 
L 628 0 
L 628 4666 
z
" transform="scale(0.015625)"/>
       <path id="DejaVuSans-6e" d="M 3513 2113 
L 3513 0 
L 2938 0 
L 2938 2094 
Q 2938 2591 2744 2837 
Q 2550 3084 2163 3084 
Q 1697 3084 1428 2787 
Q 1159 2491 1159 1978 
L 1159 0 
L 581 0 
L 581 3500 
L 1159 3500 
L 1159 2956 
Q 1366 3272 1645 3428 
Q 1925 3584 2291 3584 
Q 2894 3584 3203 3211 
Q 3513 2838 3513 2113 
z
" transform="scale(0.015625)"/>
       <path id="DejaVuSans-70" d="M 1159 525 
L 1159 -1331 
L 581 -1331 
L 581 3500 
L 1159 3500 
L 1159 2969 
Q 1341 3281 1617 3432 
Q 1894 3584 2278 3584 
Q 2916 3584 3314 3078 
Q 3713 2572 3713 1747 
Q 3713 922 3314 415 
Q 2916 -91 2278 -91 
Q 1894 -91 1617 61 
Q 1341 213 1159 525 
z
M 3116 1747 
Q 3116 2381 2855 2742 
Q 2594 3103 2138 3103 
Q 1681 3103 1420 2742 
Q 1159 2381 1159 1747 
Q 1159 1113 1420 752 
Q 1681 391 2138 391 
Q 2594 391 2855 752 
Q 3116 1113 3116 1747 
z
" transform="scale(0.015625)"/>
       <path id="DejaVuSans-75" d="M 544 1381 
L 544 3500 
L 1119 3500 
L 1119 1403 
Q 1119 906 1312 657 
Q 1506 409 1894 409 
Q 2359 409 2629 706 
Q 2900 1003 2900 1516 
L 2900 3500 
L 3475 3500 
L 3475 0 
L 2900 0 
L 2900 538 
Q 2691 219 2414 64 
Q 2138 -91 1772 -91 
Q 1169 -91 856 284 
Q 544 659 544 1381 
z
M 1991 3584 
L 1991 3584 
z
" transform="scale(0.015625)"/>
       <path id="DejaVuSans-74" d="M 1172 4494 
L 1172 3500 
L 2356 3500 
L 2356 3053 
L 1172 3053 
L 1172 1153 
Q 1172 725 1289 603 
Q 1406 481 1766 481 
L 2356 481 
L 2356 0 
L 1766 0 
Q 1100 0 847 248 
Q 594 497 594 1153 
L 594 3053 
L 172 3053 
L 172 3500 
L 594 3500 
L 594 4494 
L 1172 4494 
z
" transform="scale(0.015625)"/>
      </defs>
      <use xlink:href="#DejaVuSans-49"/>
      <use xlink:href="#DejaVuSans-6e" x="29.492188"/>
      <use xlink:href="#DejaVuSans-70" x="92.871094"/>
      <use xlink:href="#DejaVuSans-75" x="156.347656"/>
      <use xlink:href="#DejaVuSans-74" x="219.726562"/>
     </g>
    </g>
   </g>
   <g id="line2d_1">
    <path d="M 38.915678 76.796121 
L 39.406836 77.709279 
L 39.897994 78.912752 
L 41.371469 81.303868 
L 41.862627 82.248699 
L 42.844943 83.388826 
L 43.336101 83.927224 
L 43.827259 84.259768 
L 45.300734 85.727154 
L 46.28305 86.598096 
L 49.229999 88.820303 
L 49.721157 88.957539 
L 50.212316 89.622614 
L 50.703474 89.986817 
L 51.194632 90.171569 
L 51.68579 90.620233 
L 52.176948 90.815529 
L 52.668106 91.243078 
L 53.650423 91.554507 
L 54.141581 91.897596 
L 54.632739 91.923997 
L 55.123897 92.467666 
L 56.106213 92.662975 
L 56.597372 93.185529 
L 57.08853 93.196087 
L 57.579688 93.423055 
L 58.070846 93.475843 
L 58.562004 93.803102 
L 59.053162 93.644751 
L 59.544321 93.961453 
L 61.508953 94.394288 
L 62.000111 94.299269 
L 62.49127 94.510408 
L 62.982428 94.425961 
L 63.473586 94.573753 
L 63.964744 94.55791 
L 64.455902 94.832395 
L 65.929377 94.832395 
L 66.420535 95.059363 
L 67.894009 95.101593 
L 68.385168 95.38135 
L 68.876326 95.244101 
L 69.858642 95.270501 
L 70.3498 95.624147 
L 72.314433 95.819457 
L 73.296749 96.278665 
L 73.787907 96.342011 
L 74.279066 96.542592 
L 74.770224 96.526748 
L 75.261382 96.896238 
L 76.243698 96.838178 
L 77.226015 97.45575 
L 78.208331 97.603543 
L 78.699489 97.819954 
L 79.190647 97.904415 
L 80.172964 98.379467 
L 80.664122 98.432255 
L 83.119913 99.334856 
L 83.611071 99.408759 
L 84.102229 99.857424 
L 84.593387 99.936599 
L 85.084545 100.232185 
L 85.575703 100.68085 
L 86.55802 100.89726 
L 87.540336 101.620409 
L 88.031494 101.689027 
L 88.522652 101.947668 
L 89.01381 101.873765 
L 89.996127 102.338273 
L 90.487285 102.565241 
L 91.469601 102.533568 
L 92.943076 101.520119 
L 93.434234 100.31136 
L 93.925392 99.487935 
L 94.907708 96.526748 
L 95.890025 93.064123 
L 101.292765 71.612727 
L 103.257397 65.600635 
L 104.239714 62.892819 
L 104.730872 62.064121 
L 105.713188 59.836628 
L 108.168979 54.510727 
L 110.62477 48.430018 
L 111.607086 46.350331 
L 112.589402 44.318189 
L 114.062877 42.095967 
L 115.045193 41.040204 
L 116.027509 40.412143 
L 117.009826 40.470259 
L 117.500984 40.628554 
L 118.4833 41.578602 
L 118.974458 42.50236 
L 119.465617 43.119905 
L 120.939091 46.862342 
L 121.430249 48.3614 
L 123.88604 58.094758 
L 125.359515 63.948498 
L 126.832989 68.567094 
L 128.306464 72.763425 
L 129.28878 75.286491 
L 131.744571 79.905086 
L 132.726887 80.981881 
L 133.218045 81.588896 
L 134.200362 82.259257 
L 134.69152 82.966562 
L 135.182678 83.172415 
L 135.673836 83.837491 
L 136.164994 83.969454 
L 136.656152 84.270326 
L 137.147311 84.819281 
L 138.129627 85.410453 
L 139.111943 85.811615 
L 139.603101 86.481976 
L 140.09426 86.629769 
L 140.585418 87.067875 
L 141.076576 87.305401 
L 141.567734 87.775181 
L 144.514683 89.427318 
L 145.005841 89.39036 
L 145.988157 90.039605 
L 146.970474 90.54633 
L 147.461632 90.599118 
L 148.443948 90.984437 
L 151.882055 91.923997 
L 152.373214 92.135135 
L 153.35553 92.298758 
L 153.846688 92.087619 
L 154.337846 92.494053 
L 154.829004 92.726307 
L 155.811321 92.525726 
L 156.793637 92.979676 
L 157.284795 92.884658 
L 157.775953 93.095796 
L 158.267112 93.090524 
L 158.75827 93.201373 
L 159.740586 93.623636 
L 160.231744 93.665867 
L 160.722902 93.581406 
L 164.16101 94.389002 
L 164.652168 94.811279 
L 165.634484 94.990745 
L 166.125642 95.397179 
L 166.6168 95.281059 
L 167.107959 95.43941 
L 167.599117 95.83 
L 168.090275 95.872231 
L 169.563749 96.526748 
L 170.054907 96.447573 
L 170.546066 96.964855 
L 171.037224 96.917353 
L 171.528382 97.33963 
L 172.01954 97.503253 
L 172.510698 97.540211 
L 173.001856 97.914973 
L 173.493015 98.057494 
L 173.984173 98.35308 
L 175.457647 98.632836 
L 175.948805 99.129003 
L 176.439964 99.218736 
L 176.931122 99.435146 
L 177.913438 100.2533 
L 178.404596 100.358863 
L 179.386913 101.187574 
L 179.878071 101.256192 
L 180.369229 101.652082 
L 180.860387 101.646796 
L 181.842703 102.005728 
L 182.333862 102.042673 
L 182.82502 101.947668 
L 183.316178 101.652082 
L 184.298494 100.686135 
L 185.280811 98.39531 
L 186.263127 95.476354 
L 192.648183 70.293134 
L 193.630499 67.337234 
L 195.103974 63.119787 
L 197.559765 57.931135 
L 198.050923 57.165769 
L 200.997872 50.404142 
L 201.48903 49.512098 
L 201.980188 48.12916 
L 202.471346 47.50103 
L 203.453663 45.299937 
L 204.927137 42.924665 
L 205.909453 41.75281 
L 206.400612 41.673662 
L 206.89177 41.38862 
L 207.874086 41.309472 
L 208.365244 41.356933 
L 209.838719 42.787402 
L 210.329877 43.521178 
L 212.29451 48.456419 
L 213.767984 54.289044 
L 217.206091 67.405851 
L 219.661882 74.589742 
L 222.117673 79.451149 
L 223.099989 80.966051 
L 223.591147 81.430545 
L 224.082306 82.29093 
L 228.993887 86.571695 
L 229.485045 86.788119 
L 229.976203 87.231498 
L 230.467362 87.384577 
L 230.95852 88.039094 
L 234.887785 90.567445 
L 235.378943 90.720524 
L 235.870101 91.390871 
L 236.36126 91.470046 
L 237.343576 91.987328 
L 237.834734 92.05596 
L 238.325892 92.388491 
L 239.799367 92.868828 
L 241.272841 93.032451 
L 241.763999 93.391382 
L 242.255158 93.396668 
L 242.746316 93.708097 
L 243.728632 93.729199 
L 244.710948 93.845333 
L 245.202107 94.172591 
L 245.693265 94.045914 
L 246.184423 94.299269 
L 247.657897 94.330942 
L 248.149056 95.01186 
L 248.640214 94.605412 
L 249.131372 94.91157 
L 249.62253 94.695145 
L 250.113688 95.032976 
L 250.604846 94.964344 
L 251.096005 95.249386 
L 251.587163 95.106865 
L 252.078321 95.249386 
L 252.569479 95.59776 
L 253.551795 95.645263 
L 254.042954 95.803613 
L 255.02527 95.793056 
L 255.516428 96.157259 
L 256.007586 96.220605 
L 257.481061 96.917353 
L 257.972219 96.822348 
L 258.954535 97.360746 
L 259.445693 97.561313 
L 260.42801 97.629944 
L 260.919168 98.025821 
L 261.410326 98.258061 
L 261.901484 98.337236 
L 265.339591 100.116065 
L 265.830749 100.147738 
L 267.304224 100.965878 
L 268.28654 101.361768 
L 268.777698 101.889608 
L 270.251173 102.227424 
L 271.724647 103.019177 
L 273.198122 103.383395 
L 273.68928 96.122487 
L 274.180438 96.50335 
L 274.671596 96.736102 
L 275.162755 100.362433 
L 275.653913 107.418262 
L 276.145071 108.533635 
L 276.636229 101.251432 
L 277.127387 91.373824 
L 277.618545 103.260827 
L 278.109704 101.059291 
L 278.600862 86.704682 
L 279.09202 100.976574 
L 279.583178 88.772884 
L 280.074336 85.416319 
L 280.565494 95.61496 
L 281.056653 79.173026 
L 281.547811 91.619624 
L 282.038969 84.692423 
L 282.530127 76.118634 
L 283.021285 87.702966 
L 283.512443 71.634838 
L 284.003601 75.450514 
L 284.49476 82.627307 
L 284.985918 67.641523 
L 285.477076 69.94173 
L 285.968234 79.232552 
L 286.459392 70.948482 
L 286.95055 60.785361 
L 287.441709 63.048955 
L 287.932867 73.002805 
L 288.424025 73.631032 
L 289.406341 56.728756 
L 289.897499 58.547712 
L 290.388658 67.662362 
L 290.879816 70.390643 
L 291.370974 58.464413 
L 291.862132 52.156777 
L 292.35329 57.198757 
L 292.844448 64.73015 
L 293.335607 65.11432 
L 294.317923 48.15462 
L 294.809081 48.987151 
L 295.300239 55.351532 
L 295.791397 59.104498 
L 296.282556 61.999295 
L 296.773714 60.88413 
L 297.264872 58.453897 
L 297.75603 53.91438 
L 298.247188 56.410795 
L 298.738346 54.989459 
L 299.229505 59.072452 
L 299.720663 61.954518 
L 300.211821 59.333694 
L 300.702979 52.267888 
L 301.194137 49.58001 
L 301.685295 60.972659 
L 302.176454 65.079008 
L 302.667612 51.925298 
L 303.15877 67.761573 
L 303.649928 65.476448 
L 304.141086 58.355903 
L 304.632244 71.724696 
L 305.123403 68.948649 
L 305.614561 61.179757 
L 306.105719 73.786436 
L 306.596877 78.390834 
L 307.088035 66.832861 
L 307.579193 69.705629 
L 308.070352 82.840673 
L 308.56151 77.877039 
L 309.052668 69.293245 
L 310.034984 86.462811 
L 310.526142 85.947674 
L 311.017301 75.115424 
L 311.508459 74.157821 
L 311.999617 85.954579 
L 312.490775 89.752169 
L 312.981933 92.243922 
L 313.473091 89.337987 
L 313.964249 79.899745 
L 314.455408 77.980138 
L 314.946566 79.456269 
L 315.437724 85.388908 
L 315.928882 92.936851 
L 316.42004 96.501095 
L 316.911198 95.927247 
L 317.402357 90.092822 
L 318.384673 82.987014 
L 318.875831 84.877202 
L 319.366989 87.940243 
L 319.858147 94.248487 
L 320.349306 96.332698 
L 320.840464 101.029445 
L 321.331622 99.733804 
L 321.82278 94.007807 
L 323.296255 86.731415 
L 323.787413 87.055132 
L 324.278571 88.496808 
L 324.769729 93.808858 
L 325.260887 92.889597 
L 325.752045 97.824589 
L 326.243204 100.344887 
L 326.734362 104.101216 
L 327.22552 105.26899 
L 327.716678 105.254848 
L 328.207836 97.323787 
L 330.172469 98.189443 
L 331.154785 98.104996 
L 331.645943 98.321407 
L 332.137102 98.23696 
L 332.62826 98.4692 
L 333.119418 98.558933 
L 333.610576 98.854532 
L 334.101734 98.764799 
L 334.592892 98.99704 
L 335.084051 98.51143 
L 335.575209 98.902035 
L 336.557525 99.208178 
L 337.539841 99.118445 
L 338.522158 99.329584 
L 339.013316 99.09733 
L 339.504474 99.319026 
L 339.995632 99.224008 
L 341.960265 99.482649 
L 342.451423 99.324298 
L 342.942581 99.572382 
L 343.433739 99.493206 
L 344.907214 99.809921 
L 345.88953 99.984102 
L 346.380688 100.158295 
L 346.871846 100.126623 
L 347.363005 100.406379 
L 347.854163 100.226913 
L 348.345321 100.316646 
L 349.818795 100.891988 
L 350.309954 100.791698 
L 350.801112 101.055611 
L 351.29227 100.934219 
L 351.783428 101.319538 
L 352.274586 101.166459 
L 352.765744 101.525391 
L 353.748061 101.715414 
L 354.239219 102.090175 
L 356.203852 102.623301 
L 356.69501 102.918887 
L 357.186168 103.035021 
L 357.677326 103.362279 
L 358.659642 103.615635 
L 359.150801 104.032626 
L 359.641959 104.022069 
L 360.133117 104.381 
L 360.624275 104.196263 
L 361.115433 104.702987 
L 362.09775 104.829665 
L 362.588908 104.882453 
L 363.080066 105.098864 
L 363.571224 105.156924 
L 364.55354 104.439074 
L 365.044699 103.726483 
L 366.518173 100.66502 
L 367.009331 99.260966 
L 367.500489 98.289734 
L 367.991648 96.262835 
L 368.482806 94.96963 
L 370.447438 87.917688 
L 371.429755 84.360059 
L 372.412071 80.923821 
L 373.885545 76.252437 
L 375.850178 71.427989 
L 376.832494 69.670276 
L 377.323653 68.936583 
L 377.814811 67.949521 
L 378.797127 66.682716 
L 379.288285 65.621751 
L 380.76176 63.299253 
L 381.744076 61.298741 
L 382.235234 60.723399 
L 383.217551 58.902354 
L 384.199867 57.297719 
L 384.691025 56.849068 
L 385.673341 55.693098 
L 386.1645 55.144143 
L 386.655658 54.943562 
L 387.146816 54.489625 
L 387.637974 54.568801 
L 388.129132 54.452667 
L 388.62029 54.727151 
L 389.111449 54.64269 
L 389.602607 55.429171 
L 390.093765 55.888393 
L 391.076081 57.957522 
L 391.567239 59.087105 
L 395.987663 72.024447 
L 396.478821 72.768697 
L 396.969979 74.304714 
L 399.916928 80.960765 
L 400.408086 81.625841 
L 401.390403 83.56302 
L 402.863877 85.558245 
L 403.846193 86.88841 
L 405.319668 88.297735 
L 405.810826 89.041986 
L 406.301984 89.305913 
L 408.266617 91.364484 
L 408.757775 91.839536 
L 409.248933 92.573242 
L 409.740091 92.794925 
L 410.722408 93.702811 
L 411.213566 93.998397 
L 411.704724 94.589583 
L 413.669357 95.766668 
L 414.160515 96.236448 
L 414.651673 96.510919 
L 415.142831 96.484532 
L 415.633989 96.7115 
L 416.125148 97.133764 
L 416.616306 97.170722 
L 417.107464 97.672161 
L 419.072097 98.221116 
L 420.054413 98.548375 
L 420.545571 98.611721 
L 421.036729 98.870362 
L 422.019046 98.98121 
L 422.510204 99.129003 
L 423.001362 98.991768 
L 423.49252 99.134275 
L 423.983678 99.086772 
L 424.965995 99.377086 
L 425.948311 99.334856 
L 426.930627 99.355971 
L 427.421785 99.181791 
L 427.912943 99.472105 
L 428.89526 99.361257 
L 429.877576 99.55128 
L 430.859892 99.445704 
L 433.315683 100.026332 
L 433.806841 99.693788 
L 434.298 100.073834 
L 434.789158 100.031604 
L 436.75379 100.56473 
L 437.244949 100.416937 
L 437.736107 100.601674 
L 438.227265 100.448596 
L 438.718423 100.860315 
L 439.209581 101.082012 
L 439.700739 101.066168 
L 440.191898 101.245634 
L 440.683056 101.29315 
L 441.174214 101.509561 
L 442.15653 101.683741 
L 442.647688 101.95294 
L 443.138847 102.021558 
L 443.630005 101.942382 
L 444.121163 102.100733 
L 444.612321 102.486065 
L 445.594637 102.718306 
L 446.085796 103.145855 
L 446.576954 103.077237 
L 447.55927 103.510072 
L 448.541586 104.132917 
L 449.032745 104.022069 
L 450.015061 104.528807 
L 450.506219 104.560466 
L 450.997377 104.797992 
L 451.488535 104.708259 
L 451.979694 104.861338 
L 452.470852 104.729374 
L 453.453168 104.016797 
L 453.944326 103.082523 
L 454.435484 102.391047 
L 455.908959 98.384752 
L 457.873591 91.23252 
L 458.36475 89.780964 
L 459.347066 85.991081 
L 460.329382 82.475667 
L 461.802857 76.785563 
L 462.785173 73.824377 
L 464.749806 68.794076 
L 465.240964 67.991751 
L 465.732122 66.862182 
L 467.205597 64.328545 
L 467.696755 63.54735 
L 468.679071 61.515166 
L 469.170229 60.86592 
L 470.152546 58.59621 
L 470.643704 57.566918 
L 471.134862 56.801552 
L 472.117178 54.732423 
L 473.590653 52.309634 
L 474.081811 51.919044 
L 474.572969 51.058659 
L 476.537602 49.34319 
L 477.02876 49.644048 
L 477.519918 49.485697 
L 478.011076 49.966035 
L 478.502234 50.082155 
L 478.993393 50.773631 
L 479.484551 51.227568 
L 480.466867 53.001111 
L 480.958025 54.621575 
L 481.449183 55.661425 
L 481.940342 57.487742 
L 482.4315 58.860123 
L 483.413816 62.433596 
L 485.378449 69.174109 
L 489.307714 79.224181 
L 490.29003 81.219407 
L 490.781188 81.87921 
L 491.763505 83.478559 
L 492.254663 84.14892 
L 492.745821 85.009304 
L 495.201612 87.374019 
L 495.69277 87.627374 
L 496.183928 88.413855 
L 496.675086 88.725285 
L 497.166245 89.279525 
L 497.657403 89.506494 
L 499.130877 90.942206 
L 499.622035 91.221963 
L 500.604352 92.024287 
L 501.586668 92.657689 
L 502.077826 92.81604 
L 503.551301 93.745042 
L 504.042459 93.977282 
L 504.533617 94.436504 
L 505.515933 94.790164 
L 506.007092 94.937957 
L 506.49825 95.307446 
L 506.989408 95.376064 
L 507.971724 95.83 
L 510.918673 96.35784 
L 511.409831 96.663998 
L 511.900989 96.663998 
L 512.392148 96.843463 
L 513.374464 96.790675 
L 513.865622 96.975413 
L 514.35678 96.795947 
L 516.321413 97.191837 
L 516.812571 97.144321 
L 517.303729 97.28157 
L 518.286046 97.228782 
L 521.232995 97.445193 
L 521.724153 97.682719 
L 523.688785 97.899129 
L 524.179944 98.231674 
L 524.671102 98.194729 
L 527.126893 98.843975 
L 527.618051 98.891477 
L 528.109209 99.076215 
L 528.600367 99.514322 
L 529.091525 99.239851 
L 531.056158 100.221627 
L 532.529632 100.73891 
L 533.020791 100.765311 
L 533.511949 101.140072 
L 534.494265 101.235077 
L 534.985423 101.583451 
L 535.476581 101.615124 
L 536.458898 102.375217 
L 537.932372 102.802767 
L 538.42353 103.246145 
L 539.405847 103.388667 
L 540.388163 103.763428 
L 541.370479 103.62092 
L 541.861637 103.404496 
L 542.352796 103.325321 
L 542.843954 102.549397 
L 543.335112 102.074346 
L 544.317428 99.662115 
L 547.264377 89.712347 
L 548.246694 85.647978 
L 552.175959 71.934714 
L 553.158275 69.121334 
L 554.140592 66.793551 
L 554.63175 65.970125 
L 555.122908 64.756095 
L 556.596382 62.043006 
L 556.596382 62.043006 
" clip-path="url(#p7fdb841a8f)" style="fill: none; stroke: #1f77b4; stroke-width: 1.5; stroke-linecap: square"/>
   </g>
   <g id="patch_4">
    <path d="M 39.28 112.04 
L 39.28 38.4 
" style="fill: none; stroke: #000000; stroke-width: 2.5; stroke-linejoin: miter; stroke-linecap: square"/>
   </g>
   <g id="patch_5">
    <path d="M 39.28 112.04 
L 556.56 112.04 
" style="fill: none; stroke: #000000; stroke-width: 2.5; stroke-linejoin: miter; stroke-linecap: square"/>
   </g>
   <g id="text_2">
    <!-- UCR_136 -->
    <g transform="translate(257.11625 32.4)scale(0.18 -0.18)">
     <defs>
      <path id="DejaVuSans-55" d="M 556 4666 
L 1191 4666 
L 1191 1831 
Q 1191 1081 1462 751 
Q 1734 422 2344 422 
Q 2950 422 3222 751 
Q 3494 1081 3494 1831 
L 3494 4666 
L 4128 4666 
L 4128 1753 
Q 4128 841 3676 375 
Q 3225 -91 2344 -91 
Q 1459 -91 1007 375 
Q 556 841 556 1753 
L 556 4666 
z
" transform="scale(0.015625)"/>
      <path id="DejaVuSans-43" d="M 4122 4306 
L 4122 3641 
Q 3803 3938 3442 4084 
Q 3081 4231 2675 4231 
Q 1875 4231 1450 3742 
Q 1025 3253 1025 2328 
Q 1025 1406 1450 917 
Q 1875 428 2675 428 
Q 3081 428 3442 575 
Q 3803 722 4122 1019 
L 4122 359 
Q 3791 134 3420 21 
Q 3050 -91 2638 -91 
Q 1578 -91 968 557 
Q 359 1206 359 2328 
Q 359 3453 968 4101 
Q 1578 4750 2638 4750 
Q 3056 4750 3426 4639 
Q 3797 4528 4122 4306 
z
" transform="scale(0.015625)"/>
      <path id="DejaVuSans-52" d="M 2841 2188 
Q 3044 2119 3236 1894 
Q 3428 1669 3622 1275 
L 4263 0 
L 3584 0 
L 2988 1197 
Q 2756 1666 2539 1819 
Q 2322 1972 1947 1972 
L 1259 1972 
L 1259 0 
L 628 0 
L 628 4666 
L 2053 4666 
Q 2853 4666 3247 4331 
Q 3641 3997 3641 3322 
Q 3641 2881 3436 2590 
Q 3231 2300 2841 2188 
z
M 1259 4147 
L 1259 2491 
L 2053 2491 
Q 2509 2491 2742 2702 
Q 2975 2913 2975 3322 
Q 2975 3731 2742 3939 
Q 2509 4147 2053 4147 
L 1259 4147 
z
" transform="scale(0.015625)"/>
      <path id="DejaVuSans-5f" d="M 3263 -1063 
L 3263 -1509 
L -63 -1509 
L -63 -1063 
L 3263 -1063 
z
" transform="scale(0.015625)"/>
      <path id="DejaVuSans-31" d="M 794 531 
L 1825 531 
L 1825 4091 
L 703 3866 
L 703 4441 
L 1819 4666 
L 2450 4666 
L 2450 531 
L 3481 531 
L 3481 0 
L 794 0 
L 794 531 
z
" transform="scale(0.015625)"/>
      <path id="DejaVuSans-33" d="M 2597 2516 
Q 3050 2419 3304 2112 
Q 3559 1806 3559 1356 
Q 3559 666 3084 287 
Q 2609 -91 1734 -91 
Q 1441 -91 1130 -33 
Q 819 25 488 141 
L 488 750 
Q 750 597 1062 519 
Q 1375 441 1716 441 
Q 2309 441 2620 675 
Q 2931 909 2931 1356 
Q 2931 1769 2642 2001 
Q 2353 2234 1838 2234 
L 1294 2234 
L 1294 2753 
L 1863 2753 
Q 2328 2753 2575 2939 
Q 2822 3125 2822 3475 
Q 2822 3834 2567 4026 
Q 2313 4219 1838 4219 
Q 1578 4219 1281 4162 
Q 984 4106 628 3988 
L 628 4550 
Q 988 4650 1302 4700 
Q 1616 4750 1894 4750 
Q 2613 4750 3031 4423 
Q 3450 4097 3450 3541 
Q 3450 3153 3228 2886 
Q 3006 2619 2597 2516 
z
" transform="scale(0.015625)"/>
      <path id="DejaVuSans-36" d="M 2113 2584 
Q 1688 2584 1439 2293 
Q 1191 2003 1191 1497 
Q 1191 994 1439 701 
Q 1688 409 2113 409 
Q 2538 409 2786 701 
Q 3034 994 3034 1497 
Q 3034 2003 2786 2293 
Q 2538 2584 2113 2584 
z
M 3366 4563 
L 3366 3988 
Q 3128 4100 2886 4159 
Q 2644 4219 2406 4219 
Q 1781 4219 1451 3797 
Q 1122 3375 1075 2522 
Q 1259 2794 1537 2939 
Q 1816 3084 2150 3084 
Q 2853 3084 3261 2657 
Q 3669 2231 3669 1497 
Q 3669 778 3244 343 
Q 2819 -91 2113 -91 
Q 1303 -91 875 529 
Q 447 1150 447 2328 
Q 447 3434 972 4092 
Q 1497 4750 2381 4750 
Q 2619 4750 2861 4703 
Q 3103 4656 3366 4563 
z
" transform="scale(0.015625)"/>
     </defs>
     <use xlink:href="#DejaVuSans-55"/>
     <use xlink:href="#DejaVuSans-43" x="73.193359"/>
     <use xlink:href="#DejaVuSans-52" x="143.017578"/>
     <use xlink:href="#DejaVuSans-5f" x="212.5"/>
     <use xlink:href="#DejaVuSans-31" x="262.5"/>
     <use xlink:href="#DejaVuSans-33" x="326.123047"/>
     <use xlink:href="#DejaVuSans-36" x="389.746094"/>
    </g>
   </g>
  </g>
  <g id="axes_2">
   <g id="patch_6">
    <path d="M 39.28 205.12 
L 556.56 205.12 
L 556.56 131.48 
L 39.28 131.48 
z
" style="fill: #ffffff"/>
   </g>
   <g id="patch_7">
    <path d="M 273.68928 205.12 
L 273.68928 131.48 
L 328.207836 131.48 
L 328.207836 205.12 
z
" clip-path="url(#p3f820d1ff9)" style="fill: #ff7f50; stroke: #ff7f50; stroke-linejoin: miter"/>
   </g>
   <g id="matplotlib.axis_3"/>
   <g id="matplotlib.axis_4">
    <g id="text_3">
     <!-- Small $τ$ -->
     <g transform="translate(32.368437 194.2)rotate(-90)scale(0.14 -0.14)">
      <defs>
       <path id="DejaVuSans-53" d="M 3425 4513 
L 3425 3897 
Q 3066 4069 2747 4153 
Q 2428 4238 2131 4238 
Q 1616 4238 1336 4038 
Q 1056 3838 1056 3469 
Q 1056 3159 1242 3001 
Q 1428 2844 1947 2747 
L 2328 2669 
Q 3034 2534 3370 2195 
Q 3706 1856 3706 1288 
Q 3706 609 3251 259 
Q 2797 -91 1919 -91 
Q 1588 -91 1214 -16 
Q 841 59 441 206 
L 441 856 
Q 825 641 1194 531 
Q 1563 422 1919 422 
Q 2459 422 2753 634 
Q 3047 847 3047 1241 
Q 3047 1584 2836 1778 
Q 2625 1972 2144 2069 
L 1759 2144 
Q 1053 2284 737 2584 
Q 422 2884 422 3419 
Q 422 4038 858 4394 
Q 1294 4750 2059 4750 
Q 2388 4750 2728 4690 
Q 3069 4631 3425 4513 
z
" transform="scale(0.015625)"/>
       <path id="DejaVuSans-6d" d="M 3328 2828 
Q 3544 3216 3844 3400 
Q 4144 3584 4550 3584 
Q 5097 3584 5394 3201 
Q 5691 2819 5691 2113 
L 5691 0 
L 5113 0 
L 5113 2094 
Q 5113 2597 4934 2840 
Q 4756 3084 4391 3084 
Q 3944 3084 3684 2787 
Q 3425 2491 3425 1978 
L 3425 0 
L 2847 0 
L 2847 2094 
Q 2847 2600 2669 2842 
Q 2491 3084 2119 3084 
Q 1678 3084 1418 2786 
Q 1159 2488 1159 1978 
L 1159 0 
L 581 0 
L 581 3500 
L 1159 3500 
L 1159 2956 
Q 1356 3278 1631 3431 
Q 1906 3584 2284 3584 
Q 2666 3584 2933 3390 
Q 3200 3197 3328 2828 
z
" transform="scale(0.015625)"/>
       <path id="DejaVuSans-61" d="M 2194 1759 
Q 1497 1759 1228 1600 
Q 959 1441 959 1056 
Q 959 750 1161 570 
Q 1363 391 1709 391 
Q 2188 391 2477 730 
Q 2766 1069 2766 1631 
L 2766 1759 
L 2194 1759 
z
M 3341 1997 
L 3341 0 
L 2766 0 
L 2766 531 
Q 2569 213 2275 61 
Q 1981 -91 1556 -91 
Q 1019 -91 701 211 
Q 384 513 384 1019 
Q 384 1609 779 1909 
Q 1175 2209 1959 2209 
L 2766 2209 
L 2766 2266 
Q 2766 2663 2505 2880 
Q 2244 3097 1772 3097 
Q 1472 3097 1187 3025 
Q 903 2953 641 2809 
L 641 3341 
Q 956 3463 1253 3523 
Q 1550 3584 1831 3584 
Q 2591 3584 2966 3190 
Q 3341 2797 3341 1997 
z
" transform="scale(0.015625)"/>
       <path id="DejaVuSans-6c" d="M 603 4863 
L 1178 4863 
L 1178 0 
L 603 0 
L 603 4863 
z
" transform="scale(0.015625)"/>
       <path id="DejaVuSans-20" transform="scale(0.015625)"/>
       <path id="DejaVuSans-Oblique-3c4" d="M 2103 638 
Q 2188 488 2525 488 
L 2800 488 
L 2706 0 
L 2363 0 
Q 1800 0 1600 300 
Q 1403 606 1534 1269 
L 1856 2925 
L 541 2925 
L 653 3500 
L 3881 3500 
L 3769 2925 
L 2444 2925 
L 2113 1234 
Q 2025 781 2103 638 
z
" transform="scale(0.015625)"/>
      </defs>
      <use xlink:href="#DejaVuSans-53" transform="translate(0 0.015625)"/>
      <use xlink:href="#DejaVuSans-6d" transform="translate(63.476562 0.015625)"/>
      <use xlink:href="#DejaVuSans-61" transform="translate(160.888672 0.015625)"/>
      <use xlink:href="#DejaVuSans-6c" transform="translate(222.167969 0.015625)"/>
      <use xlink:href="#DejaVuSans-6c" transform="translate(249.951172 0.015625)"/>
      <use xlink:href="#DejaVuSans-20" transform="translate(277.734375 0.015625)"/>
      <use xlink:href="#DejaVuSans-Oblique-3c4" transform="translate(309.521484 0.015625)"/>
     </g>
    </g>
   </g>
   <g id="line2d_2">
    <path d="M 38.915678 201.766676 
L 203.453663 201.766029 
L 273.68928 201.695987 
L 274.180438 200.522483 
L 275.162755 200.638705 
L 275.653913 200.088534 
L 276.145071 194.348828 
L 276.636229 190.770367 
L 277.127387 178.378528 
L 277.618545 174.83435 
L 278.109704 158.370294 
L 278.600862 163.216115 
L 279.09202 151.029167 
L 279.583178 155.407048 
L 280.074336 134.827273 
L 280.565494 155.742742 
L 281.056653 154.460783 
L 281.547811 151.399132 
L 282.038969 159.873979 
L 282.530127 151.465725 
L 283.021285 161.395193 
L 283.512443 146.327161 
L 284.49476 167.834025 
L 284.985918 168.775077 
L 285.477076 163.280264 
L 285.968234 177.08133 
L 286.459392 174.951743 
L 286.95055 180.243179 
L 287.441709 180.187586 
L 287.932867 182.514558 
L 288.424025 175.425647 
L 288.915183 183.1411 
L 289.406341 183.901907 
L 289.897499 183.179883 
L 290.388658 181.808876 
L 290.879816 180.827517 
L 291.370974 183.611339 
L 291.862132 187.408593 
L 292.35329 183.230683 
L 292.844448 185.311403 
L 293.335607 185.300863 
L 293.826765 186.386908 
L 294.317923 188.154345 
L 294.809081 184.614187 
L 296.282556 189.258252 
L 296.773714 189.604479 
L 297.264872 191.607217 
L 297.75603 191.500176 
L 298.247188 192.083995 
L 299.229505 194.149823 
L 300.211821 195.346378 
L 300.702979 196.573823 
L 301.194137 196.413483 
L 302.176454 196.773925 
L 302.667612 195.251282 
L 303.15877 195.179405 
L 303.649928 193.758504 
L 304.632244 193.481824 
L 305.123403 192.200829 
L 305.614561 191.588589 
L 306.105719 192.414087 
L 306.596877 192.438619 
L 307.088035 186.74914 
L 307.579193 190.985049 
L 308.070352 188.153006 
L 308.56151 183.155007 
L 309.052668 189.016718 
L 309.543826 183.15424 
L 310.034984 188.652435 
L 311.017301 184.744045 
L 311.508459 179.701441 
L 311.999617 180.41873 
L 312.490775 181.669635 
L 312.981933 180.155406 
L 313.473091 177.425481 
L 313.964249 180.979535 
L 314.455408 175.910226 
L 314.946566 172.450144 
L 315.437724 183.286171 
L 315.928882 180.790133 
L 316.42004 180.190191 
L 316.911198 176.492305 
L 317.402357 181.934762 
L 317.893515 184.287689 
L 318.384673 183.325205 
L 318.875831 184.343607 
L 319.366989 181.84461 
L 319.858147 187.292671 
L 320.840464 189.736509 
L 321.331622 184.614527 
L 321.82278 188.882726 
L 322.313938 187.736319 
L 322.805096 190.003159 
L 323.296255 190.04233 
L 323.787413 188.030397 
L 324.278571 190.539785 
L 324.769729 194.821113 
L 325.260887 193.874575 
L 325.752045 194.425985 
L 326.243204 194.716076 
L 326.734362 194.413169 
L 327.22552 193.024022 
L 327.716678 194.206974 
L 328.207836 195.025678 
L 328.698994 188.774732 
L 329.190153 188.47304 
L 329.681311 191.937241 
L 330.172469 190.881166 
L 330.663627 194.033904 
L 331.154785 195.664572 
L 331.645943 196.647622 
L 332.137102 196.45768 
L 332.62826 196.916877 
L 333.119418 198.346815 
L 333.610576 198.430759 
L 334.101734 199.262718 
L 334.592892 199.666725 
L 335.084051 199.661161 
L 335.575209 199.872485 
L 336.066367 200.267567 
L 336.557525 200.378917 
L 337.048683 200.350652 
L 338.522158 200.746209 
L 339.013316 200.995741 
L 339.995632 201.11186 
L 340.977948 201.279288 
L 342.942581 201.572413 
L 365.044699 201.766232 
L 420.545571 201.771613 
L 556.596382 201.76843 
L 556.596382 201.76843 
" clip-path="url(#p3f820d1ff9)" style="fill: none; stroke: #1f77b4; stroke-width: 1.5; stroke-linecap: square"/>
   </g>
   <g id="patch_8">
    <path d="M 39.28 205.12 
L 39.28 131.48 
" style="fill: none; stroke: #000000; stroke-width: 2.5; stroke-linejoin: miter; stroke-linecap: square"/>
   </g>
   <g id="patch_9">
    <path d="M 39.28 205.12 
L 556.56 205.12 
" style="fill: none; stroke: #000000; stroke-width: 2.5; stroke-linejoin: miter; stroke-linecap: square"/>
   </g>
  </g>
  <g id="axes_3">
   <g id="patch_10">
    <path d="M 39.28 298.2 
L 556.56 298.2 
L 556.56 224.56 
L 39.28 224.56 
z
" style="fill: #ffffff"/>
   </g>
   <g id="patch_11">
    <path d="M 273.68928 298.2 
L 273.68928 224.56 
L 328.207836 224.56 
L 328.207836 298.2 
z
" clip-path="url(#peb5555f55b)" style="fill: #ff7f50; stroke: #ff7f50; stroke-linejoin: miter"/>
   </g>
   <g id="matplotlib.axis_5"/>
   <g id="matplotlib.axis_6">
    <g id="text_4">
     <!-- Large $τ$ -->
     <g transform="translate(32.34 287.7)rotate(-90)scale(0.14 -0.14)">
      <defs>
       <path id="DejaVuSans-4c" d="M 628 4666 
L 1259 4666 
L 1259 531 
L 3531 531 
L 3531 0 
L 628 0 
L 628 4666 
z
" transform="scale(0.015625)"/>
       <path id="DejaVuSans-72" d="M 2631 2963 
Q 2534 3019 2420 3045 
Q 2306 3072 2169 3072 
Q 1681 3072 1420 2755 
Q 1159 2438 1159 1844 
L 1159 0 
L 581 0 
L 581 3500 
L 1159 3500 
L 1159 2956 
Q 1341 3275 1631 3429 
Q 1922 3584 2338 3584 
Q 2397 3584 2469 3576 
Q 2541 3569 2628 3553 
L 2631 2963 
z
" transform="scale(0.015625)"/>
       <path id="DejaVuSans-67" d="M 2906 1791 
Q 2906 2416 2648 2759 
Q 2391 3103 1925 3103 
Q 1463 3103 1205 2759 
Q 947 2416 947 1791 
Q 947 1169 1205 825 
Q 1463 481 1925 481 
Q 2391 481 2648 825 
Q 2906 1169 2906 1791 
z
M 3481 434 
Q 3481 -459 3084 -895 
Q 2688 -1331 1869 -1331 
Q 1566 -1331 1297 -1286 
Q 1028 -1241 775 -1147 
L 775 -588 
Q 1028 -725 1275 -790 
Q 1522 -856 1778 -856 
Q 2344 -856 2625 -561 
Q 2906 -266 2906 331 
L 2906 616 
Q 2728 306 2450 153 
Q 2172 0 1784 0 
Q 1141 0 747 490 
Q 353 981 353 1791 
Q 353 2603 747 3093 
Q 1141 3584 1784 3584 
Q 2172 3584 2450 3431 
Q 2728 3278 2906 2969 
L 2906 3500 
L 3481 3500 
L 3481 434 
z
" transform="scale(0.015625)"/>
       <path id="DejaVuSans-65" d="M 3597 1894 
L 3597 1613 
L 953 1613 
Q 991 1019 1311 708 
Q 1631 397 2203 397 
Q 2534 397 2845 478 
Q 3156 559 3463 722 
L 3463 178 
Q 3153 47 2828 -22 
Q 2503 -91 2169 -91 
Q 1331 -91 842 396 
Q 353 884 353 1716 
Q 353 2575 817 3079 
Q 1281 3584 2069 3584 
Q 2775 3584 3186 3129 
Q 3597 2675 3597 1894 
z
M 3022 2063 
Q 3016 2534 2758 2815 
Q 2500 3097 2075 3097 
Q 1594 3097 1305 2825 
Q 1016 2553 972 2059 
L 3022 2063 
z
" transform="scale(0.015625)"/>
      </defs>
      <use xlink:href="#DejaVuSans-4c" transform="translate(0 0.09375)"/>
      <use xlink:href="#DejaVuSans-61" transform="translate(55.712891 0.09375)"/>
      <use xlink:href="#DejaVuSans-72" transform="translate(116.992188 0.09375)"/>
      <use xlink:href="#DejaVuSans-67" transform="translate(158.105469 0.09375)"/>
      <use xlink:href="#DejaVuSans-65" transform="translate(221.582031 0.09375)"/>
      <use xlink:href="#DejaVuSans-20" transform="translate(283.105469 0.09375)"/>
      <use xlink:href="#DejaVuSans-Oblique-3c4" transform="translate(314.892578 0.09375)"/>
     </g>
    </g>
   </g>
   <g id="line2d_3">
    <path d="M 38.915678 294.81512 
L 71.332117 294.850385 
L 210.329877 294.669188 
L 212.785668 294.632199 
L 216.223775 294.72826 
L 273.198122 294.837688 
L 274.180438 292.932114 
L 274.671596 292.927425 
L 275.162755 292.482486 
L 275.653913 289.495294 
L 276.145071 284.015931 
L 276.636229 274.553471 
L 277.127387 271.075222 
L 277.618545 264.83512 
L 278.600862 274.462581 
L 279.09202 275.125581 
L 279.583178 280.523921 
L 280.074336 284.459917 
L 280.565494 282.878851 
L 281.056653 280.020181 
L 282.038969 285.335761 
L 282.530127 285.986167 
L 283.021285 284.58233 
L 283.512443 285.062823 
L 284.003601 286.532592 
L 284.49476 287.50373 
L 284.985918 283.113907 
L 285.477076 287.624332 
L 285.968234 288.059164 
L 286.459392 284.492451 
L 286.95055 286.466465 
L 287.441709 284.199271 
L 287.932867 284.050766 
L 288.424025 283.005357 
L 288.915183 277.887373 
L 289.406341 282.65111 
L 289.897499 281.107776 
L 290.388658 282.740476 
L 290.879816 282.956366 
L 291.370974 278.166951 
L 291.862132 282.942959 
L 292.35329 281.157684 
L 292.844448 285.670986 
L 293.826765 283.24385 
L 294.317923 284.729422 
L 294.809081 280.647889 
L 295.300239 281.75153 
L 295.791397 283.480441 
L 296.282556 280.645802 
L 296.773714 280.175382 
L 297.264872 282.546928 
L 297.75603 283.028152 
L 298.247188 281.984439 
L 299.229505 285.575821 
L 300.211821 286.453319 
L 300.702979 287.454344 
L 301.194137 284.559139 
L 301.685295 279.250417 
L 302.176454 283.699858 
L 302.667612 280.369214 
L 303.15877 282.073497 
L 303.649928 289.114746 
L 304.141086 289.065541 
L 304.632244 285.317511 
L 305.123403 288.98855 
L 305.614561 289.060233 
L 306.105719 285.423265 
L 306.596877 288.832 
L 307.088035 284.664543 
L 307.579193 286.820197 
L 308.070352 286.246979 
L 308.56151 286.253806 
L 309.052668 288.054282 
L 309.543826 285.259169 
L 310.034984 288.854286 
L 311.508459 281.773489 
L 311.999617 274.092305 
L 312.490775 281.652718 
L 312.981933 281.595023 
L 313.473091 277.395749 
L 313.964249 279.383444 
L 314.455408 272.313535 
L 314.946566 259.3895 
L 315.437724 257.444135 
L 315.928882 264.312546 
L 316.42004 262.415087 
L 316.911198 253.563678 
L 317.402357 251.462843 
L 317.893515 257.222844 
L 318.384673 256.496234 
L 318.875831 250.802051 
L 319.366989 251.758364 
L 320.349306 262.927563 
L 320.840464 262.44514 
L 321.331622 253.884867 
L 321.82278 252.07825 
L 322.313938 256.707813 
L 322.805096 256.952864 
L 323.296255 253.450313 
L 323.787413 248.510412 
L 324.278571 249.41474 
L 325.752045 266.630062 
L 326.243204 267.23309 
L 326.734362 263.288426 
L 328.207836 231.706544 
L 328.698994 227.907273 
L 329.190153 228.632817 
L 329.681311 236.192351 
L 330.663627 254.573905 
L 331.154785 260.703317 
L 332.137102 268.907905 
L 333.610576 277.507241 
L 334.592892 281.562721 
L 335.575209 284.530136 
L 336.557525 286.662999 
L 337.539841 288.222521 
L 338.522158 289.466637 
L 341.960265 292.472308 
L 342.942581 292.879043 
L 345.88953 293.645549 
L 347.854163 294.051396 
L 351.783428 294.453963 
L 357.186168 294.732896 
L 363.571224 294.816589 
L 411.704724 294.842205 
L 514.35678 294.849463 
L 556.596382 294.836022 
L 556.596382 294.836022 
" clip-path="url(#peb5555f55b)" style="fill: none; stroke: #1f77b4; stroke-width: 1.5; stroke-linecap: square"/>
   </g>
   <g id="patch_12">
    <path d="M 39.28 298.2 
L 39.28 224.56 
" style="fill: none; stroke: #000000; stroke-width: 2.5; stroke-linejoin: miter; stroke-linecap: square"/>
   </g>
   <g id="patch_13">
    <path d="M 39.28 298.2 
L 556.56 298.2 
" style="fill: none; stroke: #000000; stroke-width: 2.5; stroke-linejoin: miter; stroke-linecap: square"/>
   </g>
  </g>
  <g id="axes_4">
   <g id="patch_14">
    <path d="M 39.28 391.28 
L 556.56 391.28 
L 556.56 317.64 
L 39.28 317.64 
z
" style="fill: #ffffff"/>
   </g>
   <g id="patch_15">
    <path d="M 273.68928 391.28 
L 273.68928 317.64 
L 328.207836 317.64 
L 328.207836 391.28 
z
" clip-path="url(#p0f94ab825d)" style="fill: #ff7f50; stroke: #ff7f50; stroke-linejoin: miter"/>
   </g>
   <g id="matplotlib.axis_7">
    <g id="text_5">
     <!-- Time -->
     <g transform="translate(275.899531 408.957188)scale(0.18 -0.18)">
      <defs>
       <path id="DejaVuSans-54" d="M -19 4666 
L 3928 4666 
L 3928 4134 
L 2272 4134 
L 2272 0 
L 1638 0 
L 1638 4134 
L -19 4134 
L -19 4666 
z
" transform="scale(0.015625)"/>
       <path id="DejaVuSans-69" d="M 603 3500 
L 1178 3500 
L 1178 0 
L 603 0 
L 603 3500 
z
M 603 4863 
L 1178 4863 
L 1178 4134 
L 603 4134 
L 603 4863 
z
" transform="scale(0.015625)"/>
      </defs>
      <use xlink:href="#DejaVuSans-54"/>
      <use xlink:href="#DejaVuSans-69" x="57.958984"/>
      <use xlink:href="#DejaVuSans-6d" x="85.742188"/>
      <use xlink:href="#DejaVuSans-65" x="183.154297"/>
     </g>
    </g>
   </g>
   <g id="matplotlib.axis_8">
    <g id="text_6">
     <!-- Mixed $τ$ -->
     <g transform="translate(32.368437 381.83)rotate(-90)scale(0.14 -0.14)">
      <defs>
       <path id="DejaVuSans-4d" d="M 628 4666 
L 1569 4666 
L 2759 1491 
L 3956 4666 
L 4897 4666 
L 4897 0 
L 4281 0 
L 4281 4097 
L 3078 897 
L 2444 897 
L 1241 4097 
L 1241 0 
L 628 0 
L 628 4666 
z
" transform="scale(0.015625)"/>
       <path id="DejaVuSans-78" d="M 3513 3500 
L 2247 1797 
L 3578 0 
L 2900 0 
L 1881 1375 
L 863 0 
L 184 0 
L 1544 1831 
L 300 3500 
L 978 3500 
L 1906 2253 
L 2834 3500 
L 3513 3500 
z
" transform="scale(0.015625)"/>
       <path id="DejaVuSans-64" d="M 2906 2969 
L 2906 4863 
L 3481 4863 
L 3481 0 
L 2906 0 
L 2906 525 
Q 2725 213 2448 61 
Q 2172 -91 1784 -91 
Q 1150 -91 751 415 
Q 353 922 353 1747 
Q 353 2572 751 3078 
Q 1150 3584 1784 3584 
Q 2172 3584 2448 3432 
Q 2725 3281 2906 2969 
z
M 947 1747 
Q 947 1113 1208 752 
Q 1469 391 1925 391 
Q 2381 391 2643 752 
Q 2906 1113 2906 1747 
Q 2906 2381 2643 2742 
Q 2381 3103 1925 3103 
Q 1469 3103 1208 2742 
Q 947 2381 947 1747 
z
" transform="scale(0.015625)"/>
      </defs>
      <use xlink:href="#DejaVuSans-4d" transform="translate(0 0.015625)"/>
      <use xlink:href="#DejaVuSans-69" transform="translate(86.279297 0.015625)"/>
      <use xlink:href="#DejaVuSans-78" transform="translate(114.0625 0.015625)"/>
      <use xlink:href="#DejaVuSans-65" transform="translate(173.242188 0.015625)"/>
      <use xlink:href="#DejaVuSans-64" transform="translate(234.765625 0.015625)"/>
      <use xlink:href="#DejaVuSans-20" transform="translate(298.242188 0.015625)"/>
      <use xlink:href="#DejaVuSans-Oblique-3c4" transform="translate(330.029297 0.015625)"/>
     </g>
    </g>
   </g>
   <g id="line2d_4">
    <path d="M 38.915678 387.912642 
L 81.646438 387.932392 
L 209.347561 387.868569 
L 214.259142 387.837435 
L 231.940836 387.918393 
L 273.198122 387.924918 
L 273.68928 387.49787 
L 274.180438 385.022539 
L 274.671596 385.947483 
L 275.162755 385.832081 
L 275.653913 383.848098 
L 276.636229 365.922191 
L 277.127387 361.566012 
L 277.618545 338.932584 
L 278.109704 339.309971 
L 278.600862 347.23331 
L 279.09202 325.577084 
L 279.583178 320.987273 
L 280.074336 328.209674 
L 280.565494 339.728614 
L 281.547811 330.297543 
L 282.038969 328.427782 
L 282.530127 341.874388 
L 283.021285 348.225966 
L 283.512443 346.817627 
L 284.003601 343.833396 
L 284.49476 353.816316 
L 284.985918 353.18653 
L 285.477076 351.945952 
L 285.968234 361.488653 
L 286.459392 356.162012 
L 286.95055 361.425218 
L 287.441709 361.813457 
L 287.932867 366.677307 
L 288.424025 358.549603 
L 288.915183 357.738493 
L 289.406341 362.311245 
L 289.897499 364.008276 
L 290.388658 367.641372 
L 290.879816 363.701406 
L 291.370974 361.982946 
L 291.862132 365.213879 
L 292.35329 365.098831 
L 292.844448 368.478753 
L 293.335607 366.453497 
L 293.826765 370.369094 
L 294.317923 372.919752 
L 294.809081 369.76185 
L 295.300239 370.5258 
L 295.791397 370.719471 
L 296.773714 373.489611 
L 297.264872 376.524809 
L 297.75603 377.999833 
L 298.247188 378.2609 
L 298.738346 379.476912 
L 299.229505 381.331472 
L 300.211821 382.75821 
L 300.702979 382.958504 
L 301.194137 380.584315 
L 301.685295 377.512065 
L 302.176454 375.796795 
L 302.667612 375.017766 
L 303.15877 372.656468 
L 303.649928 369.372699 
L 304.141086 373.73411 
L 304.632244 374.113622 
L 305.123403 373.750889 
L 305.614561 376.026916 
L 306.105719 371.867848 
L 306.596877 372.729392 
L 307.088035 372.398705 
L 307.579193 366.873487 
L 308.070352 368.01988 
L 308.56151 365.602441 
L 309.052668 370.504489 
L 309.543826 360.673139 
L 310.034984 367.384733 
L 310.526142 368.12942 
L 311.017301 370.706092 
L 311.508459 356.185789 
L 311.999617 351.417719 
L 312.490775 357.242781 
L 312.981933 361.320381 
L 313.473091 362.882075 
L 313.964249 364.019952 
L 314.455408 345.821547 
L 314.946566 337.084164 
L 315.928882 352.260591 
L 316.42004 349.528772 
L 316.911198 341.302751 
L 317.402357 342.41824 
L 317.893515 344.627449 
L 318.384673 343.221046 
L 318.875831 339.882409 
L 319.858147 353.838252 
L 320.349306 356.093536 
L 320.840464 357.246151 
L 321.331622 351.819333 
L 321.82278 354.825662 
L 322.313938 354.557118 
L 322.805096 354.507733 
L 323.296255 353.68617 
L 323.787413 353.138038 
L 324.278571 355.764793 
L 324.769729 359.929261 
L 325.260887 362.768862 
L 325.752045 367.442692 
L 326.243204 367.794303 
L 326.734362 366.348623 
L 327.22552 359.167891 
L 328.207836 353.860005 
L 328.698994 345.740939 
L 329.190153 347.467201 
L 330.172469 357.137151 
L 331.645943 366.752595 
L 332.62826 372.111591 
L 333.610576 376.323179 
L 334.592892 379.577027 
L 335.575209 381.8915 
L 336.066367 382.63873 
L 337.048683 383.542535 
L 338.522158 384.815005 
L 339.995632 386.194785 
L 340.977948 386.717473 
L 341.960265 386.97917 
L 344.416056 387.278673 
L 350.309954 387.731478 
L 363.571224 387.903366 
L 469.170229 387.921873 
L 498.639719 387.928752 
L 556.596382 387.92515 
L 556.596382 387.92515 
" clip-path="url(#p0f94ab825d)" style="fill: none; stroke: #1f77b4; stroke-width: 1.5; stroke-linecap: square"/>
   </g>
   <g id="patch_16">
    <path d="M 39.28 391.28 
L 39.28 317.64 
" style="fill: none; stroke: #000000; stroke-width: 2.5; stroke-linejoin: miter; stroke-linecap: square"/>
   </g>
   <g id="patch_17">
    <path d="M 39.28 391.28 
L 556.56 391.28 
" style="fill: none; stroke: #000000; stroke-width: 2.5; stroke-linejoin: miter; stroke-linecap: square"/>
   </g>
  </g>
 </g>
 <defs>
  <clipPath id="p7fdb841a8f">
   <rect x="39.28" y="38.4" width="517.28" height="73.64"/>
  </clipPath>
  <clipPath id="p3f820d1ff9">
   <rect x="39.28" y="131.48" width="517.28" height="73.64"/>
  </clipPath>
  <clipPath id="peb5555f55b">
   <rect x="39.28" y="224.56" width="517.28" height="73.64"/>
  </clipPath>
  <clipPath id="p0f94ab825d">
   <rect x="39.28" y="317.64" width="517.28" height="73.64"/>
  </clipPath>
 </defs>
</svg>
