<?xml version="1.0" encoding="utf-8" standalone="no"?>
<!DOCTYPE svg PUBLIC "-//W3C//DTD SVG 1.1//EN"
  "http://www.w3.org/Graphics/SVG/1.1/DTD/svg11.dtd">
<svg xmlns:xlink="http://www.w3.org/1999/xlink" width="720pt" height="288pt" viewBox="0 0 720 288" xmlns="http://www.w3.org/2000/svg" version="1.1">
 <metadata>
  <rdf:RDF xmlns:dc="http://purl.org/dc/elements/1.1/" xmlns:cc="http://creativecommons.org/ns#" xmlns:rdf="http://www.w3.org/1999/02/22-rdf-syntax-ns#">
   <cc:Work>
    <dc:type rdf:resource="http://purl.org/dc/dcmitype/StillImage"/>
    <dc:date>2024-04-13T23:41:24.197719</dc:date>
    <dc:format>image/svg+xml</dc:format>
    <dc:creator>
     <cc:Agent>
      <dc:title>Matplotlib v3.5.1, https://matplotlib.org/</dc:title>
     </cc:Agent>
    </dc:creator>
   </cc:Work>
  </rdf:RDF>
 </metadata>
 <defs>
  <style type="text/css">*{stroke-linejoin: round; stroke-linecap: butt}</style>
 </defs>
 <g id="figure_1">
  <g id="patch_1">
   <path d="M 0 288 
L 720 288 
L 720 0 
L 0 0 
L 0 288 
z
" style="fill: none"/>
  </g>
  <g id="axes_1">
   <g id="patch_2">
    <path d="M 90 244.8 
L 332.608696 244.8 
L 332.608696 34.56 
L 90 34.56 
L 90 244.8 
z
" style="fill: none"/>
   </g>
   <g id="matplotlib.axis_1">
    <g id="xtick_1">
     <g id="line2d_1">
      <defs>
       <path id="m8c01c5ab6d" d="M 0 0 
L 0 3.5 
" style="stroke: #000000; stroke-width: 0.8"/>
      </defs>
      <g>
       <use xlink:href="#m8c01c5ab6d" x="101.027668" y="244.8" style="stroke: #000000; stroke-width: 0.8"/>
      </g>
     </g>
     <g id="text_1">
      <!-- 0.000 -->
      <g transform="translate(86.713605 259.398438)scale(0.1 -0.1)">
       <defs>
        <path id="DejaVuSans-30" d="M 2034 4250 
Q 1547 4250 1301 3770 
Q 1056 3291 1056 2328 
Q 1056 1369 1301 889 
Q 1547 409 2034 409 
Q 2525 409 2770 889 
Q 3016 1369 3016 2328 
Q 3016 3291 2770 3770 
Q 2525 4250 2034 4250 
z
M 2034 4750 
Q 2819 4750 3233 4129 
Q 3647 3509 3647 2328 
Q 3647 1150 3233 529 
Q 2819 -91 2034 -91 
Q 1250 -91 836 529 
Q 422 1150 422 2328 
Q 422 3509 836 4129 
Q 1250 4750 2034 4750 
z
" transform="scale(0.015625)"/>
        <path id="DejaVuSans-2e" d="M 684 794 
L 1344 794 
L 1344 0 
L 684 0 
L 684 794 
z
" transform="scale(0.015625)"/>
       </defs>
       <use xlink:href="#DejaVuSans-30"/>
       <use xlink:href="#DejaVuSans-2e" x="63.623047"/>
       <use xlink:href="#DejaVuSans-30" x="95.410156"/>
       <use xlink:href="#DejaVuSans-30" x="159.033203"/>
       <use xlink:href="#DejaVuSans-30" x="222.65625"/>
      </g>
     </g>
    </g>
    <g id="xtick_2">
     <g id="line2d_2">
      <g>
       <use xlink:href="#m8c01c5ab6d" x="145.13834" y="244.8" style="stroke: #000000; stroke-width: 0.8"/>
      </g>
     </g>
     <g id="text_2">
      <!-- 0.002 -->
      <g transform="translate(130.824277 259.398438)scale(0.1 -0.1)">
       <defs>
        <path id="DejaVuSans-32" d="M 1228 531 
L 3431 531 
L 3431 0 
L 469 0 
L 469 531 
Q 828 903 1448 1529 
Q 2069 2156 2228 2338 
Q 2531 2678 2651 2914 
Q 2772 3150 2772 3378 
Q 2772 3750 2511 3984 
Q 2250 4219 1831 4219 
Q 1534 4219 1204 4116 
Q 875 4013 500 3803 
L 500 4441 
Q 881 4594 1212 4672 
Q 1544 4750 1819 4750 
Q 2544 4750 2975 4387 
Q 3406 4025 3406 3419 
Q 3406 3131 3298 2873 
Q 3191 2616 2906 2266 
Q 2828 2175 2409 1742 
Q 1991 1309 1228 531 
z
" transform="scale(0.015625)"/>
       </defs>
       <use xlink:href="#DejaVuSans-30"/>
       <use xlink:href="#DejaVuSans-2e" x="63.623047"/>
       <use xlink:href="#DejaVuSans-30" x="95.410156"/>
       <use xlink:href="#DejaVuSans-30" x="159.033203"/>
       <use xlink:href="#DejaVuSans-32" x="222.65625"/>
      </g>
     </g>
    </g>
    <g id="xtick_3">
     <g id="line2d_3">
      <g>
       <use xlink:href="#m8c01c5ab6d" x="189.249012" y="244.8" style="stroke: #000000; stroke-width: 0.8"/>
      </g>
     </g>
     <g id="text_3">
      <!-- 0.004 -->
      <g transform="translate(174.934949 259.398438)scale(0.1 -0.1)">
       <defs>
        <path id="DejaVuSans-34" d="M 2419 4116 
L 825 1625 
L 2419 1625 
L 2419 4116 
z
M 2253 4666 
L 3047 4666 
L 3047 1625 
L 3713 1625 
L 3713 1100 
L 3047 1100 
L 3047 0 
L 2419 0 
L 2419 1100 
L 313 1100 
L 313 1709 
L 2253 4666 
z
" transform="scale(0.015625)"/>
       </defs>
       <use xlink:href="#DejaVuSans-30"/>
       <use xlink:href="#DejaVuSans-2e" x="63.623047"/>
       <use xlink:href="#DejaVuSans-30" x="95.410156"/>
       <use xlink:href="#DejaVuSans-30" x="159.033203"/>
       <use xlink:href="#DejaVuSans-34" x="222.65625"/>
      </g>
     </g>
    </g>
    <g id="xtick_4">
     <g id="line2d_4">
      <g>
       <use xlink:href="#m8c01c5ab6d" x="233.359684" y="244.8" style="stroke: #000000; stroke-width: 0.8"/>
      </g>
     </g>
     <g id="text_4">
      <!-- 0.006 -->
      <g transform="translate(219.045621 259.398438)scale(0.1 -0.1)">
       <defs>
        <path id="DejaVuSans-36" d="M 2113 2584 
Q 1688 2584 1439 2293 
Q 1191 2003 1191 1497 
Q 1191 994 1439 701 
Q 1688 409 2113 409 
Q 2538 409 2786 701 
Q 3034 994 3034 1497 
Q 3034 2003 2786 2293 
Q 2538 2584 2113 2584 
z
M 3366 4563 
L 3366 3988 
Q 3128 4100 2886 4159 
Q 2644 4219 2406 4219 
Q 1781 4219 1451 3797 
Q 1122 3375 1075 2522 
Q 1259 2794 1537 2939 
Q 1816 3084 2150 3084 
Q 2853 3084 3261 2657 
Q 3669 2231 3669 1497 
Q 3669 778 3244 343 
Q 2819 -91 2113 -91 
Q 1303 -91 875 529 
Q 447 1150 447 2328 
Q 447 3434 972 4092 
Q 1497 4750 2381 4750 
Q 2619 4750 2861 4703 
Q 3103 4656 3366 4563 
z
" transform="scale(0.015625)"/>
       </defs>
       <use xlink:href="#DejaVuSans-30"/>
       <use xlink:href="#DejaVuSans-2e" x="63.623047"/>
       <use xlink:href="#DejaVuSans-30" x="95.410156"/>
       <use xlink:href="#DejaVuSans-30" x="159.033203"/>
       <use xlink:href="#DejaVuSans-36" x="222.65625"/>
      </g>
     </g>
    </g>
    <g id="xtick_5">
     <g id="line2d_5">
      <g>
       <use xlink:href="#m8c01c5ab6d" x="277.470356" y="244.8" style="stroke: #000000; stroke-width: 0.8"/>
      </g>
     </g>
     <g id="text_5">
      <!-- 0.008 -->
      <g transform="translate(263.156293 259.398438)scale(0.1 -0.1)">
       <defs>
        <path id="DejaVuSans-38" d="M 2034 2216 
Q 1584 2216 1326 1975 
Q 1069 1734 1069 1313 
Q 1069 891 1326 650 
Q 1584 409 2034 409 
Q 2484 409 2743 651 
Q 3003 894 3003 1313 
Q 3003 1734 2745 1975 
Q 2488 2216 2034 2216 
z
M 1403 2484 
Q 997 2584 770 2862 
Q 544 3141 544 3541 
Q 544 4100 942 4425 
Q 1341 4750 2034 4750 
Q 2731 4750 3128 4425 
Q 3525 4100 3525 3541 
Q 3525 3141 3298 2862 
Q 3072 2584 2669 2484 
Q 3125 2378 3379 2068 
Q 3634 1759 3634 1313 
Q 3634 634 3220 271 
Q 2806 -91 2034 -91 
Q 1263 -91 848 271 
Q 434 634 434 1313 
Q 434 1759 690 2068 
Q 947 2378 1403 2484 
z
M 1172 3481 
Q 1172 3119 1398 2916 
Q 1625 2713 2034 2713 
Q 2441 2713 2670 2916 
Q 2900 3119 2900 3481 
Q 2900 3844 2670 4047 
Q 2441 4250 2034 4250 
Q 1625 4250 1398 4047 
Q 1172 3844 1172 3481 
z
" transform="scale(0.015625)"/>
       </defs>
       <use xlink:href="#DejaVuSans-30"/>
       <use xlink:href="#DejaVuSans-2e" x="63.623047"/>
       <use xlink:href="#DejaVuSans-30" x="95.410156"/>
       <use xlink:href="#DejaVuSans-30" x="159.033203"/>
       <use xlink:href="#DejaVuSans-38" x="222.65625"/>
      </g>
     </g>
    </g>
    <g id="xtick_6">
     <g id="line2d_6">
      <g>
       <use xlink:href="#m8c01c5ab6d" x="321.581028" y="244.8" style="stroke: #000000; stroke-width: 0.8"/>
      </g>
     </g>
     <g id="text_6">
      <!-- 0.010 -->
      <g transform="translate(307.266965 259.398438)scale(0.1 -0.1)">
       <defs>
        <path id="DejaVuSans-31" d="M 794 531 
L 1825 531 
L 1825 4091 
L 703 3866 
L 703 4441 
L 1819 4666 
L 2450 4666 
L 2450 531 
L 3481 531 
L 3481 0 
L 794 0 
L 794 531 
z
" transform="scale(0.015625)"/>
       </defs>
       <use xlink:href="#DejaVuSans-30"/>
       <use xlink:href="#DejaVuSans-2e" x="63.623047"/>
       <use xlink:href="#DejaVuSans-30" x="95.410156"/>
       <use xlink:href="#DejaVuSans-31" x="159.033203"/>
       <use xlink:href="#DejaVuSans-30" x="222.65625"/>
      </g>
     </g>
    </g>
    <g id="text_7">
     <!-- Input noise strength $\sigma$ -->
     <g transform="translate(133.744348 276.118125)scale(0.14 -0.14)">
      <defs>
       <path id="DejaVuSans-49" d="M 628 4666 
L 1259 4666 
L 1259 0 
L 628 0 
L 628 4666 
z
" transform="scale(0.015625)"/>
       <path id="DejaVuSans-6e" d="M 3513 2113 
L 3513 0 
L 2938 0 
L 2938 2094 
Q 2938 2591 2744 2837 
Q 2550 3084 2163 3084 
Q 1697 3084 1428 2787 
Q 1159 2491 1159 1978 
L 1159 0 
L 581 0 
L 581 3500 
L 1159 3500 
L 1159 2956 
Q 1366 3272 1645 3428 
Q 1925 3584 2291 3584 
Q 2894 3584 3203 3211 
Q 3513 2838 3513 2113 
z
" transform="scale(0.015625)"/>
       <path id="DejaVuSans-70" d="M 1159 525 
L 1159 -1331 
L 581 -1331 
L 581 3500 
L 1159 3500 
L 1159 2969 
Q 1341 3281 1617 3432 
Q 1894 3584 2278 3584 
Q 2916 3584 3314 3078 
Q 3713 2572 3713 1747 
Q 3713 922 3314 415 
Q 2916 -91 2278 -91 
Q 1894 -91 1617 61 
Q 1341 213 1159 525 
z
M 3116 1747 
Q 3116 2381 2855 2742 
Q 2594 3103 2138 3103 
Q 1681 3103 1420 2742 
Q 1159 2381 1159 1747 
Q 1159 1113 1420 752 
Q 1681 391 2138 391 
Q 2594 391 2855 752 
Q 3116 1113 3116 1747 
z
" transform="scale(0.015625)"/>
       <path id="DejaVuSans-75" d="M 544 1381 
L 544 3500 
L 1119 3500 
L 1119 1403 
Q 1119 906 1312 657 
Q 1506 409 1894 409 
Q 2359 409 2629 706 
Q 2900 1003 2900 1516 
L 2900 3500 
L 3475 3500 
L 3475 0 
L 2900 0 
L 2900 538 
Q 2691 219 2414 64 
Q 2138 -91 1772 -91 
Q 1169 -91 856 284 
Q 544 659 544 1381 
z
M 1991 3584 
L 1991 3584 
z
" transform="scale(0.015625)"/>
       <path id="DejaVuSans-74" d="M 1172 4494 
L 1172 3500 
L 2356 3500 
L 2356 3053 
L 1172 3053 
L 1172 1153 
Q 1172 725 1289 603 
Q 1406 481 1766 481 
L 2356 481 
L 2356 0 
L 1766 0 
Q 1100 0 847 248 
Q 594 497 594 1153 
L 594 3053 
L 172 3053 
L 172 3500 
L 594 3500 
L 594 4494 
L 1172 4494 
z
" transform="scale(0.015625)"/>
       <path id="DejaVuSans-20" transform="scale(0.015625)"/>
       <path id="DejaVuSans-6f" d="M 1959 3097 
Q 1497 3097 1228 2736 
Q 959 2375 959 1747 
Q 959 1119 1226 758 
Q 1494 397 1959 397 
Q 2419 397 2687 759 
Q 2956 1122 2956 1747 
Q 2956 2369 2687 2733 
Q 2419 3097 1959 3097 
z
M 1959 3584 
Q 2709 3584 3137 3096 
Q 3566 2609 3566 1747 
Q 3566 888 3137 398 
Q 2709 -91 1959 -91 
Q 1206 -91 779 398 
Q 353 888 353 1747 
Q 353 2609 779 3096 
Q 1206 3584 1959 3584 
z
" transform="scale(0.015625)"/>
       <path id="DejaVuSans-69" d="M 603 3500 
L 1178 3500 
L 1178 0 
L 603 0 
L 603 3500 
z
M 603 4863 
L 1178 4863 
L 1178 4134 
L 603 4134 
L 603 4863 
z
" transform="scale(0.015625)"/>
       <path id="DejaVuSans-73" d="M 2834 3397 
L 2834 2853 
Q 2591 2978 2328 3040 
Q 2066 3103 1784 3103 
Q 1356 3103 1142 2972 
Q 928 2841 928 2578 
Q 928 2378 1081 2264 
Q 1234 2150 1697 2047 
L 1894 2003 
Q 2506 1872 2764 1633 
Q 3022 1394 3022 966 
Q 3022 478 2636 193 
Q 2250 -91 1575 -91 
Q 1294 -91 989 -36 
Q 684 19 347 128 
L 347 722 
Q 666 556 975 473 
Q 1284 391 1588 391 
Q 1994 391 2212 530 
Q 2431 669 2431 922 
Q 2431 1156 2273 1281 
Q 2116 1406 1581 1522 
L 1381 1569 
Q 847 1681 609 1914 
Q 372 2147 372 2553 
Q 372 3047 722 3315 
Q 1072 3584 1716 3584 
Q 2034 3584 2315 3537 
Q 2597 3491 2834 3397 
z
" transform="scale(0.015625)"/>
       <path id="DejaVuSans-65" d="M 3597 1894 
L 3597 1613 
L 953 1613 
Q 991 1019 1311 708 
Q 1631 397 2203 397 
Q 2534 397 2845 478 
Q 3156 559 3463 722 
L 3463 178 
Q 3153 47 2828 -22 
Q 2503 -91 2169 -91 
Q 1331 -91 842 396 
Q 353 884 353 1716 
Q 353 2575 817 3079 
Q 1281 3584 2069 3584 
Q 2775 3584 3186 3129 
Q 3597 2675 3597 1894 
z
M 3022 2063 
Q 3016 2534 2758 2815 
Q 2500 3097 2075 3097 
Q 1594 3097 1305 2825 
Q 1016 2553 972 2059 
L 3022 2063 
z
" transform="scale(0.015625)"/>
       <path id="DejaVuSans-72" d="M 2631 2963 
Q 2534 3019 2420 3045 
Q 2306 3072 2169 3072 
Q 1681 3072 1420 2755 
Q 1159 2438 1159 1844 
L 1159 0 
L 581 0 
L 581 3500 
L 1159 3500 
L 1159 2956 
Q 1341 3275 1631 3429 
Q 1922 3584 2338 3584 
Q 2397 3584 2469 3576 
Q 2541 3569 2628 3553 
L 2631 2963 
z
" transform="scale(0.015625)"/>
       <path id="DejaVuSans-67" d="M 2906 1791 
Q 2906 2416 2648 2759 
Q 2391 3103 1925 3103 
Q 1463 3103 1205 2759 
Q 947 2416 947 1791 
Q 947 1169 1205 825 
Q 1463 481 1925 481 
Q 2391 481 2648 825 
Q 2906 1169 2906 1791 
z
M 3481 434 
Q 3481 -459 3084 -895 
Q 2688 -1331 1869 -1331 
Q 1566 -1331 1297 -1286 
Q 1028 -1241 775 -1147 
L 775 -588 
Q 1028 -725 1275 -790 
Q 1522 -856 1778 -856 
Q 2344 -856 2625 -561 
Q 2906 -266 2906 331 
L 2906 616 
Q 2728 306 2450 153 
Q 2172 0 1784 0 
Q 1141 0 747 490 
Q 353 981 353 1791 
Q 353 2603 747 3093 
Q 1141 3584 1784 3584 
Q 2172 3584 2450 3431 
Q 2728 3278 2906 2969 
L 2906 3500 
L 3481 3500 
L 3481 434 
z
" transform="scale(0.015625)"/>
       <path id="DejaVuSans-68" d="M 3513 2113 
L 3513 0 
L 2938 0 
L 2938 2094 
Q 2938 2591 2744 2837 
Q 2550 3084 2163 3084 
Q 1697 3084 1428 2787 
Q 1159 2491 1159 1978 
L 1159 0 
L 581 0 
L 581 4863 
L 1159 4863 
L 1159 2956 
Q 1366 3272 1645 3428 
Q 1925 3584 2291 3584 
Q 2894 3584 3203 3211 
Q 3513 2838 3513 2113 
z
" transform="scale(0.015625)"/>
       <path id="DejaVuSans-Oblique-3c3" d="M 2219 3044 
Q 1744 3044 1422 2700 
Q 1081 2341 969 1747 
Q 844 1119 1044 756 
Q 1241 397 1706 397 
Q 2166 397 2503 759 
Q 2844 1122 2966 1747 
Q 3075 2319 2881 2700 
Q 2700 3044 2219 3044 
z
M 2309 3503 
L 4219 3500 
L 4106 2925 
L 3463 2925 
Q 3706 2438 3575 1747 
Q 3406 888 2884 400 
Q 2359 -91 1609 -91 
Q 856 -91 525 400 
Q 194 888 363 1747 
Q 528 2609 1050 3097 
Q 1484 3503 2309 3503 
z
" transform="scale(0.015625)"/>
      </defs>
      <use xlink:href="#DejaVuSans-49" transform="translate(0 0.015625)"/>
      <use xlink:href="#DejaVuSans-6e" transform="translate(29.492188 0.015625)"/>
      <use xlink:href="#DejaVuSans-70" transform="translate(92.871094 0.015625)"/>
      <use xlink:href="#DejaVuSans-75" transform="translate(156.347656 0.015625)"/>
      <use xlink:href="#DejaVuSans-74" transform="translate(219.726562 0.015625)"/>
      <use xlink:href="#DejaVuSans-20" transform="translate(258.935547 0.015625)"/>
      <use xlink:href="#DejaVuSans-6e" transform="translate(290.722656 0.015625)"/>
      <use xlink:href="#DejaVuSans-6f" transform="translate(354.101562 0.015625)"/>
      <use xlink:href="#DejaVuSans-69" transform="translate(415.283203 0.015625)"/>
      <use xlink:href="#DejaVuSans-73" transform="translate(443.066406 0.015625)"/>
      <use xlink:href="#DejaVuSans-65" transform="translate(495.166016 0.015625)"/>
      <use xlink:href="#DejaVuSans-20" transform="translate(556.689453 0.015625)"/>
      <use xlink:href="#DejaVuSans-73" transform="translate(588.476562 0.015625)"/>
      <use xlink:href="#DejaVuSans-74" transform="translate(640.576172 0.015625)"/>
      <use xlink:href="#DejaVuSans-72" transform="translate(679.785156 0.015625)"/>
      <use xlink:href="#DejaVuSans-65" transform="translate(720.898438 0.015625)"/>
      <use xlink:href="#DejaVuSans-6e" transform="translate(782.421875 0.015625)"/>
      <use xlink:href="#DejaVuSans-67" transform="translate(845.800781 0.015625)"/>
      <use xlink:href="#DejaVuSans-74" transform="translate(909.277344 0.015625)"/>
      <use xlink:href="#DejaVuSans-68" transform="translate(948.486328 0.015625)"/>
      <use xlink:href="#DejaVuSans-20" transform="translate(1011.865234 0.015625)"/>
      <use xlink:href="#DejaVuSans-Oblique-3c3" transform="translate(1043.652344 0.015625)"/>
     </g>
    </g>
   </g>
   <g id="matplotlib.axis_2">
    <g id="ytick_1">
     <g id="line2d_7">
      <defs>
       <path id="m7ed222f1dc" d="M 0 0 
L -3.5 0 
" style="stroke: #000000; stroke-width: 0.8"/>
      </defs>
      <g>
       <use xlink:href="#m7ed222f1dc" x="90" y="244.017203" style="stroke: #000000; stroke-width: 0.8"/>
      </g>
     </g>
     <g id="text_8">
      <!-- 0.00 -->
      <g transform="translate(60.734375 247.816422)scale(0.1 -0.1)">
       <use xlink:href="#DejaVuSans-30"/>
       <use xlink:href="#DejaVuSans-2e" x="63.623047"/>
       <use xlink:href="#DejaVuSans-30" x="95.410156"/>
       <use xlink:href="#DejaVuSans-30" x="159.033203"/>
      </g>
     </g>
    </g>
    <g id="ytick_2">
     <g id="line2d_8">
      <g>
       <use xlink:href="#m7ed222f1dc" x="90" y="207.858487" style="stroke: #000000; stroke-width: 0.8"/>
      </g>
     </g>
     <g id="text_9">
      <!-- 0.05 -->
      <g transform="translate(60.734375 211.657706)scale(0.1 -0.1)">
       <defs>
        <path id="DejaVuSans-35" d="M 691 4666 
L 3169 4666 
L 3169 4134 
L 1269 4134 
L 1269 2991 
Q 1406 3038 1543 3061 
Q 1681 3084 1819 3084 
Q 2600 3084 3056 2656 
Q 3513 2228 3513 1497 
Q 3513 744 3044 326 
Q 2575 -91 1722 -91 
Q 1428 -91 1123 -41 
Q 819 9 494 109 
L 494 744 
Q 775 591 1075 516 
Q 1375 441 1709 441 
Q 2250 441 2565 725 
Q 2881 1009 2881 1497 
Q 2881 1984 2565 2268 
Q 2250 2553 1709 2553 
Q 1456 2553 1204 2497 
Q 953 2441 691 2322 
L 691 4666 
z
" transform="scale(0.015625)"/>
       </defs>
       <use xlink:href="#DejaVuSans-30"/>
       <use xlink:href="#DejaVuSans-2e" x="63.623047"/>
       <use xlink:href="#DejaVuSans-30" x="95.410156"/>
       <use xlink:href="#DejaVuSans-35" x="159.033203"/>
      </g>
     </g>
    </g>
    <g id="ytick_3">
     <g id="line2d_9">
      <g>
       <use xlink:href="#m7ed222f1dc" x="90" y="171.69977" style="stroke: #000000; stroke-width: 0.8"/>
      </g>
     </g>
     <g id="text_10">
      <!-- 0.10 -->
      <g transform="translate(60.734375 175.498989)scale(0.1 -0.1)">
       <use xlink:href="#DejaVuSans-30"/>
       <use xlink:href="#DejaVuSans-2e" x="63.623047"/>
       <use xlink:href="#DejaVuSans-31" x="95.410156"/>
       <use xlink:href="#DejaVuSans-30" x="159.033203"/>
      </g>
     </g>
    </g>
    <g id="ytick_4">
     <g id="line2d_10">
      <g>
       <use xlink:href="#m7ed222f1dc" x="90" y="135.541054" style="stroke: #000000; stroke-width: 0.8"/>
      </g>
     </g>
     <g id="text_11">
      <!-- 0.15 -->
      <g transform="translate(60.734375 139.340273)scale(0.1 -0.1)">
       <use xlink:href="#DejaVuSans-30"/>
       <use xlink:href="#DejaVuSans-2e" x="63.623047"/>
       <use xlink:href="#DejaVuSans-31" x="95.410156"/>
       <use xlink:href="#DejaVuSans-35" x="159.033203"/>
      </g>
     </g>
    </g>
    <g id="ytick_5">
     <g id="line2d_11">
      <g>
       <use xlink:href="#m7ed222f1dc" x="90" y="99.382337" style="stroke: #000000; stroke-width: 0.8"/>
      </g>
     </g>
     <g id="text_12">
      <!-- 0.20 -->
      <g transform="translate(60.734375 103.181556)scale(0.1 -0.1)">
       <use xlink:href="#DejaVuSans-30"/>
       <use xlink:href="#DejaVuSans-2e" x="63.623047"/>
       <use xlink:href="#DejaVuSans-32" x="95.410156"/>
       <use xlink:href="#DejaVuSans-30" x="159.033203"/>
      </g>
     </g>
    </g>
    <g id="ytick_6">
     <g id="line2d_12">
      <g>
       <use xlink:href="#m7ed222f1dc" x="90" y="63.223621" style="stroke: #000000; stroke-width: 0.8"/>
      </g>
     </g>
     <g id="text_13">
      <!-- 0.25 -->
      <g transform="translate(60.734375 67.02284)scale(0.1 -0.1)">
       <use xlink:href="#DejaVuSans-30"/>
       <use xlink:href="#DejaVuSans-2e" x="63.623047"/>
       <use xlink:href="#DejaVuSans-32" x="95.410156"/>
       <use xlink:href="#DejaVuSans-35" x="159.033203"/>
      </g>
     </g>
    </g>
    <g id="text_14">
     <!-- BEP Score -->
     <g transform="translate(53.822812 174.954531)rotate(-90)scale(0.14 -0.14)">
      <defs>
       <path id="DejaVuSans-42" d="M 1259 2228 
L 1259 519 
L 2272 519 
Q 2781 519 3026 730 
Q 3272 941 3272 1375 
Q 3272 1813 3026 2020 
Q 2781 2228 2272 2228 
L 1259 2228 
z
M 1259 4147 
L 1259 2741 
L 2194 2741 
Q 2656 2741 2882 2914 
Q 3109 3088 3109 3444 
Q 3109 3797 2882 3972 
Q 2656 4147 2194 4147 
L 1259 4147 
z
M 628 4666 
L 2241 4666 
Q 2963 4666 3353 4366 
Q 3744 4066 3744 3513 
Q 3744 3084 3544 2831 
Q 3344 2578 2956 2516 
Q 3422 2416 3680 2098 
Q 3938 1781 3938 1306 
Q 3938 681 3513 340 
Q 3088 0 2303 0 
L 628 0 
L 628 4666 
z
" transform="scale(0.015625)"/>
       <path id="DejaVuSans-45" d="M 628 4666 
L 3578 4666 
L 3578 4134 
L 1259 4134 
L 1259 2753 
L 3481 2753 
L 3481 2222 
L 1259 2222 
L 1259 531 
L 3634 531 
L 3634 0 
L 628 0 
L 628 4666 
z
" transform="scale(0.015625)"/>
       <path id="DejaVuSans-50" d="M 1259 4147 
L 1259 2394 
L 2053 2394 
Q 2494 2394 2734 2622 
Q 2975 2850 2975 3272 
Q 2975 3691 2734 3919 
Q 2494 4147 2053 4147 
L 1259 4147 
z
M 628 4666 
L 2053 4666 
Q 2838 4666 3239 4311 
Q 3641 3956 3641 3272 
Q 3641 2581 3239 2228 
Q 2838 1875 2053 1875 
L 1259 1875 
L 1259 0 
L 628 0 
L 628 4666 
z
" transform="scale(0.015625)"/>
       <path id="DejaVuSans-53" d="M 3425 4513 
L 3425 3897 
Q 3066 4069 2747 4153 
Q 2428 4238 2131 4238 
Q 1616 4238 1336 4038 
Q 1056 3838 1056 3469 
Q 1056 3159 1242 3001 
Q 1428 2844 1947 2747 
L 2328 2669 
Q 3034 2534 3370 2195 
Q 3706 1856 3706 1288 
Q 3706 609 3251 259 
Q 2797 -91 1919 -91 
Q 1588 -91 1214 -16 
Q 841 59 441 206 
L 441 856 
Q 825 641 1194 531 
Q 1563 422 1919 422 
Q 2459 422 2753 634 
Q 3047 847 3047 1241 
Q 3047 1584 2836 1778 
Q 2625 1972 2144 2069 
L 1759 2144 
Q 1053 2284 737 2584 
Q 422 2884 422 3419 
Q 422 4038 858 4394 
Q 1294 4750 2059 4750 
Q 2388 4750 2728 4690 
Q 3069 4631 3425 4513 
z
" transform="scale(0.015625)"/>
       <path id="DejaVuSans-63" d="M 3122 3366 
L 3122 2828 
Q 2878 2963 2633 3030 
Q 2388 3097 2138 3097 
Q 1578 3097 1268 2742 
Q 959 2388 959 1747 
Q 959 1106 1268 751 
Q 1578 397 2138 397 
Q 2388 397 2633 464 
Q 2878 531 3122 666 
L 3122 134 
Q 2881 22 2623 -34 
Q 2366 -91 2075 -91 
Q 1284 -91 818 406 
Q 353 903 353 1747 
Q 353 2603 823 3093 
Q 1294 3584 2113 3584 
Q 2378 3584 2631 3529 
Q 2884 3475 3122 3366 
z
" transform="scale(0.015625)"/>
      </defs>
      <use xlink:href="#DejaVuSans-42"/>
      <use xlink:href="#DejaVuSans-45" x="68.603516"/>
      <use xlink:href="#DejaVuSans-50" x="131.787109"/>
      <use xlink:href="#DejaVuSans-20" x="192.089844"/>
      <use xlink:href="#DejaVuSans-53" x="223.876953"/>
      <use xlink:href="#DejaVuSans-63" x="287.353516"/>
      <use xlink:href="#DejaVuSans-6f" x="342.333984"/>
      <use xlink:href="#DejaVuSans-72" x="403.515625"/>
      <use xlink:href="#DejaVuSans-65" x="442.378906"/>
     </g>
    </g>
   </g>
   <g id="line2d_13">
    <path d="M 101.027668 44.116364 
L 145.13834 46.292076 
L 189.249012 48.160857 
L 233.359684 50.932062 
L 277.470356 53.950315 
L 321.581028 55.994897 
" clip-path="url(#p2129d8bc4a)" style="fill: none; stroke-dasharray: 5.55,2.4; stroke-dashoffset: 0; stroke: #1f77b4; stroke-width: 1.5"/>
    <defs>
     <path id="md608193888" d="M 0 3 
C 0.795609 3 1.55874 2.683901 2.12132 2.12132 
C 2.683901 1.55874 3 0.795609 3 0 
C 3 -0.795609 2.683901 -1.55874 2.12132 -2.12132 
C 1.55874 -2.683901 0.795609 -3 0 -3 
C -0.795609 -3 -1.55874 -2.683901 -2.12132 -2.12132 
C -2.683901 -1.55874 -3 -0.795609 -3 0 
C -3 0.795609 -2.683901 1.55874 -2.12132 2.12132 
C -1.55874 2.683901 -0.795609 3 0 3 
z
" style="stroke: #1f77b4"/>
    </defs>
    <g clip-path="url(#p2129d8bc4a)">
     <use xlink:href="#md608193888" x="101.027668" y="44.116364" style="fill: #1f77b4; stroke: #1f77b4"/>
     <use xlink:href="#md608193888" x="145.13834" y="46.292076" style="fill: #1f77b4; stroke: #1f77b4"/>
     <use xlink:href="#md608193888" x="189.249012" y="48.160857" style="fill: #1f77b4; stroke: #1f77b4"/>
     <use xlink:href="#md608193888" x="233.359684" y="50.932062" style="fill: #1f77b4; stroke: #1f77b4"/>
     <use xlink:href="#md608193888" x="277.470356" y="53.950315" style="fill: #1f77b4; stroke: #1f77b4"/>
     <use xlink:href="#md608193888" x="321.581028" y="55.994897" style="fill: #1f77b4; stroke: #1f77b4"/>
    </g>
   </g>
   <g id="line2d_14">
    <path d="M 101.027668 84.872395 
L 145.13834 99.592417 
L 189.249012 100.837924 
L 233.359684 104.162691 
L 277.470356 105.571815 
L 321.581028 170.544332 
" clip-path="url(#p2129d8bc4a)" style="fill: none; stroke-dasharray: 5.55,2.4; stroke-dashoffset: 0; stroke: #ff7f0e; stroke-width: 1.5"/>
    <defs>
     <path id="md65ea2f217" d="M 0 3 
C 0.795609 3 1.55874 2.683901 2.12132 2.12132 
C 2.683901 1.55874 3 0.795609 3 0 
C 3 -0.795609 2.683901 -1.55874 2.12132 -2.12132 
C 1.55874 -2.683901 0.795609 -3 0 -3 
C -0.795609 -3 -1.55874 -2.683901 -2.12132 -2.12132 
C -2.683901 -1.55874 -3 -0.795609 -3 0 
C -3 0.795609 -2.683901 1.55874 -2.12132 2.12132 
C -1.55874 2.683901 -0.795609 3 0 3 
z
" style="stroke: #ff7f0e"/>
    </defs>
    <g clip-path="url(#p2129d8bc4a)">
     <use xlink:href="#md65ea2f217" x="101.027668" y="84.872395" style="fill: #ff7f0e; stroke: #ff7f0e"/>
     <use xlink:href="#md65ea2f217" x="145.13834" y="99.592417" style="fill: #ff7f0e; stroke: #ff7f0e"/>
     <use xlink:href="#md65ea2f217" x="189.249012" y="100.837924" style="fill: #ff7f0e; stroke: #ff7f0e"/>
     <use xlink:href="#md65ea2f217" x="233.359684" y="104.162691" style="fill: #ff7f0e; stroke: #ff7f0e"/>
     <use xlink:href="#md65ea2f217" x="277.470356" y="105.571815" style="fill: #ff7f0e; stroke: #ff7f0e"/>
     <use xlink:href="#md65ea2f217" x="321.581028" y="170.544332" style="fill: #ff7f0e; stroke: #ff7f0e"/>
    </g>
   </g>
   <g id="line2d_15">
    <path d="M 101.027668 193.679019 
L 145.13834 194.806997 
L 189.249012 196.166271 
L 233.359684 197.630986 
L 277.470356 200.060105 
L 321.581028 235.243636 
" clip-path="url(#p2129d8bc4a)" style="fill: none; stroke-dasharray: 5.55,2.4; stroke-dashoffset: 0; stroke: #2ca02c; stroke-width: 1.5"/>
    <defs>
     <path id="m61cf7a51b6" d="M 0 3 
C 0.795609 3 1.55874 2.683901 2.12132 2.12132 
C 2.683901 1.55874 3 0.795609 3 0 
C 3 -0.795609 2.683901 -1.55874 2.12132 -2.12132 
C 1.55874 -2.683901 0.795609 -3 0 -3 
C -0.795609 -3 -1.55874 -2.683901 -2.12132 -2.12132 
C -2.683901 -1.55874 -3 -0.795609 -3 0 
C -3 0.795609 -2.683901 1.55874 -2.12132 2.12132 
C -1.55874 2.683901 -0.795609 3 0 3 
z
" style="stroke: #2ca02c"/>
    </defs>
    <g clip-path="url(#p2129d8bc4a)">
     <use xlink:href="#m61cf7a51b6" x="101.027668" y="193.679019" style="fill: #2ca02c; stroke: #2ca02c"/>
     <use xlink:href="#m61cf7a51b6" x="145.13834" y="194.806997" style="fill: #2ca02c; stroke: #2ca02c"/>
     <use xlink:href="#m61cf7a51b6" x="189.249012" y="196.166271" style="fill: #2ca02c; stroke: #2ca02c"/>
     <use xlink:href="#m61cf7a51b6" x="233.359684" y="197.630986" style="fill: #2ca02c; stroke: #2ca02c"/>
     <use xlink:href="#m61cf7a51b6" x="277.470356" y="200.060105" style="fill: #2ca02c; stroke: #2ca02c"/>
     <use xlink:href="#m61cf7a51b6" x="321.581028" y="235.243636" style="fill: #2ca02c; stroke: #2ca02c"/>
    </g>
   </g>
   <g id="line2d_16">
    <path d="M 101.027668 168.940453 
L 145.13834 165.715179 
L 189.249012 168.5933 
L 233.359684 171.277319 
L 277.470356 169.271571 
L 321.581028 200.042201 
" clip-path="url(#p2129d8bc4a)" style="fill: none; stroke-dasharray: 5.55,2.4; stroke-dashoffset: 0; stroke: #d62728; stroke-width: 1.5"/>
    <defs>
     <path id="m3f9357922b" d="M 0 3 
C 0.795609 3 1.55874 2.683901 2.12132 2.12132 
C 2.683901 1.55874 3 0.795609 3 0 
C 3 -0.795609 2.683901 -1.55874 2.12132 -2.12132 
C 1.55874 -2.683901 0.795609 -3 0 -3 
C -0.795609 -3 -1.55874 -2.683901 -2.12132 -2.12132 
C -2.683901 -1.55874 -3 -0.795609 -3 0 
C -3 0.795609 -2.683901 1.55874 -2.12132 2.12132 
C -1.55874 2.683901 -0.795609 3 0 3 
z
" style="stroke: #d62728"/>
    </defs>
    <g clip-path="url(#p2129d8bc4a)">
     <use xlink:href="#m3f9357922b" x="101.027668" y="168.940453" style="fill: #d62728; stroke: #d62728"/>
     <use xlink:href="#m3f9357922b" x="145.13834" y="165.715179" style="fill: #d62728; stroke: #d62728"/>
     <use xlink:href="#m3f9357922b" x="189.249012" y="168.5933" style="fill: #d62728; stroke: #d62728"/>
     <use xlink:href="#m3f9357922b" x="233.359684" y="171.277319" style="fill: #d62728; stroke: #d62728"/>
     <use xlink:href="#m3f9357922b" x="277.470356" y="169.271571" style="fill: #d62728; stroke: #d62728"/>
     <use xlink:href="#m3f9357922b" x="321.581028" y="200.042201" style="fill: #d62728; stroke: #d62728"/>
    </g>
   </g>
   <g id="patch_3">
    <path d="M 90 244.8 
L 90 34.56 
" style="fill: none; stroke: #000000; stroke-width: 0.8; stroke-linejoin: miter; stroke-linecap: square"/>
   </g>
   <g id="patch_4">
    <path d="M 332.608696 244.8 
L 332.608696 34.56 
" style="fill: none; stroke: #000000; stroke-width: 0.8; stroke-linejoin: miter; stroke-linecap: square"/>
   </g>
   <g id="patch_5">
    <path d="M 90 244.8 
L 332.608696 244.8 
" style="fill: none; stroke: #000000; stroke-width: 0.8; stroke-linejoin: miter; stroke-linecap: square"/>
   </g>
   <g id="patch_6">
    <path d="M 90 34.56 
L 332.608696 34.56 
" style="fill: none; stroke: #000000; stroke-width: 0.8; stroke-linejoin: miter; stroke-linecap: square"/>
   </g>
   <g id="legend_1">
    <g id="patch_7">
     <path d="M 176.977004 170.53625 
L 245.631692 170.53625 
Q 247.631692 170.53625 247.631692 168.53625 
L 247.631692 110.82375 
Q 247.631692 108.82375 245.631692 108.82375 
L 176.977004 108.82375 
Q 174.977004 108.82375 174.977004 110.82375 
L 174.977004 168.53625 
Q 174.977004 170.53625 176.977004 170.53625 
z
" style="fill: #ffffff; opacity: 0.8; stroke: #cccccc; stroke-linejoin: miter"/>
    </g>
    <g id="line2d_17">
     <path d="M 178.977004 116.922188 
L 188.977004 116.922188 
L 198.977004 116.922188 
" style="fill: none; stroke-dasharray: 5.55,2.4; stroke-dashoffset: 0; stroke: #1f77b4; stroke-width: 1.5"/>
     <g>
      <use xlink:href="#md608193888" x="188.977004" y="116.922188" style="fill: #1f77b4; stroke: #1f77b4"/>
     </g>
    </g>
    <g id="text_15">
     <!-- MD-RS -->
     <g transform="translate(206.977004 120.422188)scale(0.1 -0.1)">
      <defs>
       <path id="DejaVuSans-4d" d="M 628 4666 
L 1569 4666 
L 2759 1491 
L 3956 4666 
L 4897 4666 
L 4897 0 
L 4281 0 
L 4281 4097 
L 3078 897 
L 2444 897 
L 1241 4097 
L 1241 0 
L 628 0 
L 628 4666 
z
" transform="scale(0.015625)"/>
       <path id="DejaVuSans-44" d="M 1259 4147 
L 1259 519 
L 2022 519 
Q 2988 519 3436 956 
Q 3884 1394 3884 2338 
Q 3884 3275 3436 3711 
Q 2988 4147 2022 4147 
L 1259 4147 
z
M 628 4666 
L 1925 4666 
Q 3281 4666 3915 4102 
Q 4550 3538 4550 2338 
Q 4550 1131 3912 565 
Q 3275 0 1925 0 
L 628 0 
L 628 4666 
z
" transform="scale(0.015625)"/>
       <path id="DejaVuSans-2d" d="M 313 2009 
L 1997 2009 
L 1997 1497 
L 313 1497 
L 313 2009 
z
" transform="scale(0.015625)"/>
       <path id="DejaVuSans-52" d="M 2841 2188 
Q 3044 2119 3236 1894 
Q 3428 1669 3622 1275 
L 4263 0 
L 3584 0 
L 2988 1197 
Q 2756 1666 2539 1819 
Q 2322 1972 1947 1972 
L 1259 1972 
L 1259 0 
L 628 0 
L 628 4666 
L 2053 4666 
Q 2853 4666 3247 4331 
Q 3641 3997 3641 3322 
Q 3641 2881 3436 2590 
Q 3231 2300 2841 2188 
z
M 1259 4147 
L 1259 2491 
L 2053 2491 
Q 2509 2491 2742 2702 
Q 2975 2913 2975 3322 
Q 2975 3731 2742 3939 
Q 2509 4147 2053 4147 
L 1259 4147 
z
" transform="scale(0.015625)"/>
      </defs>
      <use xlink:href="#DejaVuSans-4d"/>
      <use xlink:href="#DejaVuSans-44" x="86.279297"/>
      <use xlink:href="#DejaVuSans-2d" x="163.28125"/>
      <use xlink:href="#DejaVuSans-52" x="199.365234"/>
      <use xlink:href="#DejaVuSans-53" x="268.847656"/>
     </g>
    </g>
    <g id="line2d_18">
     <path d="M 178.977004 131.600313 
L 188.977004 131.600313 
L 198.977004 131.600313 
" style="fill: none; stroke-dasharray: 5.55,2.4; stroke-dashoffset: 0; stroke: #ff7f0e; stroke-width: 1.5"/>
     <g>
      <use xlink:href="#md65ea2f217" x="188.977004" y="131.600313" style="fill: #ff7f0e; stroke: #ff7f0e"/>
     </g>
    </g>
    <g id="text_16">
     <!-- TRAKR -->
     <g transform="translate(206.977004 135.100313)scale(0.1 -0.1)">
      <defs>
       <path id="DejaVuSans-54" d="M -19 4666 
L 3928 4666 
L 3928 4134 
L 2272 4134 
L 2272 0 
L 1638 0 
L 1638 4134 
L -19 4134 
L -19 4666 
z
" transform="scale(0.015625)"/>
       <path id="DejaVuSans-41" d="M 2188 4044 
L 1331 1722 
L 3047 1722 
L 2188 4044 
z
M 1831 4666 
L 2547 4666 
L 4325 0 
L 3669 0 
L 3244 1197 
L 1141 1197 
L 716 0 
L 50 0 
L 1831 4666 
z
" transform="scale(0.015625)"/>
       <path id="DejaVuSans-4b" d="M 628 4666 
L 1259 4666 
L 1259 2694 
L 3353 4666 
L 4166 4666 
L 1850 2491 
L 4331 0 
L 3500 0 
L 1259 2247 
L 1259 0 
L 628 0 
L 628 4666 
z
" transform="scale(0.015625)"/>
      </defs>
      <use xlink:href="#DejaVuSans-54"/>
      <use xlink:href="#DejaVuSans-52" x="61.083984"/>
      <use xlink:href="#DejaVuSans-41" x="126.566406"/>
      <use xlink:href="#DejaVuSans-4b" x="194.974609"/>
      <use xlink:href="#DejaVuSans-52" x="260.550781"/>
     </g>
    </g>
    <g id="line2d_19">
     <path d="M 178.977004 146.278437 
L 188.977004 146.278437 
L 198.977004 146.278437 
" style="fill: none; stroke-dasharray: 5.55,2.4; stroke-dashoffset: 0; stroke: #2ca02c; stroke-width: 1.5"/>
     <g>
      <use xlink:href="#m61cf7a51b6" x="188.977004" y="146.278437" style="fill: #2ca02c; stroke: #2ca02c"/>
     </g>
    </g>
    <g id="text_17">
     <!-- RC-SRE -->
     <g transform="translate(206.977004 149.778437)scale(0.1 -0.1)">
      <defs>
       <path id="DejaVuSans-43" d="M 4122 4306 
L 4122 3641 
Q 3803 3938 3442 4084 
Q 3081 4231 2675 4231 
Q 1875 4231 1450 3742 
Q 1025 3253 1025 2328 
Q 1025 1406 1450 917 
Q 1875 428 2675 428 
Q 3081 428 3442 575 
Q 3803 722 4122 1019 
L 4122 359 
Q 3791 134 3420 21 
Q 3050 -91 2638 -91 
Q 1578 -91 968 557 
Q 359 1206 359 2328 
Q 359 3453 968 4101 
Q 1578 4750 2638 4750 
Q 3056 4750 3426 4639 
Q 3797 4528 4122 4306 
z
" transform="scale(0.015625)"/>
      </defs>
      <use xlink:href="#DejaVuSans-52"/>
      <use xlink:href="#DejaVuSans-43" x="64.482422"/>
      <use xlink:href="#DejaVuSans-2d" x="134.306641"/>
      <use xlink:href="#DejaVuSans-53" x="170.390625"/>
      <use xlink:href="#DejaVuSans-52" x="233.867188"/>
      <use xlink:href="#DejaVuSans-45" x="303.349609"/>
     </g>
    </g>
    <g id="line2d_20">
     <path d="M 178.977004 160.956563 
L 188.977004 160.956563 
L 198.977004 160.956563 
" style="fill: none; stroke-dasharray: 5.55,2.4; stroke-dashoffset: 0; stroke: #d62728; stroke-width: 1.5"/>
     <g>
      <use xlink:href="#m3f9357922b" x="188.977004" y="160.956563" style="fill: #d62728; stroke: #d62728"/>
     </g>
    </g>
    <g id="text_18">
     <!-- MD-SW -->
     <g transform="translate(206.977004 164.456563)scale(0.1 -0.1)">
      <defs>
       <path id="DejaVuSans-57" d="M 213 4666 
L 850 4666 
L 1831 722 
L 2809 4666 
L 3519 4666 
L 4500 722 
L 5478 4666 
L 6119 4666 
L 4947 0 
L 4153 0 
L 3169 4050 
L 2175 0 
L 1381 0 
L 213 4666 
z
" transform="scale(0.015625)"/>
      </defs>
      <use xlink:href="#DejaVuSans-4d"/>
      <use xlink:href="#DejaVuSans-44" x="86.279297"/>
      <use xlink:href="#DejaVuSans-2d" x="163.28125"/>
      <use xlink:href="#DejaVuSans-53" x="199.365234"/>
      <use xlink:href="#DejaVuSans-57" x="262.841797"/>
     </g>
    </g>
   </g>
  </g>
  <g id="axes_2">
   <g id="patch_8">
    <path d="M 405.391304 244.8 
L 648 244.8 
L 648 34.56 
L 405.391304 34.56 
L 405.391304 244.8 
z
" style="fill: none"/>
   </g>
   <g id="matplotlib.axis_3">
    <g id="xtick_7">
     <g id="line2d_21">
      <g>
       <use xlink:href="#m8c01c5ab6d" x="416.418972" y="244.8" style="stroke: #000000; stroke-width: 0.8"/>
      </g>
     </g>
     <g id="text_19">
      <!-- 0.000 -->
      <g transform="translate(402.10491 259.398438)scale(0.1 -0.1)">
       <use xlink:href="#DejaVuSans-30"/>
       <use xlink:href="#DejaVuSans-2e" x="63.623047"/>
       <use xlink:href="#DejaVuSans-30" x="95.410156"/>
       <use xlink:href="#DejaVuSans-30" x="159.033203"/>
       <use xlink:href="#DejaVuSans-30" x="222.65625"/>
      </g>
     </g>
    </g>
    <g id="xtick_8">
     <g id="line2d_22">
      <g>
       <use xlink:href="#m8c01c5ab6d" x="460.529644" y="244.8" style="stroke: #000000; stroke-width: 0.8"/>
      </g>
     </g>
     <g id="text_20">
      <!-- 0.002 -->
      <g transform="translate(446.215582 259.398438)scale(0.1 -0.1)">
       <use xlink:href="#DejaVuSans-30"/>
       <use xlink:href="#DejaVuSans-2e" x="63.623047"/>
       <use xlink:href="#DejaVuSans-30" x="95.410156"/>
       <use xlink:href="#DejaVuSans-30" x="159.033203"/>
       <use xlink:href="#DejaVuSans-32" x="222.65625"/>
      </g>
     </g>
    </g>
    <g id="xtick_9">
     <g id="line2d_23">
      <g>
       <use xlink:href="#m8c01c5ab6d" x="504.640316" y="244.8" style="stroke: #000000; stroke-width: 0.8"/>
      </g>
     </g>
     <g id="text_21">
      <!-- 0.004 -->
      <g transform="translate(490.326254 259.398438)scale(0.1 -0.1)">
       <use xlink:href="#DejaVuSans-30"/>
       <use xlink:href="#DejaVuSans-2e" x="63.623047"/>
       <use xlink:href="#DejaVuSans-30" x="95.410156"/>
       <use xlink:href="#DejaVuSans-30" x="159.033203"/>
       <use xlink:href="#DejaVuSans-34" x="222.65625"/>
      </g>
     </g>
    </g>
    <g id="xtick_10">
     <g id="line2d_24">
      <g>
       <use xlink:href="#m8c01c5ab6d" x="548.750988" y="244.8" style="stroke: #000000; stroke-width: 0.8"/>
      </g>
     </g>
     <g id="text_22">
      <!-- 0.006 -->
      <g transform="translate(534.436926 259.398438)scale(0.1 -0.1)">
       <use xlink:href="#DejaVuSans-30"/>
       <use xlink:href="#DejaVuSans-2e" x="63.623047"/>
       <use xlink:href="#DejaVuSans-30" x="95.410156"/>
       <use xlink:href="#DejaVuSans-30" x="159.033203"/>
       <use xlink:href="#DejaVuSans-36" x="222.65625"/>
      </g>
     </g>
    </g>
    <g id="xtick_11">
     <g id="line2d_25">
      <g>
       <use xlink:href="#m8c01c5ab6d" x="592.86166" y="244.8" style="stroke: #000000; stroke-width: 0.8"/>
      </g>
     </g>
     <g id="text_23">
      <!-- 0.008 -->
      <g transform="translate(578.547598 259.398438)scale(0.1 -0.1)">
       <use xlink:href="#DejaVuSans-30"/>
       <use xlink:href="#DejaVuSans-2e" x="63.623047"/>
       <use xlink:href="#DejaVuSans-30" x="95.410156"/>
       <use xlink:href="#DejaVuSans-30" x="159.033203"/>
       <use xlink:href="#DejaVuSans-38" x="222.65625"/>
      </g>
     </g>
    </g>
    <g id="xtick_12">
     <g id="line2d_26">
      <g>
       <use xlink:href="#m8c01c5ab6d" x="636.972332" y="244.8" style="stroke: #000000; stroke-width: 0.8"/>
      </g>
     </g>
     <g id="text_24">
      <!-- 0.010 -->
      <g transform="translate(622.65827 259.398438)scale(0.1 -0.1)">
       <use xlink:href="#DejaVuSans-30"/>
       <use xlink:href="#DejaVuSans-2e" x="63.623047"/>
       <use xlink:href="#DejaVuSans-30" x="95.410156"/>
       <use xlink:href="#DejaVuSans-31" x="159.033203"/>
       <use xlink:href="#DejaVuSans-30" x="222.65625"/>
      </g>
     </g>
    </g>
    <g id="text_25">
     <!-- Input noise strength $\sigma$ -->
     <g transform="translate(449.135652 276.118125)scale(0.14 -0.14)">
      <use xlink:href="#DejaVuSans-49" transform="translate(0 0.015625)"/>
      <use xlink:href="#DejaVuSans-6e" transform="translate(29.492188 0.015625)"/>
      <use xlink:href="#DejaVuSans-70" transform="translate(92.871094 0.015625)"/>
      <use xlink:href="#DejaVuSans-75" transform="translate(156.347656 0.015625)"/>
      <use xlink:href="#DejaVuSans-74" transform="translate(219.726562 0.015625)"/>
      <use xlink:href="#DejaVuSans-20" transform="translate(258.935547 0.015625)"/>
      <use xlink:href="#DejaVuSans-6e" transform="translate(290.722656 0.015625)"/>
      <use xlink:href="#DejaVuSans-6f" transform="translate(354.101562 0.015625)"/>
      <use xlink:href="#DejaVuSans-69" transform="translate(415.283203 0.015625)"/>
      <use xlink:href="#DejaVuSans-73" transform="translate(443.066406 0.015625)"/>
      <use xlink:href="#DejaVuSans-65" transform="translate(495.166016 0.015625)"/>
      <use xlink:href="#DejaVuSans-20" transform="translate(556.689453 0.015625)"/>
      <use xlink:href="#DejaVuSans-73" transform="translate(588.476562 0.015625)"/>
      <use xlink:href="#DejaVuSans-74" transform="translate(640.576172 0.015625)"/>
      <use xlink:href="#DejaVuSans-72" transform="translate(679.785156 0.015625)"/>
      <use xlink:href="#DejaVuSans-65" transform="translate(720.898438 0.015625)"/>
      <use xlink:href="#DejaVuSans-6e" transform="translate(782.421875 0.015625)"/>
      <use xlink:href="#DejaVuSans-67" transform="translate(845.800781 0.015625)"/>
      <use xlink:href="#DejaVuSans-74" transform="translate(909.277344 0.015625)"/>
      <use xlink:href="#DejaVuSans-68" transform="translate(948.486328 0.015625)"/>
      <use xlink:href="#DejaVuSans-20" transform="translate(1011.865234 0.015625)"/>
      <use xlink:href="#DejaVuSans-Oblique-3c3" transform="translate(1043.652344 0.015625)"/>
     </g>
    </g>
   </g>
   <g id="matplotlib.axis_4">
    <g id="ytick_7">
     <g id="line2d_27">
      <g>
       <use xlink:href="#m7ed222f1dc" x="405.391304" y="220.150323" style="stroke: #000000; stroke-width: 0.8"/>
      </g>
     </g>
     <g id="text_26">
      <!-- 0.05 -->
      <g transform="translate(376.125679 223.949542)scale(0.1 -0.1)">
       <use xlink:href="#DejaVuSans-30"/>
       <use xlink:href="#DejaVuSans-2e" x="63.623047"/>
       <use xlink:href="#DejaVuSans-30" x="95.410156"/>
       <use xlink:href="#DejaVuSans-35" x="159.033203"/>
      </g>
     </g>
    </g>
    <g id="ytick_8">
     <g id="line2d_28">
      <g>
       <use xlink:href="#m7ed222f1dc" x="405.391304" y="187.53919" style="stroke: #000000; stroke-width: 0.8"/>
      </g>
     </g>
     <g id="text_27">
      <!-- 0.10 -->
      <g transform="translate(376.125679 191.338408)scale(0.1 -0.1)">
       <use xlink:href="#DejaVuSans-30"/>
       <use xlink:href="#DejaVuSans-2e" x="63.623047"/>
       <use xlink:href="#DejaVuSans-31" x="95.410156"/>
       <use xlink:href="#DejaVuSans-30" x="159.033203"/>
      </g>
     </g>
    </g>
    <g id="ytick_9">
     <g id="line2d_29">
      <g>
       <use xlink:href="#m7ed222f1dc" x="405.391304" y="154.928057" style="stroke: #000000; stroke-width: 0.8"/>
      </g>
     </g>
     <g id="text_28">
      <!-- 0.15 -->
      <g transform="translate(376.125679 158.727275)scale(0.1 -0.1)">
       <use xlink:href="#DejaVuSans-30"/>
       <use xlink:href="#DejaVuSans-2e" x="63.623047"/>
       <use xlink:href="#DejaVuSans-31" x="95.410156"/>
       <use xlink:href="#DejaVuSans-35" x="159.033203"/>
      </g>
     </g>
    </g>
    <g id="ytick_10">
     <g id="line2d_30">
      <g>
       <use xlink:href="#m7ed222f1dc" x="405.391304" y="122.316924" style="stroke: #000000; stroke-width: 0.8"/>
      </g>
     </g>
     <g id="text_29">
      <!-- 0.20 -->
      <g transform="translate(376.125679 126.116142)scale(0.1 -0.1)">
       <use xlink:href="#DejaVuSans-30"/>
       <use xlink:href="#DejaVuSans-2e" x="63.623047"/>
       <use xlink:href="#DejaVuSans-32" x="95.410156"/>
       <use xlink:href="#DejaVuSans-30" x="159.033203"/>
      </g>
     </g>
    </g>
    <g id="ytick_11">
     <g id="line2d_31">
      <g>
       <use xlink:href="#m7ed222f1dc" x="405.391304" y="89.70579" style="stroke: #000000; stroke-width: 0.8"/>
      </g>
     </g>
     <g id="text_30">
      <!-- 0.25 -->
      <g transform="translate(376.125679 93.505009)scale(0.1 -0.1)">
       <use xlink:href="#DejaVuSans-30"/>
       <use xlink:href="#DejaVuSans-2e" x="63.623047"/>
       <use xlink:href="#DejaVuSans-32" x="95.410156"/>
       <use xlink:href="#DejaVuSans-35" x="159.033203"/>
      </g>
     </g>
    </g>
    <g id="ytick_12">
     <g id="line2d_32">
      <g>
       <use xlink:href="#m7ed222f1dc" x="405.391304" y="57.094657" style="stroke: #000000; stroke-width: 0.8"/>
      </g>
     </g>
     <g id="text_31">
      <!-- 0.30 -->
      <g transform="translate(376.125679 60.893876)scale(0.1 -0.1)">
       <defs>
        <path id="DejaVuSans-33" d="M 2597 2516 
Q 3050 2419 3304 2112 
Q 3559 1806 3559 1356 
Q 3559 666 3084 287 
Q 2609 -91 1734 -91 
Q 1441 -91 1130 -33 
Q 819 25 488 141 
L 488 750 
Q 750 597 1062 519 
Q 1375 441 1716 441 
Q 2309 441 2620 675 
Q 2931 909 2931 1356 
Q 2931 1769 2642 2001 
Q 2353 2234 1838 2234 
L 1294 2234 
L 1294 2753 
L 1863 2753 
Q 2328 2753 2575 2939 
Q 2822 3125 2822 3475 
Q 2822 3834 2567 4026 
Q 2313 4219 1838 4219 
Q 1578 4219 1281 4162 
Q 984 4106 628 3988 
L 628 4550 
Q 988 4650 1302 4700 
Q 1616 4750 1894 4750 
Q 2613 4750 3031 4423 
Q 3450 4097 3450 3541 
Q 3450 3153 3228 2886 
Q 3006 2619 2597 2516 
z
" transform="scale(0.015625)"/>
       </defs>
       <use xlink:href="#DejaVuSans-30"/>
       <use xlink:href="#DejaVuSans-2e" x="63.623047"/>
       <use xlink:href="#DejaVuSans-33" x="95.410156"/>
       <use xlink:href="#DejaVuSans-30" x="159.033203"/>
      </g>
     </g>
    </g>
    <g id="text_32">
     <!-- Max F1 Score -->
     <g transform="translate(369.214117 186.685)rotate(-90)scale(0.14 -0.14)">
      <defs>
       <path id="DejaVuSans-61" d="M 2194 1759 
Q 1497 1759 1228 1600 
Q 959 1441 959 1056 
Q 959 750 1161 570 
Q 1363 391 1709 391 
Q 2188 391 2477 730 
Q 2766 1069 2766 1631 
L 2766 1759 
L 2194 1759 
z
M 3341 1997 
L 3341 0 
L 2766 0 
L 2766 531 
Q 2569 213 2275 61 
Q 1981 -91 1556 -91 
Q 1019 -91 701 211 
Q 384 513 384 1019 
Q 384 1609 779 1909 
Q 1175 2209 1959 2209 
L 2766 2209 
L 2766 2266 
Q 2766 2663 2505 2880 
Q 2244 3097 1772 3097 
Q 1472 3097 1187 3025 
Q 903 2953 641 2809 
L 641 3341 
Q 956 3463 1253 3523 
Q 1550 3584 1831 3584 
Q 2591 3584 2966 3190 
Q 3341 2797 3341 1997 
z
" transform="scale(0.015625)"/>
       <path id="DejaVuSans-78" d="M 3513 3500 
L 2247 1797 
L 3578 0 
L 2900 0 
L 1881 1375 
L 863 0 
L 184 0 
L 1544 1831 
L 300 3500 
L 978 3500 
L 1906 2253 
L 2834 3500 
L 3513 3500 
z
" transform="scale(0.015625)"/>
       <path id="DejaVuSans-46" d="M 628 4666 
L 3309 4666 
L 3309 4134 
L 1259 4134 
L 1259 2759 
L 3109 2759 
L 3109 2228 
L 1259 2228 
L 1259 0 
L 628 0 
L 628 4666 
z
" transform="scale(0.015625)"/>
      </defs>
      <use xlink:href="#DejaVuSans-4d"/>
      <use xlink:href="#DejaVuSans-61" x="86.279297"/>
      <use xlink:href="#DejaVuSans-78" x="147.558594"/>
      <use xlink:href="#DejaVuSans-20" x="206.738281"/>
      <use xlink:href="#DejaVuSans-46" x="238.525391"/>
      <use xlink:href="#DejaVuSans-31" x="296.044922"/>
      <use xlink:href="#DejaVuSans-20" x="359.667969"/>
      <use xlink:href="#DejaVuSans-53" x="391.455078"/>
      <use xlink:href="#DejaVuSans-63" x="454.931641"/>
      <use xlink:href="#DejaVuSans-6f" x="509.912109"/>
      <use xlink:href="#DejaVuSans-72" x="571.09375"/>
      <use xlink:href="#DejaVuSans-65" x="609.957031"/>
     </g>
    </g>
   </g>
   <g id="line2d_33">
    <path d="M 416.418972 44.116364 
L 460.529644 46.98113 
L 504.640316 48.33337 
L 548.750988 50.723822 
L 592.86166 53.481282 
L 636.972332 55.997098 
" clip-path="url(#p694976deb1)" style="fill: none; stroke-dasharray: 5.55,2.4; stroke-dashoffset: 0; stroke: #1f77b4; stroke-width: 1.5"/>
    <g clip-path="url(#p694976deb1)">
     <use xlink:href="#md608193888" x="416.418972" y="44.116364" style="fill: #1f77b4; stroke: #1f77b4"/>
     <use xlink:href="#md608193888" x="460.529644" y="46.98113" style="fill: #1f77b4; stroke: #1f77b4"/>
     <use xlink:href="#md608193888" x="504.640316" y="48.33337" style="fill: #1f77b4; stroke: #1f77b4"/>
     <use xlink:href="#md608193888" x="548.750988" y="50.723822" style="fill: #1f77b4; stroke: #1f77b4"/>
     <use xlink:href="#md608193888" x="592.86166" y="53.481282" style="fill: #1f77b4; stroke: #1f77b4"/>
     <use xlink:href="#md608193888" x="636.972332" y="55.997098" style="fill: #1f77b4; stroke: #1f77b4"/>
    </g>
   </g>
   <g id="line2d_34">
    <path d="M 416.418972 92.602176 
L 460.529644 102.264837 
L 504.640316 103.841799 
L 548.750988 106.510242 
L 592.86166 109.491682 
L 636.972332 175.64854 
" clip-path="url(#p694976deb1)" style="fill: none; stroke-dasharray: 5.55,2.4; stroke-dashoffset: 0; stroke: #ff7f0e; stroke-width: 1.5"/>
    <g clip-path="url(#p694976deb1)">
     <use xlink:href="#md65ea2f217" x="416.418972" y="92.602176" style="fill: #ff7f0e; stroke: #ff7f0e"/>
     <use xlink:href="#md65ea2f217" x="460.529644" y="102.264837" style="fill: #ff7f0e; stroke: #ff7f0e"/>
     <use xlink:href="#md65ea2f217" x="504.640316" y="103.841799" style="fill: #ff7f0e; stroke: #ff7f0e"/>
     <use xlink:href="#md65ea2f217" x="548.750988" y="106.510242" style="fill: #ff7f0e; stroke: #ff7f0e"/>
     <use xlink:href="#md65ea2f217" x="592.86166" y="109.491682" style="fill: #ff7f0e; stroke: #ff7f0e"/>
     <use xlink:href="#md65ea2f217" x="636.972332" y="175.64854" style="fill: #ff7f0e; stroke: #ff7f0e"/>
    </g>
   </g>
   <g id="line2d_35">
    <path d="M 416.418972 192.612575 
L 460.529644 193.206701 
L 504.640316 194.872117 
L 548.750988 198.113966 
L 592.86166 200.537617 
L 636.972332 235.243636 
" clip-path="url(#p694976deb1)" style="fill: none; stroke-dasharray: 5.55,2.4; stroke-dashoffset: 0; stroke: #2ca02c; stroke-width: 1.5"/>
    <g clip-path="url(#p694976deb1)">
     <use xlink:href="#m61cf7a51b6" x="416.418972" y="192.612575" style="fill: #2ca02c; stroke: #2ca02c"/>
     <use xlink:href="#m61cf7a51b6" x="460.529644" y="193.206701" style="fill: #2ca02c; stroke: #2ca02c"/>
     <use xlink:href="#m61cf7a51b6" x="504.640316" y="194.872117" style="fill: #2ca02c; stroke: #2ca02c"/>
     <use xlink:href="#m61cf7a51b6" x="548.750988" y="198.113966" style="fill: #2ca02c; stroke: #2ca02c"/>
     <use xlink:href="#m61cf7a51b6" x="592.86166" y="200.537617" style="fill: #2ca02c; stroke: #2ca02c"/>
     <use xlink:href="#m61cf7a51b6" x="636.972332" y="235.243636" style="fill: #2ca02c; stroke: #2ca02c"/>
    </g>
   </g>
   <g id="line2d_36">
    <path d="M 416.418972 111.289313 
L 460.529644 114.873034 
L 504.640316 117.954985 
L 548.750988 119.427464 
L 592.86166 121.830741 
L 636.972332 178.416424 
" clip-path="url(#p694976deb1)" style="fill: none; stroke-dasharray: 5.55,2.4; stroke-dashoffset: 0; stroke: #d62728; stroke-width: 1.5"/>
    <g clip-path="url(#p694976deb1)">
     <use xlink:href="#m3f9357922b" x="416.418972" y="111.289313" style="fill: #d62728; stroke: #d62728"/>
     <use xlink:href="#m3f9357922b" x="460.529644" y="114.873034" style="fill: #d62728; stroke: #d62728"/>
     <use xlink:href="#m3f9357922b" x="504.640316" y="117.954985" style="fill: #d62728; stroke: #d62728"/>
     <use xlink:href="#m3f9357922b" x="548.750988" y="119.427464" style="fill: #d62728; stroke: #d62728"/>
     <use xlink:href="#m3f9357922b" x="592.86166" y="121.830741" style="fill: #d62728; stroke: #d62728"/>
     <use xlink:href="#m3f9357922b" x="636.972332" y="178.416424" style="fill: #d62728; stroke: #d62728"/>
    </g>
   </g>
   <g id="patch_9">
    <path d="M 405.391304 244.8 
L 405.391304 34.56 
" style="fill: none; stroke: #000000; stroke-width: 0.8; stroke-linejoin: miter; stroke-linecap: square"/>
   </g>
   <g id="patch_10">
    <path d="M 648 244.8 
L 648 34.56 
" style="fill: none; stroke: #000000; stroke-width: 0.8; stroke-linejoin: miter; stroke-linecap: square"/>
   </g>
   <g id="patch_11">
    <path d="M 405.391304 244.8 
L 648 244.8 
" style="fill: none; stroke: #000000; stroke-width: 0.8; stroke-linejoin: miter; stroke-linecap: square"/>
   </g>
   <g id="patch_12">
    <path d="M 405.391304 34.56 
L 648 34.56 
" style="fill: none; stroke: #000000; stroke-width: 0.8; stroke-linejoin: miter; stroke-linecap: square"/>
   </g>
   <g id="legend_2">
    <g id="patch_13">
     <path d="M 572.345313 101.2725 
L 641 101.2725 
Q 643 101.2725 643 99.2725 
L 643 41.56 
Q 643 39.56 641 39.56 
L 572.345313 39.56 
Q 570.345313 39.56 570.345313 41.56 
L 570.345313 99.2725 
Q 570.345313 101.2725 572.345313 101.2725 
z
" style="fill: #ffffff; opacity: 0.8; stroke: #cccccc; stroke-linejoin: miter"/>
    </g>
    <g id="line2d_37">
     <path d="M 574.345313 47.658437 
L 584.345313 47.658437 
L 594.345313 47.658437 
" style="fill: none; stroke-dasharray: 5.55,2.4; stroke-dashoffset: 0; stroke: #1f77b4; stroke-width: 1.5"/>
     <g>
      <use xlink:href="#md608193888" x="584.345313" y="47.658437" style="fill: #1f77b4; stroke: #1f77b4"/>
     </g>
    </g>
    <g id="text_33">
     <!-- MD-RS -->
     <g transform="translate(602.345313 51.158437)scale(0.1 -0.1)">
      <use xlink:href="#DejaVuSans-4d"/>
      <use xlink:href="#DejaVuSans-44" x="86.279297"/>
      <use xlink:href="#DejaVuSans-2d" x="163.28125"/>
      <use xlink:href="#DejaVuSans-52" x="199.365234"/>
      <use xlink:href="#DejaVuSans-53" x="268.847656"/>
     </g>
    </g>
    <g id="line2d_38">
     <path d="M 574.345313 62.336562 
L 584.345313 62.336562 
L 594.345313 62.336562 
" style="fill: none; stroke-dasharray: 5.55,2.4; stroke-dashoffset: 0; stroke: #ff7f0e; stroke-width: 1.5"/>
     <g>
      <use xlink:href="#md65ea2f217" x="584.345313" y="62.336562" style="fill: #ff7f0e; stroke: #ff7f0e"/>
     </g>
    </g>
    <g id="text_34">
     <!-- TRAKR -->
     <g transform="translate(602.345313 65.836562)scale(0.1 -0.1)">
      <use xlink:href="#DejaVuSans-54"/>
      <use xlink:href="#DejaVuSans-52" x="61.083984"/>
      <use xlink:href="#DejaVuSans-41" x="126.566406"/>
      <use xlink:href="#DejaVuSans-4b" x="194.974609"/>
      <use xlink:href="#DejaVuSans-52" x="260.550781"/>
     </g>
    </g>
    <g id="line2d_39">
     <path d="M 574.345313 77.014687 
L 584.345313 77.014687 
L 594.345313 77.014687 
" style="fill: none; stroke-dasharray: 5.55,2.4; stroke-dashoffset: 0; stroke: #2ca02c; stroke-width: 1.5"/>
     <g>
      <use xlink:href="#m61cf7a51b6" x="584.345313" y="77.014687" style="fill: #2ca02c; stroke: #2ca02c"/>
     </g>
    </g>
    <g id="text_35">
     <!-- RC-SRE -->
     <g transform="translate(602.345313 80.514687)scale(0.1 -0.1)">
      <use xlink:href="#DejaVuSans-52"/>
      <use xlink:href="#DejaVuSans-43" x="64.482422"/>
      <use xlink:href="#DejaVuSans-2d" x="134.306641"/>
      <use xlink:href="#DejaVuSans-53" x="170.390625"/>
      <use xlink:href="#DejaVuSans-52" x="233.867188"/>
      <use xlink:href="#DejaVuSans-45" x="303.349609"/>
     </g>
    </g>
    <g id="line2d_40">
     <path d="M 574.345313 91.692813 
L 584.345313 91.692813 
L 594.345313 91.692813 
" style="fill: none; stroke-dasharray: 5.55,2.4; stroke-dashoffset: 0; stroke: #d62728; stroke-width: 1.5"/>
     <g>
      <use xlink:href="#m3f9357922b" x="584.345313" y="91.692813" style="fill: #d62728; stroke: #d62728"/>
     </g>
    </g>
    <g id="text_36">
     <!-- MD-SW -->
     <g transform="translate(602.345313 95.192813)scale(0.1 -0.1)">
      <use xlink:href="#DejaVuSans-4d"/>
      <use xlink:href="#DejaVuSans-44" x="86.279297"/>
      <use xlink:href="#DejaVuSans-2d" x="163.28125"/>
      <use xlink:href="#DejaVuSans-53" x="199.365234"/>
      <use xlink:href="#DejaVuSans-57" x="262.841797"/>
     </g>
    </g>
   </g>
  </g>
 </g>
 <defs>
  <clipPath id="p2129d8bc4a">
   <rect x="90" y="34.56" width="242.608696" height="210.24"/>
  </clipPath>
  <clipPath id="p694976deb1">
   <rect x="405.391304" y="34.56" width="242.608696" height="210.24"/>
  </clipPath>
 </defs>
</svg>
