<?xml version="1.0" encoding="utf-8" standalone="no"?>
<!DOCTYPE svg PUBLIC "-//W3C//DTD SVG 1.1//EN"
  "http://www.w3.org/Graphics/SVG/1.1/DTD/svg11.dtd">
<svg xmlns:xlink="http://www.w3.org/1999/xlink" width="576pt" height="432pt" viewBox="0 0 576 432" xmlns="http://www.w3.org/2000/svg" version="1.1">
 <metadata>
  <rdf:RDF xmlns:dc="http://purl.org/dc/elements/1.1/" xmlns:cc="http://creativecommons.org/ns#" xmlns:rdf="http://www.w3.org/1999/02/22-rdf-syntax-ns#">
   <cc:Work>
    <dc:type rdf:resource="http://purl.org/dc/dcmitype/StillImage"/>
    <dc:date>2024-04-25T23:58:41.719925</dc:date>
    <dc:format>image/svg+xml</dc:format>
    <dc:creator>
     <cc:Agent>
      <dc:title>Matplotlib v3.5.1, https://matplotlib.org/</dc:title>
     </cc:Agent>
    </dc:creator>
   </cc:Work>
  </rdf:RDF>
 </metadata>
 <defs>
  <style type="text/css">*{stroke-linejoin: round; stroke-linecap: butt}</style>
 </defs>
 <g id="figure_1">
  <g id="patch_1">
   <path d="M 0 432 
L 576 432 
L 576 0 
L 0 0 
z
" style="fill: #ffffff"/>
  </g>
  <g id="axes_1">
   <g id="patch_2">
    <path d="M 39.28 93.424 
L 556.56 93.424 
L 556.56 38.4 
L 39.28 38.4 
z
" style="fill: #ffffff"/>
   </g>
   <g id="patch_3">
    <path d="M 302.933623 93.424 
L 302.933623 38.4 
L 367.168157 38.4 
L 367.168157 93.424 
z
" clip-path="url(#p9e6217fca2)" style="fill: #ff7f50; stroke: #ff7f50; stroke-linejoin: miter"/>
   </g>
   <g id="matplotlib.axis_1"/>
   <g id="matplotlib.axis_2">
    <g id="text_1">
     <!-- Input -->
     <g transform="translate(32.368437 84.037625)rotate(-90)scale(0.14 -0.14)">
      <defs>
       <path id="DejaVuSans-49" d="M 628 4666 
L 1259 4666 
L 1259 0 
L 628 0 
L 628 4666 
z
" transform="scale(0.015625)"/>
       <path id="DejaVuSans-6e" d="M 3513 2113 
L 3513 0 
L 2938 0 
L 2938 2094 
Q 2938 2591 2744 2837 
Q 2550 3084 2163 3084 
Q 1697 3084 1428 2787 
Q 1159 2491 1159 1978 
L 1159 0 
L 581 0 
L 581 3500 
L 1159 3500 
L 1159 2956 
Q 1366 3272 1645 3428 
Q 1925 3584 2291 3584 
Q 2894 3584 3203 3211 
Q 3513 2838 3513 2113 
z
" transform="scale(0.015625)"/>
       <path id="DejaVuSans-70" d="M 1159 525 
L 1159 -1331 
L 581 -1331 
L 581 3500 
L 1159 3500 
L 1159 2969 
Q 1341 3281 1617 3432 
Q 1894 3584 2278 3584 
Q 2916 3584 3314 3078 
Q 3713 2572 3713 1747 
Q 3713 922 3314 415 
Q 2916 -91 2278 -91 
Q 1894 -91 1617 61 
Q 1341 213 1159 525 
z
M 3116 1747 
Q 3116 2381 2855 2742 
Q 2594 3103 2138 3103 
Q 1681 3103 1420 2742 
Q 1159 2381 1159 1747 
Q 1159 1113 1420 752 
Q 1681 391 2138 391 
Q 2594 391 2855 752 
Q 3116 1113 3116 1747 
z
" transform="scale(0.015625)"/>
       <path id="DejaVuSans-75" d="M 544 1381 
L 544 3500 
L 1119 3500 
L 1119 1403 
Q 1119 906 1312 657 
Q 1506 409 1894 409 
Q 2359 409 2629 706 
Q 2900 1003 2900 1516 
L 2900 3500 
L 3475 3500 
L 3475 0 
L 2900 0 
L 2900 538 
Q 2691 219 2414 64 
Q 2138 -91 1772 -91 
Q 1169 -91 856 284 
Q 544 659 544 1381 
z
M 1991 3584 
L 1991 3584 
z
" transform="scale(0.015625)"/>
       <path id="DejaVuSans-74" d="M 1172 4494 
L 1172 3500 
L 2356 3500 
L 2356 3053 
L 1172 3053 
L 1172 1153 
Q 1172 725 1289 603 
Q 1406 481 1766 481 
L 2356 481 
L 2356 0 
L 1766 0 
Q 1100 0 847 248 
Q 594 497 594 1153 
L 594 3053 
L 172 3053 
L 172 3500 
L 594 3500 
L 594 4494 
L 1172 4494 
z
" transform="scale(0.015625)"/>
      </defs>
      <use xlink:href="#DejaVuSans-49"/>
      <use xlink:href="#DejaVuSans-6e" x="29.492188"/>
      <use xlink:href="#DejaVuSans-70" x="92.871094"/>
      <use xlink:href="#DejaVuSans-75" x="156.347656"/>
      <use xlink:href="#DejaVuSans-74" x="219.726562"/>
     </g>
    </g>
   </g>
   <g id="line2d_1">
    <path d="M 39.051214 75.582995 
L 39.629903 76.097049 
L 40.208593 76.37855 
L 40.787282 76.521349 
L 41.365972 76.868133 
L 41.944661 77.019082 
L 42.523351 77.349545 
L 43.68073 77.590257 
L 44.259419 77.855438 
L 44.838109 77.875844 
L 45.416798 78.29606 
L 46.574177 78.447019 
L 47.152867 78.850914 
L 47.731556 78.859074 
L 48.310246 79.034504 
L 48.888935 79.075305 
L 49.467625 79.328251 
L 50.046314 79.205858 
L 50.625004 79.450644 
L 54.097141 79.874945 
L 54.67583 79.809674 
L 55.25452 79.923907 
L 55.833209 79.911661 
L 56.411899 80.123817 
L 58.147967 80.123817 
L 58.726657 80.299246 
L 60.462725 80.331887 
L 61.041415 80.548118 
L 61.620104 80.442034 
L 62.777483 80.46244 
L 63.356173 80.735782 
L 65.670931 80.886741 
L 66.82831 81.241675 
L 68.564378 81.433425 
L 69.143067 81.719012 
L 70.300446 81.674136 
L 71.457825 82.151473 
L 72.615204 82.265706 
L 74.929962 82.865436 
L 76.087341 83.049026 
L 77.24472 83.37134 
L 78.402099 83.60388 
L 78.980789 83.661002 
L 79.559478 84.007786 
L 80.138168 84.068983 
L 81.874236 84.701354 
L 82.452926 84.811501 
L 83.610305 85.370441 
L 84.188994 85.423477 
L 84.767684 85.623387 
L 85.346373 85.566266 
L 86.503752 85.925295 
L 87.082442 86.100725 
L 88.239821 86.076244 
L 89.975889 85.292924 
L 90.554579 84.358645 
L 91.133268 83.722199 
L 92.290647 81.433425 
L 93.448026 78.757076 
L 99.813611 62.176762 
L 102.128369 57.529868 
L 103.285748 55.43693 
L 103.864437 54.796409 
L 105.021816 53.074724 
L 106.757885 50.769641 
L 107.336574 49.696648 
L 107.915264 48.958204 
L 109.651332 46.06155 
L 110.808711 44.258274 
L 111.96609 42.650833 
L 113.123469 41.08014 
L 114.859537 39.36253 
L 116.016916 38.546505 
L 117.174295 38.061061 
L 118.331674 38.105979 
L 118.910364 38.22833 
L 120.067743 38.962645 
L 120.646432 39.676641 
L 121.225122 40.153956 
L 122.382501 41.928709 
L 123.53988 44.205238 
L 125.854638 50.243342 
L 128.748085 57.517633 
L 129.326775 58.839487 
L 131.062843 61.989098 
L 132.798912 65.016305 
L 135.692359 68.586131 
L 136.849738 69.418413 
L 137.428428 69.88759 
L 138.585807 70.405728 
L 139.164496 70.952422 
L 139.743186 71.111531 
L 140.321875 71.625584 
L 140.900565 71.727582 
L 141.479254 71.960133 
L 142.057944 72.384434 
L 143.215323 72.841365 
L 144.372702 73.151433 
L 144.951391 73.669572 
L 145.530081 73.783805 
L 146.10877 74.122428 
L 146.68746 74.306018 
L 147.266149 74.669122 
L 150.738286 75.9461 
L 151.316976 75.917534 
L 152.474355 76.419352 
L 153.631734 76.811012 
L 154.210423 76.851813 
L 155.367802 77.149635 
L 161.154697 78.165506 
L 161.733386 78.002312 
L 162.312076 78.316455 
L 162.890765 78.49597 
L 164.048144 78.340936 
L 165.205523 78.691805 
L 165.784213 78.618363 
L 166.362902 78.781557 
L 167.520281 78.86316 
L 168.67766 79.189538 
L 170.992418 79.352732 
L 172.149797 79.536322 
L 173.885866 79.781108 
L 174.464555 80.107496 
L 175.621934 80.24621 
L 176.200624 80.560353 
L 176.779313 80.470601 
L 177.358003 80.592994 
L 177.936692 80.894891 
L 178.515382 80.927532 
L 180.25145 81.433425 
L 180.83014 81.372228 
L 181.408829 81.772048 
L 181.987519 81.735333 
L 182.566208 82.061721 
L 184.880966 82.616576 
L 185.459656 82.845041 
L 187.195724 83.061272 
L 187.774414 83.444772 
L 188.931793 83.681397 
L 190.089172 84.313769 
L 190.667861 84.395361 
L 191.82524 85.035892 
L 192.40393 85.088928 
L 192.982619 85.394922 
L 193.561309 85.390836 
L 195.297377 85.696819 
L 195.876067 85.623387 
L 196.454756 85.394922 
L 197.612135 84.648318 
L 198.769514 82.877682 
L 199.926893 80.621549 
L 206.292477 64.126912 
L 208.028546 60.10423 
L 209.185925 57.713458 
L 210.921993 54.804569 
L 212.079372 53.107365 
L 212.658062 52.462759 
L 213.236751 51.601922 
L 213.815441 51.010352 
L 217.287578 45.784123 
L 217.866267 45.094641 
L 218.444957 44.025733 
L 219.023646 43.540236 
L 220.181025 41.838957 
L 221.917094 40.003051 
L 223.074473 39.097295 
L 223.653162 39.03612 
L 224.231852 38.815804 
L 225.389231 38.754628 
L 225.96792 38.791312 
L 227.703989 39.896957 
L 228.282678 40.46411 
L 230.597436 44.27868 
L 231.754815 47.191654 
L 235.226952 56.493602 
L 235.805642 57.566584 
L 237.54171 61.413848 
L 240.435158 66.056657 
L 241.013847 66.758385 
L 241.592536 67.688578 
L 244.485984 70.430209 
L 251.430258 74.248896 
L 252.008947 74.367214 
L 252.587637 74.873107 
L 257.217153 76.827332 
L 257.795842 76.94565 
L 258.374532 77.463778 
L 258.953221 77.524975 
L 261.846669 78.373577 
L 264.740116 78.732596 
L 265.318806 79.010023 
L 265.897495 79.014108 
L 266.476185 79.25482 
L 268.212253 79.30377 
L 268.790943 79.360892 
L 269.369632 79.613839 
L 269.948322 79.515926 
L 270.527011 79.711751 
L 272.26308 79.736232 
L 272.841769 80.26253 
L 273.420459 79.948377 
L 273.999148 80.185013 
L 274.577838 80.017734 
L 275.156527 80.278851 
L 275.735217 80.225804 
L 276.313906 80.44612 
L 276.892596 80.335962 
L 277.471285 80.44612 
L 278.049975 80.715387 
L 279.207354 80.752103 
L 279.786043 80.874496 
L 280.943422 80.866335 
L 281.522112 81.147837 
L 282.100801 81.196799 
L 283.83687 81.735333 
L 284.415559 81.661901 
L 286.151627 82.233065 
L 287.309006 82.286112 
L 287.887696 82.592095 
L 288.466385 82.771599 
L 289.045075 82.832795 
L 296.568038 85.170531 
L 297.146728 85.578511 
L 298.882796 85.839618 
L 300.618865 86.451583 
L 302.354933 86.733096 
L 302.933623 81.120961 
L 304.091002 81.595239 
L 304.669691 84.39812 
L 305.248381 89.851745 
L 305.82707 90.713844 
L 306.40576 85.085249 
L 306.984449 77.450602 
L 307.563139 86.63836 
L 308.141828 84.936739 
L 308.720518 73.841707 
L 309.299207 84.872805 
L 309.877897 75.440271 
L 310.456586 72.8459 
L 311.035276 80.728681 
L 311.613965 68.020304 
L 312.192655 77.640587 
L 312.771344 72.286383 
L 313.350034 65.659489 
L 313.928723 74.613305 
L 314.507413 62.193853 
L 315.086102 65.143083 
L 315.664792 70.690203 
L 316.243481 59.107321 
L 316.822171 60.885207 
L 317.40086 68.066314 
L 317.97955 61.663351 
L 318.558239 53.808024 
L 319.136929 55.557612 
L 319.715618 63.251188 
L 320.294308 63.73676 
L 320.872997 56.376738 
L 321.451687 50.672573 
L 322.030376 52.078489 
L 322.609066 59.123427 
L 323.187755 61.232184 
L 323.766445 52.014106 
L 324.345134 47.138778 
L 324.923824 51.035849 
L 325.502513 56.857049 
L 326.081203 57.153983 
L 327.238581 44.045412 
L 327.817271 44.688895 
L 328.39596 49.608083 
L 328.97465 52.508844 
L 329.553339 54.746303 
L 330.132029 53.884365 
L 330.710718 52.005977 
L 331.289408 48.497273 
L 331.868097 50.426814 
L 332.446787 49.328228 
L 333.025476 52.484074 
L 333.604166 54.711694 
L 334.182855 52.685995 
L 334.761545 47.224659 
L 335.340234 45.147132 
L 335.918924 53.952791 
L 336.497613 57.12669 
L 337.076303 46.959862 
L 337.654992 59.20011 
L 338.233682 57.433881 
L 338.812371 51.930236 
L 339.391061 62.263306 
L 339.96975 60.11763 
L 340.54844 54.112862 
L 341.127129 63.856875 
L 341.705819 67.415729 
L 342.284508 58.482286 
L 342.863198 60.702719 
L 343.441887 70.855119 
L 344.020577 67.018604 
L 344.599266 60.383978 
L 345.756645 73.654759 
L 346.335335 73.256597 
L 346.914024 64.884083 
L 347.492714 64.143928 
L 348.071403 73.261934 
L 348.650093 76.197185 
L 349.228782 78.123122 
L 349.807472 75.877053 
L 350.386161 68.582003 
L 350.964851 67.098292 
L 351.54354 68.23923 
L 352.12223 72.824713 
L 352.700919 78.658704 
L 353.279609 81.413596 
L 353.858298 80.970055 
L 354.436988 76.460484 
L 355.015677 73.382893 
L 355.594367 70.968229 
L 356.173056 72.429203 
L 356.751746 74.796702 
L 357.330435 79.6725 
L 357.909125 81.283439 
L 358.487814 84.91367 
L 359.066504 83.912237 
L 359.645193 79.486472 
L 361.381262 73.86237 
L 361.959951 74.112578 
L 362.538641 75.226886 
L 363.11733 79.3327 
L 363.69602 78.622181 
L 364.274709 82.436558 
L 364.853399 84.384559 
L 365.432088 87.287918 
L 366.010778 88.190519 
L 366.589467 88.179589 
L 367.168157 82.049476 
L 369.482915 82.718563 
L 370.640293 82.653291 
L 371.218983 82.82056 
L 371.797672 82.755289 
L 373.533741 83.232626 
L 374.11243 83.16327 
L 374.69112 83.342774 
L 375.269809 82.967434 
L 375.848499 83.269342 
L 377.005878 83.505968 
L 378.163257 83.436611 
L 379.320636 83.599806 
L 379.899325 83.420291 
L 380.478015 83.591645 
L 381.056704 83.518203 
L 383.371462 83.718113 
L 383.950152 83.59572 
L 384.528841 83.78747 
L 385.107531 83.726273 
L 386.843599 83.97107 
L 388.000978 84.105698 
L 388.579668 84.240337 
L 389.158357 84.215856 
L 389.737047 84.432087 
L 390.315736 84.293373 
L 391.473115 84.525925 
L 392.630494 84.807426 
L 393.209184 84.729909 
L 393.787873 84.933894 
L 394.366563 84.840067 
L 394.945252 85.13789 
L 395.523942 85.019572 
L 396.102631 85.296999 
L 397.26001 85.443873 
L 397.8387 85.733535 
L 400.153458 86.145601 
L 400.732147 86.374066 
L 401.310837 86.463829 
L 401.889526 86.716775 
L 403.046905 86.9126 
L 403.625595 87.234903 
L 404.204284 87.226743 
L 404.782974 87.50417 
L 405.361663 87.361382 
L 405.940353 87.753042 
L 408.8338 88.1039 
L 409.991179 87.549057 
L 410.569869 86.998277 
L 412.305937 84.631997 
L 412.884627 83.546769 
L 413.463316 82.79608 
L 414.042005 81.22944 
L 414.620695 80.229889 
L 416.356763 76.015457 
L 417.514142 73.539008 
L 418.671521 70.605638 
L 420.986279 65.762909 
L 423.301037 62.033974 
L 424.458416 60.675394 
L 425.037106 60.108304 
L 425.615795 59.34538 
L 426.773174 58.366235 
L 427.351864 57.546189 
L 429.087932 55.751073 
L 430.245311 54.204828 
L 430.824001 53.760132 
L 431.98138 52.352601 
L 433.138759 51.112339 
L 433.717448 50.765566 
L 434.874827 49.872088 
L 435.453517 49.447787 
L 436.032206 49.292753 
L 436.610896 48.941894 
L 437.189585 49.003091 
L 437.768275 48.913328 
L 438.346964 49.125484 
L 438.925654 49.060202 
L 439.504343 49.668092 
L 440.083033 50.023036 
L 441.240412 51.622317 
L 441.819101 52.4954 
L 447.027307 62.494991 
L 447.605996 63.07024 
L 448.184686 64.257466 
L 451.656823 69.402092 
L 452.235512 69.916145 
L 453.392891 71.413439 
L 455.12896 72.955598 
L 456.286339 73.983715 
L 458.022407 75.073017 
L 458.601096 75.648267 
L 459.179786 75.852262 
L 461.494544 77.443383 
L 462.073233 77.810562 
L 462.651923 78.377662 
L 463.230612 78.549006 
L 464.387991 79.250734 
L 464.966681 79.4792 
L 465.54537 79.936142 
L 467.860128 80.84594 
L 468.438818 81.209045 
L 469.017507 81.42119 
L 469.596197 81.400794 
L 470.174886 81.576224 
L 470.753576 81.902602 
L 471.332265 81.931168 
L 471.910955 82.318742 
L 474.225713 82.743043 
L 475.383092 82.99599 
L 475.961781 83.044951 
L 476.540471 83.244861 
L 477.69785 83.330539 
L 478.276539 83.444772 
L 478.855229 83.338699 
L 479.433918 83.448846 
L 480.012608 83.412131 
L 481.169987 83.636521 
L 482.906055 83.620201 
L 483.484745 83.620201 
L 484.063434 83.485573 
L 484.642124 83.709964 
L 485.799503 83.624286 
L 486.956882 83.77116 
L 488.69295 83.783395 
L 489.27164 83.950664 
L 489.850329 83.94659 
L 490.429019 84.122019 
L 491.007708 84.138339 
L 491.586398 83.881307 
L 492.165087 84.175055 
L 492.743777 84.142414 
L 495.058535 84.55448 
L 495.637224 84.440247 
L 496.215914 84.583036 
L 496.794603 84.464717 
L 497.373293 84.782946 
L 497.951982 84.9543 
L 498.530672 84.942055 
L 500.26674 85.284764 
L 501.424119 85.419392 
L 502.002808 85.627462 
L 502.581498 85.680498 
L 503.160187 85.619302 
L 503.738877 85.741695 
L 504.317566 86.039528 
L 505.474945 86.219032 
L 506.053635 86.549496 
L 506.632324 86.496459 
L 508.368393 87.088029 
L 508.947082 87.31242 
L 509.525772 87.226743 
L 510.683151 87.618414 
L 511.26184 87.642884 
L 511.84053 87.826473 
L 512.419219 87.757116 
L 512.997909 87.875435 
L 513.576598 87.773437 
L 514.733977 87.222668 
L 515.312667 86.500545 
L 515.891356 85.966086 
L 517.627425 82.869522 
L 519.942183 77.341385 
L 520.520872 76.219442 
L 521.678251 73.290147 
L 522.256941 71.756137 
L 522.83563 70.572997 
L 524.571699 66.174975 
L 525.729078 63.886201 
L 528.043836 59.998157 
L 528.622525 59.378021 
L 529.201215 58.504949 
L 530.937283 56.546638 
L 531.515973 55.942833 
L 532.673352 54.372108 
L 533.252041 53.87029 
L 534.40942 52.115975 
L 534.98811 51.320409 
L 535.566799 50.728839 
L 536.724178 49.129559 
L 538.460247 47.256925 
L 539.038936 46.955028 
L 539.617626 46.290016 
L 541.932384 44.964087 
L 542.511073 45.196628 
L 543.089763 45.074235 
L 543.668452 45.445499 
L 544.247141 45.535251 
L 544.825831 46.06971 
L 545.40452 46.420569 
L 546.561899 47.791384 
L 547.140589 49.043881 
L 547.719278 49.847607 
L 548.297968 51.259213 
L 548.876657 52.31996 
L 550.034036 55.081986 
L 552.348794 60.291894 
L 556.97831 68.059843 
L 556.97831 68.059843 
" clip-path="url(#p9e6217fca2)" style="fill: none; stroke: #1f77b4; stroke-width: 1.5; stroke-linecap: square"/>
   </g>
   <g id="patch_4">
    <path d="M 39.28 93.424 
L 39.28 38.4 
" style="fill: none; stroke: #000000; stroke-width: 2.5; stroke-linejoin: miter; stroke-linecap: square"/>
   </g>
   <g id="patch_5">
    <path d="M 39.28 93.424 
L 556.56 93.424 
" style="fill: none; stroke: #000000; stroke-width: 2.5; stroke-linejoin: miter; stroke-linecap: square"/>
   </g>
   <g id="text_2">
    <!-- UCR_136 -->
    <g transform="translate(257.11625 32.4)scale(0.18 -0.18)">
     <defs>
      <path id="DejaVuSans-55" d="M 556 4666 
L 1191 4666 
L 1191 1831 
Q 1191 1081 1462 751 
Q 1734 422 2344 422 
Q 2950 422 3222 751 
Q 3494 1081 3494 1831 
L 3494 4666 
L 4128 4666 
L 4128 1753 
Q 4128 841 3676 375 
Q 3225 -91 2344 -91 
Q 1459 -91 1007 375 
Q 556 841 556 1753 
L 556 4666 
z
" transform="scale(0.015625)"/>
      <path id="DejaVuSans-43" d="M 4122 4306 
L 4122 3641 
Q 3803 3938 3442 4084 
Q 3081 4231 2675 4231 
Q 1875 4231 1450 3742 
Q 1025 3253 1025 2328 
Q 1025 1406 1450 917 
Q 1875 428 2675 428 
Q 3081 428 3442 575 
Q 3803 722 4122 1019 
L 4122 359 
Q 3791 134 3420 21 
Q 3050 -91 2638 -91 
Q 1578 -91 968 557 
Q 359 1206 359 2328 
Q 359 3453 968 4101 
Q 1578 4750 2638 4750 
Q 3056 4750 3426 4639 
Q 3797 4528 4122 4306 
z
" transform="scale(0.015625)"/>
      <path id="DejaVuSans-52" d="M 2841 2188 
Q 3044 2119 3236 1894 
Q 3428 1669 3622 1275 
L 4263 0 
L 3584 0 
L 2988 1197 
Q 2756 1666 2539 1819 
Q 2322 1972 1947 1972 
L 1259 1972 
L 1259 0 
L 628 0 
L 628 4666 
L 2053 4666 
Q 2853 4666 3247 4331 
Q 3641 3997 3641 3322 
Q 3641 2881 3436 2590 
Q 3231 2300 2841 2188 
z
M 1259 4147 
L 1259 2491 
L 2053 2491 
Q 2509 2491 2742 2702 
Q 2975 2913 2975 3322 
Q 2975 3731 2742 3939 
Q 2509 4147 2053 4147 
L 1259 4147 
z
" transform="scale(0.015625)"/>
      <path id="DejaVuSans-5f" d="M 3263 -1063 
L 3263 -1509 
L -63 -1509 
L -63 -1063 
L 3263 -1063 
z
" transform="scale(0.015625)"/>
      <path id="DejaVuSans-31" d="M 794 531 
L 1825 531 
L 1825 4091 
L 703 3866 
L 703 4441 
L 1819 4666 
L 2450 4666 
L 2450 531 
L 3481 531 
L 3481 0 
L 794 0 
L 794 531 
z
" transform="scale(0.015625)"/>
      <path id="DejaVuSans-33" d="M 2597 2516 
Q 3050 2419 3304 2112 
Q 3559 1806 3559 1356 
Q 3559 666 3084 287 
Q 2609 -91 1734 -91 
Q 1441 -91 1130 -33 
Q 819 25 488 141 
L 488 750 
Q 750 597 1062 519 
Q 1375 441 1716 441 
Q 2309 441 2620 675 
Q 2931 909 2931 1356 
Q 2931 1769 2642 2001 
Q 2353 2234 1838 2234 
L 1294 2234 
L 1294 2753 
L 1863 2753 
Q 2328 2753 2575 2939 
Q 2822 3125 2822 3475 
Q 2822 3834 2567 4026 
Q 2313 4219 1838 4219 
Q 1578 4219 1281 4162 
Q 984 4106 628 3988 
L 628 4550 
Q 988 4650 1302 4700 
Q 1616 4750 1894 4750 
Q 2613 4750 3031 4423 
Q 3450 4097 3450 3541 
Q 3450 3153 3228 2886 
Q 3006 2619 2597 2516 
z
" transform="scale(0.015625)"/>
      <path id="DejaVuSans-36" d="M 2113 2584 
Q 1688 2584 1439 2293 
Q 1191 2003 1191 1497 
Q 1191 994 1439 701 
Q 1688 409 2113 409 
Q 2538 409 2786 701 
Q 3034 994 3034 1497 
Q 3034 2003 2786 2293 
Q 2538 2584 2113 2584 
z
M 3366 4563 
L 3366 3988 
Q 3128 4100 2886 4159 
Q 2644 4219 2406 4219 
Q 1781 4219 1451 3797 
Q 1122 3375 1075 2522 
Q 1259 2794 1537 2939 
Q 1816 3084 2150 3084 
Q 2853 3084 3261 2657 
Q 3669 2231 3669 1497 
Q 3669 778 3244 343 
Q 2819 -91 2113 -91 
Q 1303 -91 875 529 
Q 447 1150 447 2328 
Q 447 3434 972 4092 
Q 1497 4750 2381 4750 
Q 2619 4750 2861 4703 
Q 3103 4656 3366 4563 
z
" transform="scale(0.015625)"/>
     </defs>
     <use xlink:href="#DejaVuSans-55"/>
     <use xlink:href="#DejaVuSans-43" x="73.193359"/>
     <use xlink:href="#DejaVuSans-52" x="143.017578"/>
     <use xlink:href="#DejaVuSans-5f" x="212.5"/>
     <use xlink:href="#DejaVuSans-31" x="262.5"/>
     <use xlink:href="#DejaVuSans-33" x="326.123047"/>
     <use xlink:href="#DejaVuSans-36" x="389.746094"/>
    </g>
   </g>
  </g>
  <g id="axes_2">
   <g id="patch_6">
    <path d="M 39.28 167.888 
L 556.56 167.888 
L 556.56 112.864 
L 39.28 112.864 
z
" style="fill: #ffffff"/>
   </g>
   <g id="patch_7">
    <path d="M 302.933623 167.888 
L 302.933623 112.864 
L 367.168157 112.864 
L 367.168157 167.888 
z
" clip-path="url(#pb36770a289)" style="fill: #ff7f50; stroke: #ff7f50; stroke-linejoin: miter"/>
   </g>
   <g id="matplotlib.axis_3"/>
   <g id="matplotlib.axis_4">
    <g id="text_3">
     <!-- Small $τ$ -->
     <g transform="translate(32.368437 166.276)rotate(-90)scale(0.14 -0.14)">
      <defs>
       <path id="DejaVuSans-53" d="M 3425 4513 
L 3425 3897 
Q 3066 4069 2747 4153 
Q 2428 4238 2131 4238 
Q 1616 4238 1336 4038 
Q 1056 3838 1056 3469 
Q 1056 3159 1242 3001 
Q 1428 2844 1947 2747 
L 2328 2669 
Q 3034 2534 3370 2195 
Q 3706 1856 3706 1288 
Q 3706 609 3251 259 
Q 2797 -91 1919 -91 
Q 1588 -91 1214 -16 
Q 841 59 441 206 
L 441 856 
Q 825 641 1194 531 
Q 1563 422 1919 422 
Q 2459 422 2753 634 
Q 3047 847 3047 1241 
Q 3047 1584 2836 1778 
Q 2625 1972 2144 2069 
L 1759 2144 
Q 1053 2284 737 2584 
Q 422 2884 422 3419 
Q 422 4038 858 4394 
Q 1294 4750 2059 4750 
Q 2388 4750 2728 4690 
Q 3069 4631 3425 4513 
z
" transform="scale(0.015625)"/>
       <path id="DejaVuSans-6d" d="M 3328 2828 
Q 3544 3216 3844 3400 
Q 4144 3584 4550 3584 
Q 5097 3584 5394 3201 
Q 5691 2819 5691 2113 
L 5691 0 
L 5113 0 
L 5113 2094 
Q 5113 2597 4934 2840 
Q 4756 3084 4391 3084 
Q 3944 3084 3684 2787 
Q 3425 2491 3425 1978 
L 3425 0 
L 2847 0 
L 2847 2094 
Q 2847 2600 2669 2842 
Q 2491 3084 2119 3084 
Q 1678 3084 1418 2786 
Q 1159 2488 1159 1978 
L 1159 0 
L 581 0 
L 581 3500 
L 1159 3500 
L 1159 2956 
Q 1356 3278 1631 3431 
Q 1906 3584 2284 3584 
Q 2666 3584 2933 3390 
Q 3200 3197 3328 2828 
z
" transform="scale(0.015625)"/>
       <path id="DejaVuSans-61" d="M 2194 1759 
Q 1497 1759 1228 1600 
Q 959 1441 959 1056 
Q 959 750 1161 570 
Q 1363 391 1709 391 
Q 2188 391 2477 730 
Q 2766 1069 2766 1631 
L 2766 1759 
L 2194 1759 
z
M 3341 1997 
L 3341 0 
L 2766 0 
L 2766 531 
Q 2569 213 2275 61 
Q 1981 -91 1556 -91 
Q 1019 -91 701 211 
Q 384 513 384 1019 
Q 384 1609 779 1909 
Q 1175 2209 1959 2209 
L 2766 2209 
L 2766 2266 
Q 2766 2663 2505 2880 
Q 2244 3097 1772 3097 
Q 1472 3097 1187 3025 
Q 903 2953 641 2809 
L 641 3341 
Q 956 3463 1253 3523 
Q 1550 3584 1831 3584 
Q 2591 3584 2966 3190 
Q 3341 2797 3341 1997 
z
" transform="scale(0.015625)"/>
       <path id="DejaVuSans-6c" d="M 603 4863 
L 1178 4863 
L 1178 0 
L 603 0 
L 603 4863 
z
" transform="scale(0.015625)"/>
       <path id="DejaVuSans-20" transform="scale(0.015625)"/>
       <path id="DejaVuSans-Oblique-3c4" d="M 2103 638 
Q 2188 488 2525 488 
L 2800 488 
L 2706 0 
L 2363 0 
Q 1800 0 1600 300 
Q 1403 606 1534 1269 
L 1856 2925 
L 541 2925 
L 653 3500 
L 3881 3500 
L 3769 2925 
L 2444 2925 
L 2113 1234 
Q 2025 781 2103 638 
z
" transform="scale(0.015625)"/>
      </defs>
      <use xlink:href="#DejaVuSans-53" transform="translate(0 0.015625)"/>
      <use xlink:href="#DejaVuSans-6d" transform="translate(63.476562 0.015625)"/>
      <use xlink:href="#DejaVuSans-61" transform="translate(160.888672 0.015625)"/>
      <use xlink:href="#DejaVuSans-6c" transform="translate(222.167969 0.015625)"/>
      <use xlink:href="#DejaVuSans-6c" transform="translate(249.951172 0.015625)"/>
      <use xlink:href="#DejaVuSans-20" transform="translate(277.734375 0.015625)"/>
      <use xlink:href="#DejaVuSans-Oblique-3c4" transform="translate(309.521484 0.015625)"/>
     </g>
    </g>
   </g>
   <g id="line2d_2">
    <path d="M 39.051214 165.385968 
L 302.933623 165.329569 
L 303.512312 164.452723 
L 304.669691 164.539565 
L 305.248381 164.128475 
L 305.82707 159.839752 
L 306.40576 157.165917 
L 306.984449 147.906703 
L 307.563139 145.258483 
L 308.141828 132.956498 
L 308.720518 136.577308 
L 309.299207 127.471188 
L 309.877897 130.742353 
L 310.456586 115.365091 
L 311.035276 130.993184 
L 311.613965 130.035301 
L 312.192655 127.747627 
L 312.771344 134.080055 
L 313.350034 127.797386 
L 313.928723 135.21671 
L 314.507413 123.957838 
L 315.664792 140.027822 
L 316.243481 140.730979 
L 316.822171 136.62524 
L 317.40086 146.937433 
L 317.97955 145.3462 
L 318.558239 149.299975 
L 319.136929 149.258435 
L 319.715618 150.997155 
L 320.294308 145.700302 
L 320.872997 151.465309 
L 321.451687 152.033786 
L 322.030376 151.494287 
L 322.609066 150.469867 
L 323.187755 149.736593 
L 323.766445 151.816673 
L 324.345134 154.653991 
L 324.923824 151.532245 
L 325.502513 153.086964 
L 326.081203 153.079089 
L 326.659892 153.890585 
L 327.238581 155.211218 
L 327.817271 152.566003 
L 329.553339 156.03606 
L 330.132029 156.294762 
L 330.710718 157.791213 
L 331.289408 157.711232 
L 331.868097 158.147463 
L 333.025476 159.691055 
L 334.182855 160.585124 
L 334.761545 161.502275 
L 335.340234 161.382467 
L 336.497613 161.651791 
L 337.076303 160.514068 
L 337.654992 160.460362 
L 338.233682 159.39866 
L 339.391061 159.191924 
L 339.96975 158.234762 
L 340.54844 157.777294 
L 341.127129 158.394109 
L 341.705819 158.412439 
L 342.284508 154.161246 
L 342.863198 157.326328 
L 343.441887 155.210218 
L 344.020577 151.4757 
L 344.599266 155.855586 
L 345.177956 151.475127 
L 345.756645 155.583392 
L 346.914024 152.663034 
L 347.492714 148.895186 
L 348.071403 149.431147 
L 348.650093 150.365826 
L 349.228782 149.23439 
L 349.807472 147.194584 
L 350.386161 149.850182 
L 350.964851 146.062381 
L 351.54354 143.476998 
L 352.12223 151.573706 
L 352.700919 149.70866 
L 353.279609 149.260382 
L 353.858298 146.497312 
L 354.436988 150.563929 
L 355.015677 152.322043 
L 355.594367 151.602872 
L 356.173056 152.363825 
L 356.751746 150.496568 
L 357.330435 154.567374 
L 358.487814 156.393415 
L 359.066504 152.566257 
L 359.645193 155.755467 
L 360.223883 154.898868 
L 360.802572 156.592657 
L 361.381262 156.621926 
L 361.959951 155.118604 
L 362.538641 156.993625 
L 363.11733 160.192645 
L 363.69602 159.485389 
L 364.274709 159.897404 
L 364.853399 160.114161 
L 365.432088 159.887828 
L 366.010778 158.849854 
L 366.589467 159.733758 
L 367.168157 160.345496 
L 367.746846 155.674773 
L 368.325536 155.449348 
L 368.904225 158.037808 
L 369.482915 157.248706 
L 370.061604 159.60444 
L 370.640293 160.822879 
L 371.218983 161.557417 
L 371.797672 161.415492 
L 372.376362 161.758605 
L 372.955051 162.827059 
L 373.533741 162.889782 
L 374.11243 163.511423 
L 374.69112 163.813299 
L 375.269809 163.809141 
L 375.848499 163.967043 
L 376.427188 164.262249 
L 378.163257 164.406752 
L 378.741946 164.418569 
L 379.899325 164.806343 
L 384.528841 165.237234 
L 413.463316 165.380616 
L 448.184686 165.382993 
L 556.97831 165.384601 
L 556.97831 165.384601 
" clip-path="url(#pb36770a289)" style="fill: none; stroke: #1f77b4; stroke-width: 1.5; stroke-linecap: square"/>
   </g>
   <g id="patch_8">
    <path d="M 39.28 167.888 
L 39.28 112.864 
" style="fill: none; stroke: #000000; stroke-width: 2.5; stroke-linejoin: miter; stroke-linecap: square"/>
   </g>
   <g id="patch_9">
    <path d="M 39.28 167.888 
L 556.56 167.888 
" style="fill: none; stroke: #000000; stroke-width: 2.5; stroke-linejoin: miter; stroke-linecap: square"/>
   </g>
  </g>
  <g id="axes_3">
   <g id="patch_10">
    <path d="M 39.28 242.352 
L 556.56 242.352 
L 556.56 187.328 
L 39.28 187.328 
z
" style="fill: #ffffff"/>
   </g>
   <g id="patch_11">
    <path d="M 302.933623 242.352 
L 302.933623 187.328 
L 367.168157 187.328 
L 367.168157 242.352 
z
" clip-path="url(#p726a33a4e6)" style="fill: #ff7f50; stroke: #ff7f50; stroke-linejoin: miter"/>
   </g>
   <g id="matplotlib.axis_5"/>
   <g id="matplotlib.axis_6">
    <g id="text_4">
     <!-- Medium $τ$ -->
     <g transform="translate(32.368437 249.28)rotate(-90)scale(0.14 -0.14)">
      <defs>
       <path id="DejaVuSans-4d" d="M 628 4666 
L 1569 4666 
L 2759 1491 
L 3956 4666 
L 4897 4666 
L 4897 0 
L 4281 0 
L 4281 4097 
L 3078 897 
L 2444 897 
L 1241 4097 
L 1241 0 
L 628 0 
L 628 4666 
z
" transform="scale(0.015625)"/>
       <path id="DejaVuSans-65" d="M 3597 1894 
L 3597 1613 
L 953 1613 
Q 991 1019 1311 708 
Q 1631 397 2203 397 
Q 2534 397 2845 478 
Q 3156 559 3463 722 
L 3463 178 
Q 3153 47 2828 -22 
Q 2503 -91 2169 -91 
Q 1331 -91 842 396 
Q 353 884 353 1716 
Q 353 2575 817 3079 
Q 1281 3584 2069 3584 
Q 2775 3584 3186 3129 
Q 3597 2675 3597 1894 
z
M 3022 2063 
Q 3016 2534 2758 2815 
Q 2500 3097 2075 3097 
Q 1594 3097 1305 2825 
Q 1016 2553 972 2059 
L 3022 2063 
z
" transform="scale(0.015625)"/>
       <path id="DejaVuSans-64" d="M 2906 2969 
L 2906 4863 
L 3481 4863 
L 3481 0 
L 2906 0 
L 2906 525 
Q 2725 213 2448 61 
Q 2172 -91 1784 -91 
Q 1150 -91 751 415 
Q 353 922 353 1747 
Q 353 2572 751 3078 
Q 1150 3584 1784 3584 
Q 2172 3584 2448 3432 
Q 2725 3281 2906 2969 
z
M 947 1747 
Q 947 1113 1208 752 
Q 1469 391 1925 391 
Q 2381 391 2643 752 
Q 2906 1113 2906 1747 
Q 2906 2381 2643 2742 
Q 2381 3103 1925 3103 
Q 1469 3103 1208 2742 
Q 947 2381 947 1747 
z
" transform="scale(0.015625)"/>
       <path id="DejaVuSans-69" d="M 603 3500 
L 1178 3500 
L 1178 0 
L 603 0 
L 603 3500 
z
M 603 4863 
L 1178 4863 
L 1178 4134 
L 603 4134 
L 603 4863 
z
" transform="scale(0.015625)"/>
      </defs>
      <use xlink:href="#DejaVuSans-4d" transform="translate(0 0.015625)"/>
      <use xlink:href="#DejaVuSans-65" transform="translate(86.279297 0.015625)"/>
      <use xlink:href="#DejaVuSans-64" transform="translate(147.802734 0.015625)"/>
      <use xlink:href="#DejaVuSans-69" transform="translate(211.279297 0.015625)"/>
      <use xlink:href="#DejaVuSans-75" transform="translate(239.0625 0.015625)"/>
      <use xlink:href="#DejaVuSans-6d" transform="translate(302.441406 0.015625)"/>
      <use xlink:href="#DejaVuSans-20" transform="translate(399.853516 0.015625)"/>
      <use xlink:href="#DejaVuSans-Oblique-3c4" transform="translate(431.640625 0.015625)"/>
     </g>
    </g>
   </g>
   <g id="line2d_3">
    <path d="M 39.051214 239.838443 
L 48.310246 239.843693 
L 98.077542 239.818186 
L 105.600506 239.825241 
L 173.307176 239.843277 
L 227.125299 239.742568 
L 231.754815 239.70717 
L 243.328605 239.815093 
L 278.628664 239.846833 
L 302.354933 239.839671 
L 303.512312 238.415822 
L 304.091002 238.412318 
L 304.669691 238.079859 
L 305.248381 235.847821 
L 305.82707 231.753627 
L 306.40576 224.683252 
L 306.984449 222.084295 
L 307.563139 217.421674 
L 308.720518 224.615338 
L 309.299207 225.110734 
L 309.877897 229.144388 
L 310.456586 232.085375 
L 311.035276 230.903998 
L 311.613965 228.767992 
L 312.771344 232.739807 
L 313.350034 233.225792 
L 313.928723 232.176842 
L 314.507413 232.535867 
L 315.086102 233.634082 
L 315.664792 234.359719 
L 316.243481 231.079632 
L 316.822171 234.449833 
L 317.40086 234.774741 
L 317.97955 232.109683 
L 318.558239 233.584672 
L 319.136929 231.890619 
L 319.715618 231.779655 
L 320.294308 230.998523 
L 320.872997 227.174352 
L 321.451687 230.733829 
L 322.030376 229.580646 
L 322.609066 230.800604 
L 323.187755 230.961917 
L 323.766445 227.383253 
L 324.345134 230.951899 
L 324.923824 229.617937 
L 325.502513 232.990288 
L 326.659892 231.176726 
L 327.238581 232.286749 
L 327.817271 229.237017 
L 328.39596 230.06166 
L 328.97465 231.353507 
L 329.553339 229.235458 
L 330.132029 228.883959 
L 330.710718 230.655984 
L 331.289408 231.015556 
L 331.868097 230.23569 
L 333.025476 232.91918 
L 334.182855 233.574849 
L 334.761545 234.322818 
L 335.340234 232.159513 
L 335.918924 228.192822 
L 336.497613 231.517456 
L 337.076303 229.02879 
L 337.654992 230.302235 
L 338.233682 235.563475 
L 338.812371 235.526708 
L 339.391061 232.72617 
L 339.96975 235.46918 
L 340.54844 235.522742 
L 341.127129 232.80519 
L 341.705819 235.352206 
L 342.284508 232.238271 
L 342.863198 233.848981 
L 343.441887 233.420671 
L 344.020577 233.425773 
L 344.599266 234.771093 
L 345.177956 232.682577 
L 345.756645 235.368858 
L 347.492714 230.078068 
L 348.071403 224.338668 
L 348.650093 229.987828 
L 349.228782 229.944718 
L 349.807472 226.807009 
L 350.386161 228.29222 
L 350.964851 223.009566 
L 351.54354 213.352693 
L 352.12223 211.899112 
L 352.700919 217.031206 
L 353.279609 215.613419 
L 353.858298 208.999624 
L 354.436988 207.429875 
L 355.015677 211.733763 
L 355.594367 211.190838 
L 356.173056 206.936129 
L 356.751746 207.650689 
L 357.909125 215.996343 
L 358.487814 215.635875 
L 359.066504 209.239617 
L 359.645193 207.889708 
L 360.223883 211.34893 
L 360.802572 211.532032 
L 361.381262 208.914917 
L 361.959951 205.22381 
L 362.538641 205.899527 
L 364.274709 218.76286 
L 364.853399 219.213444 
L 365.432088 216.265981 
L 367.168157 192.667917 
L 367.746846 189.829091 
L 368.325536 190.371219 
L 368.904225 196.019723 
L 370.061604 209.754468 
L 370.640293 214.334381 
L 371.218983 217.752425 
L 372.376362 222.7753 
L 373.533741 226.890317 
L 374.69112 229.920582 
L 375.848499 232.137842 
L 377.005878 233.731523 
L 378.163257 234.896802 
L 379.320636 235.826409 
L 383.371462 238.072254 
L 384.528841 238.376167 
L 392.630494 239.427718 
L 399.574768 239.727606 
L 409.991179 239.826218 
L 462.651923 239.84351 
L 481.748676 239.847206 
L 556.97831 239.837326 
L 556.97831 239.837326 
" clip-path="url(#p726a33a4e6)" style="fill: none; stroke: #1f77b4; stroke-width: 1.5; stroke-linecap: square"/>
   </g>
   <g id="patch_12">
    <path d="M 39.28 242.352 
L 39.28 187.328 
" style="fill: none; stroke: #000000; stroke-width: 2.5; stroke-linejoin: miter; stroke-linecap: square"/>
   </g>
   <g id="patch_13">
    <path d="M 39.28 242.352 
L 556.56 242.352 
" style="fill: none; stroke: #000000; stroke-width: 2.5; stroke-linejoin: miter; stroke-linecap: square"/>
   </g>
  </g>
  <g id="axes_4">
   <g id="patch_14">
    <path d="M 39.28 316.816 
L 556.56 316.816 
L 556.56 261.792 
L 39.28 261.792 
z
" style="fill: #ffffff"/>
   </g>
   <g id="patch_15">
    <path d="M 302.933623 316.816 
L 302.933623 261.792 
L 367.168157 261.792 
L 367.168157 316.816 
z
" clip-path="url(#p4de435af71)" style="fill: #ff7f50; stroke: #ff7f50; stroke-linejoin: miter"/>
   </g>
   <g id="matplotlib.axis_7"/>
   <g id="matplotlib.axis_8">
    <g id="text_5">
     <!-- Large $τ$ -->
     <g transform="translate(32.34 315.624)rotate(-90)scale(0.14 -0.14)">
      <defs>
       <path id="DejaVuSans-4c" d="M 628 4666 
L 1259 4666 
L 1259 531 
L 3531 531 
L 3531 0 
L 628 0 
L 628 4666 
z
" transform="scale(0.015625)"/>
       <path id="DejaVuSans-72" d="M 2631 2963 
Q 2534 3019 2420 3045 
Q 2306 3072 2169 3072 
Q 1681 3072 1420 2755 
Q 1159 2438 1159 1844 
L 1159 0 
L 581 0 
L 581 3500 
L 1159 3500 
L 1159 2956 
Q 1341 3275 1631 3429 
Q 1922 3584 2338 3584 
Q 2397 3584 2469 3576 
Q 2541 3569 2628 3553 
L 2631 2963 
z
" transform="scale(0.015625)"/>
       <path id="DejaVuSans-67" d="M 2906 1791 
Q 2906 2416 2648 2759 
Q 2391 3103 1925 3103 
Q 1463 3103 1205 2759 
Q 947 2416 947 1791 
Q 947 1169 1205 825 
Q 1463 481 1925 481 
Q 2391 481 2648 825 
Q 2906 1169 2906 1791 
z
M 3481 434 
Q 3481 -459 3084 -895 
Q 2688 -1331 1869 -1331 
Q 1566 -1331 1297 -1286 
Q 1028 -1241 775 -1147 
L 775 -588 
Q 1028 -725 1275 -790 
Q 1522 -856 1778 -856 
Q 2344 -856 2625 -561 
Q 2906 -266 2906 331 
L 2906 616 
Q 2728 306 2450 153 
Q 2172 0 1784 0 
Q 1141 0 747 490 
Q 353 981 353 1791 
Q 353 2603 747 3093 
Q 1141 3584 1784 3584 
Q 2172 3584 2450 3431 
Q 2728 3278 2906 2969 
L 2906 3500 
L 3481 3500 
L 3481 434 
z
" transform="scale(0.015625)"/>
      </defs>
      <use xlink:href="#DejaVuSans-4c" transform="translate(0 0.09375)"/>
      <use xlink:href="#DejaVuSans-61" transform="translate(55.712891 0.09375)"/>
      <use xlink:href="#DejaVuSans-72" transform="translate(116.992188 0.09375)"/>
      <use xlink:href="#DejaVuSans-67" transform="translate(158.105469 0.09375)"/>
      <use xlink:href="#DejaVuSans-65" transform="translate(221.582031 0.09375)"/>
      <use xlink:href="#DejaVuSans-20" transform="translate(283.105469 0.09375)"/>
      <use xlink:href="#DejaVuSans-Oblique-3c4" transform="translate(314.892578 0.09375)"/>
     </g>
    </g>
   </g>
   <g id="line2d_4">
    <path d="M 39.051214 314.27745 
L 48.888935 314.281511 
L 83.031615 314.301635 
L 125.275948 314.195704 
L 139.164496 314.239707 
L 169.25635 314.28447 
L 223.653162 314.059649 
L 227.703989 313.878736 
L 232.333505 313.437622 
L 235.805642 313.543846 
L 242.749915 314.061766 
L 250.851568 314.192271 
L 267.633564 314.259041 
L 302.354933 314.284801 
L 302.933623 312.775099 
L 303.512312 312.848969 
L 304.091002 312.652113 
L 304.669691 311.74946 
L 305.82707 304.826424 
L 306.984449 298.381446 
L 307.563139 297.575766 
L 308.141828 306.811696 
L 308.720518 304.547788 
L 309.299207 304.425261 
L 309.877897 307.919555 
L 310.456586 309.308592 
L 311.035276 306.913953 
L 311.613965 306.716283 
L 312.192655 308.559648 
L 312.771344 309.98635 
L 313.350034 308.108452 
L 313.928723 307.557401 
L 314.507413 308.771875 
L 315.086102 310.587216 
L 315.664792 307.153761 
L 316.243481 308.387627 
L 316.822171 311.556219 
L 317.40086 307.648239 
L 317.97955 309.75436 
L 318.558239 306.639044 
L 319.136929 308.955066 
L 319.715618 304.486828 
L 320.294308 307.85245 
L 320.872997 305.172415 
L 321.451687 305.474529 
L 322.030376 308.090149 
L 322.609066 305.320887 
L 323.187755 307.980574 
L 323.766445 306.136892 
L 324.345134 307.276078 
L 324.923824 309.482193 
L 325.502513 307.619106 
L 326.081203 309.722693 
L 326.659892 307.831144 
L 327.238581 306.573506 
L 327.817271 307.716508 
L 328.39596 305.957815 
L 328.97465 308.088604 
L 329.553339 307.448553 
L 330.132029 305.636264 
L 330.710718 305.948199 
L 331.289408 306.630839 
L 331.868097 307.888593 
L 333.025476 308.117159 
L 333.604166 309.425555 
L 334.182855 310.328238 
L 334.761545 308.582503 
L 335.340234 307.530819 
L 335.918924 304.875828 
L 336.497613 307.248369 
L 337.076303 305.215578 
L 337.654992 308.743086 
L 338.233682 309.145329 
L 338.812371 306.540025 
L 339.391061 308.205162 
L 339.96975 310.289907 
L 340.54844 307.741779 
L 341.127129 307.114378 
L 341.705819 307.988888 
L 342.284508 306.495245 
L 342.863198 309.728346 
L 343.441887 305.628201 
L 344.020577 309.28127 
L 344.599266 305.786035 
L 345.177956 308.793131 
L 345.756645 307.095512 
L 346.335335 307.886189 
L 346.914024 301.209466 
L 347.492714 306.092506 
L 348.071403 300.829337 
L 348.650093 305.977108 
L 349.228782 307.013253 
L 350.386161 297.65588 
L 350.964851 302.307302 
L 352.12223 286.509761 
L 352.700919 289.714616 
L 353.279609 296.226778 
L 353.858298 293.272187 
L 354.436988 287.667016 
L 355.594367 297.458279 
L 356.751746 292.782514 
L 357.330435 294.075132 
L 357.909125 299.967414 
L 358.487814 300.789873 
L 359.645193 289.079119 
L 360.223883 292.155115 
L 360.802572 296.058437 
L 361.381262 296.541797 
L 362.538641 286.973048 
L 363.11733 285.330309 
L 364.274709 293.029183 
L 364.853399 293.886983 
L 365.432088 292.11829 
L 366.010778 286.366262 
L 366.589467 276.72397 
L 367.168157 264.293091 
L 367.746846 264.599165 
L 369.482915 274.243222 
L 371.218983 281.91109 
L 372.376362 288.71143 
L 373.533741 295.147948 
L 374.11243 297.247051 
L 375.269809 299.996077 
L 377.584567 305.168619 
L 378.163257 306.159591 
L 378.741946 306.925087 
L 379.899325 307.975194 
L 383.950152 311.293387 
L 385.107531 311.845909 
L 386.843599 312.33496 
L 388.579668 312.572627 
L 392.630494 313.006356 
L 398.417389 313.842333 
L 402.468216 314.00139 
L 416.935453 314.096938 
L 423.301037 314.120877 
L 436.610896 314.250002 
L 452.814202 314.281781 
L 556.97831 314.280981 
L 556.97831 314.280981 
" clip-path="url(#p4de435af71)" style="fill: none; stroke: #1f77b4; stroke-width: 1.5; stroke-linecap: square"/>
   </g>
   <g id="patch_16">
    <path d="M 39.28 316.816 
L 39.28 261.792 
" style="fill: none; stroke: #000000; stroke-width: 2.5; stroke-linejoin: miter; stroke-linecap: square"/>
   </g>
   <g id="patch_17">
    <path d="M 39.28 316.816 
L 556.56 316.816 
" style="fill: none; stroke: #000000; stroke-width: 2.5; stroke-linejoin: miter; stroke-linecap: square"/>
   </g>
  </g>
  <g id="axes_5">
   <g id="patch_18">
    <path d="M 39.28 391.28 
L 556.56 391.28 
L 556.56 336.256 
L 39.28 336.256 
z
" style="fill: #ffffff"/>
   </g>
   <g id="patch_19">
    <path d="M 302.933623 391.28 
L 302.933623 336.256 
L 367.168157 336.256 
L 367.168157 391.28 
z
" clip-path="url(#pc374a02124)" style="fill: #ff7f50; stroke: #ff7f50; stroke-linejoin: miter"/>
   </g>
   <g id="matplotlib.axis_9">
    <g id="text_6">
     <!-- Time -->
     <g transform="translate(275.899531 408.957187)scale(0.18 -0.18)">
      <defs>
       <path id="DejaVuSans-54" d="M -19 4666 
L 3928 4666 
L 3928 4134 
L 2272 4134 
L 2272 0 
L 1638 0 
L 1638 4134 
L -19 4134 
L -19 4666 
z
" transform="scale(0.015625)"/>
      </defs>
      <use xlink:href="#DejaVuSans-54"/>
      <use xlink:href="#DejaVuSans-69" x="57.958984"/>
      <use xlink:href="#DejaVuSans-6d" x="85.742188"/>
      <use xlink:href="#DejaVuSans-65" x="183.154297"/>
     </g>
    </g>
   </g>
   <g id="matplotlib.axis_10">
    <g id="text_7">
     <!-- Mixed $τ$ -->
     <g transform="translate(32.368437 391.138)rotate(-90)scale(0.14 -0.14)">
      <defs>
       <path id="DejaVuSans-78" d="M 3513 3500 
L 2247 1797 
L 3578 0 
L 2900 0 
L 1881 1375 
L 863 0 
L 184 0 
L 1544 1831 
L 300 3500 
L 978 3500 
L 1906 2253 
L 2834 3500 
L 3513 3500 
z
" transform="scale(0.015625)"/>
      </defs>
      <use xlink:href="#DejaVuSans-4d" transform="translate(0 0.015625)"/>
      <use xlink:href="#DejaVuSans-69" transform="translate(86.279297 0.015625)"/>
      <use xlink:href="#DejaVuSans-78" transform="translate(114.0625 0.015625)"/>
      <use xlink:href="#DejaVuSans-65" transform="translate(173.242188 0.015625)"/>
      <use xlink:href="#DejaVuSans-64" transform="translate(234.765625 0.015625)"/>
      <use xlink:href="#DejaVuSans-20" transform="translate(298.242188 0.015625)"/>
      <use xlink:href="#DejaVuSans-Oblique-3c4" transform="translate(330.029297 0.015625)"/>
     </g>
    </g>
   </g>
   <g id="line2d_5">
    <path d="M 39.051214 388.771607 
L 53.518451 388.777265 
L 302.354933 388.771785 
L 302.933623 388.386455 
L 303.512312 386.944498 
L 304.091002 387.209534 
L 304.669691 387.18961 
L 305.248381 385.585873 
L 305.82707 378.099419 
L 306.40576 374.200631 
L 306.984449 372.72518 
L 307.563139 355.077272 
L 308.141828 355.344952 
L 308.720518 364.950187 
L 309.299207 348.71418 
L 309.877897 339.900335 
L 310.456586 343.495788 
L 311.035276 355.157208 
L 311.613965 349.029698 
L 312.192655 338.778862 
L 312.771344 338.757091 
L 313.350034 352.729436 
L 313.928723 357.866941 
L 314.507413 355.273182 
L 315.086102 347.896233 
L 315.664792 361.844699 
L 316.243481 361.765426 
L 316.822171 358.217433 
L 317.40086 367.690956 
L 317.97955 363.348621 
L 318.558239 368.403005 
L 319.136929 365.8178 
L 319.715618 369.524068 
L 320.294308 366.473237 
L 320.872997 366.389594 
L 321.451687 371.071445 
L 322.030376 369.164196 
L 322.609066 371.839077 
L 323.187755 371.106238 
L 323.766445 369.096508 
L 324.345134 371.195349 
L 324.923824 370.082227 
L 325.502513 373.248708 
L 326.081203 373.333814 
L 326.659892 374.831967 
L 327.238581 376.7468 
L 327.817271 372.75139 
L 328.39596 373.915567 
L 328.97465 375.473529 
L 329.553339 375.591076 
L 330.132029 376.622795 
L 330.710718 379.035092 
L 331.289408 380.736331 
L 331.868097 381.213142 
L 332.446787 382.363336 
L 333.025476 383.091671 
L 333.604166 383.568595 
L 334.761545 384.244847 
L 335.340234 382.195824 
L 335.918924 378.746619 
L 336.497613 377.855324 
L 337.076303 376.602339 
L 337.654992 370.867268 
L 338.233682 368.78608 
L 338.812371 374.856842 
L 339.391061 373.814468 
L 339.96975 373.318797 
L 340.54844 376.630969 
L 341.127129 373.900022 
L 341.705819 375.211667 
L 342.284508 374.398535 
L 342.863198 368.848618 
L 343.441887 373.59671 
L 344.020577 369.429594 
L 344.599266 372.490936 
L 345.177956 367.089096 
L 345.756645 372.619495 
L 346.335335 371.349447 
L 346.914024 372.463466 
L 347.492714 363.588705 
L 348.071403 361.434868 
L 348.650093 364.73673 
L 349.228782 365.705258 
L 349.807472 366.114011 
L 350.386161 369.62885 
L 350.964851 359.617898 
L 351.54354 352.913953 
L 352.12223 356.111853 
L 352.700919 363.437948 
L 353.279609 359.88787 
L 353.858298 353.473572 
L 354.436988 356.260534 
L 355.015677 360.174394 
L 355.594367 360.28515 
L 356.173056 357.799936 
L 357.330435 367.857764 
L 357.909125 368.570625 
L 358.487814 368.27171 
L 359.066504 363.490983 
L 359.645193 364.525332 
L 360.223883 366.798192 
L 360.802572 367.72583 
L 361.381262 367.136491 
L 361.959951 365.984323 
L 362.538641 367.587556 
L 363.11733 370.088544 
L 363.69602 371.64108 
L 364.274709 374.142215 
L 364.853399 373.630886 
L 365.432088 371.765806 
L 366.010778 366.764653 
L 366.589467 363.588066 
L 367.168157 361.292666 
L 367.746846 359.695134 
L 368.325536 359.534803 
L 369.482915 366.31291 
L 370.061604 369.427646 
L 371.797672 376.103665 
L 372.376362 378.116175 
L 372.955051 379.592 
L 374.11243 381.571033 
L 375.269809 383.154123 
L 377.584567 385.645616 
L 378.163257 386.159075 
L 379.320636 386.76645 
L 383.371462 387.94383 
L 389.737047 388.562554 
L 394.945252 388.695938 
L 414.042005 388.744077 
L 438.925654 388.771402 
L 460.337165 388.773995 
L 556.97831 388.770069 
L 556.97831 388.770069 
" clip-path="url(#pc374a02124)" style="fill: none; stroke: #1f77b4; stroke-width: 1.5; stroke-linecap: square"/>
   </g>
   <g id="patch_20">
    <path d="M 39.28 391.28 
L 39.28 336.256 
" style="fill: none; stroke: #000000; stroke-width: 2.5; stroke-linejoin: miter; stroke-linecap: square"/>
   </g>
   <g id="patch_21">
    <path d="M 39.28 391.28 
L 556.56 391.28 
" style="fill: none; stroke: #000000; stroke-width: 2.5; stroke-linejoin: miter; stroke-linecap: square"/>
   </g>
  </g>
 </g>
 <defs>
  <clipPath id="p9e6217fca2">
   <rect x="39.28" y="38.4" width="517.28" height="55.024"/>
  </clipPath>
  <clipPath id="pb36770a289">
   <rect x="39.28" y="112.864" width="517.28" height="55.024"/>
  </clipPath>
  <clipPath id="p726a33a4e6">
   <rect x="39.28" y="187.328" width="517.28" height="55.024"/>
  </clipPath>
  <clipPath id="p4de435af71">
   <rect x="39.28" y="261.792" width="517.28" height="55.024"/>
  </clipPath>
  <clipPath id="pc374a02124">
   <rect x="39.28" y="336.256" width="517.28" height="55.024"/>
  </clipPath>
 </defs>
</svg>
