<?xml version="1.0" encoding="utf-8" standalone="no"?>
<!DOCTYPE svg PUBLIC "-//W3C//DTD SVG 1.1//EN"
  "http://www.w3.org/Graphics/SVG/1.1/DTD/svg11.dtd">
<svg xmlns:xlink="http://www.w3.org/1999/xlink" width="922.32pt" height="288pt" viewBox="0 0 922.32 288" xmlns="http://www.w3.org/2000/svg" version="1.1">
 <metadata>
  <rdf:RDF xmlns:dc="http://purl.org/dc/elements/1.1/" xmlns:cc="http://creativecommons.org/ns#" xmlns:rdf="http://www.w3.org/1999/02/22-rdf-syntax-ns#">
   <cc:Work>
    <dc:type rdf:resource="http://purl.org/dc/dcmitype/StillImage"/>
    <dc:date>2022-11-11T22:06:51.968507</dc:date>
    <dc:format>image/svg+xml</dc:format>
    <dc:creator>
     <cc:Agent>
      <dc:title>Matplotlib v3.5.1, https://matplotlib.org/</dc:title>
     </cc:Agent>
    </dc:creator>
   </cc:Work>
  </rdf:RDF>
 </metadata>
 <defs>
  <style type="text/css">*{stroke-linejoin: round; stroke-linecap: butt}</style>
 </defs>
 <g id="figure_1">
  <g id="patch_1">
   <path d="M 0 288 
L 922.32 288 
L 922.32 0 
L 0 0 
z
" style="fill: #ffffff"/>
  </g>
  <g id="axes_1">
   <g id="patch_2">
    <path d="M 115.29 82.768696 
L 830.088 82.768696 
L 830.088 34.56 
L 115.29 34.56 
z
" style="fill: #ffffff"/>
   </g>
   <g id="patch_3">
    <path d="M 333.243677 82.768696 
L 333.243677 34.56 
L 346.126267 34.56 
L 346.126267 82.768696 
z
" clip-path="url(#pda2c476802)" style="fill: #ff7f50; stroke: #ff7f50; stroke-linejoin: miter"/>
   </g>
   <g id="matplotlib.axis_1"/>
   <g id="matplotlib.axis_2">
    <g id="text_1">
     <!-- Input -->
     <g transform="translate(108.378438 76.789973)rotate(-90)scale(0.14 -0.14)">
      <defs>
       <path id="DejaVuSans-49" d="M 628 4666 
L 1259 4666 
L 1259 0 
L 628 0 
L 628 4666 
z
" transform="scale(0.015625)"/>
       <path id="DejaVuSans-6e" d="M 3513 2113 
L 3513 0 
L 2938 0 
L 2938 2094 
Q 2938 2591 2744 2837 
Q 2550 3084 2163 3084 
Q 1697 3084 1428 2787 
Q 1159 2491 1159 1978 
L 1159 0 
L 581 0 
L 581 3500 
L 1159 3500 
L 1159 2956 
Q 1366 3272 1645 3428 
Q 1925 3584 2291 3584 
Q 2894 3584 3203 3211 
Q 3513 2838 3513 2113 
z
" transform="scale(0.015625)"/>
       <path id="DejaVuSans-70" d="M 1159 525 
L 1159 -1331 
L 581 -1331 
L 581 3500 
L 1159 3500 
L 1159 2969 
Q 1341 3281 1617 3432 
Q 1894 3584 2278 3584 
Q 2916 3584 3314 3078 
Q 3713 2572 3713 1747 
Q 3713 922 3314 415 
Q 2916 -91 2278 -91 
Q 1894 -91 1617 61 
Q 1341 213 1159 525 
z
M 3116 1747 
Q 3116 2381 2855 2742 
Q 2594 3103 2138 3103 
Q 1681 3103 1420 2742 
Q 1159 2381 1159 1747 
Q 1159 1113 1420 752 
Q 1681 391 2138 391 
Q 2594 391 2855 752 
Q 3116 1113 3116 1747 
z
" transform="scale(0.015625)"/>
       <path id="DejaVuSans-75" d="M 544 1381 
L 544 3500 
L 1119 3500 
L 1119 1403 
Q 1119 906 1312 657 
Q 1506 409 1894 409 
Q 2359 409 2629 706 
Q 2900 1003 2900 1516 
L 2900 3500 
L 3475 3500 
L 3475 0 
L 2900 0 
L 2900 538 
Q 2691 219 2414 64 
Q 2138 -91 1772 -91 
Q 1169 -91 856 284 
Q 544 659 544 1381 
z
M 1991 3584 
L 1991 3584 
z
" transform="scale(0.015625)"/>
       <path id="DejaVuSans-74" d="M 1172 4494 
L 1172 3500 
L 2356 3500 
L 2356 3053 
L 1172 3053 
L 1172 1153 
Q 1172 725 1289 603 
Q 1406 481 1766 481 
L 2356 481 
L 2356 0 
L 1766 0 
Q 1100 0 847 248 
Q 594 497 594 1153 
L 594 3053 
L 172 3053 
L 172 3500 
L 594 3500 
L 594 4494 
L 1172 4494 
z
" transform="scale(0.015625)"/>
      </defs>
      <use xlink:href="#DejaVuSans-49"/>
      <use xlink:href="#DejaVuSans-6e" x="29.492188"/>
      <use xlink:href="#DejaVuSans-70" x="92.871094"/>
      <use xlink:href="#DejaVuSans-75" x="156.347656"/>
      <use xlink:href="#DejaVuSans-74" x="219.726562"/>
     </g>
    </g>
   </g>
   <g id="line2d_1">
    <path d="M 147.780818 41.675614 
L 148.128996 43.537623 
L 148.477174 46.224241 
L 149.637768 57.060473 
L 150.450183 62.264124 
L 150.682302 63.165201 
L 151.03048 64.658134 
L 152.423193 67.83685 
L 152.771371 68.418726 
L 152.88743 68.538427 
L 153.119549 69.120304 
L 153.467727 69.602439 
L 153.699846 69.964864 
L 154.048024 70.380485 
L 154.280142 70.712987 
L 154.396202 70.676413 
L 154.512261 70.95904 
L 154.62832 70.939089 
L 154.860439 71.304843 
L 155.092558 71.318144 
L 155.208617 71.497692 
L 155.324677 71.431195 
L 155.440736 71.710493 
L 155.556795 71.610743 
L 155.788914 71.800271 
L 155.904973 71.640666 
L 156.137092 72.052975 
L 156.253152 71.923293 
L 156.369211 72.119472 
L 156.60133 72.036344 
L 156.717389 72.312321 
L 156.833448 72.013071 
L 157.065567 72.242494 
L 157.181626 72.1095 
L 157.994042 72.674754 
L 158.110101 72.894206 
L 158.458279 72.880904 
L 160.547348 74.739584 
L 160.895526 75.151884 
L 161.011585 75.188466 
L 161.359763 75.647311 
L 161.591882 75.969842 
L 161.824001 76.335597 
L 162.288238 76.701343 
L 162.404298 76.87757 
L 162.636416 76.824374 
L 163.100654 75.42786 
L 163.680951 70.43701 
L 165.5379 52.398795 
L 166.350316 47.584172 
L 167.278791 41.722168 
L 167.859088 38.909207 
L 168.323325 37.692232 
L 168.555444 37.648999 
L 168.671503 37.718817 
L 169.019681 38.513485 
L 169.716037 43.178528 
L 170.760572 54.077927 
L 171.456928 59.304859 
L 172.037225 62.287396 
L 172.617521 64.026383 
L 173.429937 65.572512 
L 174.126293 66.869267 
L 174.590531 67.820228 
L 174.70659 67.929949 
L 174.938709 68.275752 
L 175.054768 68.338928 
L 175.402946 69.050486 
L 175.635065 69.170179 
L 176.56354 70.074585 
L 176.911718 70.264113 
L 177.143837 70.137761 
L 177.375955 70.460292 
L 177.492015 70.427039 
L 177.956252 70.686393 
L 178.652608 71.002264 
L 178.884727 71.131937 
L 179.232905 71.447817 
L 179.581083 71.507672 
L 179.813202 71.870097 
L 179.929261 71.820223 
L 180.16138 72.202599 
L 180.393499 72.202599 
L 180.741677 72.651473 
L 181.670152 73.532607 
L 181.90227 74.028035 
L 182.01833 74.024705 
L 182.366508 74.712982 
L 182.598627 74.80941 
L 182.946805 75.554212 
L 183.178923 75.750391 
L 183.411042 76.106165 
L 183.527101 76.109495 
L 183.87528 76.37217 
L 183.991339 76.511824 
L 184.223458 76.445318 
L 184.571636 75.487715 
L 184.919814 73.333099 
L 185.848289 63.976508 
L 186.776764 54.722979 
L 187.47312 50.227557 
L 188.633713 43.328152 
L 189.33007 39.82355 
L 189.678248 38.679793 
L 190.026426 38.323992 
L 190.258544 38.433731 
L 190.606722 39.321489 
L 191.303079 44.611606 
L 192.463672 56.455315 
L 193.160028 61.170189 
L 194.088503 64.801108 
L 195.016978 67.01225 
L 195.249097 67.348073 
L 195.597275 68.242499 
L 196.061512 68.924134 
L 196.409691 69.61241 
L 196.757869 70.167684 
L 196.873928 70.217559 
L 197.338165 70.739589 
L 197.686344 70.915816 
L 198.150581 71.314815 
L 198.26664 71.148568 
L 198.498759 71.437846 
L 199.311175 71.767018 
L 199.775412 72.0031 
L 200.007531 72.245824 
L 200.12359 72.325622 
L 200.239649 72.232523 
L 200.703887 72.561704 
L 201.168124 72.761203 
L 201.400243 73.023878 
L 201.632362 73.206756 
L 201.748421 73.233349 
L 201.864481 73.432857 
L 201.98054 73.353051 
L 203.025074 74.653135 
L 203.257193 74.629863 
L 204.185668 75.85347 
L 205.57838 77.496028 
L 205.810499 77.386298 
L 206.158677 76.478571 
L 206.622914 73.648979 
L 208.247745 59.421231 
L 208.828042 55.683911 
L 209.640458 52.205946 
L 209.988636 50.58001 
L 210.801051 47.205116 
L 210.917111 47.032219 
L 211.265289 46.270786 
L 211.497408 46.240863 
L 211.961645 47.647348 
L 212.193764 48.761225 
L 213.354357 57.622397 
L 214.979188 65.964869 
L 215.211307 66.563367 
L 215.559485 67.753722 
L 217.068257 71.643996 
L 217.648554 72.874254 
L 217.764613 72.977324 
L 217.996732 73.369681 
L 218.577029 74.004753 
L 218.925207 74.310662 
L 219.505503 74.759536 
L 219.621563 74.456957 
L 219.853682 74.90916 
L 220.20186 74.889208 
L 220.317919 74.80609 
L 220.550038 74.985637 
L 221.130334 75.085387 
L 221.478513 75.111989 
L 221.594572 75.308168 
L 221.826691 75.188466 
L 222.058809 75.211739 
L 222.174869 75.491036 
L 222.406987 75.228361 
L 222.523047 75.437841 
L 222.639106 75.334761 
L 222.871225 75.653962 
L 223.103344 75.547562 
L 223.219403 75.813567 
L 223.335462 75.767013 
L 224.147878 76.385472 
L 224.263937 76.229196 
L 224.496056 76.551718 
L 224.960293 76.910822 
L 225.076353 76.957368 
L 225.308471 77.535923 
L 225.424531 77.51265 
L 225.772709 77.941581 
L 225.888768 77.988126 
L 226.120887 78.214228 
L 226.469065 78.480233 
L 226.701184 78.613227 
L 227.049362 78.254131 
L 227.165421 77.998106 
L 227.629659 75.461113 
L 228.674193 65.858469 
L 229.486609 59.012252 
L 229.950846 56.322313 
L 230.99538 51.786996 
L 231.343558 50.141108 
L 232.039914 47.481092 
L 232.504152 46.693066 
L 232.736271 46.643191 
L 233.084449 47.274942 
L 233.432627 49.02058 
L 235.289577 62.327299 
L 235.753814 64.571685 
L 236.101992 66.194292 
L 236.218051 66.37384 
L 236.45017 67.112 
L 236.914408 68.4553 
L 237.262586 69.565856 
L 237.378645 69.672257 
L 238.30712 71.956546 
L 239.583773 73.772001 
L 239.699832 73.688882 
L 239.931951 74.151057 
L 240.04801 74.157708 
L 240.280129 74.377159 
L 240.396188 74.400431 
L 240.628307 74.583309 
L 240.860426 74.659786 
L 240.976485 74.782808 
L 241.092545 74.712982 
L 241.440723 74.872586 
L 241.556782 74.706331 
L 241.788901 74.90251 
L 242.02102 74.865936 
L 242.369198 74.995609 
L 242.717376 74.892538 
L 244.110088 75.604087 
L 244.226147 75.693865 
L 244.342207 75.547562 
L 244.574325 75.796945 
L 244.690385 75.786965 
L 244.922504 75.929939 
L 245.038563 75.989794 
L 245.154622 76.235847 
L 245.386741 76.242498 
L 245.61886 76.491872 
L 245.734919 76.531766 
L 246.083097 76.900842 
L 246.779453 77.652303 
L 247.011572 77.898348 
L 247.243691 78.041331 
L 247.35975 78.011399 
L 247.707928 78.300676 
L 247.940047 78.177654 
L 248.172166 77.705499 
L 248.520344 75.776993 
L 248.868522 72.93743 
L 250.377294 58.453648 
L 251.189709 53.622403 
L 251.653947 51.437863 
L 253.162718 44.265803 
L 253.626956 43.477777 
L 253.859074 43.471126 
L 254.207252 44.016429 
L 254.787549 47.560899 
L 256.180262 59.178507 
L 256.992677 63.896701 
L 257.689033 66.417064 
L 258.26933 67.713827 
L 258.501449 68.36553 
L 258.849627 69.19013 
L 260.706577 72.265775 
L 260.822636 72.372176 
L 260.938695 72.31565 
L 261.170814 72.688047 
L 261.286873 72.618229 
L 261.518992 72.93743 
L 261.86717 73.050481 
L 261.98323 73.166852 
L 262.099289 73.093705 
L 262.563526 73.299855 
L 263.840179 73.642328 
L 263.956239 73.482732 
L 264.420476 73.881731 
L 264.536536 73.775331 
L 264.768654 74.001433 
L 264.884714 73.988131 
L 265.000773 74.250807 
L 265.116832 74.134435 
L 265.348951 74.483559 
L 265.58107 74.540084 
L 265.697129 74.729612 
L 265.813189 74.689709 
L 265.929248 74.935762 
L 266.045307 74.879237 
L 266.509545 75.314818 
L 266.625604 75.338091 
L 266.741663 75.660613 
L 266.973782 75.614067 
L 267.670138 76.651468 
L 267.786198 76.634846 
L 268.366495 77.283219 
L 268.598613 77.449474 
L 268.946791 77.632352 
L 269.17891 77.259946 
L 269.527088 75.727118 
L 269.991326 72.009751 
L 271.500097 57.373023 
L 271.964335 54.230881 
L 272.544632 51.235043 
L 273.357047 46.400468 
L 274.169463 42.433717 
L 274.517641 41.396316 
L 274.749759 41.043863 
L 274.981878 40.944113 
L 275.330056 41.758742 
L 275.562175 42.722995 
L 275.794294 44.069624 
L 276.49065 50.546757 
L 277.419125 58.207603 
L 278.115481 62.390475 
L 278.927896 65.286564 
L 279.624253 66.988969 
L 280.204549 68.15938 
L 280.320609 68.245829 
L 280.552727 68.894202 
L 280.668787 69.010582 
L 281.016965 69.685558 
L 281.249084 69.881736 
L 281.597262 70.456962 
L 281.82938 70.579993 
L 282.061499 70.915816 
L 282.409677 71.298193 
L 282.525737 71.198443 
L 282.757855 71.457797 
L 282.989974 71.600771 
L 283.106033 71.670598 
L 283.222093 71.610743 
L 283.338152 71.743745 
L 283.454211 71.69055 
L 283.918449 71.946575 
L 284.498746 72.182648 
L 284.614805 72.116151 
L 284.730864 72.292378 
L 284.962983 72.232523 
L 285.079043 72.222551 
L 285.311161 72.471925 
L 285.427221 72.568354 
L 285.54328 72.478576 
L 287.28417 73.881731 
L 287.516289 74.18098 
L 287.748408 74.330605 
L 288.096586 74.722962 
L 288.328705 74.829362 
L 288.560823 75.161864 
L 289.373239 76.26577 
L 289.489298 76.428696 
L 289.605358 76.382142 
L 289.953536 76.817723 
L 290.185654 76.797772 
L 290.533833 76.15937 
L 291.114129 71.996449 
L 293.203198 51.82689 
L 293.667435 49.253332 
L 295.640444 38.357201 
L 295.988622 37.665648 
L 296.336801 37.801971 
L 296.568919 38.400434 
L 297.149216 41.728818 
L 297.613454 46.197639 
L 298.30981 53.522653 
L 298.890107 58.044678 
L 299.470403 61.422893 
L 299.934641 63.221726 
L 300.398878 64.471936 
L 300.514938 64.601609 
L 300.747056 65.103687 
L 301.443412 66.264118 
L 301.675531 66.779498 
L 302.139769 67.667274 
L 303.532481 69.432854 
L 304.809134 70.350562 
L 304.925193 70.217559 
L 305.157312 70.619888 
L 305.389431 70.493536 
L 305.621549 70.779492 
L 305.737609 70.719637 
L 305.969728 70.849319 
L 307.36244 71.667268 
L 307.594559 72.0031 
L 307.710618 72.046324 
L 307.826677 72.302349 
L 307.942737 72.229202 
L 308.406974 72.761203 
L 308.639093 73.013898 
L 308.755152 72.964023 
L 308.871212 73.289875 
L 308.987271 73.259952 
L 309.21939 73.629027 
L 309.335449 73.652309 
L 309.683627 74.164358 
L 310.031805 74.340585 
L 310.263924 74.709661 
L 310.496043 75.082066 
L 310.96028 75.94989 
L 311.076339 75.993115 
L 311.308458 76.239168 
L 311.656636 76.488542 
L 311.772696 76.428696 
L 312.004814 75.900015 
L 312.120874 75.634019 
L 312.585111 72.352224 
L 314.442061 53.682249 
L 315.138417 49.402957 
L 316.763248 40.242544 
L 317.111426 38.902582 
L 317.343545 38.460316 
L 317.575664 38.230902 
L 317.807782 38.260799 
L 318.27202 39.62412 
L 318.852317 44.053002 
L 319.432613 50.127807 
L 320.01291 55.597463 
L 320.477148 59.195129 
L 321.289563 63.211754 
L 322.914394 67.158545 
L 323.030454 67.254974 
L 323.262572 67.870103 
L 323.61075 68.441999 
L 323.958929 69.123633 
L 324.191047 69.356386 
L 324.423166 69.828532 
L 325.235582 70.709666 
L 325.58376 70.812737 
L 325.815878 71.042168 
L 326.047997 71.221716 
L 326.396175 71.324795 
L 326.512235 71.530945 
L 326.628294 71.451147 
L 326.860413 71.627374 
L 326.976472 71.703842 
L 327.092531 71.630695 
L 327.208591 72.059625 
L 327.32465 71.803592 
L 327.440709 71.996449 
L 327.556769 71.860117 
L 327.672828 72.072926 
L 327.788887 72.029693 
L 327.904947 72.20925 
L 328.021006 72.119472 
L 328.717362 72.528451 
L 328.833422 72.551723 
L 329.06554 72.821049 
L 329.413719 73.259952 
L 329.529778 73.200105 
L 329.877956 73.665601 
L 330.110075 73.708834 
L 330.342193 74.104503 
L 330.574312 74.307332 
L 331.03855 74.879237 
L 331.967024 76.05962 
L 332.199143 76.46194 
L 332.431262 76.604923 
L 332.77944 77.103671 
L 333.127618 77.333103 
L 333.243677 72.759242 
L 333.475796 73.145776 
L 333.823974 80.577391 
L 334.056093 69.767918 
L 334.172152 77.255893 
L 334.288212 75.869081 
L 334.404271 66.826688 
L 334.52033 75.816975 
L 334.752449 66.01511 
L 334.868509 72.439535 
L 334.984568 62.082275 
L 335.100627 69.922755 
L 335.332746 60.158223 
L 335.448805 67.455536 
L 335.564865 57.333747 
L 335.796983 64.258229 
L 335.913043 54.81824 
L 336.029102 56.267208 
L 336.145161 62.119772 
L 336.37728 50.499341 
L 336.49334 51.925245 
L 336.725458 58.591209 
L 336.957577 47.943965 
L 337.073636 49.089779 
L 337.305755 56.549992 
L 337.537874 45.06394 
L 337.886052 53.22628 
L 338.118171 42.542863 
L 338.23423 43.067298 
L 338.582408 51.264033 
L 338.698467 50.561558 
L 338.930586 46.171106 
L 339.046646 47.743672 
L 339.162705 46.84833 
L 339.394824 51.235827 
L 339.510883 49.584893 
L 339.743002 43.440758 
L 339.97512 53.204036 
L 340.09118 44.918125 
L 340.207239 54.893863 
L 340.323298 53.454395 
L 340.439358 48.968953 
L 340.555417 57.390351 
L 340.671477 55.641637 
L 340.787536 50.747782 
L 341.019655 61.589549 
L 341.135714 54.30884 
L 341.251773 56.118481 
L 341.367833 64.392635 
L 341.599951 55.858709 
L 341.83207 66.674326 
L 341.94813 66.349826 
L 342.180248 58.923049 
L 342.412367 68.74639 
L 342.528426 70.316019 
L 342.644486 68.485484 
L 342.876604 61.33084 
L 342.992664 62.260698 
L 343.340842 72.997738 
L 343.456901 72.636254 
L 343.805079 64.484818 
L 344.037198 67.605004 
L 344.385376 75.85028 
L 344.501435 75.034117 
L 344.733554 69.845903 
L 344.965673 66.843528 
L 345.081732 67.047446 
L 345.197792 67.955601 
L 345.313851 71.301819 
L 345.42991 70.722749 
L 345.778088 77.78528 
L 345.894148 78.520895 
L 346.010207 78.511987 
L 346.126267 73.515976 
L 346.706563 74.054628 
L 346.822623 74.008083 
L 346.938682 74.144407 
L 347.054741 74.091211 
L 347.40292 74.480238 
L 347.518979 74.423713 
L 347.635038 74.570008 
L 347.751098 74.264108 
L 347.983216 74.619882 
L 348.215335 74.656456 
L 348.447454 74.739584 
L 348.563513 74.779487 
L 348.679573 74.633184 
L 348.795632 74.772837 
L 349.027751 74.752885 
L 349.375929 74.875907 
L 349.491988 74.776158 
L 349.608047 74.932433 
L 349.724107 74.882558 
L 350.420463 75.301517 
L 350.536522 75.281565 
L 350.652582 75.457792 
L 350.768641 75.344741 
L 351.116819 75.630689 
L 351.232878 75.763692 
L 351.348938 75.700516 
L 351.464997 75.866763 
L 351.581057 75.790294 
L 351.697116 76.033018 
L 351.813175 75.936589 
L 352.045294 76.229196 
L 352.161353 76.282392 
L 352.393472 76.598272 
L 352.973769 77.113651 
L 353.205888 77.40625 
L 353.321947 77.479397 
L 353.554066 77.735422 
L 353.670125 77.961524 
L 353.786184 77.845152 
L 354.018303 78.23085 
L 354.250422 78.277404 
L 354.482541 78.450301 
L 354.714659 77.998106 
L 355.062837 76.325617 
L 355.527075 72.847652 
L 355.875253 69.655635 
L 357.267965 57.878422 
L 357.848262 55.012257 
L 358.19644 53.545925 
L 359.240974 48.817751 
L 359.589152 47.614095 
L 360.05339 46.53347 
L 360.169449 46.583345 
L 360.285509 46.510189 
L 360.401568 46.683095 
L 360.517627 46.62989 
L 361.097924 49.429559 
L 362.606696 60.478591 
L 363.767289 66.104514 
L 364.463646 68.299025 
L 364.695764 68.807753 
L 365.392121 70.663112 
L 366.088477 72.162696 
L 366.320595 72.535101 
L 366.552714 73.003927 
L 366.668773 72.987305 
L 367.829367 74.287381 
L 367.945426 74.327284 
L 368.177545 74.493531 
L 368.641783 74.656456 
L 368.757842 74.626533 
L 368.989961 74.80941 
L 369.570258 74.686388 
L 369.686317 74.869265 
L 369.918436 74.799439 
L 370.150554 74.91914 
L 370.498732 74.929112 
L 370.846911 75.205088 
L 370.96297 75.218389 
L 371.079029 75.00891 
L 371.195089 75.248313 
L 371.427207 75.301517 
L 371.775385 75.557542 
L 371.891445 75.464443 
L 372.007504 75.580815 
L 372.123563 75.484386 
L 372.355682 75.883393 
L 372.471742 75.873413 
L 372.935979 76.172671 
L 373.864454 76.914143 
L 373.980513 77.183469 
L 374.096573 77.140245 
L 375.141107 78.224199 
L 375.257166 78.167674 
L 375.373226 78.264103 
L 375.605344 77.964854 
L 375.721404 77.732101 
L 376.185641 75.045484 
L 376.649879 70.882563 
L 377.926532 58.713002 
L 378.622888 54.32731 
L 379.435303 50.550087 
L 380.0156 47.281593 
L 380.479837 45.160229 
L 380.595897 44.914185 
L 380.828016 44.096227 
L 381.176194 43.291578 
L 381.292253 43.481098 
L 381.408312 43.381348 
L 381.988609 45.037207 
L 382.220728 46.616589 
L 382.452847 48.422073 
L 382.917084 52.601624 
L 383.61344 58.314004 
L 384.425856 63.371351 
L 385.586449 67.248323 
L 385.702509 67.407919 
L 386.050687 68.448658 
L 386.282806 68.907503 
L 386.979162 70.403766 
L 388.371874 72.289048 
L 388.836111 72.741251 
L 388.952171 72.698027 
L 389.18429 72.894206 
L 389.300349 72.907498 
L 389.532468 73.100355 
L 389.764586 73.186804 
L 389.880646 73.180154 
L 389.996705 73.296525 
L 390.112764 73.183474 
L 390.577002 73.432857 
L 390.693061 73.402926 
L 390.92518 73.449479 
L 391.389417 73.545908 
L 391.621536 73.592453 
L 391.737596 73.592453 
L 391.969714 73.758709 
L 392.201833 73.798603 
L 393.362427 74.619882 
L 393.478486 74.895859 
L 393.594545 74.722962 
L 394.174842 75.447812 
L 395.103317 76.219216 
L 395.451495 76.791121 
L 396.37997 77.545903 
L 396.728148 77.29652 
L 397.192386 74.988958 
L 398.23692 65.057133 
L 398.933276 58.58665 
L 399.513573 54.284077 
L 400.09387 51.291568 
L 401.486582 43.494399 
L 401.83476 42.227567 
L 402.066879 41.559242 
L 402.415057 41.173536 
L 402.647175 41.293237 
L 402.995354 42.187672 
L 403.57565 46.021412 
L 404.388066 53.831882 
L 404.968363 58.314004 
L 405.896838 63.48108 
L 406.128956 64.312331 
L 406.593194 65.665611 
L 406.709253 65.698864 
L 408.101965 68.870929 
L 408.450144 69.376337 
L 408.798322 69.991458 
L 409.262559 70.543411 
L 409.494678 70.769512 
L 410.074975 71.26827 
L 410.423153 71.47442 
L 410.655271 71.720473 
L 410.771331 71.620723 
L 410.88739 71.853475 
L 411.003449 71.816893 
L 411.235568 71.936594 
L 411.351628 71.816893 
L 411.815865 72.092869 
L 412.74434 72.272426 
L 412.860399 72.531772 
L 412.976459 72.41207 
L 413.208577 72.614899 
L 413.324637 72.681396 
L 413.440696 72.890876 
L 413.556755 72.817728 
L 414.020993 73.293204 
L 414.137052 73.170173 
L 414.717349 73.639007 
L 416.226121 75.301517 
L 416.574299 75.873413 
L 416.922477 76.205915 
L 417.154596 76.548397 
L 417.502774 76.840996 
L 417.618833 76.98397 
L 418.19913 75.241662 
L 418.431249 73.642328 
L 419.127605 66.955724 
L 420.172139 56.072939 
L 420.868495 50.988989 
L 421.680911 46.270786 
L 422.493326 41.153584 
L 423.305742 38.07793 
L 423.537861 37.765362 
L 423.769979 37.848516 
L 424.002098 38.327304 
L 424.350276 39.600761 
L 424.698454 42.121167 
L 425.162692 46.749592 
L 425.975107 54.826058 
L 427.019641 61.639023 
L 427.483879 63.424555 
L 428.296294 65.253311 
L 428.528413 65.515987 
L 428.760532 66.081241 
L 429.224769 67.062125 
L 429.456888 67.354723 
L 430.153244 68.538427 
L 430.269303 68.488553 
L 430.617482 69.110332 
L 431.429897 69.765365 
L 431.545956 70.047983 
L 431.778075 69.984807 
L 431.894135 70.244161 
L 432.010194 70.097858 
L 432.474431 70.43701 
L 432.590491 70.380485 
L 432.70655 70.706336 
L 432.822609 70.533439 
L 433.054728 70.689714 
L 433.286847 70.74624 
L 433.402906 70.639839 
L 433.518966 70.762862 
L 433.635025 71.102014 
L 433.983203 71.145238 
L 434.331381 71.36469 
L 434.44744 71.564198 
L 434.5635 71.507672 
L 435.143797 71.966518 
L 435.375915 72.139423 
L 435.724093 72.698027 
L 435.840153 72.73128 
L 435.956212 72.634851 
L 436.30439 73.060452 
L 436.536509 73.363031 
L 437.929221 74.949064 
L 438.277399 75.587465 
L 438.393459 75.610738 
L 438.625577 75.993115 
L 438.741637 76.046319 
L 438.857696 76.292372 
L 438.973756 76.212566 
L 439.205874 76.415395 
L 439.437993 76.013066 
L 439.670112 75.11864 
L 440.134349 71.783649 
L 442.107358 51.783666 
L 442.687655 48.455326 
L 442.919774 47.271622 
L 444.544605 38.343953 
L 444.660664 38.041409 
L 444.776724 38.097891 
L 445.008842 37.678984 
L 445.47308 38.174333 
L 445.937317 40.49191 
L 446.169436 42.240868 
L 446.749733 48.169378 
L 447.678208 56.92747 
L 448.142445 60.395464 
L 449.303039 64.771185 
L 449.419098 64.890886 
L 449.767276 65.672262 
L 449.999395 65.928287 
L 450.231514 66.473598 
L 450.579692 67.284897 
L 451.043929 68.225877 
L 451.276048 68.505175 
L 451.624226 69.097031 
L 451.740285 69.170179 
L 452.320582 70.131111 
L 452.66876 70.407087 
L 452.78482 70.619888 
L 453.016938 70.586635 
L 453.945413 71.261619 
L 454.061473 71.235017 
L 454.177532 71.421215 
L 454.293591 71.348068 
L 454.757829 71.733774 
L 455.106007 71.823543 
L 455.338125 71.936594 
L 455.454185 71.870097 
L 456.38266 72.475246 
L 456.498719 72.535101 
L 456.614778 72.814399 
L 456.730838 72.791126 
L 457.195075 73.363031 
L 458.12355 74.197611 
L 458.471728 74.613232 
L 458.819906 75.148563 
L 460.560797 77.346395 
L 461.025034 77.323122 
L 461.605331 74.563357 
L 462.533806 66.397121 
L 463.346221 58.979007 
L 464.158637 54.071276 
L 465.203171 48.974026 
L 465.783468 46.593317 
L 466.131646 45.502712 
L 466.595884 44.894233 
L 466.711943 44.794483 
L 467.060121 45.712182 
L 467.29224 46.809447 
L 469.613427 63.248328 
L 470.425842 66.337266 
L 471.586436 69.71216 
L 471.702495 69.865114 
L 471.934614 70.393786 
L 472.863089 72.31565 
L 473.443386 72.964023 
L 473.559445 73.306505 
L 473.675505 73.130279 
L 473.791564 73.416227 
L 473.907623 73.34973 
L 474.255801 73.635678 
L 474.371861 73.718805 
L 474.48792 73.954879 
L 474.603979 73.785302 
L 474.952158 74.047978 
L 475.184276 74.044657 
L 475.532454 74.164358 
L 475.764573 74.270759 
L 475.880632 74.197611 
L 476.112751 74.317304 
L 476.228811 74.430355 
L 476.460929 74.340585 
L 476.693048 74.440335 
L 477.041226 74.453636 
L 477.157285 74.709661 
L 477.273345 74.629863 
L 477.389404 74.69636 
L 477.505463 74.929112 
L 477.737582 74.719632 
L 477.969701 74.939083 
L 478.20182 75.131941 
L 478.317879 75.205088 
L 478.433938 75.11531 
L 479.014235 75.703837 
L 479.130295 75.707167 
L 479.246354 75.587465 
L 479.478473 75.969842 
L 479.594532 76.16602 
L 479.710591 76.079572 
L 481.451482 78.014728 
L 481.567541 77.954873 
L 482.031779 78.23085 
L 482.263897 77.768675 
L 482.612075 76.378821 
L 483.772669 66.38049 
L 484.701144 58.659807 
L 485.049322 56.628221 
L 487.25445 47.161892 
L 487.486569 46.949091 
L 487.602628 46.636541 
L 487.718687 46.683095 
L 487.834747 46.437041 
L 488.298984 47.414596 
L 488.763222 50.307363 
L 490.388053 61.762045 
L 491.316527 66.224215 
L 492.825299 70.33394 
L 493.637715 72.10285 
L 494.682249 73.688882 
L 494.914368 73.702183 
L 495.146486 74.134435 
L 495.262546 74.07791 
L 495.610724 74.407082 
L 495.726783 74.38048 
L 495.958902 74.636513 
L 496.191021 74.589959 
L 496.30708 74.729612 
L 496.423139 74.689709 
L 496.655258 74.80941 
L 496.771317 74.656456 
L 496.887377 74.875907 
L 497.003436 74.80941 
L 497.119496 74.988958 
L 497.235555 74.80276 
L 497.583733 74.975666 
L 497.815852 74.855964 
L 498.04797 74.932433 
L 498.396149 75.035512 
L 498.628267 75.351392 
L 498.744327 75.205088 
L 499.092505 75.401267 
L 499.440683 75.557542 
L 499.90492 75.913317 
L 500.137039 75.903345 
L 500.369158 76.116146 
L 500.601276 76.348889 
L 501.065514 76.631525 
L 501.181573 76.68805 
L 501.76187 77.532602 
L 501.877929 77.496028 
L 502.458226 78.14108 
L 502.574286 78.081225 
L 502.806404 78.194276 
L 503.038523 78.161032 
L 503.154582 78.061274 
L 503.386701 77.339744 
L 503.61882 76.15937 
L 506.172126 54.43038 
L 506.752423 51.707189 
L 507.448779 48.309022 
L 507.913016 45.838534 
L 508.493313 44.006448 
L 508.841491 43.600799 
L 508.95755 43.663975 
L 509.07361 43.484427 
L 509.769966 46.593317 
L 510.350263 51.487738 
L 511.046619 57.482744 
L 511.510856 60.594963 
L 512.091153 63.793631 
L 512.439331 65.193465 
L 512.555391 65.442839 
L 512.787509 66.287391 
L 513.948103 69.09371 
L 514.064162 69.216732 
L 514.644459 70.712987 
L 514.760518 70.683064 
L 514.992637 71.178491 
L 515.456875 71.790299 
L 515.572934 71.823543 
L 515.805053 72.129452 
L 516.037171 72.471925 
L 516.26929 72.584976 
L 516.733528 72.947401 
L 516.849587 72.907498 
L 517.081706 73.03385 
L 517.197765 73.319807 
L 517.429884 73.163523 
L 517.545943 73.353051 
L 517.662002 73.233349 
L 517.778062 73.402926 
L 517.894121 73.313156 
L 518.242299 73.522627 
L 518.474418 73.512655 
L 518.706537 73.539258 
L 518.938655 73.592453 
L 519.054715 73.525957 
L 519.635012 73.934927 
L 520.099249 74.107833 
L 520.215308 74.287381 
L 520.331368 74.207583 
L 520.795605 74.626533 
L 520.911665 74.676408 
L 521.027724 74.905839 
L 521.143783 74.865936 
L 521.375902 75.161864 
L 521.491961 75.175165 
L 522.188318 75.919967 
L 522.536496 76.222546 
L 522.768614 76.451968 
L 522.884674 76.555048 
L 523.116792 76.980649 
L 523.929208 77.522622 
L 524.161327 77.506 
L 524.625564 75.876743 
L 525.32192 69.92829 
L 526.830692 55.936615 
L 527.294929 53.110353 
L 528.107345 48.890898 
L 529.267939 42.739625 
L 529.964295 41.319839 
L 530.428532 41.871792 
L 530.77671 43.654004 
L 531.008829 45.236707 
L 531.705185 51.806939 
L 532.169423 55.910013 
L 533.097898 61.968195 
L 533.446076 63.78698 
L 533.562135 63.949906 
L 533.910313 65.226709 
L 534.026372 65.346411 
L 534.258491 65.944917 
L 534.374551 66.071269 
L 534.722729 66.875918 
L 535.767263 69.120304 
L 536.2315 69.745413 
L 536.463619 70.107838 
L 536.579678 70.137761 
L 536.927856 70.606587 
L 537.392094 71.16519 
L 537.508153 71.082071 
L 537.856331 71.590791 
L 538.436628 71.743745 
L 538.552688 71.923293 
L 538.668747 71.803592 
L 538.784806 71.939924 
L 539.016925 71.90335 
L 539.249044 72.222551 
L 539.365103 72.042995 
L 539.713281 72.265775 
L 539.82934 72.179327 
L 540.061459 72.445323 
L 540.177519 72.372176 
L 540.409637 72.548402 
L 540.757815 72.62155 
L 540.989934 72.967353 
L 541.105993 72.910828 
L 541.454172 73.063782 
L 541.80235 73.34973 
L 541.918409 73.609076 
L 542.034468 73.512655 
L 542.382646 73.934927 
L 542.498706 73.958208 
L 542.962943 74.427034 
L 543.427181 74.786138 
L 544.239596 75.916646 
L 544.471715 76.322296 
L 544.703834 76.358869 
L 544.819893 76.764519 
L 544.935952 76.565019 
L 545.168071 76.681391 
L 545.40019 76.478571 
L 545.632309 75.760362 
L 545.980487 73.539258 
L 548.185614 52.501874 
L 548.765911 49.110358 
L 550.390742 39.670666 
L 550.622861 38.872598 
L 550.971039 38.161084 
L 551.087099 38.094578 
L 551.435277 38.290783 
L 551.667395 39.055467 
L 552.363751 43.806949 
L 553.988583 58.822732 
L 554.800998 63.082073 
L 555.149176 63.903352 
L 555.497354 64.747912 
L 556.077651 65.801943 
L 556.657948 66.952395 
L 557.702482 68.734606 
L 558.398838 69.419562 
L 558.630957 69.831861 
L 558.747016 69.831861 
L 558.863076 70.081236 
L 559.095194 70.031361 
L 559.211254 70.174335 
L 559.327313 70.137761 
L 559.559432 70.327289 
L 559.675491 70.400437 
L 559.791551 70.65314 
L 560.023669 70.456962 
L 560.371847 70.826038 
L 560.603966 70.826038 
L 560.952144 71.022216 
L 561.184263 71.012245 
L 561.416382 71.201764 
L 561.6485 71.48107 
L 561.76456 71.451147 
L 562.925153 72.435352 
L 563.041213 72.442002 
L 563.737569 73.136929 
L 563.969688 73.436178 
L 564.201806 73.625706 
L 564.433925 73.742078 
L 564.782103 74.300682 
L 565.014222 74.39046 
L 565.478459 75.168515 
L 565.826637 75.627369 
L 566.058756 75.880064 
L 566.290875 76.162691 
L 566.755112 76.398773 
L 566.871172 76.242498 
L 567.21935 74.829362 
L 567.799647 69.81191 
L 569.192359 54.965712 
L 570.004774 49.140281 
L 571.281427 41.579194 
L 571.745665 38.959064 
L 572.093843 37.735465 
L 572.325962 37.422898 
L 572.67414 37.263302 
L 573.022318 38.114539 
L 573.486555 40.445356 
L 573.950793 44.674782 
L 575.111386 56.634872 
L 576.039861 62.21757 
L 576.504099 63.903352 
L 576.736217 64.541762 
L 576.852277 64.654813 
L 577.200455 65.462791 
L 577.316514 65.599114 
L 577.548633 66.097863 
L 577.896811 66.683069 
L 578.12893 67.298198 
L 579.753761 69.785308 
L 580.450117 70.423709 
L 580.566176 70.410417 
L 580.798295 70.589965 
L 581.030414 70.699686 
L 582.423126 71.577499 
L 582.539185 71.461118 
L 582.771304 71.843495 
L 582.887364 71.966518 
L 583.003423 71.860117 
L 583.235542 72.066276 
L 583.351601 72.026373 
L 583.58372 72.322301 
L 584.860373 73.469431 
L 585.092491 73.848478 
L 585.208551 73.722126 
L 585.440669 73.944907 
L 586.253085 74.776158 
L 586.601263 75.344741 
L 586.717322 75.368014 
L 587.529738 76.767848 
L 587.645797 76.67142 
L 588.110035 77.2001 
L 588.226094 77.19012 
L 588.342153 77.3065 
L 588.574272 76.970669 
L 588.690332 76.847646 
L 589.154569 74.164358 
L 589.618806 70.237511 
L 591.011519 57.649 
L 591.823934 52.8643 
L 592.404231 49.948259 
L 593.448765 45.113684 
L 593.680884 44.601635 
L 593.913003 44.156082 
L 594.029062 43.896727 
L 594.261181 44.169374 
L 594.37724 44.189326 
L 594.725418 45.416263 
L 595.537834 51.793646 
L 596.118131 56.501869 
L 596.930546 61.825221 
L 598.09114 66.443666 
L 599.367793 69.974835 
L 599.715971 70.792794 
L 600.180208 71.520965 
L 600.644446 72.269096 
L 600.876565 72.641502 
L 600.992624 72.83103 
L 601.108683 72.744572 
L 601.456861 73.256631 
L 601.68898 73.306505 
L 602.037158 73.55255 
L 602.385336 73.625706 
L 602.501396 73.529278 
L 602.733514 73.805254 
L 602.849574 73.815234 
L 602.965633 73.988131 
L 603.081692 73.878402 
L 603.197752 74.028035 
L 603.42987 73.86843 
L 603.54593 74.224205 
L 603.661989 74.220884 
L 603.894108 74.101182 
L 604.010167 74.227534 
L 604.242286 74.18431 
L 605.634998 74.712982 
L 605.867117 75.00891 
L 605.983176 74.942413 
L 606.215295 75.105339 
L 606.447414 75.21506 
L 607.027711 75.763692 
L 607.14377 75.730439 
L 607.375889 76.079572 
L 607.491948 76.026367 
L 607.608007 76.126117 
L 607.840126 76.418716 
L 608.420423 77.193449 
L 609.348898 78.074575 
L 609.464957 78.087876 
L 609.697076 77.865104 
L 609.929195 77.266597 
L 610.393432 74.70301 
L 611.205848 67.464444 
L 612.250382 58.663128 
L 613.062797 54.596636 
L 613.643094 52.172693 
L 613.991272 50.480261 
L 614.571569 47.933296 
L 614.919747 46.965722 
L 615.035807 46.915838 
L 615.267925 46.636541 
L 615.383985 46.563393 
L 615.500044 46.842691 
L 615.616103 46.796146 
L 615.848222 47.517675 
L 616.31246 50.397133 
L 617.356994 58.343927 
L 618.517587 64.751233 
L 619.097884 66.786148 
L 619.678181 68.501854 
L 619.79424 68.757879 
L 619.9103 69.39628 
L 620.026359 69.346405 
L 620.722715 71.258289 
L 620.838775 71.37134 
L 621.186953 72.136094 
L 621.535131 72.850972 
L 621.76725 73.027199 
L 621.999368 73.406255 
L 622.231487 73.66228 
L 622.347546 73.875081 
L 622.463606 73.848478 
L 623.043902 74.460286 
L 623.276021 74.460286 
L 623.392081 74.693039 
L 623.50814 74.606581 
L 623.740259 74.786138 
L 623.856318 74.659786 
L 623.972377 74.91914 
L 624.204496 74.786138 
L 624.552674 74.942413 
L 624.668734 74.736263 
L 624.900852 74.949064 
L 625.132971 74.972336 
L 625.24903 74.796109 
L 625.481149 74.972336 
L 625.597208 75.085387 
L 625.713268 75.038842 
L 625.829327 75.171836 
L 625.945387 75.088717 
L 626.177505 75.10866 
L 626.641743 75.314818 
L 626.989921 75.567513 
L 628.614752 76.618224 
L 628.96293 77.0937 
L 629.078989 77.123623 
L 629.311108 77.592448 
L 629.427167 77.509321 
L 629.659286 77.904999 
L 630.471702 78.290705 
L 630.81988 77.466096 
L 631.168058 75.723789 
L 631.748355 70.566692 
L 633.489245 55.424565 
L 634.649839 49.778683 
L 634.998017 47.803623 
L 635.694373 44.767881 
L 636.27467 43.610779 
L 636.390729 43.590828 
L 636.738907 44.02973 
L 637.087085 45.522663 
L 637.551323 48.964054 
L 639.060094 61.003942 
L 639.640391 64.265786 
L 641.497341 69.39628 
L 641.6134 69.575837 
L 641.845519 70.097858 
L 642.193697 70.703015 
L 642.541875 71.324795 
L 643.354291 72.408749 
L 643.47035 72.328951 
L 643.934588 72.910828 
L 644.166706 73.023878 
L 644.747003 73.146901 
L 644.863062 73.14025 
L 644.979122 73.313156 
L 645.21124 73.286554 
L 645.559419 73.416227 
L 645.791537 73.412906 
L 646.023656 73.499354 
L 646.139715 73.442829 
L 646.371834 73.648979 
L 646.487893 73.582482 
L 646.836072 73.738757 
L 646.952131 73.685553 
L 647.18425 73.851808 
L 647.416368 74.018055 
L 647.880606 74.323954 
L 647.996665 74.264108 
L 648.344843 74.736263 
L 648.576962 74.842663 
L 648.809081 75.052134 
L 648.92514 75.075415 
L 649.157259 75.294867 
L 649.273318 75.341412 
L 649.621496 75.813567 
L 649.853615 76.102844 
L 650.433912 76.67807 
L 650.898149 77.29985 
L 651.130268 77.382977 
L 651.478446 77.572497 
L 651.826624 76.934095 
L 652.058743 75.933268 
L 652.406921 73.33975 
L 653.335396 64.19928 
L 654.147811 56.82107 
L 654.612049 53.954905 
L 655.308405 50.323985 
L 656.23688 45.047179 
L 656.701117 42.88925 
L 657.165355 41.612438 
L 657.281414 41.605787 
L 657.397473 41.452842 
L 657.745652 41.715517 
L 658.209889 43.640702 
L 658.790186 48.378849 
L 659.718661 56.827721 
L 660.415017 61.512671 
L 661.111373 64.61158 
L 661.923789 66.676418 
L 662.039848 66.709671 
L 662.388026 67.717148 
L 662.504085 67.853472 
L 662.852263 68.604933 
L 663.43256 69.532612 
L 664.593154 71.005594 
L 664.709213 71.012245 
L 665.057391 71.411244 
L 665.173451 71.414564 
L 665.28951 71.634016 
L 665.405569 71.517644 
L 665.985866 71.813572 
L 666.101926 71.783649 
L 666.334044 71.996449 
L 666.450104 72.023043 
L 666.566163 71.906671 
L 666.682222 72.119472 
L 666.914341 72.059625 
L 667.842816 72.435352 
L 667.958875 72.332272 
L 668.307053 72.634851 
L 669.00341 73.3464 
L 669.119469 73.180154 
L 669.351588 73.489383 
L 669.583706 73.705504 
L 670.628241 74.676408 
L 670.7443 74.676408 
L 671.092478 75.314818 
L 671.208537 75.33144 
L 671.556716 75.727118 
L 671.788834 76.239168 
L 672.020953 76.345568 
L 672.253072 76.631525 
L 672.369131 76.451968 
L 672.60125 76.684721 
L 672.949428 76.019717 
L 673.297606 74.161029 
L 675.618793 52.269122 
L 676.19909 48.774527 
L 676.431209 47.467791 
L 677.707862 39.986546 
L 678.404218 38.144436 
L 678.636337 38.091266 
L 678.984515 38.799468 
L 679.564811 42.131147 
L 681.421761 59.105351 
L 682.350236 63.394632 
L 682.814474 64.328953 
L 683.162652 65.279914 
L 683.278711 65.379663 
L 684.323245 67.494376 
L 684.439305 67.594126 
L 684.671423 68.172681 
L 684.903542 68.35555 
L 685.367779 69.050486 
L 685.483839 69.123633 
L 685.599898 69.562536 
L 685.715958 69.509331 
L 686.180195 69.885057 
L 686.296254 69.91831 
L 686.528373 70.327289 
L 686.644432 70.177665 
L 687.224729 70.516817 
L 687.688967 70.779492 
L 687.805026 70.729618 
L 688.037145 70.845989 
L 688.153204 70.875913 
L 688.269264 71.048818 
L 688.501382 71.028867 
L 688.84956 71.411244 
L 689.081679 71.324795 
L 689.197738 71.577499 
L 689.429857 71.604092 
L 689.545916 71.816893 
L 689.661976 71.737095 
L 689.894095 72.255795 
L 690.010154 72.136094 
L 690.358332 72.5218 
L 690.590451 72.528451 
L 690.938629 73.057122 
L 691.170748 73.14358 
L 691.751044 73.934927 
L 691.867104 73.895032 
L 691.983163 74.19096 
L 692.099222 74.127784 
L 692.331341 74.503511 
L 692.447401 74.513482 
L 692.911638 75.304838 
L 693.143757 75.544241 
L 693.724053 76.342247 
L 693.956172 76.328946 
L 694.072232 76.422045 
L 694.42041 75.730439 
L 694.884647 72.751223 
L 696.045241 60.185984 
L 696.625538 54.134452 
L 697.321894 49.060483 
L 698.250369 43.693898 
L 698.946725 39.564239 
L 699.527022 37.153563 
L 699.643081 37.203421 
L 699.8752 36.751304 
L 700.107318 36.767865 
L 700.223378 36.907501 
L 700.803675 39.693938 
L 701.267912 43.833551 
L 702.776684 58.769528 
L 703.240921 61.432864 
L 703.821218 63.866778 
L 703.937277 64.023053 
L 704.285455 64.897537 
L 706.606643 69.19013 
L 706.722702 69.213412 
L 707.302999 69.968185 
L 707.419058 69.895037 
L 707.651177 70.204267 
L 707.767236 70.091216 
L 707.999355 70.370513 
L 708.231474 70.533439 
L 708.463592 70.669763 
L 708.81177 70.849319 
L 709.043889 71.028867 
L 709.276008 70.915816 
L 709.508127 71.138588 
L 709.740245 71.37134 
L 709.856305 71.354718 
L 710.088423 71.577499 
L 710.204483 71.534266 
L 710.552661 71.929944 
L 710.66872 71.926623 
L 710.900839 72.106171 
L 711.016898 72.036344 
L 711.132958 72.355545 
L 711.249017 72.299019 
L 711.365076 72.558374 
L 711.481136 72.531772 
L 711.713254 73.107006 
L 711.829314 72.884225 
L 712.293551 73.585803 
L 712.409611 73.549229 
L 713.338086 74.593289 
L 713.454145 74.882558 
L 713.570204 74.789459 
L 715.078976 76.840996 
L 715.311095 76.970669 
L 715.543213 77.116972 
L 715.775332 77.153546 
L 716.007451 76.744567 
L 716.23957 76.003095 
L 716.819866 71.643996 
L 717.864401 61.70219 
L 718.444697 56.761215 
L 720.301647 46.669794 
L 720.765885 44.76456 
L 720.998003 43.777026 
L 721.114063 43.703878 
L 721.462241 43.171877 
L 721.5783 43.205121 
L 721.810419 43.61743 
L 722.042538 44.229229 
L 723.203131 53.502701 
L 723.783428 58.147748 
L 725.17614 65.432859 
L 725.872497 67.427871 
L 727.03309 70.353891 
L 727.729446 71.647317 
L 727.845506 71.703842 
L 728.541862 72.634851 
L 728.773981 72.964023 
L 728.89004 72.910828 
L 729.122159 73.193455 
L 729.470337 73.180154 
L 729.818515 73.479403 
L 729.934574 73.406255 
L 730.050634 73.579152 
L 730.282752 73.542579 
L 730.979108 73.888382 
L 731.211227 73.818555 
L 731.327287 73.901683 
L 731.443346 73.788632 
L 731.791524 74.087881 
L 732.719999 74.357207 
L 732.952118 74.570008 
L 733.068177 74.420383 
L 733.300296 74.829362 
L 733.416355 74.633184 
L 733.648474 75.121961 
L 733.764533 74.975666 
L 733.880592 75.195117 
L 734.112711 75.191787 
L 734.460889 75.643991 
L 735.505424 76.634846 
L 735.969661 77.286549 
L 736.317839 77.579147 
L 736.666017 77.991456 
L 736.898136 77.991456 
L 737.130255 77.865104 
L 737.710551 75.235012 
L 738.058729 72.505178 
L 739.683561 58.513503 
L 740.263857 55.421236 
L 740.728095 53.519323 
L 741.308392 50.99564 
L 741.65657 49.466133 
L 742.120807 47.720495 
L 742.468985 46.965722 
L 742.701104 46.832719 
L 742.817163 46.772864 
L 743.049282 47.268292 
L 743.39746 48.5983 
L 743.745638 50.975688 
L 745.718647 63.896701 
L 746.298944 66.290721 
L 746.9953 68.245829 
L 747.343478 69.153556 
L 748.271953 71.57084 
L 749.316488 73.35638 
L 749.548606 73.702183 
L 749.664666 73.971509 
L 749.780725 73.848478 
L 750.361022 74.566687 
L 750.477081 74.446985 
L 750.941319 74.70301 
L 751.173437 74.689709 
L 751.289497 74.792788 
L 751.405556 75.048813 
L 751.637675 74.945734 
L 751.985853 74.849314 
L 752.45009 75.052134 
L 752.682209 74.998938 
L 752.798268 74.91249 
L 753.030387 75.11864 
L 753.378565 75.248313 
L 753.494625 75.22171 
L 753.842803 75.454463 
L 754.190981 75.507667 
L 754.30704 75.733769 
L 754.423099 75.670593 
L 754.539159 75.893365 
L 754.655218 75.850141 
L 754.887337 75.983143 
L 755.003396 75.969842 
L 755.119456 76.202594 
L 755.351574 76.15937 
L 755.699752 76.498522 
L 755.815812 76.501843 
L 756.04793 76.774499 
L 756.860346 77.602429 
L 756.976405 77.898348 
L 757.092465 77.861774 
L 757.90488 78.403756 
L 758.136999 77.954873 
L 758.369118 77.220052 
L 758.833355 73.97816 
L 760.806364 56.205941 
L 762.779373 46.307369 
L 763.35967 44.378854 
L 763.47573 44.305706 
L 763.707848 43.880105 
L 763.823908 43.83023 
L 764.172086 44.335629 
L 764.404205 45.206783 
L 764.752383 47.245019 
L 765.912976 57.289895 
L 767.421748 65.539259 
L 768.93052 69.509331 
L 769.046579 69.652314 
L 769.278698 70.23419 
L 769.394757 70.313988 
L 769.975054 71.461118 
L 770.091113 71.47442 
L 771.019588 72.757873 
L 771.135647 72.674754 
L 771.367766 73.03718 
L 771.599885 73.013898 
L 771.715944 73.166852 
L 771.832004 73.083725 
L 771.948063 73.193455 
L 772.064122 73.100355 
L 772.296241 73.406255 
L 772.992597 73.65895 
L 773.108657 73.639007 
L 773.224716 73.449479 
L 773.456835 73.605755 
L 774.153191 73.828527 
L 774.26925 73.948228 
L 774.38531 73.821885 
L 774.617428 74.047978 
L 774.849547 74.124455 
L 775.197725 74.460286 
L 775.545903 74.533434 
L 775.661963 74.905839 
L 775.894081 74.865936 
L 776.358319 75.261614 
L 776.474378 75.294867 
L 776.706497 75.580815 
L 776.822556 75.53759 
L 777.286794 76.242498 
L 777.518912 76.385472 
L 778.563447 77.429523 
L 778.679506 77.399599 
L 778.911625 77.559195 
L 779.143743 77.479397 
L 779.375862 76.648147 
L 779.72404 74.643164 
L 780.768574 64.465285 
L 781.464931 57.914996 
L 783.553999 45.811941 
L 784.250355 42.606623 
L 784.830652 41.642361 
L 785.062771 41.718838 
L 785.410949 42.693071 
L 785.875186 45.210113 
L 787.151839 57.023899 
L 787.732136 60.890891 
L 788.428492 64.422061 
L 789.008789 66.031366 
L 789.240908 66.556717 
L 790.865739 69.81191 
L 791.329976 70.284065 
L 791.562095 70.609916 
L 791.794214 70.845989 
L 791.910273 70.812737 
L 792.258451 71.424545 
L 792.374511 71.27159 
L 792.49057 71.324795 
L 792.722689 71.627374 
L 792.838748 71.547567 
L 792.954807 71.826873 
L 793.186926 71.783649 
L 793.535104 71.78697 
L 793.651164 71.979819 
L 793.767223 71.906671 
L 793.999342 72.059625 
L 794.115401 71.916643 
L 794.34752 72.235852 
L 794.695698 72.235852 
L 795.624173 72.545073 
L 795.740232 72.817728 
L 795.972351 72.844331 
L 796.08841 72.977324 
L 796.204469 72.917478 
L 796.436588 73.266602 
L 796.552648 73.206756 
L 797.597182 74.330605 
L 797.597182 74.330605 
" clip-path="url(#pda2c476802)" style="fill: none; stroke: #1f77b4; stroke-width: 1.5; stroke-linecap: square"/>
   </g>
   <g id="patch_4">
    <path d="M 115.29 82.768696 
L 115.29 34.56 
" style="fill: none; stroke: #000000; stroke-width: 2.5; stroke-linejoin: miter; stroke-linecap: square"/>
   </g>
   <g id="patch_5">
    <path d="M 115.29 82.768696 
L 830.088 82.768696 
" style="fill: none; stroke: #000000; stroke-width: 2.5; stroke-linejoin: miter; stroke-linecap: square"/>
   </g>
  </g>
  <g id="axes_2">
   <g id="patch_6">
    <path d="M 115.29 140.61913 
L 830.088 140.61913 
L 830.088 92.410435 
L 115.29 92.410435 
z
" style="fill: #ffffff"/>
   </g>
   <g id="patch_7">
    <path d="M 333.243677 140.61913 
L 333.243677 92.410435 
L 346.126267 92.410435 
L 346.126267 140.61913 
z
" clip-path="url(#p90b492d37f)" style="fill: #ff7f50; stroke: #ff7f50; stroke-linejoin: miter"/>
   </g>
   <g id="matplotlib.axis_3"/>
   <g id="matplotlib.axis_4">
    <g id="text_2">
     <!-- SPE -->
     <g transform="translate(108.378438 129.602595)rotate(-90)scale(0.14 -0.14)">
      <defs>
       <path id="DejaVuSans-53" d="M 3425 4513 
L 3425 3897 
Q 3066 4069 2747 4153 
Q 2428 4238 2131 4238 
Q 1616 4238 1336 4038 
Q 1056 3838 1056 3469 
Q 1056 3159 1242 3001 
Q 1428 2844 1947 2747 
L 2328 2669 
Q 3034 2534 3370 2195 
Q 3706 1856 3706 1288 
Q 3706 609 3251 259 
Q 2797 -91 1919 -91 
Q 1588 -91 1214 -16 
Q 841 59 441 206 
L 441 856 
Q 825 641 1194 531 
Q 1563 422 1919 422 
Q 2459 422 2753 634 
Q 3047 847 3047 1241 
Q 3047 1584 2836 1778 
Q 2625 1972 2144 2069 
L 1759 2144 
Q 1053 2284 737 2584 
Q 422 2884 422 3419 
Q 422 4038 858 4394 
Q 1294 4750 2059 4750 
Q 2388 4750 2728 4690 
Q 3069 4631 3425 4513 
z
" transform="scale(0.015625)"/>
       <path id="DejaVuSans-50" d="M 1259 4147 
L 1259 2394 
L 2053 2394 
Q 2494 2394 2734 2622 
Q 2975 2850 2975 3272 
Q 2975 3691 2734 3919 
Q 2494 4147 2053 4147 
L 1259 4147 
z
M 628 4666 
L 2053 4666 
Q 2838 4666 3239 4311 
Q 3641 3956 3641 3272 
Q 3641 2581 3239 2228 
Q 2838 1875 2053 1875 
L 1259 1875 
L 1259 0 
L 628 0 
L 628 4666 
z
" transform="scale(0.015625)"/>
       <path id="DejaVuSans-45" d="M 628 4666 
L 3578 4666 
L 3578 4134 
L 1259 4134 
L 1259 2753 
L 3481 2753 
L 3481 2222 
L 1259 2222 
L 1259 531 
L 3634 531 
L 3634 0 
L 628 0 
L 628 4666 
z
" transform="scale(0.015625)"/>
      </defs>
      <use xlink:href="#DejaVuSans-53"/>
      <use xlink:href="#DejaVuSans-50" x="63.476562"/>
      <use xlink:href="#DejaVuSans-45" x="123.779297"/>
     </g>
    </g>
   </g>
   <g id="line2d_2">
    <path d="M 147.780818 140.618588 
L 186.080407 140.618907 
L 235.289577 140.618965 
L 235.405636 140.545038 
L 235.637755 140.619125 
L 237.378645 140.587442 
L 237.958942 140.618159 
L 250.029115 140.616904 
L 251.421828 140.615046 
L 254.323312 140.614262 
L 254.903609 140.618912 
L 258.501449 140.5767 
L 258.849627 140.610044 
L 261.402933 140.615557 
L 261.98323 140.618237 
L 266.393485 140.617359 
L 275.446116 140.619123 
L 277.070947 140.615364 
L 285.195102 140.617778 
L 286.239636 140.619117 
L 288.212645 140.619129 
L 300.863116 140.612109 
L 303.416422 140.618749 
L 307.014262 140.616198 
L 311.076339 140.615158 
L 312.469052 140.595955 
L 315.950833 140.619119 
L 316.531129 140.597058 
L 317.227486 140.615862 
L 324.307107 140.615048 
L 324.887403 140.614053 
L 327.208591 140.609253 
L 327.440709 140.590324 
L 327.904947 140.617813 
L 331.154609 140.619098 
L 333.243677 140.609754 
L 333.359737 132.187839 
L 333.475796 140.604245 
L 333.591856 138.929279 
L 333.823974 125.243656 
L 333.940034 139.591537 
L 334.172152 92.410435 
L 334.404271 139.465125 
L 334.63639 107.067793 
L 334.868509 139.007443 
L 335.100627 116.752449 
L 335.216687 123.434523 
L 335.332746 138.644415 
L 335.448805 136.207174 
L 335.564865 117.657922 
L 335.680924 120.942373 
L 335.796983 137.348681 
L 336.029102 121.072773 
L 336.145161 139.929388 
L 336.261221 120.313207 
L 336.37728 136.902775 
L 336.49334 120.642003 
L 336.609399 140.617446 
L 336.725458 100.79273 
L 336.841518 132.559025 
L 337.073636 117.795605 
L 337.189696 140.575702 
L 337.305755 105.415965 
L 337.421814 128.229881 
L 337.537874 111.000424 
L 337.653933 114.059037 
L 337.769993 136.218447 
L 337.886052 103.718003 
L 338.002111 136.19611 
L 338.23423 104.70546 
L 338.350289 140.577772 
L 338.466349 109.383355 
L 338.698467 139.268082 
L 338.930586 127.845532 
L 339.278764 139.790481 
L 339.394824 136.318131 
L 339.626942 138.925896 
L 339.743002 126.98839 
L 339.859061 136.877834 
L 339.97512 112.44125 
L 340.09118 127.860975 
L 340.207239 106.473948 
L 340.439358 140.617236 
L 340.555417 126.085302 
L 340.671477 125.987474 
L 340.787536 140.136321 
L 340.903595 125.534966 
L 341.019655 126.844384 
L 341.135714 131.431118 
L 341.251773 120.633733 
L 341.367833 140.197353 
L 341.483892 116.874451 
L 341.599951 139.554251 
L 341.716011 123.466216 
L 341.83207 135.376116 
L 341.94813 125.810135 
L 342.064189 140.445797 
L 342.180248 115.526228 
L 342.296308 134.687594 
L 342.412367 120.045582 
L 342.644486 137.99146 
L 342.760545 134.306666 
L 342.876604 104.831641 
L 343.108723 139.559125 
L 343.340842 122.489818 
L 343.572961 140.235878 
L 343.68902 127.316563 
L 344.037198 140.042243 
L 344.153257 134.673836 
L 344.269317 120.510691 
L 344.501435 137.252833 
L 344.617495 137.7702 
L 344.733554 120.334676 
L 344.965673 139.43763 
L 345.081732 140.615272 
L 345.313851 135.251132 
L 345.42991 128.046685 
L 345.54597 140.134517 
L 345.662029 136.295348 
L 345.894148 140.362097 
L 346.010207 139.686961 
L 346.126267 135.178136 
L 346.242326 107.328593 
L 346.474445 140.197402 
L 346.706563 137.967624 
L 346.822623 138.512321 
L 347.054741 140.136353 
L 347.40292 140.573349 
L 347.518979 140.420225 
L 347.751098 140.514032 
L 348.215335 140.583313 
L 348.563513 140.50869 
L 348.911691 140.600537 
L 350.536522 140.617969 
L 352.74165 140.614967 
L 355.411015 140.61302 
L 355.527075 140.540861 
L 355.759194 140.609048 
L 357.616143 140.618577 
L 361.91034 140.616501 
L 367.133011 140.619109 
L 367.597248 140.618278 
L 382.220728 140.619117 
L 382.452847 140.618605 
L 383.497381 140.611059 
L 385.586449 140.617958 
L 395.103317 140.612365 
L 396.844207 140.61656 
L 397.772682 140.616743 
L 417.734892 140.616087 
L 418.083071 140.603455 
L 419.011545 140.61887 
L 424.350276 140.618361 
L 430.385363 140.600118 
L 431.313838 140.616609 
L 435.956212 140.614771 
L 436.30439 140.619056 
L 452.552701 140.618609 
L 467.988596 140.615573 
L 468.220715 140.610614 
L 469.729486 140.617796 
L 479.826651 140.610148 
L 481.219363 140.61132 
L 484.817203 140.618 
L 485.513559 140.618045 
L 488.647162 140.609489 
L 490.039875 140.608256 
L 497.003436 140.603807 
L 497.931911 140.617862 
L 501.76187 140.595207 
L 502.342167 140.615386 
L 507.448779 140.61904 
L 507.913016 140.616726 
L 513.483865 140.618576 
L 543.659299 140.618711 
L 544.239596 140.618868 
L 720.417707 140.618964 
L 775.661963 140.617874 
L 776.010141 140.610093 
L 777.286794 140.617092 
L 778.215268 140.612971 
L 784.482474 140.613684 
L 787.03578 140.618859 
L 789.008789 140.607425 
L 790.285442 140.61855 
L 793.070867 140.60722 
L 795.508113 140.619085 
L 797.597182 140.618817 
L 797.597182 140.618817 
" clip-path="url(#p90b492d37f)" style="fill: none; stroke: #1f77b4; stroke-width: 1.5; stroke-linecap: square"/>
   </g>
   <g id="patch_8">
    <path d="M 115.29 140.61913 
L 115.29 92.410435 
" style="fill: none; stroke: #000000; stroke-width: 2.5; stroke-linejoin: miter; stroke-linecap: square"/>
   </g>
   <g id="patch_9">
    <path d="M 115.29 140.61913 
L 830.088 140.61913 
" style="fill: none; stroke: #000000; stroke-width: 2.5; stroke-linejoin: miter; stroke-linecap: square"/>
   </g>
  </g>
  <g id="axes_3">
   <g id="patch_10">
    <path d="M 115.29 198.469565 
L 830.088 198.469565 
L 830.088 150.26087 
L 115.29 150.26087 
z
" style="fill: #ffffff"/>
   </g>
   <g id="patch_11">
    <path d="M 333.243677 198.469565 
L 333.243677 150.26087 
L 346.126267 150.26087 
L 346.126267 198.469565 
z
" clip-path="url(#pad68df0dd6)" style="fill: #ff7f50; stroke: #ff7f50; stroke-linejoin: miter"/>
   </g>
   <g id="matplotlib.axis_5"/>
   <g id="matplotlib.axis_6">
    <g id="text_3">
     <!-- TRAKR -->
     <g transform="translate(108.378438 197.467405)rotate(-90)scale(0.14 -0.14)">
      <defs>
       <path id="DejaVuSans-54" d="M -19 4666 
L 3928 4666 
L 3928 4134 
L 2272 4134 
L 2272 0 
L 1638 0 
L 1638 4134 
L -19 4134 
L -19 4666 
z
" transform="scale(0.015625)"/>
       <path id="DejaVuSans-52" d="M 2841 2188 
Q 3044 2119 3236 1894 
Q 3428 1669 3622 1275 
L 4263 0 
L 3584 0 
L 2988 1197 
Q 2756 1666 2539 1819 
Q 2322 1972 1947 1972 
L 1259 1972 
L 1259 0 
L 628 0 
L 628 4666 
L 2053 4666 
Q 2853 4666 3247 4331 
Q 3641 3997 3641 3322 
Q 3641 2881 3436 2590 
Q 3231 2300 2841 2188 
z
M 1259 4147 
L 1259 2491 
L 2053 2491 
Q 2509 2491 2742 2702 
Q 2975 2913 2975 3322 
Q 2975 3731 2742 3939 
Q 2509 4147 2053 4147 
L 1259 4147 
z
" transform="scale(0.015625)"/>
       <path id="DejaVuSans-41" d="M 2188 4044 
L 1331 1722 
L 3047 1722 
L 2188 4044 
z
M 1831 4666 
L 2547 4666 
L 4325 0 
L 3669 0 
L 3244 1197 
L 1141 1197 
L 716 0 
L 50 0 
L 1831 4666 
z
" transform="scale(0.015625)"/>
       <path id="DejaVuSans-4b" d="M 628 4666 
L 1259 4666 
L 1259 2694 
L 3353 4666 
L 4166 4666 
L 1850 2491 
L 4331 0 
L 3500 0 
L 1259 2247 
L 1259 0 
L 628 0 
L 628 4666 
z
" transform="scale(0.015625)"/>
      </defs>
      <use xlink:href="#DejaVuSans-54"/>
      <use xlink:href="#DejaVuSans-52" x="61.083984"/>
      <use xlink:href="#DejaVuSans-41" x="126.566406"/>
      <use xlink:href="#DejaVuSans-4b" x="194.974609"/>
      <use xlink:href="#DejaVuSans-52" x="260.550781"/>
     </g>
    </g>
   </g>
   <g id="line2d_3">
    <path d="M 147.780818 198.469565 
L 193.972444 198.468026 
L 203.257193 198.467823 
L 218.693088 198.469495 
L 255.716024 198.462193 
L 257.456915 198.469563 
L 261.170814 198.46908 
L 292.390782 198.465968 
L 296.220741 198.469402 
L 333.243677 198.467841 
L 333.359737 196.788607 
L 333.475796 198.463031 
L 333.591856 192.40582 
L 333.823974 166.223468 
L 333.940034 197.280676 
L 334.172152 150.26087 
L 334.404271 197.967965 
L 334.63639 186.151648 
L 334.868509 197.92376 
L 335.100627 190.125181 
L 335.216687 192.614565 
L 335.332746 197.876142 
L 335.448805 197.144801 
L 335.564865 191.036869 
L 335.680924 192.301223 
L 335.796983 197.498216 
L 336.029102 192.627201 
L 336.145161 198.281641 
L 336.261221 193.185405 
L 336.37728 197.393684 
L 336.49334 192.443808 
L 336.609399 198.46908 
L 336.725458 186.690002 
L 336.841518 196.128212 
L 337.073636 192.666153 
L 337.189696 198.459749 
L 337.305755 190.72 
L 337.421814 195.718003 
L 337.537874 192.650182 
L 337.653933 193.058709 
L 337.769993 197.612026 
L 337.886052 191.285698 
L 338.002111 197.605853 
L 338.23423 191.408166 
L 338.350289 198.461712 
L 338.466349 192.65912 
L 338.698467 198.214965 
L 338.814527 196.866928 
L 338.930586 195.072565 
L 339.278764 198.160857 
L 339.394824 196.663057 
L 339.626942 197.469082 
L 339.743002 188.615503 
L 339.859061 195.694807 
L 339.97512 179.028705 
L 340.09118 191.119278 
L 340.207239 186.269835 
L 340.439358 198.469148 
L 340.671477 194.801395 
L 340.787536 198.352227 
L 340.903595 194.240922 
L 341.019655 194.417424 
L 341.135714 195.880688 
L 341.251773 192.377604 
L 341.367833 198.332733 
L 341.483892 190.668095 
L 341.599951 198.13956 
L 341.716011 192.355891 
L 341.83207 196.649001 
L 341.94813 193.029193 
L 342.064189 198.408648 
L 342.180248 189.056103 
L 342.296308 196.266566 
L 342.412367 190.831571 
L 342.644486 197.639422 
L 342.760545 196.233436 
L 342.876604 184.322319 
L 343.108723 198.086879 
L 343.340842 191.4151 
L 343.572961 198.331748 
L 343.68902 193.354165 
L 344.037198 198.2576 
L 344.153257 196.13583 
L 344.269317 190.572705 
L 344.501435 197.158733 
L 344.617495 197.264462 
L 344.733554 188.840853 
L 344.965673 197.970248 
L 345.081732 198.467873 
L 345.197792 197.543925 
L 345.313851 195.491293 
L 345.42991 190.230199 
L 345.54597 198.176164 
L 345.662029 195.718841 
L 345.778088 198.140854 
L 345.894148 198.237224 
L 346.010207 197.538807 
L 346.126267 193.339664 
L 346.242326 170.609252 
L 346.474445 198.150679 
L 346.706563 196.044143 
L 346.822623 196.411357 
L 347.054741 198.001508 
L 347.40292 198.416017 
L 347.518979 198.21837 
L 347.635038 198.340876 
L 347.867157 198.324435 
L 347.983216 198.339435 
L 348.099276 198.21446 
L 348.215335 198.384283 
L 348.563513 197.923342 
L 348.795632 198.317345 
L 349.375929 198.348171 
L 349.608047 198.43771 
L 350.072285 198.46901 
L 375.837463 198.468761 
L 377.578353 198.467235 
L 435.956212 198.46868 
L 437.813162 198.46949 
L 448.490623 198.467963 
L 462.185628 198.469349 
L 465.667409 198.46817 
L 481.103304 198.469426 
L 484.701144 198.467584 
L 494.45013 198.469554 
L 797.597182 198.469521 
L 797.597182 198.469521 
" clip-path="url(#pad68df0dd6)" style="fill: none; stroke: #1f77b4; stroke-width: 1.5; stroke-linecap: square"/>
   </g>
   <g id="patch_12">
    <path d="M 115.29 198.469565 
L 115.29 150.26087 
" style="fill: none; stroke: #000000; stroke-width: 2.5; stroke-linejoin: miter; stroke-linecap: square"/>
   </g>
   <g id="patch_13">
    <path d="M 115.29 198.469565 
L 830.088 198.469565 
" style="fill: none; stroke: #000000; stroke-width: 2.5; stroke-linejoin: miter; stroke-linecap: square"/>
   </g>
  </g>
  <g id="axes_4">
   <g id="patch_14">
    <path d="M 115.29 256.32 
L 830.088 256.32 
L 830.088 208.111304 
L 115.29 208.111304 
z
" style="fill: #ffffff"/>
   </g>
   <g id="patch_15">
    <path d="M 333.243677 256.32 
L 333.243677 208.111304 
L 346.126267 208.111304 
L 346.126267 256.32 
z
" clip-path="url(#p991903f330)" style="fill: #ff7f50; stroke: #ff7f50; stroke-linejoin: miter"/>
   </g>
   <g id="matplotlib.axis_7">
    <g id="text_4">
     <!-- Time -->
     <g transform="translate(450.668531 273.997187)scale(0.18 -0.18)">
      <defs>
       <path id="DejaVuSans-69" d="M 603 3500 
L 1178 3500 
L 1178 0 
L 603 0 
L 603 3500 
z
M 603 4863 
L 1178 4863 
L 1178 4134 
L 603 4134 
L 603 4863 
z
" transform="scale(0.015625)"/>
       <path id="DejaVuSans-6d" d="M 3328 2828 
Q 3544 3216 3844 3400 
Q 4144 3584 4550 3584 
Q 5097 3584 5394 3201 
Q 5691 2819 5691 2113 
L 5691 0 
L 5113 0 
L 5113 2094 
Q 5113 2597 4934 2840 
Q 4756 3084 4391 3084 
Q 3944 3084 3684 2787 
Q 3425 2491 3425 1978 
L 3425 0 
L 2847 0 
L 2847 2094 
Q 2847 2600 2669 2842 
Q 2491 3084 2119 3084 
Q 1678 3084 1418 2786 
Q 1159 2488 1159 1978 
L 1159 0 
L 581 0 
L 581 3500 
L 1159 3500 
L 1159 2956 
Q 1356 3278 1631 3431 
Q 1906 3584 2284 3584 
Q 2666 3584 2933 3390 
Q 3200 3197 3328 2828 
z
" transform="scale(0.015625)"/>
       <path id="DejaVuSans-65" d="M 3597 1894 
L 3597 1613 
L 953 1613 
Q 991 1019 1311 708 
Q 1631 397 2203 397 
Q 2534 397 2845 478 
Q 3156 559 3463 722 
L 3463 178 
Q 3153 47 2828 -22 
Q 2503 -91 2169 -91 
Q 1331 -91 842 396 
Q 353 884 353 1716 
Q 353 2575 817 3079 
Q 1281 3584 2069 3584 
Q 2775 3584 3186 3129 
Q 3597 2675 3597 1894 
z
M 3022 2063 
Q 3016 2534 2758 2815 
Q 2500 3097 2075 3097 
Q 1594 3097 1305 2825 
Q 1016 2553 972 2059 
L 3022 2063 
z
" transform="scale(0.015625)"/>
      </defs>
      <use xlink:href="#DejaVuSans-54"/>
      <use xlink:href="#DejaVuSans-69" x="57.958984"/>
      <use xlink:href="#DejaVuSans-6d" x="85.742188"/>
      <use xlink:href="#DejaVuSans-65" x="183.154297"/>
     </g>
    </g>
   </g>
   <g id="matplotlib.axis_8">
    <g id="text_5">
     <!-- MD-RS -->
     <g transform="translate(108.378438 255.478621)rotate(-90)scale(0.14 -0.14)">
      <defs>
       <path id="DejaVuSans-4d" d="M 628 4666 
L 1569 4666 
L 2759 1491 
L 3956 4666 
L 4897 4666 
L 4897 0 
L 4281 0 
L 4281 4097 
L 3078 897 
L 2444 897 
L 1241 4097 
L 1241 0 
L 628 0 
L 628 4666 
z
" transform="scale(0.015625)"/>
       <path id="DejaVuSans-44" d="M 1259 4147 
L 1259 519 
L 2022 519 
Q 2988 519 3436 956 
Q 3884 1394 3884 2338 
Q 3884 3275 3436 3711 
Q 2988 4147 2022 4147 
L 1259 4147 
z
M 628 4666 
L 1925 4666 
Q 3281 4666 3915 4102 
Q 4550 3538 4550 2338 
Q 4550 1131 3912 565 
Q 3275 0 1925 0 
L 628 0 
L 628 4666 
z
" transform="scale(0.015625)"/>
       <path id="DejaVuSans-2d" d="M 313 2009 
L 1997 2009 
L 1997 1497 
L 313 1497 
L 313 2009 
z
" transform="scale(0.015625)"/>
      </defs>
      <use xlink:href="#DejaVuSans-4d"/>
      <use xlink:href="#DejaVuSans-44" x="86.279297"/>
      <use xlink:href="#DejaVuSans-2d" x="163.28125"/>
      <use xlink:href="#DejaVuSans-52" x="199.365234"/>
      <use xlink:href="#DejaVuSans-53" x="268.847656"/>
     </g>
    </g>
   </g>
   <g id="line2d_4">
    <path d="M 147.780818 256.32 
L 149.057471 256.304486 
L 195.249097 256.308274 
L 206.855033 256.305732 
L 236.56623 256.299647 
L 250.493353 256.300742 
L 269.991326 256.30223 
L 292.73896 256.297698 
L 333.359737 256.308191 
L 333.475796 255.773639 
L 333.591856 254.599828 
L 333.707915 254.582077 
L 333.823974 254.143061 
L 333.940034 252.597562 
L 334.288212 240.888089 
L 334.52033 229.458245 
L 334.63639 230.010541 
L 334.752449 213.66584 
L 334.868509 215.85407 
L 334.984568 214.830104 
L 335.216687 219.139277 
L 335.448805 208.111304 
L 335.680924 219.613348 
L 335.796983 218.854658 
L 335.913043 212.806197 
L 336.145161 220.548303 
L 336.261221 218.40421 
L 336.609399 226.619549 
L 336.725458 224.275739 
L 336.841518 226.436032 
L 336.957577 224.621527 
L 337.073636 226.124336 
L 337.305755 223.846919 
L 337.421814 224.287502 
L 337.537874 222.756856 
L 337.653933 224.143742 
L 337.769993 221.268739 
L 337.886052 221.304986 
L 338.002111 220.562243 
L 338.118171 221.390328 
L 338.23423 223.027498 
L 338.582408 217.448538 
L 338.698467 216.854796 
L 338.814527 218.329041 
L 339.162705 229.020306 
L 339.859061 244.439098 
L 339.97512 244.591282 
L 340.09118 244.159773 
L 340.555417 231.313836 
L 340.671477 233.27225 
L 340.903595 232.807517 
L 341.251773 234.306085 
L 341.483892 233.814251 
L 341.599951 234.872185 
L 341.716011 232.576887 
L 341.94813 233.948326 
L 342.180248 233.682992 
L 342.296308 235.183451 
L 342.528426 232.925312 
L 342.644486 233.031274 
L 342.992664 232.177257 
L 343.108723 229.165064 
L 343.340842 234.591579 
L 343.456901 232.770015 
L 343.68902 232.665291 
L 343.805079 232.336895 
L 344.269317 235.827889 
L 344.385376 236.027457 
L 344.617495 237.747478 
L 344.849614 236.895849 
L 344.965673 237.245461 
L 345.313851 241.480001 
L 345.54597 243.481837 
L 345.894148 246.121244 
L 346.010207 245.95682 
L 346.242326 244.763786 
L 346.358385 244.006214 
L 346.474445 241.283999 
L 346.822623 247.327591 
L 347.983216 253.850175 
L 348.215335 254.319885 
L 348.795632 255.71099 
L 349.375929 256.204339 
L 350.072285 256.290468 
L 352.393472 256.310301 
L 391.273358 256.314207 
L 422.957564 256.29952 
L 424.350276 256.297942 
L 433.751084 256.309537 
L 438.857696 256.308366 
L 602.617455 256.312286 
L 695.581003 256.287522 
L 707.302999 256.31217 
L 721.230122 256.30308 
L 727.961565 256.313799 
L 797.597182 256.310277 
L 797.597182 256.310277 
" clip-path="url(#p991903f330)" style="fill: none; stroke: #1f77b4; stroke-width: 1.5; stroke-linecap: square"/>
   </g>
   <g id="patch_16">
    <path d="M 115.29 256.32 
L 115.29 208.111304 
" style="fill: none; stroke: #000000; stroke-width: 2.5; stroke-linejoin: miter; stroke-linecap: square"/>
   </g>
   <g id="patch_17">
    <path d="M 115.29 256.32 
L 830.088 256.32 
" style="fill: none; stroke: #000000; stroke-width: 2.5; stroke-linejoin: miter; stroke-linecap: square"/>
   </g>
  </g>
 </g>
 <defs>
  <clipPath id="pda2c476802">
   <rect x="115.29" y="34.56" width="714.798" height="48.208696"/>
  </clipPath>
  <clipPath id="p90b492d37f">
   <rect x="115.29" y="92.410435" width="714.798" height="48.208696"/>
  </clipPath>
  <clipPath id="pad68df0dd6">
   <rect x="115.29" y="150.26087" width="714.798" height="48.208696"/>
  </clipPath>
  <clipPath id="p991903f330">
   <rect x="115.29" y="208.111304" width="714.798" height="48.208696"/>
  </clipPath>
 </defs>
</svg>
