<?xml version="1.0" encoding="utf-8" standalone="no"?>
<!DOCTYPE svg PUBLIC "-//W3C//DTD SVG 1.1//EN"
  "http://www.w3.org/Graphics/SVG/1.1/DTD/svg11.dtd">
<svg xmlns:xlink="http://www.w3.org/1999/xlink" width="720pt" height="288pt" viewBox="0 0 720 288" xmlns="http://www.w3.org/2000/svg" version="1.1">
 <metadata>
  <rdf:RDF xmlns:dc="http://purl.org/dc/elements/1.1/" xmlns:cc="http://creativecommons.org/ns#" xmlns:rdf="http://www.w3.org/1999/02/22-rdf-syntax-ns#">
   <cc:Work>
    <dc:type rdf:resource="http://purl.org/dc/dcmitype/StillImage"/>
    <dc:date>2024-04-15T20:27:42.956778</dc:date>
    <dc:format>image/svg+xml</dc:format>
    <dc:creator>
     <cc:Agent>
      <dc:title>Matplotlib v3.5.1, https://matplotlib.org/</dc:title>
     </cc:Agent>
    </dc:creator>
   </cc:Work>
  </rdf:RDF>
 </metadata>
 <defs>
  <style type="text/css">*{stroke-linejoin: round; stroke-linecap: butt}</style>
 </defs>
 <g id="figure_1">
  <g id="patch_1">
   <path d="M 0 288 
L 720 288 
L 720 0 
L 0 0 
L 0 288 
z
" style="fill: none"/>
  </g>
  <g id="axes_1">
   <g id="patch_2">
    <path d="M 72 244.8 
L 306.782609 244.8 
L 306.782609 34.56 
L 72 34.56 
L 72 244.8 
z
" style="fill: none"/>
   </g>
   <g id="matplotlib.axis_1">
    <g id="xtick_1">
     <g id="line2d_1">
      <defs>
       <path id="mfd46f0736c" d="M 0 0 
L 0 3.5 
" style="stroke: #000000; stroke-width: 0.8"/>
      </defs>
      <g>
       <use xlink:href="#mfd46f0736c" x="82.671937" y="244.8" style="stroke: #000000; stroke-width: 0.8"/>
      </g>
     </g>
     <g id="text_1">
      <!-- 0.000 -->
      <g transform="translate(68.357874 259.398438)scale(0.1 -0.1)">
       <defs>
        <path id="DejaVuSans-30" d="M 2034 4250 
Q 1547 4250 1301 3770 
Q 1056 3291 1056 2328 
Q 1056 1369 1301 889 
Q 1547 409 2034 409 
Q 2525 409 2770 889 
Q 3016 1369 3016 2328 
Q 3016 3291 2770 3770 
Q 2525 4250 2034 4250 
z
M 2034 4750 
Q 2819 4750 3233 4129 
Q 3647 3509 3647 2328 
Q 3647 1150 3233 529 
Q 2819 -91 2034 -91 
Q 1250 -91 836 529 
Q 422 1150 422 2328 
Q 422 3509 836 4129 
Q 1250 4750 2034 4750 
z
" transform="scale(0.015625)"/>
        <path id="DejaVuSans-2e" d="M 684 794 
L 1344 794 
L 1344 0 
L 684 0 
L 684 794 
z
" transform="scale(0.015625)"/>
       </defs>
       <use xlink:href="#DejaVuSans-30"/>
       <use xlink:href="#DejaVuSans-2e" x="63.623047"/>
       <use xlink:href="#DejaVuSans-30" x="95.410156"/>
       <use xlink:href="#DejaVuSans-30" x="159.033203"/>
       <use xlink:href="#DejaVuSans-30" x="222.65625"/>
      </g>
     </g>
    </g>
    <g id="xtick_2">
     <g id="line2d_2">
      <g>
       <use xlink:href="#mfd46f0736c" x="136.031621" y="244.8" style="stroke: #000000; stroke-width: 0.8"/>
      </g>
     </g>
     <g id="text_2">
      <!-- 0.005 -->
      <g transform="translate(121.717558 259.398438)scale(0.1 -0.1)">
       <defs>
        <path id="DejaVuSans-35" d="M 691 4666 
L 3169 4666 
L 3169 4134 
L 1269 4134 
L 1269 2991 
Q 1406 3038 1543 3061 
Q 1681 3084 1819 3084 
Q 2600 3084 3056 2656 
Q 3513 2228 3513 1497 
Q 3513 744 3044 326 
Q 2575 -91 1722 -91 
Q 1428 -91 1123 -41 
Q 819 9 494 109 
L 494 744 
Q 775 591 1075 516 
Q 1375 441 1709 441 
Q 2250 441 2565 725 
Q 2881 1009 2881 1497 
Q 2881 1984 2565 2268 
Q 2250 2553 1709 2553 
Q 1456 2553 1204 2497 
Q 953 2441 691 2322 
L 691 4666 
z
" transform="scale(0.015625)"/>
       </defs>
       <use xlink:href="#DejaVuSans-30"/>
       <use xlink:href="#DejaVuSans-2e" x="63.623047"/>
       <use xlink:href="#DejaVuSans-30" x="95.410156"/>
       <use xlink:href="#DejaVuSans-30" x="159.033203"/>
       <use xlink:href="#DejaVuSans-35" x="222.65625"/>
      </g>
     </g>
    </g>
    <g id="xtick_3">
     <g id="line2d_3">
      <g>
       <use xlink:href="#mfd46f0736c" x="189.391304" y="244.8" style="stroke: #000000; stroke-width: 0.8"/>
      </g>
     </g>
     <g id="text_3">
      <!-- 0.010 -->
      <g transform="translate(175.077242 259.398438)scale(0.1 -0.1)">
       <defs>
        <path id="DejaVuSans-31" d="M 794 531 
L 1825 531 
L 1825 4091 
L 703 3866 
L 703 4441 
L 1819 4666 
L 2450 4666 
L 2450 531 
L 3481 531 
L 3481 0 
L 794 0 
L 794 531 
z
" transform="scale(0.015625)"/>
       </defs>
       <use xlink:href="#DejaVuSans-30"/>
       <use xlink:href="#DejaVuSans-2e" x="63.623047"/>
       <use xlink:href="#DejaVuSans-30" x="95.410156"/>
       <use xlink:href="#DejaVuSans-31" x="159.033203"/>
       <use xlink:href="#DejaVuSans-30" x="222.65625"/>
      </g>
     </g>
    </g>
    <g id="xtick_4">
     <g id="line2d_4">
      <g>
       <use xlink:href="#mfd46f0736c" x="242.750988" y="244.8" style="stroke: #000000; stroke-width: 0.8"/>
      </g>
     </g>
     <g id="text_4">
      <!-- 0.015 -->
      <g transform="translate(228.436926 259.398438)scale(0.1 -0.1)">
       <use xlink:href="#DejaVuSans-30"/>
       <use xlink:href="#DejaVuSans-2e" x="63.623047"/>
       <use xlink:href="#DejaVuSans-30" x="95.410156"/>
       <use xlink:href="#DejaVuSans-31" x="159.033203"/>
       <use xlink:href="#DejaVuSans-35" x="222.65625"/>
      </g>
     </g>
    </g>
    <g id="xtick_5">
     <g id="line2d_5">
      <g>
       <use xlink:href="#mfd46f0736c" x="296.110672" y="244.8" style="stroke: #000000; stroke-width: 0.8"/>
      </g>
     </g>
     <g id="text_5">
      <!-- 0.020 -->
      <g transform="translate(281.796609 259.398438)scale(0.1 -0.1)">
       <defs>
        <path id="DejaVuSans-32" d="M 1228 531 
L 3431 531 
L 3431 0 
L 469 0 
L 469 531 
Q 828 903 1448 1529 
Q 2069 2156 2228 2338 
Q 2531 2678 2651 2914 
Q 2772 3150 2772 3378 
Q 2772 3750 2511 3984 
Q 2250 4219 1831 4219 
Q 1534 4219 1204 4116 
Q 875 4013 500 3803 
L 500 4441 
Q 881 4594 1212 4672 
Q 1544 4750 1819 4750 
Q 2544 4750 2975 4387 
Q 3406 4025 3406 3419 
Q 3406 3131 3298 2873 
Q 3191 2616 2906 2266 
Q 2828 2175 2409 1742 
Q 1991 1309 1228 531 
z
" transform="scale(0.015625)"/>
       </defs>
       <use xlink:href="#DejaVuSans-30"/>
       <use xlink:href="#DejaVuSans-2e" x="63.623047"/>
       <use xlink:href="#DejaVuSans-30" x="95.410156"/>
       <use xlink:href="#DejaVuSans-32" x="159.033203"/>
       <use xlink:href="#DejaVuSans-30" x="222.65625"/>
      </g>
     </g>
    </g>
    <g id="text_6">
     <!-- Input noise strength $\sigma$ -->
     <g transform="translate(111.831304 276.118125)scale(0.14 -0.14)">
      <defs>
       <path id="DejaVuSans-49" d="M 628 4666 
L 1259 4666 
L 1259 0 
L 628 0 
L 628 4666 
z
" transform="scale(0.015625)"/>
       <path id="DejaVuSans-6e" d="M 3513 2113 
L 3513 0 
L 2938 0 
L 2938 2094 
Q 2938 2591 2744 2837 
Q 2550 3084 2163 3084 
Q 1697 3084 1428 2787 
Q 1159 2491 1159 1978 
L 1159 0 
L 581 0 
L 581 3500 
L 1159 3500 
L 1159 2956 
Q 1366 3272 1645 3428 
Q 1925 3584 2291 3584 
Q 2894 3584 3203 3211 
Q 3513 2838 3513 2113 
z
" transform="scale(0.015625)"/>
       <path id="DejaVuSans-70" d="M 1159 525 
L 1159 -1331 
L 581 -1331 
L 581 3500 
L 1159 3500 
L 1159 2969 
Q 1341 3281 1617 3432 
Q 1894 3584 2278 3584 
Q 2916 3584 3314 3078 
Q 3713 2572 3713 1747 
Q 3713 922 3314 415 
Q 2916 -91 2278 -91 
Q 1894 -91 1617 61 
Q 1341 213 1159 525 
z
M 3116 1747 
Q 3116 2381 2855 2742 
Q 2594 3103 2138 3103 
Q 1681 3103 1420 2742 
Q 1159 2381 1159 1747 
Q 1159 1113 1420 752 
Q 1681 391 2138 391 
Q 2594 391 2855 752 
Q 3116 1113 3116 1747 
z
" transform="scale(0.015625)"/>
       <path id="DejaVuSans-75" d="M 544 1381 
L 544 3500 
L 1119 3500 
L 1119 1403 
Q 1119 906 1312 657 
Q 1506 409 1894 409 
Q 2359 409 2629 706 
Q 2900 1003 2900 1516 
L 2900 3500 
L 3475 3500 
L 3475 0 
L 2900 0 
L 2900 538 
Q 2691 219 2414 64 
Q 2138 -91 1772 -91 
Q 1169 -91 856 284 
Q 544 659 544 1381 
z
M 1991 3584 
L 1991 3584 
z
" transform="scale(0.015625)"/>
       <path id="DejaVuSans-74" d="M 1172 4494 
L 1172 3500 
L 2356 3500 
L 2356 3053 
L 1172 3053 
L 1172 1153 
Q 1172 725 1289 603 
Q 1406 481 1766 481 
L 2356 481 
L 2356 0 
L 1766 0 
Q 1100 0 847 248 
Q 594 497 594 1153 
L 594 3053 
L 172 3053 
L 172 3500 
L 594 3500 
L 594 4494 
L 1172 4494 
z
" transform="scale(0.015625)"/>
       <path id="DejaVuSans-20" transform="scale(0.015625)"/>
       <path id="DejaVuSans-6f" d="M 1959 3097 
Q 1497 3097 1228 2736 
Q 959 2375 959 1747 
Q 959 1119 1226 758 
Q 1494 397 1959 397 
Q 2419 397 2687 759 
Q 2956 1122 2956 1747 
Q 2956 2369 2687 2733 
Q 2419 3097 1959 3097 
z
M 1959 3584 
Q 2709 3584 3137 3096 
Q 3566 2609 3566 1747 
Q 3566 888 3137 398 
Q 2709 -91 1959 -91 
Q 1206 -91 779 398 
Q 353 888 353 1747 
Q 353 2609 779 3096 
Q 1206 3584 1959 3584 
z
" transform="scale(0.015625)"/>
       <path id="DejaVuSans-69" d="M 603 3500 
L 1178 3500 
L 1178 0 
L 603 0 
L 603 3500 
z
M 603 4863 
L 1178 4863 
L 1178 4134 
L 603 4134 
L 603 4863 
z
" transform="scale(0.015625)"/>
       <path id="DejaVuSans-73" d="M 2834 3397 
L 2834 2853 
Q 2591 2978 2328 3040 
Q 2066 3103 1784 3103 
Q 1356 3103 1142 2972 
Q 928 2841 928 2578 
Q 928 2378 1081 2264 
Q 1234 2150 1697 2047 
L 1894 2003 
Q 2506 1872 2764 1633 
Q 3022 1394 3022 966 
Q 3022 478 2636 193 
Q 2250 -91 1575 -91 
Q 1294 -91 989 -36 
Q 684 19 347 128 
L 347 722 
Q 666 556 975 473 
Q 1284 391 1588 391 
Q 1994 391 2212 530 
Q 2431 669 2431 922 
Q 2431 1156 2273 1281 
Q 2116 1406 1581 1522 
L 1381 1569 
Q 847 1681 609 1914 
Q 372 2147 372 2553 
Q 372 3047 722 3315 
Q 1072 3584 1716 3584 
Q 2034 3584 2315 3537 
Q 2597 3491 2834 3397 
z
" transform="scale(0.015625)"/>
       <path id="DejaVuSans-65" d="M 3597 1894 
L 3597 1613 
L 953 1613 
Q 991 1019 1311 708 
Q 1631 397 2203 397 
Q 2534 397 2845 478 
Q 3156 559 3463 722 
L 3463 178 
Q 3153 47 2828 -22 
Q 2503 -91 2169 -91 
Q 1331 -91 842 396 
Q 353 884 353 1716 
Q 353 2575 817 3079 
Q 1281 3584 2069 3584 
Q 2775 3584 3186 3129 
Q 3597 2675 3597 1894 
z
M 3022 2063 
Q 3016 2534 2758 2815 
Q 2500 3097 2075 3097 
Q 1594 3097 1305 2825 
Q 1016 2553 972 2059 
L 3022 2063 
z
" transform="scale(0.015625)"/>
       <path id="DejaVuSans-72" d="M 2631 2963 
Q 2534 3019 2420 3045 
Q 2306 3072 2169 3072 
Q 1681 3072 1420 2755 
Q 1159 2438 1159 1844 
L 1159 0 
L 581 0 
L 581 3500 
L 1159 3500 
L 1159 2956 
Q 1341 3275 1631 3429 
Q 1922 3584 2338 3584 
Q 2397 3584 2469 3576 
Q 2541 3569 2628 3553 
L 2631 2963 
z
" transform="scale(0.015625)"/>
       <path id="DejaVuSans-67" d="M 2906 1791 
Q 2906 2416 2648 2759 
Q 2391 3103 1925 3103 
Q 1463 3103 1205 2759 
Q 947 2416 947 1791 
Q 947 1169 1205 825 
Q 1463 481 1925 481 
Q 2391 481 2648 825 
Q 2906 1169 2906 1791 
z
M 3481 434 
Q 3481 -459 3084 -895 
Q 2688 -1331 1869 -1331 
Q 1566 -1331 1297 -1286 
Q 1028 -1241 775 -1147 
L 775 -588 
Q 1028 -725 1275 -790 
Q 1522 -856 1778 -856 
Q 2344 -856 2625 -561 
Q 2906 -266 2906 331 
L 2906 616 
Q 2728 306 2450 153 
Q 2172 0 1784 0 
Q 1141 0 747 490 
Q 353 981 353 1791 
Q 353 2603 747 3093 
Q 1141 3584 1784 3584 
Q 2172 3584 2450 3431 
Q 2728 3278 2906 2969 
L 2906 3500 
L 3481 3500 
L 3481 434 
z
" transform="scale(0.015625)"/>
       <path id="DejaVuSans-68" d="M 3513 2113 
L 3513 0 
L 2938 0 
L 2938 2094 
Q 2938 2591 2744 2837 
Q 2550 3084 2163 3084 
Q 1697 3084 1428 2787 
Q 1159 2491 1159 1978 
L 1159 0 
L 581 0 
L 581 4863 
L 1159 4863 
L 1159 2956 
Q 1366 3272 1645 3428 
Q 1925 3584 2291 3584 
Q 2894 3584 3203 3211 
Q 3513 2838 3513 2113 
z
" transform="scale(0.015625)"/>
       <path id="DejaVuSans-Oblique-3c3" d="M 2219 3044 
Q 1744 3044 1422 2700 
Q 1081 2341 969 1747 
Q 844 1119 1044 756 
Q 1241 397 1706 397 
Q 2166 397 2503 759 
Q 2844 1122 2966 1747 
Q 3075 2319 2881 2700 
Q 2700 3044 2219 3044 
z
M 2309 3503 
L 4219 3500 
L 4106 2925 
L 3463 2925 
Q 3706 2438 3575 1747 
Q 3406 888 2884 400 
Q 2359 -91 1609 -91 
Q 856 -91 525 400 
Q 194 888 363 1747 
Q 528 2609 1050 3097 
Q 1484 3503 2309 3503 
z
" transform="scale(0.015625)"/>
      </defs>
      <use xlink:href="#DejaVuSans-49" transform="translate(0 0.015625)"/>
      <use xlink:href="#DejaVuSans-6e" transform="translate(29.492188 0.015625)"/>
      <use xlink:href="#DejaVuSans-70" transform="translate(92.871094 0.015625)"/>
      <use xlink:href="#DejaVuSans-75" transform="translate(156.347656 0.015625)"/>
      <use xlink:href="#DejaVuSans-74" transform="translate(219.726562 0.015625)"/>
      <use xlink:href="#DejaVuSans-20" transform="translate(258.935547 0.015625)"/>
      <use xlink:href="#DejaVuSans-6e" transform="translate(290.722656 0.015625)"/>
      <use xlink:href="#DejaVuSans-6f" transform="translate(354.101562 0.015625)"/>
      <use xlink:href="#DejaVuSans-69" transform="translate(415.283203 0.015625)"/>
      <use xlink:href="#DejaVuSans-73" transform="translate(443.066406 0.015625)"/>
      <use xlink:href="#DejaVuSans-65" transform="translate(495.166016 0.015625)"/>
      <use xlink:href="#DejaVuSans-20" transform="translate(556.689453 0.015625)"/>
      <use xlink:href="#DejaVuSans-73" transform="translate(588.476562 0.015625)"/>
      <use xlink:href="#DejaVuSans-74" transform="translate(640.576172 0.015625)"/>
      <use xlink:href="#DejaVuSans-72" transform="translate(679.785156 0.015625)"/>
      <use xlink:href="#DejaVuSans-65" transform="translate(720.898438 0.015625)"/>
      <use xlink:href="#DejaVuSans-6e" transform="translate(782.421875 0.015625)"/>
      <use xlink:href="#DejaVuSans-67" transform="translate(845.800781 0.015625)"/>
      <use xlink:href="#DejaVuSans-74" transform="translate(909.277344 0.015625)"/>
      <use xlink:href="#DejaVuSans-68" transform="translate(948.486328 0.015625)"/>
      <use xlink:href="#DejaVuSans-20" transform="translate(1011.865234 0.015625)"/>
      <use xlink:href="#DejaVuSans-Oblique-3c3" transform="translate(1043.652344 0.015625)"/>
     </g>
    </g>
   </g>
   <g id="matplotlib.axis_2">
    <g id="ytick_1">
     <g id="line2d_6">
      <defs>
       <path id="m521bda465e" d="M 0 0 
L -3.5 0 
" style="stroke: #000000; stroke-width: 0.8"/>
      </defs>
      <g>
       <use xlink:href="#m521bda465e" x="72" y="244.227098" style="stroke: #000000; stroke-width: 0.8"/>
      </g>
     </g>
     <g id="text_7">
      <!-- 60 -->
      <g transform="translate(52.275 248.026316)scale(0.1 -0.1)">
       <defs>
        <path id="DejaVuSans-36" d="M 2113 2584 
Q 1688 2584 1439 2293 
Q 1191 2003 1191 1497 
Q 1191 994 1439 701 
Q 1688 409 2113 409 
Q 2538 409 2786 701 
Q 3034 994 3034 1497 
Q 3034 2003 2786 2293 
Q 2538 2584 2113 2584 
z
M 3366 4563 
L 3366 3988 
Q 3128 4100 2886 4159 
Q 2644 4219 2406 4219 
Q 1781 4219 1451 3797 
Q 1122 3375 1075 2522 
Q 1259 2794 1537 2939 
Q 1816 3084 2150 3084 
Q 2853 3084 3261 2657 
Q 3669 2231 3669 1497 
Q 3669 778 3244 343 
Q 2819 -91 2113 -91 
Q 1303 -91 875 529 
Q 447 1150 447 2328 
Q 447 3434 972 4092 
Q 1497 4750 2381 4750 
Q 2619 4750 2861 4703 
Q 3103 4656 3366 4563 
z
" transform="scale(0.015625)"/>
       </defs>
       <use xlink:href="#DejaVuSans-36"/>
       <use xlink:href="#DejaVuSans-30" x="63.623047"/>
      </g>
     </g>
    </g>
    <g id="ytick_2">
     <g id="line2d_7">
      <g>
       <use xlink:href="#m521bda465e" x="72" y="199.051263" style="stroke: #000000; stroke-width: 0.8"/>
      </g>
     </g>
     <g id="text_8">
      <!-- 70 -->
      <g transform="translate(52.275 202.850482)scale(0.1 -0.1)">
       <defs>
        <path id="DejaVuSans-37" d="M 525 4666 
L 3525 4666 
L 3525 4397 
L 1831 0 
L 1172 0 
L 2766 4134 
L 525 4134 
L 525 4666 
z
" transform="scale(0.015625)"/>
       </defs>
       <use xlink:href="#DejaVuSans-37"/>
       <use xlink:href="#DejaVuSans-30" x="63.623047"/>
      </g>
     </g>
    </g>
    <g id="ytick_3">
     <g id="line2d_8">
      <g>
       <use xlink:href="#m521bda465e" x="72" y="153.875429" style="stroke: #000000; stroke-width: 0.8"/>
      </g>
     </g>
     <g id="text_9">
      <!-- 80 -->
      <g transform="translate(52.275 157.674648)scale(0.1 -0.1)">
       <defs>
        <path id="DejaVuSans-38" d="M 2034 2216 
Q 1584 2216 1326 1975 
Q 1069 1734 1069 1313 
Q 1069 891 1326 650 
Q 1584 409 2034 409 
Q 2484 409 2743 651 
Q 3003 894 3003 1313 
Q 3003 1734 2745 1975 
Q 2488 2216 2034 2216 
z
M 1403 2484 
Q 997 2584 770 2862 
Q 544 3141 544 3541 
Q 544 4100 942 4425 
Q 1341 4750 2034 4750 
Q 2731 4750 3128 4425 
Q 3525 4100 3525 3541 
Q 3525 3141 3298 2862 
Q 3072 2584 2669 2484 
Q 3125 2378 3379 2068 
Q 3634 1759 3634 1313 
Q 3634 634 3220 271 
Q 2806 -91 2034 -91 
Q 1263 -91 848 271 
Q 434 634 434 1313 
Q 434 1759 690 2068 
Q 947 2378 1403 2484 
z
M 1172 3481 
Q 1172 3119 1398 2916 
Q 1625 2713 2034 2713 
Q 2441 2713 2670 2916 
Q 2900 3119 2900 3481 
Q 2900 3844 2670 4047 
Q 2441 4250 2034 4250 
Q 1625 4250 1398 4047 
Q 1172 3844 1172 3481 
z
" transform="scale(0.015625)"/>
       </defs>
       <use xlink:href="#DejaVuSans-38"/>
       <use xlink:href="#DejaVuSans-30" x="63.623047"/>
      </g>
     </g>
    </g>
    <g id="ytick_4">
     <g id="line2d_9">
      <g>
       <use xlink:href="#m521bda465e" x="72" y="108.699595" style="stroke: #000000; stroke-width: 0.8"/>
      </g>
     </g>
     <g id="text_10">
      <!-- 90 -->
      <g transform="translate(52.275 112.498813)scale(0.1 -0.1)">
       <defs>
        <path id="DejaVuSans-39" d="M 703 97 
L 703 672 
Q 941 559 1184 500 
Q 1428 441 1663 441 
Q 2288 441 2617 861 
Q 2947 1281 2994 2138 
Q 2813 1869 2534 1725 
Q 2256 1581 1919 1581 
Q 1219 1581 811 2004 
Q 403 2428 403 3163 
Q 403 3881 828 4315 
Q 1253 4750 1959 4750 
Q 2769 4750 3195 4129 
Q 3622 3509 3622 2328 
Q 3622 1225 3098 567 
Q 2575 -91 1691 -91 
Q 1453 -91 1209 -44 
Q 966 3 703 97 
z
M 1959 2075 
Q 2384 2075 2632 2365 
Q 2881 2656 2881 3163 
Q 2881 3666 2632 3958 
Q 2384 4250 1959 4250 
Q 1534 4250 1286 3958 
Q 1038 3666 1038 3163 
Q 1038 2656 1286 2365 
Q 1534 2075 1959 2075 
z
" transform="scale(0.015625)"/>
       </defs>
       <use xlink:href="#DejaVuSans-39"/>
       <use xlink:href="#DejaVuSans-30" x="63.623047"/>
      </g>
     </g>
    </g>
    <g id="ytick_5">
     <g id="line2d_10">
      <g>
       <use xlink:href="#m521bda465e" x="72" y="63.52376" style="stroke: #000000; stroke-width: 0.8"/>
      </g>
     </g>
     <g id="text_11">
      <!-- 100 -->
      <g transform="translate(45.9125 67.322979)scale(0.1 -0.1)">
       <use xlink:href="#DejaVuSans-31"/>
       <use xlink:href="#DejaVuSans-30" x="63.623047"/>
       <use xlink:href="#DejaVuSans-30" x="127.246094"/>
      </g>
     </g>
    </g>
    <g id="text_12">
     <!-- Change in BEP Score (%) -->
     <g transform="translate(39.000937 226.924063)rotate(-90)scale(0.14 -0.14)">
      <defs>
       <path id="DejaVuSans-43" d="M 4122 4306 
L 4122 3641 
Q 3803 3938 3442 4084 
Q 3081 4231 2675 4231 
Q 1875 4231 1450 3742 
Q 1025 3253 1025 2328 
Q 1025 1406 1450 917 
Q 1875 428 2675 428 
Q 3081 428 3442 575 
Q 3803 722 4122 1019 
L 4122 359 
Q 3791 134 3420 21 
Q 3050 -91 2638 -91 
Q 1578 -91 968 557 
Q 359 1206 359 2328 
Q 359 3453 968 4101 
Q 1578 4750 2638 4750 
Q 3056 4750 3426 4639 
Q 3797 4528 4122 4306 
z
" transform="scale(0.015625)"/>
       <path id="DejaVuSans-61" d="M 2194 1759 
Q 1497 1759 1228 1600 
Q 959 1441 959 1056 
Q 959 750 1161 570 
Q 1363 391 1709 391 
Q 2188 391 2477 730 
Q 2766 1069 2766 1631 
L 2766 1759 
L 2194 1759 
z
M 3341 1997 
L 3341 0 
L 2766 0 
L 2766 531 
Q 2569 213 2275 61 
Q 1981 -91 1556 -91 
Q 1019 -91 701 211 
Q 384 513 384 1019 
Q 384 1609 779 1909 
Q 1175 2209 1959 2209 
L 2766 2209 
L 2766 2266 
Q 2766 2663 2505 2880 
Q 2244 3097 1772 3097 
Q 1472 3097 1187 3025 
Q 903 2953 641 2809 
L 641 3341 
Q 956 3463 1253 3523 
Q 1550 3584 1831 3584 
Q 2591 3584 2966 3190 
Q 3341 2797 3341 1997 
z
" transform="scale(0.015625)"/>
       <path id="DejaVuSans-42" d="M 1259 2228 
L 1259 519 
L 2272 519 
Q 2781 519 3026 730 
Q 3272 941 3272 1375 
Q 3272 1813 3026 2020 
Q 2781 2228 2272 2228 
L 1259 2228 
z
M 1259 4147 
L 1259 2741 
L 2194 2741 
Q 2656 2741 2882 2914 
Q 3109 3088 3109 3444 
Q 3109 3797 2882 3972 
Q 2656 4147 2194 4147 
L 1259 4147 
z
M 628 4666 
L 2241 4666 
Q 2963 4666 3353 4366 
Q 3744 4066 3744 3513 
Q 3744 3084 3544 2831 
Q 3344 2578 2956 2516 
Q 3422 2416 3680 2098 
Q 3938 1781 3938 1306 
Q 3938 681 3513 340 
Q 3088 0 2303 0 
L 628 0 
L 628 4666 
z
" transform="scale(0.015625)"/>
       <path id="DejaVuSans-45" d="M 628 4666 
L 3578 4666 
L 3578 4134 
L 1259 4134 
L 1259 2753 
L 3481 2753 
L 3481 2222 
L 1259 2222 
L 1259 531 
L 3634 531 
L 3634 0 
L 628 0 
L 628 4666 
z
" transform="scale(0.015625)"/>
       <path id="DejaVuSans-50" d="M 1259 4147 
L 1259 2394 
L 2053 2394 
Q 2494 2394 2734 2622 
Q 2975 2850 2975 3272 
Q 2975 3691 2734 3919 
Q 2494 4147 2053 4147 
L 1259 4147 
z
M 628 4666 
L 2053 4666 
Q 2838 4666 3239 4311 
Q 3641 3956 3641 3272 
Q 3641 2581 3239 2228 
Q 2838 1875 2053 1875 
L 1259 1875 
L 1259 0 
L 628 0 
L 628 4666 
z
" transform="scale(0.015625)"/>
       <path id="DejaVuSans-53" d="M 3425 4513 
L 3425 3897 
Q 3066 4069 2747 4153 
Q 2428 4238 2131 4238 
Q 1616 4238 1336 4038 
Q 1056 3838 1056 3469 
Q 1056 3159 1242 3001 
Q 1428 2844 1947 2747 
L 2328 2669 
Q 3034 2534 3370 2195 
Q 3706 1856 3706 1288 
Q 3706 609 3251 259 
Q 2797 -91 1919 -91 
Q 1588 -91 1214 -16 
Q 841 59 441 206 
L 441 856 
Q 825 641 1194 531 
Q 1563 422 1919 422 
Q 2459 422 2753 634 
Q 3047 847 3047 1241 
Q 3047 1584 2836 1778 
Q 2625 1972 2144 2069 
L 1759 2144 
Q 1053 2284 737 2584 
Q 422 2884 422 3419 
Q 422 4038 858 4394 
Q 1294 4750 2059 4750 
Q 2388 4750 2728 4690 
Q 3069 4631 3425 4513 
z
" transform="scale(0.015625)"/>
       <path id="DejaVuSans-63" d="M 3122 3366 
L 3122 2828 
Q 2878 2963 2633 3030 
Q 2388 3097 2138 3097 
Q 1578 3097 1268 2742 
Q 959 2388 959 1747 
Q 959 1106 1268 751 
Q 1578 397 2138 397 
Q 2388 397 2633 464 
Q 2878 531 3122 666 
L 3122 134 
Q 2881 22 2623 -34 
Q 2366 -91 2075 -91 
Q 1284 -91 818 406 
Q 353 903 353 1747 
Q 353 2603 823 3093 
Q 1294 3584 2113 3584 
Q 2378 3584 2631 3529 
Q 2884 3475 3122 3366 
z
" transform="scale(0.015625)"/>
       <path id="DejaVuSans-28" d="M 1984 4856 
Q 1566 4138 1362 3434 
Q 1159 2731 1159 2009 
Q 1159 1288 1364 580 
Q 1569 -128 1984 -844 
L 1484 -844 
Q 1016 -109 783 600 
Q 550 1309 550 2009 
Q 550 2706 781 3412 
Q 1013 4119 1484 4856 
L 1984 4856 
z
" transform="scale(0.015625)"/>
       <path id="DejaVuSans-25" d="M 4653 2053 
Q 4381 2053 4226 1822 
Q 4072 1591 4072 1178 
Q 4072 772 4226 539 
Q 4381 306 4653 306 
Q 4919 306 5073 539 
Q 5228 772 5228 1178 
Q 5228 1588 5073 1820 
Q 4919 2053 4653 2053 
z
M 4653 2450 
Q 5147 2450 5437 2106 
Q 5728 1763 5728 1178 
Q 5728 594 5436 251 
Q 5144 -91 4653 -91 
Q 4153 -91 3862 251 
Q 3572 594 3572 1178 
Q 3572 1766 3864 2108 
Q 4156 2450 4653 2450 
z
M 1428 4353 
Q 1159 4353 1004 4120 
Q 850 3888 850 3481 
Q 850 3069 1003 2837 
Q 1156 2606 1428 2606 
Q 1700 2606 1854 2837 
Q 2009 3069 2009 3481 
Q 2009 3884 1853 4118 
Q 1697 4353 1428 4353 
z
M 4250 4750 
L 4750 4750 
L 1831 -91 
L 1331 -91 
L 4250 4750 
z
M 1428 4750 
Q 1922 4750 2215 4408 
Q 2509 4066 2509 3481 
Q 2509 2891 2217 2550 
Q 1925 2209 1428 2209 
Q 931 2209 642 2551 
Q 353 2894 353 3481 
Q 353 4063 643 4406 
Q 934 4750 1428 4750 
z
" transform="scale(0.015625)"/>
       <path id="DejaVuSans-29" d="M 513 4856 
L 1013 4856 
Q 1481 4119 1714 3412 
Q 1947 2706 1947 2009 
Q 1947 1309 1714 600 
Q 1481 -109 1013 -844 
L 513 -844 
Q 928 -128 1133 580 
Q 1338 1288 1338 2009 
Q 1338 2731 1133 3434 
Q 928 4138 513 4856 
z
" transform="scale(0.015625)"/>
      </defs>
      <use xlink:href="#DejaVuSans-43"/>
      <use xlink:href="#DejaVuSans-68" x="69.824219"/>
      <use xlink:href="#DejaVuSans-61" x="133.203125"/>
      <use xlink:href="#DejaVuSans-6e" x="194.482422"/>
      <use xlink:href="#DejaVuSans-67" x="257.861328"/>
      <use xlink:href="#DejaVuSans-65" x="321.337891"/>
      <use xlink:href="#DejaVuSans-20" x="382.861328"/>
      <use xlink:href="#DejaVuSans-69" x="414.648438"/>
      <use xlink:href="#DejaVuSans-6e" x="442.431641"/>
      <use xlink:href="#DejaVuSans-20" x="505.810547"/>
      <use xlink:href="#DejaVuSans-42" x="537.597656"/>
      <use xlink:href="#DejaVuSans-45" x="606.201172"/>
      <use xlink:href="#DejaVuSans-50" x="669.384766"/>
      <use xlink:href="#DejaVuSans-20" x="729.6875"/>
      <use xlink:href="#DejaVuSans-53" x="761.474609"/>
      <use xlink:href="#DejaVuSans-63" x="824.951172"/>
      <use xlink:href="#DejaVuSans-6f" x="879.931641"/>
      <use xlink:href="#DejaVuSans-72" x="941.113281"/>
      <use xlink:href="#DejaVuSans-65" x="979.976562"/>
      <use xlink:href="#DejaVuSans-20" x="1041.5"/>
      <use xlink:href="#DejaVuSans-28" x="1073.287109"/>
      <use xlink:href="#DejaVuSans-25" x="1112.300781"/>
      <use xlink:href="#DejaVuSans-29" x="1207.320312"/>
     </g>
    </g>
   </g>
   <g id="line2d_11">
    <path d="M 82.671937 63.52376 
L 104.01581 68.44068 
L 125.359684 72.66396 
L 146.703557 78.92664 
L 168.047431 85.747627 
L 189.391304 90.368202 
L 210.735178 103.351273 
L 232.079051 108.013037 
L 253.422925 117.21894 
L 274.766798 123.603009 
L 296.110672 135.403 
" clip-path="url(#pbe0566460f)" style="fill: none; stroke-dasharray: 5.55,2.4; stroke-dashoffset: 0; stroke: #1f77b4; stroke-width: 1.5"/>
    <defs>
     <path id="me4ef5d585b" d="M 0 3 
C 0.795609 3 1.55874 2.683901 2.12132 2.12132 
C 2.683901 1.55874 3 0.795609 3 0 
C 3 -0.795609 2.683901 -1.55874 2.12132 -2.12132 
C 1.55874 -2.683901 0.795609 -3 0 -3 
C -0.795609 -3 -1.55874 -2.683901 -2.12132 -2.12132 
C -2.683901 -1.55874 -3 -0.795609 -3 0 
C -3 0.795609 -2.683901 1.55874 -2.12132 2.12132 
C -1.55874 2.683901 -0.795609 3 0 3 
z
" style="stroke: #1f77b4"/>
    </defs>
    <g clip-path="url(#pbe0566460f)">
     <use xlink:href="#me4ef5d585b" x="82.671937" y="63.52376" style="fill: #1f77b4; stroke: #1f77b4"/>
     <use xlink:href="#me4ef5d585b" x="104.01581" y="68.44068" style="fill: #1f77b4; stroke: #1f77b4"/>
     <use xlink:href="#me4ef5d585b" x="125.359684" y="72.66396" style="fill: #1f77b4; stroke: #1f77b4"/>
     <use xlink:href="#me4ef5d585b" x="146.703557" y="78.92664" style="fill: #1f77b4; stroke: #1f77b4"/>
     <use xlink:href="#me4ef5d585b" x="168.047431" y="85.747627" style="fill: #1f77b4; stroke: #1f77b4"/>
     <use xlink:href="#me4ef5d585b" x="189.391304" y="90.368202" style="fill: #1f77b4; stroke: #1f77b4"/>
     <use xlink:href="#me4ef5d585b" x="210.735178" y="103.351273" style="fill: #1f77b4; stroke: #1f77b4"/>
     <use xlink:href="#me4ef5d585b" x="232.079051" y="108.013037" style="fill: #1f77b4; stroke: #1f77b4"/>
     <use xlink:href="#me4ef5d585b" x="253.422925" y="117.21894" style="fill: #1f77b4; stroke: #1f77b4"/>
     <use xlink:href="#me4ef5d585b" x="274.766798" y="123.603009" style="fill: #1f77b4; stroke: #1f77b4"/>
     <use xlink:href="#me4ef5d585b" x="296.110672" y="135.403" style="fill: #1f77b4; stroke: #1f77b4"/>
    </g>
   </g>
   <g id="line2d_12">
    <path d="M 82.671937 63.52376 
L 104.01581 105.308929 
L 125.359684 108.844501 
L 146.703557 118.282392 
L 168.047431 122.282419 
L 189.391304 126.949681 
L 210.735178 134.629959 
L 232.079051 141.411711 
L 253.422925 146.228737 
L 274.766798 153.930836 
L 296.110672 159.656017 
" clip-path="url(#pbe0566460f)" style="fill: none; stroke-dasharray: 5.55,2.4; stroke-dashoffset: 0; stroke: #ff7f0e; stroke-width: 1.5"/>
    <defs>
     <path id="m437e899dbd" d="M 0 3 
C 0.795609 3 1.55874 2.683901 2.12132 2.12132 
C 2.683901 1.55874 3 0.795609 3 0 
C 3 -0.795609 2.683901 -1.55874 2.12132 -2.12132 
C 1.55874 -2.683901 0.795609 -3 0 -3 
C -0.795609 -3 -1.55874 -2.683901 -2.12132 -2.12132 
C -2.683901 -1.55874 -3 -0.795609 -3 0 
C -3 0.795609 -2.683901 1.55874 -2.12132 2.12132 
C -1.55874 2.683901 -0.795609 3 0 3 
z
" style="stroke: #ff7f0e"/>
    </defs>
    <g clip-path="url(#pbe0566460f)">
     <use xlink:href="#m437e899dbd" x="82.671937" y="63.52376" style="fill: #ff7f0e; stroke: #ff7f0e"/>
     <use xlink:href="#m437e899dbd" x="104.01581" y="105.308929" style="fill: #ff7f0e; stroke: #ff7f0e"/>
     <use xlink:href="#m437e899dbd" x="125.359684" y="108.844501" style="fill: #ff7f0e; stroke: #ff7f0e"/>
     <use xlink:href="#m437e899dbd" x="146.703557" y="118.282392" style="fill: #ff7f0e; stroke: #ff7f0e"/>
     <use xlink:href="#m437e899dbd" x="168.047431" y="122.282419" style="fill: #ff7f0e; stroke: #ff7f0e"/>
     <use xlink:href="#m437e899dbd" x="189.391304" y="126.949681" style="fill: #ff7f0e; stroke: #ff7f0e"/>
     <use xlink:href="#m437e899dbd" x="210.735178" y="134.629959" style="fill: #ff7f0e; stroke: #ff7f0e"/>
     <use xlink:href="#m437e899dbd" x="232.079051" y="141.411711" style="fill: #ff7f0e; stroke: #ff7f0e"/>
     <use xlink:href="#m437e899dbd" x="253.422925" y="146.228737" style="fill: #ff7f0e; stroke: #ff7f0e"/>
     <use xlink:href="#m437e899dbd" x="274.766798" y="153.930836" style="fill: #ff7f0e; stroke: #ff7f0e"/>
     <use xlink:href="#m437e899dbd" x="296.110672" y="159.656017" style="fill: #ff7f0e; stroke: #ff7f0e"/>
    </g>
   </g>
   <g id="line2d_13">
    <path d="M 82.671937 63.52376 
L 104.01581 73.646764 
L 125.359684 85.845524 
L 146.703557 98.990555 
L 168.047431 120.790605 
L 189.391304 143.343372 
L 210.735178 173.85947 
L 232.079051 202.552199 
L 253.422925 211.181285 
L 274.766798 224.3276 
L 296.110672 235.243636 
" clip-path="url(#pbe0566460f)" style="fill: none; stroke-dasharray: 5.55,2.4; stroke-dashoffset: 0; stroke: #2ca02c; stroke-width: 1.5"/>
    <defs>
     <path id="m3bd94304ab" d="M 0 3 
C 0.795609 3 1.55874 2.683901 2.12132 2.12132 
C 2.683901 1.55874 3 0.795609 3 0 
C 3 -0.795609 2.683901 -1.55874 2.12132 -2.12132 
C 1.55874 -2.683901 0.795609 -3 0 -3 
C -0.795609 -3 -1.55874 -2.683901 -2.12132 -2.12132 
C -2.683901 -1.55874 -3 -0.795609 -3 0 
C -3 0.795609 -2.683901 1.55874 -2.12132 2.12132 
C -1.55874 2.683901 -0.795609 3 0 3 
z
" style="stroke: #2ca02c"/>
    </defs>
    <g clip-path="url(#pbe0566460f)">
     <use xlink:href="#m3bd94304ab" x="82.671937" y="63.52376" style="fill: #2ca02c; stroke: #2ca02c"/>
     <use xlink:href="#m3bd94304ab" x="104.01581" y="73.646764" style="fill: #2ca02c; stroke: #2ca02c"/>
     <use xlink:href="#m3bd94304ab" x="125.359684" y="85.845524" style="fill: #2ca02c; stroke: #2ca02c"/>
     <use xlink:href="#m3bd94304ab" x="146.703557" y="98.990555" style="fill: #2ca02c; stroke: #2ca02c"/>
     <use xlink:href="#m3bd94304ab" x="168.047431" y="120.790605" style="fill: #2ca02c; stroke: #2ca02c"/>
     <use xlink:href="#m3bd94304ab" x="189.391304" y="143.343372" style="fill: #2ca02c; stroke: #2ca02c"/>
     <use xlink:href="#m3bd94304ab" x="210.735178" y="173.85947" style="fill: #2ca02c; stroke: #2ca02c"/>
     <use xlink:href="#m3bd94304ab" x="232.079051" y="202.552199" style="fill: #2ca02c; stroke: #2ca02c"/>
     <use xlink:href="#m3bd94304ab" x="253.422925" y="211.181285" style="fill: #2ca02c; stroke: #2ca02c"/>
     <use xlink:href="#m3bd94304ab" x="274.766798" y="224.3276" style="fill: #2ca02c; stroke: #2ca02c"/>
     <use xlink:href="#m3bd94304ab" x="296.110672" y="235.243636" style="fill: #2ca02c; stroke: #2ca02c"/>
    </g>
   </g>
   <g id="line2d_14">
    <path d="M 82.671937 63.52376 
L 104.01581 44.116364 
L 125.359684 61.434843 
L 146.703557 77.585355 
L 168.047431 65.51619 
L 189.391304 76.311944 
L 210.735178 85.522447 
L 232.079051 95.063384 
L 253.422925 93.623039 
L 274.766798 106.294737 
L 296.110672 112.229007 
" clip-path="url(#pbe0566460f)" style="fill: none; stroke-dasharray: 5.55,2.4; stroke-dashoffset: 0; stroke: #d62728; stroke-width: 1.5"/>
    <defs>
     <path id="mb002ecb156" d="M 0 3 
C 0.795609 3 1.55874 2.683901 2.12132 2.12132 
C 2.683901 1.55874 3 0.795609 3 0 
C 3 -0.795609 2.683901 -1.55874 2.12132 -2.12132 
C 1.55874 -2.683901 0.795609 -3 0 -3 
C -0.795609 -3 -1.55874 -2.683901 -2.12132 -2.12132 
C -2.683901 -1.55874 -3 -0.795609 -3 0 
C -3 0.795609 -2.683901 1.55874 -2.12132 2.12132 
C -1.55874 2.683901 -0.795609 3 0 3 
z
" style="stroke: #d62728"/>
    </defs>
    <g clip-path="url(#pbe0566460f)">
     <use xlink:href="#mb002ecb156" x="82.671937" y="63.52376" style="fill: #d62728; stroke: #d62728"/>
     <use xlink:href="#mb002ecb156" x="104.01581" y="44.116364" style="fill: #d62728; stroke: #d62728"/>
     <use xlink:href="#mb002ecb156" x="125.359684" y="61.434843" style="fill: #d62728; stroke: #d62728"/>
     <use xlink:href="#mb002ecb156" x="146.703557" y="77.585355" style="fill: #d62728; stroke: #d62728"/>
     <use xlink:href="#mb002ecb156" x="168.047431" y="65.51619" style="fill: #d62728; stroke: #d62728"/>
     <use xlink:href="#mb002ecb156" x="189.391304" y="76.311944" style="fill: #d62728; stroke: #d62728"/>
     <use xlink:href="#mb002ecb156" x="210.735178" y="85.522447" style="fill: #d62728; stroke: #d62728"/>
     <use xlink:href="#mb002ecb156" x="232.079051" y="95.063384" style="fill: #d62728; stroke: #d62728"/>
     <use xlink:href="#mb002ecb156" x="253.422925" y="93.623039" style="fill: #d62728; stroke: #d62728"/>
     <use xlink:href="#mb002ecb156" x="274.766798" y="106.294737" style="fill: #d62728; stroke: #d62728"/>
     <use xlink:href="#mb002ecb156" x="296.110672" y="112.229007" style="fill: #d62728; stroke: #d62728"/>
    </g>
   </g>
   <g id="patch_3">
    <path d="M 72 244.8 
L 72 34.56 
" style="fill: none; stroke: #000000; stroke-width: 0.8; stroke-linejoin: miter; stroke-linecap: square"/>
   </g>
   <g id="patch_4">
    <path d="M 306.782609 244.8 
L 306.782609 34.56 
" style="fill: none; stroke: #000000; stroke-width: 0.8; stroke-linejoin: miter; stroke-linecap: square"/>
   </g>
   <g id="patch_5">
    <path d="M 72 244.8 
L 306.782609 244.8 
" style="fill: none; stroke: #000000; stroke-width: 0.8; stroke-linejoin: miter; stroke-linecap: square"/>
   </g>
   <g id="patch_6">
    <path d="M 72 34.56 
L 306.782609 34.56 
" style="fill: none; stroke: #000000; stroke-width: 0.8; stroke-linejoin: miter; stroke-linecap: square"/>
   </g>
  </g>
  <g id="axes_2">
   <g id="patch_7">
    <path d="M 377.217391 244.8 
L 612 244.8 
L 612 34.56 
L 377.217391 34.56 
L 377.217391 244.8 
z
" style="fill: none"/>
   </g>
   <g id="matplotlib.axis_3">
    <g id="xtick_6">
     <g id="line2d_15">
      <g>
       <use xlink:href="#mfd46f0736c" x="387.889328" y="244.8" style="stroke: #000000; stroke-width: 0.8"/>
      </g>
     </g>
     <g id="text_13">
      <!-- 0.000 -->
      <g transform="translate(373.575266 259.398438)scale(0.1 -0.1)">
       <use xlink:href="#DejaVuSans-30"/>
       <use xlink:href="#DejaVuSans-2e" x="63.623047"/>
       <use xlink:href="#DejaVuSans-30" x="95.410156"/>
       <use xlink:href="#DejaVuSans-30" x="159.033203"/>
       <use xlink:href="#DejaVuSans-30" x="222.65625"/>
      </g>
     </g>
    </g>
    <g id="xtick_7">
     <g id="line2d_16">
      <g>
       <use xlink:href="#mfd46f0736c" x="441.249012" y="244.8" style="stroke: #000000; stroke-width: 0.8"/>
      </g>
     </g>
     <g id="text_14">
      <!-- 0.005 -->
      <g transform="translate(426.934949 259.398438)scale(0.1 -0.1)">
       <use xlink:href="#DejaVuSans-30"/>
       <use xlink:href="#DejaVuSans-2e" x="63.623047"/>
       <use xlink:href="#DejaVuSans-30" x="95.410156"/>
       <use xlink:href="#DejaVuSans-30" x="159.033203"/>
       <use xlink:href="#DejaVuSans-35" x="222.65625"/>
      </g>
     </g>
    </g>
    <g id="xtick_8">
     <g id="line2d_17">
      <g>
       <use xlink:href="#mfd46f0736c" x="494.608696" y="244.8" style="stroke: #000000; stroke-width: 0.8"/>
      </g>
     </g>
     <g id="text_15">
      <!-- 0.010 -->
      <g transform="translate(480.294633 259.398438)scale(0.1 -0.1)">
       <use xlink:href="#DejaVuSans-30"/>
       <use xlink:href="#DejaVuSans-2e" x="63.623047"/>
       <use xlink:href="#DejaVuSans-30" x="95.410156"/>
       <use xlink:href="#DejaVuSans-31" x="159.033203"/>
       <use xlink:href="#DejaVuSans-30" x="222.65625"/>
      </g>
     </g>
    </g>
    <g id="xtick_9">
     <g id="line2d_18">
      <g>
       <use xlink:href="#mfd46f0736c" x="547.968379" y="244.8" style="stroke: #000000; stroke-width: 0.8"/>
      </g>
     </g>
     <g id="text_16">
      <!-- 0.015 -->
      <g transform="translate(533.654317 259.398438)scale(0.1 -0.1)">
       <use xlink:href="#DejaVuSans-30"/>
       <use xlink:href="#DejaVuSans-2e" x="63.623047"/>
       <use xlink:href="#DejaVuSans-30" x="95.410156"/>
       <use xlink:href="#DejaVuSans-31" x="159.033203"/>
       <use xlink:href="#DejaVuSans-35" x="222.65625"/>
      </g>
     </g>
    </g>
    <g id="xtick_10">
     <g id="line2d_19">
      <g>
       <use xlink:href="#mfd46f0736c" x="601.328063" y="244.8" style="stroke: #000000; stroke-width: 0.8"/>
      </g>
     </g>
     <g id="text_17">
      <!-- 0.020 -->
      <g transform="translate(587.014001 259.398438)scale(0.1 -0.1)">
       <use xlink:href="#DejaVuSans-30"/>
       <use xlink:href="#DejaVuSans-2e" x="63.623047"/>
       <use xlink:href="#DejaVuSans-30" x="95.410156"/>
       <use xlink:href="#DejaVuSans-32" x="159.033203"/>
       <use xlink:href="#DejaVuSans-30" x="222.65625"/>
      </g>
     </g>
    </g>
    <g id="text_18">
     <!-- Input noise strength $\sigma$ -->
     <g transform="translate(417.048696 276.118125)scale(0.14 -0.14)">
      <use xlink:href="#DejaVuSans-49" transform="translate(0 0.015625)"/>
      <use xlink:href="#DejaVuSans-6e" transform="translate(29.492188 0.015625)"/>
      <use xlink:href="#DejaVuSans-70" transform="translate(92.871094 0.015625)"/>
      <use xlink:href="#DejaVuSans-75" transform="translate(156.347656 0.015625)"/>
      <use xlink:href="#DejaVuSans-74" transform="translate(219.726562 0.015625)"/>
      <use xlink:href="#DejaVuSans-20" transform="translate(258.935547 0.015625)"/>
      <use xlink:href="#DejaVuSans-6e" transform="translate(290.722656 0.015625)"/>
      <use xlink:href="#DejaVuSans-6f" transform="translate(354.101562 0.015625)"/>
      <use xlink:href="#DejaVuSans-69" transform="translate(415.283203 0.015625)"/>
      <use xlink:href="#DejaVuSans-73" transform="translate(443.066406 0.015625)"/>
      <use xlink:href="#DejaVuSans-65" transform="translate(495.166016 0.015625)"/>
      <use xlink:href="#DejaVuSans-20" transform="translate(556.689453 0.015625)"/>
      <use xlink:href="#DejaVuSans-73" transform="translate(588.476562 0.015625)"/>
      <use xlink:href="#DejaVuSans-74" transform="translate(640.576172 0.015625)"/>
      <use xlink:href="#DejaVuSans-72" transform="translate(679.785156 0.015625)"/>
      <use xlink:href="#DejaVuSans-65" transform="translate(720.898438 0.015625)"/>
      <use xlink:href="#DejaVuSans-6e" transform="translate(782.421875 0.015625)"/>
      <use xlink:href="#DejaVuSans-67" transform="translate(845.800781 0.015625)"/>
      <use xlink:href="#DejaVuSans-74" transform="translate(909.277344 0.015625)"/>
      <use xlink:href="#DejaVuSans-68" transform="translate(948.486328 0.015625)"/>
      <use xlink:href="#DejaVuSans-20" transform="translate(1011.865234 0.015625)"/>
      <use xlink:href="#DejaVuSans-Oblique-3c3" transform="translate(1043.652344 0.015625)"/>
     </g>
    </g>
   </g>
   <g id="matplotlib.axis_4">
    <g id="ytick_6">
     <g id="line2d_20">
      <g>
       <use xlink:href="#m521bda465e" x="377.217391" y="244.364262" style="stroke: #000000; stroke-width: 0.8"/>
      </g>
     </g>
     <g id="text_19">
      <!-- 70 -->
      <g transform="translate(357.492391 248.163481)scale(0.1 -0.1)">
       <use xlink:href="#DejaVuSans-37"/>
       <use xlink:href="#DejaVuSans-30" x="63.623047"/>
      </g>
     </g>
    </g>
    <g id="ytick_7">
     <g id="line2d_21">
      <g>
       <use xlink:href="#m521bda465e" x="377.217391" y="210.989612" style="stroke: #000000; stroke-width: 0.8"/>
      </g>
     </g>
     <g id="text_20">
      <!-- 75 -->
      <g transform="translate(357.492391 214.788831)scale(0.1 -0.1)">
       <use xlink:href="#DejaVuSans-37"/>
       <use xlink:href="#DejaVuSans-35" x="63.623047"/>
      </g>
     </g>
    </g>
    <g id="ytick_8">
     <g id="line2d_22">
      <g>
       <use xlink:href="#m521bda465e" x="377.217391" y="177.614963" style="stroke: #000000; stroke-width: 0.8"/>
      </g>
     </g>
     <g id="text_21">
      <!-- 80 -->
      <g transform="translate(357.492391 181.414181)scale(0.1 -0.1)">
       <use xlink:href="#DejaVuSans-38"/>
       <use xlink:href="#DejaVuSans-30" x="63.623047"/>
      </g>
     </g>
    </g>
    <g id="ytick_9">
     <g id="line2d_23">
      <g>
       <use xlink:href="#m521bda465e" x="377.217391" y="144.240313" style="stroke: #000000; stroke-width: 0.8"/>
      </g>
     </g>
     <g id="text_22">
      <!-- 85 -->
      <g transform="translate(357.492391 148.039532)scale(0.1 -0.1)">
       <use xlink:href="#DejaVuSans-38"/>
       <use xlink:href="#DejaVuSans-35" x="63.623047"/>
      </g>
     </g>
    </g>
    <g id="ytick_10">
     <g id="line2d_24">
      <g>
       <use xlink:href="#m521bda465e" x="377.217391" y="110.865663" style="stroke: #000000; stroke-width: 0.8"/>
      </g>
     </g>
     <g id="text_23">
      <!-- 90 -->
      <g transform="translate(357.492391 114.664882)scale(0.1 -0.1)">
       <use xlink:href="#DejaVuSans-39"/>
       <use xlink:href="#DejaVuSans-30" x="63.623047"/>
      </g>
     </g>
    </g>
    <g id="ytick_11">
     <g id="line2d_25">
      <g>
       <use xlink:href="#m521bda465e" x="377.217391" y="77.491013" style="stroke: #000000; stroke-width: 0.8"/>
      </g>
     </g>
     <g id="text_24">
      <!-- 95 -->
      <g transform="translate(357.492391 81.290232)scale(0.1 -0.1)">
       <use xlink:href="#DejaVuSans-39"/>
       <use xlink:href="#DejaVuSans-35" x="63.623047"/>
      </g>
     </g>
    </g>
    <g id="ytick_12">
     <g id="line2d_26">
      <g>
       <use xlink:href="#m521bda465e" x="377.217391" y="44.116364" style="stroke: #000000; stroke-width: 0.8"/>
      </g>
     </g>
     <g id="text_25">
      <!-- 100 -->
      <g transform="translate(351.129891 47.915582)scale(0.1 -0.1)">
       <use xlink:href="#DejaVuSans-31"/>
       <use xlink:href="#DejaVuSans-30" x="63.623047"/>
       <use xlink:href="#DejaVuSans-30" x="127.246094"/>
      </g>
     </g>
    </g>
    <g id="text_26">
     <!-- Change in Max F1 Score (%) -->
     <g transform="translate(344.218329 238.654531)rotate(-90)scale(0.14 -0.14)">
      <defs>
       <path id="DejaVuSans-4d" d="M 628 4666 
L 1569 4666 
L 2759 1491 
L 3956 4666 
L 4897 4666 
L 4897 0 
L 4281 0 
L 4281 4097 
L 3078 897 
L 2444 897 
L 1241 4097 
L 1241 0 
L 628 0 
L 628 4666 
z
" transform="scale(0.015625)"/>
       <path id="DejaVuSans-78" d="M 3513 3500 
L 2247 1797 
L 3578 0 
L 2900 0 
L 1881 1375 
L 863 0 
L 184 0 
L 1544 1831 
L 300 3500 
L 978 3500 
L 1906 2253 
L 2834 3500 
L 3513 3500 
z
" transform="scale(0.015625)"/>
       <path id="DejaVuSans-46" d="M 628 4666 
L 3309 4666 
L 3309 4134 
L 1259 4134 
L 1259 2759 
L 3109 2759 
L 3109 2228 
L 1259 2228 
L 1259 0 
L 628 0 
L 628 4666 
z
" transform="scale(0.015625)"/>
      </defs>
      <use xlink:href="#DejaVuSans-43"/>
      <use xlink:href="#DejaVuSans-68" x="69.824219"/>
      <use xlink:href="#DejaVuSans-61" x="133.203125"/>
      <use xlink:href="#DejaVuSans-6e" x="194.482422"/>
      <use xlink:href="#DejaVuSans-67" x="257.861328"/>
      <use xlink:href="#DejaVuSans-65" x="321.337891"/>
      <use xlink:href="#DejaVuSans-20" x="382.861328"/>
      <use xlink:href="#DejaVuSans-69" x="414.648438"/>
      <use xlink:href="#DejaVuSans-6e" x="442.431641"/>
      <use xlink:href="#DejaVuSans-20" x="505.810547"/>
      <use xlink:href="#DejaVuSans-4d" x="537.597656"/>
      <use xlink:href="#DejaVuSans-61" x="623.876953"/>
      <use xlink:href="#DejaVuSans-78" x="685.15625"/>
      <use xlink:href="#DejaVuSans-20" x="744.335938"/>
      <use xlink:href="#DejaVuSans-46" x="776.123047"/>
      <use xlink:href="#DejaVuSans-31" x="833.642578"/>
      <use xlink:href="#DejaVuSans-20" x="897.265625"/>
      <use xlink:href="#DejaVuSans-53" x="929.052734"/>
      <use xlink:href="#DejaVuSans-63" x="992.529297"/>
      <use xlink:href="#DejaVuSans-6f" x="1047.509766"/>
      <use xlink:href="#DejaVuSans-72" x="1108.691406"/>
      <use xlink:href="#DejaVuSans-65" x="1147.554688"/>
      <use xlink:href="#DejaVuSans-20" x="1209.078125"/>
      <use xlink:href="#DejaVuSans-28" x="1240.865234"/>
      <use xlink:href="#DejaVuSans-25" x="1279.878906"/>
      <use xlink:href="#DejaVuSans-29" x="1374.898438"/>
     </g>
    </g>
   </g>
   <g id="line2d_27">
    <path d="M 387.889328 44.116364 
L 409.233202 53.281263 
L 430.577075 57.607322 
L 451.920949 65.254806 
L 473.264822 74.076413 
L 494.608696 82.124958 
L 515.952569 93.226099 
L 537.296443 101.75902 
L 558.640316 114.457321 
L 579.98419 123.581369 
L 601.328063 135.917699 
" clip-path="url(#pa94c787772)" style="fill: none; stroke-dasharray: 5.55,2.4; stroke-dashoffset: 0; stroke: #1f77b4; stroke-width: 1.5"/>
    <g clip-path="url(#pa94c787772)">
     <use xlink:href="#me4ef5d585b" x="387.889328" y="44.116364" style="fill: #1f77b4; stroke: #1f77b4"/>
     <use xlink:href="#me4ef5d585b" x="409.233202" y="53.281263" style="fill: #1f77b4; stroke: #1f77b4"/>
     <use xlink:href="#me4ef5d585b" x="430.577075" y="57.607322" style="fill: #1f77b4; stroke: #1f77b4"/>
     <use xlink:href="#me4ef5d585b" x="451.920949" y="65.254806" style="fill: #1f77b4; stroke: #1f77b4"/>
     <use xlink:href="#me4ef5d585b" x="473.264822" y="74.076413" style="fill: #1f77b4; stroke: #1f77b4"/>
     <use xlink:href="#me4ef5d585b" x="494.608696" y="82.124958" style="fill: #1f77b4; stroke: #1f77b4"/>
     <use xlink:href="#me4ef5d585b" x="515.952569" y="93.226099" style="fill: #1f77b4; stroke: #1f77b4"/>
     <use xlink:href="#me4ef5d585b" x="537.296443" y="101.75902" style="fill: #1f77b4; stroke: #1f77b4"/>
     <use xlink:href="#me4ef5d585b" x="558.640316" y="114.457321" style="fill: #1f77b4; stroke: #1f77b4"/>
     <use xlink:href="#me4ef5d585b" x="579.98419" y="123.581369" style="fill: #1f77b4; stroke: #1f77b4"/>
     <use xlink:href="#me4ef5d585b" x="601.328063" y="135.917699" style="fill: #1f77b4; stroke: #1f77b4"/>
    </g>
   </g>
   <g id="line2d_28">
    <path d="M 387.889328 44.116364 
L 409.233202 84.387265 
L 430.577075 90.959543 
L 451.920949 102.080766 
L 473.264822 114.506462 
L 494.608696 124.818329 
L 515.952569 137.520847 
L 537.296443 146.268958 
L 558.640316 156.969371 
L 579.98419 166.842504 
L 601.328063 173.991892 
" clip-path="url(#pa94c787772)" style="fill: none; stroke-dasharray: 5.55,2.4; stroke-dashoffset: 0; stroke: #ff7f0e; stroke-width: 1.5"/>
    <g clip-path="url(#pa94c787772)">
     <use xlink:href="#m437e899dbd" x="387.889328" y="44.116364" style="fill: #ff7f0e; stroke: #ff7f0e"/>
     <use xlink:href="#m437e899dbd" x="409.233202" y="84.387265" style="fill: #ff7f0e; stroke: #ff7f0e"/>
     <use xlink:href="#m437e899dbd" x="430.577075" y="90.959543" style="fill: #ff7f0e; stroke: #ff7f0e"/>
     <use xlink:href="#m437e899dbd" x="451.920949" y="102.080766" style="fill: #ff7f0e; stroke: #ff7f0e"/>
     <use xlink:href="#m437e899dbd" x="473.264822" y="114.506462" style="fill: #ff7f0e; stroke: #ff7f0e"/>
     <use xlink:href="#m437e899dbd" x="494.608696" y="124.818329" style="fill: #ff7f0e; stroke: #ff7f0e"/>
     <use xlink:href="#m437e899dbd" x="515.952569" y="137.520847" style="fill: #ff7f0e; stroke: #ff7f0e"/>
     <use xlink:href="#m437e899dbd" x="537.296443" y="146.268958" style="fill: #ff7f0e; stroke: #ff7f0e"/>
     <use xlink:href="#m437e899dbd" x="558.640316" y="156.969371" style="fill: #ff7f0e; stroke: #ff7f0e"/>
     <use xlink:href="#m437e899dbd" x="579.98419" y="166.842504" style="fill: #ff7f0e; stroke: #ff7f0e"/>
     <use xlink:href="#m437e899dbd" x="601.328063" y="173.991892" style="fill: #ff7f0e; stroke: #ff7f0e"/>
    </g>
   </g>
   <g id="line2d_29">
    <path d="M 387.889328 44.116364 
L 409.233202 50.709592 
L 430.577075 69.191284 
L 451.920949 105.16721 
L 473.264822 132.063305 
L 494.608696 146.979384 
L 515.952569 172.78268 
L 537.296443 192.286043 
L 558.640316 206.648102 
L 579.98419 222.392194 
L 601.328063 235.243636 
" clip-path="url(#pa94c787772)" style="fill: none; stroke-dasharray: 5.55,2.4; stroke-dashoffset: 0; stroke: #2ca02c; stroke-width: 1.5"/>
    <g clip-path="url(#pa94c787772)">
     <use xlink:href="#m3bd94304ab" x="387.889328" y="44.116364" style="fill: #2ca02c; stroke: #2ca02c"/>
     <use xlink:href="#m3bd94304ab" x="409.233202" y="50.709592" style="fill: #2ca02c; stroke: #2ca02c"/>
     <use xlink:href="#m3bd94304ab" x="430.577075" y="69.191284" style="fill: #2ca02c; stroke: #2ca02c"/>
     <use xlink:href="#m3bd94304ab" x="451.920949" y="105.16721" style="fill: #2ca02c; stroke: #2ca02c"/>
     <use xlink:href="#m3bd94304ab" x="473.264822" y="132.063305" style="fill: #2ca02c; stroke: #2ca02c"/>
     <use xlink:href="#m3bd94304ab" x="494.608696" y="146.979384" style="fill: #2ca02c; stroke: #2ca02c"/>
     <use xlink:href="#m3bd94304ab" x="515.952569" y="172.78268" style="fill: #2ca02c; stroke: #2ca02c"/>
     <use xlink:href="#m3bd94304ab" x="537.296443" y="192.286043" style="fill: #2ca02c; stroke: #2ca02c"/>
     <use xlink:href="#m3bd94304ab" x="558.640316" y="206.648102" style="fill: #2ca02c; stroke: #2ca02c"/>
     <use xlink:href="#m3bd94304ab" x="579.98419" y="222.392194" style="fill: #2ca02c; stroke: #2ca02c"/>
     <use xlink:href="#m3bd94304ab" x="601.328063" y="235.243636" style="fill: #2ca02c; stroke: #2ca02c"/>
    </g>
   </g>
   <g id="line2d_30">
    <path d="M 387.889328 44.116364 
L 409.233202 61.025054 
L 430.577075 75.566296 
L 451.920949 82.513736 
L 473.264822 93.852865 
L 494.608696 102.939715 
L 515.952569 118.842357 
L 537.296443 128.506643 
L 558.640316 137.120091 
L 579.98419 144.469875 
L 601.328063 152.587235 
" clip-path="url(#pa94c787772)" style="fill: none; stroke-dasharray: 5.55,2.4; stroke-dashoffset: 0; stroke: #d62728; stroke-width: 1.5"/>
    <g clip-path="url(#pa94c787772)">
     <use xlink:href="#mb002ecb156" x="387.889328" y="44.116364" style="fill: #d62728; stroke: #d62728"/>
     <use xlink:href="#mb002ecb156" x="409.233202" y="61.025054" style="fill: #d62728; stroke: #d62728"/>
     <use xlink:href="#mb002ecb156" x="430.577075" y="75.566296" style="fill: #d62728; stroke: #d62728"/>
     <use xlink:href="#mb002ecb156" x="451.920949" y="82.513736" style="fill: #d62728; stroke: #d62728"/>
     <use xlink:href="#mb002ecb156" x="473.264822" y="93.852865" style="fill: #d62728; stroke: #d62728"/>
     <use xlink:href="#mb002ecb156" x="494.608696" y="102.939715" style="fill: #d62728; stroke: #d62728"/>
     <use xlink:href="#mb002ecb156" x="515.952569" y="118.842357" style="fill: #d62728; stroke: #d62728"/>
     <use xlink:href="#mb002ecb156" x="537.296443" y="128.506643" style="fill: #d62728; stroke: #d62728"/>
     <use xlink:href="#mb002ecb156" x="558.640316" y="137.120091" style="fill: #d62728; stroke: #d62728"/>
     <use xlink:href="#mb002ecb156" x="579.98419" y="144.469875" style="fill: #d62728; stroke: #d62728"/>
     <use xlink:href="#mb002ecb156" x="601.328063" y="152.587235" style="fill: #d62728; stroke: #d62728"/>
    </g>
   </g>
   <g id="patch_8">
    <path d="M 377.217391 244.8 
L 377.217391 34.56 
" style="fill: none; stroke: #000000; stroke-width: 0.8; stroke-linejoin: miter; stroke-linecap: square"/>
   </g>
   <g id="patch_9">
    <path d="M 612 244.8 
L 612 34.56 
" style="fill: none; stroke: #000000; stroke-width: 0.8; stroke-linejoin: miter; stroke-linecap: square"/>
   </g>
   <g id="patch_10">
    <path d="M 377.217391 244.8 
L 612 244.8 
" style="fill: none; stroke: #000000; stroke-width: 0.8; stroke-linejoin: miter; stroke-linecap: square"/>
   </g>
   <g id="patch_11">
    <path d="M 377.217391 34.56 
L 612 34.56 
" style="fill: none; stroke: #000000; stroke-width: 0.8; stroke-linejoin: miter; stroke-linecap: square"/>
   </g>
   <g id="legend_1">
    <g id="patch_12">
     <path d="M 625.73913 96.2725 
L 694.393818 96.2725 
Q 696.393818 96.2725 696.393818 94.2725 
L 696.393818 36.56 
Q 696.393818 34.56 694.393818 34.56 
L 625.73913 34.56 
Q 623.73913 34.56 623.73913 36.56 
L 623.73913 94.2725 
Q 623.73913 96.2725 625.73913 96.2725 
z
" style="fill: #ffffff; opacity: 0.8; stroke: #cccccc; stroke-linejoin: miter"/>
    </g>
    <g id="line2d_31">
     <path d="M 627.73913 42.658437 
L 637.73913 42.658437 
L 647.73913 42.658437 
" style="fill: none; stroke-dasharray: 5.55,2.4; stroke-dashoffset: 0; stroke: #1f77b4; stroke-width: 1.5"/>
     <g>
      <use xlink:href="#me4ef5d585b" x="637.73913" y="42.658437" style="fill: #1f77b4; stroke: #1f77b4"/>
     </g>
    </g>
    <g id="text_27">
     <!-- MD-RS -->
     <g transform="translate(655.73913 46.158437)scale(0.1 -0.1)">
      <defs>
       <path id="DejaVuSans-44" d="M 1259 4147 
L 1259 519 
L 2022 519 
Q 2988 519 3436 956 
Q 3884 1394 3884 2338 
Q 3884 3275 3436 3711 
Q 2988 4147 2022 4147 
L 1259 4147 
z
M 628 4666 
L 1925 4666 
Q 3281 4666 3915 4102 
Q 4550 3538 4550 2338 
Q 4550 1131 3912 565 
Q 3275 0 1925 0 
L 628 0 
L 628 4666 
z
" transform="scale(0.015625)"/>
       <path id="DejaVuSans-2d" d="M 313 2009 
L 1997 2009 
L 1997 1497 
L 313 1497 
L 313 2009 
z
" transform="scale(0.015625)"/>
       <path id="DejaVuSans-52" d="M 2841 2188 
Q 3044 2119 3236 1894 
Q 3428 1669 3622 1275 
L 4263 0 
L 3584 0 
L 2988 1197 
Q 2756 1666 2539 1819 
Q 2322 1972 1947 1972 
L 1259 1972 
L 1259 0 
L 628 0 
L 628 4666 
L 2053 4666 
Q 2853 4666 3247 4331 
Q 3641 3997 3641 3322 
Q 3641 2881 3436 2590 
Q 3231 2300 2841 2188 
z
M 1259 4147 
L 1259 2491 
L 2053 2491 
Q 2509 2491 2742 2702 
Q 2975 2913 2975 3322 
Q 2975 3731 2742 3939 
Q 2509 4147 2053 4147 
L 1259 4147 
z
" transform="scale(0.015625)"/>
      </defs>
      <use xlink:href="#DejaVuSans-4d"/>
      <use xlink:href="#DejaVuSans-44" x="86.279297"/>
      <use xlink:href="#DejaVuSans-2d" x="163.28125"/>
      <use xlink:href="#DejaVuSans-52" x="199.365234"/>
      <use xlink:href="#DejaVuSans-53" x="268.847656"/>
     </g>
    </g>
    <g id="line2d_32">
     <path d="M 627.73913 57.336562 
L 637.73913 57.336562 
L 647.73913 57.336562 
" style="fill: none; stroke-dasharray: 5.55,2.4; stroke-dashoffset: 0; stroke: #ff7f0e; stroke-width: 1.5"/>
     <g>
      <use xlink:href="#m437e899dbd" x="637.73913" y="57.336562" style="fill: #ff7f0e; stroke: #ff7f0e"/>
     </g>
    </g>
    <g id="text_28">
     <!-- TRAKR -->
     <g transform="translate(655.73913 60.836562)scale(0.1 -0.1)">
      <defs>
       <path id="DejaVuSans-54" d="M -19 4666 
L 3928 4666 
L 3928 4134 
L 2272 4134 
L 2272 0 
L 1638 0 
L 1638 4134 
L -19 4134 
L -19 4666 
z
" transform="scale(0.015625)"/>
       <path id="DejaVuSans-41" d="M 2188 4044 
L 1331 1722 
L 3047 1722 
L 2188 4044 
z
M 1831 4666 
L 2547 4666 
L 4325 0 
L 3669 0 
L 3244 1197 
L 1141 1197 
L 716 0 
L 50 0 
L 1831 4666 
z
" transform="scale(0.015625)"/>
       <path id="DejaVuSans-4b" d="M 628 4666 
L 1259 4666 
L 1259 2694 
L 3353 4666 
L 4166 4666 
L 1850 2491 
L 4331 0 
L 3500 0 
L 1259 2247 
L 1259 0 
L 628 0 
L 628 4666 
z
" transform="scale(0.015625)"/>
      </defs>
      <use xlink:href="#DejaVuSans-54"/>
      <use xlink:href="#DejaVuSans-52" x="61.083984"/>
      <use xlink:href="#DejaVuSans-41" x="126.566406"/>
      <use xlink:href="#DejaVuSans-4b" x="194.974609"/>
      <use xlink:href="#DejaVuSans-52" x="260.550781"/>
     </g>
    </g>
    <g id="line2d_33">
     <path d="M 627.73913 72.014687 
L 637.73913 72.014687 
L 647.73913 72.014687 
" style="fill: none; stroke-dasharray: 5.55,2.4; stroke-dashoffset: 0; stroke: #2ca02c; stroke-width: 1.5"/>
     <g>
      <use xlink:href="#m3bd94304ab" x="637.73913" y="72.014687" style="fill: #2ca02c; stroke: #2ca02c"/>
     </g>
    </g>
    <g id="text_29">
     <!-- RC-SRE -->
     <g transform="translate(655.73913 75.514687)scale(0.1 -0.1)">
      <use xlink:href="#DejaVuSans-52"/>
      <use xlink:href="#DejaVuSans-43" x="64.482422"/>
      <use xlink:href="#DejaVuSans-2d" x="134.306641"/>
      <use xlink:href="#DejaVuSans-53" x="170.390625"/>
      <use xlink:href="#DejaVuSans-52" x="233.867188"/>
      <use xlink:href="#DejaVuSans-45" x="303.349609"/>
     </g>
    </g>
    <g id="line2d_34">
     <path d="M 627.73913 86.692813 
L 637.73913 86.692813 
L 647.73913 86.692813 
" style="fill: none; stroke-dasharray: 5.55,2.4; stroke-dashoffset: 0; stroke: #d62728; stroke-width: 1.5"/>
     <g>
      <use xlink:href="#mb002ecb156" x="637.73913" y="86.692813" style="fill: #d62728; stroke: #d62728"/>
     </g>
    </g>
    <g id="text_30">
     <!-- MD-SW -->
     <g transform="translate(655.73913 90.192813)scale(0.1 -0.1)">
      <defs>
       <path id="DejaVuSans-57" d="M 213 4666 
L 850 4666 
L 1831 722 
L 2809 4666 
L 3519 4666 
L 4500 722 
L 5478 4666 
L 6119 4666 
L 4947 0 
L 4153 0 
L 3169 4050 
L 2175 0 
L 1381 0 
L 213 4666 
z
" transform="scale(0.015625)"/>
      </defs>
      <use xlink:href="#DejaVuSans-4d"/>
      <use xlink:href="#DejaVuSans-44" x="86.279297"/>
      <use xlink:href="#DejaVuSans-2d" x="163.28125"/>
      <use xlink:href="#DejaVuSans-53" x="199.365234"/>
      <use xlink:href="#DejaVuSans-57" x="262.841797"/>
     </g>
    </g>
   </g>
  </g>
 </g>
 <defs>
  <clipPath id="pbe0566460f">
   <rect x="72" y="34.56" width="234.782609" height="210.24"/>
  </clipPath>
  <clipPath id="pa94c787772">
   <rect x="377.217391" y="34.56" width="234.782609" height="210.24"/>
  </clipPath>
 </defs>
</svg>
