<?xml version="1.0" encoding="utf-8" standalone="no"?>
<!DOCTYPE svg PUBLIC "-//W3C//DTD SVG 1.1//EN"
  "http://www.w3.org/Graphics/SVG/1.1/DTD/svg11.dtd">
<svg xmlns:xlink="http://www.w3.org/1999/xlink" width="922.32pt" height="288pt" viewBox="0 0 922.32 288" xmlns="http://www.w3.org/2000/svg" version="1.1">
 <metadata>
  <rdf:RDF xmlns:dc="http://purl.org/dc/elements/1.1/" xmlns:cc="http://creativecommons.org/ns#" xmlns:rdf="http://www.w3.org/1999/02/22-rdf-syntax-ns#">
   <cc:Work>
    <dc:type rdf:resource="http://purl.org/dc/dcmitype/StillImage"/>
    <dc:date>2022-11-11T22:08:19.088726</dc:date>
    <dc:format>image/svg+xml</dc:format>
    <dc:creator>
     <cc:Agent>
      <dc:title>Matplotlib v3.5.1, https://matplotlib.org/</dc:title>
     </cc:Agent>
    </dc:creator>
   </cc:Work>
  </rdf:RDF>
 </metadata>
 <defs>
  <style type="text/css">*{stroke-linejoin: round; stroke-linecap: butt}</style>
 </defs>
 <g id="figure_1">
  <g id="patch_1">
   <path d="M 0 288 
L 922.32 288 
L 922.32 0 
L 0 0 
z
" style="fill: #ffffff"/>
  </g>
  <g id="axes_1">
   <g id="patch_2">
    <path d="M 115.29 82.768696 
L 830.088 82.768696 
L 830.088 34.56 
L 115.29 34.56 
z
" style="fill: #ffffff"/>
   </g>
   <g id="patch_3">
    <path d="M 331.475037 82.768696 
L 331.475037 34.56 
L 333.022587 34.56 
L 333.022587 82.768696 
z
" clip-path="url(#p6424fba99b)" style="fill: #ff7f50; stroke: #ff7f50; stroke-linejoin: miter"/>
   </g>
   <g id="matplotlib.axis_1"/>
   <g id="matplotlib.axis_2">
    <g id="text_1">
     <!-- Input -->
     <g transform="translate(108.378438 76.789973)rotate(-90)scale(0.14 -0.14)">
      <defs>
       <path id="DejaVuSans-49" d="M 628 4666 
L 1259 4666 
L 1259 0 
L 628 0 
L 628 4666 
z
" transform="scale(0.015625)"/>
       <path id="DejaVuSans-6e" d="M 3513 2113 
L 3513 0 
L 2938 0 
L 2938 2094 
Q 2938 2591 2744 2837 
Q 2550 3084 2163 3084 
Q 1697 3084 1428 2787 
Q 1159 2491 1159 1978 
L 1159 0 
L 581 0 
L 581 3500 
L 1159 3500 
L 1159 2956 
Q 1366 3272 1645 3428 
Q 1925 3584 2291 3584 
Q 2894 3584 3203 3211 
Q 3513 2838 3513 2113 
z
" transform="scale(0.015625)"/>
       <path id="DejaVuSans-70" d="M 1159 525 
L 1159 -1331 
L 581 -1331 
L 581 3500 
L 1159 3500 
L 1159 2969 
Q 1341 3281 1617 3432 
Q 1894 3584 2278 3584 
Q 2916 3584 3314 3078 
Q 3713 2572 3713 1747 
Q 3713 922 3314 415 
Q 2916 -91 2278 -91 
Q 1894 -91 1617 61 
Q 1341 213 1159 525 
z
M 3116 1747 
Q 3116 2381 2855 2742 
Q 2594 3103 2138 3103 
Q 1681 3103 1420 2742 
Q 1159 2381 1159 1747 
Q 1159 1113 1420 752 
Q 1681 391 2138 391 
Q 2594 391 2855 752 
Q 3116 1113 3116 1747 
z
" transform="scale(0.015625)"/>
       <path id="DejaVuSans-75" d="M 544 1381 
L 544 3500 
L 1119 3500 
L 1119 1403 
Q 1119 906 1312 657 
Q 1506 409 1894 409 
Q 2359 409 2629 706 
Q 2900 1003 2900 1516 
L 2900 3500 
L 3475 3500 
L 3475 0 
L 2900 0 
L 2900 538 
Q 2691 219 2414 64 
Q 2138 -91 1772 -91 
Q 1169 -91 856 284 
Q 544 659 544 1381 
z
M 1991 3584 
L 1991 3584 
z
" transform="scale(0.015625)"/>
       <path id="DejaVuSans-74" d="M 1172 4494 
L 1172 3500 
L 2356 3500 
L 2356 3053 
L 1172 3053 
L 1172 1153 
Q 1172 725 1289 603 
Q 1406 481 1766 481 
L 2356 481 
L 2356 0 
L 1766 0 
Q 1100 0 847 248 
Q 594 497 594 1153 
L 594 3053 
L 172 3053 
L 172 3500 
L 594 3500 
L 594 4494 
L 1172 4494 
z
" transform="scale(0.015625)"/>
      </defs>
      <use xlink:href="#DejaVuSans-49"/>
      <use xlink:href="#DejaVuSans-6e" x="29.492188"/>
      <use xlink:href="#DejaVuSans-70" x="92.871094"/>
      <use xlink:href="#DejaVuSans-75" x="156.347656"/>
      <use xlink:href="#DejaVuSans-74" x="219.726562"/>
     </g>
    </g>
   </g>
   <g id="line2d_1">
    <path d="M 147.780818 76.645939 
L 148.090328 77.037341 
L 148.399838 77.400774 
L 149.018858 78.256966 
L 149.173613 78.253467 
L 149.637879 78.515562 
L 149.792634 78.452663 
L 150.102144 77.897014 
L 150.256899 77.617449 
L 150.875919 74.168248 
L 153.197244 55.538386 
L 153.971019 51.257461 
L 155.673325 43.737029 
L 156.13759 41.612292 
L 156.75661 39.375736 
L 157.220875 38.547493 
L 157.530385 38.306377 
L 157.839895 38.337799 
L 158.30416 39.284859 
L 158.61367 40.556913 
L 159.077935 43.038103 
L 160.315975 53.501017 
L 162.018281 63.090277 
L 163.101566 66.015279 
L 163.720586 67.102108 
L 166.196667 70.918242 
L 166.351422 71.01959 
L 166.506177 71.463402 
L 166.815687 71.673087 
L 167.434707 72.242706 
L 168.208482 72.55023 
L 168.363237 72.787865 
L 168.517992 72.791365 
L 168.672747 72.997551 
L 169.137012 73.03948 
L 169.291767 73.088409 
L 169.446522 73.305075 
L 169.601277 73.221206 
L 169.910787 73.406422 
L 170.065542 73.486792 
L 170.220297 73.409913 
L 170.375052 73.860724 
L 170.529807 73.59163 
L 170.684562 73.794325 
L 170.839317 73.651038 
L 170.994072 73.874703 
L 171.148827 73.829265 
L 171.303582 74.017981 
L 171.458338 73.923623 
L 171.613093 74.017981 
L 171.767848 74.248626 
L 172.077358 74.280076 
L 172.232113 74.384914 
L 172.541623 74.377924 
L 172.851133 74.660988 
L 173.315398 75.122279 
L 173.470153 75.05938 
L 173.934418 75.548621 
L 174.243928 75.594059 
L 174.553438 76.009912 
L 174.862948 76.223087 
L 175.327213 76.701848 
L 175.636723 76.960453 
L 175.791478 77.240027 
L 175.946233 77.260996 
L 176.565253 77.921474 
L 176.720008 78.06476 
L 176.874763 78.414223 
L 177.339029 78.637879 
L 177.803294 79.162069 
L 178.422314 79.343795 
L 178.731824 79.273897 
L 179.041334 78.547012 
L 179.660354 75.653468 
L 179.969864 73.731417 
L 181.362659 63.656406 
L 182.291189 58.127905 
L 182.91021 55.492957 
L 184.922025 48.070364 
L 185.541045 46.525735 
L 186.00531 45.837298 
L 186.160065 45.970095 
L 186.31482 45.893208 
L 186.62433 46.574664 
L 186.93384 47.360958 
L 187.86237 52.84053 
L 188.481391 56.702094 
L 190.183696 64.872541 
L 191.731246 69.097538 
L 193.743062 73.256146 
L 194.052572 73.720936 
L 194.516837 74.433842 
L 194.671592 74.384914 
L 195.290612 75.206148 
L 195.445367 75.202657 
L 195.909632 75.642979 
L 196.064387 75.723357 
L 196.219142 75.964483 
L 196.838162 75.995941 
L 197.302427 76.404813 
L 197.457182 76.345404 
L 197.611937 76.499162 
L 197.766692 76.177658 
L 198.076202 76.551581 
L 198.230957 76.638949 
L 198.540467 76.57954 
L 198.849978 76.719327 
L 199.004733 76.56556 
L 199.159488 76.712337 
L 199.468998 76.691368 
L 199.933263 76.820666 
L 200.088018 76.715828 
L 200.242773 76.880074 
L 200.397528 76.827655 
L 201.326058 77.267986 
L 201.480813 77.247017 
L 201.635568 77.432233 
L 201.790323 77.313415 
L 202.099833 77.512611 
L 202.718853 77.862065 
L 202.873608 77.781696 
L 203.028363 78.036801 
L 203.183118 77.935453 
L 203.492628 78.242987 
L 203.647383 78.298896 
L 203.956893 78.630889 
L 204.730669 79.172558 
L 205.040179 79.480083 
L 205.194934 79.556961 
L 205.349689 79.833036 
L 205.504444 79.826046 
L 205.659199 80.063681 
L 205.813954 79.941373 
L 205.968709 80.276857 
L 206.742484 80.577391 
L 207.051994 80.10213 
L 207.516259 78.344325 
L 207.980524 76.030881 
L 208.754299 70.222815 
L 210.61136 58.246723 
L 211.23038 55.943759 
L 211.53989 55.105055 
L 212.004155 53.427628 
L 213.551705 48.168212 
L 214.170725 47.032464 
L 214.32548 47.084883 
L 214.480235 47.007995 
L 214.63499 47.189721 
L 214.789745 47.133803 
L 215.563521 50.076284 
L 217.265826 60.151295 
L 218.658621 66.280874 
L 220.515681 70.820394 
L 220.825192 71.445932 
L 222.063232 73.769856 
L 223.301272 75.265556 
L 223.456027 75.290025 
L 223.765537 75.698897 
L 223.920292 75.744326 
L 224.384557 76.125239 
L 225.313087 76.58653 
L 225.467842 76.495672 
L 226.086862 76.750777 
L 226.860638 76.621479 
L 227.015393 76.813685 
L 227.324903 76.740297 
L 227.634413 76.866104 
L 228.098678 76.876584 
L 228.562943 77.166638 
L 228.717698 77.180618 
L 228.872453 76.960453 
L 229.027208 77.212068 
L 229.336718 77.267986 
L 229.646228 77.491642 
L 229.800983 77.537071 
L 229.955738 77.439223 
L 230.110493 77.561531 
L 230.265248 77.460183 
L 230.574758 77.879544 
L 230.729513 77.869055 
L 231.193778 78.162609 
L 231.503288 78.277927 
L 231.812799 78.501582 
L 231.967554 78.449163 
L 232.122309 78.554001 
L 232.431819 78.899974 
L 232.586574 78.962873 
L 232.741329 79.245938 
L 232.896084 79.200508 
L 233.360349 79.707229 
L 233.515104 79.899435 
L 233.669859 79.826046 
L 233.979369 80.161539 
L 234.134124 80.182499 
L 234.288879 80.339756 
L 234.443634 80.280347 
L 234.598389 80.381695 
L 234.753144 80.294327 
L 235.062654 79.822556 
L 235.681674 76.998892 
L 236.145939 73.811795 
L 238.31251 57.949679 
L 239.395795 53.546446 
L 240.014815 51.253971 
L 240.633835 48.563105 
L 241.0981 46.641062 
L 242.02663 44.19832 
L 242.33614 43.625202 
L 242.490895 43.824388 
L 242.645651 43.71955 
L 243.419426 45.459876 
L 243.574181 46.046974 
L 245.585996 59.413929 
L 246.514526 64.082748 
L 247.133546 66.224955 
L 248.062076 68.597808 
L 248.371587 68.971731 
L 248.681097 69.698616 
L 249.145362 70.54781 
L 250.073892 72.120398 
L 251.776197 74.05642 
L 252.085707 74.255616 
L 252.549972 74.57712 
L 252.704727 74.53169 
L 253.014237 74.737876 
L 253.168992 74.751847 
L 253.323747 74.954542 
L 253.478502 74.954542 
L 253.633258 75.07336 
L 253.942768 75.03841 
L 254.097523 75.160718 
L 254.252278 75.041901 
L 254.871298 75.304005 
L 255.026053 75.272546 
L 255.180808 75.363414 
L 255.490318 75.328465 
L 256.418848 75.471742 
L 256.728358 75.646478 
L 256.883113 75.737337 
L 257.037868 75.688408 
L 257.192623 75.772276 
L 257.347378 75.992442 
L 257.502133 75.967982 
L 258.740173 76.841635 
L 258.894928 76.659918 
L 259.668704 77.421744 
L 260.906744 78.232498 
L 261.216254 78.735727 
L 261.680519 79.018792 
L 261.835274 79.312336 
L 262.144784 79.406694 
L 262.454294 79.65481 
L 262.763804 79.560461 
L 263.073314 79.364755 
L 263.692334 76.939483 
L 264.77562 68.870392 
L 266.32317 57.575756 
L 267.096945 53.82951 
L 267.87072 50.583004 
L 269.10876 45.019554 
L 269.573025 43.24428 
L 270.192046 41.804498 
L 270.656311 41.399116 
L 270.965821 41.524924 
L 271.275331 42.014174 
L 271.584841 43.156921 
L 271.894351 44.610683 
L 272.513371 48.78676 
L 273.441901 55.84941 
L 275.298961 64.844582 
L 275.453716 65.148616 
L 275.763227 66.123617 
L 277.156022 68.786524 
L 277.310777 68.765554 
L 278.239307 70.50937 
L 278.703572 71.040559 
L 279.167837 71.687057 
L 279.786857 72.267166 
L 280.096367 72.504801 
L 280.870142 73.029 
L 281.334408 73.245666 
L 281.643918 73.504271 
L 281.798673 73.399433 
L 281.953428 73.644058 
L 282.108183 73.605609 
L 282.417693 73.731417 
L 282.572448 73.605609 
L 283.191468 73.895663 
L 284.429508 74.084379 
L 284.584263 74.356954 
L 284.739018 74.231147 
L 284.893773 74.433842 
L 285.203283 74.514211 
L 285.358038 74.734377 
L 285.512793 74.657498 
L 286.131813 75.157228 
L 286.286568 75.027921 
L 286.905589 75.377384 
L 288.298384 76.57605 
L 288.607894 76.820666 
L 288.917404 77.212068 
L 289.072159 77.267986 
L 289.536424 77.869055 
L 290.000689 78.218518 
L 290.310199 78.57847 
L 290.619709 78.809116 
L 290.929219 79.036262 
L 291.548239 78.012341 
L 292.322015 73.493781 
L 294.95285 53.34725 
L 296.655155 45.23622 
L 297.274175 42.126002 
L 297.893196 39.66229 
L 298.202706 38.81307 
L 298.512216 38.145602 
L 298.821726 37.81709 
L 299.131236 37.904486 
L 299.285991 38.072223 
L 299.750256 39.232458 
L 300.059766 40.469554 
L 300.833541 45.963106 
L 302.071581 55.748062 
L 303.464377 62.90856 
L 303.773887 64.023339 
L 303.928642 64.233015 
L 304.238152 65.106677 
L 304.392907 65.235975 
L 304.547662 65.739204 
L 304.702417 65.823073 
L 305.166682 66.707215 
L 305.476192 66.98329 
L 305.785702 67.577378 
L 306.095212 68.140017 
L 306.249967 68.248345 
L 306.559477 68.702646 
L 307.642762 70.159907 
L 307.797517 70.107488 
L 308.261782 70.760985 
L 309.345068 71.449431 
L 309.499823 71.746466 
L 309.654578 71.638138 
L 309.809333 71.680067 
L 309.964088 71.952652 
L 310.118843 71.798885 
L 310.737863 72.155338 
L 310.892618 72.095929 
L 311.047373 72.438402 
L 311.202128 72.256686 
L 311.356883 72.431413 
L 311.975903 72.368513 
L 312.130658 72.497811 
L 312.285413 72.854264 
L 312.749678 72.899693 
L 313.213943 73.130339 
L 313.368698 73.340024 
L 313.523453 73.280615 
L 314.297229 73.762866 
L 314.606739 73.944592 
L 315.071004 74.53169 
L 315.225759 74.566639 
L 315.380514 74.465292 
L 315.690024 74.779806 
L 317.082819 75.929543 
L 317.237574 76.254537 
L 317.547084 76.446743 
L 319.249389 78.309385 
L 319.404145 78.225508 
L 319.713655 78.438683 
L 320.023165 78.015832 
L 320.332675 77.07578 
L 320.79694 74.468782 
L 321.10645 72.274156 
L 323.427775 53.326281 
L 324.356305 49.052355 
L 324.665815 47.808269 
L 326.522876 39.501516 
L 326.987141 38.107218 
L 327.141896 38.166581 
L 327.451406 37.726305 
L 327.915671 38.065261 
L 328.070426 38.246922 
L 328.534691 39.830027 
L 329.153711 43.572783 
L 331.165527 59.109896 
L 331.320282 59.969569 
L 331.629792 50.934968 
L 331.939302 48.169248 
L 332.094057 48.881988 
L 332.403567 53.174566 
L 333.022587 64.186578 
L 333.332097 66.378722 
L 334.260627 67.783564 
L 334.415382 67.98975 
L 334.724892 68.702646 
L 334.879647 68.842433 
L 335.189157 69.405072 
L 335.343912 69.47846 
L 335.653422 69.932761 
L 337.510483 72.074969 
L 337.665238 72.123888 
L 337.819993 72.347544 
L 338.129503 72.312595 
L 339.367543 73.02201 
L 339.522298 72.994051 
L 339.677053 73.189747 
L 339.831808 73.112869 
L 340.450828 73.51825 
L 340.915093 73.612599 
L 341.224603 73.731417 
L 341.379359 73.661528 
L 342.617399 74.297545 
L 342.772154 74.360454 
L 342.926909 74.653998 
L 343.081664 74.629539 
L 343.700684 75.230617 
L 343.855439 75.324965 
L 344.010194 75.283036 
L 344.319704 75.695398 
L 344.629214 75.824705 
L 347.56956 78.889485 
L 347.724315 79.1411 
L 347.87907 79.137609 
L 348.18858 79.417174 
L 348.8076 79.392715 
L 349.42662 77.184108 
L 349.73613 75.531151 
L 350.509905 70.233296 
L 351.28368 64.344852 
L 352.366966 57.600216 
L 353.605006 52.630854 
L 353.759761 52.242951 
L 354.533536 48.985956 
L 355.616821 45.949126 
L 356.081086 45.389987 
L 356.390596 45.204771 
L 356.854861 46.169282 
L 357.164371 47.322518 
L 360.104717 64.079257 
L 361.188002 67.51098 
L 363.664083 72.634108 
L 364.747368 74.252116 
L 365.211633 74.741366 
L 365.366388 74.811255 
L 365.521143 75.171208 
L 365.675898 74.985991 
L 365.830653 75.286526 
L 365.985408 75.216637 
L 366.294918 75.429803 
L 366.604428 75.604539 
L 366.759183 75.852655 
L 366.913938 75.674428 
L 367.378203 75.950503 
L 367.687713 75.947013 
L 368.151978 76.07282 
L 368.306733 76.212607 
L 368.616243 76.107769 
L 368.770999 76.261527 
L 368.925754 76.233567 
L 369.080509 76.352385 
L 369.390019 76.258036 
L 369.699529 76.362874 
L 369.854284 76.380344 
L 370.009039 76.509651 
L 370.163794 76.376854 
L 370.318549 76.645939 
L 370.473304 76.56207 
L 370.628059 76.631959 
L 370.782814 76.876584 
L 371.092324 76.656419 
L 371.401834 76.887064 
L 371.711344 77.08976 
L 371.866099 77.166638 
L 372.020854 77.072281 
L 372.794629 77.690828 
L 372.949384 77.694328 
L 373.104139 77.56852 
L 373.258894 77.935453 
L 373.413649 77.970403 
L 373.568404 78.176588 
L 373.723159 78.08573 
L 376.044485 80.1196 
L 376.19924 80.056692 
L 376.81826 80.346746 
L 377.12777 79.860995 
L 377.592035 78.400244 
L 378.98483 69.195387 
L 379.758606 63.492159 
L 380.687136 58.113925 
L 381.306156 55.940268 
L 381.770421 54.430588 
L 382.544196 51.743221 
L 383.008461 49.859618 
L 383.472726 48.664452 
L 383.782236 47.692942 
L 384.091746 47.469286 
L 384.246501 47.140793 
L 384.401256 47.189721 
L 384.556011 46.931117 
L 385.020276 47.685952 
L 385.175032 47.958536 
L 385.639297 49.884078 
L 386.722582 56.897799 
L 387.341602 60.070917 
L 388.115377 63.666886 
L 388.889152 66.703725 
L 389.043907 67.046198 
L 389.353417 68.084098 
L 389.662927 68.709636 
L 389.817682 69.212866 
L 389.972437 69.331683 
L 391.829498 73.193247 
L 391.984253 73.333034 
L 392.293763 73.906153 
L 393.686558 75.57309 
L 393.996068 75.587069 
L 394.305578 76.04137 
L 394.460333 75.981962 
L 394.924598 76.327925 
L 395.079353 76.299966 
L 395.388863 76.56906 
L 395.698373 76.520131 
L 395.853128 76.666908 
L 396.007884 76.624969 
L 396.317394 76.750777 
L 396.472149 76.59002 
L 396.626904 76.820666 
L 396.781659 76.750777 
L 396.936414 76.939483 
L 397.091169 76.743787 
L 397.555434 76.925513 
L 397.864944 76.799705 
L 398.174454 76.880074 
L 398.638719 76.988412 
L 398.948229 77.320405 
L 399.102984 77.166638 
L 399.412494 77.341365 
L 400.031514 77.537071 
L 400.650534 77.910994 
L 400.960044 77.900514 
L 401.114799 78.13814 
L 401.424309 78.194058 
L 401.888575 78.59594 
L 402.04333 78.547012 
L 402.817105 79.231967 
L 403.126615 79.61288 
L 403.28137 79.57444 
L 403.59088 79.902934 
L 403.745635 79.895944 
L 404.364655 80.325786 
L 404.983675 80.168519 
L 405.293185 79.410184 
L 405.602695 78.169598 
L 407.305001 65.756674 
L 407.924021 61.143766 
L 408.852551 56.017147 
L 409.626326 53.085155 
L 411.638141 45.348048 
L 412.257161 44.19832 
L 412.411916 43.943206 
L 412.721427 44.016594 
L 412.876182 43.827888 
L 413.649957 46.193751 
L 414.578487 52.239452 
L 415.352262 57.586236 
L 416.280792 62.628986 
L 416.899812 65.173076 
L 417.364077 66.644316 
L 417.518832 66.906411 
L 417.828342 67.794044 
L 419.375893 70.743515 
L 419.530648 70.872813 
L 420.304423 72.445392 
L 420.459178 72.413943 
L 420.768688 72.934642 
L 421.387708 73.577659 
L 421.542463 73.612599 
L 421.697218 73.930612 
L 421.851973 73.934112 
L 422.161483 74.294055 
L 422.470993 74.412873 
L 423.090013 74.793785 
L 423.244768 74.751847 
L 423.554279 74.884644 
L 423.709034 75.185187 
L 423.863789 74.996472 
L 424.018544 75.020931 
L 424.173299 75.220127 
L 424.328054 75.09432 
L 424.482809 75.272546 
L 424.637564 75.178198 
L 425.101829 75.398354 
L 425.256584 75.331955 
L 425.875604 75.496202 
L 426.339869 75.510181 
L 426.494624 75.527661 
L 426.804134 75.796745 
L 427.577909 76.013411 
L 427.732664 76.202118 
L 427.887419 76.118249 
L 428.506439 76.558571 
L 428.661194 76.61099 
L 428.815949 76.852124 
L 428.970705 76.810186 
L 429.280215 77.121209 
L 429.43497 77.135189 
L 430.05399 77.680348 
L 430.208745 77.725777 
L 430.67301 78.176588 
L 430.827765 78.235997 
L 431.137275 78.477123 
L 431.29203 78.58546 
L 431.60154 79.032771 
L 432.53007 79.710728 
L 432.83958 79.61637 
L 432.994335 79.584921 
L 433.613355 77.872554 
L 434.387131 72.759915 
L 436.863211 55.262312 
L 437.482231 52.655314 
L 437.946496 50.83112 
L 439.803556 43.045093 
L 440.732087 41.552883 
L 441.351107 42.132992 
L 441.660617 43.289709 
L 442.279637 46.676011 
L 444.446207 61.203174 
L 445.374738 65.166086 
L 445.529493 65.337322 
L 445.993758 66.679256 
L 446.148513 66.805064 
L 446.458023 67.434101 
L 446.612778 67.566898 
L 446.922288 68.237865 
L 447.231798 68.695656 
L 447.696063 69.460981 
L 448.469838 70.771465 
L 448.779348 71.04754 
L 449.243613 71.697547 
L 449.707878 72.085449 
L 450.172143 72.5083 
L 450.636408 72.920663 
L 450.791164 72.833304 
L 451.100674 73.228196 
L 451.410184 73.399433 
L 451.564939 73.385453 
L 451.874449 73.497281 
L 452.029204 73.52873 
L 452.183959 73.717437 
L 452.338714 73.59163 
L 452.493469 73.734916 
L 452.802979 73.696477 
L 453.112489 74.03196 
L 453.267244 73.843244 
L 453.731509 74.077389 
L 453.886264 73.986531 
L 454.195774 74.266096 
L 454.350529 74.189217 
L 454.660039 74.374433 
L 455.124304 74.451312 
L 455.433814 74.814755 
L 455.588569 74.755346 
L 455.898079 74.870664 
L 456.207589 75.010451 
L 456.671855 75.489212 
L 456.82661 75.387874 
L 457.13612 75.723357 
L 458.838425 76.880074 
L 459.147935 77.362335 
L 459.766955 77.914493 
L 459.92171 78.312876 
L 460.385975 78.379274 
L 460.54073 78.805616 
L 460.695485 78.59594 
L 461.004995 78.718248 
L 461.314505 78.505082 
L 461.624015 77.750237 
L 461.933526 76.251046 
L 462.397791 73.256146 
L 464.719116 54.884889 
L 465.492891 51.124673 
L 467.659462 40.864437 
L 468.278482 38.980807 
L 468.742747 38.232998 
L 468.897502 38.1631 
L 469.361767 38.369313 
L 469.671277 39.173004 
L 470.445052 43.174391 
L 470.909317 46.644553 
L 472.302112 57.3521 
L 473.694908 63.799683 
L 474.004418 64.652376 
L 474.468683 65.686785 
L 474.623438 65.732215 
L 474.932948 66.361252 
L 475.397213 67.126567 
L 475.706723 67.580878 
L 476.480498 68.727115 
L 476.635253 68.849423 
L 476.944763 69.321194 
L 477.254273 69.799964 
L 477.409028 70.135447 
L 477.563783 70.145928 
L 478.028048 70.680607 
L 478.647069 71.085988 
L 478.956579 71.51932 
L 479.111334 71.51932 
L 479.266089 71.781415 
L 479.575599 71.728996 
L 479.730354 71.879263 
L 479.885109 71.840824 
L 480.194619 72.04002 
L 480.349374 72.116899 
L 480.504129 72.382493 
L 480.813639 72.176307 
L 481.123149 72.52228 
L 482.670699 72.959102 
L 482.980209 73.252656 
L 483.134964 73.221206 
L 483.90874 73.672008 
L 484.21825 73.892173 
L 485.14678 74.510721 
L 485.301535 74.542171 
L 486.230065 75.475242 
L 486.69433 75.628999 
L 486.849085 75.912064 
L 487.00384 75.954002 
L 487.158595 76.216097 
L 487.31335 76.205617 
L 487.468105 76.310455 
L 487.777615 76.789216 
L 487.93237 76.859114 
L 488.24188 77.264487 
L 488.396635 77.365834 
L 488.706145 77.886534 
L 488.8609 77.876045 
L 489.015655 78.13814 
L 489.944186 78.256966 
L 490.408451 76.771746 
L 491.027471 72.805345 
L 493.503551 52.802091 
L 494.432081 48.353429 
L 495.051102 45.522784 
L 495.979632 40.937825 
L 496.753407 38.19104 
L 497.062917 37.499113 
L 497.681937 37.289419 
L 497.991447 37.71577 
L 498.610467 39.620333 
L 499.538997 46.431386 
L 500.777038 56.586775 
L 501.396058 60.238663 
L 501.860323 62.324952 
L 502.788853 65.288394 
L 503.098363 65.95937 
L 503.253118 66.078187 
L 503.717383 66.927381 
L 503.872138 67.070658 
L 504.026893 67.497 
L 504.336403 67.780064 
L 504.491158 68.136517 
L 504.645913 68.209906 
L 504.800668 68.755065 
L 505.110178 69.059099 
L 505.264933 69.226845 
L 505.729199 70.04109 
L 505.883954 70.131948 
L 506.502974 70.984641 
L 506.657729 70.914752 
L 507.276749 71.599698 
L 509.288564 72.721467 
L 510.062339 73.06045 
L 510.217094 73.189747 
L 510.371849 73.147818 
L 510.526604 73.413403 
L 510.836114 73.231686 
L 511.145625 73.633568 
L 511.30038 73.762866 
L 511.455135 73.651038 
L 511.60989 73.867713 
L 512.074155 73.913143 
L 512.383665 74.238137 
L 512.53842 74.192707 
L 512.84793 74.57362 
L 513.15744 74.727387 
L 513.46695 74.888143 
L 514.240725 75.740827 
L 514.39548 75.60803 
L 514.550235 75.856154 
L 514.70499 75.842175 
L 515.788275 76.715828 
L 515.94303 76.974432 
L 516.097785 76.974432 
L 516.25254 77.313415 
L 516.407295 77.337875 
L 516.871561 77.998362 
L 517.026316 78.026321 
L 517.490581 78.809116 
L 517.645336 78.707768 
L 518.264356 79.263417 
L 518.419111 79.252927 
L 518.573866 79.375245 
L 518.728621 79.266907 
L 519.038131 78.892984 
L 519.502396 77.07578 
L 520.740436 68.611788 
L 521.359456 63.824143 
L 522.287987 57.921719 
L 522.752252 55.517417 
L 523.990292 50.621444 
L 525.228332 45.977085 
L 525.537842 45.344558 
L 526.002107 44.533804 
L 526.156862 44.261219 
L 526.466372 44.547774 
L 526.621127 44.568744 
L 527.085392 45.858268 
L 528.013923 51.558005 
L 529.406718 59.89619 
L 530.025738 63.104256 
L 531.418533 67.601838 
L 533.275594 71.669587 
L 533.430349 71.879263 
L 533.894614 72.787865 
L 534.513634 73.444862 
L 535.132654 74.447822 
L 535.287409 74.472282 
L 535.442164 74.671477 
L 535.596919 74.58061 
L 536.061184 75.118789 
L 536.370694 75.171208 
L 536.525449 75.300505 
L 536.680204 75.279536 
L 536.989714 75.496202 
L 537.299224 75.506691 
L 537.453979 75.405343 
L 537.763489 75.695398 
L 537.918244 75.705887 
L 538.072999 75.887604 
L 538.227754 75.772276 
L 538.382509 75.929543 
L 538.69202 75.761796 
L 538.846775 76.135719 
L 539.00153 76.132229 
L 539.156285 75.988951 
L 539.31104 76.006421 
L 539.465795 76.139219 
L 539.62055 76.051851 
L 541.013345 76.485182 
L 541.1681 76.61099 
L 541.322855 76.58304 
L 541.47761 76.701848 
L 541.632365 76.649429 
L 541.941875 76.960453 
L 542.09663 76.890564 
L 542.251385 77.07927 
L 542.40614 77.0618 
L 542.560895 77.212068 
L 542.71565 77.177119 
L 543.489425 77.753737 
L 543.64418 77.718788 
L 543.953691 78.08573 
L 544.108446 78.029811 
L 544.263201 78.134649 
L 544.417956 78.431693 
L 544.572711 78.442174 
L 545.191731 79.235458 
L 545.501241 79.385725 
L 546.739281 80.196479 
L 547.048791 79.962343 
L 547.358301 79.333306 
L 547.977321 76.638949 
L 548.905851 70.180877 
L 550.298647 60.521727 
L 551.227177 56.586775 
L 553.084237 50.027355 
L 553.548502 48.503696 
L 554.012767 47.486765 
L 554.167522 47.434337 
L 554.477032 47.140793 
L 554.631787 47.063914 
L 554.786542 47.357458 
L 554.941298 47.308539 
L 555.250808 48.066874 
L 555.869828 51.093215 
L 557.107868 58.627635 
L 558.036398 63.048338 
L 559.274438 67.556409 
L 559.583948 68.318243 
L 560.202968 69.792974 
L 560.512479 70.390553 
L 560.667234 71.06152 
L 560.821989 71.009101 
L 561.750519 73.018511 
L 561.905274 73.137328 
L 562.214784 73.685987 
L 562.988559 74.793785 
L 563.143314 74.877654 
L 563.298069 75.269056 
L 563.607579 75.359914 
L 563.917089 75.768786 
L 564.071844 75.740827 
L 564.845619 76.383844 
L 565.155129 76.383844 
L 565.309884 76.628469 
L 565.464639 76.537601 
L 565.774149 76.726317 
L 565.928905 76.59352 
L 566.08366 76.866104 
L 566.39317 76.726317 
L 566.857435 76.890564 
L 567.01219 76.673898 
L 567.3217 76.897554 
L 567.63121 76.922013 
L 567.785965 76.736797 
L 567.94072 76.922013 
L 568.095475 76.922013 
L 568.25023 77.040831 
L 568.404985 76.991911 
L 568.55974 77.131689 
L 568.714495 77.04433 
L 568.86925 77.11771 
L 569.17876 77.10024 
L 569.952535 77.519592 
L 570.262045 77.624439 
L 570.881065 77.966912 
L 572.273861 78.651859 
L 572.738126 79.151589 
L 572.892881 79.183039 
L 573.202391 79.675779 
L 573.357146 79.588411 
L 573.666656 80.004273 
L 574.440431 80.175509 
L 574.595186 80.399165 
L 574.749941 80.409654 
L 575.214206 79.542982 
L 575.678471 77.711798 
L 576.297491 73.658028 
L 577.380777 65.036779 
L 578.464062 57.911239 
L 579.392592 54.056665 
L 581.559162 45.627622 
L 582.023427 44.519824 
L 582.332938 43.985145 
L 582.642448 43.939716 
L 583.106713 44.401007 
L 583.570978 45.970095 
L 584.189998 49.587034 
L 586.201813 62.241084 
L 586.975588 65.669316 
L 587.285098 66.431141 
L 587.749364 67.745124 
L 588.213629 68.4755 
L 588.523139 69.202386 
L 589.606424 71.250235 
L 589.915934 71.798885 
L 590.380199 72.434912 
L 590.844464 73.088409 
L 591.618239 73.818785 
L 592.392014 74.53169 
L 592.546769 74.517711 
L 592.701524 74.755346 
L 593.011034 74.874164 
L 593.78481 75.003461 
L 593.939565 74.996472 
L 594.09432 75.178198 
L 594.40383 75.150238 
L 594.868095 75.286526 
L 595.02285 75.220127 
L 595.487115 75.373894 
L 595.64187 75.314485 
L 595.95138 75.531151 
L 596.106135 75.461262 
L 596.26089 75.5661 
L 596.415645 75.531151 
L 596.5704 75.625509 
L 596.725155 75.56959 
L 596.87991 75.751316 
L 597.18942 75.789756 
L 597.49893 76.013411 
L 597.653685 76.016902 
L 597.80844 76.230077 
L 598.272705 76.369864 
L 599.201236 77.005882 
L 599.355991 77.030351 
L 599.510746 77.264487 
L 599.820256 77.309916 
L 600.129766 77.610459 
L 600.748786 78.215028 
L 601.522561 78.938413 
L 601.677316 78.938413 
L 601.986826 79.368255 
L 602.296336 79.455623 
L 602.760601 79.65481 
L 603.224866 78.983843 
L 603.534376 77.931963 
L 603.998641 75.206148 
L 605.081927 66.847002 
L 606.165212 58.89323 
L 606.629477 56.275752 
L 607.403252 52.868489 
L 608.022272 50.233541 
L 608.796047 46.76687 
L 609.879333 42.842398 
L 610.343598 41.860407 
L 610.498353 41.853417 
L 610.653108 41.69267 
L 611.117373 41.968745 
L 611.736393 43.992135 
L 612.510168 48.971976 
L 613.438698 56.045106 
L 613.748208 57.85183 
L 614.676738 62.775763 
L 615.605269 66.032749 
L 616.688554 68.202916 
L 616.843309 68.237865 
L 617.307574 69.296734 
L 617.462329 69.440012 
L 617.771839 70.100498 
L 618.081349 70.474421 
L 618.855124 71.372543 
L 619.009879 71.428462 
L 619.164634 71.858294 
L 619.319389 71.732486 
L 619.474144 72.218246 
L 619.783654 72.249696 
L 620.247919 72.752926 
L 620.402674 72.759915 
L 620.86694 73.179267 
L 621.021695 73.182758 
L 621.17645 73.413403 
L 621.331205 73.291095 
L 622.10498 73.602119 
L 622.259735 73.570669 
L 622.569245 73.794325 
L 622.724 73.822275 
L 622.878755 73.699967 
L 623.03351 73.923623 
L 623.34302 73.860724 
L 624.58106 74.255616 
L 624.735815 74.147278 
L 625.045325 74.542171 
L 625.20008 74.465292 
L 626.128611 75.213137 
L 626.283366 75.03841 
L 626.592876 75.363414 
L 626.747631 75.56959 
L 627.211896 75.691907 
L 628.140426 76.59701 
L 628.449936 76.61099 
L 628.914201 77.281966 
L 629.068956 77.299436 
L 629.223711 77.439223 
L 629.378466 77.736267 
L 629.533221 77.715297 
L 629.842731 78.253467 
L 630.152241 78.365295 
L 630.461751 78.665838 
L 630.616506 78.477123 
L 630.926016 78.721748 
L 631.390281 78.022822 
L 631.854547 76.069321 
L 634.794892 53.717682 
L 636.032932 48.014446 
L 637.735238 40.151577 
L 638.509013 38.313339 
L 638.818523 38.156137 
L 638.973278 38.159618 
L 639.437543 38.903946 
L 640.211318 42.405576 
L 642.532644 59.319572 
L 642.996909 61.619036 
L 643.770684 64.292433 
L 644.234949 65.372271 
L 644.853969 66.382212 
L 645.163479 66.840013 
L 646.246764 68.660716 
L 646.401519 68.695656 
L 646.865784 69.52738 
L 647.175294 69.862863 
L 647.484804 70.184367 
L 648.103825 70.774965 
L 648.25858 71.236256 
L 648.413335 71.180337 
L 648.722845 71.421472 
L 649.18711 71.610178 
L 649.49662 72.04002 
L 649.651375 71.882763 
L 650.11564 72.214747 
L 650.270395 72.144858 
L 650.579905 72.323084 
L 650.73466 72.270665 
L 651.35368 72.599159 
L 651.66319 72.616629 
L 651.817945 72.798355 
L 652.127455 72.777385 
L 652.59172 73.179267 
L 652.746475 73.063949 
L 652.90123 73.088409 
L 653.055985 73.354003 
L 653.365495 73.381954 
L 653.520251 73.605609 
L 653.675006 73.521741 
L 653.984516 74.0669 
L 654.139271 73.941093 
L 654.603536 74.346474 
L 654.913046 74.353464 
L 655.222556 74.674968 
L 655.377311 74.909104 
L 655.686821 74.999971 
L 656.460596 75.831685 
L 656.615351 75.789756 
L 656.770106 76.100779 
L 656.924861 76.034381 
L 657.234371 76.429273 
L 657.389126 76.439753 
L 657.698636 76.768247 
L 658.162901 77.362335 
L 659.246187 78.344325 
L 659.555697 78.445673 
L 660.019962 77.718788 
L 660.484227 75.471742 
L 660.793737 73.378463 
L 662.186532 61.381401 
L 662.960307 55.021177 
L 663.888837 49.688382 
L 664.972123 44.75396 
L 666.519673 37.960368 
L 666.674428 37.785668 
L 666.829183 37.174083 
L 666.983938 37.226483 
L 667.138693 36.810667 
L 667.448203 36.765229 
L 667.602958 36.76871 
L 667.757713 36.915469 
L 668.376733 39.043742 
L 668.840998 41.748579 
L 669.769528 49.709342 
L 670.543304 55.964728 
L 671.471834 61.41285 
L 671.781344 62.691885 
L 672.245609 64.295923 
L 673.328894 66.567428 
L 673.793159 67.168506 
L 674.102669 67.741625 
L 674.257424 68.077108 
L 674.412179 68.140017 
L 674.876444 68.800494 
L 675.031199 68.9927 
L 675.340709 69.551839 
L 675.65022 69.971201 
L 676.88826 71.348083 
L 677.662035 71.910722 
L 677.81679 71.791904 
L 677.971545 72.071469 
L 678.1263 72.085449 
L 678.43581 72.256686 
L 678.74532 72.399963 
L 679.05483 72.56421 
L 679.36434 72.679537 
L 679.519095 72.777385 
L 679.828605 72.658568 
L 679.98336 72.878733 
L 680.138115 72.892703 
L 680.447625 73.137328 
L 680.60238 73.119859 
L 680.911891 73.354003 
L 681.066646 73.308565 
L 681.376156 73.623088 
L 681.995176 73.909643 
L 682.149931 73.836255 
L 682.304686 74.171738 
L 682.459441 74.112329 
L 682.614196 74.384914 
L 682.768951 74.356954 
L 683.078461 74.961532 
L 683.233216 74.727387 
L 683.852236 75.464752 
L 684.006991 75.426313 
L 684.316501 75.761796 
L 684.471256 75.978462 
L 684.626011 75.866634 
L 684.780766 76.188138 
L 684.935521 76.177658 
L 685.090276 76.495672 
L 685.245031 76.523631 
L 685.399786 76.827655 
L 685.554541 76.729807 
L 686.947337 78.187068 
L 687.102092 78.302396 
L 687.566357 78.885994 
L 687.875867 79.022282 
L 688.185377 79.176049 
L 688.494887 79.214488 
L 688.804397 78.784647 
L 689.113907 78.005352 
L 689.732927 74.489752 
L 691.125722 64.135167 
L 692.054253 57.781932 
L 693.756558 50.383808 
L 694.066068 49.167673 
L 694.994598 45.473855 
L 695.149353 45.173321 
L 695.458863 44.135412 
L 695.613618 44.058533 
L 695.768373 43.775469 
L 695.923128 43.72654 
L 696.077883 43.499394 
L 696.232638 43.534334 
L 696.542148 43.967675 
L 696.851658 44.610683 
L 698.089699 52.396718 
L 699.018229 58.442419 
L 700.256269 64.407751 
L 701.030044 66.895922 
L 701.649064 68.283294 
L 702.732349 70.593239 
L 704.434655 73.427383 
L 704.58941 73.486792 
L 705.363185 74.360454 
L 705.672695 74.629539 
L 705.82745 74.811255 
L 705.982205 74.755346 
L 706.291715 75.05239 
L 706.75598 75.03841 
L 707.220245 75.352924 
L 707.375 75.276046 
L 707.529755 75.457762 
L 707.68451 75.366904 
L 707.99402 75.485722 
L 708.148775 75.684918 
L 708.458286 75.615019 
L 708.767796 75.782766 
L 709.077306 75.709377 
L 709.232061 75.796745 
L 709.386816 75.677928 
L 709.851081 75.992442 
L 711.089121 76.275506 
L 711.398631 76.499162 
L 711.553386 76.341905 
L 711.862896 76.771746 
L 712.017651 76.56556 
L 712.327161 77.07927 
L 712.481916 76.925513 
L 712.636671 77.156158 
L 712.946181 77.152659 
L 713.100936 77.376314 
L 713.255691 77.400774 
L 713.565201 77.736267 
L 714.957997 78.903464 
L 715.112752 79.162069 
L 715.267507 79.155079 
L 715.577017 79.413684 
L 715.886527 79.661799 
L 716.041282 79.881965 
L 716.196037 79.871475 
L 716.505547 80.12659 
L 716.969812 79.962343 
L 717.588832 77.973902 
L 718.207852 74.329004 
L 720.219668 60.40291 
L 720.993443 56.87333 
L 722.540993 51.722252 
L 722.850503 50.596984 
L 723.779033 47.906117 
L 724.088543 47.486765 
L 724.243298 47.472786 
L 724.552808 47.28407 
L 724.707564 47.458806 
L 725.171829 48.633003 
L 725.636094 50.621444 
L 726.564624 56.38758 
L 727.183644 59.728443 
L 728.421684 65.281404 
L 729.195459 67.797543 
L 729.659724 68.926302 
L 731.516785 72.822814 
L 733.21909 75.223627 
L 733.373845 75.331955 
L 733.683355 75.870134 
L 733.83811 75.740827 
L 734.302375 76.12174 
L 734.45713 76.195128 
L 734.611885 76.495672 
L 734.76664 76.369864 
L 735.38566 76.638949 
L 735.695171 76.624969 
L 735.849926 76.733307 
L 736.004681 77.002392 
L 736.159436 76.873094 
L 736.623701 76.855615 
L 736.778456 76.792716 
L 737.397476 77.005882 
L 737.552231 76.904543 
L 737.706986 76.949973 
L 737.861741 76.859114 
L 738.016496 77.06879 
L 738.480761 77.170129 
L 739.718801 77.484652 
L 739.873556 77.722287 
L 740.028311 77.655889 
L 740.183066 77.890024 
L 740.337821 77.844595 
L 740.647331 77.984382 
L 740.802086 77.970403 
L 740.956841 78.215028 
L 741.266352 78.169598 
L 741.575862 78.428194 
L 742.968657 79.368255 
L 743.587677 79.958843 
L 744.670962 80.528472 
L 744.980472 80.056692 
L 745.289982 79.284386 
L 745.754247 76.806695 
L 746.218512 73.55669 
L 748.385083 57.921719 
L 749.004103 55.290262 
L 749.623123 53.176013 
L 750.706408 48.622513 
L 751.789693 45.012565 
L 752.253959 44.345088 
L 752.563469 44.191331 
L 753.027734 44.72251 
L 753.182489 45.047514 
L 753.801509 47.78031 
L 755.349059 58.337581 
L 755.968079 61.650486 
L 756.741854 64.96689 
L 757.360874 67.00775 
L 759.06318 70.621198 
L 759.527445 71.330614 
L 759.836955 71.942172 
L 759.99171 72.02604 
L 760.765485 73.231686 
L 760.92024 73.245666 
L 761.53926 74.04244 
L 761.694015 74.04244 
L 762.15828 74.59459 
L 762.313035 74.507231 
L 762.622545 74.888143 
L 762.932055 74.863674 
L 763.086811 75.024431 
L 763.241566 74.937063 
L 763.396321 75.05239 
L 763.551076 74.954542 
L 763.705831 75.265556 
L 764.170096 75.380884 
L 764.324851 75.513681 
L 764.634361 75.464752 
L 764.943871 75.520671 
L 765.098626 75.321475 
L 765.253381 75.496202 
L 765.562891 75.513681 
L 765.872401 75.660449 
L 766.027156 75.527661 
L 766.491421 75.845665 
L 766.646176 75.712877 
L 766.955686 75.950503 
L 767.265196 76.030881 
L 767.419951 76.219597 
L 767.574706 76.230077 
L 767.884216 76.429273 
L 768.038971 76.359375 
L 768.193726 76.460722 
L 768.348481 76.852124 
L 768.657992 76.810186 
L 769.277012 77.226047 
L 769.431767 77.260996 
L 769.741277 77.561531 
L 769.896032 77.516101 
L 770.205542 77.799166 
L 771.288827 78.840565 
L 771.907847 79.298357 
L 772.062602 79.508042 
L 772.372112 79.473093 
L 772.526867 79.65481 
L 772.991132 79.556961 
L 773.300642 78.683308 
L 773.764907 76.57605 
L 774.848193 68.356683 
L 776.086233 58.994568 
L 778.562313 47.651012 
L 779.490844 43.925736 
L 779.955109 42.692131 
L 780.419374 41.923316 
L 780.728884 41.919816 
L 780.883639 41.972235 
L 781.347904 42.996164 
L 781.812169 44.963636 
L 781.966924 45.641602 
L 783.514474 57.163384 
L 784.597759 62.814202 
L 785.21678 65.365282 
L 785.8358 66.941351 
L 785.990555 67.123077 
L 786.45482 68.077108 
L 788.00237 70.593239 
L 788.157125 70.687597 
L 788.466635 71.222276 
L 788.776145 71.624158 
L 789.085655 71.987601 
L 789.24041 71.994591 
L 789.395165 72.305614 
L 789.54992 72.337064 
L 789.85943 72.585179 
L 790.014185 72.55023 
L 790.478451 73.193247 
L 790.633206 73.03249 
L 790.787961 73.088409 
L 791.097471 73.406422 
L 791.252226 73.322545 
L 791.406981 73.616098 
L 791.561736 73.52873 
L 792.026001 73.689487 
L 792.180756 73.57416 
L 792.335511 73.776846 
L 792.490266 73.699967 
L 792.799776 73.860724 
L 792.954531 73.710447 
L 793.264041 74.04594 
L 793.418796 74.010991 
L 793.573551 74.091369 
L 794.037816 74.04594 
L 794.502081 74.315025 
L 794.656836 74.353464 
L 794.811591 74.510721 
L 794.966346 74.370934 
L 795.121101 74.657498 
L 795.275856 74.608569 
L 795.740121 74.762336 
L 796.049632 75.129269 
L 796.204387 75.06637 
L 797.597182 76.247547 
L 797.597182 76.247547 
" clip-path="url(#p6424fba99b)" style="fill: none; stroke: #1f77b4; stroke-width: 1.5; stroke-linecap: square"/>
   </g>
   <g id="patch_4">
    <path d="M 115.29 82.768696 
L 115.29 34.56 
" style="fill: none; stroke: #000000; stroke-width: 2.5; stroke-linejoin: miter; stroke-linecap: square"/>
   </g>
   <g id="patch_5">
    <path d="M 115.29 82.768696 
L 830.088 82.768696 
" style="fill: none; stroke: #000000; stroke-width: 2.5; stroke-linejoin: miter; stroke-linecap: square"/>
   </g>
  </g>
  <g id="axes_2">
   <g id="patch_6">
    <path d="M 115.29 140.61913 
L 830.088 140.61913 
L 830.088 92.410435 
L 115.29 92.410435 
z
" style="fill: #ffffff"/>
   </g>
   <g id="patch_7">
    <path d="M 331.475037 140.61913 
L 331.475037 92.410435 
L 333.022587 92.410435 
L 333.022587 140.61913 
z
" clip-path="url(#p9413e544c5)" style="fill: #ff7f50; stroke: #ff7f50; stroke-linejoin: miter"/>
   </g>
   <g id="matplotlib.axis_3"/>
   <g id="matplotlib.axis_4">
    <g id="text_2">
     <!-- SPE -->
     <g transform="translate(108.378438 129.602595)rotate(-90)scale(0.14 -0.14)">
      <defs>
       <path id="DejaVuSans-53" d="M 3425 4513 
L 3425 3897 
Q 3066 4069 2747 4153 
Q 2428 4238 2131 4238 
Q 1616 4238 1336 4038 
Q 1056 3838 1056 3469 
Q 1056 3159 1242 3001 
Q 1428 2844 1947 2747 
L 2328 2669 
Q 3034 2534 3370 2195 
Q 3706 1856 3706 1288 
Q 3706 609 3251 259 
Q 2797 -91 1919 -91 
Q 1588 -91 1214 -16 
Q 841 59 441 206 
L 441 856 
Q 825 641 1194 531 
Q 1563 422 1919 422 
Q 2459 422 2753 634 
Q 3047 847 3047 1241 
Q 3047 1584 2836 1778 
Q 2625 1972 2144 2069 
L 1759 2144 
Q 1053 2284 737 2584 
Q 422 2884 422 3419 
Q 422 4038 858 4394 
Q 1294 4750 2059 4750 
Q 2388 4750 2728 4690 
Q 3069 4631 3425 4513 
z
" transform="scale(0.015625)"/>
       <path id="DejaVuSans-50" d="M 1259 4147 
L 1259 2394 
L 2053 2394 
Q 2494 2394 2734 2622 
Q 2975 2850 2975 3272 
Q 2975 3691 2734 3919 
Q 2494 4147 2053 4147 
L 1259 4147 
z
M 628 4666 
L 2053 4666 
Q 2838 4666 3239 4311 
Q 3641 3956 3641 3272 
Q 3641 2581 3239 2228 
Q 2838 1875 2053 1875 
L 1259 1875 
L 1259 0 
L 628 0 
L 628 4666 
z
" transform="scale(0.015625)"/>
       <path id="DejaVuSans-45" d="M 628 4666 
L 3578 4666 
L 3578 4134 
L 1259 4134 
L 1259 2753 
L 3481 2753 
L 3481 2222 
L 1259 2222 
L 1259 531 
L 3634 531 
L 3634 0 
L 628 0 
L 628 4666 
z
" transform="scale(0.015625)"/>
      </defs>
      <use xlink:href="#DejaVuSans-53"/>
      <use xlink:href="#DejaVuSans-50" x="63.476562"/>
      <use xlink:href="#DejaVuSans-45" x="123.779297"/>
     </g>
    </g>
   </g>
   <g id="line2d_2">
    <path d="M 147.780818 140.547002 
L 148.090328 140.6191 
L 149.018858 140.577029 
L 149.483123 140.605356 
L 150.102144 140.569712 
L 150.875919 140.523563 
L 151.030674 140.61912 
L 151.340184 140.612729 
L 152.578224 140.544723 
L 152.887734 140.61858 
L 153.197244 140.58996 
L 153.816264 140.614755 
L 155.054305 140.594186 
L 155.363815 140.619102 
L 155.51857 140.535015 
L 155.673325 140.618765 
L 156.13759 140.526942 
L 156.4471 140.601726 
L 157.220875 140.616354 
L 157.530385 140.618144 
L 163.101566 140.606419 
L 164.803871 140.619105 
L 165.113381 140.588677 
L 165.732401 140.608272 
L 168.363237 140.61902 
L 168.517992 140.557923 
L 168.827502 140.579954 
L 169.446522 140.618808 
L 169.756032 140.609243 
L 170.375052 140.58065 
L 170.529807 140.431801 
L 170.839317 140.615129 
L 171.148827 140.59457 
L 171.767848 140.619121 
L 172.077358 140.616558 
L 207.980524 140.584524 
L 208.135279 140.318853 
L 208.290034 140.597286 
L 210.456605 140.586756 
L 211.23038 140.604446 
L 217.111071 140.608231 
L 217.265826 140.489227 
L 217.730091 140.588106 
L 218.194356 140.598361 
L 219.122886 140.618269 
L 223.610782 140.618569 
L 223.765537 140.526879 
L 224.075047 140.614139 
L 227.015393 140.605349 
L 227.170148 140.546864 
L 227.479658 140.618827 
L 229.027208 140.4249 
L 229.181963 140.611441 
L 229.955738 140.609312 
L 230.110493 140.51875 
L 230.265248 140.617852 
L 230.729513 140.556617 
L 231.039023 140.617122 
L 232.122309 140.580977 
L 232.741329 140.617603 
L 233.205594 140.610741 
L 235.217409 140.608651 
L 235.372164 140.52475 
L 235.681674 140.598341 
L 236.610204 140.61882 
L 236.764959 140.543788 
L 237.074469 140.612276 
L 238.157755 140.595689 
L 242.33614 140.601074 
L 242.645651 140.561083 
L 242.955161 140.599639 
L 243.574181 140.615016 
L 243.728936 140.61542 
L 243.883691 140.474957 
L 244.038446 140.612881 
L 244.502711 140.588716 
L 245.121731 140.618955 
L 247.597811 140.578637 
L 248.062076 140.619124 
L 249.609627 140.612432 
L 258.740173 140.618925 
L 259.049683 140.532907 
L 259.359194 140.616936 
L 259.668704 140.617194 
L 262.918559 140.606043 
L 265.858905 140.614405 
L 266.168415 140.560275 
L 266.787435 140.618463 
L 268.644495 140.614737 
L 271.584841 140.618967 
L 272.049106 140.618675 
L 284.584263 140.617156 
L 284.739018 140.528648 
L 285.048528 140.60116 
L 286.286568 140.61449 
L 286.441323 140.546766 
L 286.905589 140.617925 
L 292.941035 140.612361 
L 295.107605 140.601688 
L 295.88138 140.577947 
L 296.19089 140.593183 
L 296.5004 140.588848 
L 297.738441 140.595308 
L 298.047951 140.596467 
L 298.976481 140.617545 
L 302.845356 140.596137 
L 303.464377 140.618985 
L 303.773887 140.614658 
L 303.928642 140.61344 
L 304.083397 140.491075 
L 304.392907 140.613596 
L 304.702417 140.590925 
L 305.785702 140.546013 
L 306.095212 140.61083 
L 307.797517 140.619079 
L 307.952272 140.523492 
L 308.261782 140.617249 
L 310.583108 140.608845 
L 311.047373 140.609246 
L 311.202128 140.498525 
L 311.666393 140.611137 
L 312.285413 140.605585 
L 312.440168 140.423216 
L 312.594923 140.612513 
L 315.999534 140.613008 
L 316.618554 140.60855 
L 316.773309 140.499355 
L 317.082819 140.600503 
L 318.166104 140.608262 
L 318.475614 140.605935 
L 319.86841 140.612506 
L 320.642185 140.494237 
L 320.951695 140.567074 
L 321.41596 140.586875 
L 322.03498 140.618268 
L 324.51106 140.59779 
L 325.903856 140.618354 
L 326.677631 140.574904 
L 327.141896 140.615838 
L 327.296651 140.418428 
L 327.451406 140.618993 
L 327.915671 140.593276 
L 328.689446 140.61688 
L 330.701262 140.609399 
L 331.475037 140.605733 
L 331.629792 95.861391 
L 331.784547 92.410435 
L 331.939302 135.065891 
L 332.094057 139.827141 
L 332.403567 93.045936 
L 332.558322 102.039066 
L 332.867832 137.285815 
L 333.022587 140.514079 
L 333.332097 139.075293 
L 333.486852 139.730061 
L 333.796362 140.188699 
L 334.105872 140.564044 
L 334.260627 140.560673 
L 334.415382 140.296256 
L 334.570137 140.299514 
L 334.724892 140.112696 
L 335.034402 140.55253 
L 335.343912 140.168497 
L 335.498667 140.283662 
L 335.653422 139.792443 
L 335.808178 140.274346 
L 336.427198 140.617215 
L 336.581953 140.526594 
L 337.046218 140.580139 
L 339.831808 140.602773 
L 342.772154 140.590261 
L 343.545929 140.608094 
L 349.73613 140.607377 
L 351.28368 140.619094 
L 352.985986 140.580271 
L 353.605006 140.617606 
L 356.854861 140.60491 
L 358.092902 140.609577 
L 358.247657 140.459431 
L 358.557167 140.619122 
L 359.330942 140.578537 
L 359.949962 140.617608 
L 360.723737 140.599727 
L 363.045062 140.618492 
L 363.509328 140.554446 
L 363.973593 140.619013 
L 369.544774 140.607252 
L 371.092324 140.568151 
L 371.556589 140.580035 
L 372.794629 140.584658 
L 373.104139 140.601617 
L 373.413649 140.529173 
L 373.723159 140.593474 
L 374.34218 140.594415 
L 374.9612 140.610432 
L 375.88973 140.603811 
L 376.663505 140.579994 
L 376.81826 140.460434 
L 376.973015 140.617455 
L 377.592035 140.534889 
L 377.74679 140.613293 
L 378.0563 140.57475 
L 379.29434 140.59726 
L 380.068116 140.613192 
L 380.687136 140.533465 
L 380.841891 140.618899 
L 381.151401 140.570286 
L 381.615666 140.602376 
L 383.472726 140.595349 
L 383.782236 140.599355 
L 383.936991 140.525393 
L 384.401256 140.579899 
L 384.556011 140.618519 
L 384.710766 140.525559 
L 385.020276 140.610797 
L 386.258317 140.612224 
L 386.877337 140.608958 
L 387.032092 140.514871 
L 387.341602 140.611138 
L 388.579642 140.513166 
L 388.889152 140.619098 
L 390.746213 140.605752 
L 391.984253 140.616403 
L 393.067538 140.581982 
L 393.686558 140.609895 
L 394.305578 140.548278 
L 394.769843 140.617069 
L 396.317394 140.606651 
L 399.102984 140.595052 
L 399.412494 140.606737 
L 400.650534 140.619022 
L 401.269554 140.586145 
L 401.888575 140.610944 
L 402.817105 140.619086 
L 403.126615 140.524368 
L 403.28137 140.615335 
L 403.436125 140.467724 
L 403.745635 140.611808 
L 408.233531 140.619127 
L 408.388286 140.517246 
L 408.697796 140.610212 
L 409.316816 140.607162 
L 411.173876 140.596907 
L 412.411916 140.617463 
L 413.030937 140.446827 
L 413.340447 140.607947 
L 414.268977 140.608816 
L 414.578487 140.618305 
L 420.459178 140.610093 
L 420.613933 140.482419 
L 420.768688 140.613795 
L 421.851973 140.582948 
L 422.625748 140.617448 
L 423.709034 140.618863 
L 423.863789 140.507327 
L 424.328054 140.588942 
L 425.875604 140.618865 
L 426.804134 140.569297 
L 427.268399 140.604876 
L 427.887419 140.582866 
L 429.43497 140.616497 
L 430.208745 140.609078 
L 431.446785 140.618305 
L 431.60154 140.503596 
L 431.91105 140.61068 
L 433.14909 140.611492 
L 433.303845 140.549923 
L 433.613355 140.618064 
L 433.922865 140.484424 
L 434.232375 140.613808 
L 436.553701 140.616537 
L 436.708456 140.544935 
L 437.017966 140.618484 
L 437.791741 140.607949 
L 439.958312 140.616528 
L 440.422577 140.548676 
L 441.041597 140.618673 
L 445.529493 140.604563 
L 445.684248 140.466461 
L 445.993758 140.617435 
L 462.707301 140.609749 
L 465.957156 140.61584 
L 471.218827 140.619044 
L 471.373582 140.51524 
L 471.528337 140.617843 
L 471.683092 140.417169 
L 471.992602 140.614851 
L 478.492314 140.612661 
L 480.504129 140.61157 
L 480.658884 140.53905 
L 481.123149 140.610257 
L 482.051679 140.612064 
L 484.21825 140.618838 
L 489.015655 140.574232 
L 489.479921 140.607744 
L 490.098941 140.59776 
L 490.253696 140.396508 
L 490.563206 140.551597 
L 490.717961 140.444716 
L 491.027471 140.618765 
L 495.360612 140.56937 
L 495.824877 140.617145 
L 496.598652 140.613834 
L 498.610467 140.543284 
L 498.919977 140.567376 
L 499.848507 140.616102 
L 500.003262 140.53962 
L 500.312773 140.607953 
L 504.800668 140.598621 
L 504.955423 140.492679 
L 505.264933 140.613463 
L 506.038709 140.589295 
L 506.657729 140.611697 
L 506.812484 140.512999 
L 507.121994 140.618899 
L 508.360034 140.602885 
L 509.598074 140.618997 
L 510.990869 140.537092 
L 511.455135 140.602796 
L 511.764645 140.606484 
L 514.39548 140.615222 
L 514.550235 140.469639 
L 514.70499 140.618835 
L 515.32401 140.614933 
L 516.407295 140.590732 
L 517.490581 140.61675 
L 517.645336 140.61096 
L 517.800091 140.490724 
L 517.954846 140.604192 
L 518.419111 140.618363 
L 524.145047 140.608545 
L 525.847352 140.613312 
L 526.002107 140.500241 
L 526.156862 140.618927 
L 526.466372 140.538889 
L 526.621127 140.616699 
L 526.930637 140.618749 
L 528.478188 140.61126 
L 528.632943 140.364449 
L 528.942453 140.559222 
L 529.561473 140.597411 
L 534.049369 140.616815 
L 534.358879 140.57976 
L 534.977899 140.613583 
L 538.846775 140.577143 
L 539.00153 140.478102 
L 539.156285 140.607781 
L 539.62055 140.605276 
L 544.263201 140.574551 
L 544.417956 140.617092 
L 544.572711 140.527254 
L 544.882221 140.614411 
L 548.441586 140.607115 
L 552.155707 140.612162 
L 552.465217 140.608686 
L 552.619972 140.504572 
L 552.929482 140.619099 
L 554.167522 140.593437 
L 554.786542 140.585771 
L 558.191153 140.614542 
L 560.667234 140.618232 
L 560.821989 140.429192 
L 561.441009 140.617645 
L 565.309884 140.617986 
L 565.464639 140.520922 
L 565.774149 140.592139 
L 566.547925 140.617877 
L 574.595186 140.587053 
L 574.749941 140.378811 
L 574.904696 140.574235 
L 579.237837 140.617716 
L 579.392592 140.527022 
L 579.702102 140.605032 
L 580.475877 140.616274 
L 580.630632 140.487725 
L 580.940142 140.611264 
L 582.951958 140.611804 
L 583.570978 140.619101 
L 593.4753 140.607968 
L 595.02285 140.61913 
L 596.5704 140.60897 
L 598.11795 140.611675 
L 598.272705 140.543917 
L 598.582215 140.610971 
L 601.058296 140.619088 
L 631.545037 140.56007 
L 631.854547 140.425763 
L 632.009302 140.6183 
L 632.164057 140.428443 
L 632.318812 140.615188 
L 632.937832 140.614413 
L 635.259157 140.613126 
L 635.413912 140.542345 
L 635.723422 140.613372 
L 635.878177 140.522288 
L 636.187687 140.603778 
L 638.199503 140.613232 
L 638.354258 140.535184 
L 638.663768 140.612469 
L 640.830338 140.605626 
L 642.068378 140.616299 
L 644.853969 140.565666 
L 645.163479 140.594175 
L 649.80613 140.575366 
L 650.270395 140.615015 
L 651.198925 140.587465 
L 651.817945 140.618002 
L 652.90123 140.57152 
L 653.520251 140.617543 
L 654.294026 140.574089 
L 654.758291 140.618496 
L 655.532066 140.586321 
L 656.151086 140.615357 
L 657.079616 140.57556 
L 657.853391 140.617226 
L 658.627166 140.619004 
L 660.484227 140.575845 
L 660.638982 140.413436 
L 660.793737 140.59531 
L 660.948492 140.525963 
L 661.258002 140.618269 
L 662.186532 140.618414 
L 664.817368 140.579967 
L 665.436388 140.616629 
L 666.983938 140.593625 
L 667.138693 140.488058 
L 667.448203 140.618645 
L 676.26924 140.610671 
L 677.81679 140.61906 
L 678.1263 140.580465 
L 678.590565 140.619122 
L 683.233216 140.516638 
L 683.387971 140.461759 
L 683.697481 140.618659 
L 719.600648 140.618985 
L 719.755403 140.439471 
L 719.910158 140.608502 
L 720.529178 140.608763 
L 722.386238 140.602509 
L 722.850503 140.54611 
L 723.314768 140.615409 
L 725.790849 140.612486 
L 725.945604 140.480977 
L 726.255114 140.611889 
L 727.493154 140.619115 
L 727.802664 140.535078 
L 728.266929 140.577139 
L 729.195459 140.610742 
L 731.36203 140.593475 
L 732.135805 140.616844 
L 736.778456 140.61909 
L 737.087966 140.585044 
L 737.242721 140.490272 
L 737.552231 140.61903 
L 738.171251 140.543823 
L 738.635516 140.618918 
L 741.111597 140.584087 
L 741.730617 140.609549 
L 743.432922 140.613243 
L 743.742432 140.59401 
L 744.825717 140.587626 
L 745.599492 140.61493 
L 751.325428 140.609646 
L 753.646754 140.618889 
L 754.111019 140.586624 
L 754.730039 140.616126 
L 766.955686 140.612253 
L 768.038971 140.611246 
L 768.193726 140.537123 
L 768.348481 140.611625 
L 768.503237 140.474403 
L 768.657992 140.613625 
L 769.122257 140.613145 
L 770.050787 140.588115 
L 770.515052 140.610477 
L 770.824562 140.61534 
L 773.764907 140.574519 
L 774.229173 140.618545 
L 776.860008 140.605265 
L 779.800354 140.61913 
L 780.574129 140.580147 
L 781.193149 140.615368 
L 791.561736 140.55945 
L 792.026001 140.616162 
L 797.597182 140.619073 
L 797.597182 140.619073 
" clip-path="url(#p9413e544c5)" style="fill: none; stroke: #1f77b4; stroke-width: 1.5; stroke-linecap: square"/>
   </g>
   <g id="patch_8">
    <path d="M 115.29 140.61913 
L 115.29 92.410435 
" style="fill: none; stroke: #000000; stroke-width: 2.5; stroke-linejoin: miter; stroke-linecap: square"/>
   </g>
   <g id="patch_9">
    <path d="M 115.29 140.61913 
L 830.088 140.61913 
" style="fill: none; stroke: #000000; stroke-width: 2.5; stroke-linejoin: miter; stroke-linecap: square"/>
   </g>
  </g>
  <g id="axes_3">
   <g id="patch_10">
    <path d="M 115.29 198.469565 
L 830.088 198.469565 
L 830.088 150.26087 
L 115.29 150.26087 
z
" style="fill: #ffffff"/>
   </g>
   <g id="patch_11">
    <path d="M 331.475037 198.469565 
L 331.475037 150.26087 
L 333.022587 150.26087 
L 333.022587 198.469565 
z
" clip-path="url(#pae650eb5b3)" style="fill: #ff7f50; stroke: #ff7f50; stroke-linejoin: miter"/>
   </g>
   <g id="matplotlib.axis_5"/>
   <g id="matplotlib.axis_6">
    <g id="text_3">
     <!-- TRAKR -->
     <g transform="translate(108.378438 197.467405)rotate(-90)scale(0.14 -0.14)">
      <defs>
       <path id="DejaVuSans-54" d="M -19 4666 
L 3928 4666 
L 3928 4134 
L 2272 4134 
L 2272 0 
L 1638 0 
L 1638 4134 
L -19 4134 
L -19 4666 
z
" transform="scale(0.015625)"/>
       <path id="DejaVuSans-52" d="M 2841 2188 
Q 3044 2119 3236 1894 
Q 3428 1669 3622 1275 
L 4263 0 
L 3584 0 
L 2988 1197 
Q 2756 1666 2539 1819 
Q 2322 1972 1947 1972 
L 1259 1972 
L 1259 0 
L 628 0 
L 628 4666 
L 2053 4666 
Q 2853 4666 3247 4331 
Q 3641 3997 3641 3322 
Q 3641 2881 3436 2590 
Q 3231 2300 2841 2188 
z
M 1259 4147 
L 1259 2491 
L 2053 2491 
Q 2509 2491 2742 2702 
Q 2975 2913 2975 3322 
Q 2975 3731 2742 3939 
Q 2509 4147 2053 4147 
L 1259 4147 
z
" transform="scale(0.015625)"/>
       <path id="DejaVuSans-41" d="M 2188 4044 
L 1331 1722 
L 3047 1722 
L 2188 4044 
z
M 1831 4666 
L 2547 4666 
L 4325 0 
L 3669 0 
L 3244 1197 
L 1141 1197 
L 716 0 
L 50 0 
L 1831 4666 
z
" transform="scale(0.015625)"/>
       <path id="DejaVuSans-4b" d="M 628 4666 
L 1259 4666 
L 1259 2694 
L 3353 4666 
L 4166 4666 
L 1850 2491 
L 4331 0 
L 3500 0 
L 1259 2247 
L 1259 0 
L 628 0 
L 628 4666 
z
" transform="scale(0.015625)"/>
      </defs>
      <use xlink:href="#DejaVuSans-54"/>
      <use xlink:href="#DejaVuSans-52" x="61.083984"/>
      <use xlink:href="#DejaVuSans-41" x="126.566406"/>
      <use xlink:href="#DejaVuSans-4b" x="194.974609"/>
      <use xlink:href="#DejaVuSans-52" x="260.550781"/>
     </g>
    </g>
   </g>
   <g id="line2d_3">
    <path d="M 147.780818 198.469565 
L 331.475037 198.467372 
L 331.784547 181.23372 
L 332.094057 197.446753 
L 332.403567 150.26087 
L 332.558322 162.855638 
L 332.867832 196.013406 
L 333.022587 198.383129 
L 333.332097 197.188947 
L 333.486852 197.736902 
L 333.796362 198.026813 
L 334.105872 198.394779 
L 334.260627 198.368373 
L 334.415382 197.78659 
L 334.570137 197.716862 
L 334.724892 197.161572 
L 335.034402 198.262868 
L 335.343912 196.786852 
L 335.498667 197.316078 
L 335.653422 195.985495 
L 335.808178 197.478569 
L 336.427198 198.464214 
L 336.581953 198.267589 
L 336.891463 198.423334 
L 338.284258 198.467925 
L 348.8076 198.469551 
L 350.66466 198.465635 
L 355.616821 198.469492 
L 484.063495 198.469358 
L 560.667234 198.469487 
L 561.750519 198.469501 
L 797.597182 198.469563 
L 797.597182 198.469563 
" clip-path="url(#pae650eb5b3)" style="fill: none; stroke: #1f77b4; stroke-width: 1.5; stroke-linecap: square"/>
   </g>
   <g id="patch_12">
    <path d="M 115.29 198.469565 
L 115.29 150.26087 
" style="fill: none; stroke: #000000; stroke-width: 2.5; stroke-linejoin: miter; stroke-linecap: square"/>
   </g>
   <g id="patch_13">
    <path d="M 115.29 198.469565 
L 830.088 198.469565 
" style="fill: none; stroke: #000000; stroke-width: 2.5; stroke-linejoin: miter; stroke-linecap: square"/>
   </g>
  </g>
  <g id="axes_4">
   <g id="patch_14">
    <path d="M 115.29 256.32 
L 830.088 256.32 
L 830.088 208.111304 
L 115.29 208.111304 
z
" style="fill: #ffffff"/>
   </g>
   <g id="patch_15">
    <path d="M 331.475037 256.32 
L 331.475037 208.111304 
L 333.022587 208.111304 
L 333.022587 256.32 
z
" clip-path="url(#p747162dd41)" style="fill: #ff7f50; stroke: #ff7f50; stroke-linejoin: miter"/>
   </g>
   <g id="matplotlib.axis_7">
    <g id="text_4">
     <!-- Time -->
     <g transform="translate(450.668531 273.997187)scale(0.18 -0.18)">
      <defs>
       <path id="DejaVuSans-69" d="M 603 3500 
L 1178 3500 
L 1178 0 
L 603 0 
L 603 3500 
z
M 603 4863 
L 1178 4863 
L 1178 4134 
L 603 4134 
L 603 4863 
z
" transform="scale(0.015625)"/>
       <path id="DejaVuSans-6d" d="M 3328 2828 
Q 3544 3216 3844 3400 
Q 4144 3584 4550 3584 
Q 5097 3584 5394 3201 
Q 5691 2819 5691 2113 
L 5691 0 
L 5113 0 
L 5113 2094 
Q 5113 2597 4934 2840 
Q 4756 3084 4391 3084 
Q 3944 3084 3684 2787 
Q 3425 2491 3425 1978 
L 3425 0 
L 2847 0 
L 2847 2094 
Q 2847 2600 2669 2842 
Q 2491 3084 2119 3084 
Q 1678 3084 1418 2786 
Q 1159 2488 1159 1978 
L 1159 0 
L 581 0 
L 581 3500 
L 1159 3500 
L 1159 2956 
Q 1356 3278 1631 3431 
Q 1906 3584 2284 3584 
Q 2666 3584 2933 3390 
Q 3200 3197 3328 2828 
z
" transform="scale(0.015625)"/>
       <path id="DejaVuSans-65" d="M 3597 1894 
L 3597 1613 
L 953 1613 
Q 991 1019 1311 708 
Q 1631 397 2203 397 
Q 2534 397 2845 478 
Q 3156 559 3463 722 
L 3463 178 
Q 3153 47 2828 -22 
Q 2503 -91 2169 -91 
Q 1331 -91 842 396 
Q 353 884 353 1716 
Q 353 2575 817 3079 
Q 1281 3584 2069 3584 
Q 2775 3584 3186 3129 
Q 3597 2675 3597 1894 
z
M 3022 2063 
Q 3016 2534 2758 2815 
Q 2500 3097 2075 3097 
Q 1594 3097 1305 2825 
Q 1016 2553 972 2059 
L 3022 2063 
z
" transform="scale(0.015625)"/>
      </defs>
      <use xlink:href="#DejaVuSans-54"/>
      <use xlink:href="#DejaVuSans-69" x="57.958984"/>
      <use xlink:href="#DejaVuSans-6d" x="85.742188"/>
      <use xlink:href="#DejaVuSans-65" x="183.154297"/>
     </g>
    </g>
   </g>
   <g id="matplotlib.axis_8">
    <g id="text_5">
     <!-- MD-RS -->
     <g transform="translate(108.378438 255.478621)rotate(-90)scale(0.14 -0.14)">
      <defs>
       <path id="DejaVuSans-4d" d="M 628 4666 
L 1569 4666 
L 2759 1491 
L 3956 4666 
L 4897 4666 
L 4897 0 
L 4281 0 
L 4281 4097 
L 3078 897 
L 2444 897 
L 1241 4097 
L 1241 0 
L 628 0 
L 628 4666 
z
" transform="scale(0.015625)"/>
       <path id="DejaVuSans-44" d="M 1259 4147 
L 1259 519 
L 2022 519 
Q 2988 519 3436 956 
Q 3884 1394 3884 2338 
Q 3884 3275 3436 3711 
Q 2988 4147 2022 4147 
L 1259 4147 
z
M 628 4666 
L 1925 4666 
Q 3281 4666 3915 4102 
Q 4550 3538 4550 2338 
Q 4550 1131 3912 565 
Q 3275 0 1925 0 
L 628 0 
L 628 4666 
z
" transform="scale(0.015625)"/>
       <path id="DejaVuSans-2d" d="M 313 2009 
L 1997 2009 
L 1997 1497 
L 313 1497 
L 313 2009 
z
" transform="scale(0.015625)"/>
      </defs>
      <use xlink:href="#DejaVuSans-4d"/>
      <use xlink:href="#DejaVuSans-44" x="86.279297"/>
      <use xlink:href="#DejaVuSans-2d" x="163.28125"/>
      <use xlink:href="#DejaVuSans-52" x="199.365234"/>
      <use xlink:href="#DejaVuSans-53" x="268.847656"/>
     </g>
    </g>
   </g>
   <g id="line2d_4">
    <path d="M 147.780818 256.32 
L 148.399838 256.289209 
L 157.220875 256.23561 
L 160.16122 256.231425 
L 162.946811 256.267263 
L 168.053727 256.298967 
L 176.874763 256.299368 
L 206.897239 256.239063 
L 210.147095 256.185096 
L 212.77793 256.264684 
L 219.587151 256.274016 
L 226.705883 256.298469 
L 233.979369 256.260551 
L 236.455449 256.240033 
L 242.02663 256.269168 
L 245.585996 256.254048 
L 259.204439 256.294484 
L 266.787435 256.224979 
L 272.049106 256.278101 
L 321.570715 256.227688 
L 322.96351 256.233736 
L 331.629792 256.208648 
L 331.784547 253.936275 
L 331.939302 244.112768 
L 332.248812 215.003529 
L 332.403567 212.377574 
L 332.867832 226.749122 
L 333.022587 226.336624 
L 333.486852 208.111304 
L 333.796362 222.610892 
L 334.260627 239.200018 
L 334.724892 247.926913 
L 335.189157 251.683451 
L 335.653422 254.549654 
L 336.117688 255.289842 
L 336.891463 256.134184 
L 337.510483 256.266206 
L 339.367543 256.296683 
L 349.271865 256.254819 
L 350.509905 256.243198 
L 358.402412 256.258275 
L 359.176187 256.244994 
L 366.140163 256.286916 
L 450.017388 256.299302 
L 459.92171 256.286555 
L 491.646491 256.207686 
L 492.575021 256.200283 
L 495.515367 256.236066 
L 500.003262 256.215645 
L 503.253118 256.265411 
L 514.550235 256.295844 
L 517.490581 256.277368 
L 523.061762 256.272581 
L 551.227177 256.258253 
L 552.929482 256.25281 
L 573.666656 256.276225 
L 575.987981 256.203493 
L 585.273283 256.271389 
L 588.213629 256.270114 
L 599.665501 256.292823 
L 618.545614 256.280713 
L 624.89057 256.30107 
L 641.604113 256.256412 
L 654.603536 256.282191 
L 661.258002 256.209013 
L 662.650797 256.209705 
L 669.305263 256.219643 
L 671.936099 256.239084 
L 672.709874 256.251272 
L 678.43581 256.289757 
L 687.411602 256.261373 
L 700.411024 256.273287 
L 707.375 256.299139 
L 722.076728 256.245901 
L 725.636094 256.273617 
L 732.135805 256.287429 
L 768.657992 256.283306 
L 771.753092 256.280068 
L 786.609575 256.271107 
L 793.418796 256.284888 
L 797.597182 256.284772 
L 797.597182 256.284772 
" clip-path="url(#p747162dd41)" style="fill: none; stroke: #1f77b4; stroke-width: 1.5; stroke-linecap: square"/>
   </g>
   <g id="patch_16">
    <path d="M 115.29 256.32 
L 115.29 208.111304 
" style="fill: none; stroke: #000000; stroke-width: 2.5; stroke-linejoin: miter; stroke-linecap: square"/>
   </g>
   <g id="patch_17">
    <path d="M 115.29 256.32 
L 830.088 256.32 
" style="fill: none; stroke: #000000; stroke-width: 2.5; stroke-linejoin: miter; stroke-linecap: square"/>
   </g>
  </g>
 </g>
 <defs>
  <clipPath id="p6424fba99b">
   <rect x="115.29" y="34.56" width="714.798" height="48.208696"/>
  </clipPath>
  <clipPath id="p9413e544c5">
   <rect x="115.29" y="92.410435" width="714.798" height="48.208696"/>
  </clipPath>
  <clipPath id="pae650eb5b3">
   <rect x="115.29" y="150.26087" width="714.798" height="48.208696"/>
  </clipPath>
  <clipPath id="p747162dd41">
   <rect x="115.29" y="208.111304" width="714.798" height="48.208696"/>
  </clipPath>
 </defs>
</svg>
