<?xml version="1.0" encoding="utf-8" standalone="no"?>
<!DOCTYPE svg PUBLIC "-//W3C//DTD SVG 1.1//EN"
  "http://www.w3.org/Graphics/SVG/1.1/DTD/svg11.dtd">
<svg xmlns:xlink="http://www.w3.org/1999/xlink" width="576pt" height="432pt" viewBox="0 0 576 432" xmlns="http://www.w3.org/2000/svg" version="1.1">
 <metadata>
  <rdf:RDF xmlns:dc="http://purl.org/dc/elements/1.1/" xmlns:cc="http://creativecommons.org/ns#" xmlns:rdf="http://www.w3.org/1999/02/22-rdf-syntax-ns#">
   <cc:Work>
    <dc:type rdf:resource="http://purl.org/dc/dcmitype/StillImage"/>
    <dc:date>2024-04-26T02:52:19.662660</dc:date>
    <dc:format>image/svg+xml</dc:format>
    <dc:creator>
     <cc:Agent>
      <dc:title>Matplotlib v3.5.1, https://matplotlib.org/</dc:title>
     </cc:Agent>
    </dc:creator>
   </cc:Work>
  </rdf:RDF>
 </metadata>
 <defs>
  <style type="text/css">*{stroke-linejoin: round; stroke-linecap: butt}</style>
 </defs>
 <g id="figure_1">
  <g id="patch_1">
   <path d="M 0 432 
L 576 432 
L 576 0 
L 0 0 
z
" style="fill: #ffffff"/>
  </g>
  <g id="axes_1">
   <g id="patch_2">
    <path d="M 37.12 112.04 
L 556.56 112.04 
L 556.56 38.4 
L 37.12 38.4 
z
" style="fill: #ffffff"/>
   </g>
   <g id="patch_3">
    <path d="M 247.694671 112.04 
L 247.694671 38.4 
L 310.542461 38.4 
L 310.542461 112.04 
z
" clip-path="url(#p2fdb802f09)" style="fill: #ff7f50; stroke: #ff7f50; stroke-linejoin: miter"/>
   </g>
   <g id="matplotlib.axis_1"/>
   <g id="matplotlib.axis_2">
    <g id="text_1">
     <!-- Input -->
     <g transform="translate(30.208437 93.345625)rotate(-90)scale(0.14 -0.14)">
      <defs>
       <path id="DejaVuSans-49" d="M 628 4666 
L 1259 4666 
L 1259 0 
L 628 0 
L 628 4666 
z
" transform="scale(0.015625)"/>
       <path id="DejaVuSans-6e" d="M 3513 2113 
L 3513 0 
L 2938 0 
L 2938 2094 
Q 2938 2591 2744 2837 
Q 2550 3084 2163 3084 
Q 1697 3084 1428 2787 
Q 1159 2491 1159 1978 
L 1159 0 
L 581 0 
L 581 3500 
L 1159 3500 
L 1159 2956 
Q 1366 3272 1645 3428 
Q 1925 3584 2291 3584 
Q 2894 3584 3203 3211 
Q 3513 2838 3513 2113 
z
" transform="scale(0.015625)"/>
       <path id="DejaVuSans-70" d="M 1159 525 
L 1159 -1331 
L 581 -1331 
L 581 3500 
L 1159 3500 
L 1159 2969 
Q 1341 3281 1617 3432 
Q 1894 3584 2278 3584 
Q 2916 3584 3314 3078 
Q 3713 2572 3713 1747 
Q 3713 922 3314 415 
Q 2916 -91 2278 -91 
Q 1894 -91 1617 61 
Q 1341 213 1159 525 
z
M 3116 1747 
Q 3116 2381 2855 2742 
Q 2594 3103 2138 3103 
Q 1681 3103 1420 2742 
Q 1159 2381 1159 1747 
Q 1159 1113 1420 752 
Q 1681 391 2138 391 
Q 2594 391 2855 752 
Q 3116 1113 3116 1747 
z
" transform="scale(0.015625)"/>
       <path id="DejaVuSans-75" d="M 544 1381 
L 544 3500 
L 1119 3500 
L 1119 1403 
Q 1119 906 1312 657 
Q 1506 409 1894 409 
Q 2359 409 2629 706 
Q 2900 1003 2900 1516 
L 2900 3500 
L 3475 3500 
L 3475 0 
L 2900 0 
L 2900 538 
Q 2691 219 2414 64 
Q 2138 -91 1772 -91 
Q 1169 -91 856 284 
Q 544 659 544 1381 
z
M 1991 3584 
L 1991 3584 
z
" transform="scale(0.015625)"/>
       <path id="DejaVuSans-74" d="M 1172 4494 
L 1172 3500 
L 2356 3500 
L 2356 3053 
L 1172 3053 
L 1172 1153 
Q 1172 725 1289 603 
Q 1406 481 1766 481 
L 2356 481 
L 2356 0 
L 1766 0 
Q 1100 0 847 248 
Q 594 497 594 1153 
L 594 3053 
L 172 3053 
L 172 3500 
L 594 3500 
L 594 4494 
L 1172 4494 
z
" transform="scale(0.015625)"/>
      </defs>
      <use xlink:href="#DejaVuSans-49"/>
      <use xlink:href="#DejaVuSans-6e" x="29.492188"/>
      <use xlink:href="#DejaVuSans-70" x="92.871094"/>
      <use xlink:href="#DejaVuSans-75" x="156.347656"/>
      <use xlink:href="#DejaVuSans-74" x="219.726562"/>
     </g>
    </g>
   </g>
   <g id="line2d_1">
    <path d="M 37.069646 102.778752 
L 37.635842 102.783899 
L 39.334431 101.797137 
L 39.900627 100.620208 
L 40.466824 99.818466 
L 41.599216 96.935256 
L 42.731609 93.563811 
L 48.959768 72.67729 
L 51.224553 66.823514 
L 52.356946 64.187001 
L 52.923142 63.380125 
L 54.055535 61.211288 
L 55.754124 58.307533 
L 56.32032 56.955864 
L 56.886516 56.025633 
L 58.585105 52.376666 
L 59.717498 50.105046 
L 60.849891 48.080124 
L 61.982283 46.101493 
L 63.680872 43.937789 
L 64.813265 42.909827 
L 65.945657 42.298305 
L 67.07805 42.35489 
L 67.644246 42.509017 
L 68.776639 43.434047 
L 69.342835 44.33348 
L 69.909031 44.934763 
L 71.041424 47.170452 
L 72.173817 50.038235 
L 74.438602 57.644545 
L 77.269583 66.808101 
L 77.83578 68.473264 
L 79.534369 72.440886 
L 81.232957 76.254313 
L 84.063939 80.751288 
L 85.196332 81.799728 
L 85.762528 82.390758 
L 86.894921 83.043467 
L 87.461117 83.732147 
L 88.027313 83.93258 
L 88.593509 84.580141 
L 89.159706 84.70863 
L 89.725902 85.001579 
L 90.292098 85.536078 
L 91.424491 86.111683 
L 92.556884 86.502281 
L 93.12308 87.15499 
L 93.689276 87.298891 
L 94.255472 87.725461 
L 94.821669 87.956732 
L 95.387865 88.414142 
L 98.785043 90.022773 
L 99.351239 89.986788 
L 100.483632 90.618937 
L 101.616024 91.112318 
L 102.182221 91.163716 
L 103.314613 91.538889 
L 107.277987 92.453707 
L 107.844184 92.659286 
L 108.976576 92.8186 
L 109.542773 92.613021 
L 110.108969 93.008752 
L 110.675165 93.234891 
L 111.807558 93.039591 
L 112.939951 93.481588 
L 113.506147 93.389071 
L 114.072343 93.59465 
L 114.638539 93.589517 
L 115.204736 93.697446 
L 116.337128 94.10859 
L 116.903325 94.149709 
L 117.469521 94.067472 
L 121.432895 94.853802 
L 121.999091 95.26496 
L 123.131484 95.4397 
L 123.69768 95.835431 
L 124.263877 95.722369 
L 124.830073 95.87655 
L 125.396269 96.256855 
L 125.962466 96.297973 
L 127.661054 96.935256 
L 128.227251 96.858165 
L 128.793447 97.361826 
L 129.359643 97.315574 
L 129.92584 97.726732 
L 130.492036 97.886046 
L 131.058232 97.922031 
L 131.624429 98.286924 
L 132.190625 98.425692 
L 132.756821 98.713494 
L 134.45541 98.985884 
L 135.021606 99.468986 
L 135.587803 99.556356 
L 136.153999 99.767067 
L 137.286392 100.563677 
L 137.852588 100.66646 
L 138.984981 101.473349 
L 139.551177 101.54016 
L 140.117373 101.925625 
L 140.683569 101.920478 
L 141.815962 102.269958 
L 142.382158 102.30593 
L 142.948355 102.213427 
L 143.514551 101.925625 
L 144.646944 100.985114 
L 145.779336 98.754613 
L 146.911729 95.912522 
L 153.139888 75.133929 
L 154.838477 70.066483 
L 155.97087 67.054785 
L 157.669459 63.390405 
L 158.801851 61.252407 
L 159.368047 60.440384 
L 159.934244 59.355973 
L 160.50044 58.610761 
L 162.199029 55.480867 
L 162.765225 54.437561 
L 163.331422 53.04992 
L 165.030011 49.812111 
L 165.596207 49.200521 
L 166.728599 47.057389 
L 168.427188 44.744665 
L 169.559581 43.603668 
L 170.125777 43.526604 
L 170.691974 43.249068 
L 171.824366 43.172005 
L 172.390562 43.218216 
L 174.089151 44.611016 
L 174.655348 45.32547 
L 176.920133 50.130752 
L 178.052526 53.800278 
L 181.449703 65.51811 
L 182.0159 66.869765 
L 183.714489 71.716233 
L 186.54547 77.564863 
L 187.111666 78.448843 
L 187.677863 79.620624 
L 190.508844 83.074306 
L 196.170807 87.242346 
L 196.737004 87.453072 
L 197.3032 87.884775 
L 197.869396 88.033823 
L 198.435592 88.671105 
L 202.965163 91.132878 
L 203.531359 91.281925 
L 204.097555 91.93462 
L 204.663752 92.011711 
L 205.796144 92.515371 
L 206.362341 92.582196 
L 206.928537 92.90597 
L 208.627126 93.373659 
L 210.325715 93.532972 
L 210.891911 93.882452 
L 211.458107 93.887599 
L 212.024304 94.190827 
L 213.156696 94.211373 
L 214.289089 94.324449 
L 214.855285 94.64309 
L 215.421482 94.519748 
L 215.987678 94.766432 
L 217.686267 94.797271 
L 218.252463 95.460259 
L 218.818659 95.064514 
L 219.384856 95.362609 
L 219.951052 95.151884 
L 220.517248 95.480818 
L 221.083445 95.413994 
L 221.649641 95.69153 
L 222.215837 95.552762 
L 222.782034 95.69153 
L 223.34823 96.03073 
L 224.480622 96.076982 
L 225.046819 96.231163 
L 226.179211 96.220883 
L 226.745408 96.575496 
L 227.311604 96.637174 
L 229.010193 97.315574 
L 229.576389 97.223071 
L 230.708782 97.747291 
L 231.274978 97.942577 
L 232.407371 98.009401 
L 232.973567 98.394853 
L 233.539763 98.620978 
L 234.10596 98.698068 
L 238.069334 100.430055 
L 238.63553 100.460894 
L 239.767923 100.979968 
L 240.900315 101.43223 
L 241.466512 101.642956 
L 242.032708 102.156896 
L 243.731297 102.485817 
L 245.429886 103.256721 
L 247.128475 103.611347 
L 247.694671 96.541639 
L 248.260867 96.912473 
L 248.827064 97.139097 
L 249.39326 100.669936 
L 249.959456 107.539966 
L 250.525652 108.625967 
L 251.091849 101.535525 
L 251.658045 91.918022 
L 252.224241 103.492007 
L 252.790438 101.348444 
L 253.356634 87.371832 
L 253.92283 101.267905 
L 254.489027 89.385572 
L 255.055223 86.117395 
L 255.621419 96.047477 
L 256.187615 80.038505 
L 256.753812 92.15735 
L 257.320008 85.412561 
L 257.886204 77.064543 
L 258.452401 88.343828 
L 259.018597 72.698819 
L 259.584793 76.414018 
L 260.15099 83.401825 
L 260.717186 68.810659 
L 261.283382 71.050295 
L 261.849579 80.096464 
L 262.415775 72.030536 
L 262.981971 62.135039 
L 263.548167 64.339026 
L 264.114364 74.030764 
L 264.68056 74.642448 
L 265.246756 65.370895 
L 265.812953 58.185255 
L 266.379149 59.956313 
L 266.945345 68.830949 
L 267.511542 71.487387 
L 268.077738 59.875208 
L 268.643934 53.73367 
L 269.21013 58.64288 
L 269.776327 65.975951 
L 270.342523 66.350005 
L 271.474916 49.8369 
L 272.041112 50.647508 
L 272.607308 56.844297 
L 273.173505 60.498438 
L 273.739701 63.317006 
L 274.305897 62.231207 
L 274.872094 59.864968 
L 275.43829 55.44499 
L 276.004486 57.875668 
L 276.570682 56.491759 
L 277.136879 60.467235 
L 277.703075 63.273409 
L 278.269271 60.721599 
L 278.835468 53.841855 
L 279.401664 51.224756 
L 279.96786 62.317404 
L 280.534057 66.315622 
L 281.100253 53.508286 
L 281.666449 68.927547 
L 282.232645 66.702597 
L 282.798842 59.769555 
L 283.365038 72.78631 
L 283.931234 70.083364 
L 284.497431 62.519049 
L 285.063627 74.793759 
L 285.629823 79.276911 
L 286.19602 68.023292 
L 286.762216 70.820411 
L 287.328412 83.609573 
L 287.894609 78.776645 
L 288.460805 70.418887 
L 289.593197 87.13633 
L 290.159394 86.634758 
L 290.72559 76.087751 
L 291.291786 75.155364 
L 291.857983 86.641481 
L 292.424179 90.33907 
L 292.990375 92.765208 
L 293.556572 89.935794 
L 294.122768 80.746087 
L 294.688964 78.87703 
L 295.25516 80.31429 
L 295.821357 86.090706 
L 296.387553 93.43989 
L 296.953749 96.910277 
L 297.519946 96.351541 
L 298.086142 90.670753 
L 298.652338 86.793856 
L 299.218535 83.75206 
L 299.784731 85.592475 
L 300.350927 88.574857 
L 300.917124 94.716987 
L 301.48332 96.746316 
L 302.049516 101.319384 
L 302.615712 100.057861 
L 303.181909 94.482645 
L 304.880498 87.397861 
L 305.446694 87.713053 
L 306.01289 89.116766 
L 306.579087 94.288935 
L 307.145283 93.393881 
L 307.711479 98.198921 
L 308.277675 100.652852 
L 308.843872 104.310267 
L 309.410068 105.447289 
L 309.976264 105.43352 
L 310.542461 97.711306 
L 312.807246 98.554167 
L 313.939639 98.471944 
L 314.505835 98.682656 
L 315.072031 98.600432 
L 315.638227 98.826557 
L 316.204424 98.913927 
L 316.77062 99.201742 
L 317.336816 99.114372 
L 317.903013 99.340497 
L 318.469209 98.867675 
L 319.035405 99.247994 
L 320.167798 99.546076 
L 321.30019 99.458706 
L 322.432583 99.664285 
L 322.998779 99.438147 
L 323.564976 99.654005 
L 324.131172 99.561489 
L 326.395957 99.813319 
L 326.962154 99.659138 
L 327.52835 99.900689 
L 328.094546 99.823599 
L 329.793135 100.131974 
L 330.925528 100.301567 
L 331.491724 100.471174 
L 332.05792 100.440335 
L 332.624117 100.712725 
L 333.190313 100.537985 
L 333.756509 100.625355 
L 335.455098 101.185547 
L 336.021294 101.087897 
L 336.587491 101.34486 
L 337.153687 101.226665 
L 337.719883 101.601837 
L 338.28608 101.45279 
L 338.852276 101.80227 
L 339.984669 101.987289 
L 340.550865 102.352182 
L 342.81565 102.871269 
L 343.381846 103.159071 
L 343.948043 103.272147 
L 344.514239 103.590788 
L 345.646632 103.837472 
L 346.212828 104.243483 
L 346.779024 104.233203 
L 347.34522 104.582683 
L 347.911417 104.40281 
L 348.477613 104.896191 
L 349.610006 105.019533 
L 350.176202 105.070931 
L 350.742398 105.281643 
L 351.308595 105.338174 
L 352.440987 104.639228 
L 353.007184 103.945401 
L 354.705772 100.964555 
L 355.271969 99.597474 
L 355.838165 98.651817 
L 356.404361 96.678292 
L 356.970558 95.41914 
L 358.669147 90.110143 
L 359.801539 86.990516 
L 360.933932 83.295297 
L 363.198717 77.194824 
L 365.463502 72.497417 
L 366.595895 70.785989 
L 367.162091 70.071616 
L 367.728287 69.110546 
L 368.86068 67.8771 
L 369.426876 66.844073 
L 371.125465 64.582733 
L 372.257858 62.6349 
L 372.824054 62.074709 
L 373.956447 60.301616 
L 375.088839 58.739236 
L 375.655036 58.3024 
L 376.787428 57.176869 
L 377.353625 56.64237 
L 377.919821 56.44707 
L 378.486017 56.005087 
L 379.052213 56.082178 
L 379.61841 55.969102 
L 380.184606 56.236359 
L 380.750802 56.154122 
L 381.316999 56.919892 
L 381.883195 57.367022 
L 383.015588 59.381665 
L 383.581784 60.481503 
L 388.677551 73.078168 
L 389.243747 73.80282 
L 389.809943 75.29839 
L 393.207121 81.779169 
L 393.773317 82.42673 
L 394.90571 84.312898 
L 396.038103 85.608022 
L 397.736692 87.550721 
L 399.43528 88.922935 
L 400.001477 89.647588 
L 400.567673 89.904565 
L 401.700066 90.988976 
L 402.266262 91.338456 
L 403.964851 93.085856 
L 404.531047 93.301701 
L 405.66344 94.185681 
L 406.229636 94.473483 
L 406.795832 95.049101 
L 409.060618 96.195191 
L 409.626814 96.6526 
L 410.19301 96.919843 
L 410.759207 96.894151 
L 411.325403 97.115142 
L 411.891599 97.526286 
L 412.457795 97.562272 
L 413.023992 98.050506 
L 415.288777 98.585006 
L 416.42117 98.903647 
L 416.987366 98.965325 
L 417.553562 99.217155 
L 418.685955 99.325084 
L 419.252151 99.468986 
L 419.818347 99.335364 
L 420.384544 99.474119 
L 420.95074 99.427867 
L 422.083133 99.710536 
L 423.215525 99.669418 
L 424.347918 99.689977 
L 424.914114 99.520384 
L 425.48031 99.803053 
L 426.612703 99.695124 
L 427.745096 99.880143 
L 428.877488 99.777347 
L 431.70847 100.342685 
L 432.274666 100.018898 
L 432.840862 100.388937 
L 433.407059 100.347819 
L 435.671844 100.866905 
L 436.23804 100.723004 
L 436.804237 100.902877 
L 437.370433 100.75383 
L 437.936629 101.154708 
L 438.502825 101.370566 
L 439.069022 101.35514 
L 439.635218 101.52988 
L 440.201414 101.576145 
L 440.767611 101.786857 
L 441.900003 101.95645 
L 442.4662 102.21856 
L 443.032396 102.285371 
L 443.598592 102.208281 
L 444.164788 102.362462 
L 444.730985 102.737647 
L 445.863377 102.963772 
L 446.429574 103.380063 
L 446.99577 103.313252 
L 448.128163 103.734689 
L 449.260555 104.341133 
L 449.826752 104.233203 
L 450.959144 104.726598 
L 451.52534 104.757423 
L 452.091537 104.988694 
L 452.657733 104.901324 
L 453.223929 105.050372 
L 453.790126 104.921884 
L 454.922518 104.22807 
L 455.488715 103.318398 
L 456.054911 102.645131 
L 457.7535 98.744333 
L 460.018285 91.780439 
L 460.584481 90.367107 
L 461.716874 86.677021 
L 462.28307 84.744602 
L 462.849267 83.254179 
L 464.547855 77.713911 
L 465.680248 74.830701 
L 467.945033 69.932862 
L 468.51123 69.151665 
L 469.077426 68.05184 
L 470.209818 66.525432 
L 472.474604 62.845626 
L 473.0408 62.213477 
L 474.173193 60.003534 
L 474.739389 59.001346 
L 475.305585 58.256135 
L 476.437978 56.241492 
L 478.136567 53.882502 
L 478.702763 53.502196 
L 479.268959 52.664468 
L 481.533745 50.994172 
L 482.099941 51.287108 
L 482.666137 51.132927 
L 483.232333 51.600616 
L 483.79853 51.713678 
L 484.364726 52.386946 
L 484.930922 52.828929 
L 486.063315 54.555769 
L 486.629511 56.133562 
L 487.195708 57.14603 
L 487.761904 58.924256 
L 488.3281 60.260498 
L 489.460493 63.739872 
L 491.725278 70.302887 
L 496.254848 80.088313 
L 497.387241 82.030999 
L 497.953437 82.673428 
L 498.519634 83.56254 
L 500.784419 86.188773 
L 501.916812 87.165256 
L 502.483008 87.720315 
L 503.6154 88.270227 
L 504.181597 89.035998 
L 504.747793 89.339226 
L 505.313989 89.878872 
L 505.880186 90.099864 
L 507.578775 91.49777 
L 508.144971 91.77016 
L 509.277363 92.551357 
L 510.409756 93.16808 
L 510.975952 93.322261 
L 512.674541 94.226799 
L 513.240738 94.452924 
L 513.806934 94.900053 
L 514.939326 95.2444 
L 515.505523 95.388302 
L 516.071719 95.748061 
L 516.637915 95.814872 
L 517.770308 96.256855 
L 521.167486 96.770795 
L 521.733682 97.068891 
L 522.299878 97.068891 
L 522.866075 97.243631 
L 523.998467 97.192233 
L 524.564664 97.372106 
L 525.13086 97.197366 
L 527.395645 97.582831 
L 527.961841 97.536566 
L 528.528038 97.670201 
L 529.66043 97.618803 
L 533.057608 97.829515 
L 533.623805 98.060786 
L 535.88859 98.271498 
L 536.454786 98.595286 
L 537.020982 98.559314 
L 539.851964 99.191463 
L 540.41816 99.237714 
L 540.984356 99.417587 
L 541.550553 99.844158 
L 542.116749 99.576915 
L 544.381534 100.532838 
L 546.080123 101.036499 
L 546.64632 101.062205 
L 547.212516 101.427097 
L 548.344908 101.5196 
L 548.911105 101.858801 
L 549.477301 101.88964 
L 550.043497 102.331636 
L 550.609694 102.629718 
L 552.308283 103.046009 
L 552.874479 103.477712 
L 554.006871 103.61648 
L 555.139264 103.981373 
L 556.271657 103.842618 
L 556.837853 103.631893 
L 556.837853 103.631893 
" clip-path="url(#p2fdb802f09)" style="fill: none; stroke: #1f77b4; stroke-width: 1.5; stroke-linecap: square"/>
   </g>
   <g id="patch_4">
    <path d="M 37.12 112.04 
L 37.12 38.4 
" style="fill: none; stroke: #000000; stroke-width: 2.5; stroke-linejoin: miter; stroke-linecap: square"/>
   </g>
   <g id="patch_5">
    <path d="M 37.12 112.04 
L 556.56 112.04 
" style="fill: none; stroke: #000000; stroke-width: 2.5; stroke-linejoin: miter; stroke-linecap: square"/>
   </g>
   <g id="text_2">
    <!-- UCR_136 -->
    <g transform="translate(256.03625 32.4)scale(0.18 -0.18)">
     <defs>
      <path id="DejaVuSans-55" d="M 556 4666 
L 1191 4666 
L 1191 1831 
Q 1191 1081 1462 751 
Q 1734 422 2344 422 
Q 2950 422 3222 751 
Q 3494 1081 3494 1831 
L 3494 4666 
L 4128 4666 
L 4128 1753 
Q 4128 841 3676 375 
Q 3225 -91 2344 -91 
Q 1459 -91 1007 375 
Q 556 841 556 1753 
L 556 4666 
z
" transform="scale(0.015625)"/>
      <path id="DejaVuSans-43" d="M 4122 4306 
L 4122 3641 
Q 3803 3938 3442 4084 
Q 3081 4231 2675 4231 
Q 1875 4231 1450 3742 
Q 1025 3253 1025 2328 
Q 1025 1406 1450 917 
Q 1875 428 2675 428 
Q 3081 428 3442 575 
Q 3803 722 4122 1019 
L 4122 359 
Q 3791 134 3420 21 
Q 3050 -91 2638 -91 
Q 1578 -91 968 557 
Q 359 1206 359 2328 
Q 359 3453 968 4101 
Q 1578 4750 2638 4750 
Q 3056 4750 3426 4639 
Q 3797 4528 4122 4306 
z
" transform="scale(0.015625)"/>
      <path id="DejaVuSans-52" d="M 2841 2188 
Q 3044 2119 3236 1894 
Q 3428 1669 3622 1275 
L 4263 0 
L 3584 0 
L 2988 1197 
Q 2756 1666 2539 1819 
Q 2322 1972 1947 1972 
L 1259 1972 
L 1259 0 
L 628 0 
L 628 4666 
L 2053 4666 
Q 2853 4666 3247 4331 
Q 3641 3997 3641 3322 
Q 3641 2881 3436 2590 
Q 3231 2300 2841 2188 
z
M 1259 4147 
L 1259 2491 
L 2053 2491 
Q 2509 2491 2742 2702 
Q 2975 2913 2975 3322 
Q 2975 3731 2742 3939 
Q 2509 4147 2053 4147 
L 1259 4147 
z
" transform="scale(0.015625)"/>
      <path id="DejaVuSans-5f" d="M 3263 -1063 
L 3263 -1509 
L -63 -1509 
L -63 -1063 
L 3263 -1063 
z
" transform="scale(0.015625)"/>
      <path id="DejaVuSans-31" d="M 794 531 
L 1825 531 
L 1825 4091 
L 703 3866 
L 703 4441 
L 1819 4666 
L 2450 4666 
L 2450 531 
L 3481 531 
L 3481 0 
L 794 0 
L 794 531 
z
" transform="scale(0.015625)"/>
      <path id="DejaVuSans-33" d="M 2597 2516 
Q 3050 2419 3304 2112 
Q 3559 1806 3559 1356 
Q 3559 666 3084 287 
Q 2609 -91 1734 -91 
Q 1441 -91 1130 -33 
Q 819 25 488 141 
L 488 750 
Q 750 597 1062 519 
Q 1375 441 1716 441 
Q 2309 441 2620 675 
Q 2931 909 2931 1356 
Q 2931 1769 2642 2001 
Q 2353 2234 1838 2234 
L 1294 2234 
L 1294 2753 
L 1863 2753 
Q 2328 2753 2575 2939 
Q 2822 3125 2822 3475 
Q 2822 3834 2567 4026 
Q 2313 4219 1838 4219 
Q 1578 4219 1281 4162 
Q 984 4106 628 3988 
L 628 4550 
Q 988 4650 1302 4700 
Q 1616 4750 1894 4750 
Q 2613 4750 3031 4423 
Q 3450 4097 3450 3541 
Q 3450 3153 3228 2886 
Q 3006 2619 2597 2516 
z
" transform="scale(0.015625)"/>
      <path id="DejaVuSans-36" d="M 2113 2584 
Q 1688 2584 1439 2293 
Q 1191 2003 1191 1497 
Q 1191 994 1439 701 
Q 1688 409 2113 409 
Q 2538 409 2786 701 
Q 3034 994 3034 1497 
Q 3034 2003 2786 2293 
Q 2538 2584 2113 2584 
z
M 3366 4563 
L 3366 3988 
Q 3128 4100 2886 4159 
Q 2644 4219 2406 4219 
Q 1781 4219 1451 3797 
Q 1122 3375 1075 2522 
Q 1259 2794 1537 2939 
Q 1816 3084 2150 3084 
Q 2853 3084 3261 2657 
Q 3669 2231 3669 1497 
Q 3669 778 3244 343 
Q 2819 -91 2113 -91 
Q 1303 -91 875 529 
Q 447 1150 447 2328 
Q 447 3434 972 4092 
Q 1497 4750 2381 4750 
Q 2619 4750 2861 4703 
Q 3103 4656 3366 4563 
z
" transform="scale(0.015625)"/>
     </defs>
     <use xlink:href="#DejaVuSans-55"/>
     <use xlink:href="#DejaVuSans-43" x="73.193359"/>
     <use xlink:href="#DejaVuSans-52" x="143.017578"/>
     <use xlink:href="#DejaVuSans-5f" x="212.5"/>
     <use xlink:href="#DejaVuSans-31" x="262.5"/>
     <use xlink:href="#DejaVuSans-33" x="326.123047"/>
     <use xlink:href="#DejaVuSans-36" x="389.746094"/>
    </g>
   </g>
  </g>
  <g id="axes_2">
   <g id="patch_6">
    <path d="M 37.12 205.12 
L 556.56 205.12 
L 556.56 131.48 
L 37.12 131.48 
z
" style="fill: #ffffff"/>
   </g>
   <g id="patch_7">
    <path d="M 247.694671 205.12 
L 247.694671 131.48 
L 310.542461 131.48 
L 310.542461 205.12 
z
" clip-path="url(#pbab2fd9885)" style="fill: #ff7f50; stroke: #ff7f50; stroke-linejoin: miter"/>
   </g>
   <g id="matplotlib.axis_3"/>
   <g id="matplotlib.axis_4">
    <g id="text_3">
     <!-- DAMP -->
     <g transform="translate(30.208437 188.616406)rotate(-90)scale(0.14 -0.14)">
      <defs>
       <path id="DejaVuSans-44" d="M 1259 4147 
L 1259 519 
L 2022 519 
Q 2988 519 3436 956 
Q 3884 1394 3884 2338 
Q 3884 3275 3436 3711 
Q 2988 4147 2022 4147 
L 1259 4147 
z
M 628 4666 
L 1925 4666 
Q 3281 4666 3915 4102 
Q 4550 3538 4550 2338 
Q 4550 1131 3912 565 
Q 3275 0 1925 0 
L 628 0 
L 628 4666 
z
" transform="scale(0.015625)"/>
       <path id="DejaVuSans-41" d="M 2188 4044 
L 1331 1722 
L 3047 1722 
L 2188 4044 
z
M 1831 4666 
L 2547 4666 
L 4325 0 
L 3669 0 
L 3244 1197 
L 1141 1197 
L 716 0 
L 50 0 
L 1831 4666 
z
" transform="scale(0.015625)"/>
       <path id="DejaVuSans-4d" d="M 628 4666 
L 1569 4666 
L 2759 1491 
L 3956 4666 
L 4897 4666 
L 4897 0 
L 4281 0 
L 4281 4097 
L 3078 897 
L 2444 897 
L 1241 4097 
L 1241 0 
L 628 0 
L 628 4666 
z
" transform="scale(0.015625)"/>
       <path id="DejaVuSans-50" d="M 1259 4147 
L 1259 2394 
L 2053 2394 
Q 2494 2394 2734 2622 
Q 2975 2850 2975 3272 
Q 2975 3691 2734 3919 
Q 2494 4147 2053 4147 
L 1259 4147 
z
M 628 4666 
L 2053 4666 
Q 2838 4666 3239 4311 
Q 3641 3956 3641 3272 
Q 3641 2581 3239 2228 
Q 2838 1875 2053 1875 
L 1259 1875 
L 1259 0 
L 628 0 
L 628 4666 
z
" transform="scale(0.015625)"/>
      </defs>
      <use xlink:href="#DejaVuSans-44"/>
      <use xlink:href="#DejaVuSans-41" x="75.251953"/>
      <use xlink:href="#DejaVuSans-4d" x="143.660156"/>
      <use xlink:href="#DejaVuSans-50" x="229.939453"/>
     </g>
    </g>
   </g>
   <g id="line2d_2">
    <path d="M 37.069646 197.58632 
L 41.599216 197.587722 
L 42.165413 198.166862 
L 46.694983 198.379401 
L 51.79075 198.553244 
L 58.585105 198.747199 
L 65.945657 199.016222 
L 67.07805 199.075214 
L 79.534369 199.079069 
L 80.100565 199.983161 
L 86.328724 199.959389 
L 93.12308 199.945705 
L 94.821669 200.008704 
L 101.049828 200.058257 
L 106.711791 200.047756 
L 111.241362 199.962677 
L 115.770932 199.948497 
L 119.734306 199.879901 
L 128.227251 199.819909 
L 129.92584 199.773063 
L 137.286392 199.679698 
L 138.418784 199.56503 
L 144.080747 199.478945 
L 144.646944 199.337611 
L 247.694671 199.369502 
L 248.260867 195.483812 
L 248.827064 194.940738 
L 249.39326 194.895785 
L 249.959456 194.112991 
L 250.525652 190.14175 
L 251.091849 188.279318 
L 251.658045 188.243996 
L 252.224241 186.952368 
L 252.790438 185.963029 
L 253.356634 185.281144 
L 254.489027 182.643671 
L 255.055223 182.399471 
L 255.621419 182.024221 
L 256.753812 179.831288 
L 257.320008 178.892505 
L 257.886204 178.772712 
L 258.452401 178.025044 
L 259.584793 175.924146 
L 260.15099 175.675472 
L 261.283382 173.757304 
L 261.849579 173.389172 
L 262.415775 172.115046 
L 262.981971 171.775765 
L 263.548167 170.298185 
L 264.68056 168.549284 
L 265.246756 167.29113 
L 265.812953 166.692424 
L 266.379149 165.156068 
L 267.511542 163.220124 
L 268.077738 161.540817 
L 268.643934 160.746795 
L 269.21013 159.058014 
L 269.776327 158.337157 
L 270.908719 155.599429 
L 271.474916 155.022557 
L 272.041112 153.651523 
L 273.173505 152.719339 
L 273.739701 151.820293 
L 274.305897 150.601464 
L 274.872094 149.665889 
L 275.43829 149.315089 
L 276.004486 149.545497 
L 276.570682 149.649437 
L 277.136879 149.964417 
L 277.703075 149.985848 
L 278.269271 149.614786 
L 279.401664 149.97591 
L 279.96786 149.704264 
L 280.534057 149.888964 
L 281.100253 149.861188 
L 281.666449 149.301978 
L 282.232645 149.08939 
L 282.798842 149.284039 
L 283.931234 148.897998 
L 284.497431 149.050818 
L 285.063627 148.604201 
L 285.629823 148.561405 
L 286.19602 148.075015 
L 287.328412 147.75229 
L 287.894609 147.057435 
L 288.460805 147.071564 
L 289.027001 146.478346 
L 289.593197 146.507222 
L 290.159394 145.950332 
L 291.291786 145.225187 
L 291.857983 144.584999 
L 292.424179 144.477763 
L 292.990375 144.067101 
L 293.556572 143.426666 
L 294.122768 143.23945 
L 294.688964 142.917573 
L 295.821357 141.721742 
L 296.387553 141.677725 
L 296.953749 141.429486 
L 297.519946 140.811352 
L 298.086142 140.366175 
L 298.652338 140.362793 
L 299.218535 140.188418 
L 299.784731 139.605147 
L 300.350927 139.219035 
L 300.917124 139.071607 
L 302.049516 138.962546 
L 302.615712 138.434874 
L 303.181909 138.137467 
L 304.314301 138.080828 
L 304.880498 137.787259 
L 306.01289 136.463004 
L 306.579087 135.954834 
L 308.843872 135.878268 
L 309.976264 135.173095 
L 310.542461 134.827273 
L 317.903013 135.619112 
L 324.131172 136.269338 
L 330.359331 136.693156 
L 336.587491 136.86127 
L 341.683257 136.780134 
L 343.381846 136.731675 
L 345.080435 138.351479 
L 345.646632 138.535642 
L 346.212828 138.583997 
L 346.779024 138.859531 
L 347.34522 138.927756 
L 347.911417 139.755006 
L 349.043809 140.259822 
L 349.610006 141.125356 
L 350.176202 141.745109 
L 350.742398 142.03105 
L 351.874791 143.106774 
L 352.440987 143.861795 
L 353.007184 144.383541 
L 353.57338 144.561678 
L 354.139576 145.000315 
L 355.271969 146.107321 
L 355.838165 146.145748 
L 356.404361 146.64953 
L 356.970558 146.950238 
L 357.536754 146.888662 
L 358.10295 147.379894 
L 358.669147 147.229214 
L 359.235343 147.630636 
L 360.367735 147.727448 
L 360.933932 148.031239 
L 361.500128 147.771048 
L 362.066324 148.116188 
L 363.198717 148.020482 
L 363.764913 148.420399 
L 364.33111 148.162519 
L 364.897306 148.579014 
L 365.463502 148.330778 
L 366.029698 148.356342 
L 366.595895 148.569739 
L 367.162091 148.178379 
L 367.728287 148.652405 
L 368.294484 149.372623 
L 369.993073 148.862477 
L 370.559269 148.80888 
L 371.691662 148.276854 
L 372.824054 147.741278 
L 373.39025 147.765327 
L 373.956447 148.557293 
L 374.522643 148.875903 
L 375.088839 148.737438 
L 376.221232 149.385915 
L 377.919821 152.192217 
L 378.486017 152.680134 
L 379.61841 154.535288 
L 380.184606 155.055174 
L 380.750802 156.369812 
L 381.316999 157.016937 
L 381.883195 158.190998 
L 382.449391 159.083716 
L 383.015588 159.763214 
L 383.581784 161.02104 
L 384.14798 161.399325 
L 384.714177 162.619726 
L 385.280373 162.891858 
L 385.846569 163.820954 
L 386.978962 165.246989 
L 387.545158 166.365533 
L 388.111354 166.60305 
L 388.677551 167.306608 
L 389.243747 168.408404 
L 389.809943 168.807364 
L 390.37614 169.34397 
L 391.508532 171.483539 
L 392.074728 171.575467 
L 392.640925 172.020836 
L 393.207121 173.258608 
L 393.773317 174.219618 
L 394.339514 174.229692 
L 394.90571 174.554143 
L 395.471906 175.789427 
L 396.038103 176.638755 
L 396.604299 176.922524 
L 397.170495 177.011069 
L 397.736692 177.279063 
L 398.302888 178.718969 
L 398.869084 179.647617 
L 399.43528 179.633586 
L 400.001477 179.795427 
L 400.567673 180.521758 
L 402.266262 186.303322 
L 402.832458 186.480444 
L 403.398655 186.969042 
L 403.964851 186.991141 
L 404.531047 187.404274 
L 405.097243 189.251686 
L 405.66344 192.31696 
L 556.837853 192.363746 
L 556.837853 192.363746 
" clip-path="url(#pbab2fd9885)" style="fill: none; stroke: #1f77b4; stroke-width: 1.5; stroke-linecap: square"/>
   </g>
   <g id="patch_8">
    <path d="M 37.12 205.12 
L 37.12 131.48 
" style="fill: none; stroke: #000000; stroke-width: 2.5; stroke-linejoin: miter; stroke-linecap: square"/>
   </g>
   <g id="patch_9">
    <path d="M 37.12 205.12 
L 556.56 205.12 
" style="fill: none; stroke: #000000; stroke-width: 2.5; stroke-linejoin: miter; stroke-linecap: square"/>
   </g>
  </g>
  <g id="axes_3">
   <g id="patch_10">
    <path d="M 37.12 298.2 
L 556.56 298.2 
L 556.56 224.56 
L 37.12 224.56 
z
" style="fill: #ffffff"/>
   </g>
   <g id="patch_11">
    <path d="M 247.694671 298.2 
L 247.694671 224.56 
L 310.542461 224.56 
L 310.542461 298.2 
z
" clip-path="url(#p1b52463a98)" style="fill: #ff7f50; stroke: #ff7f50; stroke-linejoin: miter"/>
   </g>
   <g id="matplotlib.axis_5"/>
   <g id="matplotlib.axis_6">
    <g id="text_4">
     <!-- MD-SW* -->
     <g transform="translate(30.208437 290.200312)rotate(-90)scale(0.14 -0.14)">
      <defs>
       <path id="DejaVuSans-2d" d="M 313 2009 
L 1997 2009 
L 1997 1497 
L 313 1497 
L 313 2009 
z
" transform="scale(0.015625)"/>
       <path id="DejaVuSans-53" d="M 3425 4513 
L 3425 3897 
Q 3066 4069 2747 4153 
Q 2428 4238 2131 4238 
Q 1616 4238 1336 4038 
Q 1056 3838 1056 3469 
Q 1056 3159 1242 3001 
Q 1428 2844 1947 2747 
L 2328 2669 
Q 3034 2534 3370 2195 
Q 3706 1856 3706 1288 
Q 3706 609 3251 259 
Q 2797 -91 1919 -91 
Q 1588 -91 1214 -16 
Q 841 59 441 206 
L 441 856 
Q 825 641 1194 531 
Q 1563 422 1919 422 
Q 2459 422 2753 634 
Q 3047 847 3047 1241 
Q 3047 1584 2836 1778 
Q 2625 1972 2144 2069 
L 1759 2144 
Q 1053 2284 737 2584 
Q 422 2884 422 3419 
Q 422 4038 858 4394 
Q 1294 4750 2059 4750 
Q 2388 4750 2728 4690 
Q 3069 4631 3425 4513 
z
" transform="scale(0.015625)"/>
       <path id="DejaVuSans-57" d="M 213 4666 
L 850 4666 
L 1831 722 
L 2809 4666 
L 3519 4666 
L 4500 722 
L 5478 4666 
L 6119 4666 
L 4947 0 
L 4153 0 
L 3169 4050 
L 2175 0 
L 1381 0 
L 213 4666 
z
" transform="scale(0.015625)"/>
       <path id="DejaVuSans-2a" d="M 3009 3897 
L 1888 3291 
L 3009 2681 
L 2828 2375 
L 1778 3009 
L 1778 1831 
L 1422 1831 
L 1422 3009 
L 372 2375 
L 191 2681 
L 1313 3291 
L 191 3897 
L 372 4206 
L 1422 3572 
L 1422 4750 
L 1778 4750 
L 1778 3572 
L 2828 4206 
L 3009 3897 
z
" transform="scale(0.015625)"/>
      </defs>
      <use xlink:href="#DejaVuSans-4d"/>
      <use xlink:href="#DejaVuSans-44" x="86.279297"/>
      <use xlink:href="#DejaVuSans-2d" x="163.28125"/>
      <use xlink:href="#DejaVuSans-53" x="199.365234"/>
      <use xlink:href="#DejaVuSans-57" x="262.841797"/>
      <use xlink:href="#DejaVuSans-2a" x="361.71875"/>
     </g>
    </g>
   </g>
   <g id="line2d_3">
    <path d="M 37.069646 294.845057 
L 175.221544 294.844511 
L 247.694671 294.840155 
L 248.260867 294.506144 
L 249.39326 294.426403 
L 249.959456 294.064793 
L 250.525652 293.389774 
L 251.091849 293.389364 
L 251.658045 292.478273 
L 252.224241 290.814723 
L 252.790438 290.035611 
L 253.356634 289.919377 
L 253.92283 288.836436 
L 254.489027 287.424213 
L 255.055223 287.220612 
L 255.621419 287.185423 
L 256.753812 284.851619 
L 257.320008 284.301797 
L 257.886204 284.222317 
L 258.452401 283.688851 
L 259.584793 281.966791 
L 260.15099 281.924962 
L 261.283382 280.401196 
L 261.849579 280.35116 
L 262.415775 279.259568 
L 262.981971 279.043279 
L 263.548167 277.716454 
L 264.114364 277.76276 
L 264.68056 276.328892 
L 265.246756 276.036024 
L 266.379149 274.751772 
L 266.945345 274.808738 
L 267.511542 273.485342 
L 268.077738 272.757807 
L 268.643934 271.073563 
L 269.21013 270.323216 
L 269.776327 270.161329 
L 270.342523 269.17142 
L 270.908719 268.868956 
L 271.474916 268.014792 
L 272.041112 266.82317 
L 272.607308 266.874941 
L 273.739701 264.794247 
L 274.305897 264.707262 
L 275.43829 264.0197 
L 276.004486 263.349753 
L 278.835468 262.857643 
L 279.96786 262.154166 
L 280.534057 261.135075 
L 281.100253 260.65988 
L 281.666449 258.914072 
L 282.232645 257.659369 
L 282.798842 257.710387 
L 283.365038 256.671304 
L 283.931234 255.979814 
L 284.497431 255.920054 
L 285.629823 254.050591 
L 286.19602 253.638778 
L 286.762216 252.965492 
L 287.328412 252.856283 
L 287.894609 252.360239 
L 288.460805 252.410054 
L 289.027001 251.313198 
L 290.159394 249.961022 
L 290.72559 249.839844 
L 291.291786 248.620452 
L 291.857983 248.356447 
L 292.990375 246.426912 
L 293.556572 246.450942 
L 294.122768 246.16447 
L 294.688964 243.762286 
L 295.25516 243.402195 
L 296.387553 242.361089 
L 296.953749 241.358842 
L 297.519946 241.082953 
L 298.086142 240.664384 
L 298.652338 239.788396 
L 299.784731 238.795653 
L 300.350927 238.710349 
L 300.917124 237.680666 
L 301.48332 235.862708 
L 302.049516 235.923794 
L 302.615712 235.857499 
L 303.181909 235.517423 
L 303.748105 233.908285 
L 304.314301 233.619241 
L 305.446694 233.581915 
L 306.01289 233.502923 
L 307.145283 232.722964 
L 307.711479 232.740478 
L 308.843872 232.455802 
L 309.410068 232.265867 
L 309.976264 232.383066 
L 310.542461 232.138454 
L 311.108657 230.238044 
L 311.674853 230.227271 
L 312.24105 229.9526 
L 312.807246 229.915156 
L 313.373442 229.459535 
L 314.505835 229.402628 
L 315.072031 229.02666 
L 316.77062 228.773886 
L 319.035405 228.351003 
L 319.601602 228.451815 
L 320.167798 228.316776 
L 320.733994 228.031371 
L 321.30019 228.504851 
L 321.866387 228.291294 
L 323.564976 228.263531 
L 325.263565 228.227377 
L 325.829761 228.00749 
L 326.962154 228.114236 
L 329.226939 227.939068 
L 330.359331 228.16631 
L 330.925528 228.097159 
L 333.190313 228.339102 
L 334.322705 228.049406 
L 335.455098 228.668303 
L 338.28608 229.112605 
L 338.852276 229.389075 
L 339.418472 229.345329 
L 339.984669 228.981824 
L 340.550865 229.502155 
L 341.117061 229.528723 
L 341.683257 229.059997 
L 342.81565 229.666142 
L 343.381846 231.085891 
L 344.514239 230.821315 
L 345.080435 231.14431 
L 345.646632 231.780545 
L 346.212828 231.951982 
L 346.779024 232.811428 
L 347.34522 233.374173 
L 347.911417 235.231173 
L 348.477613 235.30186 
L 349.043809 236.135603 
L 349.610006 237.860812 
L 350.176202 239.219026 
L 350.742398 239.18955 
L 351.308595 240.336154 
L 352.440987 242.154346 
L 353.007184 242.680162 
L 353.57338 242.572383 
L 354.705772 244.866351 
L 355.271969 245.168581 
L 355.838165 245.183805 
L 356.404361 246.268113 
L 356.970558 246.883577 
L 357.536754 247.25322 
L 358.10295 248.820216 
L 358.669147 249.466392 
L 359.235343 250.361805 
L 359.801539 252.771736 
L 360.367735 252.729072 
L 361.500128 254.729796 
L 362.066324 254.768338 
L 362.632521 255.616292 
L 363.198717 255.644471 
L 363.764913 256.910165 
L 364.33111 256.872271 
L 364.897306 257.815224 
L 365.463502 259.555997 
L 366.029698 259.382815 
L 367.162091 261.914348 
L 367.728287 261.796589 
L 368.294484 262.19473 
L 369.993073 262.352594 
L 370.559269 262.484906 
L 371.125465 262.743501 
L 373.39025 263.287885 
L 373.956447 263.560355 
L 374.522643 264.933536 
L 375.088839 264.903101 
L 375.655036 266.507932 
L 376.221232 266.645414 
L 376.787428 267.223492 
L 377.353625 269.004115 
L 378.486017 270.006501 
L 379.052213 270.701209 
L 380.184606 271.427388 
L 380.750802 272.678155 
L 381.316999 272.667454 
L 381.883195 273.55789 
L 382.449391 273.929486 
L 383.015588 274.740532 
L 383.581784 275.815834 
L 384.714177 277.446081 
L 385.280373 277.850104 
L 385.846569 278.089769 
L 386.412765 279.562984 
L 386.978962 279.605372 
L 387.545158 281.67351 
L 388.111354 282.268525 
L 388.677551 282.328525 
L 389.243747 282.940552 
L 389.809943 285.561776 
L 390.37614 286.193753 
L 390.942336 286.193953 
L 391.508532 286.958471 
L 392.074728 288.634721 
L 392.640925 289.538689 
L 393.207121 289.554574 
L 393.773317 289.984283 
L 394.90571 291.487897 
L 395.471906 291.634082 
L 396.038103 291.617767 
L 397.170495 292.220269 
L 397.736692 292.886889 
L 400.001477 293.115445 
L 400.567673 293.381656 
L 401.700066 293.523588 
L 402.832458 293.621665 
L 403.964851 293.878704 
L 404.531047 294.235447 
L 405.66344 294.347343 
L 406.229636 294.837361 
L 556.837853 294.845885 
L 556.837853 294.845885 
" clip-path="url(#p1b52463a98)" style="fill: none; stroke: #1f77b4; stroke-width: 1.5; stroke-linecap: square"/>
   </g>
   <g id="patch_12">
    <path d="M 37.12 298.2 
L 37.12 224.56 
" style="fill: none; stroke: #000000; stroke-width: 2.5; stroke-linejoin: miter; stroke-linecap: square"/>
   </g>
   <g id="patch_13">
    <path d="M 37.12 298.2 
L 556.56 298.2 
" style="fill: none; stroke: #000000; stroke-width: 2.5; stroke-linejoin: miter; stroke-linecap: square"/>
   </g>
  </g>
  <g id="axes_4">
   <g id="patch_14">
    <path d="M 37.12 391.28 
L 556.56 391.28 
L 556.56 317.64 
L 37.12 317.64 
z
" style="fill: #ffffff"/>
   </g>
   <g id="patch_15">
    <path d="M 247.694671 391.28 
L 247.694671 317.64 
L 310.542461 317.64 
L 310.542461 391.28 
z
" clip-path="url(#pa2a503b043)" style="fill: #ff7f50; stroke: #ff7f50; stroke-linejoin: miter"/>
   </g>
   <g id="matplotlib.axis_7">
    <g id="text_5">
     <!-- Time -->
     <g transform="translate(274.819531 408.957188)scale(0.18 -0.18)">
      <defs>
       <path id="DejaVuSans-54" d="M -19 4666 
L 3928 4666 
L 3928 4134 
L 2272 4134 
L 2272 0 
L 1638 0 
L 1638 4134 
L -19 4134 
L -19 4666 
z
" transform="scale(0.015625)"/>
       <path id="DejaVuSans-69" d="M 603 3500 
L 1178 3500 
L 1178 0 
L 603 0 
L 603 3500 
z
M 603 4863 
L 1178 4863 
L 1178 4134 
L 603 4134 
L 603 4863 
z
" transform="scale(0.015625)"/>
       <path id="DejaVuSans-6d" d="M 3328 2828 
Q 3544 3216 3844 3400 
Q 4144 3584 4550 3584 
Q 5097 3584 5394 3201 
Q 5691 2819 5691 2113 
L 5691 0 
L 5113 0 
L 5113 2094 
Q 5113 2597 4934 2840 
Q 4756 3084 4391 3084 
Q 3944 3084 3684 2787 
Q 3425 2491 3425 1978 
L 3425 0 
L 2847 0 
L 2847 2094 
Q 2847 2600 2669 2842 
Q 2491 3084 2119 3084 
Q 1678 3084 1418 2786 
Q 1159 2488 1159 1978 
L 1159 0 
L 581 0 
L 581 3500 
L 1159 3500 
L 1159 2956 
Q 1356 3278 1631 3431 
Q 1906 3584 2284 3584 
Q 2666 3584 2933 3390 
Q 3200 3197 3328 2828 
z
" transform="scale(0.015625)"/>
       <path id="DejaVuSans-65" d="M 3597 1894 
L 3597 1613 
L 953 1613 
Q 991 1019 1311 708 
Q 1631 397 2203 397 
Q 2534 397 2845 478 
Q 3156 559 3463 722 
L 3463 178 
Q 3153 47 2828 -22 
Q 2503 -91 2169 -91 
Q 1331 -91 842 396 
Q 353 884 353 1716 
Q 353 2575 817 3079 
Q 1281 3584 2069 3584 
Q 2775 3584 3186 3129 
Q 3597 2675 3597 1894 
z
M 3022 2063 
Q 3016 2534 2758 2815 
Q 2500 3097 2075 3097 
Q 1594 3097 1305 2825 
Q 1016 2553 972 2059 
L 3022 2063 
z
" transform="scale(0.015625)"/>
      </defs>
      <use xlink:href="#DejaVuSans-54"/>
      <use xlink:href="#DejaVuSans-69" x="57.958984"/>
      <use xlink:href="#DejaVuSans-6d" x="85.742188"/>
      <use xlink:href="#DejaVuSans-65" x="183.154297"/>
     </g>
    </g>
   </g>
   <g id="matplotlib.axis_8">
    <g id="text_6">
     <!-- MD-RS -->
     <g transform="translate(30.208437 377.722969)rotate(-90)scale(0.14 -0.14)">
      <use xlink:href="#DejaVuSans-4d"/>
      <use xlink:href="#DejaVuSans-44" x="86.279297"/>
      <use xlink:href="#DejaVuSans-2d" x="163.28125"/>
      <use xlink:href="#DejaVuSans-52" x="199.365234"/>
      <use xlink:href="#DejaVuSans-53" x="268.847656"/>
     </g>
    </g>
   </g>
   <g id="line2d_4">
    <path d="M 37.069646 387.929464 
L 247.128475 387.924918 
L 247.694671 387.49787 
L 248.260867 385.022539 
L 248.827064 385.947483 
L 249.39326 385.832081 
L 249.959456 383.848098 
L 250.525652 373.784071 
L 251.091849 365.922191 
L 251.658045 361.566012 
L 252.224241 338.932584 
L 252.790438 339.309971 
L 253.356634 347.23331 
L 253.92283 325.577084 
L 254.489027 320.987273 
L 255.055223 328.209674 
L 255.621419 339.728614 
L 256.753812 330.297543 
L 257.320008 328.427782 
L 257.886204 341.874388 
L 258.452401 348.225966 
L 259.018597 346.817627 
L 259.584793 343.833396 
L 260.15099 353.816316 
L 260.717186 353.18653 
L 261.283382 351.945952 
L 261.849579 361.488653 
L 262.415775 356.162012 
L 262.981971 361.425218 
L 263.548167 361.813457 
L 264.114364 366.677307 
L 264.68056 358.549603 
L 265.246756 357.738493 
L 265.812953 362.311245 
L 266.379149 364.008276 
L 266.945345 367.641372 
L 267.511542 363.701406 
L 268.077738 361.982946 
L 268.643934 365.213879 
L 269.21013 365.098831 
L 269.776327 368.478753 
L 270.342523 366.453497 
L 270.908719 370.369094 
L 271.474916 372.919752 
L 272.041112 369.76185 
L 272.607308 370.5258 
L 273.173505 370.719471 
L 274.305897 373.489611 
L 274.872094 376.524809 
L 275.43829 377.999833 
L 276.004486 378.2609 
L 276.570682 379.476912 
L 277.136879 381.331472 
L 278.269271 382.75821 
L 278.835468 382.958504 
L 279.401664 380.584315 
L 279.96786 377.512065 
L 280.534057 375.796795 
L 281.100253 375.017766 
L 281.666449 372.656468 
L 282.232645 369.372699 
L 282.798842 373.73411 
L 283.365038 374.113622 
L 283.931234 373.750889 
L 284.497431 376.026916 
L 285.063627 371.867848 
L 285.629823 372.729392 
L 286.19602 372.398705 
L 286.762216 366.873487 
L 287.328412 368.01988 
L 287.894609 365.602441 
L 288.460805 370.504489 
L 289.027001 360.673139 
L 289.593197 367.384733 
L 290.159394 368.12942 
L 290.72559 370.706092 
L 291.291786 356.185789 
L 291.857983 351.417719 
L 292.424179 357.242781 
L 292.990375 361.320381 
L 293.556572 362.882075 
L 294.122768 364.019952 
L 294.688964 345.821547 
L 295.25516 337.084164 
L 295.821357 343.921551 
L 296.387553 352.260591 
L 296.953749 349.528772 
L 297.519946 341.302751 
L 298.086142 342.41824 
L 298.652338 344.627449 
L 299.218535 343.221046 
L 299.784731 339.882409 
L 300.917124 353.838252 
L 301.48332 356.093536 
L 302.049516 357.246151 
L 302.615712 351.819333 
L 303.181909 354.825662 
L 303.748105 354.557118 
L 304.314301 354.507733 
L 304.880498 353.68617 
L 305.446694 353.138038 
L 306.01289 355.764793 
L 306.579087 359.929261 
L 307.145283 362.768862 
L 307.711479 367.442692 
L 308.277675 367.794303 
L 308.843872 366.348623 
L 309.410068 359.167891 
L 310.542461 353.860005 
L 311.108657 345.740939 
L 311.674853 347.467201 
L 312.807246 357.137151 
L 314.505835 366.752595 
L 315.638227 372.111591 
L 316.77062 376.323179 
L 317.903013 379.577027 
L 318.469209 380.878977 
L 319.035405 381.8915 
L 319.601602 382.63873 
L 320.167798 383.167101 
L 321.866387 384.34271 
L 324.131172 386.194785 
L 325.263565 386.717473 
L 326.395957 386.97917 
L 329.226939 387.278673 
L 336.021294 387.731478 
L 351.308595 387.903366 
L 473.0408 387.921873 
L 507.012578 387.928752 
L 556.837853 387.92947 
L 556.837853 387.92947 
" clip-path="url(#pa2a503b043)" style="fill: none; stroke: #1f77b4; stroke-width: 1.5; stroke-linecap: square"/>
   </g>
   <g id="patch_16">
    <path d="M 37.12 391.28 
L 37.12 317.64 
" style="fill: none; stroke: #000000; stroke-width: 2.5; stroke-linejoin: miter; stroke-linecap: square"/>
   </g>
   <g id="patch_17">
    <path d="M 37.12 391.28 
L 556.56 391.28 
" style="fill: none; stroke: #000000; stroke-width: 2.5; stroke-linejoin: miter; stroke-linecap: square"/>
   </g>
  </g>
 </g>
 <defs>
  <clipPath id="p2fdb802f09">
   <rect x="37.12" y="38.4" width="519.44" height="73.64"/>
  </clipPath>
  <clipPath id="pbab2fd9885">
   <rect x="37.12" y="131.48" width="519.44" height="73.64"/>
  </clipPath>
  <clipPath id="p1b52463a98">
   <rect x="37.12" y="224.56" width="519.44" height="73.64"/>
  </clipPath>
  <clipPath id="pa2a503b043">
   <rect x="37.12" y="317.64" width="519.44" height="73.64"/>
  </clipPath>
 </defs>
</svg>
