<?xml version="1.0" encoding="utf-8" standalone="no"?>
<!DOCTYPE svg PUBLIC "-//W3C//DTD SVG 1.1//EN"
  "http://www.w3.org/Graphics/SVG/1.1/DTD/svg11.dtd">
<svg xmlns:xlink="http://www.w3.org/1999/xlink" width="576pt" height="432pt" viewBox="0 0 576 432" xmlns="http://www.w3.org/2000/svg" version="1.1">
 <metadata>
  <rdf:RDF xmlns:dc="http://purl.org/dc/elements/1.1/" xmlns:cc="http://creativecommons.org/ns#" xmlns:rdf="http://www.w3.org/1999/02/22-rdf-syntax-ns#">
   <cc:Work>
    <dc:type rdf:resource="http://purl.org/dc/dcmitype/StillImage"/>
    <dc:date>2024-04-26T02:54:24.184145</dc:date>
    <dc:format>image/svg+xml</dc:format>
    <dc:creator>
     <cc:Agent>
      <dc:title>Matplotlib v3.5.1, https://matplotlib.org/</dc:title>
     </cc:Agent>
    </dc:creator>
   </cc:Work>
  </rdf:RDF>
 </metadata>
 <defs>
  <style type="text/css">*{stroke-linejoin: round; stroke-linecap: butt}</style>
 </defs>
 <g id="figure_1">
  <g id="patch_1">
   <path d="M 0 432 
L 576 432 
L 576 0 
L 0 0 
z
" style="fill: #ffffff"/>
  </g>
  <g id="axes_1">
   <g id="patch_2">
    <path d="M 37.12 112.04 
L 556.56 112.04 
L 556.56 38.4 
L 37.12 38.4 
z
" style="fill: #ffffff"/>
   </g>
   <g id="patch_3">
    <path d="M 301.268143 112.04 
L 301.268143 38.4 
L 307.149437 38.4 
L 307.149437 112.04 
z
" clip-path="url(#p1b5b648fa3)" style="fill: #ff7f50; stroke: #ff7f50; stroke-linejoin: miter"/>
   </g>
   <g id="matplotlib.axis_1"/>
   <g id="matplotlib.axis_2">
    <g id="text_1">
     <!-- Input -->
     <g transform="translate(30.208437 93.345625)rotate(-90)scale(0.14 -0.14)">
      <defs>
       <path id="DejaVuSans-49" d="M 628 4666 
L 1259 4666 
L 1259 0 
L 628 0 
L 628 4666 
z
" transform="scale(0.015625)"/>
       <path id="DejaVuSans-6e" d="M 3513 2113 
L 3513 0 
L 2938 0 
L 2938 2094 
Q 2938 2591 2744 2837 
Q 2550 3084 2163 3084 
Q 1697 3084 1428 2787 
Q 1159 2491 1159 1978 
L 1159 0 
L 581 0 
L 581 3500 
L 1159 3500 
L 1159 2956 
Q 1366 3272 1645 3428 
Q 1925 3584 2291 3584 
Q 2894 3584 3203 3211 
Q 3513 2838 3513 2113 
z
" transform="scale(0.015625)"/>
       <path id="DejaVuSans-70" d="M 1159 525 
L 1159 -1331 
L 581 -1331 
L 581 3500 
L 1159 3500 
L 1159 2969 
Q 1341 3281 1617 3432 
Q 1894 3584 2278 3584 
Q 2916 3584 3314 3078 
Q 3713 2572 3713 1747 
Q 3713 922 3314 415 
Q 2916 -91 2278 -91 
Q 1894 -91 1617 61 
Q 1341 213 1159 525 
z
M 3116 1747 
Q 3116 2381 2855 2742 
Q 2594 3103 2138 3103 
Q 1681 3103 1420 2742 
Q 1159 2381 1159 1747 
Q 1159 1113 1420 752 
Q 1681 391 2138 391 
Q 2594 391 2855 752 
Q 3116 1113 3116 1747 
z
" transform="scale(0.015625)"/>
       <path id="DejaVuSans-75" d="M 544 1381 
L 544 3500 
L 1119 3500 
L 1119 1403 
Q 1119 906 1312 657 
Q 1506 409 1894 409 
Q 2359 409 2629 706 
Q 2900 1003 2900 1516 
L 2900 3500 
L 3475 3500 
L 3475 0 
L 2900 0 
L 2900 538 
Q 2691 219 2414 64 
Q 2138 -91 1772 -91 
Q 1169 -91 856 284 
Q 544 659 544 1381 
z
M 1991 3584 
L 1991 3584 
z
" transform="scale(0.015625)"/>
       <path id="DejaVuSans-74" d="M 1172 4494 
L 1172 3500 
L 2356 3500 
L 2356 3053 
L 1172 3053 
L 1172 1153 
Q 1172 725 1289 603 
Q 1406 481 1766 481 
L 2356 481 
L 2356 0 
L 1766 0 
Q 1100 0 847 248 
Q 594 497 594 1153 
L 594 3053 
L 172 3053 
L 172 3500 
L 594 3500 
L 594 4494 
L 1172 4494 
z
" transform="scale(0.015625)"/>
      </defs>
      <use xlink:href="#DejaVuSans-49"/>
      <use xlink:href="#DejaVuSans-6e" x="29.492188"/>
      <use xlink:href="#DejaVuSans-70" x="92.871094"/>
      <use xlink:href="#DejaVuSans-75" x="156.347656"/>
      <use xlink:href="#DejaVuSans-74" x="219.726562"/>
     </g>
    </g>
   </g>
   <g id="line2d_1">
    <path d="M 36.609915 106.636167 
L 37.786174 106.782911 
L 38.962432 107.168778 
L 40.138691 107.022048 
L 40.726821 106.79921 
L 41.31495 106.717688 
L 41.903079 105.918772 
L 42.491209 105.429642 
L 43.667468 102.945929 
L 46.608115 94.369799 
L 47.196244 92.701315 
L 48.372503 88.516505 
L 53.077538 74.396869 
L 54.253797 71.50012 
L 55.430055 69.103356 
L 56.018185 68.255529 
L 56.606314 67.005523 
L 58.370702 64.212036 
L 60.135091 60.962017 
L 64.840126 52.2337 
L 66.604514 49.923914 
L 67.192643 49.396731 
L 67.780773 48.711948 
L 68.368902 48.30434 
L 70.13329 47.673895 
L 70.72142 47.706506 
L 71.309549 47.869549 
L 72.485808 48.630426 
L 73.073937 49.331523 
L 74.838325 52.668491 
L 76.602714 57.217426 
L 79.543361 66.673994 
L 80.719619 70.146851 
L 81.307749 71.364246 
L 83.072137 75.690357 
L 86.012784 81.391479 
L 87.189043 83.40779 
L 87.777172 84.136055 
L 88.365302 84.608886 
L 88.953431 85.494752 
L 89.54156 86.125198 
L 90.717819 87.027377 
L 91.305949 87.706718 
L 91.894078 87.761071 
L 92.482207 88.228459 
L 93.070337 88.962167 
L 93.658466 89.059987 
L 94.834725 90.266525 
L 95.422854 90.233914 
L 96.010984 90.706744 
L 96.599113 91.375215 
L 97.775372 92.136092 
L 98.363501 92.473049 
L 98.951631 92.945879 
L 100.127889 93.440451 
L 102.480407 94.777407 
L 104.244795 95.27742 
L 105.421054 96.005686 
L 106.009183 96.049154 
L 108.361701 96.777419 
L 109.53796 96.967646 
L 110.126089 97.206768 
L 110.714219 97.20134 
L 111.302348 97.532868 
L 111.890477 97.603519 
L 112.478607 97.440476 
L 113.066736 97.820915 
L 113.654866 97.76112 
L 114.242995 97.973087 
L 114.831124 97.956774 
L 115.419254 97.76112 
L 116.007383 97.913307 
L 116.595513 98.206781 
L 117.771771 98.212209 
L 118.359901 98.239393 
L 118.94803 98.424177 
L 119.53616 98.348083 
L 121.888677 98.527439 
L 122.476806 98.505698 
L 123.064936 98.929605 
L 123.653065 98.73395 
L 124.241195 99.04918 
L 125.417453 99.174169 
L 126.005583 99.516568 
L 126.593712 99.397007 
L 128.94623 100.174183 
L 129.534359 99.973086 
L 130.122489 100.087219 
L 130.710618 100.364395 
L 132.475006 100.739405 
L 138.3563 102.761145 
L 139.532559 103.369849 
L 140.120688 103.456813 
L 140.708818 103.848108 
L 141.296947 103.983982 
L 141.885077 104.391589 
L 143.649465 104.935071 
L 144.237594 105.391603 
L 145.413853 105.587257 
L 146.001982 105.853563 
L 146.590112 105.973124 
L 147.178241 106.206818 
L 147.76637 105.717689 
L 148.3545 105.592685 
L 148.942629 105.005736 
L 149.530759 104.614427 
L 151.295147 100.744833 
L 153.059535 95.701327 
L 154.823923 89.815436 
L 157.76457 79.375153 
L 159.528958 73.657733 
L 161.881476 67.369663 
L 163.057735 65.157683 
L 163.645864 63.717464 
L 165.998382 59.771791 
L 167.76277 56.00546 
L 168.350899 54.641321 
L 168.939029 53.641321 
L 170.115288 51.070658 
L 171.879676 47.641283 
L 172.467805 46.847809 
L 173.055934 45.521738 
L 173.644064 44.9728 
L 174.232193 44.086919 
L 174.820323 43.6521 
L 175.408452 43.021669 
L 176.584711 42.271705 
L 177.17284 42.103162 
L 178.349099 42.239079 
L 178.937228 42.499942 
L 180.113487 43.543395 
L 181.289746 45.10316 
L 181.877875 46.228248 
L 183.642264 50.788054 
L 188.935428 68.597928 
L 190.111687 71.326206 
L 190.699816 73.179474 
L 192.464205 77.016443 
L 193.052334 78.054496 
L 194.228593 80.402336 
L 194.816722 81.125173 
L 195.992981 82.858866 
L 196.58111 83.184952 
L 197.16924 84.043663 
L 197.757369 84.543663 
L 198.345498 84.744746 
L 198.933628 85.527364 
L 199.521757 85.657795 
L 200.109887 86.228446 
L 200.698016 86.565417 
L 201.286145 87.032805 
L 202.462404 87.462154 
L 203.050534 88.20129 
L 203.638663 88.386074 
L 204.814922 89.261084 
L 205.403051 89.429555 
L 205.991181 89.989349 
L 206.57931 90.136079 
L 208.343698 91.076298 
L 208.931828 91.625222 
L 209.519957 91.733913 
L 210.696216 92.402398 
L 211.284345 92.320876 
L 211.872475 92.766538 
L 213.636863 93.47849 
L 214.224992 93.554584 
L 214.813122 93.864357 
L 215.401251 93.88067 
L 215.98938 94.163274 
L 217.165639 94.407853 
L 217.753769 94.869799 
L 218.341898 94.701327 
L 218.930027 94.766536 
L 219.518157 95.190457 
L 220.106286 94.95132 
L 222.458804 95.505672 
L 223.046933 95.41328 
L 223.635062 95.945891 
L 224.223192 95.663287 
L 224.811321 95.935021 
L 225.98758 96.000244 
L 226.575709 96.011114 
L 227.163839 95.837201 
L 227.751968 96.038283 
L 228.340098 96.592635 
L 229.516356 96.565466 
L 231.868874 97.021984 
L 232.457003 97.348084 
L 233.045133 97.255692 
L 234.221392 97.598077 
L 234.809521 97.641559 
L 235.39765 98.005685 
L 236.573909 98.103519 
L 237.162039 98.288303 
L 237.750168 98.695911 
L 238.338297 98.799173 
L 238.926427 99.201352 
L 239.514556 99.255705 
L 240.102686 99.09809 
L 240.690815 99.451345 
L 242.455203 99.945917 
L 243.043333 100.288316 
L 243.631462 100.48397 
L 244.219591 100.842668 
L 244.807721 100.625272 
L 245.983979 101.331797 
L 246.572109 101.375279 
L 247.160238 101.880707 
L 248.336497 102.179624 
L 248.924626 102.445929 
L 249.512756 102.462242 
L 251.277144 103.587245 
L 251.865273 103.924201 
L 252.453403 103.962241 
L 253.041532 104.342679 
L 253.629662 104.587244 
L 254.217791 104.674208 
L 254.80592 105.076387 
L 255.39405 104.945941 
L 256.570309 105.27747 
L 257.746567 104.619855 
L 258.334697 104.043762 
L 258.922826 103.157896 
L 260.099085 100.712222 
L 261.863473 95.690456 
L 266.568508 79.206682 
L 268.332897 73.076212 
L 269.509155 69.315323 
L 270.097285 67.951184 
L 270.685414 66.222905 
L 272.449802 62.565278 
L 273.626061 60.853312 
L 274.21419 59.576137 
L 274.80232 58.81526 
L 277.154837 54.282637 
L 278.331096 51.923927 
L 279.507355 49.478253 
L 281.859873 45.342368 
L 283.036131 44.005426 
L 283.624261 43.04888 
L 284.21239 42.554366 
L 284.80052 42.646687 
L 285.388649 42.195626 
L 285.976778 41.961974 
L 286.564908 42.108576 
L 287.153037 42.081507 
L 288.329296 42.771633 
L 290.093684 45.233663 
L 291.858072 49.418472 
L 293.034331 52.994577 
L 295.386849 61.114189 
L 296.563107 65.42943 
L 297.151237 67.038134 
L 298.327496 70.804451 
L 300.680013 76.554483 
L 301.856272 62.503959 
L 302.444401 60.012808 
L 303.032531 58.202737 
L 303.62066 59.311185 
L 304.20879 61.872374 
L 305.385048 70.800633 
L 305.973178 75.922798 
L 307.149437 83.112734 
L 307.737566 85.286503 
L 308.325695 86.521935 
L 310.090084 87.617589 
L 311.854472 88.706732 
L 312.442601 89.02739 
L 313.030731 89.674119 
L 313.61886 90.136079 
L 314.206989 90.353475 
L 315.383248 91.228485 
L 315.971378 91.342618 
L 316.559507 91.891528 
L 317.147636 92.049142 
L 321.852671 94.331759 
L 322.440801 94.554583 
L 323.02893 95.005673 
L 323.61706 95.136104 
L 324.205189 95.380683 
L 324.793318 95.456762 
L 325.381448 95.804589 
L 325.969577 95.690456 
L 327.733965 95.86437 
L 328.910224 96.32633 
L 329.498354 96.3372 
L 330.086483 96.576337 
L 331.850871 96.810031 
L 332.439001 97.114376 
L 333.02713 96.994815 
L 334.791518 97.67417 
L 335.967777 97.641559 
L 337.144036 97.77199 
L 337.732165 97.935033 
L 338.320295 97.956774 
L 338.908424 97.848084 
L 343.02533 98.897007 
L 343.613459 98.837213 
L 344.201588 98.935047 
L 344.789718 99.391565 
L 345.377847 99.353525 
L 345.965977 99.652442 
L 346.554106 99.685054 
L 347.142235 100.065492 
L 348.318494 100.435046 
L 348.906624 100.369837 
L 350.082882 101.011139 
L 350.671012 101.03288 
L 353.023529 101.842667 
L 356.552306 103.462241 
L 357.728565 103.674194 
L 358.316694 104.223118 
L 360.081082 105.098114 
L 360.669212 105.331822 
L 361.257341 105.38616 
L 361.84547 105.772041 
L 362.4336 105.978552 
L 363.021729 106.369861 
L 363.609859 106.364433 
L 364.786117 106.79921 
L 366.550506 106.630739 
L 367.138635 106.76117 
L 367.726764 105.978552 
L 368.314894 105.435085 
L 369.491152 103.326367 
L 370.079282 102.250275 
L 371.255541 99.277432 
L 372.431799 95.71764 
L 373.608058 92.516531 
L 374.196188 90.413255 
L 374.784317 88.902386 
L 376.548705 83.35888 
L 379.489352 75.516444 
L 380.665611 72.869687 
L 383.018129 68.755529 
L 384.782517 66.087045 
L 385.370646 65.141384 
L 385.958776 64.538122 
L 387.135034 62.380494 
L 387.723164 61.630502 
L 388.311293 60.423963 
L 388.899423 59.472874 
L 390.075681 57.989174 
L 390.663811 57.043513 
L 391.25194 56.532643 
L 391.84007 55.750025 
L 393.016328 54.750026 
L 393.604458 54.418497 
L 394.192587 53.907627 
L 395.368846 53.755454 
L 395.956975 53.592411 
L 397.133234 54.461979 
L 397.721363 55.09241 
L 398.309493 55.891327 
L 398.897622 56.885912 
L 400.66201 61.081578 
L 401.25014 62.945717 
L 406.543304 75.94035 
L 407.131434 77.011015 
L 407.719563 78.472974 
L 410.66021 83.755617 
L 411.24834 84.592573 
L 411.836469 85.625184 
L 413.012728 86.87519 
L 415.365245 89.407814 
L 415.953375 89.782824 
L 417.717763 91.57087 
L 419.482151 93.141534 
L 420.07028 93.853501 
L 420.65841 94.320889 
L 421.246539 94.570896 
L 421.834669 95.271978 
L 422.422798 95.435021 
L 424.187186 96.657858 
L 425.363445 97.320901 
L 427.127833 98.576349 
L 427.715963 98.766562 
L 428.892221 99.342655 
L 430.06848 99.636129 
L 430.65661 100.195924 
L 431.244739 99.907877 
L 431.832868 100.375265 
L 432.420998 100.266575 
L 433.009127 100.511139 
L 434.773515 100.869837 
L 435.361645 101.255703 
L 435.949774 100.978527 
L 437.714162 101.407876 
L 438.302292 101.348095 
L 440.654809 101.598102 
L 441.242939 101.815498 
L 442.419197 101.652455 
L 443.007327 101.891577 
L 443.595456 101.848095 
L 444.183586 102.032879 
L 445.359844 101.886149 
L 445.947974 102.060062 
L 447.124233 102.076361 
L 447.712362 102.277458 
L 448.300491 102.070933 
L 448.888621 102.489411 
L 449.47675 102.358979 
L 450.06488 102.46767 
L 450.653009 102.848109 
L 451.241138 102.608972 
L 451.829268 102.50571 
L 453.005527 102.864407 
L 453.593656 103.157896 
L 455.358044 103.152454 
L 455.946174 103.364421 
L 456.534303 103.717676 
L 457.122432 103.9405 
L 457.710562 103.875291 
L 458.298691 104.114413 
L 458.886821 104.119856 
L 459.47495 103.924201 
L 460.063079 104.494852 
L 460.651209 104.549204 
L 461.239338 104.869862 
L 461.827468 104.72856 
L 462.415597 104.951384 
L 463.003726 105.016592 
L 463.591856 105.37529 
L 464.179985 105.467682 
L 464.768115 105.744858 
L 465.356244 105.864433 
L 466.532503 106.538347 
L 467.120632 106.66335 
L 467.708761 107.043789 
L 468.296891 107.250299 
L 470.061279 107.614439 
L 470.649408 107.891615 
L 471.237538 107.793781 
L 473.001926 108.391615 
L 473.590055 108.24487 
L 474.178185 107.951396 
L 474.766314 107.489436 
L 475.354444 106.859004 
L 475.942573 106.435084 
L 476.530702 105.217689 
L 477.118832 103.723119 
L 477.706961 102.630713 
L 479.471349 97.880695 
L 480.059479 96.348071 
L 483.000126 87.103456 
L 486.528902 77.652316 
L 488.29329 73.668604 
L 489.469549 72.097939 
L 491.233937 69.342492 
L 491.822067 68.820751 
L 494.762714 64.548992 
L 495.350843 63.760946 
L 495.938972 62.587019 
L 496.527102 61.907664 
L 497.115231 60.831585 
L 498.29149 59.625047 
L 499.467749 58.250037 
L 500.055878 57.461991 
L 500.644008 57.358729 
L 501.232137 57.114164 
L 501.820266 56.603294 
L 502.408396 56.679387 
L 502.996525 56.277208 
L 504.172784 56.89134 
L 505.349043 57.875041 
L 507.113431 60.869625 
L 508.28969 64.03268 
L 511.230337 71.777296 
L 511.818466 72.837076 
L 514.170984 77.989273 
L 517.111631 83.337139 
L 517.69976 84.646926 
L 518.287889 85.250188 
L 519.464148 87.027377 
L 520.052278 87.559988 
L 520.640407 88.619768 
L 522.992925 90.929568 
L 523.581054 91.114352 
L 524.169183 91.630664 
L 525.345442 93.027401 
L 527.69796 94.978503 
L 529.462348 96.157859 
L 530.638607 97.119818 
L 531.226736 97.337214 
L 531.814866 97.875253 
L 534.167383 99.163313 
L 534.755513 99.277432 
L 535.343642 99.728521 
L 536.519901 100.157884 
L 537.69616 100.820927 
L 538.872418 100.842668 
L 539.460548 101.358966 
L 540.048677 101.549192 
L 540.636806 101.4568 
L 541.813065 101.858966 
L 542.401195 101.994839 
L 542.989324 101.951358 
L 543.577453 102.250275 
L 544.165583 102.36985 
L 544.753712 102.255717 
L 545.341842 102.293756 
L 545.929971 102.522022 
L 546.5181 102.4568 
L 547.694359 102.652454 
L 548.282489 102.402447 
L 548.870618 102.761145 
L 549.458747 102.652454 
L 550.046877 102.945929 
L 550.635006 102.641584 
L 551.223136 102.799198 
L 552.399394 102.924202 
L 552.987524 102.723105 
L 553.575653 102.728547 
L 554.163783 102.886148 
L 555.340041 102.89159 
L 555.928171 103.087245 
L 556.5163 103.022022 
L 557.10443 103.250288 
L 557.10443 103.250288 
" clip-path="url(#p1b5b648fa3)" style="fill: none; stroke: #1f77b4; stroke-width: 1.5; stroke-linecap: square"/>
   </g>
   <g id="patch_4">
    <path d="M 37.12 112.04 
L 37.12 38.4 
" style="fill: none; stroke: #000000; stroke-width: 2.5; stroke-linejoin: miter; stroke-linecap: square"/>
   </g>
   <g id="patch_5">
    <path d="M 37.12 112.04 
L 556.56 112.04 
" style="fill: none; stroke: #000000; stroke-width: 2.5; stroke-linejoin: miter; stroke-linecap: square"/>
   </g>
   <g id="text_2">
    <!-- UCR_138 -->
    <g transform="translate(256.03625 32.4)scale(0.18 -0.18)">
     <defs>
      <path id="DejaVuSans-55" d="M 556 4666 
L 1191 4666 
L 1191 1831 
Q 1191 1081 1462 751 
Q 1734 422 2344 422 
Q 2950 422 3222 751 
Q 3494 1081 3494 1831 
L 3494 4666 
L 4128 4666 
L 4128 1753 
Q 4128 841 3676 375 
Q 3225 -91 2344 -91 
Q 1459 -91 1007 375 
Q 556 841 556 1753 
L 556 4666 
z
" transform="scale(0.015625)"/>
      <path id="DejaVuSans-43" d="M 4122 4306 
L 4122 3641 
Q 3803 3938 3442 4084 
Q 3081 4231 2675 4231 
Q 1875 4231 1450 3742 
Q 1025 3253 1025 2328 
Q 1025 1406 1450 917 
Q 1875 428 2675 428 
Q 3081 428 3442 575 
Q 3803 722 4122 1019 
L 4122 359 
Q 3791 134 3420 21 
Q 3050 -91 2638 -91 
Q 1578 -91 968 557 
Q 359 1206 359 2328 
Q 359 3453 968 4101 
Q 1578 4750 2638 4750 
Q 3056 4750 3426 4639 
Q 3797 4528 4122 4306 
z
" transform="scale(0.015625)"/>
      <path id="DejaVuSans-52" d="M 2841 2188 
Q 3044 2119 3236 1894 
Q 3428 1669 3622 1275 
L 4263 0 
L 3584 0 
L 2988 1197 
Q 2756 1666 2539 1819 
Q 2322 1972 1947 1972 
L 1259 1972 
L 1259 0 
L 628 0 
L 628 4666 
L 2053 4666 
Q 2853 4666 3247 4331 
Q 3641 3997 3641 3322 
Q 3641 2881 3436 2590 
Q 3231 2300 2841 2188 
z
M 1259 4147 
L 1259 2491 
L 2053 2491 
Q 2509 2491 2742 2702 
Q 2975 2913 2975 3322 
Q 2975 3731 2742 3939 
Q 2509 4147 2053 4147 
L 1259 4147 
z
" transform="scale(0.015625)"/>
      <path id="DejaVuSans-5f" d="M 3263 -1063 
L 3263 -1509 
L -63 -1509 
L -63 -1063 
L 3263 -1063 
z
" transform="scale(0.015625)"/>
      <path id="DejaVuSans-31" d="M 794 531 
L 1825 531 
L 1825 4091 
L 703 3866 
L 703 4441 
L 1819 4666 
L 2450 4666 
L 2450 531 
L 3481 531 
L 3481 0 
L 794 0 
L 794 531 
z
" transform="scale(0.015625)"/>
      <path id="DejaVuSans-33" d="M 2597 2516 
Q 3050 2419 3304 2112 
Q 3559 1806 3559 1356 
Q 3559 666 3084 287 
Q 2609 -91 1734 -91 
Q 1441 -91 1130 -33 
Q 819 25 488 141 
L 488 750 
Q 750 597 1062 519 
Q 1375 441 1716 441 
Q 2309 441 2620 675 
Q 2931 909 2931 1356 
Q 2931 1769 2642 2001 
Q 2353 2234 1838 2234 
L 1294 2234 
L 1294 2753 
L 1863 2753 
Q 2328 2753 2575 2939 
Q 2822 3125 2822 3475 
Q 2822 3834 2567 4026 
Q 2313 4219 1838 4219 
Q 1578 4219 1281 4162 
Q 984 4106 628 3988 
L 628 4550 
Q 988 4650 1302 4700 
Q 1616 4750 1894 4750 
Q 2613 4750 3031 4423 
Q 3450 4097 3450 3541 
Q 3450 3153 3228 2886 
Q 3006 2619 2597 2516 
z
" transform="scale(0.015625)"/>
      <path id="DejaVuSans-38" d="M 2034 2216 
Q 1584 2216 1326 1975 
Q 1069 1734 1069 1313 
Q 1069 891 1326 650 
Q 1584 409 2034 409 
Q 2484 409 2743 651 
Q 3003 894 3003 1313 
Q 3003 1734 2745 1975 
Q 2488 2216 2034 2216 
z
M 1403 2484 
Q 997 2584 770 2862 
Q 544 3141 544 3541 
Q 544 4100 942 4425 
Q 1341 4750 2034 4750 
Q 2731 4750 3128 4425 
Q 3525 4100 3525 3541 
Q 3525 3141 3298 2862 
Q 3072 2584 2669 2484 
Q 3125 2378 3379 2068 
Q 3634 1759 3634 1313 
Q 3634 634 3220 271 
Q 2806 -91 2034 -91 
Q 1263 -91 848 271 
Q 434 634 434 1313 
Q 434 1759 690 2068 
Q 947 2378 1403 2484 
z
M 1172 3481 
Q 1172 3119 1398 2916 
Q 1625 2713 2034 2713 
Q 2441 2713 2670 2916 
Q 2900 3119 2900 3481 
Q 2900 3844 2670 4047 
Q 2441 4250 2034 4250 
Q 1625 4250 1398 4047 
Q 1172 3844 1172 3481 
z
" transform="scale(0.015625)"/>
     </defs>
     <use xlink:href="#DejaVuSans-55"/>
     <use xlink:href="#DejaVuSans-43" x="73.193359"/>
     <use xlink:href="#DejaVuSans-52" x="143.017578"/>
     <use xlink:href="#DejaVuSans-5f" x="212.5"/>
     <use xlink:href="#DejaVuSans-31" x="262.5"/>
     <use xlink:href="#DejaVuSans-33" x="326.123047"/>
     <use xlink:href="#DejaVuSans-38" x="389.746094"/>
    </g>
   </g>
  </g>
  <g id="axes_2">
   <g id="patch_6">
    <path d="M 37.12 205.12 
L 556.56 205.12 
L 556.56 131.48 
L 37.12 131.48 
z
" style="fill: #ffffff"/>
   </g>
   <g id="patch_7">
    <path d="M 301.268143 205.12 
L 301.268143 131.48 
L 307.149437 131.48 
L 307.149437 205.12 
z
" clip-path="url(#pe9a71fdf71)" style="fill: #ff7f50; stroke: #ff7f50; stroke-linejoin: miter"/>
   </g>
   <g id="matplotlib.axis_3"/>
   <g id="matplotlib.axis_4">
    <g id="text_3">
     <!-- DAMP -->
     <g transform="translate(30.208437 188.616406)rotate(-90)scale(0.14 -0.14)">
      <defs>
       <path id="DejaVuSans-44" d="M 1259 4147 
L 1259 519 
L 2022 519 
Q 2988 519 3436 956 
Q 3884 1394 3884 2338 
Q 3884 3275 3436 3711 
Q 2988 4147 2022 4147 
L 1259 4147 
z
M 628 4666 
L 1925 4666 
Q 3281 4666 3915 4102 
Q 4550 3538 4550 2338 
Q 4550 1131 3912 565 
Q 3275 0 1925 0 
L 628 0 
L 628 4666 
z
" transform="scale(0.015625)"/>
       <path id="DejaVuSans-41" d="M 2188 4044 
L 1331 1722 
L 3047 1722 
L 2188 4044 
z
M 1831 4666 
L 2547 4666 
L 4325 0 
L 3669 0 
L 3244 1197 
L 1141 1197 
L 716 0 
L 50 0 
L 1831 4666 
z
" transform="scale(0.015625)"/>
       <path id="DejaVuSans-4d" d="M 628 4666 
L 1569 4666 
L 2759 1491 
L 3956 4666 
L 4897 4666 
L 4897 0 
L 4281 0 
L 4281 4097 
L 3078 897 
L 2444 897 
L 1241 4097 
L 1241 0 
L 628 0 
L 628 4666 
z
" transform="scale(0.015625)"/>
       <path id="DejaVuSans-50" d="M 1259 4147 
L 1259 2394 
L 2053 2394 
Q 2494 2394 2734 2622 
Q 2975 2850 2975 3272 
Q 2975 3691 2734 3919 
Q 2494 4147 2053 4147 
L 1259 4147 
z
M 628 4666 
L 2053 4666 
Q 2838 4666 3239 4311 
Q 3641 3956 3641 3272 
Q 3641 2581 3239 2228 
Q 2838 1875 2053 1875 
L 1259 1875 
L 1259 0 
L 628 0 
L 628 4666 
z
" transform="scale(0.015625)"/>
      </defs>
      <use xlink:href="#DejaVuSans-44"/>
      <use xlink:href="#DejaVuSans-41" x="75.251953"/>
      <use xlink:href="#DejaVuSans-4d" x="143.660156"/>
      <use xlink:href="#DejaVuSans-50" x="229.939453"/>
     </g>
    </g>
   </g>
   <g id="line2d_2">
    <path d="M 36.609915 197.826131 
L 43.079338 197.841932 
L 52.489408 198.129021 
L 54.253797 198.089206 
L 63.075738 198.31565 
L 64.251996 198.273658 
L 71.897679 198.337487 
L 76.014584 198.495328 
L 180.113487 198.537762 
L 180.701617 197.627074 
L 182.466005 197.630068 
L 185.406652 197.426621 
L 190.111687 197.973315 
L 193.640463 197.994187 
L 196.58111 198.09988 
L 197.757369 198.147567 
L 202.462404 198.18514 
L 214.224992 198.079943 
L 238.338297 198.095792 
L 244.807721 198.136714 
L 247.160238 198.016591 
L 249.512756 197.967442 
L 251.277144 197.805555 
L 255.982179 197.736184 
L 259.510956 197.733731 
L 262.451603 197.264291 
L 265.980379 196.150529 
L 268.332897 195.090694 
L 271.273543 193.296815 
L 271.861673 193.084334 
L 273.626061 193.308166 
L 281.271743 194.413435 
L 284.80052 194.848285 
L 287.153037 194.946374 
L 290.093684 195.148339 
L 291.858072 195.344789 
L 292.446202 195.499097 
L 293.622461 195.614677 
L 294.798719 195.671002 
L 297.151237 195.60582 
L 300.091884 195.665166 
L 301.268143 195.688322 
L 301.856272 189.712772 
L 303.032531 171.274981 
L 303.62066 163.337667 
L 304.20879 157.164889 
L 304.796919 152.796375 
L 305.385048 150.518336 
L 305.973178 149.725388 
L 306.561307 149.65455 
L 307.737566 149.97303 
L 309.501954 149.863164 
L 315.971378 149.396333 
L 320.088283 149.267353 
L 325.969577 149.288881 
L 337.144036 149.50301 
L 355.964176 148.923798 
L 362.4336 150.730434 
L 364.786117 150.945114 
L 366.550506 150.898108 
L 367.726764 150.673966 
L 368.314894 150.465799 
L 369.491152 149.766386 
L 370.079282 149.656513 
L 371.255541 149.151669 
L 372.431799 148.192195 
L 373.608058 147.168706 
L 374.196188 146.918715 
L 375.372446 146.664664 
L 376.548705 145.861264 
L 377.136835 145.304978 
L 378.313093 144.897235 
L 380.665611 144.141694 
L 383.018129 143.13614 
L 384.782517 142.222675 
L 386.546905 141.059543 
L 388.311293 139.641945 
L 388.899423 139.114641 
L 389.487552 138.826723 
L 390.663811 139.075168 
L 391.84007 139.168986 
L 393.016328 139.117638 
L 395.368846 138.590128 
L 396.545105 138.238365 
L 397.721363 137.561334 
L 399.485752 135.957614 
L 400.073881 135.336318 
L 400.66201 134.901302 
L 401.25014 134.827273 
L 403.602657 137.532726 
L 404.778916 139.326742 
L 406.543304 141.34351 
L 407.131434 141.181508 
L 407.719563 142.713359 
L 408.307693 146.224482 
L 408.895822 153.048793 
L 410.072081 171.093991 
L 411.24834 187.646882 
L 557.10443 187.706337 
L 557.10443 187.706337 
" clip-path="url(#pe9a71fdf71)" style="fill: none; stroke: #1f77b4; stroke-width: 1.5; stroke-linecap: square"/>
   </g>
   <g id="patch_8">
    <path d="M 37.12 205.12 
L 37.12 131.48 
" style="fill: none; stroke: #000000; stroke-width: 2.5; stroke-linejoin: miter; stroke-linecap: square"/>
   </g>
   <g id="patch_9">
    <path d="M 37.12 205.12 
L 556.56 205.12 
" style="fill: none; stroke: #000000; stroke-width: 2.5; stroke-linejoin: miter; stroke-linecap: square"/>
   </g>
  </g>
  <g id="axes_3">
   <g id="patch_10">
    <path d="M 37.12 298.2 
L 556.56 298.2 
L 556.56 224.56 
L 37.12 224.56 
z
" style="fill: #ffffff"/>
   </g>
   <g id="patch_11">
    <path d="M 301.268143 298.2 
L 301.268143 224.56 
L 307.149437 224.56 
L 307.149437 298.2 
z
" clip-path="url(#p677f85f57b)" style="fill: #ff7f50; stroke: #ff7f50; stroke-linejoin: miter"/>
   </g>
   <g id="matplotlib.axis_5"/>
   <g id="matplotlib.axis_6">
    <g id="text_4">
     <!-- MD-SW* -->
     <g transform="translate(30.208437 290.200312)rotate(-90)scale(0.14 -0.14)">
      <defs>
       <path id="DejaVuSans-2d" d="M 313 2009 
L 1997 2009 
L 1997 1497 
L 313 1497 
L 313 2009 
z
" transform="scale(0.015625)"/>
       <path id="DejaVuSans-53" d="M 3425 4513 
L 3425 3897 
Q 3066 4069 2747 4153 
Q 2428 4238 2131 4238 
Q 1616 4238 1336 4038 
Q 1056 3838 1056 3469 
Q 1056 3159 1242 3001 
Q 1428 2844 1947 2747 
L 2328 2669 
Q 3034 2534 3370 2195 
Q 3706 1856 3706 1288 
Q 3706 609 3251 259 
Q 2797 -91 1919 -91 
Q 1588 -91 1214 -16 
Q 841 59 441 206 
L 441 856 
Q 825 641 1194 531 
Q 1563 422 1919 422 
Q 2459 422 2753 634 
Q 3047 847 3047 1241 
Q 3047 1584 2836 1778 
Q 2625 1972 2144 2069 
L 1759 2144 
Q 1053 2284 737 2584 
Q 422 2884 422 3419 
Q 422 4038 858 4394 
Q 1294 4750 2059 4750 
Q 2388 4750 2728 4690 
Q 3069 4631 3425 4513 
z
" transform="scale(0.015625)"/>
       <path id="DejaVuSans-57" d="M 213 4666 
L 850 4666 
L 1831 722 
L 2809 4666 
L 3519 4666 
L 4500 722 
L 5478 4666 
L 6119 4666 
L 4947 0 
L 4153 0 
L 3169 4050 
L 2175 0 
L 1381 0 
L 213 4666 
z
" transform="scale(0.015625)"/>
       <path id="DejaVuSans-2a" d="M 3009 3897 
L 1888 3291 
L 3009 2681 
L 2828 2375 
L 1778 3009 
L 1778 1831 
L 1422 1831 
L 1422 3009 
L 372 2375 
L 191 2681 
L 1313 3291 
L 191 3897 
L 372 4206 
L 1422 3572 
L 1422 4750 
L 1778 4750 
L 1778 3572 
L 2828 4206 
L 3009 3897 
z
" transform="scale(0.015625)"/>
      </defs>
      <use xlink:href="#DejaVuSans-4d"/>
      <use xlink:href="#DejaVuSans-44" x="86.279297"/>
      <use xlink:href="#DejaVuSans-2d" x="163.28125"/>
      <use xlink:href="#DejaVuSans-53" x="199.365234"/>
      <use xlink:href="#DejaVuSans-57" x="262.841797"/>
      <use xlink:href="#DejaVuSans-2a" x="361.71875"/>
     </g>
    </g>
   </g>
   <g id="line2d_3">
    <path d="M 36.609915 294.623982 
L 40.726821 294.620655 
L 43.079338 294.632163 
L 48.372503 294.618804 
L 81.307749 294.746823 
L 83.660266 294.731619 
L 157.176441 294.658227 
L 159.528958 294.691931 
L 201.286145 294.650918 
L 203.638663 294.625535 
L 240.102686 294.501807 
L 242.455203 294.4686 
L 301.268143 294.384722 
L 302.444401 268.315562 
L 303.032531 268.241415 
L 303.62066 267.318487 
L 304.20879 259.706926 
L 305.385048 239.675474 
L 305.973178 236.710692 
L 307.149437 237.653197 
L 307.737566 235.621678 
L 308.325695 232.285606 
L 308.913825 230.163579 
L 309.501954 229.668215 
L 310.090084 229.841811 
L 311.854472 229.077105 
L 312.442601 229.160894 
L 313.61886 229.503664 
L 314.206989 229.303432 
L 314.795119 228.980289 
L 315.971378 229.016297 
L 316.559507 229.020117 
L 317.735766 228.249681 
L 318.323895 228.101409 
L 320.088283 228.466431 
L 321.264542 228.208929 
L 322.440801 228.400662 
L 324.205189 228.512542 
L 324.793318 228.506198 
L 325.969577 228.686895 
L 327.733965 228.677272 
L 329.498354 228.896883 
L 330.086483 229.107489 
L 331.262742 229.137214 
L 332.439001 229.633839 
L 333.615259 229.699762 
L 334.203389 229.900781 
L 335.967777 229.814187 
L 336.555906 230.012031 
L 337.144036 230.5795 
L 337.732165 230.887578 
L 340.084683 230.558247 
L 341.260942 231.023873 
L 341.849071 230.931089 
L 343.613459 230.078615 
L 344.201588 229.947796 
L 344.789718 229.933591 
L 345.965977 229.670296 
L 346.554106 229.295559 
L 347.730365 229.14286 
L 353.023529 229.185068 
L 354.787918 229.5611 
L 356.552306 229.404794 
L 357.728565 229.752417 
L 358.316694 230.007826 
L 360.081082 229.444685 
L 361.257341 229.494578 
L 361.84547 229.40292 
L 364.786117 229.482551 
L 365.374247 229.35417 
L 366.550506 229.424644 
L 367.138635 229.694232 
L 368.314894 229.849318 
L 368.903023 229.747294 
L 369.491152 229.525099 
L 370.079282 229.560773 
L 371.255541 230.003559 
L 371.84367 229.908569 
L 373.019929 229.439474 
L 373.608058 229.484547 
L 374.196188 229.904678 
L 375.960576 229.862772 
L 377.136835 229.239262 
L 377.724964 229.128061 
L 378.901223 229.332477 
L 380.665611 228.961047 
L 381.84187 228.492794 
L 386.546905 227.923452 
L 391.25194 228.018704 
L 392.428199 228.761761 
L 393.016328 229.015571 
L 394.192587 228.703352 
L 394.780716 228.848981 
L 395.368846 229.225129 
L 395.956975 229.426957 
L 397.721363 229.0078 
L 398.309493 229.084101 
L 399.485752 229.977032 
L 400.073881 229.866891 
L 400.66201 229.407396 
L 401.25014 229.597802 
L 401.838269 230.513744 
L 402.426399 232.101958 
L 403.014528 232.016991 
L 403.602657 231.660112 
L 404.190787 233.531002 
L 404.778916 242.764298 
L 405.367046 257.489381 
L 405.955175 261.793367 
L 406.543304 266.944756 
L 407.131434 274.812198 
L 407.719563 279.592908 
L 408.307693 285.917098 
L 408.895822 288.591816 
L 409.483951 289.277715 
L 410.072081 289.083953 
L 410.66021 289.551511 
L 411.836469 292.591778 
L 412.424598 293.974264 
L 413.012728 294.591544 
L 413.600857 294.716244 
L 459.47495 294.633052 
L 468.88502 294.58885 
L 494.174584 294.445621 
L 502.996525 294.395854 
L 505.937172 294.405086 
L 507.70156 294.436573 
L 535.931771 294.331766 
L 538.284289 294.378261 
L 555.928171 294.362785 
L 557.10443 294.410538 
L 557.10443 294.410538 
" clip-path="url(#p677f85f57b)" style="fill: none; stroke: #1f77b4; stroke-width: 1.5; stroke-linecap: square"/>
   </g>
   <g id="patch_12">
    <path d="M 37.12 298.2 
L 37.12 224.56 
" style="fill: none; stroke: #000000; stroke-width: 2.5; stroke-linejoin: miter; stroke-linecap: square"/>
   </g>
   <g id="patch_13">
    <path d="M 37.12 298.2 
L 556.56 298.2 
" style="fill: none; stroke: #000000; stroke-width: 2.5; stroke-linejoin: miter; stroke-linecap: square"/>
   </g>
  </g>
  <g id="axes_4">
   <g id="patch_14">
    <path d="M 37.12 391.28 
L 556.56 391.28 
L 556.56 317.64 
L 37.12 317.64 
z
" style="fill: #ffffff"/>
   </g>
   <g id="patch_15">
    <path d="M 301.268143 391.28 
L 301.268143 317.64 
L 307.149437 317.64 
L 307.149437 391.28 
z
" clip-path="url(#pb8cb031629)" style="fill: #ff7f50; stroke: #ff7f50; stroke-linejoin: miter"/>
   </g>
   <g id="matplotlib.axis_7">
    <g id="text_5">
     <!-- Time -->
     <g transform="translate(274.819531 408.957187)scale(0.18 -0.18)">
      <defs>
       <path id="DejaVuSans-54" d="M -19 4666 
L 3928 4666 
L 3928 4134 
L 2272 4134 
L 2272 0 
L 1638 0 
L 1638 4134 
L -19 4134 
L -19 4666 
z
" transform="scale(0.015625)"/>
       <path id="DejaVuSans-69" d="M 603 3500 
L 1178 3500 
L 1178 0 
L 603 0 
L 603 3500 
z
M 603 4863 
L 1178 4863 
L 1178 4134 
L 603 4134 
L 603 4863 
z
" transform="scale(0.015625)"/>
       <path id="DejaVuSans-6d" d="M 3328 2828 
Q 3544 3216 3844 3400 
Q 4144 3584 4550 3584 
Q 5097 3584 5394 3201 
Q 5691 2819 5691 2113 
L 5691 0 
L 5113 0 
L 5113 2094 
Q 5113 2597 4934 2840 
Q 4756 3084 4391 3084 
Q 3944 3084 3684 2787 
Q 3425 2491 3425 1978 
L 3425 0 
L 2847 0 
L 2847 2094 
Q 2847 2600 2669 2842 
Q 2491 3084 2119 3084 
Q 1678 3084 1418 2786 
Q 1159 2488 1159 1978 
L 1159 0 
L 581 0 
L 581 3500 
L 1159 3500 
L 1159 2956 
Q 1356 3278 1631 3431 
Q 1906 3584 2284 3584 
Q 2666 3584 2933 3390 
Q 3200 3197 3328 2828 
z
" transform="scale(0.015625)"/>
       <path id="DejaVuSans-65" d="M 3597 1894 
L 3597 1613 
L 953 1613 
Q 991 1019 1311 708 
Q 1631 397 2203 397 
Q 2534 397 2845 478 
Q 3156 559 3463 722 
L 3463 178 
Q 3153 47 2828 -22 
Q 2503 -91 2169 -91 
Q 1331 -91 842 396 
Q 353 884 353 1716 
Q 353 2575 817 3079 
Q 1281 3584 2069 3584 
Q 2775 3584 3186 3129 
Q 3597 2675 3597 1894 
z
M 3022 2063 
Q 3016 2534 2758 2815 
Q 2500 3097 2075 3097 
Q 1594 3097 1305 2825 
Q 1016 2553 972 2059 
L 3022 2063 
z
" transform="scale(0.015625)"/>
      </defs>
      <use xlink:href="#DejaVuSans-54"/>
      <use xlink:href="#DejaVuSans-69" x="57.958984"/>
      <use xlink:href="#DejaVuSans-6d" x="85.742188"/>
      <use xlink:href="#DejaVuSans-65" x="183.154297"/>
     </g>
    </g>
   </g>
   <g id="matplotlib.axis_8">
    <g id="text_6">
     <!-- MD-RS -->
     <g transform="translate(30.208437 377.722969)rotate(-90)scale(0.14 -0.14)">
      <use xlink:href="#DejaVuSans-4d"/>
      <use xlink:href="#DejaVuSans-44" x="86.279297"/>
      <use xlink:href="#DejaVuSans-2d" x="163.28125"/>
      <use xlink:href="#DejaVuSans-52" x="199.365234"/>
      <use xlink:href="#DejaVuSans-53" x="268.847656"/>
     </g>
    </g>
   </g>
   <g id="line2d_4">
    <path d="M 36.609915 387.930084 
L 144.237594 387.930991 
L 300.680013 387.905144 
L 301.268143 387.608502 
L 301.856272 381.870712 
L 303.032531 340.964707 
L 303.62066 325.663721 
L 304.20879 320.987273 
L 304.796919 321.908741 
L 305.385048 326.80623 
L 305.973178 333.193596 
L 306.561307 338.013998 
L 307.149437 341.168156 
L 307.737566 343.602235 
L 308.325695 346.80041 
L 310.090084 359.505543 
L 310.678213 361.721796 
L 311.854472 364.640457 
L 315.383248 375.50632 
L 316.559507 378.299607 
L 317.147636 379.285029 
L 317.735766 379.866031 
L 318.912024 380.45747 
L 320.088283 380.981652 
L 321.264542 381.849286 
L 324.793318 384.741351 
L 326.557707 385.692249 
L 328.322095 386.326328 
L 330.086483 386.644733 
L 333.615259 387.265415 
L 335.967777 387.584894 
L 340.672812 387.800204 
L 345.377847 387.888539 
L 385.958776 387.922054 
L 464.768115 387.931379 
L 557.10443 387.931888 
L 557.10443 387.931888 
" clip-path="url(#pb8cb031629)" style="fill: none; stroke: #1f77b4; stroke-width: 1.5; stroke-linecap: square"/>
   </g>
   <g id="patch_16">
    <path d="M 37.12 391.28 
L 37.12 317.64 
" style="fill: none; stroke: #000000; stroke-width: 2.5; stroke-linejoin: miter; stroke-linecap: square"/>
   </g>
   <g id="patch_17">
    <path d="M 37.12 391.28 
L 556.56 391.28 
" style="fill: none; stroke: #000000; stroke-width: 2.5; stroke-linejoin: miter; stroke-linecap: square"/>
   </g>
  </g>
 </g>
 <defs>
  <clipPath id="p1b5b648fa3">
   <rect x="37.12" y="38.4" width="519.44" height="73.64"/>
  </clipPath>
  <clipPath id="pe9a71fdf71">
   <rect x="37.12" y="131.48" width="519.44" height="73.64"/>
  </clipPath>
  <clipPath id="p677f85f57b">
   <rect x="37.12" y="224.56" width="519.44" height="73.64"/>
  </clipPath>
  <clipPath id="pb8cb031629">
   <rect x="37.12" y="317.64" width="519.44" height="73.64"/>
  </clipPath>
 </defs>
</svg>
