<?xml version="1.0" encoding="utf-8" standalone="no"?>
<!DOCTYPE svg PUBLIC "-//W3C//DTD SVG 1.1//EN"
  "http://www.w3.org/Graphics/SVG/1.1/DTD/svg11.dtd">
<svg xmlns:xlink="http://www.w3.org/1999/xlink" width="576pt" height="432pt" viewBox="0 0 576 432" xmlns="http://www.w3.org/2000/svg" version="1.1">
 <metadata>
  <rdf:RDF xmlns:dc="http://purl.org/dc/elements/1.1/" xmlns:cc="http://creativecommons.org/ns#" xmlns:rdf="http://www.w3.org/1999/02/22-rdf-syntax-ns#">
   <cc:Work>
    <dc:type rdf:resource="http://purl.org/dc/dcmitype/StillImage"/>
    <dc:date>2024-04-25T23:56:24.383681</dc:date>
    <dc:format>image/svg+xml</dc:format>
    <dc:creator>
     <cc:Agent>
      <dc:title>Matplotlib v3.5.1, https://matplotlib.org/</dc:title>
     </cc:Agent>
    </dc:creator>
   </cc:Work>
  </rdf:RDF>
 </metadata>
 <defs>
  <style type="text/css">*{stroke-linejoin: round; stroke-linecap: butt}</style>
 </defs>
 <g id="figure_1">
  <g id="patch_1">
   <path d="M 0 432 
L 576 432 
L 576 0 
L 0 0 
z
" style="fill: #ffffff"/>
  </g>
  <g id="axes_1">
   <g id="patch_2">
    <path d="M 39.28 93.424 
L 556.56 93.424 
L 556.56 38.4 
L 39.28 38.4 
z
" style="fill: #ffffff"/>
   </g>
   <g id="patch_3">
    <path d="M 305.086062 93.424 
L 305.086062 38.4 
L 322.309299 38.4 
L 322.309299 93.424 
z
" clip-path="url(#p3ab8bc12ca)" style="fill: #ff7f50; stroke: #ff7f50; stroke-linejoin: miter"/>
   </g>
   <g id="matplotlib.axis_1"/>
   <g id="matplotlib.axis_2">
    <g id="text_1">
     <!-- Input -->
     <g transform="translate(32.368437 84.037625)rotate(-90)scale(0.14 -0.14)">
      <defs>
       <path id="DejaVuSans-49" d="M 628 4666 
L 1259 4666 
L 1259 0 
L 628 0 
L 628 4666 
z
" transform="scale(0.015625)"/>
       <path id="DejaVuSans-6e" d="M 3513 2113 
L 3513 0 
L 2938 0 
L 2938 2094 
Q 2938 2591 2744 2837 
Q 2550 3084 2163 3084 
Q 1697 3084 1428 2787 
Q 1159 2491 1159 1978 
L 1159 0 
L 581 0 
L 581 3500 
L 1159 3500 
L 1159 2956 
Q 1366 3272 1645 3428 
Q 1925 3584 2291 3584 
Q 2894 3584 3203 3211 
Q 3513 2838 3513 2113 
z
" transform="scale(0.015625)"/>
       <path id="DejaVuSans-70" d="M 1159 525 
L 1159 -1331 
L 581 -1331 
L 581 3500 
L 1159 3500 
L 1159 2969 
Q 1341 3281 1617 3432 
Q 1894 3584 2278 3584 
Q 2916 3584 3314 3078 
Q 3713 2572 3713 1747 
Q 3713 922 3314 415 
Q 2916 -91 2278 -91 
Q 1894 -91 1617 61 
Q 1341 213 1159 525 
z
M 3116 1747 
Q 3116 2381 2855 2742 
Q 2594 3103 2138 3103 
Q 1681 3103 1420 2742 
Q 1159 2381 1159 1747 
Q 1159 1113 1420 752 
Q 1681 391 2138 391 
Q 2594 391 2855 752 
Q 3116 1113 3116 1747 
z
" transform="scale(0.015625)"/>
       <path id="DejaVuSans-75" d="M 544 1381 
L 544 3500 
L 1119 3500 
L 1119 1403 
Q 1119 906 1312 657 
Q 1506 409 1894 409 
Q 2359 409 2629 706 
Q 2900 1003 2900 1516 
L 2900 3500 
L 3475 3500 
L 3475 0 
L 2900 0 
L 2900 538 
Q 2691 219 2414 64 
Q 2138 -91 1772 -91 
Q 1169 -91 856 284 
Q 544 659 544 1381 
z
M 1991 3584 
L 1991 3584 
z
" transform="scale(0.015625)"/>
       <path id="DejaVuSans-74" d="M 1172 4494 
L 1172 3500 
L 2356 3500 
L 2356 3053 
L 1172 3053 
L 1172 1153 
Q 1172 725 1289 603 
Q 1406 481 1766 481 
L 2356 481 
L 2356 0 
L 1766 0 
Q 1100 0 847 248 
Q 594 497 594 1153 
L 594 3053 
L 172 3053 
L 172 3500 
L 594 3500 
L 594 4494 
L 1172 4494 
z
" transform="scale(0.015625)"/>
      </defs>
      <use xlink:href="#DejaVuSans-49"/>
      <use xlink:href="#DejaVuSans-6e" x="29.492188"/>
      <use xlink:href="#DejaVuSans-70" x="92.871094"/>
      <use xlink:href="#DejaVuSans-75" x="156.347656"/>
      <use xlink:href="#DejaVuSans-74" x="219.726562"/>
     </g>
    </g>
   </g>
   <g id="line2d_1">
    <path d="M 39.082727 73.271064 
L 39.720625 73.783332 
L 40.358522 74.444609 
L 40.99642 74.728687 
L 41.634318 75.203697 
L 42.272216 75.827728 
L 42.910113 76.009345 
L 44.185909 76.754455 
L 44.823806 77.010589 
L 45.461704 77.466969 
L 46.099602 77.625306 
L 46.737499 78.104966 
L 47.375397 78.267966 
L 48.651192 78.966503 
L 49.28909 79.022391 
L 49.926988 79.353029 
L 50.564885 79.464805 
L 52.478579 80.219229 
L 54.392272 81.164585 
L 55.030169 81.215809 
L 55.668067 81.700133 
L 56.305965 81.951616 
L 56.943862 82.333479 
L 57.58176 83.404577 
L 58.219658 83.479094 
L 58.857555 84.093798 
L 60.133351 84.554842 
L 60.771248 84.396505 
L 61.409146 84.503618 
L 62.047044 84.321988 
L 63.322839 84.666605 
L 64.598635 85.202154 
L 65.87443 85.188188 
L 67.150225 85.593344 
L 67.788123 85.891388 
L 69.063918 85.756332 
L 69.701816 85.053132 
L 70.339714 83.572228 
L 71.615509 78.56601 
L 72.891304 72.223247 
L 74.804997 63.393685 
L 76.080793 58.54114 
L 76.718691 56.603856 
L 77.994486 54.536166 
L 79.270281 53.558203 
L 79.908179 53.669979 
L 80.546077 53.539586 
L 81.821872 54.000618 
L 82.45977 54.284696 
L 83.097667 54.177583 
L 83.735565 54.233471 
L 84.373463 54.103066 
L 85.01136 53.516293 
L 85.649258 53.548901 
L 87.562951 50.796641 
L 90.75244 44.621565 
L 92.666133 41.68764 
L 94.579826 40.402391 
L 95.217723 40.20206 
L 96.493519 40.537411 
L 97.769314 41.235947 
L 98.407212 41.971718 
L 99.04511 42.064864 
L 100.320905 43.378068 
L 100.958803 44.132517 
L 102.872496 46.759047 
L 104.148291 49.646339 
L 104.786189 51.383414 
L 105.424086 53.539586 
L 106.061984 56.26389 
L 107.337779 62.727731 
L 107.975677 65.368228 
L 108.613575 66.779278 
L 109.251473 66.313583 
L 111.165166 63.063033 
L 111.803063 62.555429 
L 114.354654 58.671533 
L 114.992552 58.112704 
L 115.630449 57.819311 
L 117.544142 58.005592 
L 118.819938 59.072038 
L 120.095733 60.636761 
L 120.733631 61.777724 
L 121.371529 62.648563 
L 122.009426 63.957165 
L 123.285222 66.085393 
L 123.923119 67.389344 
L 125.836812 69.703841 
L 127.112608 70.649196 
L 129.026301 70.909994 
L 129.664198 70.709747 
L 130.939994 70.127626 
L 131.577892 70.043794 
L 134.129482 70.164884 
L 135.405278 70.523467 
L 136.043175 71.114891 
L 136.681073 71.273228 
L 137.318971 71.678384 
L 139.232664 73.308322 
L 139.870561 74.137251 
L 140.508459 74.309566 
L 141.784254 75.515707 
L 142.422152 75.767189 
L 143.697948 76.842938 
L 144.335845 76.828972 
L 144.973743 77.378486 
L 145.611641 77.569418 
L 146.887436 78.393708 
L 148.801129 79.10621 
L 149.439027 79.059649 
L 150.076924 79.483422 
L 150.714822 79.520681 
L 151.35272 80.000354 
L 151.990617 80.009668 
L 153.266413 80.810653 
L 153.90431 81.043507 
L 154.542208 81.443999 
L 155.180106 81.606999 
L 155.818004 81.956267 
L 156.455901 82.580299 
L 157.093799 82.966826 
L 158.369594 84.163664 
L 159.007492 84.224203 
L 159.64539 84.522247 
L 160.283287 84.578122 
L 160.921185 84.242832 
L 161.559083 84.252135 
L 164.748571 85.714422 
L 166.024367 86.110263 
L 166.662264 86.012466 
L 167.300162 86.45488 
L 167.93806 86.608553 
L 168.575957 86.417622 
L 169.213855 85.984522 
L 169.851753 85.095042 
L 170.48965 83.753845 
L 171.127548 81.681504 
L 175.592832 61.52159 
L 176.230729 59.491159 
L 177.506525 56.869292 
L 178.144423 56.003105 
L 179.420218 55.122939 
L 180.058116 55.146232 
L 180.696013 55.486185 
L 181.333911 55.472219 
L 182.609706 56.040363 
L 183.247604 55.877375 
L 183.885502 55.984475 
L 185.799195 55.127602 
L 186.437092 54.601369 
L 188.988683 50.475317 
L 191.540274 46.479608 
L 192.178172 45.566823 
L 193.453967 44.356043 
L 194.091865 43.820483 
L 194.729762 43.499171 
L 195.36766 43.44338 
L 196.005558 43.955624 
L 197.281353 44.528419 
L 197.919251 44.835692 
L 200.470842 47.434389 
L 201.746637 49.692973 
L 203.66033 54.154303 
L 204.936125 59.342137 
L 206.211921 65.577789 
L 206.849818 67.924893 
L 207.487716 68.870248 
L 208.125614 68.609463 
L 210.039307 66.280988 
L 210.677204 65.698867 
L 211.953 63.910604 
L 212.590898 62.564743 
L 213.228795 61.745117 
L 214.504591 60.757851 
L 215.142488 60.636761 
L 215.780386 60.748537 
L 216.418284 61.10712 
L 217.694079 62.201497 
L 218.969874 63.868682 
L 219.607772 65.144689 
L 222.797261 70.099682 
L 223.435158 70.593321 
L 224.073056 71.268577 
L 224.710954 71.622508 
L 226.624647 72.060259 
L 227.262544 72.032315 
L 227.900442 71.846035 
L 228.53834 71.841384 
L 229.176237 71.520047 
L 229.814135 71.473486 
L 230.452033 71.631811 
L 232.365726 71.31515 
L 233.003623 71.683047 
L 233.641521 71.720293 
L 234.279419 72.232562 
L 235.555214 72.828649 
L 237.468907 74.100005 
L 238.106805 74.849765 
L 240.020498 76.079199 
L 240.658396 76.344648 
L 241.296293 76.861567 
L 244.485782 78.593954 
L 245.761577 79.017739 
L 246.399475 79.31112 
L 247.037373 79.380973 
L 247.67527 79.772163 
L 248.951066 80.330992 
L 250.864759 80.736148 
L 252.140554 81.434685 
L 252.778452 81.891065 
L 254.054247 82.426614 
L 255.330042 83.525655 
L 256.605838 84.368562 
L 257.881633 84.63401 
L 258.519531 84.461708 
L 259.157429 84.587437 
L 259.795326 84.992593 
L 260.433224 85.248727 
L 261.709019 85.928646 
L 263.622712 86.948519 
L 264.898508 87.763482 
L 265.536405 88.308345 
L 266.174303 88.583096 
L 266.812201 88.680894 
L 267.450098 88.923062 
L 268.725894 88.475984 
L 269.363792 87.772797 
L 270.001689 86.818114 
L 271.277485 83.167072 
L 272.55328 78.347135 
L 273.829075 73.163951 
L 275.742768 66.597661 
L 277.018564 63.295887 
L 277.656461 62.425036 
L 278.294359 61.023288 
L 278.932257 60.287493 
L 279.570155 59.975483 
L 281.483848 59.835776 
L 282.759643 60.110527 
L 284.673336 60.073281 
L 285.311234 59.602923 
L 285.949131 59.612237 
L 286.587029 59.216396 
L 288.500722 57.279111 
L 289.776517 55.742319 
L 291.052313 54.219493 
L 291.690211 53.385901 
L 293.603904 52.119209 
L 294.241801 51.909648 
L 296.155494 52.445196 
L 296.793392 52.845701 
L 297.43129 53.474384 
L 298.069187 53.94473 
L 298.707085 54.852839 
L 299.344983 55.565354 
L 300.620778 58.620308 
L 301.258676 60.832356 
L 301.896574 63.556672 
L 303.172369 70.13694 
L 303.810267 73.257098 
L 304.448164 75.02208 
L 305.086062 50.934016 
L 308.27555 44.954597 
L 308.913448 44.103096 
L 309.551346 43.531033 
L 310.189243 43.205204 
L 310.827141 43.11804 
L 311.465039 43.263314 
L 312.102936 43.580597 
L 313.378732 44.578593 
L 314.01663 46.761977 
L 315.930323 49.537811 
L 318.481913 53.815668 
L 320.395606 57.307568 
L 321.671402 60.633001 
L 322.947197 64.897735 
L 324.222993 70.4082 
L 324.86089 74.048988 
L 325.498788 76.311528 
L 326.774583 76.183516 
L 328.050379 75.990716 
L 329.964072 76.037289 
L 330.601969 76.358614 
L 331.239867 76.805679 
L 331.877765 76.78705 
L 334.429355 78.291247 
L 335.067253 78.463561 
L 338.894639 80.759429 
L 339.532537 80.871192 
L 341.44623 81.779302 
L 342.084128 81.937638 
L 343.359923 82.603579 
L 343.997821 82.678096 
L 344.635718 83.171723 
L 345.911514 83.497711 
L 346.549411 83.72125 
L 347.187309 83.544284 
L 348.463105 84.224203 
L 349.101002 84.065867 
L 349.7389 84.512932 
L 351.652593 85.411715 
L 352.290491 86.045061 
L 352.928388 86.357083 
L 354.204184 87.572538 
L 354.842081 87.712246 
L 355.479979 88.261772 
L 356.755774 88.31766 
L 357.393672 88.280401 
L 358.03157 88.448053 
L 358.669468 88.489962 
L 360.583161 89.225757 
L 361.221058 89.51915 
L 361.858956 89.672823 
L 363.134751 90.413281 
L 364.410547 90.855696 
L 365.048444 90.650786 
L 365.686342 90.133867 
L 366.32424 89.048791 
L 366.962137 87.670336 
L 367.600035 85.774961 
L 369.513728 77.588047 
L 371.427421 69.489628 
L 372.065319 67.235659 
L 373.979012 62.085083 
L 374.61691 61.055895 
L 375.254807 60.515683 
L 375.892705 60.194359 
L 376.530603 60.366661 
L 377.1685 60.012742 
L 377.806398 60.1571 
L 378.444296 60.478425 
L 379.720091 60.701964 
L 381.633784 60.664705 
L 383.547477 59.002184 
L 384.185375 58.261726 
L 385.46117 56.296497 
L 387.374863 53.050598 
L 388.650659 50.936348 
L 390.564352 48.985037 
L 391.840147 48.607812 
L 392.478045 48.584617 
L 393.115943 48.714998 
L 393.75384 49.031671 
L 394.391738 49.585788 
L 396.943329 52.258916 
L 397.581226 53.474384 
L 398.219124 54.345235 
L 399.494919 57.33965 
L 400.132817 59.579642 
L 401.408612 65.251801 
L 402.684408 71.277891 
L 403.322305 72.889188 
L 403.960203 73.03821 
L 405.235999 70.625916 
L 405.873896 69.880806 
L 406.511794 68.823675 
L 407.149692 68.222936 
L 409.063385 65.447396 
L 410.33918 64.255209 
L 410.977078 63.798828 
L 412.890771 64.273838 
L 413.528668 64.795421 
L 414.166566 65.163318 
L 414.804464 65.70353 
L 415.442362 66.718739 
L 417.356055 69.252111 
L 417.993952 70.411704 
L 419.269748 71.985742 
L 419.907645 72.777425 
L 421.183441 73.937005 
L 423.097134 74.523778 
L 424.372929 74.244363 
L 425.010827 74.314217 
L 425.648724 74.025488 
L 426.286622 73.881117 
L 428.838213 74.253678 
L 429.476111 74.519126 
L 430.114008 74.63089 
L 430.751906 75.054675 
L 431.389804 75.194382 
L 432.027701 75.720616 
L 432.665599 75.818414 
L 433.941394 76.777748 
L 434.579292 77.057162 
L 435.21719 77.574081 
L 436.492985 78.086349 
L 437.130883 78.393708 
L 437.768781 78.989795 
L 438.406678 79.166761 
L 439.044576 79.716276 
L 439.682474 79.832702 
L 440.320371 80.340307 
L 441.596167 80.936395 
L 442.234064 81.001597 
L 443.50986 81.662875 
L 444.785655 81.905043 
L 446.06145 82.468535 
L 447.337246 82.580299 
L 447.975143 83.171723 
L 449.250939 83.902867 
L 449.888837 84.033259 
L 451.80253 85.216132 
L 452.440427 85.854129 
L 454.35412 86.589924 
L 454.992018 86.589924 
L 455.629916 86.431588 
L 456.267813 86.799485 
L 456.905711 86.846058 
L 458.181506 87.339697 
L 461.370995 89.095365 
L 462.008893 89.067421 
L 462.64679 89.51915 
L 463.284688 89.318903 
L 463.922586 88.895118 
L 464.560483 87.973043 
L 465.198381 86.575958 
L 465.836279 84.475674 
L 467.112074 79.171412 
L 467.749972 76.004694 
L 469.025767 70.481557 
L 469.663665 67.813117 
L 470.93946 63.947862 
L 471.577358 62.173566 
L 472.853153 59.654147 
L 473.491051 59.141891 
L 474.766846 58.457321 
L 475.404744 58.736735 
L 476.680539 58.773994 
L 477.318437 59.076689 
L 478.594232 59.300228 
L 479.870028 58.760016 
L 480.507925 58.322265 
L 481.145823 57.749458 
L 481.783721 56.748214 
L 482.421618 56.100902 
L 484.335312 52.887611 
L 484.973209 51.457931 
L 485.611107 50.372856 
L 488.162698 47.182906 
L 489.438493 46.377184 
L 490.076391 46.20493 
L 492.627981 47.513496 
L 493.903777 48.756871 
L 494.541675 49.818714 
L 495.179572 50.563787 
L 495.81747 51.667492 
L 496.455368 52.487106 
L 497.093265 53.628069 
L 498.369061 56.785473 
L 499.006958 58.941633 
L 501.558549 70.183514 
L 502.196447 71.263913 
L 502.834344 70.816847 
L 504.748037 67.761893 
L 505.385935 67.254288 
L 506.661731 65.256464 
L 507.299628 64.539287 
L 507.937526 63.570638 
L 508.575424 63.095629 
L 509.851219 62.49489 
L 510.489117 62.862787 
L 511.127014 62.690485 
L 511.764912 63.104955 
L 514.316503 65.917742 
L 514.9544 66.918986 
L 515.592298 67.505759 
L 516.230196 68.893529 
L 518.143889 71.170779 
L 520.057582 72.530605 
L 521.971275 73.299007 
L 524.522866 73.005615 
L 525.160763 73.205861 
L 525.798661 72.926447 
L 527.074456 73.215176 
L 527.712354 73.382827 
L 528.350252 73.727444 
L 529.626047 74.039453 
L 530.263945 74.79389 
L 530.901843 74.919619 
L 531.53974 75.408607 
L 532.177638 75.739245 
L 533.453433 76.777748 
L 534.091331 76.880196 
L 536.642922 78.351786 
L 537.280819 78.626549 
L 537.918717 79.10621 
L 539.194512 79.665051 
L 539.83241 80.195936 
L 540.470308 80.163341 
L 541.108206 80.619722 
L 541.746103 80.512609 
L 542.384001 81.015563 
L 543.659796 81.234438 
L 544.297694 81.308955 
L 544.935592 81.634943 
L 545.573489 82.189109 
L 546.211387 82.24966 
L 548.12508 83.176386 
L 551.314569 85.723737 
L 551.952466 85.937949 
L 553.228262 85.868095 
L 554.504057 86.254622 
L 555.141955 86.142858 
L 555.779852 86.575958 
L 557.055648 87.013709 
L 557.055648 87.013709 
" clip-path="url(#p3ab8bc12ca)" style="fill: none; stroke: #1f77b4; stroke-width: 1.5; stroke-linecap: square"/>
   </g>
   <g id="patch_4">
    <path d="M 39.28 93.424 
L 39.28 38.4 
" style="fill: none; stroke: #000000; stroke-width: 2.5; stroke-linejoin: miter; stroke-linecap: square"/>
   </g>
   <g id="patch_5">
    <path d="M 39.28 93.424 
L 556.56 93.424 
" style="fill: none; stroke: #000000; stroke-width: 2.5; stroke-linejoin: miter; stroke-linecap: square"/>
   </g>
   <g id="text_2">
    <!-- UCR_133 -->
    <g transform="translate(257.11625 32.4)scale(0.18 -0.18)">
     <defs>
      <path id="DejaVuSans-55" d="M 556 4666 
L 1191 4666 
L 1191 1831 
Q 1191 1081 1462 751 
Q 1734 422 2344 422 
Q 2950 422 3222 751 
Q 3494 1081 3494 1831 
L 3494 4666 
L 4128 4666 
L 4128 1753 
Q 4128 841 3676 375 
Q 3225 -91 2344 -91 
Q 1459 -91 1007 375 
Q 556 841 556 1753 
L 556 4666 
z
" transform="scale(0.015625)"/>
      <path id="DejaVuSans-43" d="M 4122 4306 
L 4122 3641 
Q 3803 3938 3442 4084 
Q 3081 4231 2675 4231 
Q 1875 4231 1450 3742 
Q 1025 3253 1025 2328 
Q 1025 1406 1450 917 
Q 1875 428 2675 428 
Q 3081 428 3442 575 
Q 3803 722 4122 1019 
L 4122 359 
Q 3791 134 3420 21 
Q 3050 -91 2638 -91 
Q 1578 -91 968 557 
Q 359 1206 359 2328 
Q 359 3453 968 4101 
Q 1578 4750 2638 4750 
Q 3056 4750 3426 4639 
Q 3797 4528 4122 4306 
z
" transform="scale(0.015625)"/>
      <path id="DejaVuSans-52" d="M 2841 2188 
Q 3044 2119 3236 1894 
Q 3428 1669 3622 1275 
L 4263 0 
L 3584 0 
L 2988 1197 
Q 2756 1666 2539 1819 
Q 2322 1972 1947 1972 
L 1259 1972 
L 1259 0 
L 628 0 
L 628 4666 
L 2053 4666 
Q 2853 4666 3247 4331 
Q 3641 3997 3641 3322 
Q 3641 2881 3436 2590 
Q 3231 2300 2841 2188 
z
M 1259 4147 
L 1259 2491 
L 2053 2491 
Q 2509 2491 2742 2702 
Q 2975 2913 2975 3322 
Q 2975 3731 2742 3939 
Q 2509 4147 2053 4147 
L 1259 4147 
z
" transform="scale(0.015625)"/>
      <path id="DejaVuSans-5f" d="M 3263 -1063 
L 3263 -1509 
L -63 -1509 
L -63 -1063 
L 3263 -1063 
z
" transform="scale(0.015625)"/>
      <path id="DejaVuSans-31" d="M 794 531 
L 1825 531 
L 1825 4091 
L 703 3866 
L 703 4441 
L 1819 4666 
L 2450 4666 
L 2450 531 
L 3481 531 
L 3481 0 
L 794 0 
L 794 531 
z
" transform="scale(0.015625)"/>
      <path id="DejaVuSans-33" d="M 2597 2516 
Q 3050 2419 3304 2112 
Q 3559 1806 3559 1356 
Q 3559 666 3084 287 
Q 2609 -91 1734 -91 
Q 1441 -91 1130 -33 
Q 819 25 488 141 
L 488 750 
Q 750 597 1062 519 
Q 1375 441 1716 441 
Q 2309 441 2620 675 
Q 2931 909 2931 1356 
Q 2931 1769 2642 2001 
Q 2353 2234 1838 2234 
L 1294 2234 
L 1294 2753 
L 1863 2753 
Q 2328 2753 2575 2939 
Q 2822 3125 2822 3475 
Q 2822 3834 2567 4026 
Q 2313 4219 1838 4219 
Q 1578 4219 1281 4162 
Q 984 4106 628 3988 
L 628 4550 
Q 988 4650 1302 4700 
Q 1616 4750 1894 4750 
Q 2613 4750 3031 4423 
Q 3450 4097 3450 3541 
Q 3450 3153 3228 2886 
Q 3006 2619 2597 2516 
z
" transform="scale(0.015625)"/>
     </defs>
     <use xlink:href="#DejaVuSans-55"/>
     <use xlink:href="#DejaVuSans-43" x="73.193359"/>
     <use xlink:href="#DejaVuSans-52" x="143.017578"/>
     <use xlink:href="#DejaVuSans-5f" x="212.5"/>
     <use xlink:href="#DejaVuSans-31" x="262.5"/>
     <use xlink:href="#DejaVuSans-33" x="326.123047"/>
     <use xlink:href="#DejaVuSans-33" x="389.746094"/>
    </g>
   </g>
  </g>
  <g id="axes_2">
   <g id="patch_6">
    <path d="M 39.28 167.888 
L 556.56 167.888 
L 556.56 112.864 
L 39.28 112.864 
z
" style="fill: #ffffff"/>
   </g>
   <g id="patch_7">
    <path d="M 305.086062 167.888 
L 305.086062 112.864 
L 322.309299 112.864 
L 322.309299 167.888 
z
" clip-path="url(#p96c42eca9f)" style="fill: #ff7f50; stroke: #ff7f50; stroke-linejoin: miter"/>
   </g>
   <g id="matplotlib.axis_3"/>
   <g id="matplotlib.axis_4">
    <g id="text_3">
     <!-- Small $τ$ -->
     <g transform="translate(32.368437 166.276)rotate(-90)scale(0.14 -0.14)">
      <defs>
       <path id="DejaVuSans-53" d="M 3425 4513 
L 3425 3897 
Q 3066 4069 2747 4153 
Q 2428 4238 2131 4238 
Q 1616 4238 1336 4038 
Q 1056 3838 1056 3469 
Q 1056 3159 1242 3001 
Q 1428 2844 1947 2747 
L 2328 2669 
Q 3034 2534 3370 2195 
Q 3706 1856 3706 1288 
Q 3706 609 3251 259 
Q 2797 -91 1919 -91 
Q 1588 -91 1214 -16 
Q 841 59 441 206 
L 441 856 
Q 825 641 1194 531 
Q 1563 422 1919 422 
Q 2459 422 2753 634 
Q 3047 847 3047 1241 
Q 3047 1584 2836 1778 
Q 2625 1972 2144 2069 
L 1759 2144 
Q 1053 2284 737 2584 
Q 422 2884 422 3419 
Q 422 4038 858 4394 
Q 1294 4750 2059 4750 
Q 2388 4750 2728 4690 
Q 3069 4631 3425 4513 
z
" transform="scale(0.015625)"/>
       <path id="DejaVuSans-6d" d="M 3328 2828 
Q 3544 3216 3844 3400 
Q 4144 3584 4550 3584 
Q 5097 3584 5394 3201 
Q 5691 2819 5691 2113 
L 5691 0 
L 5113 0 
L 5113 2094 
Q 5113 2597 4934 2840 
Q 4756 3084 4391 3084 
Q 3944 3084 3684 2787 
Q 3425 2491 3425 1978 
L 3425 0 
L 2847 0 
L 2847 2094 
Q 2847 2600 2669 2842 
Q 2491 3084 2119 3084 
Q 1678 3084 1418 2786 
Q 1159 2488 1159 1978 
L 1159 0 
L 581 0 
L 581 3500 
L 1159 3500 
L 1159 2956 
Q 1356 3278 1631 3431 
Q 1906 3584 2284 3584 
Q 2666 3584 2933 3390 
Q 3200 3197 3328 2828 
z
" transform="scale(0.015625)"/>
       <path id="DejaVuSans-61" d="M 2194 1759 
Q 1497 1759 1228 1600 
Q 959 1441 959 1056 
Q 959 750 1161 570 
Q 1363 391 1709 391 
Q 2188 391 2477 730 
Q 2766 1069 2766 1631 
L 2766 1759 
L 2194 1759 
z
M 3341 1997 
L 3341 0 
L 2766 0 
L 2766 531 
Q 2569 213 2275 61 
Q 1981 -91 1556 -91 
Q 1019 -91 701 211 
Q 384 513 384 1019 
Q 384 1609 779 1909 
Q 1175 2209 1959 2209 
L 2766 2209 
L 2766 2266 
Q 2766 2663 2505 2880 
Q 2244 3097 1772 3097 
Q 1472 3097 1187 3025 
Q 903 2953 641 2809 
L 641 3341 
Q 956 3463 1253 3523 
Q 1550 3584 1831 3584 
Q 2591 3584 2966 3190 
Q 3341 2797 3341 1997 
z
" transform="scale(0.015625)"/>
       <path id="DejaVuSans-6c" d="M 603 4863 
L 1178 4863 
L 1178 0 
L 603 0 
L 603 4863 
z
" transform="scale(0.015625)"/>
       <path id="DejaVuSans-20" transform="scale(0.015625)"/>
       <path id="DejaVuSans-Oblique-3c4" d="M 2103 638 
Q 2188 488 2525 488 
L 2800 488 
L 2706 0 
L 2363 0 
Q 1800 0 1600 300 
Q 1403 606 1534 1269 
L 1856 2925 
L 541 2925 
L 653 3500 
L 3881 3500 
L 3769 2925 
L 2444 2925 
L 2113 1234 
Q 2025 781 2103 638 
z
" transform="scale(0.015625)"/>
      </defs>
      <use xlink:href="#DejaVuSans-53" transform="translate(0 0.015625)"/>
      <use xlink:href="#DejaVuSans-6d" transform="translate(63.476562 0.015625)"/>
      <use xlink:href="#DejaVuSans-61" transform="translate(160.888672 0.015625)"/>
      <use xlink:href="#DejaVuSans-6c" transform="translate(222.167969 0.015625)"/>
      <use xlink:href="#DejaVuSans-6c" transform="translate(249.951172 0.015625)"/>
      <use xlink:href="#DejaVuSans-20" transform="translate(277.734375 0.015625)"/>
      <use xlink:href="#DejaVuSans-Oblique-3c4" transform="translate(309.521484 0.015625)"/>
     </g>
    </g>
   </g>
   <g id="line2d_2">
    <path d="M 39.082727 165.385627 
L 304.448164 165.368975 
L 305.086062 164.714771 
L 305.72396 115.365091 
L 306.999755 121.819764 
L 307.637653 126.717286 
L 308.27555 141.390127 
L 308.913448 137.239854 
L 309.551346 147.953372 
L 310.189243 154.196261 
L 310.827141 155.654729 
L 311.465039 155.517969 
L 312.102936 157.143725 
L 312.740834 159.527533 
L 313.378732 158.661994 
L 314.01663 161.034089 
L 314.654527 162.534324 
L 315.292425 163.237376 
L 315.930323 163.31145 
L 316.56822 163.975588 
L 317.844016 164.613293 
L 318.481913 164.786358 
L 319.757709 164.920951 
L 321.671402 165.190959 
L 324.86089 165.261033 
L 326.136686 165.146515 
L 327.412481 165.15315 
L 329.326174 164.953941 
L 331.239867 164.973907 
L 332.515662 164.931445 
L 336.980946 165.124063 
L 339.532537 165.293847 
L 541.108206 165.38442 
L 557.055648 165.38104 
L 557.055648 165.38104 
" clip-path="url(#p96c42eca9f)" style="fill: none; stroke: #1f77b4; stroke-width: 1.5; stroke-linecap: square"/>
   </g>
   <g id="patch_8">
    <path d="M 39.28 167.888 
L 39.28 112.864 
" style="fill: none; stroke: #000000; stroke-width: 2.5; stroke-linejoin: miter; stroke-linecap: square"/>
   </g>
   <g id="patch_9">
    <path d="M 39.28 167.888 
L 556.56 167.888 
" style="fill: none; stroke: #000000; stroke-width: 2.5; stroke-linejoin: miter; stroke-linecap: square"/>
   </g>
  </g>
  <g id="axes_3">
   <g id="patch_10">
    <path d="M 39.28 242.352 
L 556.56 242.352 
L 556.56 187.328 
L 39.28 187.328 
z
" style="fill: #ffffff"/>
   </g>
   <g id="patch_11">
    <path d="M 305.086062 242.352 
L 305.086062 187.328 
L 322.309299 187.328 
L 322.309299 242.352 
z
" clip-path="url(#p47b8c7dd21)" style="fill: #ff7f50; stroke: #ff7f50; stroke-linejoin: miter"/>
   </g>
   <g id="matplotlib.axis_5"/>
   <g id="matplotlib.axis_6">
    <g id="text_4">
     <!-- Medium $τ$ -->
     <g transform="translate(32.368437 249.28)rotate(-90)scale(0.14 -0.14)">
      <defs>
       <path id="DejaVuSans-4d" d="M 628 4666 
L 1569 4666 
L 2759 1491 
L 3956 4666 
L 4897 4666 
L 4897 0 
L 4281 0 
L 4281 4097 
L 3078 897 
L 2444 897 
L 1241 4097 
L 1241 0 
L 628 0 
L 628 4666 
z
" transform="scale(0.015625)"/>
       <path id="DejaVuSans-65" d="M 3597 1894 
L 3597 1613 
L 953 1613 
Q 991 1019 1311 708 
Q 1631 397 2203 397 
Q 2534 397 2845 478 
Q 3156 559 3463 722 
L 3463 178 
Q 3153 47 2828 -22 
Q 2503 -91 2169 -91 
Q 1331 -91 842 396 
Q 353 884 353 1716 
Q 353 2575 817 3079 
Q 1281 3584 2069 3584 
Q 2775 3584 3186 3129 
Q 3597 2675 3597 1894 
z
M 3022 2063 
Q 3016 2534 2758 2815 
Q 2500 3097 2075 3097 
Q 1594 3097 1305 2825 
Q 1016 2553 972 2059 
L 3022 2063 
z
" transform="scale(0.015625)"/>
       <path id="DejaVuSans-64" d="M 2906 2969 
L 2906 4863 
L 3481 4863 
L 3481 0 
L 2906 0 
L 2906 525 
Q 2725 213 2448 61 
Q 2172 -91 1784 -91 
Q 1150 -91 751 415 
Q 353 922 353 1747 
Q 353 2572 751 3078 
Q 1150 3584 1784 3584 
Q 2172 3584 2448 3432 
Q 2725 3281 2906 2969 
z
M 947 1747 
Q 947 1113 1208 752 
Q 1469 391 1925 391 
Q 2381 391 2643 752 
Q 2906 1113 2906 1747 
Q 2906 2381 2643 2742 
Q 2381 3103 1925 3103 
Q 1469 3103 1208 2742 
Q 947 2381 947 1747 
z
" transform="scale(0.015625)"/>
       <path id="DejaVuSans-69" d="M 603 3500 
L 1178 3500 
L 1178 0 
L 603 0 
L 603 3500 
z
M 603 4863 
L 1178 4863 
L 1178 4134 
L 603 4134 
L 603 4863 
z
" transform="scale(0.015625)"/>
      </defs>
      <use xlink:href="#DejaVuSans-4d" transform="translate(0 0.015625)"/>
      <use xlink:href="#DejaVuSans-65" transform="translate(86.279297 0.015625)"/>
      <use xlink:href="#DejaVuSans-64" transform="translate(147.802734 0.015625)"/>
      <use xlink:href="#DejaVuSans-69" transform="translate(211.279297 0.015625)"/>
      <use xlink:href="#DejaVuSans-75" transform="translate(239.0625 0.015625)"/>
      <use xlink:href="#DejaVuSans-6d" transform="translate(302.441406 0.015625)"/>
      <use xlink:href="#DejaVuSans-20" transform="translate(399.853516 0.015625)"/>
      <use xlink:href="#DejaVuSans-Oblique-3c4" transform="translate(431.640625 0.015625)"/>
     </g>
    </g>
   </g>
   <g id="line2d_3">
    <path d="M 39.082727 239.846215 
L 104.148291 239.748974 
L 111.803063 239.740274 
L 126.47471 239.801714 
L 153.90431 239.830059 
L 259.157429 239.844395 
L 304.448164 239.720083 
L 305.086062 235.853194 
L 305.72396 221.774959 
L 306.361857 204.001213 
L 306.999755 193.520049 
L 307.637653 189.902781 
L 308.27555 189.829091 
L 308.913448 193.179012 
L 310.189243 203.166888 
L 310.827141 205.76405 
L 311.465039 206.065467 
L 312.102936 205.630074 
L 312.740834 206.221779 
L 313.378732 208.360974 
L 314.01663 211.279418 
L 315.292425 217.830381 
L 316.56822 222.921276 
L 317.206118 224.897366 
L 317.844016 226.455266 
L 319.119811 228.782172 
L 321.033504 231.731525 
L 322.947197 234.30538 
L 324.222993 235.572084 
L 324.86089 235.755299 
L 325.498788 235.150964 
L 326.136686 233.493466 
L 327.412481 229.140521 
L 334.429355 203.50098 
L 335.067253 201.995507 
L 335.705151 201.361385 
L 336.343049 201.540748 
L 336.980946 202.593535 
L 337.618844 204.344162 
L 340.170435 212.852304 
L 340.808332 214.283927 
L 341.44623 215.288789 
L 342.084128 215.92629 
L 342.722025 216.288809 
L 343.997821 216.649536 
L 345.273616 217.018933 
L 345.911514 217.301723 
L 346.549411 217.769687 
L 347.187309 218.395085 
L 348.463105 220.304494 
L 349.7389 222.814551 
L 351.652593 226.819367 
L 352.928388 228.934575 
L 353.566286 229.722235 
L 354.204184 230.267776 
L 354.842081 230.611233 
L 355.479979 230.78069 
L 356.755774 230.61098 
L 360.583161 229.292791 
L 361.858956 229.277199 
L 363.772649 229.800379 
L 365.686342 230.559799 
L 366.962137 231.404682 
L 368.237933 232.589963 
L 369.513728 233.861064 
L 372.703217 236.260913 
L 375.254807 237.677659 
L 377.806398 238.686815 
L 379.720091 239.150377 
L 382.271682 239.433404 
L 388.012761 239.716462 
L 396.943329 239.805802 
L 557.055648 239.840507 
L 557.055648 239.840507 
" clip-path="url(#p47b8c7dd21)" style="fill: none; stroke: #1f77b4; stroke-width: 1.5; stroke-linecap: square"/>
   </g>
   <g id="patch_12">
    <path d="M 39.28 242.352 
L 39.28 187.328 
" style="fill: none; stroke: #000000; stroke-width: 2.5; stroke-linejoin: miter; stroke-linecap: square"/>
   </g>
   <g id="patch_13">
    <path d="M 39.28 242.352 
L 556.56 242.352 
" style="fill: none; stroke: #000000; stroke-width: 2.5; stroke-linejoin: miter; stroke-linecap: square"/>
   </g>
  </g>
  <g id="axes_4">
   <g id="patch_14">
    <path d="M 39.28 316.816 
L 556.56 316.816 
L 556.56 261.792 
L 39.28 261.792 
z
" style="fill: #ffffff"/>
   </g>
   <g id="patch_15">
    <path d="M 305.086062 316.816 
L 305.086062 261.792 
L 322.309299 261.792 
L 322.309299 316.816 
z
" clip-path="url(#pd414b63381)" style="fill: #ff7f50; stroke: #ff7f50; stroke-linejoin: miter"/>
   </g>
   <g id="matplotlib.axis_7"/>
   <g id="matplotlib.axis_8">
    <g id="text_5">
     <!-- Large $τ$ -->
     <g transform="translate(32.34 315.624)rotate(-90)scale(0.14 -0.14)">
      <defs>
       <path id="DejaVuSans-4c" d="M 628 4666 
L 1259 4666 
L 1259 531 
L 3531 531 
L 3531 0 
L 628 0 
L 628 4666 
z
" transform="scale(0.015625)"/>
       <path id="DejaVuSans-72" d="M 2631 2963 
Q 2534 3019 2420 3045 
Q 2306 3072 2169 3072 
Q 1681 3072 1420 2755 
Q 1159 2438 1159 1844 
L 1159 0 
L 581 0 
L 581 3500 
L 1159 3500 
L 1159 2956 
Q 1341 3275 1631 3429 
Q 1922 3584 2338 3584 
Q 2397 3584 2469 3576 
Q 2541 3569 2628 3553 
L 2631 2963 
z
" transform="scale(0.015625)"/>
       <path id="DejaVuSans-67" d="M 2906 1791 
Q 2906 2416 2648 2759 
Q 2391 3103 1925 3103 
Q 1463 3103 1205 2759 
Q 947 2416 947 1791 
Q 947 1169 1205 825 
Q 1463 481 1925 481 
Q 2391 481 2648 825 
Q 2906 1169 2906 1791 
z
M 3481 434 
Q 3481 -459 3084 -895 
Q 2688 -1331 1869 -1331 
Q 1566 -1331 1297 -1286 
Q 1028 -1241 775 -1147 
L 775 -588 
Q 1028 -725 1275 -790 
Q 1522 -856 1778 -856 
Q 2344 -856 2625 -561 
Q 2906 -266 2906 331 
L 2906 616 
Q 2728 306 2450 153 
Q 2172 0 1784 0 
Q 1141 0 747 490 
Q 353 981 353 1791 
Q 353 2603 747 3093 
Q 1141 3584 1784 3584 
Q 2172 3584 2450 3431 
Q 2728 3278 2906 2969 
L 2906 3500 
L 3481 3500 
L 3481 434 
z
" transform="scale(0.015625)"/>
      </defs>
      <use xlink:href="#DejaVuSans-4c" transform="translate(0 0.09375)"/>
      <use xlink:href="#DejaVuSans-61" transform="translate(55.712891 0.09375)"/>
      <use xlink:href="#DejaVuSans-72" transform="translate(116.992188 0.09375)"/>
      <use xlink:href="#DejaVuSans-67" transform="translate(158.105469 0.09375)"/>
      <use xlink:href="#DejaVuSans-65" transform="translate(221.582031 0.09375)"/>
      <use xlink:href="#DejaVuSans-20" transform="translate(283.105469 0.09375)"/>
      <use xlink:href="#DejaVuSans-Oblique-3c4" transform="translate(314.892578 0.09375)"/>
     </g>
    </g>
   </g>
   <g id="line2d_4">
    <path d="M 39.082727 314.305062 
L 104.148291 314.224686 
L 113.078859 314.215505 
L 127.112608 314.258814 
L 133.491585 314.249474 
L 161.559083 314.269696 
L 175.592832 314.187618 
L 181.971809 314.186404 
L 199.195046 314.275437 
L 270.001689 314.265217 
L 283.397541 314.24741 
L 304.448164 314.191723 
L 305.086062 311.694031 
L 305.72396 311.128406 
L 306.361857 308.37628 
L 308.27555 298.443485 
L 310.827141 286.718292 
L 311.465039 284.467824 
L 312.102936 282.697737 
L 312.740834 281.411049 
L 313.378732 280.578736 
L 314.01663 280.045931 
L 314.654527 280.353023 
L 315.292425 280.990683 
L 315.930323 281.834626 
L 317.206118 284.104673 
L 318.481913 287.078482 
L 321.033504 293.523652 
L 322.309299 296.03471 
L 322.947197 296.941246 
L 323.585095 297.567526 
L 324.222993 297.884274 
L 324.86089 297.80856 
L 325.498788 297.323174 
L 326.774583 295.711859 
L 327.412481 294.729761 
L 328.050379 293.484169 
L 329.326174 290.148177 
L 333.15356 279.216955 
L 336.980946 267.067659 
L 337.618844 265.758567 
L 338.256742 264.880851 
L 338.894639 264.405784 
L 339.532537 264.293091 
L 340.170435 264.56343 
L 340.808332 265.128522 
L 342.084128 266.915992 
L 345.273616 272.343616 
L 345.911514 273.094794 
L 346.549411 273.613963 
L 347.187309 273.882966 
L 347.825207 273.993408 
L 348.463105 273.850118 
L 351.652593 272.168059 
L 352.290491 272.043645 
L 352.928388 272.038845 
L 353.566286 272.252625 
L 354.204184 272.61781 
L 354.842081 273.150196 
L 356.117877 274.667719 
L 358.03157 277.142605 
L 358.669468 277.704824 
L 359.307365 278.058515 
L 359.945263 278.183489 
L 360.583161 278.106232 
L 361.221058 277.843302 
L 362.496854 276.908134 
L 363.772649 275.374981 
L 365.048444 273.283222 
L 366.32424 271.209285 
L 366.962137 270.592503 
L 367.600035 270.459627 
L 368.237933 270.928477 
L 368.87583 272.047105 
L 370.789524 276.582369 
L 371.427421 277.635954 
L 372.065319 278.399649 
L 373.979012 279.96598 
L 375.254807 281.028524 
L 375.892705 281.824822 
L 376.530603 282.79908 
L 377.806398 285.341446 
L 379.720091 289.977924 
L 381.633784 294.308804 
L 382.90958 296.697059 
L 384.823273 299.8247 
L 387.374863 303.576337 
L 389.288556 305.983468 
L 391.202249 307.955872 
L 393.115943 309.501866 
L 395.029636 310.681933 
L 396.943329 311.596868 
L 399.494919 312.538993 
L 402.04651 313.211084 
L 404.598101 313.603358 
L 408.425487 313.912624 
L 413.528668 314.107926 
L 423.735031 314.26003 
L 454.35412 314.309569 
L 530.901843 314.308309 
L 557.055648 314.304149 
L 557.055648 314.304149 
" clip-path="url(#pd414b63381)" style="fill: none; stroke: #1f77b4; stroke-width: 1.5; stroke-linecap: square"/>
   </g>
   <g id="patch_16">
    <path d="M 39.28 316.816 
L 39.28 261.792 
" style="fill: none; stroke: #000000; stroke-width: 2.5; stroke-linejoin: miter; stroke-linecap: square"/>
   </g>
   <g id="patch_17">
    <path d="M 39.28 316.816 
L 556.56 316.816 
" style="fill: none; stroke: #000000; stroke-width: 2.5; stroke-linejoin: miter; stroke-linecap: square"/>
   </g>
  </g>
  <g id="axes_5">
   <g id="patch_18">
    <path d="M 39.28 391.28 
L 556.56 391.28 
L 556.56 336.256 
L 39.28 336.256 
z
" style="fill: #ffffff"/>
   </g>
   <g id="patch_19">
    <path d="M 305.086062 391.28 
L 305.086062 336.256 
L 322.309299 336.256 
L 322.309299 391.28 
z
" clip-path="url(#pdbcd6c3ad1)" style="fill: #ff7f50; stroke: #ff7f50; stroke-linejoin: miter"/>
   </g>
   <g id="matplotlib.axis_9">
    <g id="text_6">
     <!-- Time -->
     <g transform="translate(275.899531 408.957187)scale(0.18 -0.18)">
      <defs>
       <path id="DejaVuSans-54" d="M -19 4666 
L 3928 4666 
L 3928 4134 
L 2272 4134 
L 2272 0 
L 1638 0 
L 1638 4134 
L -19 4134 
L -19 4666 
z
" transform="scale(0.015625)"/>
      </defs>
      <use xlink:href="#DejaVuSans-54"/>
      <use xlink:href="#DejaVuSans-69" x="57.958984"/>
      <use xlink:href="#DejaVuSans-6d" x="85.742188"/>
      <use xlink:href="#DejaVuSans-65" x="183.154297"/>
     </g>
    </g>
   </g>
   <g id="matplotlib.axis_10">
    <g id="text_7">
     <!-- Mixed $τ$ -->
     <g transform="translate(32.368437 391.138)rotate(-90)scale(0.14 -0.14)">
      <defs>
       <path id="DejaVuSans-78" d="M 3513 3500 
L 2247 1797 
L 3578 0 
L 2900 0 
L 1881 1375 
L 863 0 
L 184 0 
L 1544 1831 
L 300 3500 
L 978 3500 
L 1906 2253 
L 2834 3500 
L 3513 3500 
z
" transform="scale(0.015625)"/>
      </defs>
      <use xlink:href="#DejaVuSans-4d" transform="translate(0 0.015625)"/>
      <use xlink:href="#DejaVuSans-69" transform="translate(86.279297 0.015625)"/>
      <use xlink:href="#DejaVuSans-78" transform="translate(114.0625 0.015625)"/>
      <use xlink:href="#DejaVuSans-65" transform="translate(173.242188 0.015625)"/>
      <use xlink:href="#DejaVuSans-64" transform="translate(234.765625 0.015625)"/>
      <use xlink:href="#DejaVuSans-20" transform="translate(298.242188 0.015625)"/>
      <use xlink:href="#DejaVuSans-Oblique-3c4" transform="translate(330.029297 0.015625)"/>
     </g>
    </g>
   </g>
   <g id="line2d_5">
    <path d="M 39.082727 388.776948 
L 304.448164 388.716365 
L 305.086062 387.125457 
L 305.72396 347.794107 
L 306.361857 339.769827 
L 306.999755 338.757091 
L 307.637653 339.865091 
L 308.27555 345.670449 
L 309.551346 361.425517 
L 310.189243 367.00313 
L 310.827141 370.770642 
L 311.465039 373.386763 
L 312.102936 375.357387 
L 312.740834 376.85573 
L 313.378732 377.928442 
L 314.654527 379.343539 
L 315.930323 380.386203 
L 318.481913 383.492352 
L 320.395606 385.17605 
L 321.671402 386.035644 
L 322.947197 386.623399 
L 324.222993 386.955117 
L 324.86089 386.928578 
L 325.498788 386.558632 
L 326.774583 385.18583 
L 329.326174 381.027228 
L 330.601969 379.734116 
L 333.791458 376.903754 
L 334.429355 376.512996 
L 335.067253 376.295611 
L 336.343049 376.256478 
L 337.618844 376.592442 
L 340.808332 378.067779 
L 350.376798 381.303698 
L 354.842081 383.454495 
L 356.117877 383.779275 
L 357.393672 383.930177 
L 359.307365 383.760724 
L 365.686342 382.509452 
L 366.32424 382.602966 
L 367.600035 383.149901 
L 368.87583 384.07716 
L 371.427421 386.04759 
L 372.703217 386.789616 
L 373.979012 387.297381 
L 375.892705 387.816249 
L 378.444296 388.243496 
L 381.633784 388.522828 
L 388.012761 388.695059 
L 403.960203 388.75394 
L 474.128949 388.770481 
L 550.038773 388.777682 
L 557.055648 388.773611 
L 557.055648 388.773611 
" clip-path="url(#pdbcd6c3ad1)" style="fill: none; stroke: #1f77b4; stroke-width: 1.5; stroke-linecap: square"/>
   </g>
   <g id="patch_20">
    <path d="M 39.28 391.28 
L 39.28 336.256 
" style="fill: none; stroke: #000000; stroke-width: 2.5; stroke-linejoin: miter; stroke-linecap: square"/>
   </g>
   <g id="patch_21">
    <path d="M 39.28 391.28 
L 556.56 391.28 
" style="fill: none; stroke: #000000; stroke-width: 2.5; stroke-linejoin: miter; stroke-linecap: square"/>
   </g>
  </g>
 </g>
 <defs>
  <clipPath id="p3ab8bc12ca">
   <rect x="39.28" y="38.4" width="517.28" height="55.024"/>
  </clipPath>
  <clipPath id="p96c42eca9f">
   <rect x="39.28" y="112.864" width="517.28" height="55.024"/>
  </clipPath>
  <clipPath id="p47b8c7dd21">
   <rect x="39.28" y="187.328" width="517.28" height="55.024"/>
  </clipPath>
  <clipPath id="pd414b63381">
   <rect x="39.28" y="261.792" width="517.28" height="55.024"/>
  </clipPath>
  <clipPath id="pdbcd6c3ad1">
   <rect x="39.28" y="336.256" width="517.28" height="55.024"/>
  </clipPath>
 </defs>
</svg>
